<?xml version="1.0" encoding="UTF-8" standalone="no"?>
<!DOCTYPE svg PUBLIC "-//W3C//DTD SVG 1.1//EN" "http://www.w3.org/Graphics/SVG/1.1/DTD/svg11.dtd">
<svg width="100%" height="100%" viewBox="0 0 256 256" version="1.1" xmlns="http://www.w3.org/2000/svg" xmlns:xlink="http://www.w3.org/1999/xlink" xml:space="preserve" xmlns:serif="http://www.serif.com/" style="fill-rule:evenodd;clip-rule:evenodd;stroke-linecap:round;stroke-linejoin:round;stroke-miterlimit:1.5;">
    <g transform="matrix(1,0,0,1,-1967,-1686)">
        <g id="blobbee_gamer" transform="matrix(1,0,0,1,1967,1686)">
            <rect x="0" y="0" width="256" height="256" style="fill:none;"/>
            <g id="Controller-outline" serif:id="Controller outline" transform="matrix(0.227229,0.0256235,-0.0256235,0.227229,-191.799,-53.7902)">
                <path d="M1393.92,890.756C1393.92,890.756 1419.83,863.382 1437.69,887.766C1437.69,887.766 1451.51,903.741 1462.89,956.553C1474.27,1009.37 1490.47,1065.53 1492.81,1095.92C1495.15,1126.31 1496.39,1141.25 1490.61,1155C1484.82,1168.75 1470.63,1175.29 1446.94,1175.54C1409.09,1175.94 1360.25,1117.96 1360.25,1117.96C1360.25,1117.96 1353.65,1109.96 1334.93,1110.09C1317.48,1110.21 1283.51,1110.11 1279,1110.09C1274.49,1110.11 1240.52,1110.21 1223.07,1110.09C1204.35,1109.96 1197.75,1117.96 1197.75,1117.96C1197.75,1117.96 1138.58,1187.64 1109.32,1187.63C1086,1187.63 1073.18,1168.75 1067.39,1155C1061.61,1141.25 1062.85,1126.31 1065.19,1095.92C1067.53,1065.53 1083.73,1009.37 1095.11,956.553C1106.49,903.741 1120.31,887.766 1120.31,887.766C1138.17,863.382 1164.5,890.756 1164.5,890.756L1393.92,890.756Z" style="fill:none;stroke:black;stroke-width:43.73px;"/>
            </g>
            <g id="Sting" transform="matrix(0.78314,0.139967,-0.135634,0.7589,67.2303,-21.11)">
                <path d="M189.771,56.854L238.765,34.355L235.05,81.388" style="fill:rgb(104,104,104);stroke:black;stroke-width:12.77px;"/>
            </g>
            <g id="Earcup" transform="matrix(1.36886,0,0,1.36886,-2855.18,-2388.16)">
                <ellipse cx="2111.33" cy="1847.14" rx="16.332" ry="23.695" style="fill:rgb(31,30,30);stroke:black;stroke-width:2.19px;stroke-linecap:butt;"/>
            </g>
            <g id="Body" transform="matrix(0.994109,-0.573949,0.761422,1.28301,-120.17,92.6047)">
                <ellipse cx="168.926" cy="110.515" rx="107.942" ry="55.376" style="fill:rgb(104,104,104);stroke:black;stroke-width:7.47px;"/>
            </g>
            <g id="Wings-outline" serif:id="Wings outline" transform="matrix(0.959562,0.127262,-0.127262,0.959562,7.56883,-6.44254)">
                <g transform="matrix(1.17688,-0.575088,0.651434,1.21399,-55.8934,35.953)">
                    <path d="M87.433,14.046C105.289,14.046 121.064,31.835 121.064,54.906C121.064,78.317 104.954,96.336 86.833,96.336C68.977,96.336 53.202,78.546 53.202,55.475C53.202,32.064 69.312,14.046 87.433,14.046ZM87.133,21.55C72.762,21.55 61.095,36.624 61.095,55.191C61.095,73.758 72.762,88.832 87.133,88.832C101.504,88.832 113.171,73.758 113.171,55.191C113.171,36.624 101.504,21.55 87.133,21.55Z"/>
                </g>
                <g transform="matrix(1.24343,0.685066,-0.776012,1.28263,74.2693,-72.8119)">
                    <path d="M86.838,14.653C104.667,14.653 120.454,32.436 120.454,55.47C120.454,78.17 104.998,95.729 87.428,95.729C69.599,95.729 53.812,77.946 53.812,54.911C53.812,32.211 69.268,14.653 86.838,14.653ZM87.133,21.55C72.762,21.55 61.095,36.624 61.095,55.191C61.095,73.758 72.762,88.832 87.133,88.832C101.504,88.832 113.171,73.758 113.171,55.191C113.171,36.624 101.504,21.55 87.133,21.55Z"/>
                </g>
            </g>
            <g id="Stripes" transform="matrix(1,0,0,1,4.4273,10.012)">
                <g transform="matrix(1,-7.43708e-18,-7.43708e-18,1,92.3462,-63.8411)">
                    <path d="M37.588,107.021C36.302,108.044 130.102,103.736 138.911,199.269C185.818,73.536 38.054,97.55 37.588,107.021Z" style="fill:rgb(254,194,7);stroke:black;stroke-width:3px;"/>
                </g>
                <g transform="matrix(1,-7.43708e-18,-7.43708e-18,1,73.4912,-52.6421)">
                    <path d="M157.766,189.064C152.141,96.884 58.714,94.709 59.225,91.972L24.408,104.867C24.408,104.867 137.219,103.115 141.236,211.738L154.889,190.72" style="fill:rgb(104,104,104);stroke:black;stroke-width:3px;"/>
                </g>
                <g transform="matrix(1,-7.43708e-18,-7.43708e-18,1,55.5726,-39.8214)">
                    <path d="M138.184,221.282L158.96,198.917C155.015,90.156 39.958,88.264 39.959,88.304L21.516,99.184C21.345,99.215 140.506,108.796 138.184,221.282Z" style="fill:rgb(254,194,7);stroke:black;stroke-width:3px;"/>
                </g>
                <g transform="matrix(1,-7.43708e-18,-7.43708e-18,1,25.9786,-19.0024)">
                    <path d="M52.67,78.448L32.777,93.969C32.777,93.969 147.14,105.355 145.924,216.369L167.401,201.973C175.368,91.857 51.46,79.379 49.702,80.764" style="fill:rgb(104,104,104);stroke:black;stroke-width:3px;"/>
                </g>
                <g transform="matrix(1,-7.43708e-18,-7.43708e-18,1,-0.424026,-0.546032)">
                    <path d="M54.907,77.629L39.992,93.485C39.992,93.485 145.269,94.435 147.67,208.921L172.327,197.913C176.533,83.454 58.325,78.845 54.907,77.629Z" style="fill:rgb(254,194,7);stroke:black;stroke-width:3px;"/>
                </g>
            </g>
            <g id="Eyes" transform="matrix(0.856324,0.124954,-0.124954,0.856324,31.2483,6.5214)">
                <g id="Right-eye" serif:id="Right eye" transform="matrix(1.56791,-0.228787,0.215752,1.47858,-150.38,17.2361)">
                    <path d="M154.615,113.255C154.615,107.493 150.203,102.815 144.77,102.815C139.336,102.815 134.924,107.493 134.924,113.255L134.924,120.6C134.924,126.362 139.336,131.04 144.77,131.04C150.203,131.04 154.615,126.362 154.615,120.6L154.615,113.255Z" style="fill:rgb(235,235,235);stroke:black;stroke-width:2.25px;"/>
                </g>
                <g id="Right-eye1" serif:id="Right eye" transform="matrix(0.639006,-0.0932429,0.104024,0.712889,-4.68472,94.5194)">
                    <path d="M154.615,111.64C154.615,106.77 150.203,102.815 144.77,102.815C139.336,102.815 134.924,106.77 134.924,111.64L134.924,122.216C134.924,127.086 139.336,131.04 144.77,131.04C150.203,131.04 154.615,127.086 154.615,122.216L154.615,111.64Z"/>
                </g>
                <g id="Left-eye" serif:id="Left eye" transform="matrix(1.56791,-0.228787,0.215752,1.47858,-201.077,24.6337)">
                    <path d="M154.615,113.255C154.615,107.493 150.203,102.815 144.77,102.815C139.336,102.815 134.924,107.493 134.924,113.255L134.924,120.6C134.924,126.362 139.336,131.04 144.77,131.04C150.203,131.04 154.615,126.362 154.615,120.6L154.615,113.255Z" style="fill:rgb(235,235,235);stroke:black;stroke-width:2.25px;"/>
                </g>
                <g id="Right-eye2" serif:id="Right eye" transform="matrix(0.639006,-0.0932429,0.104024,0.712889,-55.3816,101.917)">
                    <path d="M154.615,111.64C154.615,106.77 150.203,102.815 144.77,102.815C139.336,102.815 134.924,106.77 134.924,111.64L134.924,122.216C134.924,127.086 139.336,131.04 144.77,131.04C150.203,131.04 154.615,127.086 154.615,122.216L154.615,111.64Z"/>
                </g>
            </g>
            <g id="Body-outline" serif:id="Body outline" transform="matrix(0.994109,-0.573949,0.761422,1.28301,-120.17,92.6047)">
                <ellipse cx="168.926" cy="110.515" rx="107.942" ry="55.376" style="fill:none;stroke:black;stroke-width:7.47px;"/>
            </g>
            <g id="Wings" transform="matrix(0.959562,0.127262,-0.127262,0.959562,7.56883,-6.44254)">
                <g id="Back-wing" serif:id="Back wing" transform="matrix(1.17688,-0.575088,0.651434,1.21399,-55.8934,35.953)">
                    <ellipse cx="87.133" cy="55.191" rx="26.038" ry="33.641" style="fill:rgb(195,195,195);stroke:black;stroke-width:2.26px;"/>
                </g>
                <g id="Front-wing" serif:id="Front wing" transform="matrix(0.946806,0,0,0.999012,5.86837,0.313874)">
                    <g id="Front-wing-main" serif:id="Front wing main" transform="matrix(1.31328,0.685743,-0.81961,1.2839,72.2439,-73.1981)">
                        <ellipse cx="87.133" cy="55.191" rx="26.038" ry="33.641" style="fill:rgb(195,195,195);stroke:black;stroke-width:2.17px;"/>
                    </g>
                    <path id="Front-wing-line" serif:id="Front wing line" d="M119.334,101.013C123.249,82.03 129.669,61.104 148.451,47.276" style="fill:none;stroke:black;stroke-width:3.18px;"/>
                </g>
            </g>
            <g id="Headset" transform="matrix(1,0,0,1,4.78157,0.0700909)">
                <g transform="matrix(1,0,0,1,-3.47982,6.20108)">
                    <g transform="matrix(1.36886,0,0,1.36886,-2746.29,-2378.48)">
                        <ellipse cx="2111.33" cy="1847.14" rx="16.332" ry="23.695" style="fill:rgb(31,30,30);stroke:black;stroke-width:2.19px;stroke-linecap:butt;"/>
                    </g>
                    <g transform="matrix(1.36886,0,0,1.36886,-2736.04,-2376.49)">
                        <ellipse cx="2111.33" cy="1847.14" rx="16.332" ry="23.695" style="fill:rgb(31,30,30);stroke:black;stroke-width:2.19px;stroke-linecap:butt;"/>
                    </g>
                </g>
                <g transform="matrix(1.03364,0.0460775,0,1,-2028.88,-1789.58)">
                    <path d="M2084.23,1840.39C2084.23,1840.39 2046.23,1777.88 1981.54,1826.92C1983.31,1820.93 1994.98,1803.45 1994.98,1803.45C1994.98,1803.45 2047.94,1763.37 2096.12,1820.39C2092.54,1823.51 2084.23,1840.39 2084.23,1840.39Z" style="fill:rgb(31,30,30);stroke:black;stroke-width:2.88px;stroke-linecap:butt;"/>
                </g>
            </g>
            <g id="Controller" transform="matrix(0.227229,0.0256235,-0.0256235,0.227229,-191.799,-53.7902)">
                <path d="M1373.74,890.442C1373.74,890.442 1419.83,863.382 1437.69,887.766C1437.69,887.766 1451.51,903.741 1462.89,956.553C1474.27,1009.37 1490.47,1065.53 1492.81,1095.92C1495.15,1126.31 1496.39,1141.25 1490.61,1155C1484.82,1168.75 1467.9,1174.96 1444.22,1175.2C1406.37,1175.6 1360.25,1117.96 1360.25,1117.96C1360.25,1117.96 1353.65,1109.96 1334.93,1110.09C1317.48,1110.21 1283.51,1110.11 1279,1110.09C1274.49,1110.11 1240.52,1110.21 1223.07,1110.09C1204.35,1109.96 1197.75,1117.96 1197.75,1117.96C1197.75,1117.96 1138.58,1187.64 1109.32,1187.63C1086,1187.63 1073.18,1168.75 1067.39,1155C1061.61,1141.25 1062.85,1126.31 1065.19,1095.92C1067.53,1065.53 1083.73,1009.37 1095.11,956.553C1106.49,903.741 1120.31,887.766 1120.31,887.766C1138.17,863.382 1186.89,890.314 1186.89,890.314L1373.74,890.442Z" style="fill:rgb(156,78,151);stroke:black;stroke-width:13.12px;"/>
            </g>
            <g id="Arm" transform="matrix(-1.01833,-0.204566,-0.235605,1.17285,189.42,-16.8309)">
                <path d="M126.361,195.324C131.632,207.227 133.182,217.035 130.643,222.887C128.104,228.739 123.003,235.183 111.72,230.967C100.281,226.693 85.917,212.804 90.545,203.32C94.217,195.795 104.937,195.209 112.743,200.468C118.04,204.037 116.287,208.38 119.358,207.391C121.378,206.74 121.255,196.139 126.361,195.324Z" style="fill:rgb(151,151,151);stroke:black;stroke-width:4.46px;"/>
            </g>
            <g id="Arm1" serif:id="Arm" transform="matrix(1.17285,-0.235605,0.235605,1.17285,-54.4153,-6.88376)">
                <path d="M126.361,195.324C137.518,197.031 136.207,211.795 130.643,222.887C127.783,228.589 123.003,235.183 111.72,230.967C100.281,226.693 85.917,212.804 90.545,203.32C94.217,195.795 104.937,195.209 112.743,200.468C118.04,204.037 116.287,208.38 119.358,207.391C121.378,206.74 121.255,196.139 126.361,195.324Z" style="fill:rgb(151,151,151);stroke:black;stroke-width:4.18px;"/>
            </g>
        </g>
    </g>
</svg>
