<?xml version="1.0" encoding="UTF-8" standalone="no"?>
<!DOCTYPE svg PUBLIC "-//W3C//DTD SVG 1.1//EN" "http://www.w3.org/Graphics/SVG/1.1/DTD/svg11.dtd">
<svg width="100%" height="100%" viewBox="0 0 256 257" version="1.1" xmlns="http://www.w3.org/2000/svg" xmlns:xlink="http://www.w3.org/1999/xlink" xml:space="preserve" xmlns:serif="http://www.serif.com/" style="fill-rule:evenodd;clip-rule:evenodd;stroke-linecap:round;stroke-linejoin:round;stroke-miterlimit:1.5;">
    <g transform="matrix(1,0,0,1,-843,-1124)">
        <g id="blobbee_scream" transform="matrix(1,0,0,1,843,1124.35)">
            <rect x="0" y="0" width="256" height="256" style="fill:none;"/>
            <g id="Sting" transform="matrix(0.78314,0.139967,-0.135634,0.7589,67.2303,-21.11)">
                <path d="M189.771,56.854L238.765,34.355L235.05,81.388" style="fill:rgb(104,104,104);stroke:black;stroke-width:12.77px;"/>
            </g>
            <g id="Body" transform="matrix(0.994109,-0.573949,0.761422,1.28301,-120.17,92.6047)">
                <ellipse cx="168.926" cy="110.515" rx="107.942" ry="55.376" style="fill:rgb(104,104,104);stroke:black;stroke-width:7.47px;"/>
            </g>
            <g id="Wings-outline" serif:id="Wings outline" transform="matrix(0.959562,0.127262,-0.127262,0.959562,7.56883,-6.44254)">
                <g transform="matrix(1.17688,-0.575088,0.651434,1.21399,-55.8934,35.953)">
                    <path d="M87.433,14.046C105.289,14.046 121.064,31.835 121.064,54.906C121.064,78.317 104.954,96.336 86.833,96.336C68.977,96.336 53.202,78.546 53.202,55.475C53.202,32.064 69.312,14.046 87.433,14.046ZM87.133,21.55C72.762,21.55 61.095,36.624 61.095,55.191C61.095,73.758 72.762,88.832 87.133,88.832C101.504,88.832 113.171,73.758 113.171,55.191C113.171,36.624 101.504,21.55 87.133,21.55Z"/>
                </g>
                <g transform="matrix(1.24343,0.685066,-0.776012,1.28263,74.2693,-72.8119)">
                    <path d="M86.838,14.653C104.667,14.653 120.454,32.436 120.454,55.47C120.454,78.17 104.998,95.729 87.428,95.729C69.599,95.729 53.812,77.946 53.812,54.911C53.812,32.211 69.268,14.653 86.838,14.653ZM87.133,21.55C72.762,21.55 61.095,36.624 61.095,55.191C61.095,73.758 72.762,88.832 87.133,88.832C101.504,88.832 113.171,73.758 113.171,55.191C113.171,36.624 101.504,21.55 87.133,21.55Z"/>
                </g>
            </g>
            <g id="Stripes" transform="matrix(1,0,0,1,4.4273,10.012)">
                <g transform="matrix(1,-7.43708e-18,-7.43708e-18,1,92.3462,-63.8411)">
                    <path d="M37.588,107.021C36.302,108.044 130.102,103.736 138.911,199.269C185.818,73.536 38.054,97.55 37.588,107.021Z" style="fill:rgb(254,194,7);stroke:black;stroke-width:3px;"/>
                </g>
                <g transform="matrix(1,-7.43708e-18,-7.43708e-18,1,73.4912,-52.6421)">
                    <path d="M157.766,189.064C152.141,96.884 58.714,94.709 59.225,91.972L24.408,104.867C24.408,104.867 137.219,103.115 141.236,211.738L154.889,190.72" style="fill:rgb(104,104,104);stroke:black;stroke-width:3px;"/>
                </g>
                <g transform="matrix(1,-7.43708e-18,-7.43708e-18,1,55.5726,-39.8214)">
                    <path d="M138.184,221.282L158.96,198.917C155.015,90.156 39.958,88.264 39.959,88.304L21.516,99.184C21.345,99.215 140.506,108.796 138.184,221.282Z" style="fill:rgb(254,194,7);stroke:black;stroke-width:3px;"/>
                </g>
                <g transform="matrix(1,-7.43708e-18,-7.43708e-18,1,25.9786,-19.0024)">
                    <path d="M52.67,78.448L32.777,93.969C32.777,93.969 147.14,105.355 145.924,216.369L167.401,201.973C175.368,91.857 51.46,79.379 49.702,80.764" style="fill:rgb(104,104,104);stroke:black;stroke-width:3px;"/>
                </g>
                <g transform="matrix(1,-7.43708e-18,-7.43708e-18,1,-0.424026,-0.546032)">
                    <path d="M54.907,77.629L39.992,93.485C39.992,93.485 145.269,94.435 147.67,208.921L172.327,197.913C176.533,83.454 58.325,78.845 54.907,77.629Z" style="fill:rgb(254,194,7);stroke:black;stroke-width:3px;"/>
                </g>
            </g>
            <g id="Eyes" transform="matrix(0.856324,0.124954,-0.124954,0.856324,31.2483,8.5214)">
                <g id="Face">
                    <g id="Eyes1" serif:id="Eyes">
                        <g id="Right-eye" serif:id="Right eye" transform="matrix(1.14344,-0.166848,0.166848,1.14344,-157.44,-795.193)">
                            <circle cx="103.071" cy="847.784" r="16.18" style="fill:rgb(235,235,235);stroke:black;stroke-width:3px;"/>
                        </g>
                        <g id="Right-eye1" serif:id="Right eye" transform="matrix(1.14344,-0.166848,0.166848,1.14344,-208.171,-787.79)">
                            <circle cx="103.071" cy="847.784" r="16.18" style="fill:rgb(235,235,235);stroke:black;stroke-width:3px;"/>
                        </g>
                        <g id="Right-pupil" serif:id="Right pupil" transform="matrix(1.09689,-0.160057,0.160057,1.09689,-202.65,-748.001)">
                            <circle cx="103.071" cy="847.784" r="8.799"/>
                        </g>
                        <g id="Right-pupil1" serif:id="Right pupil" transform="matrix(1.09689,-0.160057,0.160057,1.09689,-151.69,-755.437)">
                            <circle cx="103.071" cy="847.784" r="8.799"/>
                        </g>
                    </g>
                </g>
            </g>
            <g id="Body-outline" serif:id="Body outline" transform="matrix(0.994109,-0.573949,0.761422,1.28301,-120.17,92.6047)">
                <ellipse cx="168.926" cy="110.515" rx="107.942" ry="55.376" style="fill:none;stroke:black;stroke-width:7.47px;"/>
            </g>
            <g id="Wings" transform="matrix(0.959562,0.127262,-0.127262,0.959562,7.56883,-6.44254)">
                <g id="Back-wing" serif:id="Back wing" transform="matrix(1.17688,-0.575088,0.651434,1.21399,-55.8934,35.953)">
                    <ellipse cx="87.133" cy="55.191" rx="26.038" ry="33.641" style="fill:rgb(195,195,195);stroke:black;stroke-width:2.26px;"/>
                </g>
                <g id="Front-wing" serif:id="Front wing" transform="matrix(0.946806,0,0,0.999012,5.86837,0.313874)">
                    <g id="Front-wing-main" serif:id="Front wing main" transform="matrix(1.31328,0.685743,-0.81961,1.2839,72.2439,-73.1981)">
                        <ellipse cx="87.133" cy="55.191" rx="26.038" ry="33.641" style="fill:rgb(195,195,195);stroke:black;stroke-width:2.17px;"/>
                    </g>
                    <path id="Front-wing-line" serif:id="Front wing line" d="M119.334,101.013C123.249,82.03 129.669,61.104 148.451,47.276" style="fill:none;stroke:black;stroke-width:3.18px;"/>
                </g>
            </g>
            <g transform="matrix(1.15232,0,0,0.959903,-3925.08,-278.455)">
                <path d="M3477.99,491.641C3477.99,486.768 3474.69,482.812 3470.63,482.812C3466.57,482.812 3463.28,486.768 3463.28,491.641L3463.28,504.064C3463.28,508.937 3466.57,512.893 3470.63,512.893C3474.69,512.893 3477.99,508.937 3477.99,504.064L3477.99,491.641Z" style="fill:rgb(160,25,25);"/>
                <path d="M3480.59,491.641L3480.59,504.064C3480.59,510.662 3476.13,516.019 3470.63,516.019C3465.14,516.019 3460.67,510.662 3460.67,504.064L3460.67,491.641C3460.67,485.043 3465.14,479.686 3470.63,479.686C3476.13,479.686 3480.59,485.043 3480.59,491.641ZM3477.99,491.641C3477.99,486.768 3474.69,482.812 3470.63,482.812C3466.57,482.812 3463.28,486.768 3463.28,491.641L3463.28,504.064C3463.28,508.937 3466.57,512.893 3470.63,512.893C3474.69,512.893 3477.99,508.937 3477.99,504.064L3477.99,491.641Z"/>
            </g>
            <g transform="matrix(1,0,0,1,-3395.3,-304.537)">
                <path d="M3469.28,518.407C3468.52,517.19 3468.09,515.755 3468.09,514.22C3468.09,509.813 3471.66,506.236 3476.07,506.236C3476.73,506.236 3477.37,506.316 3477.99,506.468L3477.99,509.935C3477.99,514.613 3474.19,518.411 3469.51,518.411C3469.43,518.411 3469.35,518.409 3469.28,518.407Z" style="fill:rgb(245,169,184);"/>
                <path d="M3466.72,519.984C3465.69,518.308 3465.09,516.333 3465.09,514.22C3465.09,508.158 3470.01,503.236 3476.07,503.236C3476.98,503.236 3477.86,503.347 3478.7,503.555C3480.05,503.885 3480.99,505.088 3480.99,506.468L3480.99,509.935C3480.99,516.269 3475.84,521.411 3469.51,521.411C3469.4,521.411 3469.3,521.409 3469.19,521.406C3468.18,521.378 3467.25,520.844 3466.72,519.984ZM3469.28,518.407C3469.35,518.409 3469.43,518.411 3469.51,518.411C3474.19,518.411 3477.99,514.613 3477.99,509.935L3477.99,506.468C3477.37,506.316 3476.73,506.236 3476.07,506.236C3471.66,506.236 3468.09,509.813 3468.09,514.22C3468.09,515.755 3468.52,517.19 3469.28,518.407Z"/>
            </g>
            <g id="Arm" transform="matrix(-1.14415,-0.22984,-0.274023,1.36409,214.2,-49.3053)">
                <path d="M126.361,195.324C131.632,207.227 133.182,217.035 130.643,222.887C128.104,228.739 123.003,235.183 111.72,230.967C100.281,226.693 85.917,212.804 90.545,203.32C94.217,195.795 104.937,195.209 112.743,200.468C118.04,204.037 116.287,208.38 119.358,207.391C121.378,206.74 121.255,196.139 126.361,195.324Z" style="fill:rgb(151,151,151);stroke:black;stroke-width:3.89px;"/>
            </g>
            <g id="Arm1" serif:id="Arm" transform="matrix(1.36409,-0.274023,0.274023,1.36409,-87.018,-42.4225)">
                <path d="M126.361,195.324C137.518,197.031 136.207,211.795 130.643,222.887C127.783,228.589 123.003,235.183 111.72,230.967C100.281,226.693 85.917,212.804 90.545,203.32C94.217,195.795 104.937,195.209 112.743,200.468C118.04,204.037 116.287,208.38 119.358,207.391C121.378,206.74 121.255,196.139 126.361,195.324Z" style="fill:rgb(151,151,151);stroke:black;stroke-width:3.59px;"/>
            </g>
        </g>
    </g>
</svg>
