<?xml version="1.0" encoding="UTF-8" standalone="no"?>
<!DOCTYPE svg PUBLIC "-//W3C//DTD SVG 1.1//EN" "http://www.w3.org/Graphics/SVG/1.1/DTD/svg11.dtd">
<svg width="100%" height="100%" viewBox="0 0 256 256" version="1.1" xmlns="http://www.w3.org/2000/svg" xmlns:xlink="http://www.w3.org/1999/xlink" xml:space="preserve" xmlns:serif="http://www.serif.com/" style="fill-rule:evenodd;clip-rule:evenodd;stroke-linecap:round;stroke-linejoin:round;stroke-miterlimit:1.5;">
    <rect id="blobbee_mug" x="0" y="0" width="256" height="256" style="fill:none;"/>
    <clipPath id="_clip1">
        <rect x="0" y="0" width="256" height="256"/>
    </clipPath>
    <g clip-path="url(#_clip1)">
        <path id="Wings-outline" serif:id="Wings outline" d="M156.902,59.708C129.065,62.422 97.449,41.187 84.028,5.602C68.683,-35.087 84.083,-75.347 114.432,-85.495C138.087,-93.404 166.844,-81.498 185.329,-56.266C212.177,-74.912 244.432,-77.257 265.424,-61.776C292.853,-41.548 294.933,4.366 265.843,40.638C237.208,76.342 191.253,86.226 164.254,66.316C161.555,64.325 159.104,62.114 156.902,59.708ZM163.201,43.032C165.691,47.381 169.007,51.183 173.157,54.243C194.848,70.24 231.136,59.939 254.141,31.254C277.146,2.569 278.213,-33.707 256.521,-49.704C236.599,-64.396 204.363,-56.904 181.414,-33.36C168.453,-61.92 141.479,-78.722 119.189,-71.269C95.605,-63.383 86.139,-31.311 98.063,0.309C109.988,31.928 138.817,51.196 162.402,43.311C162.67,43.221 162.936,43.128 163.201,43.032Z"/>
        <path id="Body" d="M153.948,1.873C234.775,-44.793 326.183,-39.231 357.943,14.285C389.703,67.802 349.866,149.137 269.039,195.803C188.211,242.469 96.804,236.907 65.044,183.391C33.283,129.874 73.12,48.539 153.948,1.873Z" style="fill:rgb(254,194,7);"/>
        <g id="Stripes">
            <path d="M214.839,-16.143C213.085,-14.747 341.1,-20.628 353.122,109.755C417.141,-61.844 215.475,-29.069 214.839,-16.143Z" style="fill:rgb(85,85,85);"/>
            <path d="M353.122,111.111C345.447,-14.695 217.939,-17.662 218.636,-21.398L171.119,-3.799C171.119,-3.799 325.08,-6.19 330.564,142.056L349.196,113.372" style="fill:rgb(254,194,7);"/>
            <path d="M301.943,172.58L330.298,142.056C324.914,-6.379 167.886,-8.962 167.888,-8.907L142.717,5.942C142.483,5.984 305.112,19.06 301.943,172.58Z" style="fill:rgb(85,85,85);"/>
            <path d="M144.846,6.056L117.696,27.238C117.696,27.238 273.776,42.777 272.117,194.288L301.428,174.64C312.302,24.356 143.194,7.326 140.795,9.216" style="fill:rgb(254,194,7);"/>
            <path d="M111.865,30.126L91.509,51.766C91.509,51.766 235.189,53.063 238.466,209.312L272.117,194.288C277.858,38.077 116.53,31.787 111.865,30.126Z" style="fill:rgb(85,85,85);"/>
        </g>
        <path id="Body-outline" serif:id="Body outline" d="M153.948,1.873C234.775,-44.793 326.183,-39.231 357.943,14.285C389.703,67.802 349.866,149.137 269.039,195.803C188.211,242.469 96.804,236.907 65.044,183.391C33.283,129.874 73.12,48.539 153.948,1.873Z" style="fill:none;stroke:black;stroke-width:15px;"/>
        <g id="Wings">
            <path id="Back-wing" serif:id="Back wing" d="M119.189,-71.269C142.773,-79.155 171.602,-59.886 183.527,-28.267C195.452,3.352 185.986,35.425 162.402,43.311C138.817,51.196 109.988,31.928 98.063,0.309C86.139,-31.311 95.605,-63.383 119.189,-71.269Z" style="fill:rgb(167,167,167);"/>
            <path id="Front-wing" serif:id="Front wing" d="M256.521,-49.704C278.213,-33.707 277.146,2.569 254.141,31.254C231.136,59.939 194.848,70.24 173.157,54.243C151.465,38.247 152.532,1.971 175.537,-26.714C198.542,-55.399 234.83,-65.7 256.521,-49.704Z" style="fill:rgb(195,195,195);"/>
        </g>
        <g id="Face">
            <path id="Mouth" d="M95.645,168.037L106.421,186.154L120.941,168.069L138.928,186.104L160.355,168.09" style="fill:none;stroke:black;stroke-width:10px;"/>
            <g id="Eyes">
                <path id="Right-eye" serif:id="Right eye" d="M173.106,124.189L173.106,131.811C173.106,141.63 165.135,149.601 155.317,149.601C145.499,149.601 137.528,141.63 137.528,131.811L137.528,124.189C137.528,114.37 145.499,106.399 155.317,106.399C165.135,106.399 173.106,114.37 173.106,124.189Z"/>
                <path id="Left-eye" serif:id="Left eye" d="M113.463,124.056L113.463,131.944C113.463,142.104 105.215,150.352 95.055,150.352C84.896,150.352 76.647,142.104 76.647,131.944L76.647,124.056C76.647,113.896 84.896,105.648 95.055,105.648C105.215,105.648 113.463,113.896 113.463,124.056Z"/>
            </g>
        </g>
        <g id="Mug">
            <path id="Outer-mug" serif:id="Outer mug" d="M79.1,184.133C88.231,184.133 95.645,194.237 95.645,206.683C95.645,219.129 88.231,229.233 79.1,229.233L79.1,231.856C79.1,238.548 64.146,243.982 45.727,243.982C27.308,243.982 12.353,238.548 12.353,231.856L12.353,176.24L79.1,176.24L79.1,184.133ZM79.1,220.899C84.857,220.899 89.53,214.529 89.53,206.683C89.53,198.837 84.857,192.467 79.1,192.467L79.1,220.899Z" style="fill:rgb(219,219,219);"/>
            <path d="M82.1,231.925C82.073,234.736 80.428,237.548 77.094,239.883C71.208,244.007 59.384,246.982 45.727,246.982C32.07,246.982 20.246,244.007 14.359,239.883C10.998,237.528 9.353,234.69 9.353,231.856L9.353,176.24C9.353,174.583 10.697,173.24 12.353,173.24L79.1,173.24C80.757,173.24 82.1,174.583 82.1,176.24L82.1,181.441C91.267,183.335 98.645,193.753 98.645,206.683C98.645,219.613 91.267,230.031 82.1,231.925ZM79.1,184.133L79.1,176.24L12.353,176.24L12.353,231.856C12.353,238.548 27.308,243.982 45.727,243.982C64.146,243.982 79.1,238.548 79.1,231.856L79.1,229.233C88.231,229.233 95.645,219.129 95.645,206.683C95.645,194.237 88.231,184.133 79.1,184.133ZM79.1,220.899L79.1,192.467C84.857,192.467 89.53,198.837 89.53,206.683C89.53,214.529 84.857,220.899 79.1,220.899ZM82.1,216.904C82.464,216.652 82.811,216.359 83.138,216.033C85.242,213.93 86.53,210.508 86.53,206.683C86.53,202.858 85.242,199.436 83.138,197.333C82.811,197.007 82.464,196.714 82.1,196.462L82.1,216.904Z"/>
            <ellipse id="Rim" cx="45.727" cy="176.24" rx="33.464" ry="12.159" style="fill:rgb(238,238,238);"/>
            <ellipse id="Inner-mug" serif:id="Inner mug" cx="45.727" cy="176.24" rx="30.295" ry="11.008" style="fill:rgb(153,153,153);"/>
            <path id="Coffee" d="M17.197,179.949C21.39,175.696 32.587,172.65 45.727,172.65C58.866,172.65 70.063,175.696 74.256,179.949C70.063,184.202 58.866,187.248 45.727,187.248C32.587,187.248 21.39,184.202 17.197,179.949Z" style="fill:rgb(129,58,6);"/>
            <path id="Mug-outline" serif:id="Mug outline" d="M89.184,176.668C98.504,181.486 105.645,192.741 105.645,206.683C105.645,221.175 97.93,232.763 88.072,237.238C86.893,240.232 84.653,243.135 81.11,245.616C74.456,250.278 61.167,253.982 45.727,253.982C30.287,253.982 16.997,250.278 10.343,245.616C4.689,241.656 2.353,236.622 2.353,231.856L2.354,177.863L2.353,177.858C2.293,177.321 2.263,176.782 2.263,176.24C2.263,171.468 4.603,166.429 10.263,162.464C16.932,157.791 30.252,154.081 45.727,154.081C61.202,154.081 74.521,157.791 81.191,162.464C86.851,166.429 89.19,171.468 89.19,176.24C89.19,176.383 89.188,176.526 89.184,176.668ZM12.353,177.14L12.353,231.856C12.353,238.548 27.308,243.982 45.727,243.982C64.146,243.982 79.1,238.548 79.1,231.856L79.1,229.233C88.231,229.233 95.645,219.129 95.645,206.683C95.645,194.237 88.231,184.133 79.1,184.133L79.1,177.14C79.16,176.843 79.19,176.542 79.19,176.24C79.19,169.529 64.196,164.081 45.727,164.081C27.258,164.081 12.263,169.529 12.263,176.24C12.263,176.542 12.294,176.843 12.353,177.14ZM79.1,220.899L79.1,192.467C84.857,192.467 89.53,198.837 89.53,206.683C89.53,214.529 84.857,220.899 79.1,220.899Z"/>
        </g>
        <path id="Right-arm" serif:id="Right arm" d="M193.258,245.463L107.034,231.376C96.801,229.412 89.879,221.435 91.842,211.203C93.805,200.97 103.162,195.8 113.395,197.763L185.305,209.242L190.322,183.551C191.656,176.599 198.383,172.037 205.336,173.371C212.288,174.705 216.85,181.432 215.516,188.385L206.554,235.097C205.331,241.47 199.566,245.829 193.258,245.463Z" style="fill:rgb(151,151,151);"/>
        <path d="M191.645,255.332L105.422,241.245C105.331,241.23 105.24,241.214 105.15,241.197C89.191,238.135 78.959,225.277 82.021,209.318C85.067,193.444 99.256,184.943 115.112,187.91C115.112,187.91 177.342,197.844 177.342,197.844C177.342,197.844 180.507,181.636 180.507,181.636C182.895,169.28 194.858,161.178 207.22,163.55C219.593,165.924 227.711,177.896 225.337,190.269L216.375,236.981C214.196,248.337 203.919,256.099 192.678,255.446C192.332,255.426 191.987,255.388 191.645,255.332ZM193.258,245.463C199.566,245.829 205.331,241.47 206.554,235.097L215.516,188.385C216.85,181.432 212.288,174.705 205.336,173.371C198.383,172.037 191.656,176.599 190.322,183.551L185.305,209.242L113.395,197.763C103.162,195.8 93.805,200.97 91.842,211.203C89.879,221.435 96.801,229.412 107.034,231.376L193.258,245.463Z"/>
    </g>
</svg>
