<?xml version="1.0" encoding="UTF-8" standalone="no"?>
<!DOCTYPE svg PUBLIC "-//W3C//DTD SVG 1.1//EN" "http://www.w3.org/Graphics/SVG/1.1/DTD/svg11.dtd">
<svg width="100%" height="100%" viewBox="0 0 256 256" version="1.1" xmlns="http://www.w3.org/2000/svg" xmlns:xlink="http://www.w3.org/1999/xlink" xml:space="preserve" xmlns:serif="http://www.serif.com/" style="fill-rule:evenodd;clip-rule:evenodd;stroke-linecap:round;stroke-linejoin:round;stroke-miterlimit:1.5;">
    <rect id="blobbee_think" x="0" y="0" width="256" height="256" style="fill:none;"/>
    <clipPath id="_clip1">
        <rect x="0" y="0" width="256" height="256"/>
    </clipPath>
    <g clip-path="url(#_clip1)">
        <path id="Wings-outline" serif:id="Wings outline" d="M130.856,59.756C103.019,62.47 71.403,41.235 57.982,5.65C42.637,-35.039 58.037,-75.299 88.386,-85.447C112.041,-93.356 140.798,-81.45 159.283,-56.218C186.131,-74.864 218.386,-77.209 239.378,-61.728C266.807,-41.5 268.887,4.414 239.797,40.686C211.162,76.39 165.207,86.274 138.208,66.364C135.509,64.373 133.058,62.162 130.856,59.756ZM137.155,43.08C139.645,47.429 142.961,51.231 147.111,54.291C168.802,70.288 205.09,59.987 228.095,31.302C251.1,2.617 252.167,-33.659 230.475,-49.656C210.553,-64.348 178.317,-56.856 155.368,-33.312C142.407,-61.872 115.433,-78.674 93.143,-71.221C69.559,-63.336 60.093,-31.263 72.017,0.357C83.942,31.976 112.771,51.244 136.356,43.359C136.624,43.269 136.89,43.176 137.155,43.08Z"/>
        <path id="Body" d="M127.902,1.921C208.729,-44.745 300.137,-39.183 331.897,14.333C363.657,67.85 323.82,149.185 242.993,195.851C162.165,242.517 70.758,236.955 38.998,183.439C7.237,129.922 47.074,48.587 127.902,1.921Z" style="fill:rgb(254,194,7);"/>
        <g id="Stripes">
            <path d="M188.793,-16.095C187.039,-14.699 315.054,-20.58 327.076,109.803C391.095,-61.796 189.429,-29.021 188.793,-16.095Z" style="fill:rgb(85,85,85);"/>
            <path d="M327.076,111.159C319.401,-14.647 191.893,-17.614 192.59,-21.35L145.073,-3.751C145.073,-3.751 299.034,-6.142 304.518,142.104L323.15,113.42" style="fill:rgb(254,194,7);"/>
            <path d="M275.897,172.628L304.252,142.104C298.868,-6.332 141.84,-8.914 141.842,-8.859L116.671,5.99C116.437,6.032 279.066,19.108 275.897,172.628Z" style="fill:rgb(85,85,85);"/>
            <path d="M118.8,6.104L91.65,27.286C91.65,27.286 247.73,42.825 246.071,194.336L275.383,174.688C286.256,24.404 117.148,7.374 114.749,9.264" style="fill:rgb(254,194,7);"/>
            <path d="M85.819,30.174L65.463,51.814C65.463,51.814 209.143,53.111 212.42,209.36L246.071,194.336C251.812,38.125 90.484,31.835 85.819,30.174Z" style="fill:rgb(85,85,85);"/>
        </g>
        <path id="Body-outline" serif:id="Body outline" d="M127.902,1.921C208.729,-44.745 300.137,-39.183 331.897,14.333C363.657,67.85 323.82,149.185 242.993,195.851C162.165,242.517 70.758,236.955 38.998,183.439C7.237,129.922 47.074,48.587 127.902,1.921Z" style="fill:none;stroke:black;stroke-width:15px;"/>
        <g id="Wings">
            <path id="Back-wing" serif:id="Back wing" d="M93.143,-71.221C116.727,-79.107 145.556,-59.838 157.481,-28.219C169.406,3.4 159.94,35.473 136.356,43.359C112.771,51.244 83.942,31.976 72.017,0.357C60.093,-31.263 69.559,-63.336 93.143,-71.221Z" style="fill:rgb(167,167,167);"/>
            <path id="Front-wing" serif:id="Front wing" d="M230.475,-49.656C252.167,-33.659 251.1,2.617 228.095,31.302C205.09,59.987 168.802,70.288 147.111,54.291C125.419,38.295 126.486,2.019 149.491,-26.666C172.496,-55.351 208.784,-65.652 230.475,-49.656Z" style="fill:rgb(195,195,195);"/>
        </g>
        <g id="Face">
            <path id="Mouth" d="M76.052,173.612L91.968,158.127L111.702,174.021" style="fill:none;stroke:black;stroke-width:10px;"/>
            <g id="Eyes">
                <path id="Right-eye" serif:id="Right eye" d="M141.384,117.145L141.384,125.091C141.384,133.438 134.608,140.215 126.26,140.215C117.913,140.215 111.136,133.438 111.136,125.091L111.136,117.145C111.136,108.798 117.913,102.021 126.26,102.021C134.608,102.021 141.384,108.798 141.384,117.145Z"/>
                <path id="Left-eye" serif:id="Left eye" d="M81.28,117.08L81.28,125.026C81.28,133.374 74.503,140.151 66.156,140.151C57.808,140.151 51.032,133.374 51.032,125.026L51.032,117.08C51.032,108.733 57.808,101.956 66.156,101.956C74.503,101.956 81.28,108.733 81.28,117.08Z"/>
            </g>
        </g>
        <path id="Hand" d="M28.071,230.184L28.071,178.833C28.071,174.491 31.596,170.967 35.937,170.967C40.279,170.967 43.804,174.491 43.804,178.833L43.804,193.058L108.03,193.058C112.27,193.058 115.712,196.5 115.712,200.739C115.712,204.979 112.27,208.421 108.03,208.421L76.022,208.421L76.022,230.184C76.022,235.807 71.456,240.372 65.833,240.372L38.259,240.372C32.636,240.372 28.071,235.807 28.071,230.184Z" style="fill:rgb(151,151,151);"/>
        <path d="M18.071,230.184L18.071,178.833C18.071,168.972 26.077,160.967 35.937,160.967C45.798,160.967 53.804,168.972 53.804,178.833C53.804,178.833 53.804,183.058 53.804,183.058L108.03,183.058C117.789,183.058 125.712,190.981 125.712,200.739C125.712,210.498 117.789,218.421 108.03,218.421C108.03,218.421 86.022,218.421 86.022,218.421L86.022,230.184C86.022,241.326 76.975,250.372 65.833,250.372L38.259,250.372C27.117,250.372 18.071,241.326 18.071,230.184ZM28.071,230.184C28.071,235.807 32.636,240.372 38.259,240.372L65.833,240.372C71.456,240.372 76.022,235.807 76.022,230.184L76.022,208.421L108.03,208.421C112.27,208.421 115.712,204.979 115.712,200.739C115.712,196.5 112.27,193.058 108.03,193.058L43.804,193.058L43.804,178.833C43.804,174.491 40.279,170.967 35.937,170.967C31.596,170.967 28.071,174.491 28.071,178.833L28.071,230.184Z"/>
    </g>
</svg>
