<?xml version="1.0" encoding="UTF-8" standalone="no"?>
<!DOCTYPE svg PUBLIC "-//W3C//DTD SVG 1.1//EN" "http://www.w3.org/Graphics/SVG/1.1/DTD/svg11.dtd">
<svg width="100%" height="100%" viewBox="0 0 256 256" version="1.1" xmlns="http://www.w3.org/2000/svg" xmlns:xlink="http://www.w3.org/1999/xlink" xml:space="preserve" xmlns:serif="http://www.serif.com/" style="fill-rule:evenodd;clip-rule:evenodd;stroke-linecap:round;stroke-linejoin:round;stroke-miterlimit:1.5;">
    <g transform="matrix(1,0,0,1,0,-1405)">
        <g id="blobbee_popcorn" transform="matrix(1,0,0,1,0,1405)">
            <rect x="0" y="0" width="256" height="256" style="fill:none;"/>
            <g id="Popcorn-outline" serif:id="Popcorn outline" transform="matrix(1,0,0,1,-1.57026,-1532.42)">
                <path d="M15.004,1693.65C17.002,1688.98 20.815,1685.26 25.555,1683.39C25.069,1681.67 24.809,1679.86 24.809,1677.99C24.809,1667.08 33.671,1658.21 44.586,1658.21C49.338,1658.21 53.701,1659.89 57.113,1662.69C61.392,1662.75 65.316,1664.28 68.396,1666.81C68.827,1666.78 69.261,1666.77 69.699,1666.77C80.673,1666.77 89.591,1675.64 89.663,1686.6C91.987,1688.46 93.853,1690.87 95.063,1693.63C101.962,1696.39 106.84,1703.14 106.84,1711.02C106.84,1711.85 106.631,1713.66 106.044,1716C106.044,1716 97.342,1765.76 97.343,1765.75C97.025,1770.22 94.717,1774.75 89.848,1778.45C83.331,1783.42 70.341,1787.37 55.222,1787.37C40.103,1787.37 27.113,1783.42 20.596,1778.45C15.726,1774.75 13.419,1770.22 13.102,1765.76L5.673,1723.27L5.672,1723.27C4.148,1719.08 3.604,1713.13 3.604,1709.75C3.604,1702.32 8.367,1695.99 15.004,1693.65ZM15.336,1720.48L23.063,1764.66C23.063,1771.67 37.473,1777.37 55.222,1777.37C72.971,1777.37 87.381,1771.67 87.381,1764.66L96.262,1713.88C96.621,1712.53 96.84,1711.49 96.84,1711.02C96.84,1706.2 92.934,1702.3 88.122,1702.3C87.564,1702.3 87.018,1702.35 86.488,1702.45C86.567,1701.99 86.607,1701.51 86.607,1701.03C86.607,1696.35 82.811,1692.56 78.135,1692.56C78.015,1692.56 77.896,1692.56 77.777,1692.56C78.963,1690.92 79.663,1688.91 79.663,1686.73C79.663,1681.23 75.198,1676.77 69.699,1676.77C67.836,1676.77 66.092,1677.28 64.6,1678.17C63.483,1674.98 60.444,1672.69 56.873,1672.69C55.585,1672.69 54.365,1672.99 53.28,1673.52C51.656,1670.37 48.371,1668.21 44.586,1668.21C39.19,1668.21 34.809,1672.6 34.809,1677.99C34.809,1681.27 36.43,1684.18 38.914,1685.95C37.145,1687.69 35.926,1689.99 35.547,1692.56C34.611,1692.24 33.605,1692.06 32.558,1692.06C27.547,1692.06 23.478,1696.13 23.478,1701.14C23.478,1701.92 23.578,1702.68 23.765,1703.41C22.829,1702.95 21.775,1702.69 20.662,1702.69C16.766,1702.69 13.604,1705.86 13.604,1709.75C13.604,1712.48 13.829,1717.68 15.336,1720.48Z"/>
            </g>
            <g id="Bee" transform="matrix(0.887478,0,0,0.887478,40.7668,14.7556)">
                <clipPath id="_clip1">
                    <path d="M211.459,180.054L211.81,292.616L-149.134,300.059L-149.079,-101.624L191.49,-98.989L191.49,45.116C226.297,46.697 254.291,135.553 211.459,180.054"/>
                </clipPath>
                <g clip-path="url(#_clip1)">
                    <g id="Sting" transform="matrix(0.78314,0.139967,-0.135634,0.7589,67.2303,-21.11)">
                        <path d="M189.771,56.854L238.765,34.355L235.05,81.388" style="fill:rgb(104,104,104);stroke:black;stroke-width:14.38px;"/>
                    </g>
                    <g id="Body" transform="matrix(0.994109,-0.573949,0.761422,1.28301,-120.17,92.6047)">
                        <ellipse cx="168.926" cy="110.515" rx="107.942" ry="55.376" style="fill:rgb(104,104,104);stroke:black;stroke-width:8.42px;"/>
                    </g>
                    <g id="Wings-outline" serif:id="Wings outline" transform="matrix(0.959562,0.127262,-0.127262,0.959562,7.56883,-6.44254)">
                        <g transform="matrix(1.17688,-0.575088,0.651434,1.21399,-55.8934,35.953)">
                            <path d="M87.471,13.094C105.77,13.094 122.065,31.227 122.065,54.87C122.065,78.897 105.392,97.287 86.795,97.287C68.496,97.287 52.201,79.154 52.201,55.512C52.201,31.484 68.873,13.094 87.471,13.094ZM87.133,21.55C72.762,21.55 61.095,36.624 61.095,55.191C61.095,73.758 72.762,88.832 87.133,88.832C101.504,88.832 113.171,73.758 113.171,55.191C113.171,36.624 101.504,21.55 87.133,21.55Z"/>
                        </g>
                        <g transform="matrix(1.24343,0.685066,-0.776012,1.28263,74.2693,-72.8119)">
                            <path d="M86.8,13.778C105.069,13.778 121.378,31.903 121.378,55.505C121.378,78.73 105.442,96.603 87.465,96.603C69.197,96.603 52.888,78.478 52.888,54.876C52.888,31.651 68.824,13.778 86.8,13.778ZM87.133,21.55C72.762,21.55 61.095,36.624 61.095,55.191C61.095,73.758 72.762,88.832 87.133,88.832C101.504,88.832 113.171,73.758 113.171,55.191C113.171,36.624 101.504,21.55 87.133,21.55Z"/>
                        </g>
                    </g>
                    <g id="Stripes" transform="matrix(1,0,0,1,4.4273,10.012)">
                        <g transform="matrix(1,-7.43708e-18,-7.43708e-18,1,92.3462,-63.8411)">
                            <path d="M37.588,107.021C36.302,108.044 130.102,103.736 138.911,199.269C185.818,73.536 38.054,97.55 37.588,107.021Z" style="fill:rgb(254,194,7);stroke:black;stroke-width:3.38px;"/>
                        </g>
                        <g transform="matrix(1,-7.43708e-18,-7.43708e-18,1,73.4912,-52.6421)">
                            <path d="M157.766,189.064C152.141,96.884 58.714,94.709 59.225,91.972L24.408,104.867C24.408,104.867 137.219,103.115 141.236,211.738L154.889,190.72" style="fill:rgb(104,104,104);stroke:black;stroke-width:3.38px;"/>
                        </g>
                        <g transform="matrix(1,-7.43708e-18,-7.43708e-18,1,55.5726,-39.8214)">
                            <path d="M138.184,221.282L158.96,198.917C155.015,90.156 39.958,88.264 39.959,88.304L21.516,99.184C21.345,99.215 140.506,108.796 138.184,221.282Z" style="fill:rgb(254,194,7);stroke:black;stroke-width:3.38px;"/>
                        </g>
                        <g transform="matrix(1,-7.43708e-18,-7.43708e-18,1,25.9786,-19.0024)">
                            <path d="M52.67,78.448L32.777,93.969C32.777,93.969 147.14,105.355 145.924,216.369L167.401,201.973C175.368,91.857 51.46,79.379 49.702,80.764" style="fill:rgb(104,104,104);stroke:black;stroke-width:3.38px;"/>
                        </g>
                        <g transform="matrix(1,-7.43708e-18,-7.43708e-18,1,-0.424026,-0.546032)">
                            <path d="M54.907,77.629L39.992,93.485C39.992,93.485 145.269,94.435 147.67,208.921L172.327,197.913C176.533,83.454 58.325,78.845 54.907,77.629Z" style="fill:rgb(254,194,7);stroke:black;stroke-width:3.38px;"/>
                        </g>
                    </g>
                    <g id="Body-outline" serif:id="Body outline" transform="matrix(0.994109,-0.573949,0.761422,1.28301,-120.17,92.6047)">
                        <ellipse cx="168.926" cy="110.515" rx="107.942" ry="55.376" style="fill:none;stroke:black;stroke-width:8.42px;"/>
                    </g>
                    <g id="Wings" transform="matrix(0.959562,0.127262,-0.127262,0.959562,7.56883,-6.44254)">
                        <g id="Back-wing" serif:id="Back wing" transform="matrix(1.17688,-0.575088,0.651434,1.21399,-55.8934,35.953)">
                            <ellipse cx="87.133" cy="55.191" rx="26.038" ry="33.641" style="fill:rgb(195,195,195);stroke:black;stroke-width:2.55px;"/>
                        </g>
                        <g id="Front-wing" serif:id="Front wing" transform="matrix(0.946806,0,0,0.999012,5.86837,0.313874)">
                            <g id="Front-wing-main" serif:id="Front wing main" transform="matrix(1.31328,0.685743,-0.81961,1.2839,72.2439,-73.1981)">
                                <ellipse cx="87.133" cy="55.191" rx="26.038" ry="33.641" style="fill:rgb(195,195,195);stroke:black;stroke-width:2.44px;"/>
                            </g>
                            <path id="Front-wing-line" serif:id="Front wing line" d="M119.334,101.013C123.249,82.03 129.669,61.104 148.451,47.276" style="fill:none;stroke:black;stroke-width:3.59px;"/>
                        </g>
                    </g>
                    <g id="Face" transform="matrix(1,0,0,1,-3.8947,1.36785)">
                        <g id="Mouth" transform="matrix(0.658566,-1.17246e-18,-3.87825e-17,0.848272,3.90699,42.2986)">
                            <path d="M79.429,171.352L92.31,191.237L108.219,172.744L128,191.722L152.351,171.648" style="fill:none;stroke:black;stroke-width:16.32px;stroke-miterlimit:2;"/>
                            <path d="M79.429,171.352L92.31,191.237L108.219,172.744L128,191.722L152.351,171.648" style="fill:none;stroke:rgb(235,235,235);stroke-width:7.42px;"/>
                        </g>
                        <g id="Eyes" transform="matrix(0.934011,0.13629,-0.13629,0.934011,50.6896,-3.80844)">
                            <g id="Right-eye" serif:id="Right eye" transform="matrix(1.4375,-0.209757,0.197806,1.35559,-152.493,29.6724)">
                                <path d="M154.615,113.255C154.615,107.493 150.203,102.815 144.77,102.815C139.336,102.815 134.924,107.493 134.924,113.255L134.924,120.6C134.924,126.362 139.336,131.04 144.77,131.04C150.203,131.04 154.615,126.362 154.615,120.6L154.615,113.255Z" style="fill:rgb(235,235,235);stroke:black;stroke-width:2.54px;"/>
                            </g>
                            <g id="Right-eye1" serif:id="Right eye" transform="matrix(0.585857,-0.0854874,0.0953715,0.653594,-18.9161,100.528)">
                                <path d="M154.615,111.64C154.615,106.77 150.203,102.815 144.77,102.815C139.336,102.815 134.924,106.77 134.924,111.64L134.924,122.216C134.924,127.086 139.336,131.04 144.77,131.04C150.203,131.04 154.615,127.086 154.615,122.216L154.615,111.64Z"/>
                            </g>
                            <g id="Left-eye" serif:id="Left eye" transform="matrix(1.4375,-0.209757,0.197806,1.35559,-198.973,36.4548)">
                                <path d="M154.615,113.255C154.615,107.493 150.203,102.815 144.77,102.815C139.336,102.815 134.924,107.493 134.924,113.255L134.924,120.6C134.924,126.362 139.336,131.04 144.77,131.04C150.203,131.04 154.615,126.362 154.615,120.6L154.615,113.255Z" style="fill:rgb(235,235,235);stroke:black;stroke-width:2.54px;"/>
                            </g>
                            <g id="Right-eye2" serif:id="Right eye" transform="matrix(0.585857,-0.0854874,0.0953715,0.653594,-65.3963,107.31)">
                                <path d="M154.615,111.64C154.615,106.77 150.203,102.815 144.77,102.815C139.336,102.815 134.924,106.77 134.924,111.64L134.924,122.216C134.924,127.086 139.336,131.04 144.77,131.04C150.203,131.04 154.615,127.086 154.615,122.216L154.615,111.64Z"/>
                            </g>
                        </g>
                    </g>
                </g>
            </g>
            <g id="Body-stroke" serif:id="Body stroke" transform="matrix(1.30224,0,0,1.30224,-492.209,-1826.32)">
                <path d="M537.043,1444.11C560.795,1446.95 580.23,1507.87 550.251,1539.35" style="fill:none;stroke:black;stroke-width:2.3px;"/>
            </g>
            <g id="Body-stroke1" serif:id="Body stroke" transform="matrix(1.30224,0,0,1.30224,-492.209,-1826.32)">
                <path d="M539.2,1444.11C562.952,1446.95 580.23,1507.87 550.251,1539.35" style="fill:none;stroke:black;stroke-width:7.68px;"/>
            </g>
            <g id="Sting1" serif:id="Sting" transform="matrix(0.526379,0.0827424,-0.0801813,0.510086,123.768,15.8076)">
                <path d="M191.017,52.697L238.765,34.355L230.765,91.133" style="fill:rgb(104,104,104);stroke:black;stroke-width:19.06px;"/>
            </g>
            <g id="Popcorn" transform="matrix(1,0,0,1,1.90404,-4.93533)">
                <g transform="matrix(0.952707,0,0,0.952707,-19.6235,-1468.55)">
                    <path d="M111.844,1754.03C111.844,1754.03 62.957,1768.95 45.803,1755.1L35.678,1746.03C31.695,1745.9 31.23,1736.78 31.23,1732.77C31.23,1728.68 34.549,1725.36 38.638,1725.36C39.807,1725.36 40.913,1725.63 41.896,1726.12C41.699,1725.35 41.595,1724.55 41.595,1723.73C41.595,1718.47 45.865,1714.2 51.125,1714.2C52.224,1714.2 53.28,1714.38 54.262,1714.73C54.661,1712.03 55.939,1709.62 57.797,1707.79C55.189,1705.93 53.488,1702.88 53.488,1699.43C53.488,1693.77 58.086,1689.17 63.75,1689.17C67.723,1689.17 71.171,1691.43 72.876,1694.74C74.015,1694.18 75.295,1693.87 76.648,1693.87C80.395,1693.87 83.586,1696.27 84.758,1699.62C86.324,1698.69 88.155,1698.15 90.11,1698.15C95.882,1698.15 100.569,1702.84 100.569,1708.61C100.569,1710.89 99.834,1713.01 98.588,1714.73C98.713,1714.72 98.839,1714.72 98.965,1714.72C103.873,1714.72 107.857,1718.7 107.857,1723.61C107.857,1724.12 107.815,1724.62 107.733,1725.11C108.288,1725 108.861,1724.94 109.447,1724.94C114.498,1724.94 118.598,1729.05 118.598,1734.1C118.598,1736.48 113.334,1752.4 111.844,1754.03Z" style="fill:rgb(248,226,108);stroke:black;stroke-width:3.15px;"/>
                </g>
                <g transform="matrix(1,0,0,1,0,-1530.62)">
                    <path d="M93.127,1715.08L83.907,1767.8C83.907,1774.81 69.497,1780.5 51.748,1780.5C33.998,1780.5 19.588,1774.81 19.588,1767.8L10.369,1715.08C12.609,1721.44 30.293,1726.41 51.748,1726.41C73.202,1726.41 90.887,1721.44 93.127,1715.08Z" style="fill:url(#_Linear2);stroke:black;stroke-width:3px;"/>
                </g>
                <g id="Left-eyebrow" serif:id="Left eyebrow" transform="matrix(-0.337467,-4.13277e-17,-4.13277e-17,0.337467,100.551,132.172)">
                    <path d="M139.15,75.147C139.15,75.147 147.255,93.107 169.433,83.396" style="fill:none;stroke:black;stroke-width:8.89px;"/>
                </g>
                <g id="Left-eyebrow1" serif:id="Left eyebrow" transform="matrix(-0.270643,-0.201583,-0.201583,0.270643,121.231,179.751)">
                    <path d="M139.15,75.147C139.15,75.147 147.255,93.107 169.433,83.396" style="fill:none;stroke:black;stroke-width:8.89px;"/>
                </g>
                <g id="Left-eyebrow2" serif:id="Left eyebrow" transform="matrix(-0.325968,0.0873428,0.0873428,0.325968,76.0738,138.293)">
                    <path d="M139.15,75.147C139.15,75.147 147.255,93.107 169.433,83.396" style="fill:none;stroke:black;stroke-width:8.89px;"/>
                </g>
                <g id="Left-eyebrow3" serif:id="Left eyebrow" transform="matrix(-0.292255,-0.168733,-0.168733,0.292255,110.216,186.639)">
                    <path d="M139.15,75.147C139.15,75.147 147.255,93.107 169.433,83.396" style="fill:none;stroke:black;stroke-width:8.89px;"/>
                </g>
                <g id="Left-eyebrow4" serif:id="Left eyebrow" transform="matrix(-0.337467,-1.17991e-16,-1.51708e-16,0.337467,125.661,156.444)">
                    <path d="M139.15,75.147C139.15,75.147 147.255,93.107 169.433,83.396" style="fill:none;stroke:black;stroke-width:8.89px;"/>
                </g>
            </g>
            <g id="Arm" transform="matrix(2.12628,-0.427135,0.356842,1.77636,-192.815,-106.58)">
                <path d="M128.697,197.227C139.854,198.934 133.797,215.823 127.214,222.098C123.277,225.851 118.51,225.897 110.264,223.828C98.536,220.884 85.763,212.694 90.545,203.32C93.174,198.167 99.766,197.924 107.573,203.183C112.87,206.752 116.499,209.057 119.358,207.391C123.597,204.921 123.591,198.041 128.697,197.227Z" style="fill:rgb(151,151,151);stroke:black;stroke-width:2.5px;"/>
            </g>
        </g>
    </g>
    <defs>
        <linearGradient id="_Linear2" x1="0" y1="0" x2="1" y2="0" gradientUnits="userSpaceOnUse" gradientTransform="matrix(83.2366,0,0,83.2366,10.1293,1749.32)"><stop offset="0" style="stop-color:rgb(238,238,238);stop-opacity:1"/><stop offset="1" style="stop-color:rgb(238,238,238);stop-opacity:1"/></linearGradient>
    </defs>
</svg>
