<?xml version="1.0" encoding="UTF-8" standalone="no"?>
<!DOCTYPE svg PUBLIC "-//W3C//DTD SVG 1.1//EN" "http://www.w3.org/Graphics/SVG/1.1/DTD/svg11.dtd">
<svg width="100%" height="100%" viewBox="0 0 256 256" version="1.1" xmlns="http://www.w3.org/2000/svg" xmlns:xlink="http://www.w3.org/1999/xlink" xml:space="preserve" xmlns:serif="http://www.serif.com/" style="fill-rule:evenodd;clip-rule:evenodd;stroke-linecap:round;stroke-linejoin:round;stroke-miterlimit:1.5;">
    <rect id="blobbee_snuggle" x="-0" y="0" width="256" height="256" style="fill:none;"/>
    <clipPath id="_clip1">
        <rect x="-0" y="0" width="256" height="256"/>
    </clipPath>
    <g clip-path="url(#_clip1)">
        <g id="Left-bee" serif:id="Left bee">
            <path id="Wings-outline" serif:id="Wings outline" d="M54.791,140.283C39.215,139.804 22.442,128.256 15.137,108.886C5.895,84.38 16.439,60.572 34.718,54.46C47.178,50.294 62.294,54.806 73.359,66.101C88.018,58.596 104.349,59.018 115.35,67.131C131.676,79.171 134.303,106.478 116.988,128.068C100.132,149.086 72.784,153.688 56.89,141.967C56.162,141.43 55.463,140.869 54.791,140.283ZM60.938,124.427C62.152,126.548 63.769,128.403 65.793,129.895C76.371,137.696 94.068,132.672 105.286,118.683C116.505,104.695 117.026,87.004 106.447,79.203C96.732,72.038 81.011,75.691 69.82,87.173C63.499,73.245 50.344,65.051 39.474,68.686C27.973,72.532 23.356,88.173 29.172,103.592C34.987,119.012 49.046,128.409 60.548,124.563C60.679,124.519 60.809,124.474 60.938,124.427Z"/>
            <path id="Body" d="M56.425,104.355C95.842,81.598 140.419,84.31 155.908,110.408C171.396,136.507 151.969,176.172 112.552,198.929C73.134,221.687 28.558,218.975 13.069,192.876C-2.419,166.778 17.008,127.113 56.425,104.355Z" style="fill:rgb(254,194,7);"/>
            <g id="Stripes">
                <path d="M86.12,95.569C85.265,96.25 147.694,93.382 153.557,156.966C184.777,73.282 86.43,89.266 86.12,95.569Z" style="fill:rgb(85,85,85);"/>
                <path d="M153.557,157.627C149.814,96.276 87.632,94.829 87.972,93.007L64.799,101.589C64.799,101.589 139.882,100.423 142.556,172.718L151.642,158.73" style="fill:rgb(254,194,7);"/>
                <path d="M128.598,187.604L142.426,172.718C139.8,100.331 63.223,99.072 63.223,99.098L50.948,106.339C50.834,106.36 130.144,112.737 128.598,187.604Z" style="fill:rgb(85,85,85);"/>
                <path d="M51.986,106.395L38.746,116.725C38.746,116.725 114.862,124.303 114.053,198.191L128.347,188.609C133.65,115.32 51.181,107.015 50.011,107.936" style="fill:rgb(254,194,7);"/>
                <path d="M35.903,118.134L25.975,128.687C25.975,128.687 96.044,129.319 97.642,205.517L114.053,198.191C116.853,122.011 38.177,118.943 35.903,118.134Z" style="fill:rgb(85,85,85);"/>
            </g>
            <path id="Body-outline" serif:id="Body outline" d="M56.425,104.355C95.842,81.598 140.419,84.31 155.908,110.408C171.396,136.507 151.969,176.172 112.552,198.929C73.134,221.687 28.558,218.975 13.069,192.876C-2.419,166.778 17.008,127.113 56.425,104.355Z" style="fill:none;stroke:black;stroke-width:15px;"/>
            <g id="Wings">
                <path id="Back-wing" serif:id="Back wing" d="M39.474,68.686C50.976,64.84 65.035,74.237 70.85,89.657C76.666,105.077 72.049,120.718 60.548,124.563C49.046,128.409 34.987,119.012 29.172,103.592C23.356,88.173 27.973,72.532 39.474,68.686Z" style="fill:rgb(167,167,167);"/>
                <path id="Front-wing" serif:id="Front wing" d="M106.447,79.203C117.026,87.004 116.505,104.695 105.286,118.683C94.068,132.672 76.371,137.696 65.793,129.895C55.214,122.094 55.735,104.403 66.953,90.414C78.172,76.425 95.869,71.402 106.447,79.203Z" style="fill:rgb(195,195,195);"/>
            </g>
            <g id="Face">
                <path id="Mouth" d="M26.624,185.514L31.9,194.384L39.009,185.529L47.816,194.359L58.306,185.539" style="fill:none;stroke:black;stroke-width:4.6px;"/>
                <g id="Eyes">
                    <path id="Right-eye" serif:id="Right eye" d="M59.057,160.544L50.001,168.954L61.531,171.121" style="fill:none;stroke:black;stroke-width:5.23px;"/>
                    <path id="Left-eye" serif:id="Left eye" d="M25.378,160.586L34.521,168.901L23.015,171.188" style="fill:none;stroke:black;stroke-width:5.23px;"/>
                </g>
            </g>
        </g>
        <g id="Right-bee" serif:id="Right bee">
            <path id="Wings-outline1" serif:id="Wings outline" d="M140.966,168.291C125.389,167.812 108.616,156.263 101.311,136.893C92.069,112.387 102.613,88.579 120.892,82.468C133.353,78.301 148.469,82.813 159.533,94.109C174.192,86.603 190.523,87.025 201.524,95.138C217.851,107.178 220.477,134.486 203.162,156.076C186.306,177.094 158.958,181.696 143.064,169.975C142.336,169.438 141.637,168.876 140.966,168.291ZM147.112,152.435C148.326,154.556 149.943,156.41 151.967,157.903C162.545,165.704 180.242,160.68 191.461,146.691C202.68,132.702 203.2,115.012 192.622,107.211C182.906,100.046 167.185,103.699 155.994,115.181C149.673,101.253 136.519,93.059 125.649,96.694C114.147,100.539 109.531,116.18 115.346,131.6C121.162,147.02 135.221,156.417 146.722,152.571C146.853,152.527 146.983,152.482 147.112,152.435Z"/>
            <path id="Body1" serif:id="Body" d="M142.599,132.363C182.017,109.605 226.593,112.318 242.082,138.416C257.57,164.514 238.143,204.179 198.726,226.937C159.309,249.695 114.732,246.982 99.243,220.884C83.755,194.785 103.182,155.121 142.599,132.363Z" style="fill:rgb(254,194,7);"/>
            <g id="Stripes1" serif:id="Stripes">
                <path d="M172.294,123.577C171.439,124.258 233.868,121.39 239.731,184.974C270.951,101.29 172.605,117.274 172.294,123.577Z" style="fill:rgb(85,85,85);"/>
                <path d="M239.731,185.635C235.988,124.283 173.806,122.836 174.146,121.015L150.973,129.597C150.973,129.597 226.056,128.431 228.73,200.726L237.816,186.738" style="fill:rgb(254,194,7);"/>
                <path d="M214.772,215.612L228.6,200.726C225.975,128.339 149.397,127.079 149.398,127.106L137.122,134.347C137.008,134.368 216.318,140.745 214.772,215.612Z" style="fill:rgb(85,85,85);"/>
                <path d="M138.161,134.403L124.92,144.733C124.92,144.733 201.036,152.311 200.227,226.198L214.522,216.617C219.824,143.327 137.355,135.022 136.185,135.944" style="fill:rgb(254,194,7);"/>
                <path d="M122.077,146.141L112.15,156.694C112.15,156.694 182.218,157.327 183.816,233.525L200.227,226.198C203.027,150.019 124.352,146.951 122.077,146.141Z" style="fill:rgb(85,85,85);"/>
            </g>
            <path id="Body-outline1" serif:id="Body outline" d="M142.599,132.363C182.017,109.605 226.593,112.318 242.082,138.416C257.57,164.514 238.143,204.179 198.726,226.937C159.309,249.695 114.732,246.982 99.243,220.884C83.755,194.785 103.182,155.121 142.599,132.363Z" style="fill:none;stroke:black;stroke-width:15px;"/>
            <g id="Wings1" serif:id="Wings">
                <path id="Back-wing1" serif:id="Back wing" d="M125.649,96.694C137.15,92.848 151.209,102.245 157.024,117.665C162.84,133.084 158.224,148.725 146.722,152.571C135.221,156.417 121.162,147.02 115.346,131.6C109.531,116.18 114.147,100.539 125.649,96.694Z" style="fill:rgb(167,167,167);"/>
                <path id="Front-wing1" serif:id="Front wing" d="M192.622,107.211C203.2,115.012 202.68,132.702 191.461,146.691C180.242,160.68 162.545,165.704 151.967,157.903C141.389,150.101 141.909,132.411 153.128,118.422C164.347,104.433 182.043,99.409 192.622,107.211Z" style="fill:rgb(195,195,195);"/>
            </g>
            <g id="Face1" serif:id="Face">
                <path id="Mouth1" serif:id="Mouth" d="M112.799,213.521L118.074,222.391L125.184,213.537L133.99,222.367L144.481,213.547" style="fill:none;stroke:black;stroke-width:4.6px;"/>
                <path id="Right-eye1" serif:id="Right eye" d="M138.209,197.827C138.209,197.827 141.715,191.781 149.37,194.599" style="fill:none;stroke:black;stroke-width:7px;"/>
                <path id="Left-eye1" serif:id="Left eye" d="M120.019,197.827C120.019,197.827 116.513,191.781 108.858,194.599" style="fill:none;stroke:black;stroke-width:7px;"/>
            </g>
        </g>
        <path id="Heart" d="M100.241,60.968L90.15,50.877C80.47,41.197 80.47,25.478 90.15,15.797C99.831,6.116 115.55,6.116 125.231,15.797L128,18.566L130.769,15.797C140.45,6.116 156.169,6.116 165.85,15.797C175.53,25.478 175.53,41.197 165.85,50.877L155.759,60.968C155.367,61.518 154.923,62.043 154.43,62.536L136.889,80.076C134.439,82.527 131.215,83.737 128,83.706C124.785,83.737 121.561,82.527 119.111,80.076L101.57,62.536C101.077,62.043 100.633,61.518 100.241,60.968Z" style="fill:rgb(239,124,148);stroke:black;stroke-width:15px;stroke-linejoin:miter;stroke-miterlimit:5;"/>
    </g>
</svg>
