<?xml version="1.0" encoding="UTF-8" standalone="no"?>
<!DOCTYPE svg PUBLIC "-//W3C//DTD SVG 1.1//EN" "http://www.w3.org/Graphics/SVG/1.1/DTD/svg11.dtd">
<svg width="100%" height="100%" viewBox="0 0 256 256" version="1.1" xmlns="http://www.w3.org/2000/svg" xmlns:xlink="http://www.w3.org/1999/xlink" xml:space="preserve" xmlns:serif="http://www.serif.com/" style="fill-rule:evenodd;clip-rule:evenodd;stroke-linecap:round;stroke-linejoin:round;stroke-miterlimit:1.5;">
    <rect id="blobbee_heart_eyes" x="-0" y="0" width="256" height="256" style="fill:none;"/>
    <clipPath id="_clip1">
        <rect x="-0" y="0" width="256" height="256"/>
    </clipPath>
    <g clip-path="url(#_clip1)">
        <path id="Wings-outline" serif:id="Wings outline" d="M129.457,71.439C101.62,74.152 70.004,52.917 56.583,17.332C41.238,-23.356 56.638,-63.617 86.987,-73.764C110.642,-81.673 139.399,-69.767 157.884,-44.535C184.732,-63.181 216.987,-65.526 237.979,-50.045C265.408,-29.818 267.488,16.097 238.398,52.369C209.763,88.073 163.808,97.957 136.809,78.046C134.11,76.056 131.659,73.845 129.457,71.439ZM135.756,54.763C138.246,59.112 141.562,62.914 145.712,65.974C167.403,81.971 203.691,71.669 226.696,42.984C249.701,14.299 250.768,-21.976 229.076,-37.973C209.154,-52.665 176.918,-45.173 153.969,-21.629C141.008,-50.189 114.034,-66.991 91.744,-59.538C68.16,-51.653 58.694,-19.58 70.618,12.039C82.543,43.658 111.372,62.927 134.957,55.041C135.225,54.952 135.491,54.859 135.756,54.763Z"/>
        <path id="Body" d="M127.902,1.921C208.729,-44.745 300.137,-39.183 331.897,14.333C363.657,67.85 323.82,149.185 242.993,195.851C162.165,242.517 70.758,236.955 38.998,183.439C7.237,129.922 47.074,48.587 127.902,1.921Z" style="fill:rgb(254,194,7);"/>
        <g id="Stripes">
            <path d="M188.793,-16.095C187.039,-14.699 315.054,-20.58 327.076,109.803C391.095,-61.796 189.429,-29.021 188.793,-16.095Z" style="fill:rgb(85,85,85);"/>
            <path d="M327.076,111.159C319.401,-14.647 191.893,-17.614 192.59,-21.35L145.073,-3.751C145.073,-3.751 299.034,-6.142 304.518,142.104L323.15,113.42" style="fill:rgb(254,194,7);"/>
            <path d="M275.897,172.628L304.252,142.104C298.868,-6.332 141.84,-8.914 141.842,-8.859L116.671,5.99C116.437,6.032 279.066,19.108 275.897,172.628Z" style="fill:rgb(85,85,85);"/>
            <path d="M118.8,6.104L91.65,27.286C91.65,27.286 247.73,42.825 246.071,194.336L275.383,174.688C286.256,24.404 117.148,7.374 114.749,9.264" style="fill:rgb(254,194,7);"/>
            <path d="M85.819,30.174L65.463,51.814C65.463,51.814 209.143,53.111 212.42,209.36L246.071,194.336C251.812,38.125 90.484,31.835 85.819,30.174Z" style="fill:rgb(85,85,85);"/>
        </g>
        <path id="Body-outline" serif:id="Body outline" d="M127.902,1.921C208.729,-44.745 300.137,-39.183 331.897,14.333C363.657,67.85 323.82,149.185 242.993,195.851C162.165,242.517 70.758,236.955 38.998,183.439C7.237,129.922 47.074,48.587 127.902,1.921Z" style="fill:none;stroke:black;stroke-width:15px;"/>
        <g id="Wings">
            <path id="Back-wing" serif:id="Back wing" d="M91.744,-59.538C115.328,-67.424 144.157,-48.156 156.082,-16.536C168.007,15.083 158.541,47.156 134.957,55.041C111.372,62.927 82.543,43.658 70.618,12.039C58.694,-19.58 68.16,-51.653 91.744,-59.538Z" style="fill:rgb(167,167,167);"/>
            <path id="Front-wing" serif:id="Front wing" d="M229.076,-37.973C250.768,-21.976 249.701,14.299 226.696,42.984C203.691,71.669 167.403,81.971 145.712,65.974C124.02,49.977 125.087,13.702 148.092,-14.983C171.097,-43.668 207.385,-53.97 229.076,-37.973Z" style="fill:rgb(195,195,195);"/>
        </g>
        <g id="Face">
            <g id="Mouth">
                <path id="Mouth-backgorund" serif:id="Mouth backgorund" d="M124.317,179.648C124.317,190.715 115.332,199.7 104.265,199.7L88.313,199.7C77.106,199.7 68.007,190.601 68.007,179.394C68.007,172.982 73.213,167.776 79.625,167.776L112.446,167.776C118.998,167.776 124.317,173.096 124.317,179.648Z" style="fill:rgb(160,25,25);"/>
                <path id="Mouth-backgorund1" serif:id="Mouth backgorund" d="M93.579,199.7C92.946,198.517 92.604,197.253 92.604,195.941C92.604,189.277 101.441,183.866 112.325,183.866C116.393,183.866 120.175,184.622 123.316,185.916C120.682,193.917 113.144,199.7 104.265,199.7L93.579,199.7Z" style="fill:rgb(216,72,72);"/>
            </g>
            <g id="Eyes">
                <path id="Right-eye" serif:id="Right eye" d="M131.049,146.665L109.561,127.52C105.187,123.736 104.708,117.113 108.492,112.739C112.275,108.365 118.898,107.885 123.272,111.669L135.018,121.829L146.763,111.669C151.137,107.885 157.761,108.365 161.544,112.739C165.328,117.113 164.849,123.736 160.475,127.52L138.987,146.665C137.945,147.848 136.484,148.45 135.018,148.441C133.552,148.45 132.091,147.848 131.049,146.665Z" style="fill:rgb(239,124,148);"/>
                <path d="M120.606,157.451C120.605,157.449 120.603,157.447 120.6,157.445C120.166,157.058 99.645,138.775 99.655,138.783C89.106,129.57 87.974,113.53 97.147,102.925C106.347,92.29 122.451,91.125 133.086,100.325L135.018,101.996L136.95,100.325C147.585,91.125 163.689,92.29 172.889,102.925C182.062,113.53 180.93,129.57 170.391,138.775C170.391,138.775 149.429,157.451 149.439,157.441C145.509,161.419 140.269,163.453 135.019,163.441C129.763,163.45 124.533,161.419 120.606,157.451ZM131.049,146.665C132.091,147.848 133.552,148.45 135.018,148.441C136.484,148.45 137.945,147.848 138.987,146.665L160.475,127.52C164.849,123.736 165.328,117.113 161.544,112.739C157.761,108.365 151.137,107.885 146.763,111.669L135.018,121.829L123.272,111.669C118.898,107.885 112.275,108.365 108.492,112.739C104.708,117.113 105.187,123.736 109.561,127.52L131.049,146.665Z" style="fill:rgb(168,9,62);"/>
                <path id="Left-eye" serif:id="Left eye" d="M50.943,146.665L29.455,127.52C25.081,123.736 24.601,117.113 28.385,112.739C32.169,108.365 38.792,107.885 43.166,111.669L54.911,121.829L66.657,111.669C71.031,107.885 77.654,108.365 81.438,112.739C85.221,117.113 84.742,123.736 80.368,127.52L58.88,146.665C57.838,147.848 56.377,148.45 54.911,148.441C53.445,148.45 51.984,147.848 50.943,146.665Z" style="fill:rgb(239,124,148);"/>
                <path d="M40.5,157.451C40.498,157.449 40.496,157.447 40.493,157.445C40.059,157.058 19.538,138.775 19.548,138.783C8.999,129.57 7.867,113.53 17.041,102.925C26.24,92.29 42.344,91.125 52.979,100.325L54.911,101.996L56.843,100.325C67.479,91.125 83.582,92.29 92.782,102.925C101.955,113.53 100.823,129.57 90.284,138.775C90.284,138.775 69.323,157.451 69.333,157.441C65.402,161.419 60.162,163.453 54.912,163.441C49.656,163.45 44.426,161.419 40.5,157.451ZM50.943,146.665C51.984,147.848 53.445,148.45 54.911,148.441C56.377,148.45 57.838,147.848 58.88,146.665L80.368,127.52C84.742,123.736 85.221,117.113 81.438,112.739C77.654,108.365 71.031,107.885 66.657,111.669L54.911,121.829L43.166,111.669C38.792,107.885 32.169,108.365 28.385,112.739C24.601,117.113 25.081,123.736 29.455,127.52L50.943,146.665Z" style="fill:rgb(168,9,62);"/>
            </g>
        </g>
    </g>
</svg>
