<?xml version="1.0" encoding="UTF-8" standalone="no"?>
<!DOCTYPE svg PUBLIC "-//W3C//DTD SVG 1.1//EN" "http://www.w3.org/Graphics/SVG/1.1/DTD/svg11.dtd">
<svg width="100%" height="100%" viewBox="0 0 256 256" version="1.1" xmlns="http://www.w3.org/2000/svg" xmlns:xlink="http://www.w3.org/1999/xlink" xml:space="preserve" xmlns:serif="http://www.serif.com/" style="fill-rule:evenodd;clip-rule:evenodd;stroke-linecap:round;stroke-linejoin:round;stroke-miterlimit:1.5;">
    <rect id="blobbee_blush_hide" x="0" y="0" width="256" height="256" style="fill:none;"/>
    <clipPath id="_clip1">
        <rect x="0" y="0" width="256" height="256"/>
    </clipPath>
    <g clip-path="url(#_clip1)">
        <path id="Wings-outline" serif:id="Wings outline" d="M130.856,59.756C103.019,62.47 71.403,41.235 57.982,5.65C42.637,-35.039 58.037,-75.299 88.386,-85.447C112.041,-93.356 140.798,-81.45 159.283,-56.218C186.131,-74.864 218.386,-77.209 239.378,-61.728C266.807,-41.5 268.887,4.414 239.797,40.686C211.162,76.39 165.207,86.274 138.208,66.364C135.509,64.373 133.058,62.162 130.856,59.756ZM137.155,43.08C139.645,47.429 142.961,51.231 147.111,54.291C168.802,70.288 205.09,59.987 228.095,31.302C251.1,2.617 252.167,-33.659 230.475,-49.656C210.553,-64.348 178.317,-56.856 155.368,-33.312C142.407,-61.872 115.433,-78.674 93.143,-71.221C69.559,-63.336 60.093,-31.263 72.017,0.357C83.942,31.976 112.771,51.244 136.356,43.359C136.624,43.269 136.89,43.176 137.155,43.08Z"/>
        <path id="Body" d="M127.902,1.921C208.729,-44.745 300.137,-39.183 331.897,14.333C363.657,67.85 323.82,149.185 242.993,195.851C162.165,242.517 70.758,236.955 38.998,183.439C7.237,129.922 47.074,48.587 127.902,1.921Z" style="fill:rgb(254,194,7);"/>
        <g id="Stripes">
            <path d="M188.793,-16.095C187.039,-14.699 315.054,-20.58 327.076,109.803C391.095,-61.796 189.429,-29.021 188.793,-16.095Z" style="fill:rgb(85,85,85);"/>
            <path d="M327.076,111.159C319.401,-14.647 191.893,-17.614 192.59,-21.35L145.073,-3.751C145.073,-3.751 299.034,-6.142 304.518,142.104L323.15,113.42" style="fill:rgb(254,194,7);"/>
            <path d="M275.897,172.628L304.252,142.104C298.868,-6.332 141.84,-8.914 141.842,-8.859L116.671,5.99C116.437,6.032 279.066,19.108 275.897,172.628Z" style="fill:rgb(85,85,85);"/>
            <path d="M118.8,6.104L91.65,27.286C91.65,27.286 247.73,42.825 246.071,194.336L275.383,174.688C286.256,24.404 117.148,7.374 114.749,9.264" style="fill:rgb(254,194,7);"/>
            <path d="M85.819,30.174L65.463,51.814C65.463,51.814 209.143,53.111 212.42,209.36L246.071,194.336C251.812,38.125 90.484,31.835 85.819,30.174Z" style="fill:rgb(85,85,85);"/>
        </g>
        <path id="Body-outline" serif:id="Body outline" d="M127.902,1.921C208.729,-44.745 300.137,-39.183 331.897,14.333C363.657,67.85 323.82,149.185 242.993,195.851C162.165,242.517 70.758,236.955 38.998,183.439C7.237,129.922 47.074,48.587 127.902,1.921Z" style="fill:none;stroke:black;stroke-width:15px;"/>
        <path id="Mouth" d="M76.481,183.531L92.061,168.373L111.379,183.932" style="fill:none;stroke:black;stroke-width:10px;"/>
        <g id="Wings">
            <path id="Back-wing" serif:id="Back wing" d="M93.143,-71.221C116.727,-79.107 145.556,-59.838 157.481,-28.219C169.406,3.4 159.94,35.473 136.356,43.359C112.771,51.244 83.942,31.976 72.017,0.357C60.093,-31.263 69.559,-63.336 93.143,-71.221Z" style="fill:rgb(167,167,167);"/>
            <path id="Front-wing" serif:id="Front wing" d="M230.475,-49.656C252.167,-33.659 251.1,2.617 228.095,31.302C205.09,59.987 168.802,70.288 147.111,54.291C125.419,38.295 126.486,2.019 149.491,-26.666C172.496,-55.351 208.784,-65.652 230.475,-49.656Z" style="fill:rgb(195,195,195);"/>
        </g>
        <ellipse id="Blush" cx="97.132" cy="128" rx="59.36" ry="39.358" style="fill:url(#_Radial2);"/>
        <g id="Blush-lines" serif:id="Blush lines">
            <path d="M87.761,104.716C90.17,106.106 90.997,109.192 89.606,111.601L67.76,149.44C66.369,151.849 63.284,152.675 60.875,151.284C58.465,149.894 57.639,146.808 59.03,144.399L80.876,106.56C82.267,104.151 85.352,103.325 87.761,104.716Z" style="fill:rgb(238,73,25);"/>
            <path d="M110.576,104.716C112.985,106.106 113.812,109.192 112.421,111.601L90.574,149.44C89.183,151.849 86.098,152.675 83.689,151.284C81.28,149.894 80.453,146.808 81.844,144.399L103.69,106.56C105.081,104.151 108.167,103.325 110.576,104.716Z" style="fill:rgb(238,73,25);"/>
            <path d="M133.39,104.716C135.799,106.106 136.626,109.192 135.235,111.601L113.389,149.44C111.998,151.849 108.913,152.675 106.504,151.284C104.094,149.894 103.268,146.808 104.659,144.399L126.505,106.56C127.896,104.151 130.981,103.325 133.39,104.716Z" style="fill:rgb(238,73,25);"/>
        </g>
        <g id="Left-hand" serif:id="Left hand">
            <path id="Outline" d="M36.518,113.309L21.441,200.411L53.938,206.036L69.014,118.934C70.567,109.967 64.546,101.426 55.579,99.874C46.611,98.321 38.07,104.342 36.518,113.309Z" style="fill:rgb(151,151,151);"/>
            <path d="M26.665,111.604C29.158,97.198 42.878,87.527 57.284,90.02C71.69,92.514 81.361,106.234 78.868,120.64L63.791,207.742C62.849,213.184 57.674,216.832 52.232,215.89L19.736,210.265C14.294,209.323 10.646,204.148 11.588,198.706L26.665,111.604ZM36.518,113.309L21.441,200.411L53.938,206.036L69.014,118.934C70.567,109.967 64.546,101.426 55.579,99.874C46.611,98.321 38.07,104.342 36.518,113.309Z"/>
            <path id="Fill" d="M36.518,113.309L19.726,210.318L52.223,215.943L69.014,118.934C70.567,109.967 64.546,101.426 55.579,99.874C46.611,98.321 38.07,104.342 36.518,113.309Z" style="fill:rgb(151,151,151);"/>
        </g>
        <path id="Right-arm" serif:id="Right arm" d="M133.373,211.21L133.238,211.22L124.696,124.275C123.948,113.883 129.864,105.134 140.257,104.386C150.65,103.637 158.062,111.34 158.811,121.733L166.308,194.166L192.422,192.372C199.483,191.864 205.629,197.184 206.137,204.245C206.646,211.306 201.326,217.451 194.265,217.96L146.823,221.375C140.351,221.841 134.65,217.399 133.373,211.21Z" style="fill:rgb(151,151,151);"/>
        <path d="M124.114,215.318C123.681,214.353 123.394,213.304 123.286,212.198L114.744,125.253C114.735,125.167 114.728,125.08 114.722,124.994C113.555,108.786 123.331,95.578 139.539,94.411C155.661,93.251 167.54,104.761 168.772,120.845C168.772,120.845 175.26,183.527 175.26,183.527C175.26,183.527 191.736,182.396 191.736,182.396C204.289,181.509 215.207,190.971 216.111,203.527C217.016,216.093 207.549,227.029 194.983,227.934L147.541,231.349C136.75,232.126 127.166,225.241 124.114,215.318ZM132.26,201.271C120.779,202.483 132,219.223 133.261,221.049C133.36,220.284 133.769,217.056 134.043,213.42C136.072,218.423 141.151,221.784 146.823,221.375L194.265,217.96C201.326,217.451 206.646,211.306 206.137,204.245C205.629,197.184 199.483,191.864 192.422,192.372L166.308,194.166L158.811,121.733C158.062,111.34 150.65,103.637 140.257,104.386C129.864,105.134 123.948,113.883 124.696,124.275L132.26,201.271ZM133.318,221.132C133.354,221.184 133.373,221.21 133.373,221.21L134.494,219.835L133.318,221.132Z"/>
    </g>
    <defs>
        <radialGradient id="_Radial2" cx="0" cy="0" r="1" gradientUnits="userSpaceOnUse" gradientTransform="matrix(59.3599,1.33268e-13,-2.00995e-13,39.3582,97.1324,128)"><stop offset="0" style="stop-color:rgb(252,101,51);stop-opacity:1"/><stop offset="1" style="stop-color:rgb(248,138,58);stop-opacity:0"/></radialGradient>
    </defs>
</svg>
