<?xml version="1.0" encoding="UTF-8" standalone="no"?>
<!DOCTYPE svg PUBLIC "-//W3C//DTD SVG 1.1//EN" "http://www.w3.org/Graphics/SVG/1.1/DTD/svg11.dtd">
<svg width="100%" height="100%" viewBox="0 0 256 256" version="1.1" xmlns="http://www.w3.org/2000/svg" xmlns:xlink="http://www.w3.org/1999/xlink" xml:space="preserve" xmlns:serif="http://www.serif.com/" style="fill-rule:evenodd;clip-rule:evenodd;stroke-linecap:round;stroke-linejoin:round;stroke-miterlimit:1.5;">
    <rect id="blobbee_hat_tip" x="-0" y="0" width="256" height="256" style="fill:none;"/>
    <path id="Wings-outline" serif:id="Wings outline" d="M96.279,120.487C75.708,121.185 52.927,105.728 43.145,79.789C31.425,48.715 43.942,18.224 67.12,10.474C84.104,4.796 104.741,12.186 118.9,29.051C138.547,17.134 161.284,16.542 176.32,27.631C197.153,42.994 199.558,77.859 177.463,105.409C155.825,132.389 120.92,139.136 100.518,124.09C99.006,122.975 97.593,121.771 96.279,120.487ZM102.495,104.219C104.227,107.244 106.535,109.889 109.421,112.018C124.512,123.147 149.757,115.98 165.761,96.024C181.766,76.068 182.508,50.832 167.417,39.703C153.557,29.482 131.131,34.694 115.166,51.073C106.149,31.204 87.383,19.515 71.876,24.7C55.469,30.186 48.884,52.499 57.18,74.496C65.476,96.493 85.532,109.898 101.939,104.412C102.126,104.35 102.311,104.285 102.495,104.219Z"/>
    <path id="Body" d="M96.058,75.584C152.289,43.119 215.88,46.989 237.975,84.22C260.071,121.45 232.357,178.035 176.126,210.5C119.894,242.965 56.303,239.096 34.208,201.865C12.113,164.634 39.827,108.049 96.058,75.584Z" style="fill:rgb(254,194,7);"/>
    <g id="Stripes">
        <path d="M138.419,63.051C137.199,64.022 226.258,59.931 234.622,150.637C279.159,31.257 138.862,54.058 138.419,63.051Z" style="fill:rgb(85,85,85);"/>
        <path d="M234.622,151.58C229.282,64.059 140.576,61.994 141.061,59.395L108.004,71.638C108.004,71.638 215.113,69.975 218.928,173.108L231.89,153.153" style="fill:rgb(254,194,7);"/>
        <path d="M199.017,194.344L218.743,173.108C214.997,69.843 105.755,68.047 105.756,68.085L88.245,78.415C88.082,78.445 201.222,87.541 199.017,194.344Z" style="fill:rgb(85,85,85);"/>
        <path d="M89.726,78.494L70.838,93.231C70.838,93.231 179.421,104.041 178.267,209.446L198.659,195.777C206.223,91.226 88.577,79.378 86.908,80.693" style="fill:rgb(254,194,7);"/>
        <path d="M66.781,95.24L52.62,110.295C52.62,110.295 152.576,111.197 154.856,219.898L178.267,209.446C182.261,100.771 70.026,96.395 66.781,95.24Z" style="fill:rgb(85,85,85);"/>
    </g>
    <path id="Body-outline" serif:id="Body outline" d="M96.058,75.584C152.289,43.119 215.88,46.989 237.975,84.22C260.071,121.45 232.357,178.035 176.126,210.5C119.894,242.965 56.303,239.096 34.208,201.865C12.113,164.634 39.827,108.049 96.058,75.584Z" style="fill:none;stroke:black;stroke-width:15px;"/>
    <g id="Wings">
        <path id="Back-wing" serif:id="Back wing" d="M71.876,24.7C88.284,19.214 108.34,32.619 116.636,54.616C124.932,76.613 118.347,98.926 101.939,104.412C85.532,109.898 65.476,96.493 57.18,74.496C48.884,52.499 55.469,30.186 71.876,24.7Z" style="fill:rgb(167,167,167);"/>
        <path id="Front-wing" serif:id="Front wing" d="M167.417,39.703C182.508,50.832 181.766,76.068 165.761,96.024C149.757,115.98 124.512,123.147 109.421,112.018C94.331,100.889 95.073,75.653 111.077,55.697C127.082,35.741 152.327,28.574 167.417,39.703Z" style="fill:rgb(195,195,195);"/>
    </g>
    <g id="Face">
        <path id="Mouth" d="M53.545,191.361L61.071,204.015L71.213,191.384L83.776,203.98L98.742,191.398" style="fill:none;stroke:black;stroke-width:6.56px;"/>
        <path id="Right-eye" serif:id="Right eye" d="M87.551,169.106C87.551,169.106 93.09,159.552 105.184,164.005" style="fill:none;stroke:black;stroke-width:10px;"/>
        <path id="Left-eye" serif:id="Left eye" d="M63.845,163.431L63.845,168.842C63.845,174.527 59.23,179.142 53.545,179.142C47.861,179.142 43.246,174.527 43.246,168.842L43.246,163.431C43.246,157.746 47.861,153.131 53.545,153.131C59.23,153.131 63.845,157.746 63.845,163.431Z"/>
    </g>
    <g id="Hat">
        <path id="Outline" d="M67.863,65.939C70.59,62.979 74.781,58.905 79.451,56.067C87.282,51.309 93.588,45.499 100.457,49.936C105.313,53.072 105.692,54.44 106.778,59.262C107.863,64.084 105.937,67.336 109.381,69.373C112.825,71.41 115.978,70.474 118.035,69.104C120.091,67.734 123.646,68.13 126.797,70.09C129.949,72.049 130.782,76.157 131.458,79.696C132.032,82.7 128.973,94.642 123.85,104.984C137.367,111.575 150.544,116.282 162.152,119.103C164.588,119.621 166.506,121.5 167.075,123.925C167.643,126.35 166.759,128.885 164.806,130.432C143.895,146.761 106.058,143.741 73.502,121.366C41.035,99.052 24.353,64.729 31.556,39.1C32.25,36.69 34.283,34.906 36.763,34.531C39.242,34.157 41.712,35.262 43.085,37.36C49.479,46.523 57.859,56.358 67.863,65.939Z" style="fill:none;stroke:black;stroke-width:15px;"/>
        <path id="Brim" d="M43.085,37.36C41.712,35.262 39.242,34.157 36.763,34.531C34.283,34.906 32.25,36.69 31.556,39.1C24.353,64.729 41.035,99.052 73.502,121.366C106.058,143.741 143.895,146.761 164.806,130.432C166.759,128.885 167.643,126.35 167.075,123.925C166.506,121.5 164.588,119.621 162.152,119.103C142.48,114.323 118.305,104.126 95.603,88.524C72.963,72.964 54.731,54.05 43.085,37.36Z" style="fill:rgb(98,70,12);"/>
        <path id="Brim-highlight" serif:id="Brim highlight" d="M70.097,73.402C69.746,72.852 69.12,72.541 68.47,72.594C67.819,72.648 67.252,73.057 66.996,73.657C63.066,83.67 69.783,98.071 83.322,107.376C96.884,116.697 112.636,117.705 120.37,110.266C120.816,109.814 120.978,109.155 120.792,108.548C120.607,107.941 120.103,107.485 119.481,107.36C111.523,105.536 101.35,101.34 91.801,94.777C82.267,88.225 74.676,80.222 70.097,73.402Z" style="fill:rgb(126,95,27);"/>
        <path id="Top" d="M64.616,69.728C64.616,69.728 71.306,61.017 79.451,56.067C87.282,51.309 93.588,45.499 100.457,49.936C105.313,53.072 105.692,54.44 106.778,59.262C107.863,64.084 105.937,67.336 109.381,69.373C112.825,71.41 115.978,70.474 118.035,69.104C120.091,67.734 123.646,68.13 126.797,70.09C129.949,72.049 130.782,76.157 131.458,79.696C132.134,83.234 127.77,99.172 120.929,110.291C118.862,109.365 88.257,101.217 64.616,69.728Z" style="fill:rgb(98,70,12);"/>
        <path id="Top-highlight" serif:id="Top highlight" d="M71.831,70.575C71.831,70.575 76.737,64.249 82.772,60.702C88.573,57.293 93.224,53.093 98.407,56.427C102.071,58.783 101.112,61.656 101.976,65.21C102.839,68.764 103.902,72.803 106.499,74.337C109.095,75.87 113.301,76.242 114.824,75.258C116.346,74.274 120.264,72.738 122.641,74.212C125.018,75.685 125.686,78.712 126.23,81.318C126.773,83.924 123.684,95.583 118.691,103.675C117.136,102.973 89.844,93.96 71.831,70.575Z" style="fill:rgb(126,95,27);"/>
    </g>
    <path id="Right-arm" serif:id="Right arm" d="M190.668,192.9L166.142,128.486C163.006,120.887 155.746,116.798 148.148,119.934C140.549,123.07 138.033,131.12 141.169,138.718L161.415,192.482L142.352,200.423C137.19,202.554 134.728,208.475 136.859,213.637C138.989,218.8 144.91,221.262 150.073,219.131L184.759,204.816C189.492,202.863 191.949,197.717 190.668,192.9Z" style="fill:rgb(151,151,151);"/>
    <path d="M200.333,190.33C202.883,199.923 197.996,210.171 188.574,214.059L153.888,228.375C143.624,232.611 131.851,227.717 127.615,217.452C123.383,207.198 128.264,195.438 138.508,191.191L148.652,186.966C148.652,186.966 131.86,142.374 131.872,142.404C126.609,129.485 131.417,116.021 144.333,110.691C157.321,105.33 170.026,111.682 175.386,124.671C175.421,124.756 175.455,124.841 175.488,124.927L200.014,189.341C200.137,189.665 200.244,189.995 200.333,190.33ZM190.668,192.9L166.142,128.486C163.006,120.887 155.746,116.798 148.148,119.934C140.549,123.07 138.033,131.12 141.169,138.718L161.415,192.482L142.352,200.423C137.19,202.554 134.728,208.475 136.859,213.637C138.989,218.8 144.91,221.262 150.073,219.131L184.759,204.816C189.492,202.863 191.949,197.717 190.668,192.9Z"/>
</svg>
