<?xml version="1.0" encoding="UTF-8" standalone="no"?>
<!DOCTYPE svg PUBLIC "-//W3C//DTD SVG 1.1//EN" "http://www.w3.org/Graphics/SVG/1.1/DTD/svg11.dtd">
<svg width="100%" height="100%" viewBox="0 0 256 256" version="1.1" xmlns="http://www.w3.org/2000/svg" xmlns:xlink="http://www.w3.org/1999/xlink" xml:space="preserve" xmlns:serif="http://www.serif.com/" style="fill-rule:evenodd;clip-rule:evenodd;stroke-linecap:round;stroke-linejoin:round;stroke-miterlimit:1.5;">
    <rect id="blobbee_hug_cat" x="-0" y="0" width="256" height="256" style="fill:none;"/>
    <g id="Bee">
        <path id="Wings-outline" serif:id="Wings outline" d="M148.346,135.121C134.249,134.344 119.24,123.938 112.662,106.497C104.15,83.926 114.112,62.089 130.948,56.459C142.085,52.736 155.58,56.452 165.699,66.148C178.871,59.892 193.341,60.565 203.162,67.808C218.161,78.869 220.853,103.948 204.946,123.783C189.498,143.045 164.378,147.014 149.812,136.273C149.309,135.902 148.82,135.518 148.346,135.121ZM154.47,119.42C155.531,121.274 156.945,122.896 158.715,124.2C167.963,131.021 183.435,126.629 193.244,114.398C203.053,102.168 203.508,86.701 194.259,79.88C185.765,73.616 172.02,76.81 162.236,86.849C156.709,74.672 145.208,67.508 135.704,70.685C125.649,74.048 121.613,87.723 126.697,101.204C131.782,114.685 144.073,122.901 154.129,119.539C154.243,119.501 154.357,119.461 154.47,119.42Z"/>
        <path id="Body" d="M152.322,98.199C188.339,75.441 229.071,78.153 243.223,104.252C257.376,130.35 239.624,170.015 203.607,192.773C167.59,215.53 126.858,212.818 112.706,186.72C98.553,160.621 116.305,120.956 152.322,98.199Z" style="fill:rgb(254,194,7);"/>
        <g id="Stripes">
            <path d="M179.455,89.413C178.674,90.093 235.718,87.226 241.075,150.81C269.602,67.126 179.739,83.109 179.455,89.413Z" style="fill:rgb(85,85,85);"/>
            <path d="M241.075,151.471C237.655,90.119 180.837,88.672 181.147,86.85L159.973,95.432C159.973,95.432 228.579,94.267 231.023,166.562L239.325,152.573" style="fill:rgb(254,194,7);"/>
            <path d="M218.269,181.448L230.904,166.562C228.505,94.174 158.533,92.915 158.534,92.942L147.317,100.183C147.213,100.204 219.681,106.58 218.269,181.448Z" style="fill:rgb(85,85,85);"/>
            <path d="M148.266,100.238L136.168,110.568C136.168,110.568 205.718,118.147 204.979,192.034L218.04,182.452C222.885,109.163 147.53,100.858 146.461,101.779" style="fill:rgb(254,194,7);"/>
            <path d="M133.57,111.977L124.499,122.53C124.499,122.53 188.523,123.162 189.983,199.361L204.979,192.034C207.537,115.854 135.648,112.787 133.57,111.977Z" style="fill:rgb(85,85,85);"/>
        </g>
        <path id="Body-outline" serif:id="Body outline" d="M152.322,98.199C188.339,75.441 229.071,78.153 243.223,104.252C257.376,130.35 239.624,170.015 203.607,192.773C167.59,215.53 126.858,212.818 112.706,186.72C98.553,160.621 116.305,120.956 152.322,98.199Z" style="fill:none;stroke:black;stroke-width:15px;"/>
        <g id="Wings">
            <path id="Back-wing" serif:id="Back wing" d="M135.704,70.685C145.76,67.323 158.052,75.539 163.136,89.02C168.221,102.502 164.185,116.177 154.129,119.539C144.073,122.901 131.782,114.685 126.697,101.204C121.613,87.723 125.649,74.048 135.704,70.685Z" style="fill:rgb(167,167,167);"/>
            <path id="Front-wing" serif:id="Front wing" d="M194.259,79.88C203.508,86.701 203.053,102.168 193.244,114.398C183.435,126.629 167.963,131.021 158.715,124.2C149.466,117.38 149.921,101.913 159.73,89.682C169.538,77.452 185.01,73.06 194.259,79.88Z" style="fill:rgb(195,195,195);"/>
        </g>
        <g id="Face">
            <path id="Mouth" d="M128.439,178.362L133.715,187.232L140.824,178.377L149.631,187.207L160.122,178.388" style="fill:none;stroke:black;stroke-width:4.6px;"/>
            <path id="Eye" d="M166.682,158.774L166.682,162.584C166.682,166.586 163.433,169.835 159.431,169.835C155.428,169.835 152.179,166.586 152.179,162.584L152.179,158.774C152.179,154.772 155.428,151.523 159.431,151.523C163.433,151.523 166.682,154.772 166.682,158.774Z"/>
        </g>
    </g>
    <g id="Cat">
        <path d="M53.579,134.985C53.579,134.985 64.382,130.08 75.698,130.325C87.014,130.57 97.461,134.227 97.461,134.227C100.406,133.188 123.245,123.618 123.245,123.618C123.245,123.618 132.051,121.624 132.199,130.479C132.347,139.335 132.152,166.256 132.152,166.256C132.152,166.256 140.327,181.353 139.544,196.22C138.762,211.088 129.695,223.605 125.206,227.753C120.718,231.9 107.504,237.735 99.799,237.63C92.094,237.524 46.839,237.917 46.839,237.917C46.839,237.917 33.222,237.554 24.567,226.452C15.913,215.35 17.595,210.414 17.595,207.046C17.595,203.678 17.534,184.216 17.534,184.216C17.534,184.216 18.594,174.12 20.083,170.932C21.573,167.743 23.276,164.116 23.276,164.116L18.322,133.145C18.322,133.145 16.496,127.945 19.63,125.224C22.765,122.503 27.893,124.184 27.893,124.184L53.579,134.985Z" style="fill:rgb(255,201,92);"/>
        <path d="M53.985,118.883C59.439,117.145 67.622,115.147 76.022,115.329C84.066,115.503 91.748,117.101 96.728,118.394C104.009,115.427 117.448,109.783 117.448,109.783C118.251,109.447 119.082,109.181 119.932,108.988C119.932,108.988 132.571,106.824 140.406,114.1C143.852,117.299 147.062,122.138 147.197,130.229C147.314,137.228 147.22,155.397 147.173,162.971C150.052,169.495 155.243,183.339 154.524,197.009C153.486,216.725 141.339,233.269 135.386,238.769C129.067,244.609 110.443,252.777 99.594,252.628C91.938,252.523 46.969,252.917 46.969,252.917C46.792,252.918 46.616,252.917 46.439,252.912C46.439,252.912 25.816,252.451 12.737,235.674C-0.01,219.322 2.595,212.007 2.595,207.046C2.595,203.685 2.534,184.263 2.534,184.263C2.532,183.724 2.56,183.185 2.616,182.649C2.616,182.649 4.459,168.939 6.493,164.584C6.904,163.703 7.332,162.789 7.735,161.928C7.735,161.928 3.623,136.221 3.625,136.231C3.167,134.37 2.62,131.339 2.855,128.103C3.221,123.06 5.25,117.844 9.798,113.896C13.767,110.451 18.627,108.919 23.172,108.7C28.234,108.457 32.565,109.93 32.565,109.93C32.951,110.057 33.333,110.199 33.708,110.357L53.985,118.883ZM53.579,134.985L27.893,124.184C27.893,124.184 22.765,122.503 19.63,125.224C16.496,127.945 18.322,133.145 18.322,133.145L23.276,164.116C23.276,164.116 21.573,167.743 20.083,170.932C18.594,174.12 17.534,184.216 17.534,184.216C17.534,184.216 17.595,203.678 17.595,207.046C17.595,210.414 15.913,215.35 24.567,226.452C33.222,237.554 46.839,237.917 46.839,237.917C46.839,237.917 92.094,237.524 99.799,237.63C107.504,237.735 120.718,231.9 125.206,227.753C129.695,223.605 138.762,211.088 139.544,196.22C140.327,181.353 132.152,166.256 132.152,166.256C132.152,166.256 132.347,139.335 132.199,130.479C132.051,121.624 123.245,123.618 123.245,123.618C123.245,123.618 100.406,133.188 97.461,134.227C97.461,134.227 87.014,130.57 75.698,130.325C64.382,130.08 53.579,134.985 53.579,134.985Z"/>
        <g id="Face1" serif:id="Face">
            <g id="Whiskers">
                <path d="M44.841,199.477C43.772,201.546 41.224,202.358 39.155,201.289L25.608,194.291C23.539,193.222 22.727,190.674 23.796,188.605C24.865,186.535 27.413,185.723 29.482,186.792L43.028,193.79C45.098,194.859 45.91,197.407 44.841,199.477Z" style="fill:rgb(142,94,49);"/>
                <path d="M118.291,201.291C119.36,203.36 121.908,204.173 123.977,203.104L135.297,197.256C137.366,196.187 138.178,193.639 137.109,191.57C136.04,189.501 133.492,188.689 131.423,189.757L120.104,195.605C118.035,196.674 117.222,199.222 118.291,201.291Z" style="fill:rgb(142,94,49);"/>
                <path d="M44.895,208.678C46.025,210.715 45.289,213.286 43.252,214.416L29.92,221.813C27.883,222.943 25.312,222.207 24.182,220.17C23.052,218.134 23.788,215.563 25.825,214.433L39.157,207.035C41.194,205.905 43.765,206.642 44.895,208.678Z" style="fill:rgb(142,94,49);"/>
                <path d="M118.237,210.493C117.107,212.529 117.843,215.1 119.88,216.23L126.209,219.742C128.245,220.872 130.816,220.136 131.946,218.099C133.076,216.062 132.34,213.492 130.304,212.362L123.975,208.85C121.938,207.72 119.367,208.456 118.237,210.493Z" style="fill:rgb(142,94,49);"/>
            </g>
            <path id="Mouth1" serif:id="Mouth" d="M63.791,196.735L78.382,211.674L91.669,197.564L102.069,210.791L108.825,197.224" style="fill:none;stroke:black;stroke-width:8px;stroke-miterlimit:5;"/>
            <g id="Eyes">
                <path id="Right-eye" serif:id="Right eye" d="M98.346,167.091C100.414,173.147 105.433,175.061 109.239,175.095C113.518,175.133 118.123,173.826 121.042,166.567" style="fill:none;stroke:black;stroke-width:10px;"/>
                <path id="Left-eye" serif:id="Left eye" d="M52.892,167.091C54.961,173.147 59.98,175.061 63.785,175.095C68.065,175.133 72.669,173.826 75.588,166.567" style="fill:none;stroke:black;stroke-width:10px;"/>
            </g>
        </g>
    </g>
    <path id="Right-arm" serif:id="Right arm" d="M193.615,213.603L150.492,224.114C143.682,225.385 137.639,223.088 136.653,217.806C135.667,212.524 140.388,208.054 147.198,206.783L180.825,198.116L178.404,184.836C177.734,181.248 180.947,177.633 185.573,176.769C190.2,175.905 194.5,178.117 195.17,181.706L199.672,205.818C200.286,209.107 197.63,212.419 193.615,213.603Z" style="fill:rgb(151,151,151);"/>
    <path d="M195.983,223.319L152.86,233.829C152.683,233.872 152.506,233.911 152.327,233.944C139.235,236.388 128.718,229.796 126.823,219.641C124.946,209.587 132.153,199.575 144.998,197.023C144.998,197.023 169.319,190.755 169.319,190.755C169.319,190.755 168.568,186.635 168.568,186.635C167.047,178.369 173.085,168.928 183.738,166.939C194.407,164.947 203.456,171.596 205.001,179.871L209.502,203.982C210.948,211.729 205.9,220.405 196.444,223.195C196.291,223.24 196.138,223.281 195.983,223.319ZM193.615,213.603C197.63,212.419 200.286,209.107 199.672,205.818L195.17,181.706C194.5,178.117 190.2,175.905 185.573,176.769C180.947,177.633 177.734,181.248 178.404,184.836L180.825,198.116L147.198,206.783C140.388,208.054 135.667,212.524 136.653,217.806C137.639,223.088 143.682,225.385 150.492,224.114L193.615,213.603Z"/>
</svg>
