<?xml version="1.0" encoding="UTF-8" standalone="no"?>
<!DOCTYPE svg PUBLIC "-//W3C//DTD SVG 1.1//EN" "http://www.w3.org/Graphics/SVG/1.1/DTD/svg11.dtd">
<svg width="100%" height="100%" viewBox="0 0 256 256" version="1.1" xmlns="http://www.w3.org/2000/svg" xmlns:xlink="http://www.w3.org/1999/xlink" xml:space="preserve" xmlns:serif="http://www.serif.com/" style="fill-rule:evenodd;clip-rule:evenodd;stroke-linecap:round;stroke-linejoin:round;stroke-miterlimit:1.5;">
    <rect id="blobbee_nom_potato" x="-0" y="0" width="256" height="256" style="fill:none;"/>
    <clipPath id="_clip1">
        <rect x="-0" y="0" width="256" height="256"/>
    </clipPath>
    <g clip-path="url(#_clip1)">
        <path id="Wings-outline" serif:id="Wings outline" d="M129.457,58.622C101.62,61.336 70.004,40.1 56.583,4.516C41.238,-36.173 56.638,-76.434 86.987,-86.581C110.642,-94.49 139.399,-82.584 157.884,-57.352C184.732,-75.998 216.987,-78.343 237.979,-62.862C265.408,-42.634 267.488,3.28 238.398,39.552C209.763,75.256 163.808,85.14 136.809,65.23C134.11,63.239 131.659,61.028 129.457,58.622ZM135.756,41.946C138.246,46.295 141.562,50.097 145.712,53.157C167.403,69.154 203.691,58.853 226.696,30.168C249.701,1.483 250.768,-34.793 229.076,-50.79C209.154,-65.482 176.918,-57.99 153.969,-34.446C141.008,-63.006 114.034,-79.808 91.744,-72.355C68.16,-64.47 58.694,-32.397 70.618,-0.777C82.543,30.842 111.372,50.11 134.957,42.225C135.225,42.135 135.491,42.042 135.756,41.946Z"/>
        <path id="Body" d="M127.902,-10.896C208.729,-57.562 300.137,-52 331.897,1.516C363.657,55.033 323.82,136.368 242.993,183.034C162.165,229.7 70.758,224.138 38.998,170.622C7.237,117.105 47.074,35.77 127.902,-10.896Z" style="fill:rgb(254,194,7);"/>
        <g id="Stripes">
            <path d="M188.793,-28.912C187.039,-27.516 315.054,-33.396 327.076,96.986C391.095,-74.613 189.429,-41.838 188.793,-28.912Z" style="fill:rgb(85,85,85);"/>
            <path d="M327.076,98.342C319.401,-27.463 191.893,-30.431 192.59,-34.166L145.073,-16.568C145.073,-16.568 299.034,-18.959 304.518,129.287L323.15,100.603" style="fill:rgb(254,194,7);"/>
            <path d="M275.897,159.811L304.252,129.287C298.868,-19.148 141.84,-21.73 141.842,-21.675L116.671,-6.827C116.437,-6.784 279.066,6.291 275.897,159.811Z" style="fill:rgb(85,85,85);"/>
            <path d="M118.8,-6.713L91.65,14.469C91.65,14.469 247.73,30.009 246.071,181.519L275.383,161.871C286.256,11.587 117.148,-5.442 114.749,-3.553" style="fill:rgb(254,194,7);"/>
            <path d="M85.819,17.358L65.463,38.997C65.463,38.997 209.143,40.294 212.42,196.543L246.071,181.519C251.812,25.308 90.484,19.018 85.819,17.358Z" style="fill:rgb(85,85,85);"/>
        </g>
        <path id="Body-outline" serif:id="Body outline" d="M127.902,-10.896C208.729,-57.562 300.137,-52 331.897,1.516C363.657,55.033 323.82,136.368 242.993,183.034C162.165,229.7 70.758,224.138 38.998,170.622C7.237,117.105 47.074,35.77 127.902,-10.896Z" style="fill:none;stroke:black;stroke-width:15px;"/>
        <g id="Wings">
            <path id="Back-wing" serif:id="Back wing" d="M91.744,-72.355C115.328,-80.241 144.157,-60.972 156.082,-29.353C168.007,2.266 158.541,34.339 134.957,42.225C111.372,50.11 82.543,30.842 70.618,-0.777C58.694,-32.397 68.16,-64.47 91.744,-72.355Z" style="fill:rgb(167,167,167);"/>
            <path id="Front-wing" serif:id="Front wing" d="M229.076,-50.79C250.768,-34.793 249.701,1.483 226.696,30.168C203.691,58.853 167.403,69.154 145.712,53.157C124.02,37.161 125.087,0.885 148.092,-27.8C171.097,-56.485 207.385,-66.786 229.076,-50.79Z" style="fill:rgb(195,195,195);"/>
        </g>
        <g id="Face">
            <g id="Eyes">
                <path id="Right-eye" serif:id="Right eye" d="M141.384,111.243L141.384,119.189C141.384,127.536 134.608,134.313 126.26,134.313C117.913,134.313 111.136,127.536 111.136,119.189L111.136,111.243C111.136,102.895 117.913,96.118 126.26,96.118C134.608,96.118 141.384,102.895 141.384,111.243Z"/>
                <path id="Left-eye" serif:id="Left eye" d="M81.28,111.178L81.28,119.124C81.28,127.471 74.503,134.248 66.156,134.248C57.808,134.248 51.032,127.471 51.032,119.124L51.032,111.178C51.032,102.831 57.808,96.054 66.156,96.054C74.503,96.054 81.28,102.831 81.28,111.178Z"/>
            </g>
        </g>
        <g id="Eyes1" serif:id="Eyes">
            <g id="Right-eye1" serif:id="Right eye">
                <circle id="Eye-white" serif:id="Eye white" cx="127.189" cy="115.183" r="23.779" style="fill:white;"/>
                <circle id="Pupil" cx="124.127" cy="112.159" r="20.392"/>
                <path id="Eye-reflection-top" serif:id="Eye reflection top" d="M113.113,101.305C117.141,97.278 122.94,96.537 126.055,99.653C129.171,102.768 128.43,108.568 124.403,112.595C120.375,116.623 114.576,117.364 111.46,114.248C108.344,111.133 109.085,105.333 113.113,101.305Z" style="fill:white;"/>
                <path id="Eye-reflection-bottom" serif:id="Eye reflection bottom" d="M134.052,117.071C134.052,117.071 132.852,121.207 128.61,122.112" style="fill:none;stroke:rgb(151,151,151);stroke-width:8px;"/>
            </g>
            <g id="Left-eye1" serif:id="Left eye">
                <circle id="Eye-white1" serif:id="Eye white" cx="66.602" cy="115.183" r="23.779" style="fill:white;"/>
                <circle id="Pupil1" serif:id="Pupil" cx="63.541" cy="112.159" r="20.392"/>
                <path id="Eye-reflection-top1" serif:id="Eye reflection top" d="M52.526,101.305C56.554,97.278 62.354,96.537 65.469,99.653C68.585,102.768 67.844,108.568 63.816,112.595C59.789,116.623 53.989,117.364 50.874,114.248C47.758,111.133 48.499,105.333 52.526,101.305Z" style="fill:white;"/>
                <path id="Eye-reflection-bottom1" serif:id="Eye reflection bottom" d="M73.465,117.071C73.465,117.071 72.266,121.207 68.024,122.112" style="fill:none;stroke:rgb(151,151,151);stroke-width:8px;"/>
            </g>
        </g>
        <g id="Potato">
            <path id="Body1" serif:id="Body" d="M93.104,236.582C93.104,236.582 81.024,243.286 75.899,244.227C70.855,245.154 69.429,245.583 64.594,244.812C59.759,244.04 52.764,240.823 49.503,236.483C46.242,232.143 43.042,226.647 43.042,220.373C43.042,214.1 44.843,206.108 49.786,202.071C54.729,198.035 60.048,198.712 63.433,197.052C65.588,195.994 71.303,193.779 74.333,186.846C75.965,183.111 80.209,176.619 88.99,176.018C97.772,175.418 102.768,177.179 106.673,180.545C110.499,183.843 116.723,192.82 116.841,200.07C116.958,207.32 116.039,213.051 113.777,217.042C111.515,221.033 109.359,226.667 93.104,236.582Z" style="fill:rgb(184,136,90);"/>
            <path d="M97.956,245.326C97.956,245.326 83.709,252.96 77.705,254.063C71.155,255.266 69.296,255.688 63.018,254.687C56.083,253.58 46.187,248.717 41.509,242.491C37.059,236.569 33.042,228.934 33.042,220.373C33.042,211.35 36.352,200.132 43.461,194.326C47.313,191.18 51.266,189.769 54.962,188.923C56.489,188.573 57.937,188.609 59.028,188.074C60.193,187.502 63.532,186.588 65.17,182.841C67.73,176.982 74.53,166.983 88.309,166.042C100.74,165.192 107.674,168.206 113.202,172.971C118.45,177.494 126.678,189.964 126.839,199.908C126.992,209.364 125.427,216.769 122.477,221.973C119.816,226.668 117.433,233.456 98.311,245.12C98.194,245.191 98.076,245.26 97.956,245.326ZM93.104,236.582C109.359,226.667 111.515,221.033 113.777,217.042C116.039,213.051 116.958,207.32 116.841,200.07C116.723,192.82 110.499,183.843 106.673,180.545C102.768,177.179 97.772,175.418 88.99,176.018C80.209,176.619 75.965,183.111 74.333,186.846C71.303,193.779 65.588,195.994 63.433,197.052C60.048,198.712 54.729,198.035 49.786,202.071C44.843,206.108 43.042,214.1 43.042,220.373C43.042,226.647 46.242,232.143 49.503,236.483C52.764,240.823 59.759,244.04 64.594,244.812C69.429,245.583 70.855,245.154 75.899,244.227C81.024,243.286 93.104,236.582 93.104,236.582Z"/>
            <g id="Eyes2" serif:id="Eyes">
                <path d="M50.656,211.887C51.721,210.042 53.403,209.016 54.408,209.596C55.414,210.177 55.366,212.147 54.3,213.992C53.235,215.837 51.554,216.863 50.548,216.283C49.542,215.702 49.591,213.732 50.656,211.887Z" style="fill:rgb(135,91,82);"/>
                <path d="M67.985,233.115C69.217,233.827 69.903,234.95 69.515,235.622C69.127,236.294 67.812,236.261 66.579,235.55C65.347,234.838 64.661,233.715 65.049,233.043C65.437,232.372 66.752,232.404 67.985,233.115Z" style="fill:rgb(135,91,82);"/>
                <path d="M89.281,232.777C88.201,234.646 86.498,235.686 85.479,235.098C84.46,234.51 84.509,232.515 85.588,230.645C86.668,228.776 88.371,227.736 89.39,228.325C90.409,228.913 90.36,230.908 89.281,232.777Z" style="fill:rgb(135,91,82);"/>
                <path d="M107.985,201.617C108.018,198.473 109.435,195.935 111.149,195.953C112.863,195.97 114.228,198.537 114.195,201.681C114.163,204.825 112.745,207.363 111.031,207.346C109.318,207.328 107.953,204.761 107.985,201.617Z" style="fill:rgb(135,91,82);"/>
                <path d="M102.851,220.42C102.532,221.608 101.895,223.986 100.687,224.936C99.479,225.886 97.7,225.41 96.239,223.744C95.127,222.555 94.366,220.057 93.954,218.036C95.322,216.491 97.23,214.709 98.787,214.235C100.885,213.523 102.664,214 103.235,215.427C103.806,216.854 103.169,219.231 102.851,220.42Z" style="fill:rgb(135,91,82);"/>
                <path d="M65.189,202.249C65.53,201.402 66.213,199.71 67.188,199.119C68.162,198.528 69.429,199.039 70.354,200.396C71.066,201.372 71.401,203.279 71.523,204.804C70.377,205.817 68.813,206.958 67.624,207.167C66.016,207.502 64.749,206.991 64.457,205.889C64.165,204.788 64.847,203.095 65.189,202.249Z" style="fill:rgb(135,91,82);"/>
                <path d="M96.146,188.469C100.68,189.826 103.827,192.711 103.17,194.907C102.512,197.104 98.298,197.786 93.764,196.429C89.23,195.072 86.082,192.188 86.74,189.991C87.397,187.794 91.612,187.112 96.146,188.469Z" style="fill:rgb(135,91,82);"/>
            </g>
        </g>
        <path id="Mouth" d="M65.917,155.22L76.693,173.337L91.213,155.252L109.2,173.287L130.627,155.273" style="fill:none;stroke:black;stroke-width:10px;"/>
    </g>
</svg>
