<?xml version="1.0" encoding="UTF-8" standalone="no"?>
<!DOCTYPE svg PUBLIC "-//W3C//DTD SVG 1.1//EN" "http://www.w3.org/Graphics/SVG/1.1/DTD/svg11.dtd">
<svg width="100%" height="100%" viewBox="0 0 256 256" version="1.1" xmlns="http://www.w3.org/2000/svg" xmlns:xlink="http://www.w3.org/1999/xlink" xml:space="preserve" xmlns:serif="http://www.serif.com/" style="fill-rule:evenodd;clip-rule:evenodd;stroke-linecap:round;stroke-linejoin:round;stroke-miterlimit:1.5;">
    <g transform="matrix(1,0,0,1,-1686,-281)">
        <g id="blobbee_sob" transform="matrix(1,0,0,1,1686,281)">
            <rect x="0" y="0" width="256" height="256" style="fill:none;"/>
            <g id="Sting" transform="matrix(0.78314,0.139967,-0.135634,0.7589,67.2303,-21.11)">
                <path d="M189.771,56.854L238.765,34.355L235.05,81.388" style="fill:rgb(104,104,104);stroke:black;stroke-width:12.77px;"/>
            </g>
            <g id="Body" transform="matrix(0.994109,-0.573949,0.761422,1.28301,-120.17,92.6047)">
                <ellipse cx="168.926" cy="110.515" rx="107.942" ry="55.376" style="fill:rgb(104,104,104);stroke:black;stroke-width:7.47px;"/>
            </g>
            <g id="Wings-outline" serif:id="Wings outline" transform="matrix(0.959562,0.127262,-0.127262,0.959562,7.56883,-6.44254)">
                <g transform="matrix(1.17688,-0.575088,0.651434,1.21399,-55.8934,35.953)">
                    <path d="M87.433,14.046C105.289,14.046 121.064,31.835 121.064,54.906C121.064,78.317 104.954,96.336 86.833,96.336C68.977,96.336 53.202,78.546 53.202,55.475C53.202,32.064 69.312,14.046 87.433,14.046ZM87.133,21.55C72.762,21.55 61.095,36.624 61.095,55.191C61.095,73.758 72.762,88.832 87.133,88.832C101.504,88.832 113.171,73.758 113.171,55.191C113.171,36.624 101.504,21.55 87.133,21.55Z"/>
                </g>
                <g transform="matrix(1.24343,0.685066,-0.776012,1.28263,74.2693,-72.8119)">
                    <path d="M86.838,14.653C104.667,14.653 120.454,32.436 120.454,55.47C120.454,78.17 104.998,95.729 87.428,95.729C69.599,95.729 53.812,77.946 53.812,54.911C53.812,32.211 69.268,14.653 86.838,14.653ZM87.133,21.55C72.762,21.55 61.095,36.624 61.095,55.191C61.095,73.758 72.762,88.832 87.133,88.832C101.504,88.832 113.171,73.758 113.171,55.191C113.171,36.624 101.504,21.55 87.133,21.55Z"/>
                </g>
            </g>
            <g id="Stripes" transform="matrix(1,0,0,1,4.4273,10.012)">
                <g transform="matrix(1,-7.43708e-18,-7.43708e-18,1,92.3462,-63.8411)">
                    <path d="M37.588,107.021C36.302,108.044 130.102,103.736 138.911,199.269C185.818,73.536 38.054,97.55 37.588,107.021Z" style="fill:rgb(254,194,7);stroke:black;stroke-width:3px;"/>
                </g>
                <g transform="matrix(1,-7.43708e-18,-7.43708e-18,1,73.4912,-52.6421)">
                    <path d="M157.766,189.064C152.141,96.884 58.714,94.709 59.225,91.972L24.408,104.867C24.408,104.867 137.219,103.115 141.236,211.738L154.889,190.72" style="fill:rgb(104,104,104);stroke:black;stroke-width:3px;"/>
                </g>
                <g transform="matrix(1,-7.43708e-18,-7.43708e-18,1,55.5726,-39.8214)">
                    <path d="M138.184,221.282L158.96,198.917C155.015,90.156 39.958,88.264 39.959,88.304L21.516,99.184C21.345,99.215 140.506,108.796 138.184,221.282Z" style="fill:rgb(254,194,7);stroke:black;stroke-width:3px;"/>
                </g>
                <g transform="matrix(1,-7.43708e-18,-7.43708e-18,1,25.9786,-19.0024)">
                    <path d="M52.67,78.448L32.777,93.969C32.777,93.969 147.14,105.355 145.924,216.369L167.401,201.973C175.368,91.857 51.46,79.379 49.702,80.764" style="fill:rgb(104,104,104);stroke:black;stroke-width:3px;"/>
                </g>
                <g transform="matrix(1,-7.43708e-18,-7.43708e-18,1,-0.424026,-0.546032)">
                    <path d="M54.907,77.629L39.992,93.485C39.992,93.485 145.269,94.435 147.67,208.921L172.327,197.913C176.533,83.454 58.325,78.845 54.907,77.629Z" style="fill:rgb(254,194,7);stroke:black;stroke-width:3px;"/>
                </g>
            </g>
            <g id="Face" transform="matrix(1,0,0,1,-3.8947,1.36785)">
                <g id="Mouth" transform="matrix(0.5,0,0,0.5,20.2861,104.681)">
                    <g transform="matrix(0.953419,0,0,1.2746,1.7494,-44.8242)">
                        <path d="M182.56,185.912C182.56,168.546 163.712,154.448 140.497,154.448L107.034,154.448C83.525,154.448 64.438,168.725 64.438,186.31C64.438,196.371 75.358,204.539 88.808,204.539L157.658,204.539C171.402,204.539 182.56,196.193 182.56,185.912Z" style="fill:rgb(160,25,25);stroke:black;stroke-width:5.33px;"/>
                    </g>
                    <g transform="matrix(1.16266,0,0,1.39877,-27.4999,-76.9976)">
                        <clipPath id="_clip1">
                            <path d="M174.863,192.41C174.863,176.586 159.407,163.739 140.37,163.739L112.929,163.739C93.65,163.739 77.999,176.749 77.999,192.773C77.999,201.941 86.953,209.384 97.983,209.384L154.442,209.384C165.712,209.384 174.863,201.778 174.863,192.41Z"/>
                        </clipPath>
                        <g clip-path="url(#_clip1)">
                            <ellipse cx="154.234" cy="204.01" rx="33.925" ry="17.266" style="fill:rgb(245,169,184);stroke:black;stroke-width:4.67px;"/>
                        </g>
                    </g>
                </g>
                <g id="Left-eye" serif:id="Left eye" transform="matrix(1.4094,3.58608e-18,4.63135e-18,1.17963,-899.122,-821.962)">
                    <path d="M668.569,829.535C671.077,819.702 686.695,819.8 688.864,829.535" style="fill:none;stroke:black;stroke-width:8.46px;stroke-miterlimit:2;"/>
                    <path d="M668.569,829.535C671.077,819.702 686.695,819.8 688.864,829.535" style="fill:none;stroke:rgb(235,235,235);stroke-width:3.85px;"/>
                </g>
                <g id="Right-eye" serif:id="Right eye" transform="matrix(1.4094,3.58608e-18,4.63135e-18,1.17963,-852.568,-821.962)">
                    <path d="M668.569,829.535C671.077,819.702 686.695,819.8 688.864,829.535" style="fill:none;stroke:black;stroke-width:8.46px;stroke-miterlimit:2;"/>
                    <path d="M668.569,829.535C671.077,819.702 686.695,819.8 688.864,829.535" style="fill:none;stroke:rgb(235,235,235);stroke-width:3.85px;"/>
                </g>
            </g>
            <g id="Body-outline" serif:id="Body outline" transform="matrix(0.994109,-0.573949,0.761422,1.28301,-120.17,92.6047)">
                <ellipse cx="168.926" cy="110.515" rx="107.942" ry="55.376" style="fill:none;stroke:black;stroke-width:7.47px;"/>
            </g>
            <g id="Left-tears" serif:id="Left tears" transform="matrix(0.830698,0,0,1.19225,-1272.22,-857.216)">
                <path d="M1605.65,853.553C1605.65,849.841 1601.32,846.827 1595.99,846.827C1590.66,846.827 1586.34,849.841 1586.34,853.553L1586.34,902.919C1586.34,906.631 1590.66,909.645 1595.99,909.645C1601.32,909.645 1605.65,906.631 1605.65,902.919L1605.65,853.553Z" style="fill:rgb(91,206,250);fill-opacity:0.8;"/>
            </g>
            <g id="Right-tears" serif:id="Right tears" transform="matrix(0.828097,0,0,1.19225,-1221.52,-857.216)">
                <path d="M1605.65,853.532C1605.65,849.831 1601.32,846.827 1595.99,846.827C1590.66,846.827 1586.34,849.831 1586.34,853.532L1586.34,902.94C1586.34,906.641 1590.66,909.645 1595.99,909.645C1601.32,909.645 1605.65,906.641 1605.65,902.94L1605.65,853.532Z" style="fill:rgb(91,206,250);fill-opacity:0.8;"/>
            </g>
            <g id="Wings" transform="matrix(0.959562,0.127262,-0.127262,0.959562,7.56883,-6.44254)">
                <g id="Back-wing" serif:id="Back wing" transform="matrix(1.17688,-0.575088,0.651434,1.21399,-55.8934,35.953)">
                    <ellipse cx="87.133" cy="55.191" rx="26.038" ry="33.641" style="fill:rgb(195,195,195);stroke:black;stroke-width:2.26px;"/>
                </g>
                <g id="Front-wing" serif:id="Front wing" transform="matrix(0.946806,0,0,0.999012,5.86837,0.313874)">
                    <g id="Front-wing-main" serif:id="Front wing main" transform="matrix(1.31328,0.685743,-0.81961,1.2839,72.2439,-73.1981)">
                        <ellipse cx="87.133" cy="55.191" rx="26.038" ry="33.641" style="fill:rgb(195,195,195);stroke:black;stroke-width:2.17px;"/>
                    </g>
                    <path id="Front-wing-line" serif:id="Front wing line" d="M119.334,101.013C123.249,82.03 129.669,61.104 148.451,47.276" style="fill:none;stroke:black;stroke-width:3.18px;"/>
                </g>
            </g>
        </g>
    </g>
</svg>
