<?xml version="1.0" encoding="UTF-8" standalone="no"?>
<!DOCTYPE svg PUBLIC "-//W3C//DTD SVG 1.1//EN" "http://www.w3.org/Graphics/SVG/1.1/DTD/svg11.dtd">
<svg width="100%" height="100%" viewBox="0 0 256 256" version="1.1" xmlns="http://www.w3.org/2000/svg" xmlns:xlink="http://www.w3.org/1999/xlink" xml:space="preserve" xmlns:serif="http://www.serif.com/" style="fill-rule:evenodd;clip-rule:evenodd;stroke-linecap:round;stroke-linejoin:round;stroke-miterlimit:1.5;">
    <rect id="blobbee_cross_stitch" x="-0" y="0" width="256" height="256" style="fill:none;"/>
    <clipPath id="_clip1">
        <rect x="-0" y="0" width="256" height="256"/>
    </clipPath>
    <g clip-path="url(#_clip1)">
        <path id="Wings-outline" serif:id="Wings outline" d="M130.856,59.756C103.019,62.47 71.403,41.235 57.982,5.65C42.637,-35.039 58.037,-75.299 88.386,-85.447C112.041,-93.356 140.798,-81.45 159.283,-56.218C186.131,-74.864 218.386,-77.209 239.378,-61.728C266.807,-41.5 268.887,4.414 239.797,40.686C211.162,76.39 165.207,86.274 138.208,66.364C135.509,64.373 133.058,62.162 130.856,59.756ZM137.155,43.08C139.645,47.429 142.961,51.231 147.111,54.291C168.802,70.288 205.09,59.987 228.095,31.302C251.1,2.617 252.167,-33.659 230.475,-49.656C210.553,-64.348 178.317,-56.856 155.368,-33.312C142.407,-61.872 115.433,-78.674 93.143,-71.221C69.559,-63.336 60.093,-31.263 72.017,0.357C83.942,31.976 112.771,51.244 136.356,43.359C136.624,43.269 136.89,43.176 137.155,43.08Z"/>
        <path id="Body" d="M127.902,1.921C208.729,-44.745 300.137,-39.183 331.897,14.333C363.657,67.85 323.82,149.185 242.993,195.851C162.165,242.517 70.758,236.955 38.998,183.439C7.237,129.922 47.074,48.587 127.902,1.921Z" style="fill:rgb(254,194,7);"/>
        <g id="Stripes">
            <path d="M188.793,-16.095C187.039,-14.699 315.054,-20.58 327.076,109.803C391.095,-61.796 189.429,-29.021 188.793,-16.095Z" style="fill:rgb(85,85,85);"/>
            <path d="M327.076,111.159C319.401,-14.647 191.893,-17.614 192.59,-21.35L145.073,-3.751C145.073,-3.751 299.034,-6.142 304.518,142.104L323.15,113.42" style="fill:rgb(254,194,7);"/>
            <path d="M275.897,172.628L304.252,142.104C298.868,-6.332 141.84,-8.914 141.842,-8.859L116.671,5.99C116.437,6.032 279.066,19.108 275.897,172.628Z" style="fill:rgb(85,85,85);"/>
            <path d="M118.8,6.104L91.65,27.286C91.65,27.286 247.73,42.825 246.071,194.336L275.383,174.688C286.256,24.404 117.148,7.374 114.749,9.264" style="fill:rgb(254,194,7);"/>
            <path d="M85.819,30.174L65.463,51.814C65.463,51.814 209.143,53.111 212.42,209.36L246.071,194.336C251.812,38.125 90.484,31.835 85.819,30.174Z" style="fill:rgb(85,85,85);"/>
        </g>
        <path id="Body-outline" serif:id="Body outline" d="M127.902,1.921C208.729,-44.745 300.137,-39.183 331.897,14.333C363.657,67.85 323.82,149.185 242.993,195.851C162.165,242.517 70.758,236.955 38.998,183.439C7.237,129.922 47.074,48.587 127.902,1.921Z" style="fill:none;stroke:black;stroke-width:15px;"/>
        <g id="Wings">
            <path id="Back-wing" serif:id="Back wing" d="M93.143,-71.221C116.727,-79.107 145.556,-59.838 157.481,-28.219C169.406,3.4 159.94,35.473 136.356,43.359C112.771,51.244 83.942,31.976 72.017,0.357C60.093,-31.263 69.559,-63.336 93.143,-71.221Z" style="fill:rgb(167,167,167);"/>
            <path id="Front-wing" serif:id="Front wing" d="M230.475,-49.656C252.167,-33.659 251.1,2.617 228.095,31.302C205.09,59.987 168.802,70.288 147.111,54.291C125.419,38.295 126.486,2.019 149.491,-26.666C172.496,-55.351 208.784,-65.652 230.475,-49.656Z" style="fill:rgb(195,195,195);"/>
        </g>
        <g id="Eyes">
            <g id="Right-eye" serif:id="Right eye">
                <circle id="Eye-white" serif:id="Eye white" cx="127.189" cy="128" r="23.779" style="fill:white;"/>
                <circle id="Pupil" cx="124.127" cy="124.976" r="20.392"/>
                <path id="Eye-reflection-top" serif:id="Eye reflection top" d="M113.113,114.122C117.141,110.094 122.94,109.354 126.055,112.469C129.171,115.585 128.43,121.384 124.403,125.412C120.375,129.44 114.576,130.18 111.46,127.065C108.344,123.949 109.085,118.15 113.113,114.122Z" style="fill:white;"/>
                <path id="Eye-reflection-bottom" serif:id="Eye reflection bottom" d="M134.052,129.888C134.052,129.888 132.852,134.024 128.61,134.929" style="fill:none;stroke:rgb(151,151,151);stroke-width:8px;"/>
            </g>
            <g id="Left-eye" serif:id="Left eye">
                <circle id="Eye-white1" serif:id="Eye white" cx="66.602" cy="128" r="23.779" style="fill:white;"/>
                <circle id="Pupil1" serif:id="Pupil" cx="63.541" cy="124.976" r="20.392"/>
                <path id="Eye-reflection-top1" serif:id="Eye reflection top" d="M52.526,114.122C56.554,110.094 62.354,109.354 65.469,112.469C68.585,115.585 67.844,121.384 63.816,125.412C59.789,129.44 53.989,130.18 50.874,127.065C47.758,123.949 48.499,118.15 52.526,114.122Z" style="fill:white;"/>
                <path id="Eye-reflection-bottom1" serif:id="Eye reflection bottom" d="M73.465,129.888C73.465,129.888 72.266,134.024 68.024,134.929" style="fill:none;stroke:rgb(151,151,151);stroke-width:8px;"/>
            </g>
        </g>
        <g id="Bobbin">
            <path id="Outline" d="M63.09,163.326L63.09,163.026L56.468,163.026C49.545,163.026 43.924,157.406 43.924,150.483C43.924,143.56 49.545,137.939 56.468,137.939L137.89,137.939C144.813,137.939 150.434,143.56 150.434,150.483C150.434,157.406 144.813,163.026 137.89,163.026L133.062,163.026L133.062,163.198C133.64,163.517 134.031,164.131 134.031,164.836L134.031,220.916C134.031,221.621 133.64,222.236 133.062,222.554L133.062,222.856L137.89,222.856C144.813,222.856 150.434,228.476 150.434,235.4C150.434,242.323 144.813,247.943 137.89,247.943L56.468,247.943C49.545,247.943 43.924,242.323 43.924,235.4C43.924,228.476 49.545,222.856 56.468,222.856L63.09,222.856L63.09,222.426C62.624,222.086 62.322,221.536 62.322,220.916L62.322,164.836C62.322,164.216 62.624,163.666 63.09,163.326ZM97.179,141.319C92.17,141.319 88.103,145.386 88.103,150.395C88.103,155.404 92.17,159.471 97.179,159.471C102.188,159.471 106.255,155.404 106.255,150.395C106.255,145.386 102.188,141.319 97.179,141.319Z" style="fill:none;stroke:black;stroke-width:15px;stroke-linejoin:miter;stroke-miterlimit:5;"/>
            <path id="Bobbin1" serif:id="Bobbin" d="M63.09,163.026L56.468,163.026C49.545,163.026 43.924,157.406 43.924,150.483C43.924,143.56 49.545,137.939 56.468,137.939L137.89,137.939C144.813,137.939 150.434,143.56 150.434,150.483C150.434,157.406 144.813,163.026 137.89,163.026L133.062,163.026L133.062,222.856L137.89,222.856C144.813,222.856 150.434,228.476 150.434,235.4C150.434,242.323 144.813,247.943 137.89,247.943L56.468,247.943C49.545,247.943 43.924,242.323 43.924,235.4C43.924,228.476 49.545,222.856 56.468,222.856L63.09,222.856L63.09,163.026ZM97.179,141.319C92.17,141.319 88.103,145.386 88.103,150.395C88.103,155.404 92.17,159.471 97.179,159.471C102.188,159.471 106.255,155.404 106.255,150.395C106.255,145.386 102.188,141.319 97.179,141.319Z" style="fill:white;"/>
            <path id="Thread" d="M134.031,164.836L134.031,220.916C134.031,221.948 133.193,222.785 132.162,222.785L64.191,222.785C63.159,222.785 62.322,221.948 62.322,220.916L62.322,164.836C62.322,163.805 63.159,162.967 64.191,162.967L132.162,162.967C133.193,162.967 134.031,163.805 134.031,164.836Z" style="fill:rgb(131,54,13);"/>
            <path d="M123.485,152.701C123.485,153.564 123.186,154.301 122.589,154.91C121.991,155.519 121.255,155.907 120.379,156.072C119.93,156.155 119.409,156.196 118.818,156.196C117.576,156.196 116.523,155.96 115.659,155.487C114.583,154.895 114.045,154.032 114.045,152.896C114.045,151.642 114.743,150.589 116.139,149.738C115.121,149.04 114.613,148.235 114.613,147.324C114.613,146.283 115.062,145.432 115.961,144.769C116.766,144.166 117.712,143.864 118.8,143.864C119.474,143.864 120.125,144.027 120.752,144.352C121.379,144.678 121.888,145.118 122.278,145.674C122.408,145.603 122.491,145.568 122.526,145.568C122.751,145.568 122.932,145.654 123.068,145.825C123.204,145.997 123.272,146.201 123.272,146.437C123.272,147.041 122.905,147.626 122.172,148.194C121.793,148.49 121.16,148.856 120.273,149.294C122.414,149.992 123.485,151.128 123.485,152.701ZM121.284,147.147C120.823,146.402 120.51,145.946 120.344,145.781C119.965,145.414 119.451,145.231 118.8,145.231C118.126,145.231 117.534,145.396 117.026,145.727C116.446,146.118 116.156,146.632 116.156,147.271C116.156,147.638 116.411,147.981 116.919,148.3C117.381,148.596 117.801,148.744 118.179,148.744C118.416,148.744 118.942,148.525 119.758,148.087C120.504,147.685 121.012,147.372 121.284,147.147ZM121.834,152.914C121.834,152.228 121.391,151.654 120.504,151.193C120.078,150.98 119.327,150.725 118.25,150.43C118.191,150.406 118.09,150.382 117.948,150.359C117.061,150.903 116.547,151.234 116.405,151.352C115.861,151.802 115.589,152.316 115.589,152.896C115.589,153.606 115.979,154.138 116.76,154.493C117.339,154.753 118.037,154.883 118.853,154.883C119.611,154.883 120.261,154.747 120.805,154.475C121.491,154.12 121.834,153.6 121.834,152.914Z" style="fill-rule:nonzero;"/>
            <path d="M134.184,151.814C134.184,153.127 133.708,154.221 132.756,155.096C131.804,155.972 130.659,156.409 129.322,156.409C127.95,156.409 126.85,155.948 126.022,155.025C125.241,154.138 124.851,152.997 124.851,151.601C124.851,150.3 125.218,149.01 125.951,147.733C126.637,146.514 127.536,145.509 128.648,144.716C129.535,144.077 130.198,143.758 130.635,143.758C130.884,143.758 131.147,143.867 131.425,144.086C131.703,144.305 131.842,144.539 131.842,144.787C131.842,144.976 131.78,145.151 131.656,145.31C131.532,145.47 131.381,145.55 131.203,145.55C131.002,145.55 130.837,145.461 130.706,145.284C130.127,145.367 129.387,145.875 128.488,146.81C127.578,147.78 127.134,148.549 127.158,149.117L127.158,149.241C128.21,148.342 129.192,147.892 130.103,147.892C131.31,147.892 132.292,148.247 133.049,148.957C133.806,149.667 134.184,150.619 134.184,151.814ZM132.587,151.601C132.587,150.856 132.369,150.27 131.931,149.844C131.493,149.418 130.902,149.205 130.156,149.205C129.518,149.205 128.885,149.418 128.258,149.844C127.631,150.27 127.175,150.779 126.891,151.37C126.832,151.548 126.732,151.82 126.59,152.186C126.684,153.038 126.939,153.718 127.353,154.227C127.826,154.818 128.465,155.114 129.269,155.114C130.216,155.114 131.008,154.759 131.647,154.049C132.274,153.375 132.587,152.559 132.587,151.601Z" style="fill-rule:nonzero;"/>
            <path d="M145.15,152.701C145.15,153.564 144.851,154.301 144.254,154.91C143.657,155.519 142.92,155.907 142.045,156.072C141.595,156.155 141.075,156.196 140.483,156.196C139.241,156.196 138.189,155.96 137.325,155.487C136.249,154.895 135.71,154.032 135.71,152.896C135.71,151.642 136.408,150.589 137.804,149.738C136.787,149.04 136.278,148.235 136.278,147.324C136.278,146.283 136.728,145.432 137.627,144.769C138.431,144.166 139.377,143.864 140.466,143.864C141.14,143.864 141.791,144.027 142.418,144.352C143.045,144.678 143.553,145.118 143.944,145.674C144.074,145.603 144.156,145.568 144.192,145.568C144.417,145.568 144.597,145.654 144.733,145.825C144.869,145.997 144.937,146.201 144.937,146.437C144.937,147.041 144.571,147.626 143.837,148.194C143.459,148.49 142.826,148.856 141.938,149.294C144.08,149.992 145.15,151.128 145.15,152.701ZM142.95,147.147C142.489,146.402 142.175,145.946 142.009,145.781C141.631,145.414 141.116,145.231 140.466,145.231C139.791,145.231 139.2,145.396 138.691,145.727C138.112,146.118 137.822,146.632 137.822,147.271C137.822,147.638 138.076,147.981 138.585,148.3C139.046,148.596 139.466,148.744 139.845,148.744C140.081,148.744 140.608,148.525 141.424,148.087C142.169,147.685 142.678,147.372 142.95,147.147ZM143.5,152.914C143.5,152.228 143.056,151.654 142.169,151.193C141.743,150.98 140.992,150.725 139.916,150.43C139.857,150.406 139.756,150.382 139.614,150.359C138.727,150.903 138.212,151.234 138.07,151.352C137.526,151.802 137.254,152.316 137.254,152.896C137.254,153.606 137.644,154.138 138.425,154.493C139.005,154.753 139.703,154.883 140.519,154.883C141.276,154.883 141.927,154.747 142.471,154.475C143.157,154.12 143.5,153.6 143.5,152.914Z" style="fill-rule:nonzero;"/>
        </g>
        <g id="Left-hand" serif:id="Left hand">
            <path id="Outline1" serif:id="Outline" d="M31.899,188.359L12.007,208.251L38.689,234.932L58.58,215.04C65.943,207.677 65.943,195.722 58.58,188.359C51.217,180.996 39.262,180.996 31.899,188.359Z" style="fill:rgb(151,151,151);"/>
            <path d="M24.828,181.288C36.093,170.022 54.386,170.022 65.651,181.288C76.917,192.553 76.917,210.846 65.651,222.111L45.76,242.003C41.854,245.909 35.523,245.909 31.617,242.003L4.936,215.322C1.031,211.417 1.031,205.085 4.936,201.18L24.828,181.288ZM31.899,188.359L12.007,208.251L38.689,234.932L58.58,215.04C65.943,207.677 65.943,195.722 58.58,188.359C51.217,180.996 39.262,180.996 31.899,188.359Z"/>
            <path id="Fill" d="M31.899,188.359L4.926,215.332L31.607,242.013L58.58,215.04C65.943,207.677 65.943,195.722 58.58,188.359C51.217,180.996 39.262,180.996 31.899,188.359Z" style="fill:rgb(151,151,151);"/>
        </g>
        <path id="Right-arm" serif:id="Right arm" d="M158.906,239.434L134.294,215.013C126.926,207.645 126.926,195.682 134.294,188.314C141.662,180.947 153.625,180.947 160.993,188.314L175.221,202.543L191.221,186.543C196.227,181.537 204.355,181.537 209.361,186.543C214.367,191.549 214.367,199.677 209.361,204.683L175.728,238.316C171.14,242.904 163.922,243.277 158.906,239.434Z" style="fill:rgb(151,151,151);"/>
        <path d="M151.863,246.532L127.251,222.112C127.241,222.103 127.232,222.093 127.223,222.084C115.953,210.814 115.953,192.514 127.223,181.243C138.493,169.973 156.793,169.973 168.064,181.243C168.064,181.243 175.221,188.401 175.221,188.401L184.15,179.472C193.059,170.564 207.524,170.564 216.432,179.472C225.341,188.38 225.341,202.846 216.432,211.754L182.799,245.387C174.623,253.563 161.761,254.22 152.824,247.371C152.486,247.113 152.165,246.832 151.863,246.532ZM158.906,239.434C163.922,243.277 171.14,242.904 175.728,238.316L209.361,204.683C214.367,199.677 214.367,191.549 209.361,186.543C204.355,181.537 196.227,181.537 191.221,186.543L175.221,202.543L160.993,188.314C153.625,180.947 141.662,180.947 134.294,188.314C126.926,195.682 126.926,207.645 134.294,215.013L158.906,239.434Z"/>
    </g>
</svg>
