<?xml version="1.0" encoding="UTF-8" standalone="no"?>
<!DOCTYPE svg PUBLIC "-//W3C//DTD SVG 1.1//EN" "http://www.w3.org/Graphics/SVG/1.1/DTD/svg11.dtd">
<svg width="100%" height="100%" viewBox="0 0 256 256" version="1.1" xmlns="http://www.w3.org/2000/svg" xmlns:xlink="http://www.w3.org/1999/xlink" xml:space="preserve" xmlns:serif="http://www.serif.com/" style="fill-rule:evenodd;clip-rule:evenodd;stroke-linecap:round;stroke-linejoin:round;stroke-miterlimit:1.5;">
    <rect id="blobbee_megaphone" x="-0" y="0" width="256" height="256" style="fill:none;"/>
    <clipPath id="_clip1">
        <rect x="-0" y="0" width="256" height="256"/>
    </clipPath>
    <g clip-path="url(#_clip1)">
        <path id="Right-arm" serif:id="Right arm" d="M181.56,227.907L201.524,207.242C208.892,199.875 213.07,191.452 205.702,184.084C198.334,176.717 189.251,182.242 181.884,189.61L172.303,200.083L156.303,184.082C151.297,179.077 143.169,179.077 138.163,184.082C133.158,189.088 133.158,197.216 138.163,202.222L164.738,226.789C169.327,231.377 176.545,231.75 181.56,227.907Z" style="fill:rgb(151,151,151);"/>
        <path d="M187.643,235.844C178.758,242.652 165.994,242.043 157.827,234.018L131.375,209.565C131.279,209.477 131.185,209.386 131.092,209.293C122.184,200.385 122.184,185.92 131.092,177.011C140.001,168.103 154.466,168.103 163.374,177.011L171.982,185.619L174.505,182.86C174.605,182.751 174.708,182.644 174.813,182.539C186.372,170.98 201.214,165.454 212.773,177.013C224.503,188.744 220.362,202.512 208.659,214.249L188.752,234.855C188.408,235.212 188.037,235.542 187.643,235.844ZM181.56,227.907L201.524,207.242C208.892,199.875 213.07,191.452 205.702,184.084C198.334,176.717 189.251,182.242 181.884,189.61L172.303,200.083L156.303,184.082C151.297,179.077 143.169,179.077 138.163,184.082C133.158,189.088 133.158,197.216 138.163,202.222L164.738,226.789C169.327,231.377 176.545,231.75 181.56,227.907Z"/>
        <g id="Bee">
            <path id="Wings-outline" serif:id="Wings outline" d="M54.391,74.458C52.188,76.864 49.738,79.075 47.039,81.066C20.04,100.976 -25.916,91.092 -54.55,55.388C-83.64,19.116 -81.56,-26.798 -54.132,-47.026C-33.14,-62.507 -0.885,-60.162 25.964,-41.516C44.448,-66.748 73.206,-78.654 96.86,-70.745C127.209,-60.598 142.609,-20.337 127.264,20.352C113.844,55.936 82.227,77.172 54.391,74.458ZM48.092,57.782C48.356,57.878 48.623,57.971 48.891,58.06C72.475,65.946 101.304,46.678 113.229,15.058C125.154,-16.561 115.688,-48.634 92.104,-56.519C69.814,-63.972 42.839,-47.17 29.878,-18.61C6.93,-42.154 -25.306,-49.646 -45.229,-34.954C-66.92,-18.957 -65.854,17.319 -42.848,46.003C-19.843,74.688 16.445,84.99 38.136,68.993C42.285,65.933 45.602,62.131 48.092,57.782Z"/>
            <path id="Body" d="M55.946,4.94C-24.882,-41.726 -116.289,-36.164 -148.049,17.352C-179.81,70.869 -139.973,152.204 -59.145,198.87C21.683,245.536 113.09,239.974 144.85,186.458C176.61,132.941 136.774,51.606 55.946,4.94Z" style="fill:rgb(254,194,7);"/>
            <g id="Stripes">
                <path d="M-143.229,114.178C-135.553,-11.628 -8.045,-14.595 -8.742,-18.33L38.775,-0.732C38.775,-0.732 -115.187,-3.123 -120.67,145.123L-139.302,116.439" style="fill:rgb(254,194,7);"/>
                <path d="M-92.049,175.647L-120.404,145.123C-115.02,-3.312 42.007,-5.894 42.006,-5.839L67.177,9.009C67.411,9.052 -95.219,22.127 -92.049,175.647Z" style="fill:rgb(85,85,85);"/>
                <path d="M65.048,9.123L92.197,30.305C92.197,30.305 -63.883,45.845 -62.224,197.355L-91.535,177.707C-102.408,27.423 66.699,10.393 69.098,12.283" style="fill:rgb(254,194,7);"/>
                <path d="M98.029,33.193L118.385,54.833C118.385,54.833 -25.295,56.13 -28.572,212.379L-62.224,197.355C-67.965,41.144 93.364,34.854 98.029,33.193Z" style="fill:rgb(85,85,85);"/>
            </g>
            <path id="Body-outline" serif:id="Body outline" d="M55.946,4.94C-24.882,-41.726 -116.289,-36.164 -148.049,17.352C-179.81,70.869 -139.973,152.204 -59.145,198.87C21.683,245.536 113.09,239.974 144.85,186.458C176.61,132.941 136.774,51.606 55.946,4.94Z" style="fill:none;stroke:black;stroke-width:15px;"/>
            <g id="Wings">
                <path id="Back-wing" serif:id="Back wing" d="M92.104,-56.519C68.519,-64.405 39.69,-45.136 27.765,-13.517C15.84,18.102 25.306,50.175 48.891,58.06C72.475,65.946 101.304,46.678 113.229,15.058C125.154,-16.561 115.688,-48.634 92.104,-56.519Z" style="fill:rgb(167,167,167);"/>
                <path id="Front-wing" serif:id="Front wing" d="M-45.229,-34.954C-66.92,-18.957 -65.854,17.319 -42.848,46.003C-19.843,74.688 16.445,84.99 38.136,68.993C59.827,52.997 58.761,16.721 35.756,-11.964C12.751,-40.649 -23.537,-50.95 -45.229,-34.954Z" style="fill:rgb(195,195,195);"/>
            </g>
            <g id="Face">
                <g id="Mouth">
                    <path id="Mouth-backgorund" serif:id="Mouth backgorund" d="M120.958,173.795C120.958,187.079 110.173,197.864 96.889,197.864L77.741,197.864C64.288,197.864 53.367,186.943 53.367,173.49C53.367,165.794 59.615,159.545 67.312,159.545L106.708,159.545C114.573,159.545 120.958,165.93 120.958,173.795Z" style="fill:rgb(160,25,25);"/>
                    <path id="Mouth-backgorund1" serif:id="Mouth backgorund" d="M90.365,197.864C91.124,196.444 91.535,194.928 91.535,193.353C91.535,185.353 80.928,178.858 67.863,178.858C62.98,178.858 58.441,179.765 54.67,181.319C57.832,190.923 66.881,197.864 77.538,197.864L90.365,197.864Z" style="fill:rgb(216,72,72);"/>
                </g>
                <g id="Eyes">
                    <path id="Right-eye" serif:id="Right eye" d="M133.935,122.83L133.935,130.776C133.935,139.123 127.158,145.9 118.81,145.9C110.463,145.9 103.686,139.123 103.686,130.776L103.686,122.83C103.686,114.482 110.463,107.705 118.81,107.705C127.158,107.705 133.935,114.482 133.935,122.83Z"/>
                    <path id="Left-eye" serif:id="Left eye" d="M73.83,122.765L73.83,130.711C73.83,139.058 67.053,145.835 58.706,145.835C50.359,145.835 43.582,139.058 43.582,130.711L43.582,122.765C43.582,114.418 50.359,107.641 58.706,107.641C67.053,107.641 73.83,114.418 73.83,122.765Z"/>
                </g>
            </g>
        </g>
        <g id="Megaphone">
            <path id="Outline" d="M158.547,190.975C157.458,192.18 156.198,193.174 154.802,193.953C151.357,195.876 147.221,196.416 142.739,195.113C137.108,193.476 130.1,187.994 125.379,179.537C120.659,171.081 119.671,162.237 121.234,156.585C122.478,152.087 125.108,148.85 128.553,146.927C130.119,146.053 131.827,145.465 133.644,145.206C133.644,145.206 184.331,93.364 184.33,93.365C186.071,89.02 188.883,85.881 192.383,83.928C197.226,81.225 203.427,80.826 210.325,83.726C219.956,87.777 232.307,99.71 241.615,116.386C250.923,133.062 254.597,149.838 252.989,160.162C251.837,167.555 248.243,172.624 243.4,175.328C240.166,177.132 236.403,177.9 232.235,177.389L158.547,190.975ZM152.39,181.942L232.155,167.235C234.559,167.78 236.724,167.601 238.526,166.596C246.8,161.977 244.272,141.663 232.883,121.26C221.495,100.857 205.531,88.041 197.257,92.66C195.211,93.802 193.825,95.903 193.071,98.728L137.721,155.34C136.13,154.899 134.653,154.974 133.427,155.659C129.251,157.99 129.558,166.505 134.111,174.663C138.665,182.821 145.752,187.552 149.928,185.221C151.1,184.567 151.919,183.426 152.39,181.942Z"/>
            <path id="Mouthpiece" d="M133.427,155.659C137.602,153.328 144.69,158.059 149.243,166.217C153.797,174.375 154.104,182.891 149.928,185.221C145.752,187.552 138.665,182.821 134.111,174.663C129.558,166.505 129.251,157.99 133.427,155.659Z" style="fill:rgb(227,227,227);"/>
            <path id="Body1" serif:id="Body" d="M137.541,155.523L197.748,93.945L238.256,166.11L151.469,182.111C141.652,180.276 134.074,162.709 137.541,155.523Z" style="fill:rgb(255,92,92);"/>
            <path id="Outer-ring" serif:id="Outer ring" d="M197.257,92.66C205.531,88.041 221.495,100.857 232.883,121.26C244.272,141.663 246.8,161.977 238.526,166.596C230.251,171.214 214.288,158.399 202.899,137.996C191.511,117.593 188.982,97.278 197.257,92.66Z" style="fill:rgb(227,227,227);"/>
            <path id="Inside" d="M203.005,98.224C208.499,95.157 220.564,106.293 229.931,123.075C239.298,139.857 242.444,155.971 236.95,159.037C231.457,162.104 219.392,150.968 210.024,134.186C200.657,117.404 197.512,101.29 203.005,98.224Z" style="fill:rgb(42,42,42);"/>
        </g>
    </g>
</svg>
