<?xml version="1.0" encoding="UTF-8" standalone="no"?>
<!DOCTYPE svg PUBLIC "-//W3C//DTD SVG 1.1//EN" "http://www.w3.org/Graphics/SVG/1.1/DTD/svg11.dtd">
<svg width="100%" height="100%" viewBox="0 0 256 256" version="1.1" xmlns="http://www.w3.org/2000/svg" xmlns:xlink="http://www.w3.org/1999/xlink" xml:space="preserve" xmlns:serif="http://www.serif.com/" style="fill-rule:evenodd;clip-rule:evenodd;stroke-linecap:round;stroke-linejoin:round;stroke-miterlimit:1.5;">
    <rect id="blobbee_knife" x="0" y="0" width="256" height="256" style="fill:none;"/>
    <clipPath id="_clip1">
        <rect x="0" y="0" width="256" height="256"/>
    </clipPath>
    <g clip-path="url(#_clip1)">
        <path id="Wings-outline" serif:id="Wings outline" d="M156.902,59.708C129.065,62.422 97.449,41.187 84.028,5.602C68.683,-35.087 84.083,-75.347 114.432,-85.495C138.087,-93.404 166.844,-81.498 185.329,-56.266C212.177,-74.912 244.432,-77.257 265.424,-61.776C292.853,-41.548 294.933,4.366 265.843,40.638C237.208,76.342 191.253,86.226 164.254,66.316C161.555,64.325 159.104,62.114 156.902,59.708ZM163.201,43.032C165.691,47.381 169.007,51.183 173.157,54.243C194.848,70.24 231.136,59.939 254.141,31.254C277.146,2.569 278.213,-33.707 256.521,-49.704C236.599,-64.396 204.363,-56.904 181.414,-33.36C168.453,-61.92 141.479,-78.722 119.189,-71.269C95.605,-63.383 86.139,-31.311 98.063,0.309C109.988,31.928 138.817,51.196 162.402,43.311C162.67,43.221 162.936,43.128 163.201,43.032Z"/>
        <path id="Body" d="M153.948,1.873C234.775,-44.793 326.183,-39.231 357.943,14.285C389.703,67.802 349.866,149.137 269.039,195.803C188.211,242.469 96.804,236.907 65.044,183.391C33.283,129.874 73.12,48.539 153.948,1.873Z" style="fill:rgb(254,194,7);"/>
        <g id="Stripes">
            <path d="M214.839,-16.143C213.085,-14.747 341.1,-20.628 353.122,109.755C417.141,-61.844 215.475,-29.069 214.839,-16.143Z" style="fill:rgb(85,85,85);"/>
            <path d="M353.122,111.111C345.447,-14.695 217.939,-17.662 218.636,-21.398L171.119,-3.799C171.119,-3.799 325.08,-6.19 330.564,142.056L349.196,113.372" style="fill:rgb(254,194,7);"/>
            <path d="M301.943,172.58L330.298,142.056C324.914,-6.379 167.886,-8.962 167.888,-8.907L142.717,5.942C142.483,5.984 305.112,19.06 301.943,172.58Z" style="fill:rgb(85,85,85);"/>
            <path d="M144.846,6.056L117.696,27.238C117.696,27.238 273.776,42.777 272.117,194.288L301.428,174.64C312.302,24.356 143.194,7.326 140.795,9.216" style="fill:rgb(254,194,7);"/>
            <path d="M111.865,30.126L91.509,51.766C91.509,51.766 235.189,53.063 238.466,209.312L272.117,194.288C277.858,38.077 116.53,31.787 111.865,30.126Z" style="fill:rgb(85,85,85);"/>
        </g>
        <path id="Body-outline" serif:id="Body outline" d="M153.948,1.873C234.775,-44.793 326.183,-39.231 357.943,14.285C389.703,67.802 349.866,149.137 269.039,195.803C188.211,242.469 96.804,236.907 65.044,183.391C33.283,129.874 73.12,48.539 153.948,1.873Z" style="fill:none;stroke:black;stroke-width:15px;"/>
        <g id="Wings">
            <path id="Back-wing" serif:id="Back wing" d="M119.189,-71.269C142.773,-79.155 171.602,-59.886 183.527,-28.267C195.452,3.352 185.986,35.425 162.402,43.311C138.817,51.196 109.988,31.928 98.063,0.309C86.139,-31.311 95.605,-63.383 119.189,-71.269Z" style="fill:rgb(167,167,167);"/>
            <path id="Front-wing" serif:id="Front wing" d="M256.521,-49.704C278.213,-33.707 277.146,2.569 254.141,31.254C231.136,59.939 194.848,70.24 173.157,54.243C151.465,38.247 152.532,1.971 175.537,-26.714C198.542,-55.399 234.83,-65.7 256.521,-49.704Z" style="fill:rgb(195,195,195);"/>
        </g>
        <g id="Face">
            <path id="Mouth" d="M95.645,168.037L106.421,186.154L120.941,168.069L138.928,186.104L160.355,168.09" style="fill:none;stroke:black;stroke-width:10px;"/>
            <g id="Eyes">
                <path id="Right-eye" serif:id="Right eye" d="M137.528,125.371L137.528,128.807C137.528,138.626 145.499,146.597 155.317,146.597C165.135,146.597 173.106,138.626 173.106,128.807L173.106,121.184C173.106,118.282 172.409,115.54 171.174,113.119L137.528,125.371Z"/>
                <path id="Left-eye" serif:id="Left eye" d="M78.353,113.307C77.258,115.662 76.647,118.286 76.647,121.052L76.647,128.94C76.647,139.1 84.896,147.348 95.055,147.348C105.215,147.348 113.463,139.1 113.463,128.94L113.463,126.15L78.353,113.307Z"/>
            </g>
        </g>
        <g id="Knife">
            <path id="Knife-blade" serif:id="Knife blade" d="M31.303,42.043L67.165,157.081C67.165,157.081 61.512,167.698 63.588,173.088C60.554,174.325 25.895,184.431 25.895,184.431C25.895,184.431 20.37,183.856 20.508,175.338C20.596,169.952 12.715,68.313 31.303,42.043Z" style="fill:rgb(185,185,185);"/>
            <path d="M73.158,170.188C74.648,175.087 72.178,180.385 67.363,182.348C64.249,183.617 28.694,194.031 28.694,194.031C27.45,194.394 26.147,194.511 24.858,194.377C24.858,194.377 20.605,194.185 16.518,190.563C13.763,188.122 10.37,183.777 10.51,175.176C10.571,171.371 6.742,119.966 10.844,80.371C12.801,61.474 16.872,45.124 23.14,36.267C25.337,33.161 29.107,31.572 32.864,32.166C36.622,32.76 39.717,35.435 40.85,39.067L76.712,154.105C77.508,156.657 77.249,159.421 75.992,161.781L73.158,170.188ZM31.303,42.043C12.715,68.313 20.596,169.952 20.508,175.338C20.37,183.856 25.895,184.431 25.895,184.431C25.895,184.431 60.554,174.325 63.588,173.088C61.512,167.698 67.165,157.081 67.165,157.081L31.303,42.043Z"/>
            <path id="Knife-handle" serif:id="Knife handle" d="M72.13,158.245C72.13,158.245 73.071,155.437 76.075,174.653C77.198,181.837 84.396,184.882 87.982,186.692C89.024,188.871 98.904,230.42 98.904,230.42C98.904,230.42 98.999,243.624 88.824,242.305C78.65,240.985 71.739,239.577 68.636,231.819C66.986,227.696 66.601,221.433 67.678,217.446C68.755,213.459 66.137,202.045 63.778,196.311C61.42,190.576 54.009,180.433 52.238,175.014C49.47,166.544 52.476,165.547 52.476,165.547L72.13,158.245Z" style="fill:rgb(31,30,30);stroke:black;stroke-width:10px;"/>
        </g>
        <path id="Right-arm" serif:id="Right arm" d="M192.501,245.734L105.745,235.426C95.436,233.911 88.172,226.244 89.686,215.936C91.201,205.627 100.323,200.053 110.632,201.568L182.974,209.895L186.864,184.01C187.893,177.005 194.415,172.154 201.419,173.183C208.424,174.212 213.275,180.734 212.246,187.739L205.332,234.798C204.389,241.218 198.819,245.825 192.501,245.734Z" style="fill:rgb(151,151,151);"/>
        <path d="M191.321,255.664L104.565,245.356C104.473,245.345 104.382,245.333 104.291,245.32C88.214,242.958 77.43,230.559 79.792,214.482C82.142,198.49 95.946,189.378 111.917,191.649C111.917,191.649 174.521,198.856 174.521,198.856C174.521,198.856 176.975,182.525 176.975,182.525C178.821,170.077 190.419,161.46 202.873,163.29C215.338,165.121 223.971,176.727 222.139,189.192L215.226,236.251C213.545,247.691 203.616,255.894 192.358,255.733C192.012,255.728 191.666,255.705 191.321,255.664ZM192.501,245.734C198.819,245.825 204.389,241.218 205.332,234.798L212.246,187.739C213.275,180.734 208.424,174.212 201.419,173.183C194.415,172.154 187.893,177.005 186.864,184.01L182.974,209.895L110.632,201.568C100.323,200.053 91.201,205.627 89.686,215.936C88.172,226.244 95.436,233.911 105.745,235.426L192.501,245.734Z"/>
    </g>
</svg>
