<?xml version="1.0" encoding="UTF-8" standalone="no"?>
<!DOCTYPE svg PUBLIC "-//W3C//DTD SVG 1.1//EN" "http://www.w3.org/Graphics/SVG/1.1/DTD/svg11.dtd">
<svg width="100%" height="100%" viewBox="0 0 256 256" version="1.1" xmlns="http://www.w3.org/2000/svg" xmlns:xlink="http://www.w3.org/1999/xlink" xml:space="preserve" xmlns:serif="http://www.serif.com/" style="fill-rule:evenodd;clip-rule:evenodd;stroke-linecap:round;stroke-linejoin:round;stroke-miterlimit:1.5;">
    <g transform="matrix(1,0,0,1,-1124,-1967)">
        <g id="blobbee_cowboy" transform="matrix(1,0,0,1,1124,1967)">
            <rect x="0" y="0" width="256" height="256" style="fill:none;"/>
            <g id="Hat-outline" serif:id="Hat outline" transform="matrix(-0.0146353,-1.54961,1.91668,0.000657732,-99.4621,227.972)">
                <path d="M92.46,60.778C93.073,59.572 92.758,58.181 91.653,57.217C90.548,56.253 88.855,55.893 87.32,56.294C71.057,60.642 58.9,77.862 58.9,98.416C58.9,119.026 71.124,136.284 87.452,140.58C88.988,140.975 90.659,140.619 91.741,139.666C92.823,138.714 93.122,137.336 92.506,136.131C87.858,126.223 84.445,112.787 84.445,98.416C84.445,84.083 87.84,70.681 92.46,60.778Z" style="fill:none;stroke:black;stroke-width:5.77px;"/>
            </g>
            <g id="Bee" transform="matrix(0.94772,0,0,0.94772,12.6607,12.759)">
                <g id="Sting" transform="matrix(0.78314,0.139967,-0.135634,0.7589,67.2303,-21.11)">
                    <path d="M189.771,56.854L238.765,34.355L235.05,81.388" style="fill:rgb(104,104,104);stroke:black;stroke-width:13.47px;"/>
                </g>
                <g id="Body" transform="matrix(0.994109,-0.573949,0.761422,1.28301,-120.17,92.6047)">
                    <ellipse cx="168.926" cy="110.515" rx="107.942" ry="55.376" style="fill:rgb(104,104,104);stroke:black;stroke-width:7.88px;"/>
                </g>
                <g id="Wings-outline" serif:id="Wings outline" transform="matrix(0.959562,0.127262,-0.127262,0.959562,7.56883,-6.44254)">
                    <g transform="matrix(1.17688,-0.575088,0.651434,1.21399,-55.8934,35.953)">
                        <path d="M87.449,13.632C105.498,13.632 121.499,31.571 121.499,54.89C121.499,78.569 105.145,96.75 86.817,96.75C68.768,96.75 52.767,78.811 52.767,55.491C52.767,31.812 69.121,13.632 87.449,13.632ZM87.133,21.55C72.762,21.55 61.095,36.624 61.095,55.191C61.095,73.758 72.762,88.832 87.133,88.832C101.504,88.832 113.171,73.758 113.171,55.191C113.171,36.624 101.504,21.55 87.133,21.55Z"/>
                    </g>
                    <g transform="matrix(1.24343,0.685066,-0.776012,1.28263,74.2693,-72.8119)">
                        <path d="M86.822,14.272C104.841,14.272 120.856,32.204 120.856,55.485C120.856,78.414 105.191,96.109 87.444,96.109C69.424,96.109 53.41,78.177 53.41,54.896C53.41,31.967 69.075,14.272 86.822,14.272ZM87.133,21.55C72.762,21.55 61.095,36.624 61.095,55.191C61.095,73.758 72.762,88.832 87.133,88.832C101.504,88.832 113.171,73.758 113.171,55.191C113.171,36.624 101.504,21.55 87.133,21.55Z"/>
                    </g>
                </g>
                <g id="Stripes" transform="matrix(1,0,0,1,4.4273,10.012)">
                    <g transform="matrix(1,-7.43708e-18,-7.43708e-18,1,92.3462,-63.8411)">
                        <path d="M37.588,107.021C36.302,108.044 130.102,103.736 138.911,199.269C185.818,73.536 38.054,97.55 37.588,107.021Z" style="fill:rgb(254,194,7);stroke:black;stroke-width:3.17px;"/>
                    </g>
                    <g transform="matrix(1,-7.43708e-18,-7.43708e-18,1,73.4912,-52.6421)">
                        <path d="M157.766,189.064C152.141,96.884 58.714,94.709 59.225,91.972L24.408,104.867C24.408,104.867 137.219,103.115 141.236,211.738L154.889,190.72" style="fill:rgb(104,104,104);stroke:black;stroke-width:3.17px;"/>
                    </g>
                    <g transform="matrix(1,-7.43708e-18,-7.43708e-18,1,55.5726,-39.8214)">
                        <path d="M138.184,221.282L158.96,198.917C155.015,90.156 39.958,88.264 39.959,88.304L21.516,99.184C21.345,99.215 140.506,108.796 138.184,221.282Z" style="fill:rgb(254,194,7);stroke:black;stroke-width:3.17px;"/>
                    </g>
                    <g transform="matrix(1,-7.43708e-18,-7.43708e-18,1,25.9786,-19.0024)">
                        <path d="M52.67,78.448L32.777,93.969C32.777,93.969 147.14,105.355 145.924,216.369L167.401,201.973C175.368,91.857 51.46,79.379 49.702,80.764" style="fill:rgb(104,104,104);stroke:black;stroke-width:3.17px;"/>
                    </g>
                    <g transform="matrix(1,-7.43708e-18,-7.43708e-18,1,-0.424026,-0.546032)">
                        <path d="M54.907,77.629L39.992,93.485C39.992,93.485 145.269,94.435 147.67,208.921L172.327,197.913C176.533,83.454 58.325,78.845 54.907,77.629Z" style="fill:rgb(254,194,7);stroke:black;stroke-width:3.17px;"/>
                    </g>
                </g>
                <g id="Body-outline" serif:id="Body outline" transform="matrix(0.994109,-0.573949,0.761422,1.28301,-120.17,92.6047)">
                    <ellipse cx="168.926" cy="110.515" rx="107.942" ry="55.376" style="fill:none;stroke:black;stroke-width:7.88px;"/>
                </g>
                <g id="Wings" transform="matrix(0.959562,0.127262,-0.127262,0.959562,7.56883,-6.44254)">
                    <g id="Back-wing" serif:id="Back wing" transform="matrix(1.17688,-0.575088,0.651434,1.21399,-55.8934,35.953)">
                        <ellipse cx="87.133" cy="55.191" rx="26.038" ry="33.641" style="fill:rgb(195,195,195);stroke:black;stroke-width:2.39px;"/>
                    </g>
                    <g id="Front-wing" serif:id="Front wing" transform="matrix(0.946806,0,0,0.999012,5.86837,0.313874)">
                        <g id="Front-wing-main" serif:id="Front wing main" transform="matrix(1.31328,0.685743,-0.81961,1.2839,72.2439,-73.1981)">
                            <ellipse cx="87.133" cy="55.191" rx="26.038" ry="33.641" style="fill:rgb(195,195,195);stroke:black;stroke-width:2.29px;"/>
                        </g>
                        <path id="Front-wing-line" serif:id="Front wing line" d="M119.334,101.013C123.249,82.03 129.669,61.104 148.451,47.276" style="fill:none;stroke:black;stroke-width:3.36px;"/>
                    </g>
                </g>
                <g id="Face" transform="matrix(1,0,0,1,-3.8947,1.36785)">
                    <g id="Mouth" transform="matrix(0.658566,-1.17246e-18,-3.87825e-17,0.848272,3.90699,42.2986)">
                        <path d="M79.429,171.352L92.31,191.237L108.219,172.744L128,191.722L152.351,171.648" style="fill:none;stroke:black;stroke-width:15.28px;stroke-miterlimit:2;"/>
                        <path d="M79.429,171.352L92.31,191.237L108.219,172.744L128,191.722L152.351,171.648" style="fill:none;stroke:rgb(235,235,235);stroke-width:6.95px;"/>
                    </g>
                    <g id="Eyes" transform="matrix(0.856324,0.124954,-0.124954,0.856324,35.143,7.15355)">
                        <g id="Right-eye" serif:id="Right eye" transform="matrix(1.56791,-0.228787,0.215752,1.47858,-150.38,17.2361)">
                            <path d="M154.615,113.255C154.615,107.493 150.203,102.815 144.77,102.815C139.336,102.815 134.924,107.493 134.924,113.255L134.924,120.6C134.924,126.362 139.336,131.04 144.77,131.04C150.203,131.04 154.615,126.362 154.615,120.6L154.615,113.255Z" style="fill:rgb(235,235,235);stroke:black;stroke-width:2.38px;"/>
                        </g>
                        <g id="Right-eye1" serif:id="Right eye" transform="matrix(0.639006,-0.0932429,0.104024,0.712889,-4.68472,94.5194)">
                            <path d="M154.615,111.64C154.615,106.77 150.203,102.815 144.77,102.815C139.336,102.815 134.924,106.77 134.924,111.64L134.924,122.216C134.924,127.086 139.336,131.04 144.77,131.04C150.203,131.04 154.615,127.086 154.615,122.216L154.615,111.64Z"/>
                        </g>
                        <g id="Left-eye" serif:id="Left eye" transform="matrix(1.56791,-0.228787,0.215752,1.47858,-201.077,24.6337)">
                            <path d="M154.615,113.255C154.615,107.493 150.203,102.815 144.77,102.815C139.336,102.815 134.924,107.493 134.924,113.255L134.924,120.6C134.924,126.362 139.336,131.04 144.77,131.04C150.203,131.04 154.615,126.362 154.615,120.6L154.615,113.255Z" style="fill:rgb(235,235,235);stroke:black;stroke-width:2.38px;"/>
                        </g>
                        <g id="Right-eye2" serif:id="Right eye" transform="matrix(0.639006,-0.0932429,0.104024,0.712889,-55.3816,101.917)">
                            <path d="M154.615,111.64C154.615,106.77 150.203,102.815 144.77,102.815C139.336,102.815 134.924,106.77 134.924,111.64L134.924,122.216C134.924,127.086 139.336,131.04 144.77,131.04C150.203,131.04 154.615,127.086 154.615,122.216L154.615,111.64Z"/>
                        </g>
                    </g>
                </g>
            </g>
            <g id="Hat" transform="matrix(1.46695,-0.127272,0.135145,1.5577,-114.051,-51.1469)">
                <g transform="matrix(0.0810613,-0.988185,1.29677,0.106375,-6.51352,178.654)">
                    <path d="M92.46,60.778C93.073,59.572 92.758,58.181 91.653,57.217C90.548,56.253 88.855,55.893 87.32,56.294C71.057,60.642 58.9,77.862 58.9,98.416C58.9,119.026 71.124,136.284 87.452,140.58C88.988,140.975 90.659,140.619 91.741,139.666C92.823,138.714 93.122,137.336 92.506,136.131C87.858,126.223 84.445,112.787 84.445,98.416C84.445,84.083 87.84,70.681 92.46,60.778Z" style="fill:rgb(98,70,12);stroke:black;stroke-width:1.73px;"/>
                </g>
                <g transform="matrix(0.0310958,-0.379075,0.511931,0.041994,74.7918,138.233)">
                    <path d="M93.4,58.845C93.828,58.054 93.662,57.138 92.969,56.465C92.275,55.791 91.168,55.471 90.092,55.633C72.465,58.713 58.9,76.704 58.9,98.416C58.9,120.165 72.511,138.18 90.193,141.171C91.244,141.327 92.313,141.018 92.977,140.367C93.641,139.715 93.794,138.827 93.374,138.053C88.32,127.98 84.445,113.729 84.445,98.416C84.445,83.127 88.308,68.898 93.4,58.845Z" style="fill:rgb(126,95,27);"/>
                </g>
                <path d="M103.352,104.98C103.352,104.98 104.39,98.024 107.548,92.703C110.583,87.587 112.366,82.366 117.91,82.67C121.829,82.886 122.511,83.527 124.766,85.869C127.021,88.211 126.971,90.627 129.688,90.675C132.405,90.724 133.955,89.209 134.712,87.799C135.469,86.389 137.702,85.488 140.22,85.586C142.738,85.683 144.606,87.707 146.189,89.463C147.773,91.219 150.527,101.464 150.205,109.808C148.674,109.945 127.861,115.055 103.352,104.98Z" style="fill:rgb(98,70,12);stroke:black;stroke-width:1.98px;"/>
                <g transform="matrix(0.753644,0,0,0.728345,30.0085,26.7164)">
                    <path d="M103.352,104.98C103.352,104.98 104.39,98.024 107.548,92.703C110.583,87.587 112.366,82.366 117.91,82.67C121.829,82.886 122.353,85.496 124.608,87.838C126.863,90.179 129.491,92.806 132.208,92.855C134.925,92.903 138.387,91.367 139.144,89.956C139.901,88.546 142.292,85.677 144.81,85.774C147.328,85.872 149.196,87.895 150.779,89.652C152.363,91.408 155.117,101.653 154.795,109.997C153.264,110.134 127.861,115.055 103.352,104.98Z" style="fill:rgb(126,95,27);"/>
                </g>
            </g>
        </g>
    </g>
</svg>
