<?xml version="1.0" encoding="UTF-8" standalone="no"?>
<!DOCTYPE svg PUBLIC "-//W3C//DTD SVG 1.1//EN" "http://www.w3.org/Graphics/SVG/1.1/DTD/svg11.dtd">
<svg width="100%" height="100%" viewBox="0 0 256 256" version="1.1" xmlns="http://www.w3.org/2000/svg" xmlns:xlink="http://www.w3.org/1999/xlink" xml:space="preserve" xmlns:serif="http://www.serif.com/" style="fill-rule:evenodd;clip-rule:evenodd;stroke-linecap:round;stroke-linejoin:round;stroke-miterlimit:1.5;">
    <rect id="blobbee_laptop" x="0" y="0" width="256" height="256" style="fill:none;"/>
    <clipPath id="_clip1">
        <rect x="0" y="0" width="256" height="256"/>
    </clipPath>
    <g clip-path="url(#_clip1)">
        <path id="Wings-outline" serif:id="Wings outline" d="M155.626,57.997C131.363,59.686 104.101,41.302 92.473,10.47C78.913,-25.486 92.894,-60.938 119.712,-69.905C140.077,-76.714 164.833,-67.064 181.209,-45.972C204.524,-61.278 232.078,-62.73 250.132,-49.416C274.313,-31.583 276.553,8.893 250.907,40.871C225.717,72.28 185.201,80.62 161.449,63.104C159.339,61.548 157.398,59.84 155.626,57.997ZM161.888,41.5C164.005,45.198 166.824,48.43 170.352,51.032C188.794,64.632 219.646,55.874 239.205,31.486C258.764,7.098 259.671,-23.744 241.229,-37.344C224.291,-49.835 196.884,-43.466 177.373,-23.449C166.353,-47.73 143.42,-62.015 124.469,-55.679C104.417,-48.974 96.369,-21.706 106.508,5.177C116.646,32.059 141.157,48.441 161.208,41.737C161.436,41.661 161.663,41.582 161.888,41.5Z"/>
        <path id="Body" d="M154.021,6.507C222.741,-33.169 300.455,-28.44 327.458,17.06C354.46,62.559 320.591,131.711 251.871,171.386C183.152,211.062 105.437,206.333 78.434,160.833C51.432,115.334 85.301,46.182 154.021,6.507Z" style="fill:rgb(254,194,7);"/>
        <g id="Stripes">
            <path d="M205.791,-8.811C204.299,-7.624 313.138,-12.623 323.36,98.228C377.789,-47.665 206.332,-19.8 205.791,-8.811Z" style="fill:rgb(85,85,85);"/>
            <path d="M323.36,99.381C316.834,-7.579 208.426,-10.102 209.019,-13.278L168.62,1.684C168.62,1.684 299.518,-0.348 304.18,125.69L320.021,101.303" style="fill:rgb(254,194,7);"/>
            <path d="M279.847,151.642L303.954,125.69C299.376,-0.51 165.872,-2.705 165.873,-2.658L144.472,9.966C144.273,10.002 282.541,21.119 279.847,151.642Z" style="fill:rgb(85,85,85);"/>
            <path d="M146.282,10.063L123.2,28.072C123.2,28.072 255.899,41.284 254.489,170.098L279.409,153.394C288.654,25.622 144.878,11.143 142.839,12.749" style="fill:rgb(254,194,7);"/>
            <path d="M118.242,30.528L100.935,48.926C100.935,48.926 223.092,50.028 225.878,182.872L254.489,170.098C259.37,37.287 122.208,31.939 118.242,30.528Z" style="fill:rgb(85,85,85);"/>
        </g>
        <path id="Body-outline" serif:id="Body outline" d="M154.021,6.507C222.741,-33.169 300.455,-28.44 327.458,17.06C354.46,62.559 320.591,131.711 251.871,171.386C183.152,211.062 105.437,206.333 78.434,160.833C51.432,115.334 85.301,46.182 154.021,6.507Z" style="fill:none;stroke:black;stroke-width:15px;"/>
        <g id="Wings">
            <path id="Back-wing" serif:id="Back wing" d="M124.469,-55.679C144.52,-62.383 169.031,-46.001 179.169,-19.119C189.308,7.764 181.26,35.033 161.208,41.737C141.157,48.441 116.646,32.059 106.508,5.177C96.369,-21.706 104.417,-48.974 124.469,-55.679Z" style="fill:rgb(167,167,167);"/>
            <path id="Front-wing" serif:id="Front wing" d="M241.229,-37.344C259.671,-23.744 258.764,7.098 239.205,31.486C219.646,55.874 188.794,64.632 170.352,51.032C151.91,37.432 152.817,6.59 172.376,-17.798C191.935,-42.186 222.787,-50.944 241.229,-37.344Z" style="fill:rgb(195,195,195);"/>
        </g>
        <g id="Face">
            <g id="Eyes">
                <path id="Right-eye" serif:id="Right eye" d="M168.804,120.77L168.804,127.526C168.804,134.622 163.042,140.384 155.945,140.384C148.849,140.384 143.087,134.622 143.087,127.526L143.087,120.77C143.087,113.673 148.849,107.911 155.945,107.911C163.042,107.911 168.804,113.673 168.804,120.77Z"/>
                <path id="Left-eye" serif:id="Left eye" d="M117.703,120.715L117.703,127.471C117.703,134.567 111.941,140.329 104.844,140.329C97.747,140.329 91.986,134.567 91.986,127.471L91.986,120.715C91.986,113.618 97.747,107.856 104.844,107.856C111.941,107.856 117.703,113.618 117.703,120.715Z"/>
            </g>
        </g>
        <g id="Laptop">
            <path d="M154.798,151.911L10.438,151.911L33.092,242.911L177.452,242.911L154.798,151.911Z" style="fill:rgb(185,185,185);"/>
            <path d="M175.714,204.937L182.447,231.067L215.126,208.713C215.126,208.713 212.822,205.182 205.922,205.035C202.196,204.956 175.714,204.937 175.714,204.937Z" style="fill:rgb(185,185,185);"/>
            <path d="M10.488,152.114C10.488,152.114 12.123,144.41 19.931,144.384C27.74,144.359 155.395,144.577 155.395,144.577C155.395,144.577 161.037,145.264 162.608,152.114C164.179,158.964 182.559,230.73 182.559,230.73L215.126,208.712C215.126,208.712 218.308,215.154 213.454,218.333C208.599,221.512 177.162,242.911 177.162,242.911L154.88,152.114L10.488,152.114Z" style="fill:rgb(144,144,144);"/>
            <path d="M87.655,184.602L102.887,192.216L106.978,207.444L95.835,215.057L80.603,207.444L76.512,192.216L87.655,184.602Z" style="fill:none;stroke:black;stroke-width:11px;stroke-linecap:butt;stroke-miterlimit:2;"/>
            <path d="M87.655,184.602L102.887,192.216L106.978,207.444L95.835,215.057L80.603,207.444L76.512,192.216L87.655,184.602Z" style="fill:none;stroke:white;stroke-width:5px;"/>
        </g>
        <path id="Laptop-outline" serif:id="Laptop outline" d="M177.721,252.647C177.548,252.818 177.452,252.911 177.452,252.911L33.092,252.911C28.5,252.911 24.498,249.784 23.388,245.327L0.734,154.327C1.843,158.783 5.845,161.911 10.438,161.911C7.369,161.88 4.481,160.441 2.609,158.005C0.716,155.541 0.076,152.339 0.875,149.337C1.527,146.89 5.721,134.43 19.899,134.384C27.711,134.359 155.413,134.577 155.413,134.577C155.811,134.578 156.208,134.602 156.603,134.65C156.603,134.65 169.056,135.492 172.355,149.879C173.184,153.496 178.724,175.296 183.742,194.972C191.83,195.007 203.474,195.053 205.848,195.035C218.078,194.945 223.127,202.714 223.127,202.714C223.534,203.257 223.885,203.841 224.174,204.456C224.174,204.456 226.352,209.108 226.074,214.157C225.824,218.685 223.987,223.388 218.932,226.699C214.35,229.7 185.979,249.007 183.036,251.01L177.721,252.647ZM10.538,151.911L10.438,151.911L33.092,242.911L177.452,242.911L177.41,242.743C180.365,240.732 208.852,221.347 213.454,218.333C218.192,215.23 215.126,208.713 215.126,208.713C215.126,208.713 212.333,204.988 205.922,205.035C202.409,205.061 178.668,204.948 175.965,204.938C170.524,183.625 163.549,156.218 162.608,152.114C161.037,145.264 155.395,144.577 155.395,144.577C155.395,144.577 27.74,144.359 19.931,144.384C12.879,144.407 10.863,150.694 10.538,151.911ZM157.074,161.057L154.848,152.114L154.88,152.114L157.074,161.057Z"/>
    </g>
</svg>
