<?xml version="1.0" encoding="UTF-8" standalone="no"?>
<!DOCTYPE svg PUBLIC "-//W3C//DTD SVG 1.1//EN" "http://www.w3.org/Graphics/SVG/1.1/DTD/svg11.dtd">
<svg width="100%" height="100%" viewBox="0 0 256 256" version="1.1" xmlns="http://www.w3.org/2000/svg" xmlns:xlink="http://www.w3.org/1999/xlink" xml:space="preserve" xmlns:serif="http://www.serif.com/" style="fill-rule:evenodd;clip-rule:evenodd;stroke-linecap:round;stroke-linejoin:round;stroke-miterlimit:1.5;">
    <rect id="blobbee_neurodiverse" x="0" y="0" width="256" height="256" style="fill:none;"/>
    <clipPath id="_clip1">
        <rect x="0" y="0" width="256" height="256"/>
    </clipPath>
    <g clip-path="url(#_clip1)">
        <path id="Wings-outline" serif:id="Wings outline" d="M130.856,59.756C103.019,62.47 71.403,41.235 57.982,5.65C42.637,-35.039 58.037,-75.299 88.386,-85.447C112.041,-93.356 140.798,-81.45 159.283,-56.218C186.131,-74.864 218.386,-77.209 239.378,-61.728C266.807,-41.5 268.887,4.414 239.797,40.686C211.162,76.39 165.207,86.274 138.208,66.364C135.509,64.373 133.058,62.162 130.856,59.756ZM137.155,43.08C139.645,47.429 142.961,51.231 147.111,54.291C168.802,70.288 205.09,59.987 228.095,31.302C251.1,2.617 252.167,-33.659 230.475,-49.656C210.553,-64.348 178.317,-56.856 155.368,-33.312C142.407,-61.872 115.433,-78.674 93.143,-71.221C69.559,-63.336 60.093,-31.263 72.017,0.357C83.942,31.976 112.771,51.244 136.356,43.359C136.624,43.269 136.89,43.176 137.155,43.08Z"/>
        <path id="Body" d="M127.902,1.921C208.729,-44.745 300.137,-39.183 331.897,14.333C363.657,67.85 323.82,149.185 242.993,195.851C162.165,242.517 70.758,236.955 38.998,183.439C7.237,129.922 47.074,48.587 127.902,1.921Z" style="fill:rgb(254,194,7);"/>
        <g id="Stripes">
            <path d="M188.793,-16.095C187.039,-14.699 315.054,-20.58 327.076,109.803C391.095,-61.796 189.429,-29.021 188.793,-16.095Z" style="fill:rgb(85,85,85);"/>
            <path d="M327.076,111.159C319.401,-14.647 191.893,-17.614 192.59,-21.35L145.073,-3.751C145.073,-3.751 299.034,-6.142 304.518,142.104L323.15,113.42" style="fill:rgb(254,194,7);"/>
            <path d="M275.897,172.628L304.252,142.104C298.868,-6.332 141.84,-8.914 141.842,-8.859L116.671,5.99C116.437,6.032 279.066,19.108 275.897,172.628Z" style="fill:rgb(85,85,85);"/>
            <path d="M118.8,6.104L91.65,27.286C91.65,27.286 247.73,42.825 246.071,194.336L275.383,174.688C286.256,24.404 117.148,7.374 114.749,9.264" style="fill:rgb(254,194,7);"/>
            <path d="M85.819,30.174L65.463,51.814C65.463,51.814 209.143,53.111 212.42,209.36L246.071,194.336C251.812,38.125 90.484,31.835 85.819,30.174Z" style="fill:rgb(85,85,85);"/>
        </g>
        <path id="Body-outline" serif:id="Body outline" d="M127.902,1.921C208.729,-44.745 300.137,-39.183 331.897,14.333C363.657,67.85 323.82,149.185 242.993,195.851C162.165,242.517 70.758,236.955 38.998,183.439C7.237,129.922 47.074,48.587 127.902,1.921Z" style="fill:none;stroke:black;stroke-width:15px;"/>
        <g id="Wings">
            <path id="Back-wing" serif:id="Back wing" d="M93.143,-71.221C116.727,-79.107 145.556,-59.838 157.481,-28.219C169.406,3.4 159.94,35.473 136.356,43.359C112.771,51.244 83.942,31.976 72.017,0.357C60.093,-31.263 69.559,-63.336 93.143,-71.221Z" style="fill:rgb(167,167,167);"/>
            <path id="Front-wing" serif:id="Front wing" d="M230.475,-49.656C252.167,-33.659 251.1,2.617 228.095,31.302C205.09,59.987 168.802,70.288 147.111,54.291C125.419,38.295 126.486,2.019 149.491,-26.666C172.496,-55.351 208.784,-65.652 230.475,-49.656Z" style="fill:rgb(195,195,195);"/>
        </g>
        <g id="Eyes">
            <g id="Right-eye" serif:id="Right eye">
                <circle id="Eye-white" serif:id="Eye white" cx="127.189" cy="128" r="23.779" style="fill:white;"/>
                <circle id="Pupil" cx="124.127" cy="124.976" r="20.392"/>
                <path id="Eye-reflection-top" serif:id="Eye reflection top" d="M113.113,114.122C117.141,110.094 122.94,109.354 126.055,112.469C129.171,115.585 128.43,121.384 124.403,125.412C120.375,129.44 114.576,130.18 111.46,127.065C108.344,123.949 109.085,118.15 113.113,114.122Z" style="fill:white;"/>
                <path id="Eye-reflection-bottom" serif:id="Eye reflection bottom" d="M134.052,129.888C134.052,129.888 132.852,134.024 128.61,134.929" style="fill:none;stroke:rgb(151,151,151);stroke-width:8px;"/>
            </g>
            <g id="Left-eye" serif:id="Left eye">
                <circle id="Eye-white1" serif:id="Eye white" cx="66.602" cy="128" r="23.779" style="fill:white;"/>
                <circle id="Pupil1" serif:id="Pupil" cx="63.541" cy="124.976" r="20.392"/>
                <path id="Eye-reflection-top1" serif:id="Eye reflection top" d="M52.526,114.122C56.554,110.094 62.354,109.354 65.469,112.469C68.585,115.585 67.844,121.384 63.816,125.412C59.789,129.44 53.989,130.18 50.874,127.065C47.758,123.949 48.499,118.15 52.526,114.122Z" style="fill:white;"/>
                <path id="Eye-reflection-bottom1" serif:id="Eye reflection bottom" d="M73.465,129.888C73.465,129.888 72.266,134.024 68.024,134.929" style="fill:none;stroke:rgb(151,151,151);stroke-width:8px;"/>
            </g>
        </g>
        <path id="Infinity" d="M96.094,155.227C96.094,155.227 111.926,132.755 136.834,132.846C161.386,132.936 173.459,150.991 173.969,167.628C174.482,184.386 160.701,204.236 136.732,203.693C112.756,203.15 104.038,190.006 96.132,181.065C93.093,183.763 80.225,204.149 54.089,203.332C28.836,202.543 18.618,185.407 18.244,167.641C17.86,149.407 33.143,133.514 54.507,132.981C76.556,132.432 89.922,149.036 96.094,155.227ZM85.394,168.274C85.394,168.274 71.657,148.432 53.258,149.173C42.608,149.602 35.068,158.945 34.699,168.275C34.322,177.8 45.549,187.296 53.377,187.216C75.459,186.991 83.027,170.391 85.394,168.274ZM106.441,168.542C108.807,170.659 120.031,187.423 137.984,187.216C145.811,187.126 157.038,177.8 156.661,168.275C156.292,158.945 148.76,149.029 138.103,149.173C118.783,149.435 106.441,168.542 106.441,168.542Z" style="fill:url(#_Linear2);"/>
        <path d="M95.78,140.783C104.038,132.989 118.393,122.778 136.871,122.846C168.128,122.96 183.316,146.141 183.964,167.322C184.621,188.771 167.184,214.386 136.505,213.691C115.277,213.21 104.093,204.595 95.897,195.892C88.199,203.518 74.485,213.974 53.777,213.327C41.07,212.93 31.459,209.036 24.387,203.324C13.627,194.634 8.532,181.452 8.246,167.852C7.754,144.491 26.888,123.667 54.257,122.984C73.307,122.509 87.022,132.588 95.78,140.783ZM96.094,155.227C89.922,149.036 76.556,132.432 54.507,132.981C33.143,133.514 17.86,149.407 18.244,167.641C18.618,185.407 28.836,202.543 54.089,203.332C80.225,204.149 93.093,183.763 96.132,181.065C104.038,190.006 112.756,203.15 136.732,203.693C160.701,204.236 174.482,184.386 173.969,167.628C173.459,150.991 161.386,132.936 136.834,132.846C111.926,132.755 96.094,155.227 96.094,155.227ZM85.394,168.274C83.027,170.391 75.459,186.991 53.377,187.216C45.549,187.296 34.322,177.8 34.699,168.275C35.068,158.945 42.608,149.602 53.258,149.173C71.657,148.432 85.394,168.274 85.394,168.274ZM72.49,168.573C70.917,167.014 68.992,165.315 66.781,163.767C63.16,161.231 58.702,158.962 53.661,159.165C48.435,159.376 44.873,164.092 44.691,168.67C44.61,170.735 46.232,172.56 47.852,174.101C49.555,175.72 51.493,177.235 53.275,177.217C63.116,177.116 68.99,172.507 72.49,168.573ZM106.441,168.542C106.441,168.542 118.783,149.435 138.103,149.173C148.76,149.029 156.292,158.945 156.661,168.275C157.038,177.8 145.811,187.126 137.984,187.216C120.031,187.423 108.807,170.659 106.441,168.542ZM119.574,168.144C119.821,168.389 120.074,168.637 120.333,168.887C124.265,172.675 130.12,177.306 137.868,177.217C139.718,177.196 141.763,175.686 143.53,174.016C145.135,172.499 146.75,170.715 146.669,168.67C146.493,164.221 143.32,159.104 138.238,159.172C130.046,159.283 123.606,164.051 119.574,168.144Z"/>
        <g id="Left-hand" serif:id="Left hand">
            <path id="Outline" d="M31.899,188.359L12.007,208.251L38.689,234.932L58.58,215.04C65.943,207.677 65.943,195.722 58.58,188.359C51.217,180.996 39.262,180.996 31.899,188.359Z" style="fill:rgb(151,151,151);"/>
            <path d="M24.828,181.288C36.093,170.022 54.386,170.022 65.651,181.288C76.917,192.553 76.917,210.846 65.651,222.111L45.76,242.003C41.854,245.909 35.523,245.909 31.617,242.003L4.936,215.322C1.031,211.417 1.031,205.085 4.936,201.18L24.828,181.288ZM31.899,188.359L12.007,208.251L38.689,234.932L58.58,215.04C65.943,207.677 65.943,195.722 58.58,188.359C51.217,180.996 39.262,180.996 31.899,188.359Z"/>
            <path id="Fill" d="M31.899,188.359L4.926,215.332L31.607,242.013L58.58,215.04C65.943,207.677 65.943,195.722 58.58,188.359C51.217,180.996 39.262,180.996 31.899,188.359Z" style="fill:rgb(151,151,151);"/>
        </g>
        <path id="Right-arm" serif:id="Right arm" d="M158.906,239.434L134.294,215.013C126.926,207.645 126.926,195.682 134.294,188.314C141.662,180.947 153.625,180.947 160.993,188.314L175.221,202.543L191.221,186.543C196.227,181.537 204.355,181.537 209.361,186.543C214.367,191.549 214.367,199.677 209.361,204.683L175.728,238.316C171.14,242.904 163.922,243.277 158.906,239.434Z" style="fill:rgb(151,151,151);"/>
        <path d="M151.863,246.532L127.251,222.112C127.241,222.103 127.232,222.093 127.223,222.084C115.953,210.814 115.953,192.514 127.223,181.243C138.493,169.973 156.793,169.973 168.064,181.243C168.064,181.243 175.221,188.401 175.221,188.401L184.15,179.472C193.059,170.564 207.524,170.564 216.432,179.472C225.341,188.38 225.341,202.846 216.432,211.754L182.799,245.387C174.623,253.563 161.761,254.22 152.824,247.371C152.486,247.113 152.165,246.832 151.863,246.532ZM158.906,239.434C163.922,243.277 171.14,242.904 175.728,238.316L209.361,204.683C214.367,199.677 214.367,191.549 209.361,186.543C204.355,181.537 196.227,181.537 191.221,186.543L175.221,202.543L160.993,188.314C153.625,180.947 141.662,180.947 134.294,188.314C126.926,195.682 126.926,207.645 134.294,215.013L158.906,239.434Z"/>
    </g>
    <defs>
        <linearGradient id="_Linear2" x1="0" y1="0" x2="1" y2="0" gradientUnits="userSpaceOnUse" gradientTransform="matrix(155.746,0,0,155.746,18.2367,168.275)"><stop offset="0" style="stop-color:rgb(255,68,109);stop-opacity:1"/><stop offset="0.2" style="stop-color:rgb(255,155,50);stop-opacity:1"/><stop offset="0.4" style="stop-color:rgb(255,213,63);stop-opacity:1"/><stop offset="0.6" style="stop-color:rgb(161,222,28);stop-opacity:1"/><stop offset="0.8" style="stop-color:rgb(35,193,234);stop-opacity:1"/><stop offset="1" style="stop-color:rgb(157,139,236);stop-opacity:1"/></linearGradient>
    </defs>
</svg>
