<?xml version="1.0" encoding="UTF-8" standalone="no"?>
<!DOCTYPE svg PUBLIC "-//W3C//DTD SVG 1.1//EN" "http://www.w3.org/Graphics/SVG/1.1/DTD/svg11.dtd">
<svg width="100%" height="100%" viewBox="0 0 256 256" version="1.1" xmlns="http://www.w3.org/2000/svg" xmlns:xlink="http://www.w3.org/1999/xlink" xml:space="preserve" xmlns:serif="http://www.serif.com/" style="fill-rule:evenodd;clip-rule:evenodd;stroke-linecap:round;stroke-linejoin:round;stroke-miterlimit:1.5;">
    <rect id="blobbee_hmph" x="0" y="0" width="256" height="256" style="fill:none;"/>
    <clipPath id="_clip1">
        <rect x="0" y="0" width="256" height="256"/>
    </clipPath>
    <g clip-path="url(#_clip1)">
        <path id="Wings-outline" serif:id="Wings outline" d="M129.457,71.439C101.62,74.152 70.004,52.917 56.583,17.332C41.238,-23.356 56.638,-63.617 86.987,-73.764C110.642,-81.673 139.399,-69.767 157.884,-44.535C184.732,-63.181 216.987,-65.526 237.979,-50.045C265.408,-29.818 267.488,16.097 238.398,52.369C209.763,88.073 163.808,97.957 136.809,78.046C134.11,76.056 131.659,73.845 129.457,71.439ZM135.756,54.763C138.246,59.112 141.562,62.914 145.712,65.974C167.403,81.971 203.691,71.669 226.696,42.984C249.701,14.299 250.768,-21.976 229.076,-37.973C209.154,-52.665 176.918,-45.173 153.969,-21.629C141.008,-50.189 114.034,-66.991 91.744,-59.538C68.16,-51.653 58.694,-19.58 70.618,12.039C82.543,43.658 111.372,62.927 134.957,55.041C135.225,54.952 135.491,54.859 135.756,54.763Z"/>
        <path id="Body" d="M127.902,1.921C208.729,-44.745 300.137,-39.183 331.897,14.333C363.657,67.85 323.82,149.185 242.993,195.851C162.165,242.517 70.758,236.955 38.998,183.439C7.237,129.922 47.074,48.587 127.902,1.921Z" style="fill:rgb(254,194,7);"/>
        <g id="Stripes">
            <path d="M188.793,-16.095C187.039,-14.699 315.054,-20.58 327.076,109.803C391.095,-61.796 189.429,-29.021 188.793,-16.095Z" style="fill:rgb(85,85,85);"/>
            <path d="M327.076,111.159C319.401,-14.647 191.893,-17.614 192.59,-21.35L145.073,-3.751C145.073,-3.751 299.034,-6.142 304.518,142.104L323.15,113.42" style="fill:rgb(254,194,7);"/>
            <path d="M275.897,172.628L304.252,142.104C298.868,-6.332 141.84,-8.914 141.842,-8.859L116.671,5.99C116.437,6.032 279.066,19.108 275.897,172.628Z" style="fill:rgb(85,85,85);"/>
            <path d="M118.8,6.104L91.65,27.286C91.65,27.286 247.73,42.825 246.071,194.336L275.383,174.688C286.256,24.404 117.148,7.374 114.749,9.264" style="fill:rgb(254,194,7);"/>
            <path d="M85.819,30.174L65.463,51.814C65.463,51.814 209.143,53.111 212.42,209.36L246.071,194.336C251.812,38.125 90.484,31.835 85.819,30.174Z" style="fill:rgb(85,85,85);"/>
        </g>
        <path id="Body-outline" serif:id="Body outline" d="M127.902,1.921C208.729,-44.745 300.137,-39.183 331.897,14.333C363.657,67.85 323.82,149.185 242.993,195.851C162.165,242.517 70.758,236.955 38.998,183.439C7.237,129.922 47.074,48.587 127.902,1.921Z" style="fill:none;stroke:black;stroke-width:15px;"/>
        <g id="Wings">
            <path id="Back-wing" serif:id="Back wing" d="M91.744,-59.538C115.328,-67.424 144.157,-48.156 156.082,-16.536C168.007,15.083 158.541,47.156 134.957,55.041C111.372,62.927 82.543,43.658 70.618,12.039C58.694,-19.58 68.16,-51.653 91.744,-59.538Z" style="fill:rgb(167,167,167);"/>
            <path id="Front-wing" serif:id="Front wing" d="M229.076,-37.973C250.768,-21.976 249.701,14.299 226.696,42.984C203.691,71.669 167.403,81.971 145.712,65.974C124.02,49.977 125.087,13.702 148.092,-14.983C171.097,-43.668 207.385,-53.97 229.076,-37.973Z" style="fill:rgb(195,195,195);"/>
        </g>
        <g id="Face">
            <path id="Mouth" d="M76.481,183.531L92.061,168.373L111.379,183.932" style="fill:none;stroke:black;stroke-width:10px;"/>
            <g id="Eyes">
                <path id="Right-eye" serif:id="Right eye" d="M108.767,124.205C110.335,133.21 118.953,137.91 124.421,137.959C130.572,138.014 139.238,134.948 141.384,123.451" style="fill:none;stroke:black;stroke-width:12px;"/>
                <path id="Right-eye1" serif:id="Right eye" d="M82.968,124.205C81.4,133.21 72.782,137.91 67.313,137.959C61.163,138.014 52.496,134.948 50.35,123.451" style="fill:none;stroke:black;stroke-width:12px;"/>
            </g>
            <g id="Eyebrows">
                <path id="Right-eyebrow" serif:id="Right eyebrow" d="M137.284,95.706L111.379,105.598" style="fill:none;stroke:black;stroke-width:10px;"/>
                <path id="Left-eyebrow" serif:id="Left eyebrow" d="M55.783,95.706L81.688,105.598" style="fill:none;stroke:black;stroke-width:10px;"/>
            </g>
        </g>
        <path id="Right-puff" serif:id="Right puff" d="M114.934,203.762L105.824,166.653C105.742,166.287 105.699,165.906 105.699,165.515C105.699,162.64 108.067,159.862 110.907,160.307C113.918,160.778 116.115,164.161 116.115,164.161L138.177,199.22C141.259,195.725 145.77,193.519 150.791,193.519C160.071,193.519 167.606,201.053 167.606,210.333C167.606,210.659 167.596,210.983 167.578,211.305C174.068,213.622 178.718,219.827 178.718,227.109C178.718,236.368 171.201,243.885 161.942,243.885C155.157,243.885 149.308,239.849 146.666,234.049C142.682,240.152 135.792,244.19 127.966,244.19C115.65,244.19 105.65,234.19 105.65,221.874C105.65,214.42 109.312,207.815 114.934,203.762Z" style="fill:white;"/>
        <path d="M177.08,205.027C184.106,209.854 188.718,217.947 188.718,227.109C188.718,241.887 176.72,253.885 161.942,253.885C155.994,253.885 150.495,251.942 146.05,248.656C140.888,252.149 134.663,254.19 127.966,254.19C110.13,254.19 95.65,239.709 95.65,221.874C95.65,213.639 98.735,206.118 103.814,200.409L96.112,169.038C96.095,168.97 96.079,168.902 96.064,168.833C95.826,167.765 95.699,166.655 95.699,165.515C95.699,156.715 103.761,149.066 112.454,150.427C119.25,151.491 124.502,158.715 124.502,158.715C124.528,158.755 124.554,158.795 124.579,158.835C124.579,158.835 141.22,185.279 141.22,185.279C144.193,184.142 147.42,183.519 150.791,183.519C163.774,183.519 174.614,192.765 177.08,205.027ZM114.934,203.762C109.312,207.815 105.65,214.42 105.65,221.874C105.65,234.19 115.65,244.19 127.966,244.19C135.792,244.19 142.682,240.152 146.666,234.049C149.308,239.849 155.157,243.885 161.942,243.885C171.201,243.885 178.718,236.368 178.718,227.109C178.718,219.827 174.068,213.622 167.578,211.305C167.596,210.983 167.606,210.659 167.606,210.333C167.606,201.053 160.071,193.519 150.791,193.519C145.77,193.519 141.259,195.725 138.177,199.22L116.115,164.161C116.115,164.161 113.918,160.778 110.907,160.307C108.067,159.862 105.699,162.64 105.699,165.515C105.699,165.906 105.742,166.287 105.824,166.653L114.934,203.762Z"/>
        <path id="Left-puff" serif:id="Left puff" d="M75.558,203.762L84.794,166.684L84.794,165.515C84.794,162.64 82.46,160.356 79.585,160.307C76.348,160.251 74.377,164.161 74.377,164.161L52.315,199.22C49.233,195.725 44.723,193.519 39.701,193.519C30.421,193.519 22.887,201.053 22.887,210.333C22.887,210.659 22.896,210.983 22.915,211.305C16.425,213.622 11.775,219.827 11.775,227.109C11.775,236.368 19.292,243.885 28.551,243.885C35.335,243.885 41.184,239.849 43.826,234.049C47.81,240.152 54.701,244.19 62.527,244.19C74.843,244.19 84.842,234.19 84.842,221.874C84.842,214.42 81.18,207.815 75.558,203.762Z" style="fill:white;"/>
        <path d="M13.413,205.027C15.878,192.765 26.718,183.519 39.701,183.519C43.072,183.519 46.299,184.142 49.273,185.279C49.273,185.279 65.812,158.997 65.807,159.005C66.411,157.967 67.761,155.879 69.75,154.13C72.338,151.854 75.789,150.24 79.757,150.308C88.102,150.451 94.794,157.169 94.794,165.515L94.794,166.684C94.794,167.499 94.694,168.31 94.497,169.101L86.694,200.427C91.764,206.134 94.842,213.647 94.842,221.874C94.842,239.709 80.362,254.19 62.527,254.19C55.83,254.19 49.605,252.149 44.443,248.656C39.997,251.942 34.499,253.885 28.551,253.885C13.773,253.885 1.775,241.887 1.775,227.109C1.775,217.947 6.386,209.854 13.413,205.027ZM75.558,203.762L84.794,166.684L84.794,165.515C84.794,162.64 82.46,160.356 79.585,160.307C76.348,160.251 74.377,164.161 74.377,164.161L52.315,199.22C49.233,195.725 44.723,193.519 39.701,193.519C30.421,193.519 22.887,201.053 22.887,210.333C22.887,210.659 22.896,210.983 22.915,211.305C16.425,213.622 11.775,219.827 11.775,227.109C11.775,236.368 19.292,243.885 28.551,243.885C35.335,243.885 41.184,239.849 43.826,234.049C47.81,240.152 54.701,244.19 62.527,244.19C74.843,244.19 84.842,234.19 84.842,221.874C84.842,214.42 81.18,207.815 75.558,203.762Z"/>
    </g>
</svg>
