<?xml version="1.0" encoding="UTF-8" standalone="no"?>
<!DOCTYPE svg PUBLIC "-//W3C//DTD SVG 1.1//EN" "http://www.w3.org/Graphics/SVG/1.1/DTD/svg11.dtd">
<svg width="100%" height="100%" viewBox="0 0 256 256" version="1.1" xmlns="http://www.w3.org/2000/svg" xmlns:xlink="http://www.w3.org/1999/xlink" xml:space="preserve" xmlns:serif="http://www.serif.com/" style="fill-rule:evenodd;clip-rule:evenodd;stroke-linecap:round;stroke-linejoin:round;stroke-miterlimit:1.5;">
    <rect id="blobbee_hug_bread_heart" x="0" y="0" width="256" height="256" style="fill:none;"/>
    <clipPath id="_clip1">
        <rect x="0" y="0" width="256" height="256"/>
    </clipPath>
    <g clip-path="url(#_clip1)">
        <g id="Bee">
            <path id="Wings-outline" serif:id="Wings outline" d="M148.346,135.121C134.249,134.344 119.24,123.938 112.662,106.497C104.15,83.926 114.112,62.089 130.948,56.459C142.085,52.736 155.58,56.452 165.699,66.148C178.871,59.892 193.341,60.565 203.162,67.808C218.161,78.869 220.853,103.948 204.946,123.783C189.498,143.045 164.378,147.014 149.812,136.273C149.309,135.902 148.82,135.518 148.346,135.121ZM154.47,119.42C155.531,121.274 156.945,122.896 158.715,124.2C167.963,131.021 183.435,126.629 193.244,114.398C203.053,102.168 203.508,86.701 194.259,79.88C185.765,73.616 172.02,76.81 162.236,86.849C156.709,74.672 145.208,67.508 135.704,70.685C125.649,74.048 121.613,87.723 126.697,101.204C131.782,114.685 144.073,122.901 154.129,119.539C154.243,119.501 154.357,119.461 154.47,119.42Z"/>
            <path id="Body" d="M152.322,98.199C188.339,75.441 229.071,78.153 243.223,104.252C257.376,130.35 239.624,170.015 203.607,192.773C167.59,215.53 126.858,212.818 112.706,186.72C98.553,160.621 116.305,120.956 152.322,98.199Z" style="fill:rgb(254,194,7);"/>
            <g id="Stripes">
                <path d="M179.455,89.413C178.674,90.093 235.718,87.226 241.075,150.81C269.602,67.126 179.739,83.109 179.455,89.413Z" style="fill:rgb(85,85,85);"/>
                <path d="M241.075,151.471C237.655,90.119 180.837,88.672 181.147,86.85L159.973,95.432C159.973,95.432 228.579,94.267 231.023,166.562L239.325,152.573" style="fill:rgb(254,194,7);"/>
                <path d="M218.269,181.448L230.904,166.562C228.505,94.174 158.533,92.915 158.534,92.942L147.317,100.183C147.213,100.204 219.681,106.58 218.269,181.448Z" style="fill:rgb(85,85,85);"/>
                <path d="M148.266,100.238L136.168,110.568C136.168,110.568 205.718,118.147 204.979,192.034L218.04,182.452C222.885,109.163 147.53,100.858 146.461,101.779" style="fill:rgb(254,194,7);"/>
                <path d="M133.57,111.977L124.499,122.53C124.499,122.53 188.523,123.162 189.983,199.361L204.979,192.034C207.537,115.854 135.648,112.787 133.57,111.977Z" style="fill:rgb(85,85,85);"/>
            </g>
            <path id="Body-outline" serif:id="Body outline" d="M152.322,98.199C188.339,75.441 229.071,78.153 243.223,104.252C257.376,130.35 239.624,170.015 203.607,192.773C167.59,215.53 126.858,212.818 112.706,186.72C98.553,160.621 116.305,120.956 152.322,98.199Z" style="fill:none;stroke:black;stroke-width:15px;"/>
            <g id="Wings">
                <path id="Back-wing" serif:id="Back wing" d="M135.704,70.685C145.76,67.323 158.052,75.539 163.136,89.02C168.221,102.502 164.185,116.177 154.129,119.539C144.073,122.901 131.782,114.685 126.697,101.204C121.613,87.723 125.649,74.048 135.704,70.685Z" style="fill:rgb(167,167,167);"/>
                <path id="Front-wing" serif:id="Front wing" d="M194.259,79.88C203.508,86.701 203.053,102.168 193.244,114.398C183.435,126.629 167.963,131.021 158.715,124.2C149.466,117.38 149.921,101.913 159.73,89.682C169.538,77.452 185.01,73.06 194.259,79.88Z" style="fill:rgb(195,195,195);"/>
            </g>
            <g id="Face">
                <path id="Mouth" d="M128.439,178.362L133.715,187.232L140.824,178.377L149.631,187.207L160.122,178.388" style="fill:none;stroke:black;stroke-width:4.6px;"/>
                <path id="Eye" d="M166.682,158.774L166.682,162.584C166.682,166.586 163.433,169.835 159.431,169.835C155.428,169.835 152.179,166.586 152.179,162.584L152.179,158.774C152.179,154.772 155.428,151.523 159.431,151.523C163.433,151.523 166.682,154.772 166.682,158.774Z"/>
            </g>
        </g>
        <g id="Bread">
            <path id="Crust" d="M38.916,124.596C21.674,124.596 7.677,138.594 7.677,155.836C7.677,163.165 10.206,169.909 14.439,175.24L14.439,223.659C14.439,232.683 21.766,240.01 30.791,240.01L121.077,240.01C130.101,240.01 137.428,232.683 137.428,223.659L137.428,175.054C141.573,169.752 144.045,163.08 144.045,155.836C144.045,138.594 130.047,124.596 112.805,124.596L38.916,124.596Z" style="fill:rgb(209,160,132);stroke:black;stroke-width:15px;"/>
            <rect id="Shadow" x="21.4" y="173.719" width="57.695" height="8.702" style="fill:rgb(186,133,109);"/>
            <path id="Slice" d="M125.957,172.022C130.962,168.086 133.15,163.056 133.15,156.256C133.15,144.406 123.402,134.785 111.394,134.785L71.517,134.785C59.509,134.785 49.76,144.406 49.76,156.256C49.76,162.827 52.758,168.713 57.476,172.653L57.476,220.389C57.476,225.025 61.29,228.789 65.988,228.789L116.424,228.789C121.122,228.789 125.957,225.057 125.957,220.421L125.957,172.022Z" style="fill:rgb(252,233,186);"/>
            <g id="Face1" serif:id="Face">
                <path id="Mouth1" serif:id="Mouth" d="M110.252,197.659L104.088,208.053L95.554,197.807L84.972,208.258L72.423,197.796" style="fill:none;stroke:rgb(70,41,26);stroke-width:6.5px;"/>
                <g id="Eyes">
                    <path id="Right-eye" serif:id="Right eye" d="M102.482,172.182C103.898,176.328 107.335,177.638 109.94,177.662C112.871,177.688 116.023,176.793 118.022,171.822" style="fill:none;stroke:black;stroke-width:7px;"/>
                    <path id="Left-eye" serif:id="Left eye" d="M68.425,172.182C69.841,176.328 73.278,177.638 75.883,177.662C78.814,177.688 81.967,176.793 83.965,171.822" style="fill:none;stroke:black;stroke-width:7px;"/>
                </g>
            </g>
        </g>
        <path id="Right-arm" serif:id="Right arm" d="M191.277,214.433L148.154,224.944C141.344,226.215 135.301,223.918 134.315,218.636C133.329,213.354 138.05,208.884 144.86,207.613L178.487,198.946L176.066,185.666C175.396,182.077 178.609,178.463 183.236,177.599C187.862,176.735 192.162,178.947 192.832,182.536L197.334,206.648C197.948,209.937 195.292,213.249 191.277,214.433Z" style="fill:rgb(151,151,151);"/>
        <path d="M193.645,224.149L150.522,234.659C150.345,234.702 150.168,234.741 149.989,234.774C136.897,237.218 126.38,230.626 124.485,220.471C122.608,210.417 129.815,200.405 142.66,197.853C142.66,197.853 166.981,191.585 166.981,191.585C166.981,191.585 166.23,187.465 166.23,187.465C164.709,179.199 170.747,169.758 181.4,167.769C192.069,165.777 201.118,172.426 202.663,180.701L207.164,204.812C208.61,212.559 203.562,221.235 194.106,224.024C193.953,224.07 193.8,224.111 193.645,224.149ZM191.277,214.433C195.292,213.249 197.948,209.937 197.334,206.648L192.832,182.536C192.162,178.947 187.862,176.735 183.236,177.599C178.609,178.463 175.396,182.077 176.066,185.666L178.487,198.946L144.86,207.613C138.05,208.884 133.329,213.354 134.315,218.636C135.301,223.918 141.344,226.215 148.154,224.944L191.277,214.433Z"/>
        <path id="Heart" d="M100.241,70.661L90.15,60.571C80.47,50.89 80.47,35.171 90.15,25.491C99.831,15.81 115.55,15.81 125.231,25.491L128,28.26L130.769,25.491C140.45,15.81 156.169,15.81 165.85,25.491C175.53,35.171 175.53,50.89 165.85,60.571L155.759,70.661C155.367,71.211 154.923,71.736 154.43,72.23L136.889,89.77C134.439,92.221 131.215,93.43 128,93.4C124.785,93.43 121.561,92.221 119.111,89.77L101.57,72.23C101.077,71.736 100.633,71.211 100.241,70.661Z" style="fill:rgb(239,124,148);stroke:black;stroke-width:15px;stroke-linejoin:miter;stroke-miterlimit:5;"/>
    </g>
</svg>
