<?xml version="1.0" encoding="UTF-8" standalone="no"?>
<!DOCTYPE svg PUBLIC "-//W3C//DTD SVG 1.1//EN" "http://www.w3.org/Graphics/SVG/1.1/DTD/svg11.dtd">
<svg width="100%" height="100%" viewBox="0 0 256 256" version="1.1" xmlns="http://www.w3.org/2000/svg" xmlns:xlink="http://www.w3.org/1999/xlink" xml:space="preserve" xmlns:serif="http://www.serif.com/" style="fill-rule:evenodd;clip-rule:evenodd;stroke-linecap:round;stroke-linejoin:round;stroke-miterlimit:1.5;">
    <rect id="blobbee_hug_fox_heart" x="-0" y="0" width="256" height="256" style="fill:none;"/>
    <clipPath id="_clip1">
        <rect x="-0" y="0" width="256" height="256"/>
    </clipPath>
    <g clip-path="url(#_clip1)">
        <g id="Bee">
            <path id="Wings-outline" serif:id="Wings outline" d="M148.346,135.121C134.249,134.344 119.24,123.938 112.662,106.497C104.15,83.926 114.112,62.089 130.948,56.459C142.085,52.736 155.58,56.452 165.699,66.148C178.871,59.892 193.341,60.565 203.162,67.808C218.161,78.869 220.853,103.948 204.946,123.783C189.498,143.045 164.378,147.014 149.812,136.273C149.309,135.902 148.82,135.518 148.346,135.121ZM154.47,119.42C155.531,121.274 156.945,122.896 158.715,124.2C167.963,131.021 183.435,126.629 193.244,114.398C203.053,102.168 203.508,86.701 194.259,79.88C185.765,73.616 172.02,76.81 162.236,86.849C156.709,74.672 145.208,67.508 135.704,70.685C125.649,74.048 121.613,87.723 126.697,101.204C131.782,114.685 144.073,122.901 154.129,119.539C154.243,119.501 154.357,119.461 154.47,119.42Z"/>
            <path id="Body" d="M152.322,98.199C188.339,75.441 229.071,78.153 243.223,104.252C257.376,130.35 239.624,170.015 203.607,192.773C167.59,215.53 126.858,212.818 112.706,186.72C98.553,160.621 116.305,120.956 152.322,98.199Z" style="fill:rgb(254,194,7);"/>
            <g id="Stripes">
                <path d="M179.455,89.413C178.674,90.093 235.718,87.226 241.075,150.81C269.602,67.126 179.739,83.109 179.455,89.413Z" style="fill:rgb(85,85,85);"/>
                <path d="M241.075,151.471C237.655,90.119 180.837,88.672 181.147,86.85L159.973,95.432C159.973,95.432 228.579,94.267 231.023,166.562L239.325,152.573" style="fill:rgb(254,194,7);"/>
                <path d="M218.269,181.448L230.904,166.562C228.505,94.174 158.533,92.915 158.534,92.942L147.317,100.183C147.213,100.204 219.681,106.58 218.269,181.448Z" style="fill:rgb(85,85,85);"/>
                <path d="M148.266,100.238L136.168,110.568C136.168,110.568 205.718,118.147 204.979,192.034L218.04,182.452C222.885,109.163 147.53,100.858 146.461,101.779" style="fill:rgb(254,194,7);"/>
                <path d="M133.57,111.977L124.499,122.53C124.499,122.53 188.523,123.162 189.983,199.361L204.979,192.034C207.537,115.854 135.648,112.787 133.57,111.977Z" style="fill:rgb(85,85,85);"/>
            </g>
            <path id="Body-outline" serif:id="Body outline" d="M152.322,98.199C188.339,75.441 229.071,78.153 243.223,104.252C257.376,130.35 239.624,170.015 203.607,192.773C167.59,215.53 126.858,212.818 112.706,186.72C98.553,160.621 116.305,120.956 152.322,98.199Z" style="fill:none;stroke:black;stroke-width:15px;"/>
            <g id="Wings">
                <path id="Back-wing" serif:id="Back wing" d="M135.704,70.685C145.76,67.323 158.052,75.539 163.136,89.02C168.221,102.502 164.185,116.177 154.129,119.539C144.073,122.901 131.782,114.685 126.697,101.204C121.613,87.723 125.649,74.048 135.704,70.685Z" style="fill:rgb(167,167,167);"/>
                <path id="Front-wing" serif:id="Front wing" d="M194.259,79.88C203.508,86.701 203.053,102.168 193.244,114.398C183.435,126.629 167.963,131.021 158.715,124.2C149.466,117.38 149.921,101.913 159.73,89.682C169.538,77.452 185.01,73.06 194.259,79.88Z" style="fill:rgb(195,195,195);"/>
            </g>
            <g id="Face">
                <path id="Mouth" d="M128.439,178.362L133.715,187.232L140.824,178.377L149.631,187.207L160.122,178.388" style="fill:none;stroke:black;stroke-width:4.6px;"/>
                <path id="Eye" d="M166.682,158.774L166.682,162.584C166.682,166.586 163.433,169.835 159.431,169.835C155.428,169.835 152.179,166.586 152.179,162.584L152.179,158.774C152.179,154.772 155.428,151.523 159.431,151.523C163.433,151.523 166.682,154.772 166.682,158.774Z"/>
            </g>
        </g>
        <g id="Fox">
            <path id="Outline" d="M56.353,113.904L57.496,112.647C61.386,107.512 68.119,105.434 74.226,107.484C75.895,108.044 77.415,108.878 78.744,109.927C87.214,106.296 94.81,105.122 97.154,105.122C100.972,105.122 111.776,107.053 111.776,107.053C112.237,107.141 112.692,107.25 113.14,107.38C116.132,104.307 118.919,101.651 120.5,100.635C126.088,97.047 127.968,95.548 135.061,95.602C140.52,95.643 143.622,97.249 145.751,98.66C148.754,100.65 151.773,105.541 151.773,105.541C151.773,105.541 151.382,104.865 151.167,104.545C151.889,105.614 153.159,107.789 153.846,111.327C154.451,114.442 155.048,121.689 154.411,131.376C153.763,141.228 151.994,158.125 150.129,166.074C153.699,175.507 155.806,186.53 155.409,197.644C154.833,213.777 149.627,222.037 139.708,235.416C128.48,250.561 103.386,253.22 103.386,253.22C103.259,253.229 103.132,253.237 103.005,253.243C103.005,253.243 62.716,255.098 49.752,253.659C38.418,252.4 29.771,251.855 17.915,241.136C6.303,230.638 4.552,218.783 4.107,196.828C3.843,183.829 6.322,172.537 7.984,166.51C7.078,163.831 6.204,161.03 5.588,158.582C3.604,150.703 2.605,138.623 2.537,130.642C2.499,126.278 2.816,122.669 3.295,119.872C4.394,112.082 7.093,105.621 8.479,103.774C13.314,97.331 18.087,94.804 25.222,95.075C27.102,95.147 30.296,95.726 33.974,97.673C38.608,100.125 46.78,106.29 49.967,108.836C51.311,109.91 53.53,111.576 56.353,113.904ZM97.51,137.947C97.123,138.184 96.783,138.327 96.503,138.355C96.503,138.355 96.847,138.193 97.51,137.947C101.463,135.526 110.288,123.235 108.963,121.787C108.963,121.787 100.241,120.122 97.154,120.122C94.067,120.122 78.075,123.242 69.369,135.043C69.459,131.82 69.453,121.704 69.453,121.704C69.453,121.704 61.524,132.171 56.756,134.532C56.786,134.566 56.824,134.607 56.869,134.657C49.428,127.133 43.218,122.643 40.605,120.556C37.194,117.83 27.188,110.161 24.653,110.064C22.77,109.993 21.753,111.076 20.477,112.776C19.687,113.83 18.724,117.712 18.12,122.172C17.733,124.334 17.507,127.121 17.536,130.513C17.596,137.483 18.402,148.039 20.134,154.921C21.749,161.336 25.368,170.441 25.851,171.646L23.528,166.95C23.528,166.95 18.771,180.137 19.104,196.524C19.436,212.911 19.307,222.173 27.975,230.009C36.642,237.845 43.122,237.83 51.408,238.75C63.792,240.126 102.279,238.261 102.279,238.261C102.279,238.261 119.892,236.958 127.658,226.483C135.425,216.007 139.967,209.739 140.419,197.108C140.811,186.122 138.195,175.246 134.089,166.671C134.498,165.834 134.896,164.848 135.254,163.688C137.116,157.658 138.8,140.176 139.443,130.391C140.087,120.607 139.382,113.897 138.74,112.946C138.097,111.995 138.113,110.626 134.948,110.602C131.782,110.578 131.099,111.656 128.605,113.257C126.111,114.859 120.179,121.677 116.216,126.079C114.703,127.759 111.365,131.648 107.815,135.815C102.697,136.239 99.139,137.344 97.51,137.947ZM25.931,171.777L25.923,171.792L25.916,171.778L25.931,171.777ZM66.01,144.907L66.028,144.928L66.004,144.929C66.006,144.922 66.008,144.914 66.01,144.907Z"/>
            <g id="Left-ear" serif:id="Left ear">
                <path id="Outer" d="M25.905,171.78C25.905,171.78 21.866,161.803 20.134,154.921C18.402,148.039 17.596,137.483 17.536,130.513C17.476,123.543 19.202,114.476 20.477,112.776C21.753,111.076 22.77,109.993 24.653,110.064C27.188,110.161 37.194,117.83 40.605,120.556C44.238,123.458 54.827,131.006 66.011,144.9C65.039,148.652 40.21,170.322 25.905,171.78Z" style="fill:rgb(42,42,42);"/>
                <path id="Inner" d="M25.905,171.78C25.905,171.78 21.866,161.803 20.134,154.921C18.402,148.039 17.596,137.483 17.536,130.513C17.476,123.543 18.493,119.132 19.769,117.431C21.044,115.731 21.961,115.77 23.844,115.684C25.726,115.597 32.792,120.683 35.174,124.342C37.557,128.001 41.813,137.406 44.7,139.954C47.588,142.503 52.906,145.426 56.879,145.159C55.907,148.911 40.21,170.322 25.905,171.78Z" style="fill:rgb(235,220,204);"/>
            </g>
            <path id="Right-ear" serif:id="Right ear" d="M95.763,150.04C95.763,150.04 112.253,130.481 116.216,126.079C120.179,121.677 126.111,114.859 128.605,113.257C131.099,111.656 131.782,110.578 134.948,110.602C138.113,110.626 138.097,111.995 138.74,112.946C139.382,113.897 140.087,120.607 139.443,130.391C138.8,140.176 137.116,157.658 135.254,163.688C133.392,169.719 130.453,171.062 130.453,171.062L95.763,150.04Z" style="fill:rgb(42,42,42);"/>
            <path id="Body1" serif:id="Body" d="M51.408,238.75C63.792,240.126 102.279,238.261 102.279,238.261C102.279,238.261 119.892,236.958 127.658,226.483C135.425,216.007 139.967,209.739 140.419,197.108C140.87,184.477 137.343,171.991 132.15,162.98C126.956,153.97 117.035,144.873 110.438,145.171C114.243,143.838 124.362,141.153 129.28,141.629C127.971,140.755 120.811,135.536 111.404,135.647C101.997,135.758 96.503,138.355 96.503,138.355C99.64,138.034 110.418,123.376 108.963,121.787C108.963,121.787 100.241,120.122 97.154,120.122C94.067,120.122 78.075,123.242 69.369,135.043C69.459,131.82 69.453,121.704 69.453,121.704C69.453,121.704 61.524,132.171 56.756,134.532C57.691,135.554 66.028,144.928 66.028,144.928L46.058,145.307L46.028,158.443L32.621,158.492L25.923,171.792L23.528,166.95C23.528,166.95 18.771,180.137 19.104,196.524C19.436,212.911 19.307,222.173 27.975,230.009C36.642,237.845 43.122,237.83 51.408,238.75Z" style="fill:rgb(247,150,91);"/>
            <g id="Face1" serif:id="Face">
                <path id="Mouth1" serif:id="Mouth" d="M65.85,205.296L79.253,219.019L92.911,205.357L102.899,219.02L109.936,205.415" style="fill:none;stroke:black;stroke-width:8px;stroke-miterlimit:5;"/>
                <path id="Nose" d="M99.748,190.318C99.748,193.12 97.473,195.395 94.671,195.395L90.953,195.395C88.151,195.395 85.876,193.12 85.876,190.318C85.876,187.516 88.151,185.241 90.953,185.241L94.671,185.241C97.473,185.241 99.748,187.516 99.748,190.318Z" style="fill:rgb(50,18,11);"/>
                <g id="Eyes">
                    <path id="Right-eye" serif:id="Right eye" d="M99.273,167.86C101.174,173.423 105.784,175.181 109.28,175.212C113.211,175.247 117.441,174.047 120.122,167.378" style="fill:none;stroke:black;stroke-width:10px;"/>
                    <path id="Left-eye" serif:id="Left eye" d="M57.519,167.86C59.42,173.423 64.03,175.181 67.526,175.212C71.457,175.247 75.687,174.047 78.368,167.378" style="fill:none;stroke:black;stroke-width:10px;"/>
                </g>
            </g>
        </g>
        <path id="Right-arm" serif:id="Right arm" d="M193.615,213.603L150.492,224.114C143.682,225.385 137.639,223.088 136.653,217.806C135.667,212.524 140.388,208.054 147.198,206.783L180.825,198.116L178.404,184.836C177.734,181.248 180.947,177.633 185.573,176.769C190.2,175.905 194.5,178.117 195.17,181.706L199.672,205.818C200.286,209.107 197.63,212.419 193.615,213.603Z" style="fill:rgb(151,151,151);"/>
        <path d="M195.983,223.319L152.86,233.829C152.683,233.872 152.506,233.911 152.327,233.944C139.235,236.388 128.718,229.796 126.823,219.641C124.946,209.587 132.153,199.575 144.998,197.023C144.998,197.023 169.319,190.755 169.319,190.755C169.319,190.755 168.568,186.635 168.568,186.635C167.047,178.369 173.085,168.928 183.738,166.939C194.407,164.947 203.456,171.596 205.001,179.871L209.502,203.982C210.948,211.729 205.9,220.405 196.444,223.195C196.291,223.24 196.138,223.281 195.983,223.319ZM193.615,213.603C197.63,212.419 200.286,209.107 199.672,205.818L195.17,181.706C194.5,178.117 190.2,175.905 185.573,176.769C180.947,177.633 177.734,181.248 178.404,184.836L180.825,198.116L147.198,206.783C140.388,208.054 135.667,212.524 136.653,217.806C137.639,223.088 143.682,225.385 150.492,224.114L193.615,213.603Z"/>
        <path id="Heart" d="M100.241,70.661L90.15,60.571C80.47,50.89 80.47,35.171 90.15,25.491C99.831,15.81 115.55,15.81 125.231,25.491L128,28.26L130.769,25.491C140.45,15.81 156.169,15.81 165.85,25.491C175.53,35.171 175.53,50.89 165.85,60.571L155.759,70.661C155.367,71.211 154.923,71.736 154.43,72.23L136.889,89.77C134.439,92.221 131.215,93.43 128,93.4C124.785,93.43 121.561,92.221 119.111,89.77L101.57,72.23C101.077,71.736 100.633,71.211 100.241,70.661Z" style="fill:rgb(239,124,148);stroke:black;stroke-width:15px;stroke-linejoin:miter;stroke-miterlimit:5;"/>
    </g>
</svg>
