<?xml version="1.0" encoding="UTF-8" standalone="no"?>
<!DOCTYPE svg PUBLIC "-//W3C//DTD SVG 1.1//EN" "http://www.w3.org/Graphics/SVG/1.1/DTD/svg11.dtd">
<svg width="100%" height="100%" viewBox="0 0 256 256" version="1.1" xmlns="http://www.w3.org/2000/svg" xmlns:xlink="http://www.w3.org/1999/xlink" xml:space="preserve" xmlns:serif="http://www.serif.com/" style="fill-rule:evenodd;clip-rule:evenodd;stroke-linecap:round;stroke-linejoin:round;stroke-miterlimit:1.5;">
    <rect id="blobbee_cat_ears" x="0" y="-0" width="256" height="256" style="fill:none;"/>
    <path id="Wings-outline" serif:id="Wings outline" d="M85.911,118.96C64.22,119.951 40.081,103.608 29.74,76.187C17.462,43.633 30.423,11.638 54.705,3.519C72.712,-2.502 94.597,5.565 109.433,23.705C130.196,10.768 154.388,9.924 170.338,21.686C192.186,37.798 194.54,74.364 171.369,103.256C148.655,131.579 112.048,138.809 90.631,123.014C88.938,121.766 87.365,120.412 85.911,118.96ZM92.141,102.617C93.99,105.847 96.453,108.67 99.534,110.942C115.64,122.82 142.585,115.171 159.667,93.871C176.749,72.572 177.541,45.636 161.435,33.758C146.642,22.849 122.705,28.412 105.665,45.894C96.041,24.687 76.012,12.211 59.461,17.745C41.949,23.6 34.92,47.416 43.775,70.894C52.629,94.372 74.036,108.68 91.548,102.824C91.747,102.758 91.945,102.689 92.141,102.617Z"/>
    <path id="Left-ear-outline" serif:id="Left ear outline" d="M10.551,151.103C10.551,151.103 1.651,122.355 1.477,103.335C1.335,87.72 8.366,77.371 17.169,74.376C24.562,71.862 34.504,73.317 44.402,78.708C59.224,86.782 74.956,103.227 74.956,103.227C79.481,108.002 80.366,115.17 77.138,120.903C73.91,126.636 67.323,129.596 60.893,128.204C55.621,127.062 52.355,130.901 49.156,135.046C45.033,140.387 41.551,147.025 38.159,153.532C35.354,158.91 29.586,162.07 23.544,161.539C17.501,161.007 12.373,156.888 10.551,151.103ZM24.858,146.596C34.383,128.33 44.994,109.414 64.067,113.543C64.067,113.543 35.924,83.841 22,88.577C8.076,93.314 24.858,146.596 24.858,146.596Z"/>
    <path id="Body" d="M85.271,72.055C145.288,37.404 213.16,41.534 236.743,81.272C260.326,121.009 230.747,181.404 170.729,216.054C110.712,250.705 42.84,246.576 19.257,206.838C-4.326,167.1 25.253,106.706 85.271,72.055Z" style="fill:rgb(254,194,7);"/>
    <g id="Stripes">
        <path d="M130.484,58.678C129.182,59.714 224.237,55.348 233.164,152.161C280.7,24.744 130.957,49.08 130.484,58.678Z" style="fill:rgb(85,85,85);"/>
        <path d="M233.164,153.168C227.465,59.753 132.786,57.55 133.303,54.776L98.021,67.843C98.021,67.843 212.342,66.068 216.414,176.145L230.249,154.847" style="fill:rgb(254,194,7);"/>
        <path d="M195.162,198.811L216.216,176.145C212.218,65.928 95.621,64.01 95.622,64.051L76.931,75.077C76.758,75.108 197.515,84.817 195.162,198.811Z" style="fill:rgb(85,85,85);"/>
        <path d="M78.512,75.161L58.353,90.89C58.353,90.89 174.247,102.428 173.015,214.93L194.78,200.34C202.854,88.75 77.286,76.105 75.505,77.508" style="fill:rgb(254,194,7);"/>
        <path d="M54.023,93.034L38.908,109.103C38.908,109.103 145.595,110.065 148.028,226.085L173.015,214.93C177.278,98.938 57.487,94.267 54.023,93.034Z" style="fill:rgb(85,85,85);"/>
    </g>
    <path id="Body-outline" serif:id="Body outline" d="M85.271,72.055C145.288,37.404 213.16,41.534 236.743,81.272C260.326,121.009 230.747,181.404 170.729,216.054C110.712,250.705 42.84,246.576 19.257,206.838C-4.326,167.1 25.253,106.706 85.271,72.055Z" style="fill:none;stroke:black;stroke-width:15px;"/>
    <g id="Wings">
        <path id="Back-wing" serif:id="Back wing" d="M59.461,17.745C76.973,11.89 98.38,26.197 107.234,49.675C116.089,73.154 109.06,96.969 91.548,102.824C74.036,108.68 52.629,94.372 43.775,70.894C34.92,47.416 41.949,23.6 59.461,17.745Z" style="fill:rgb(167,167,167);"/>
        <path id="Front-wing" serif:id="Front wing" d="M161.435,33.758C177.541,45.636 176.749,72.572 159.667,93.871C142.585,115.171 115.64,122.82 99.534,110.942C83.427,99.064 84.219,72.128 101.301,50.829C118.383,29.529 145.328,21.88 161.435,33.758Z" style="fill:rgb(195,195,195);"/>
    </g>
    <g id="Face">
        <path id="Mouth" d="M39.896,195.627L47.929,209.133L58.753,195.651L72.162,209.096L88.135,195.667" style="fill:none;stroke:black;stroke-width:7px;"/>
        <path id="Right-eye" serif:id="Right eye" d="M99.128,165.816L99.128,171.592C99.128,177.659 94.202,182.585 88.135,182.585C82.068,182.585 77.142,177.659 77.142,171.592L77.142,165.816C77.142,159.749 82.068,154.823 88.135,154.823C94.202,154.823 99.128,159.749 99.128,165.816Z"/>
        <path id="Left-eye" serif:id="Left eye" d="M50.889,165.816L50.889,171.592C50.889,177.659 45.963,182.585 39.896,182.585C33.828,182.585 28.903,177.659 28.903,171.592L28.903,165.816C28.903,159.749 33.828,154.823 39.896,154.823C45.963,154.823 50.889,159.749 50.889,165.816Z"/>
    </g>
    <path id="Right-ear" serif:id="Right ear" d="M132.732,163.762C124.391,147.58 107.334,131.922 92.336,123.983C92.336,123.983 128.472,91.947 142.488,100.118C149.672,104.306 136.981,148.709 132.732,163.762Z" style="fill:rgb(255,212,124);"/>
    <path id="Left-ear" serif:id="Left ear" d="M24.22,148.458C24.22,148.458 7.288,96.038 21.256,88.746C34.267,81.954 67.161,113.845 67.161,113.845C45.111,112.076 33.745,130.191 24.22,148.458Z" style="fill:rgb(255,212,124);"/>
</svg>
