<?xml version="1.0" encoding="UTF-8" standalone="no"?>
<!DOCTYPE svg PUBLIC "-//W3C//DTD SVG 1.1//EN" "http://www.w3.org/Graphics/SVG/1.1/DTD/svg11.dtd">
<svg width="100%" height="100%" viewBox="0 0 256 256" version="1.1" xmlns="http://www.w3.org/2000/svg" xmlns:xlink="http://www.w3.org/1999/xlink" xml:space="preserve" xmlns:serif="http://www.serif.com/" style="fill-rule:evenodd;clip-rule:evenodd;stroke-linecap:round;stroke-linejoin:round;stroke-miterlimit:5;">
    <rect id="blobbee_snuggle_fox" x="-0" y="0" width="256" height="256" style="fill:none;"/>
    <clipPath id="_clip1">
        <rect x="-0" y="0" width="256" height="256"/>
    </clipPath>
    <g clip-path="url(#_clip1)">
        <g id="Fox">
            <path id="Outline" d="M5.339,132.599C3.568,124.876 1.892,108.896 1.277,99.539C0.662,90.201 1.244,83.215 1.827,80.212C2.509,76.702 3.773,74.545 4.49,73.485C4.268,73.813 3.868,74.508 3.868,74.508C3.868,74.508 6.868,69.655 9.848,67.68C11.955,66.283 15.024,64.688 20.426,64.647C27.378,64.594 29.227,66.045 34.705,69.562C36.188,70.514 38.774,72.963 41.573,75.821C41.896,75.736 42.223,75.662 42.553,75.599C42.553,75.599 52.968,73.742 56.649,73.742C58.887,73.742 66.068,74.844 74.132,78.241C75.386,77.303 76.801,76.551 78.343,76.034C84.45,73.984 91.183,76.062 95.073,81.197L95.696,81.884C98.164,79.866 100.108,78.402 101.316,77.437C104.382,74.988 112.243,69.062 116.701,66.703C120.335,64.78 123.493,64.214 125.35,64.144C132.402,63.876 137.129,66.354 141.907,72.721C143.258,74.523 145.914,80.812 146.982,88.374C147.449,91.113 147.754,94.593 147.718,98.799C147.652,106.47 146.69,118.079 144.783,125.652C144.206,127.947 143.391,130.566 142.544,133.082C144.143,138.933 146.469,149.687 146.218,162.044C145.788,183.269 144.031,194.71 132.805,204.86C121.335,215.229 112.977,215.775 102.013,216.993C89.601,218.371 51.027,216.599 51.027,216.599C50.9,216.593 50.773,216.585 50.646,216.576C50.646,216.576 26.337,213.975 15.455,199.297C5.881,186.384 0.879,178.404 0.322,162.833C-0.058,152.197 1.942,141.648 5.339,132.599ZM56.309,105.773C54.753,105.197 51.354,104.141 46.463,103.736C43.072,99.755 39.882,96.039 38.437,94.434C34.651,90.228 28.982,83.714 26.599,82.184C24.217,80.653 23.564,79.623 20.54,79.646C17.515,79.669 17.531,80.978 16.917,81.886C16.303,82.794 15.629,89.205 16.244,98.554C16.859,107.903 18.468,124.605 20.247,130.367C20.589,131.475 20.969,132.417 21.36,133.217C17.438,141.41 14.937,151.801 15.312,162.298C15.744,174.366 20.084,180.355 27.504,190.363C34.925,200.372 51.753,201.617 51.753,201.617C51.753,201.617 88.525,203.398 100.357,202.084C108.274,201.205 114.465,201.219 122.746,193.733C131.027,186.246 130.904,177.396 131.221,161.74C131.539,146.083 126.994,133.484 126.994,133.484L124.775,137.97C125.237,136.819 128.694,128.12 130.237,121.991C131.892,115.416 132.662,105.33 132.719,98.67C132.747,95.429 132.531,92.767 132.162,90.701C131.585,86.44 130.664,82.731 129.909,81.724C128.69,80.1 127.718,79.065 125.919,79.133C123.498,79.225 113.938,86.553 110.678,89.157C108.182,91.151 102.249,95.441 95.139,102.63C95.182,102.582 95.218,102.542 95.247,102.511C90.691,100.254 83.116,90.254 83.116,90.254C83.116,90.254 83.11,99.919 83.196,102.999C74.878,91.724 59.598,88.742 56.649,88.742C53.699,88.742 45.367,90.333 45.367,90.333C44.1,91.716 52.532,103.46 56.309,105.773C56.943,106.008 57.271,106.163 57.271,106.163C57.004,106.136 56.679,106 56.309,105.773ZM86.406,112.423C86.408,112.43 86.409,112.437 86.411,112.444L86.388,112.443L86.406,112.423ZM124.699,138.095L124.712,138.097L124.706,138.11L124.699,138.095Z"/>
            <g id="Left-ear" serif:id="Left ear">
                <path id="Outer" d="M124.723,138.098C124.723,138.098 128.582,128.566 130.237,121.991C131.892,115.416 132.662,105.33 132.719,98.67C132.776,92.011 131.128,83.349 129.909,81.724C128.69,80.1 127.718,79.065 125.919,79.133C123.498,79.225 113.938,86.553 110.678,89.157C107.207,91.93 97.09,99.142 86.404,112.417C87.333,116.001 111.056,136.705 124.723,138.098Z" style="fill:rgb(42,42,42);"/>
                <path id="Inner" d="M124.723,138.098C124.723,138.098 128.582,128.566 130.237,121.991C131.892,115.416 132.662,105.33 132.719,98.67C132.776,92.011 131.805,87.796 130.586,86.172C129.367,84.547 128.491,84.584 126.693,84.502C124.894,84.419 118.143,89.279 115.867,92.775C113.591,96.271 109.524,105.256 106.766,107.691C104.007,110.126 98.925,112.919 95.129,112.664C96.058,116.248 111.056,136.705 124.723,138.098Z" style="fill:rgb(235,220,204);"/>
            </g>
            <path id="Right-ear" serif:id="Right ear" d="M57.978,117.328C57.978,117.328 42.223,98.639 38.437,94.434C34.651,90.228 28.982,83.714 26.599,82.184C24.217,80.653 23.564,79.623 20.54,79.646C17.515,79.669 17.531,80.978 16.917,81.886C16.303,82.794 15.629,89.205 16.244,98.554C16.859,107.903 18.468,124.605 20.247,130.367C22.026,136.129 24.834,137.412 24.834,137.412L57.978,117.328Z" style="fill:rgb(42,42,42);"/>
            <path id="Body" d="M100.357,202.084C88.525,203.398 51.753,201.617 51.753,201.617C51.753,201.617 34.925,200.372 27.504,190.363C20.084,180.355 15.744,174.366 15.312,162.298C14.881,150.229 18.251,138.3 23.213,129.691C28.175,121.082 37.654,112.39 43.957,112.676C40.322,111.401 30.654,108.836 25.955,109.291C27.206,108.456 34.047,103.47 43.034,103.576C52.022,103.682 57.271,106.163 57.271,106.163C54.274,105.857 43.976,91.852 45.367,90.333C45.367,90.333 53.699,88.742 56.649,88.742C59.598,88.742 74.878,91.724 83.196,102.999C83.11,99.919 83.116,90.254 83.116,90.254C83.116,90.254 90.691,100.254 95.247,102.511C94.354,103.487 86.388,112.443 86.388,112.443L105.469,112.805L105.497,125.356L118.306,125.402L124.706,138.11L126.994,133.484C126.994,133.484 131.539,146.083 131.221,161.74C130.904,177.396 131.027,186.246 122.746,193.733C114.465,201.219 108.274,201.205 100.357,202.084Z" style="fill:rgb(247,150,91);"/>
            <g id="Face">
                <path id="Mouth" d="M86.559,170.121L73.752,183.232L60.703,170.179L51.16,183.233L44.437,170.235" style="fill:none;stroke:black;stroke-width:8px;"/>
                <path id="Nose" d="M54.171,155.81C54.171,158.487 56.345,160.661 59.022,160.661L62.574,160.661C65.251,160.661 67.424,158.487 67.424,155.81C67.424,153.133 65.251,150.96 62.574,150.96L59.022,150.96C56.345,150.96 54.171,153.133 54.171,155.81Z" style="fill:rgb(50,18,11);"/>
                <g id="Eyes">
                    <path id="Right-eye" serif:id="Right eye" d="M54.624,134.353C52.809,139.668 48.404,141.348 45.064,141.378C41.308,141.411 37.266,140.264 34.704,133.893" style="fill:none;stroke:black;stroke-width:10px;stroke-miterlimit:1.5;"/>
                    <path id="Left-eye" serif:id="Left eye" d="M93.518,134.353C91.702,139.668 87.297,141.348 83.957,141.378C80.201,141.411 76.16,140.264 73.598,133.893" style="fill:none;stroke:black;stroke-width:10px;stroke-miterlimit:1.5;"/>
                </g>
            </g>
        </g>
        <g id="Bee">
            <path id="Wings-outline" serif:id="Wings outline" d="M140.966,168.291C125.389,167.812 108.616,156.263 101.311,136.893C92.069,112.387 102.613,88.579 120.892,82.468C133.353,78.301 148.469,82.813 159.533,94.109C174.192,86.603 190.523,87.025 201.524,95.138C217.851,107.178 220.477,134.486 203.162,156.076C186.306,177.094 158.958,181.696 143.064,169.975C142.336,169.438 141.637,168.876 140.966,168.291ZM147.112,152.435C148.326,154.556 149.943,156.41 151.967,157.903C162.545,165.704 180.242,160.68 191.461,146.691C202.68,132.702 203.2,115.012 192.622,107.211C182.906,100.046 167.185,103.699 155.994,115.181C149.673,101.253 136.519,93.059 125.649,96.694C114.147,100.539 109.531,116.18 115.346,131.6C121.162,147.02 135.221,156.417 146.722,152.571C146.853,152.527 146.983,152.482 147.112,152.435Z"/>
            <path id="Body1" serif:id="Body" d="M142.599,132.363C182.017,109.605 226.593,112.318 242.082,138.416C257.57,164.514 238.143,204.179 198.726,226.937C159.309,249.695 114.732,246.982 99.243,220.884C83.755,194.785 103.182,155.121 142.599,132.363Z" style="fill:rgb(254,194,7);"/>
            <g id="Stripes">
                <path d="M172.294,123.577C171.439,124.258 233.868,121.39 239.731,184.974C270.951,101.29 172.605,117.274 172.294,123.577Z" style="fill:rgb(85,85,85);"/>
                <path d="M239.731,185.635C235.988,124.283 173.806,122.836 174.146,121.015L150.973,129.597C150.973,129.597 226.056,128.431 228.73,200.726L237.816,186.738" style="fill:rgb(254,194,7);"/>
                <path d="M214.772,215.612L228.6,200.726C225.975,128.339 149.397,127.079 149.398,127.106L137.122,134.347C137.008,134.368 216.318,140.745 214.772,215.612Z" style="fill:rgb(85,85,85);"/>
                <path d="M138.161,134.403L124.92,144.733C124.92,144.733 201.036,152.311 200.227,226.198L214.522,216.617C219.824,143.327 137.355,135.022 136.185,135.944" style="fill:rgb(254,194,7);"/>
                <path d="M122.077,146.141L112.15,156.694C112.15,156.694 182.218,157.327 183.816,233.525L200.227,226.198C203.027,150.019 124.352,146.951 122.077,146.141Z" style="fill:rgb(85,85,85);"/>
            </g>
            <path id="Body-outline" serif:id="Body outline" d="M142.599,132.363C182.017,109.605 226.593,112.318 242.082,138.416C257.57,164.514 238.143,204.179 198.726,226.937C159.309,249.695 114.732,246.982 99.243,220.884C83.755,194.785 103.182,155.121 142.599,132.363Z" style="fill:none;stroke:black;stroke-width:15px;stroke-miterlimit:1.5;"/>
            <g id="Wings">
                <path id="Back-wing" serif:id="Back wing" d="M125.649,96.694C137.15,92.848 151.209,102.245 157.024,117.665C162.84,133.084 158.224,148.725 146.722,152.571C135.221,156.417 121.162,147.02 115.346,131.6C109.531,116.18 114.147,100.539 125.649,96.694Z" style="fill:rgb(167,167,167);"/>
                <path id="Front-wing" serif:id="Front wing" d="M192.622,107.211C203.2,115.012 202.68,132.702 191.461,146.691C180.242,160.68 162.545,165.704 151.967,157.903C141.389,150.101 141.909,132.411 153.128,118.422C164.347,104.433 182.043,99.409 192.622,107.211Z" style="fill:rgb(195,195,195);"/>
            </g>
            <g id="Face1" serif:id="Face">
                <path id="Mouth1" serif:id="Mouth" d="M112.799,213.521L118.074,222.391L125.184,213.537L133.99,222.367L144.481,213.547" style="fill:none;stroke:black;stroke-width:4.6px;stroke-miterlimit:1.5;"/>
                <path id="Right-eye1" serif:id="Right eye" d="M138.209,197.827C138.209,197.827 141.715,191.781 149.37,194.599" style="fill:none;stroke:black;stroke-width:7px;stroke-miterlimit:1.5;"/>
                <path id="Left-eye1" serif:id="Left eye" d="M120.019,197.827C120.019,197.827 116.513,191.781 108.858,194.599" style="fill:none;stroke:black;stroke-width:7px;stroke-miterlimit:1.5;"/>
            </g>
        </g>
        <path id="Heart" d="M100.241,60.968L90.15,50.877C80.47,41.197 80.47,25.478 90.15,15.797C99.831,6.116 115.55,6.116 125.231,15.797L128,18.566L130.769,15.797C140.45,6.116 156.169,6.116 165.85,15.797C175.53,25.478 175.53,41.197 165.85,50.877L155.759,60.968C155.367,61.518 154.923,62.043 154.43,62.536L136.889,80.076C134.439,82.527 131.215,83.737 128,83.706C124.785,83.737 121.561,82.527 119.111,80.076L101.57,62.536C101.077,62.043 100.633,61.518 100.241,60.968Z" style="fill:rgb(239,124,148);stroke:black;stroke-width:15px;stroke-linejoin:miter;"/>
    </g>
</svg>
