<?xml version="1.0" encoding="UTF-8" standalone="no"?>
<!DOCTYPE svg PUBLIC "-//W3C//DTD SVG 1.1//EN" "http://www.w3.org/Graphics/SVG/1.1/DTD/svg11.dtd">
<svg width="100%" height="100%" viewBox="0 0 256 256" version="1.1" xmlns="http://www.w3.org/2000/svg" xmlns:xlink="http://www.w3.org/1999/xlink" xml:space="preserve" xmlns:serif="http://www.serif.com/" style="fill-rule:evenodd;clip-rule:evenodd;stroke-linecap:round;stroke-linejoin:round;stroke-miterlimit:1.5;">
    <rect id="blobbee_heart" x="-0" y="0" width="256" height="256" style="fill:none;"/>
    <clipPath id="_clip1">
        <rect x="-0" y="0" width="256" height="256"/>
    </clipPath>
    <g clip-path="url(#_clip1)">
        <path id="Wings-outline" serif:id="Wings outline" d="M130.856,59.756C103.019,62.47 71.403,41.235 57.982,5.65C42.637,-35.039 58.037,-75.299 88.386,-85.447C112.041,-93.356 140.798,-81.45 159.283,-56.218C186.131,-74.864 218.386,-77.209 239.378,-61.728C266.807,-41.5 268.887,4.414 239.797,40.686C211.162,76.39 165.207,86.274 138.208,66.364C135.509,64.373 133.058,62.162 130.856,59.756ZM137.155,43.08C139.645,47.429 142.961,51.231 147.111,54.291C168.802,70.288 205.09,59.987 228.095,31.302C251.1,2.617 252.167,-33.659 230.475,-49.656C210.553,-64.348 178.317,-56.856 155.368,-33.312C142.407,-61.872 115.433,-78.674 93.143,-71.221C69.559,-63.336 60.093,-31.263 72.017,0.357C83.942,31.976 112.771,51.244 136.356,43.359C136.624,43.269 136.89,43.176 137.155,43.08Z"/>
        <path id="Body" d="M127.902,1.921C208.729,-44.745 300.137,-39.183 331.897,14.333C363.657,67.85 323.82,149.185 242.993,195.851C162.165,242.517 70.758,236.955 38.998,183.439C7.237,129.922 47.074,48.587 127.902,1.921Z" style="fill:rgb(254,194,7);"/>
        <g id="Stripes">
            <path d="M188.793,-16.095C187.039,-14.699 315.054,-20.58 327.076,109.803C391.095,-61.796 189.429,-29.021 188.793,-16.095Z" style="fill:rgb(85,85,85);"/>
            <path d="M327.076,111.159C319.401,-14.647 191.893,-17.614 192.59,-21.35L145.073,-3.751C145.073,-3.751 299.034,-6.142 304.518,142.104L323.15,113.42" style="fill:rgb(254,194,7);"/>
            <path d="M275.897,172.628L304.252,142.104C298.868,-6.332 141.84,-8.914 141.842,-8.859L116.671,5.99C116.437,6.032 279.066,19.108 275.897,172.628Z" style="fill:rgb(85,85,85);"/>
            <path d="M118.8,6.104L91.65,27.286C91.65,27.286 247.73,42.825 246.071,194.336L275.383,174.688C286.256,24.404 117.148,7.374 114.749,9.264" style="fill:rgb(254,194,7);"/>
            <path d="M85.819,30.174L65.463,51.814C65.463,51.814 209.143,53.111 212.42,209.36L246.071,194.336C251.812,38.125 90.484,31.835 85.819,30.174Z" style="fill:rgb(85,85,85);"/>
        </g>
        <path id="Body-outline" serif:id="Body outline" d="M127.902,1.921C208.729,-44.745 300.137,-39.183 331.897,14.333C363.657,67.85 323.82,149.185 242.993,195.851C162.165,242.517 70.758,236.955 38.998,183.439C7.237,129.922 47.074,48.587 127.902,1.921Z" style="fill:none;stroke:black;stroke-width:15px;"/>
        <g id="Wings">
            <path id="Back-wing" serif:id="Back wing" d="M93.143,-71.221C116.727,-79.107 145.556,-59.838 157.481,-28.219C169.406,3.4 159.94,35.473 136.356,43.359C112.771,51.244 83.942,31.976 72.017,0.357C60.093,-31.263 69.559,-63.336 93.143,-71.221Z" style="fill:rgb(167,167,167);"/>
            <path id="Front-wing" serif:id="Front wing" d="M230.475,-49.656C252.167,-33.659 251.1,2.617 228.095,31.302C205.09,59.987 168.802,70.288 147.111,54.291C125.419,38.295 126.486,2.019 149.491,-26.666C172.496,-55.351 208.784,-65.652 230.475,-49.656Z" style="fill:rgb(195,195,195);"/>
        </g>
        <g id="Eyes">
            <g id="Right-eye" serif:id="Right eye">
                <circle id="Eye-white" serif:id="Eye white" cx="127.189" cy="128" r="23.779" style="fill:white;"/>
                <circle id="Pupil" cx="124.127" cy="124.976" r="20.392"/>
                <path id="Eye-reflection-top" serif:id="Eye reflection top" d="M113.113,114.122C117.141,110.094 122.94,109.354 126.055,112.469C129.171,115.585 128.43,121.384 124.403,125.412C120.375,129.44 114.576,130.18 111.46,127.065C108.344,123.949 109.085,118.15 113.113,114.122Z" style="fill:white;"/>
                <path id="Eye-reflection-bottom" serif:id="Eye reflection bottom" d="M134.052,129.888C134.052,129.888 132.852,134.024 128.61,134.929" style="fill:none;stroke:rgb(151,151,151);stroke-width:8px;"/>
            </g>
            <g id="Left-eye" serif:id="Left eye">
                <circle id="Eye-white1" serif:id="Eye white" cx="66.602" cy="128" r="23.779" style="fill:white;"/>
                <circle id="Pupil1" serif:id="Pupil" cx="63.541" cy="124.976" r="20.392"/>
                <path id="Eye-reflection-top1" serif:id="Eye reflection top" d="M52.526,114.122C56.554,110.094 62.354,109.354 65.469,112.469C68.585,115.585 67.844,121.384 63.816,125.412C59.789,129.44 53.989,130.18 50.874,127.065C47.758,123.949 48.499,118.15 52.526,114.122Z" style="fill:white;"/>
                <path id="Eye-reflection-bottom1" serif:id="Eye reflection bottom" d="M73.465,129.888C73.465,129.888 72.266,134.024 68.024,134.929" style="fill:none;stroke:rgb(151,151,151);stroke-width:8px;"/>
            </g>
        </g>
        <path id="Heart" d="M87.749,228.668L40.65,186.704C31.063,178.41 30.013,163.894 38.306,154.307C46.599,144.719 61.116,143.669 70.703,151.962L96.448,174.232L122.192,151.962C131.779,143.669 146.296,144.719 154.589,154.307C162.882,163.894 161.832,178.41 152.245,186.704L105.146,228.668C102.863,231.261 99.661,232.58 96.448,232.559C93.234,232.58 90.032,231.261 87.749,228.668Z" style="fill:rgb(239,124,148);"/>
        <path d="M77.228,239.384C77.226,239.382 77.224,239.38 77.221,239.378C76.583,238.809 30.744,197.968 30.787,198.005C14.985,184.288 13.266,160.325 26.962,144.493C40.671,128.645 64.668,126.908 80.517,140.618C80.517,140.618 96.448,154.398 96.448,154.398L112.378,140.618C128.227,126.908 152.224,128.645 165.934,144.493C179.616,160.31 177.913,184.245 162.151,197.967C162.151,197.967 115.667,239.384 115.671,239.38C110.49,244.807 103.482,247.581 96.446,247.56C89.411,247.579 82.408,244.807 77.228,239.384ZM87.749,228.668C90.032,231.261 93.234,232.58 96.448,232.559C99.661,232.58 102.863,231.261 105.146,228.668L152.245,186.704C161.832,178.41 162.882,163.894 154.589,154.307C146.296,144.719 131.779,143.669 122.192,151.962L96.448,174.232L70.703,151.962C61.116,143.669 46.599,144.719 38.306,154.307C30.013,163.894 31.063,178.41 40.65,186.704L87.749,228.668Z" style="fill:rgb(168,9,62);"/>
        <g id="Hands">
            <g id="Right-hand" serif:id="Right hand">
                <path id="Outline" d="M160.993,188.338L176.441,203.786L149.742,230.485L134.294,215.037C126.926,207.669 126.926,195.706 134.294,188.338C141.662,180.97 153.625,180.97 160.993,188.338Z" style="fill:rgb(151,151,151);"/>
                <path d="M168.064,181.267L183.512,196.715C187.417,200.62 187.417,206.952 183.512,210.857L156.813,237.556C152.908,241.461 146.576,241.461 142.671,237.556L127.223,222.108C115.953,210.838 115.953,192.537 127.223,181.267C138.493,169.997 156.793,169.997 168.064,181.267ZM160.993,188.338C153.625,180.97 141.662,180.97 134.294,188.338C126.926,195.706 126.926,207.669 134.294,215.037L149.742,230.485L176.441,203.786L160.993,188.338Z"/>
                <path id="Fill" d="M160.993,188.338L183.535,210.881L156.837,237.579L134.294,215.037C126.926,207.669 126.926,195.706 134.294,188.338C141.662,180.97 153.625,180.97 160.993,188.338Z" style="fill:rgb(151,151,151);"/>
            </g>
            <g id="Left-hand" serif:id="Left hand">
                <path id="Outline1" serif:id="Outline" d="M31.899,188.359L16.461,203.797L43.142,230.479L58.58,215.04C65.943,207.677 65.943,195.722 58.58,188.359C51.217,180.996 39.262,180.996 31.899,188.359Z" style="fill:rgb(151,151,151);"/>
                <path d="M24.828,181.288C36.093,170.022 54.386,170.022 65.651,181.288C76.917,192.553 76.917,210.846 65.651,222.111L50.213,237.55C46.308,241.455 39.976,241.455 36.071,237.55L9.39,210.868C5.484,206.963 5.484,200.631 9.39,196.726L24.828,181.288ZM31.899,188.359L16.461,203.797L43.142,230.479L58.58,215.04C65.943,207.677 65.943,195.722 58.58,188.359C51.217,180.996 39.262,180.996 31.899,188.359Z"/>
                <path id="Fill1" serif:id="Fill" d="M31.899,188.359L9.36,210.898L36.041,237.579L58.58,215.04C65.943,207.677 65.943,195.722 58.58,188.359C51.217,180.996 39.262,180.996 31.899,188.359Z" style="fill:rgb(151,151,151);"/>
            </g>
        </g>
    </g>
</svg>
