<?xml version="1.0" encoding="UTF-8" standalone="no"?>
<!DOCTYPE svg PUBLIC "-//W3C//DTD SVG 1.1//EN" "http://www.w3.org/Graphics/SVG/1.1/DTD/svg11.dtd">
<svg width="100%" height="100%" viewBox="0 0 256 256" version="1.1" xmlns="http://www.w3.org/2000/svg" xmlns:xlink="http://www.w3.org/1999/xlink" xml:space="preserve" xmlns:serif="http://www.serif.com/" style="fill-rule:evenodd;clip-rule:evenodd;stroke-linecap:round;stroke-linejoin:round;stroke-miterlimit:1.5;">
    <rect id="blobbee_bottom" x="0" y="0" width="256" height="256" style="fill:none;"/>
    <clipPath id="_clip1">
        <rect x="0" y="0" width="256" height="256"/>
    </clipPath>
    <g clip-path="url(#_clip1)">
        <path id="Wings-outline" serif:id="Wings outline" d="M130.856,59.756C103.019,62.47 71.403,41.235 57.982,5.65C42.637,-35.039 58.037,-75.299 88.386,-85.447C112.041,-93.356 140.798,-81.45 159.283,-56.218C186.131,-74.864 218.386,-77.209 239.378,-61.728C266.807,-41.5 268.887,4.414 239.797,40.686C211.162,76.39 165.207,86.274 138.208,66.364C135.509,64.373 133.058,62.162 130.856,59.756ZM137.155,43.08C139.645,47.429 142.961,51.231 147.111,54.291C168.802,70.288 205.09,59.987 228.095,31.302C251.1,2.617 252.167,-33.659 230.475,-49.656C210.553,-64.348 178.317,-56.856 155.368,-33.312C142.407,-61.872 115.433,-78.674 93.143,-71.221C69.559,-63.336 60.093,-31.263 72.017,0.357C83.942,31.976 112.771,51.244 136.356,43.359C136.624,43.269 136.89,43.176 137.155,43.08Z"/>
        <path id="Body" d="M127.902,1.921C208.729,-44.745 300.137,-39.183 331.897,14.333C363.657,67.85 323.82,149.185 242.993,195.851C162.165,242.517 70.758,236.955 38.998,183.439C7.237,129.922 47.074,48.587 127.902,1.921Z" style="fill:rgb(254,194,7);"/>
        <g id="Stripes">
            <path d="M188.793,-16.095C187.039,-14.699 315.054,-20.58 327.076,109.803C391.095,-61.796 189.429,-29.021 188.793,-16.095Z" style="fill:rgb(85,85,85);"/>
            <path d="M327.076,111.159C319.401,-14.647 191.893,-17.614 192.59,-21.35L145.073,-3.751C145.073,-3.751 299.034,-6.142 304.518,142.104L323.15,113.42" style="fill:rgb(254,194,7);"/>
            <path d="M275.897,172.628L304.252,142.104C298.868,-6.332 141.84,-8.914 141.842,-8.859L116.671,5.99C116.437,6.032 279.066,19.108 275.897,172.628Z" style="fill:rgb(85,85,85);"/>
            <path d="M118.8,6.104L91.65,27.286C91.65,27.286 247.73,42.825 246.071,194.336L275.383,174.688C286.256,24.404 117.148,7.374 114.749,9.264" style="fill:rgb(254,194,7);"/>
            <path d="M85.819,30.174L65.463,51.814C65.463,51.814 209.143,53.111 212.42,209.36L246.071,194.336C251.812,38.125 90.484,31.835 85.819,30.174Z" style="fill:rgb(85,85,85);"/>
        </g>
        <path id="Body-outline" serif:id="Body outline" d="M127.902,1.921C208.729,-44.745 300.137,-39.183 331.897,14.333C363.657,67.85 323.82,149.185 242.993,195.851C162.165,242.517 70.758,236.955 38.998,183.439C7.237,129.922 47.074,48.587 127.902,1.921Z" style="fill:none;stroke:black;stroke-width:15px;"/>
        <g id="Wings">
            <path id="Back-wing" serif:id="Back wing" d="M93.143,-71.221C116.727,-79.107 145.556,-59.838 157.481,-28.219C169.406,3.4 159.94,35.473 136.356,43.359C112.771,51.244 83.942,31.976 72.017,0.357C60.093,-31.263 69.559,-63.336 93.143,-71.221Z" style="fill:rgb(167,167,167);"/>
            <path id="Front-wing" serif:id="Front wing" d="M230.475,-49.656C252.167,-33.659 251.1,2.617 228.095,31.302C205.09,59.987 168.802,70.288 147.111,54.291C125.419,38.295 126.486,2.019 149.491,-26.666C172.496,-55.351 208.784,-65.652 230.475,-49.656Z" style="fill:rgb(195,195,195);"/>
        </g>
        <g id="Face">
            <path id="Mouth" d="M81.944,181.947L97.86,166.462L117.594,182.357" style="fill:none;stroke:black;stroke-width:10px;"/>
            <g id="Eyes">
                <g id="Right-eye" serif:id="Right eye">
                    <circle id="Eye-white" serif:id="Eye white" cx="130.511" cy="138.02" r="23.779" style="fill:white;"/>
                    <circle id="Pupil" cx="127.449" cy="134.995" r="20.392"/>
                    <path id="Eye-reflection-top" serif:id="Eye reflection top" d="M116.435,124.142C120.462,120.114 126.262,119.374 129.377,122.489C132.493,125.605 131.752,131.404 127.724,135.432C123.697,139.46 117.897,140.2 114.782,137.085C111.666,133.969 112.407,128.17 116.435,124.142Z" style="fill:white;"/>
                    <path id="Eye-reflection-bottom" serif:id="Eye reflection bottom" d="M137.373,139.908C137.373,139.908 136.174,144.044 131.932,144.949" style="fill:none;stroke:rgb(151,151,151);stroke-width:8px;"/>
                </g>
                <g id="Left-eye" serif:id="Left eye">
                    <circle id="Eye-white1" serif:id="Eye white" cx="69.924" cy="138.02" r="23.779" style="fill:white;"/>
                    <circle id="Pupil1" serif:id="Pupil" cx="66.863" cy="134.995" r="20.392"/>
                    <path id="Eye-reflection-top1" serif:id="Eye reflection top" d="M55.848,124.142C59.876,120.114 65.675,119.374 68.791,122.489C71.906,125.605 71.166,131.404 67.138,135.432C63.11,139.46 57.311,140.2 54.195,137.085C51.08,133.969 51.82,128.17 55.848,124.142Z" style="fill:white;"/>
                    <path id="Eye-reflection-bottom1" serif:id="Eye reflection bottom" d="M76.787,139.908C76.787,139.908 75.588,144.044 71.346,144.949" style="fill:none;stroke:rgb(151,151,151);stroke-width:8px;"/>
                </g>
            </g>
            <g id="Eyebrows">
                <path id="Right-eyebrow" serif:id="Right eyebrow" d="M119.24,93.778C119.24,93.778 123.395,106.434 143.404,100.768" style="fill:none;stroke:black;stroke-width:10px;"/>
                <path id="Left-eyebrow" serif:id="Left eyebrow" d="M80.867,93.778C80.867,93.778 76.712,106.434 56.702,100.768" style="fill:none;stroke:black;stroke-width:10px;"/>
            </g>
        </g>
        <path id="Right-hand" serif:id="Right hand" d="M182.289,231.856L182.289,188.932C182.289,185.303 179.342,182.357 175.713,182.357C172.084,182.357 169.138,185.303 169.138,188.932L169.138,200.823L115.451,200.823C111.908,200.823 109.031,203.7 109.031,207.243C109.031,210.787 111.908,213.664 115.451,213.664L142.207,213.664L142.207,231.856C142.207,236.556 146.023,240.372 150.724,240.372L173.772,240.372C178.473,240.372 182.289,236.556 182.289,231.856Z" style="fill:rgb(151,151,151);"/>
        <path d="M192.289,231.856C192.289,242.075 183.992,250.372 173.772,250.372L150.724,250.372C140.504,250.372 132.207,242.075 132.207,231.856L132.207,223.664L115.451,223.664C106.389,223.664 99.031,216.306 99.031,207.243C99.031,198.181 106.389,190.823 115.451,190.823L159.138,190.823L159.138,188.932C159.138,179.784 166.565,172.357 175.713,172.357C184.862,172.357 192.289,179.784 192.289,188.932L192.289,231.856ZM182.289,231.856L182.289,188.932C182.289,185.303 179.342,182.357 175.713,182.357C172.084,182.357 169.138,185.303 169.138,188.932L169.138,200.823L115.451,200.823C111.908,200.823 109.031,203.7 109.031,207.243C109.031,210.787 111.908,213.664 115.451,213.664L142.207,213.664L142.207,231.856C142.207,236.556 146.023,240.372 150.724,240.372L173.772,240.372C178.473,240.372 182.289,236.556 182.289,231.856Z"/>
        <path id="Left-hand" serif:id="Left hand" d="M18.146,231.856L18.146,188.932C18.146,185.303 21.092,182.357 24.721,182.357C28.351,182.357 31.297,185.303 31.297,188.932L31.297,200.823L84.983,200.823C88.527,200.823 91.404,203.7 91.404,207.243C91.404,210.787 88.527,213.664 84.983,213.664L58.228,213.664L58.228,231.856C58.228,236.556 54.412,240.372 49.711,240.372L26.663,240.372C21.962,240.372 18.146,236.556 18.146,231.856Z" style="fill:rgb(151,151,151);"/>
        <path d="M8.146,231.856L8.146,188.932C8.146,179.784 15.573,172.357 24.721,172.357C33.87,172.357 41.297,179.784 41.297,188.932L41.297,190.823L84.983,190.823C94.046,190.823 101.404,198.181 101.404,207.243C101.404,216.306 94.046,223.664 84.983,223.664L68.228,223.664L68.228,231.856C68.228,242.075 59.931,250.372 49.711,250.372L26.663,250.372C16.443,250.372 8.146,242.075 8.146,231.856ZM18.146,231.856C18.146,236.556 21.962,240.372 26.663,240.372L49.711,240.372C54.412,240.372 58.228,236.556 58.228,231.856L58.228,213.664L84.983,213.664C88.527,213.664 91.404,210.787 91.404,207.243C91.404,203.7 88.527,200.823 84.983,200.823L31.297,200.823L31.297,188.932C31.297,185.303 28.351,182.357 24.721,182.357C21.092,182.357 18.146,185.303 18.146,188.932L18.146,231.856Z"/>
    </g>
</svg>
