<?xml version="1.0" encoding="UTF-8" standalone="no"?>
<!DOCTYPE svg PUBLIC "-//W3C//DTD SVG 1.1//EN" "http://www.w3.org/Graphics/SVG/1.1/DTD/svg11.dtd">
<svg width="100%" height="100%" viewBox="0 0 256 256" version="1.1" xmlns="http://www.w3.org/2000/svg" xmlns:xlink="http://www.w3.org/1999/xlink" xml:space="preserve" xmlns:serif="http://www.serif.com/" style="fill-rule:evenodd;clip-rule:evenodd;stroke-linecap:round;stroke-linejoin:round;stroke-miterlimit:1.5;">
    <rect id="blobbee_upside_down" x="-0" y="0" width="256" height="256" style="fill:none;"/>
    <path id="Wings-outline" serif:id="Wings outline" d="M131.875,135.081C133.329,133.629 134.903,132.275 136.595,131.027C158.012,115.232 194.619,122.462 217.333,150.785C240.504,179.677 238.15,216.243 216.302,232.355C200.352,244.117 176.16,243.273 155.398,230.336C140.561,248.476 118.676,256.543 100.669,250.522C76.387,242.403 63.427,210.408 75.704,177.854C86.045,150.433 110.184,134.09 131.875,135.081ZM138.106,151.424C137.909,151.352 137.711,151.283 137.512,151.217C120,145.361 98.594,159.669 89.739,183.147C80.884,206.625 87.913,230.441 105.425,236.296C121.976,241.83 142.006,229.354 151.63,208.147C168.67,225.629 192.606,231.192 207.399,220.283C223.506,208.405 222.714,181.469 205.632,160.17C188.55,138.87 161.605,131.221 145.498,143.099C142.417,145.371 139.954,148.194 138.106,151.424Z"/>
    <g id="Wings">
        <path id="Back-wing" serif:id="Back wing" d="M105.425,236.296C122.938,242.151 144.344,227.844 153.199,204.366C162.053,180.887 155.024,157.072 137.512,151.217C120,145.361 98.594,159.669 89.739,183.147C80.884,206.625 87.913,230.441 105.425,236.296Z" style="fill:rgb(167,167,167);"/>
        <path id="Front-wing" serif:id="Front wing" d="M207.399,220.283C223.506,208.405 222.714,181.469 205.632,160.17C188.55,138.87 161.605,131.221 145.498,143.099C129.391,154.977 130.183,181.913 147.265,203.212C164.348,224.512 191.292,232.161 207.399,220.283Z" style="fill:rgb(195,195,195);"/>
    </g>
    <path id="Body" d="M85.271,39.946C145.288,5.295 213.16,9.424 236.743,49.162C260.326,88.9 230.747,149.294 170.729,183.945C110.712,218.596 42.84,214.466 19.257,174.728C-4.326,134.991 25.253,74.596 85.271,39.946Z" style="fill:rgb(254,194,7);"/>
    <g id="Stripes">
        <path d="M130.484,26.568C129.182,27.605 224.237,23.238 233.164,120.051C280.7,-7.366 130.957,16.97 130.484,26.568Z" style="fill:rgb(85,85,85);"/>
        <path d="M233.164,121.058C227.465,27.644 132.786,25.44 133.303,22.666L98.021,35.734C98.021,35.734 212.342,33.959 216.414,144.036L230.249,122.737" style="fill:rgb(254,194,7);"/>
        <path d="M195.162,166.701L216.216,144.036C212.218,33.818 95.621,31.901 95.622,31.942L76.931,42.967C76.758,42.999 197.515,52.708 195.162,166.701Z" style="fill:rgb(85,85,85);"/>
        <path d="M78.512,43.051L58.353,58.78C58.353,58.78 174.247,70.319 173.015,182.82L194.78,168.231C202.854,56.64 77.286,43.995 75.505,45.398" style="fill:rgb(254,194,7);"/>
        <path d="M54.023,60.925L38.908,76.993C38.908,76.993 145.595,77.956 148.028,193.976L173.015,182.82C177.278,66.828 57.487,62.157 54.023,60.925Z" style="fill:rgb(85,85,85);"/>
    </g>
    <path id="Body-outline" serif:id="Body outline" d="M85.271,39.946C145.288,5.295 213.16,9.424 236.743,49.162C260.326,88.9 230.747,149.294 170.729,183.945C110.712,218.596 42.84,214.466 19.257,174.728C-4.326,134.991 25.253,74.596 85.271,39.946Z" style="fill:none;stroke:black;stroke-width:15px;"/>
    <g id="Face">
        <path id="Mouth" d="M39.896,136.219L47.929,122.713L58.753,136.195L72.162,122.751L88.135,136.179" style="fill:none;stroke:black;stroke-width:7px;"/>
        <path id="Right-eye" serif:id="Right eye" d="M99.128,166.03L99.128,160.255C99.128,154.187 94.202,149.261 88.135,149.261C82.068,149.261 77.142,154.187 77.142,160.255L77.142,166.03C77.142,172.098 82.068,177.023 88.135,177.023C94.202,177.023 99.128,172.098 99.128,166.03Z"/>
        <path id="Left-eye" serif:id="Left eye" d="M50.889,166.03L50.889,160.255C50.889,154.187 45.963,149.261 39.896,149.261C33.828,149.261 28.903,154.187 28.903,160.255L28.903,166.03C28.903,172.098 33.828,177.023 39.896,177.023C45.963,177.023 50.889,172.098 50.889,166.03Z"/>
    </g>
</svg>
