<?xml version="1.0" encoding="UTF-8" standalone="no"?>
<!DOCTYPE svg PUBLIC "-//W3C//DTD SVG 1.1//EN" "http://www.w3.org/Graphics/SVG/1.1/DTD/svg11.dtd">
<svg width="100%" height="100%" viewBox="0 0 256 256" version="1.1" xmlns="http://www.w3.org/2000/svg" xmlns:xlink="http://www.w3.org/1999/xlink" xml:space="preserve" xmlns:serif="http://www.serif.com/" style="fill-rule:evenodd;clip-rule:evenodd;stroke-linecap:round;stroke-linejoin:round;stroke-miterlimit:1.5;">
    <g transform="matrix(1,0,0,1,-562,-1686)">
        <g id="blobbee_santa" transform="matrix(1,0,0,1,562,1686)">
            <rect x="0" y="0" width="256" height="256" style="fill:none;"/>
            <g id="Beard-outline" serif:id="Beard outline" transform="matrix(1.17559,-0.0379499,0.0297104,0.920356,-1720.22,-1478.57)">
                <path d="M1424.75,1864.84C1424.3,1860.99 1424.62,1857.17 1425.73,1854.19C1427.09,1850.53 1429.13,1848.13 1431.5,1846.85C1432.76,1843.48 1434.75,1840.87 1437.03,1839.57C1439.33,1838.25 1442.17,1838.09 1444.95,1839.15C1447.32,1837.75 1450.09,1837.46 1453.1,1838.66C1455.53,1839.64 1457.92,1841.94 1459.8,1844.99C1461.5,1845.39 1463.27,1846.29 1464.95,1847.83C1467.85,1847.03 1470.86,1847.14 1473.67,1848.01C1476.61,1844.92 1480.55,1842.95 1485.07,1842.95C1489.58,1842.95 1493.52,1844.92 1496.46,1848.01C1500.43,1846.78 1504.8,1847.07 1508.66,1849.3C1508.75,1849.35 1508.84,1849.4 1508.93,1849.46C1510.76,1846.66 1513.01,1844.57 1515.3,1843.65C1518.31,1842.45 1521.08,1842.74 1523.45,1844.13C1526.23,1843.08 1529.07,1843.24 1531.37,1844.55C1533.64,1845.86 1535.64,1848.47 1536.9,1851.84C1539.27,1853.12 1541.31,1855.52 1542.67,1859.18C1543.78,1862.15 1544.1,1865.98 1543.65,1869.83C1544.98,1872.44 1545.85,1875.88 1545.73,1880.02C1545.62,1883.87 1544.55,1887.62 1542.94,1890.79C1543.38,1894.2 1543.11,1897.99 1541.85,1901.81C1540.58,1905.65 1538.64,1908.52 1536.44,1910.46C1535.77,1914.15 1534.39,1917.73 1532.32,1920.46C1530.08,1923.42 1527.55,1924.97 1525.17,1925.54C1523.28,1928.6 1520.87,1930.89 1518.44,1931.87C1517.2,1932.36 1516.01,1932.6 1514.87,1932.6C1513.36,1935.04 1511.3,1937.15 1508.66,1938.68C1504.8,1940.91 1500.43,1941.2 1496.46,1939.97C1493.52,1943.05 1489.58,1945.03 1485.07,1945.03C1480.55,1945.03 1476.61,1943.05 1473.67,1939.97C1469.7,1941.2 1465.33,1940.91 1461.47,1938.68C1457.37,1936.31 1454.58,1932.64 1453.17,1928.47C1451.4,1927.94 1449.73,1927.11 1448.24,1926L1448.22,1925.98C1446.39,1924.81 1444.65,1922.9 1443.21,1920.55C1440.83,1919.98 1438.31,1918.42 1436.08,1915.48C1434.01,1912.75 1432.63,1909.16 1431.96,1905.47C1429.75,1903.53 1427.82,1900.66 1426.55,1896.82C1425.29,1893 1425.02,1889.21 1425.46,1885.8C1423.85,1882.64 1422.78,1878.88 1422.67,1875.03C1422.55,1870.89 1423.42,1867.45 1424.75,1864.84ZM1452.24,1916.4C1454.9,1918.57 1458.73,1919 1461.87,1917.18C1459.53,1921.24 1460.92,1926.44 1464.98,1928.78C1469.03,1931.13 1474.23,1929.73 1476.57,1925.67C1476.57,1930.36 1480.38,1934.17 1485.07,1934.17C1489.75,1934.17 1493.56,1930.36 1493.56,1925.67C1495.9,1929.73 1501.1,1931.13 1505.15,1928.78C1508.23,1927.01 1509.78,1923.58 1509.32,1920.26C1509.89,1919.73 1510.43,1919.02 1510.9,1918.17C1511.26,1918.24 1511.61,1918.28 1511.96,1918.31C1512.46,1920.88 1514.01,1922.26 1515.9,1921.51C1518.21,1920.58 1520.18,1916.81 1520.39,1912.98C1520.42,1912.92 1520.44,1912.86 1520.46,1912.8C1521.58,1915.59 1524.13,1915.66 1526.21,1912.91C1528.32,1910.12 1529.15,1905.47 1528.07,1902.54C1530.07,1903.69 1532.73,1901.46 1534.02,1897.58C1535.3,1893.7 1534.73,1889.61 1532.73,1888.47C1535.1,1887.52 1537.12,1883.55 1537.23,1879.62C1537.35,1875.68 1535.51,1873.26 1533.14,1874.2C1535.25,1871.41 1536.08,1866.77 1534.99,1863.83C1533.9,1860.9 1531.3,1860.79 1529.19,1863.58C1530.48,1859.69 1529.89,1855.61 1527.89,1854.46C1525.89,1853.32 1523.23,1855.54 1521.94,1859.43C1522.06,1855.49 1520.22,1853.07 1517.84,1854.02C1515.47,1854.97 1513.45,1858.93 1513.34,1862.87C1512.34,1860.18 1510.07,1859.86 1508.07,1861.98C1507.36,1860.86 1506.38,1859.9 1505.15,1859.19C1501.1,1856.85 1495.9,1858.24 1493.56,1862.3C1493.56,1857.61 1489.75,1853.81 1485.07,1853.81C1480.38,1853.81 1476.57,1857.61 1476.57,1862.3C1474.23,1858.24 1469.03,1856.85 1464.98,1859.19C1464.05,1859.73 1463.26,1860.41 1462.62,1861.2C1462.23,1859.88 1461.63,1858.63 1460.87,1857.62C1458.75,1854.83 1456.15,1854.95 1455.06,1857.88C1454.95,1853.94 1452.93,1849.98 1450.56,1849.03C1448.18,1848.08 1446.34,1850.5 1446.46,1854.44C1445.17,1850.55 1442.5,1848.33 1440.5,1849.48C1438.5,1850.62 1437.92,1854.7 1439.21,1858.59C1437.1,1855.8 1434.5,1855.91 1433.41,1858.85C1432.32,1861.78 1433.15,1866.43 1435.26,1869.22C1432.89,1868.27 1431.05,1870.69 1431.17,1874.63C1431.28,1878.56 1433.3,1882.53 1435.67,1883.48C1433.67,1884.62 1433.1,1888.71 1434.38,1892.59C1435.67,1896.48 1438.33,1898.7 1440.33,1897.55C1439.25,1900.49 1440.08,1905.13 1442.19,1907.92C1444.3,1910.72 1446.9,1910.6 1447.99,1907.67C1448.1,1911.46 1449.98,1915.28 1452.24,1916.4Z"/>
            </g>
            <g id="Fluff-outline" serif:id="Fluff outline" transform="matrix(1.30505,0,0,1.30505,-2005.24,-2208.93)">
                <path d="M1587.27,1757.18C1587.39,1757.17 1587.52,1757.17 1587.65,1757.17C1589.32,1757.17 1590.9,1757.59 1592.28,1758.32C1593.84,1758.38 1595.42,1758.81 1596.86,1759.64C1597.29,1759.89 1597.69,1760.16 1598.07,1760.45C1598.24,1760.45 1598.41,1760.44 1598.59,1760.44C1600.26,1760.44 1601.84,1760.86 1603.22,1761.59C1604.78,1761.64 1606.35,1762.07 1607.8,1762.91C1607.93,1762.99 1608.06,1763.07 1608.19,1763.15C1608.49,1763.12 1608.79,1763.11 1609.09,1763.11C1610.77,1763.11 1612.34,1763.52 1613.73,1764.25C1615.29,1764.31 1616.86,1764.74 1618.31,1765.58C1618.5,1765.69 1618.68,1765.8 1618.86,1765.92C1619.19,1765.89 1619.53,1765.87 1619.86,1765.87C1621.53,1765.87 1623.11,1766.29 1624.49,1767.02C1626.06,1767.08 1627.63,1767.51 1629.08,1768.34C1629.26,1768.45 1629.44,1768.56 1629.62,1768.67C1629.95,1768.64 1630.29,1768.62 1630.63,1768.62C1632.3,1768.62 1633.88,1769.04 1635.26,1769.77C1636.82,1769.83 1638.4,1770.26 1639.84,1771.09C1641.29,1771.93 1642.45,1773.08 1643.28,1774.4C1644.61,1775.23 1645.75,1776.39 1646.59,1777.84C1647.43,1779.29 1647.86,1780.86 1647.91,1782.42C1648.65,1783.81 1649.06,1785.38 1649.06,1787.05C1649.06,1788.73 1648.65,1790.3 1647.91,1791.68C1647.86,1793.25 1647.43,1794.82 1646.59,1796.27C1645.75,1797.72 1644.61,1798.88 1643.28,1799.71C1642.45,1801.03 1641.29,1802.18 1639.84,1803.02C1638.4,1803.85 1636.82,1804.28 1635.26,1804.34C1633.88,1805.07 1632.3,1805.48 1630.63,1805.48C1628.96,1805.48 1627.38,1805.07 1626,1804.34C1624.43,1804.28 1622.86,1803.85 1621.41,1803.02C1621.23,1802.91 1621.05,1802.8 1620.88,1802.68C1620.54,1802.72 1620.2,1802.73 1619.86,1802.73C1618.19,1802.73 1616.61,1802.32 1615.23,1801.59C1613.67,1801.53 1612.1,1801.1 1610.65,1800.26C1610.46,1800.15 1610.27,1800.04 1610.09,1799.92C1609.76,1799.95 1609.43,1799.97 1609.09,1799.97C1607.42,1799.97 1605.85,1799.55 1604.46,1798.82C1602.9,1798.77 1601.33,1798.34 1599.88,1797.5C1599.75,1797.42 1599.62,1797.34 1599.49,1797.26C1599.19,1797.29 1598.89,1797.3 1598.59,1797.3C1596.91,1797.3 1595.34,1796.89 1593.95,1796.16C1592.39,1796.1 1590.82,1795.67 1589.37,1794.83C1588.94,1794.59 1588.55,1794.31 1588.17,1794.02C1588,1794.03 1587.82,1794.03 1587.65,1794.03C1585.98,1794.03 1584.4,1793.62 1583.02,1792.89C1581.45,1792.83 1579.88,1792.4 1578.43,1791.56C1577.99,1791.3 1577.57,1791.02 1577.17,1790.7C1577.05,1790.71 1576.92,1790.71 1576.79,1790.71C1575.12,1790.71 1573.54,1790.29 1572.16,1789.56C1570.6,1789.51 1569.03,1789.08 1567.58,1788.24C1566.13,1787.4 1564.97,1786.26 1564.14,1784.93C1562.81,1784.1 1561.67,1782.94 1560.83,1781.49C1559.99,1780.05 1559.57,1778.47 1559.51,1776.91C1558.78,1775.53 1558.36,1773.95 1558.36,1772.28C1558.36,1770.61 1558.78,1769.03 1559.51,1767.65C1559.57,1766.08 1559.99,1764.51 1560.83,1763.06C1561.67,1761.62 1562.81,1760.46 1564.14,1759.62C1564.97,1758.3 1566.13,1757.15 1567.58,1756.32C1569.03,1755.48 1570.6,1755.05 1572.16,1754.99C1573.54,1754.26 1575.12,1753.85 1576.79,1753.85C1578.46,1753.85 1580.04,1754.26 1581.42,1754.99C1582.99,1755.05 1584.56,1755.48 1586.01,1756.32C1586.45,1756.58 1586.88,1756.86 1587.27,1757.18ZM1578.89,1781.64C1579.56,1782.16 1580.49,1782.28 1581.29,1781.89C1581.33,1781.89 1581.36,1781.88 1581.4,1781.88C1580.82,1782.96 1581.2,1784.31 1582.27,1784.93C1583.35,1785.56 1584.75,1785.18 1585.37,1784.09C1585.37,1785.35 1586.39,1786.37 1587.65,1786.37C1588.63,1786.37 1589.47,1785.75 1589.79,1784.88C1590.42,1785.4 1591.31,1785.55 1592.1,1785.22C1592.17,1785.22 1592.24,1785.21 1592.31,1785.19C1591.77,1786.26 1592.15,1787.59 1593.2,1788.2C1594.29,1788.82 1595.68,1788.45 1596.31,1787.36C1596.31,1788.62 1597.33,1789.64 1598.59,1789.64C1599.67,1789.64 1600.58,1788.88 1600.81,1787.86C1601.01,1787.95 1601.24,1788.01 1601.46,1788.04C1601.8,1788.3 1602.19,1788.45 1602.61,1788.49C1602.44,1789.41 1602.86,1790.37 1603.71,1790.86C1604.8,1791.49 1606.19,1791.12 1606.82,1790.03C1606.82,1791.29 1607.84,1792.31 1609.09,1792.31C1610.19,1792.31 1611.11,1791.53 1611.32,1790.49C1611.55,1790.63 1611.81,1790.73 1612.07,1790.78C1612.46,1791.04 1612.92,1791.18 1613.39,1791.17C1613.19,1792.11 1613.6,1793.12 1614.48,1793.63C1615.57,1794.26 1616.96,1793.88 1617.59,1792.79C1617.59,1794.05 1618.61,1795.07 1619.86,1795.07C1620.96,1795.07 1621.88,1794.29 1622.09,1793.24C1622.32,1793.38 1622.56,1793.47 1622.81,1793.53C1623.21,1793.8 1623.68,1793.94 1624.16,1793.93C1623.96,1794.87 1624.37,1795.87 1625.25,1796.38C1626.33,1797.01 1627.73,1796.63 1628.35,1795.55C1628.35,1796.8 1629.37,1797.82 1630.63,1797.82C1631.88,1797.82 1632.9,1796.8 1632.9,1795.55C1633.53,1796.63 1634.93,1797.01 1636.01,1796.38C1637.1,1795.75 1637.47,1794.36 1636.85,1793.27C1637.93,1793.9 1639.33,1793.53 1639.95,1792.44C1640.58,1791.35 1640.21,1789.96 1639.12,1789.33C1640.38,1789.33 1641.4,1788.31 1641.4,1787.05C1641.4,1785.8 1640.38,1784.78 1639.12,1784.78C1640.21,1784.15 1640.58,1782.76 1639.95,1781.67C1639.33,1780.58 1637.93,1780.21 1636.85,1780.84C1637.47,1779.75 1637.1,1778.36 1636.01,1777.73C1634.93,1777.1 1633.53,1777.47 1632.9,1778.56C1632.9,1777.31 1631.88,1776.29 1630.63,1776.29C1629.53,1776.29 1628.61,1777.07 1628.4,1778.11C1628.18,1777.98 1627.93,1777.88 1627.68,1777.83C1627.29,1777.56 1626.81,1777.41 1626.33,1777.42C1626.53,1776.49 1626.12,1775.48 1625.25,1774.98C1624.16,1774.35 1622.77,1774.72 1622.14,1775.81C1622.14,1774.55 1621.12,1773.54 1619.86,1773.54C1618.76,1773.54 1617.85,1774.31 1617.63,1775.35C1617.4,1775.21 1617.15,1775.11 1616.88,1775.06C1616.5,1774.8 1616.03,1774.66 1615.56,1774.67C1615.77,1773.73 1615.36,1772.72 1614.48,1772.21C1613.39,1771.59 1612,1771.96 1611.37,1773.05C1611.37,1771.79 1610.35,1770.77 1609.09,1770.77C1608.01,1770.77 1607.1,1771.53 1606.87,1772.55C1606.67,1772.46 1606.44,1772.4 1606.22,1772.37C1605.88,1772.11 1605.49,1771.96 1605.07,1771.92C1605.24,1771 1604.82,1770.04 1603.97,1769.55C1602.88,1768.92 1601.49,1769.29 1600.86,1770.38C1600.86,1769.12 1599.84,1768.1 1598.59,1768.1C1597.61,1768.1 1596.77,1768.73 1596.45,1769.6C1595.81,1769.08 1594.92,1768.93 1594.14,1769.25C1594.07,1769.26 1594,1769.27 1593.92,1769.28C1594.47,1768.21 1594.09,1766.88 1593.03,1766.28C1591.94,1765.65 1590.55,1766.02 1589.92,1767.11C1589.92,1765.85 1588.9,1764.83 1587.65,1764.83C1586.7,1764.83 1585.89,1765.41 1585.55,1766.24C1584.88,1765.72 1583.95,1765.6 1583.15,1765.99C1583.11,1765.99 1583.08,1766 1583.04,1766C1583.62,1764.92 1583.24,1763.57 1582.17,1762.95C1581.09,1762.33 1579.69,1762.7 1579.07,1763.79C1579.07,1762.53 1578.05,1761.51 1576.79,1761.51C1575.54,1761.51 1574.52,1762.53 1574.52,1763.79C1573.89,1762.7 1572.5,1762.33 1571.41,1762.95C1570.32,1763.58 1569.95,1764.97 1570.58,1766.06C1569.49,1765.43 1568.09,1765.81 1567.47,1766.89C1566.84,1767.98 1567.21,1769.38 1568.3,1770C1567.04,1770 1566.02,1771.02 1566.02,1772.28C1566.02,1773.53 1567.04,1774.55 1568.3,1774.55C1567.21,1775.18 1566.84,1776.57 1567.47,1777.66C1568.09,1778.75 1569.49,1779.12 1570.58,1778.5C1569.95,1779.58 1570.32,1780.98 1571.41,1781.6C1572.5,1782.23 1573.89,1781.86 1574.52,1780.77C1574.52,1782.03 1575.54,1783.05 1576.79,1783.05C1577.74,1783.05 1578.55,1782.47 1578.89,1781.64Z"/>
            </g>
            <g id="Bee" transform="matrix(0.896875,0,0,0.896875,8.64637,8.80464)">
                <g id="Sting" transform="matrix(0.78314,0.139967,-0.135634,0.7589,67.2303,-21.11)">
                    <path d="M189.771,56.854L238.765,34.355L235.05,81.388" style="fill:rgb(104,104,104);stroke:black;stroke-width:14.23px;"/>
                </g>
                <g id="Body" transform="matrix(0.994109,-0.573949,0.761422,1.28301,-120.17,92.6047)">
                    <ellipse cx="168.926" cy="110.515" rx="107.942" ry="55.376" style="fill:rgb(104,104,104);stroke:black;stroke-width:8.33px;"/>
                </g>
                <g id="Wings-outline" serif:id="Wings outline" transform="matrix(0.959562,0.127262,-0.127262,0.959562,7.56883,-6.44254)">
                    <g transform="matrix(1.17688,-0.575088,0.651434,1.21399,-55.8934,35.953)">
                        <path d="M87.467,13.183C105.725,13.183 121.971,31.284 121.971,54.873C121.971,78.843 105.352,97.198 86.799,97.198C68.541,97.198 52.294,79.098 52.294,55.508C52.294,31.538 68.914,13.183 87.467,13.183ZM87.133,21.55C72.762,21.55 61.095,36.624 61.095,55.191C61.095,73.758 72.762,88.832 87.133,88.832C101.504,88.832 113.171,73.758 113.171,55.191C113.171,36.624 101.504,21.55 87.133,21.55Z"/>
                    </g>
                    <g transform="matrix(1.24343,0.685066,-0.776012,1.28263,74.2693,-72.8119)">
                        <path d="M86.804,13.859C105.031,13.859 121.292,31.953 121.292,55.502C121.292,78.678 105.4,96.522 87.462,96.522C69.235,96.522 52.974,78.428 52.974,54.879C52.974,31.703 68.866,13.859 86.804,13.859ZM87.133,21.55C72.762,21.55 61.095,36.624 61.095,55.191C61.095,73.758 72.762,88.832 87.133,88.832C101.504,88.832 113.171,73.758 113.171,55.191C113.171,36.624 101.504,21.55 87.133,21.55Z"/>
                    </g>
                </g>
                <g id="Stripes" transform="matrix(1,0,0,1,4.4273,10.012)">
                    <g transform="matrix(1,-7.43708e-18,-7.43708e-18,1,92.3462,-63.8411)">
                        <path d="M37.588,107.021C36.302,108.044 130.102,103.736 138.911,199.269C185.818,73.536 38.054,97.55 37.588,107.021Z" style="fill:rgb(254,194,7);stroke:black;stroke-width:3.34px;"/>
                    </g>
                    <g transform="matrix(1,-7.43708e-18,-7.43708e-18,1,73.4912,-52.6421)">
                        <path d="M157.766,189.064C152.141,96.884 58.714,94.709 59.225,91.972L24.408,104.867C24.408,104.867 137.219,103.115 141.236,211.738L154.889,190.72" style="fill:rgb(104,104,104);stroke:black;stroke-width:3.34px;"/>
                    </g>
                    <g transform="matrix(1,-7.43708e-18,-7.43708e-18,1,55.5726,-39.8214)">
                        <path d="M138.184,221.282L158.96,198.917C155.015,90.156 39.958,88.264 39.959,88.304L21.516,99.184C21.345,99.215 140.506,108.796 138.184,221.282Z" style="fill:rgb(254,194,7);stroke:black;stroke-width:3.34px;"/>
                    </g>
                    <g transform="matrix(1,-7.43708e-18,-7.43708e-18,1,25.9786,-19.0024)">
                        <path d="M52.67,78.448L32.777,93.969C32.777,93.969 147.14,105.355 145.924,216.369L167.401,201.973C175.368,91.857 51.46,79.379 49.702,80.764" style="fill:rgb(104,104,104);stroke:black;stroke-width:3.34px;"/>
                    </g>
                    <g transform="matrix(1,-7.43708e-18,-7.43708e-18,1,-0.424026,-0.546032)">
                        <path d="M54.907,77.629L39.992,93.485C39.992,93.485 145.269,94.435 147.67,208.921L172.327,197.913C176.533,83.454 58.325,78.845 54.907,77.629Z" style="fill:rgb(254,194,7);stroke:black;stroke-width:3.34px;"/>
                    </g>
                </g>
                <g id="Body-outline" serif:id="Body outline" transform="matrix(0.994109,-0.573949,0.761422,1.28301,-120.17,92.6047)">
                    <ellipse cx="168.926" cy="110.515" rx="107.942" ry="55.376" style="fill:none;stroke:black;stroke-width:8.33px;"/>
                </g>
                <g id="Wings" transform="matrix(0.959562,0.127262,-0.127262,0.959562,7.56883,-6.44254)">
                    <g id="Back-wing" serif:id="Back wing" transform="matrix(1.17688,-0.575088,0.651434,1.21399,-55.8934,35.953)">
                        <ellipse cx="87.133" cy="55.191" rx="26.038" ry="33.641" style="fill:rgb(195,195,195);stroke:black;stroke-width:2.52px;"/>
                    </g>
                    <g id="Front-wing" serif:id="Front wing" transform="matrix(0.946806,0,0,0.999012,5.86837,0.313874)">
                        <g id="Front-wing-main" serif:id="Front wing main" transform="matrix(1.31328,0.685743,-0.81961,1.2839,72.2439,-73.1981)">
                            <ellipse cx="87.133" cy="55.191" rx="26.038" ry="33.641" style="fill:rgb(195,195,195);stroke:black;stroke-width:2.42px;"/>
                        </g>
                        <path id="Front-wing-line" serif:id="Front wing line" d="M119.334,101.013C123.249,82.03 129.669,61.104 148.451,47.276" style="fill:none;stroke:black;stroke-width:3.55px;"/>
                    </g>
                </g>
                <g id="Beard" transform="matrix(1.31077,-0.0423135,0.0331266,1.02618,-1927.66,-1658.4)">
                    <path d="M1452.24,1916.4C1449.98,1915.28 1448.1,1911.46 1447.99,1907.67C1446.9,1910.6 1444.3,1910.72 1442.19,1907.92C1440.08,1905.13 1439.25,1900.49 1440.33,1897.55C1438.33,1898.7 1435.67,1896.48 1434.38,1892.59C1433.1,1888.71 1433.67,1884.62 1435.67,1883.48C1433.3,1882.53 1431.28,1878.56 1431.17,1874.63C1431.05,1870.69 1432.89,1868.27 1435.26,1869.22C1433.15,1866.43 1432.32,1861.78 1433.41,1858.85C1434.5,1855.91 1437.1,1855.8 1439.21,1858.59C1437.92,1854.7 1438.5,1850.62 1440.5,1849.48C1442.5,1848.33 1445.17,1850.55 1446.46,1854.44C1446.34,1850.5 1448.18,1848.08 1450.56,1849.03C1452.93,1849.98 1454.95,1853.94 1455.06,1857.88C1456.15,1854.95 1458.75,1854.83 1460.87,1857.62C1461.63,1858.63 1462.23,1859.88 1462.62,1861.2C1463.26,1860.41 1464.05,1859.73 1464.98,1859.19C1469.03,1856.85 1474.23,1858.24 1476.57,1862.3C1476.57,1857.61 1480.38,1853.81 1485.07,1853.81C1489.75,1853.81 1493.56,1857.61 1493.56,1862.3C1495.9,1858.24 1501.1,1856.85 1505.15,1859.19C1506.38,1859.9 1507.36,1860.86 1508.07,1861.98C1510.07,1859.86 1512.34,1860.18 1513.34,1862.87C1513.45,1858.93 1515.47,1854.97 1517.84,1854.02C1520.22,1853.07 1522.06,1855.49 1521.94,1859.43C1523.23,1855.54 1525.89,1853.32 1527.89,1854.46C1529.89,1855.61 1530.48,1859.69 1529.19,1863.58C1531.3,1860.79 1533.9,1860.9 1534.99,1863.83C1536.08,1866.77 1535.25,1871.41 1533.14,1874.2C1535.51,1873.26 1537.35,1875.68 1537.23,1879.62C1537.12,1883.55 1535.1,1887.52 1532.73,1888.47C1534.73,1889.61 1535.3,1893.7 1534.02,1897.58C1532.73,1901.46 1530.07,1903.69 1528.07,1902.54C1529.15,1905.47 1528.32,1910.12 1526.21,1912.91C1524.13,1915.66 1521.58,1915.59 1520.46,1912.8C1520.44,1912.86 1520.42,1912.92 1520.39,1912.98C1520.18,1916.81 1518.21,1920.58 1515.9,1921.51C1514.01,1922.26 1512.46,1920.88 1511.96,1918.31C1511.61,1918.28 1511.26,1918.24 1510.9,1918.17C1510.43,1919.02 1509.89,1919.73 1509.32,1920.26C1509.78,1923.58 1508.23,1927.01 1505.15,1928.78C1501.1,1931.13 1495.9,1929.73 1493.56,1925.67C1493.56,1930.36 1489.75,1934.17 1485.07,1934.17C1480.38,1934.17 1476.57,1930.36 1476.57,1925.67C1474.23,1929.73 1469.03,1931.13 1464.98,1928.78C1460.92,1926.44 1459.53,1921.24 1461.87,1917.18C1458.73,1919 1454.9,1918.57 1452.24,1916.4Z" style="fill:rgb(238,238,238);"/>
                    <path d="M1521.93,1918.05C1520.77,1921.22 1518.78,1923.77 1516.66,1924.62C1514.89,1925.32 1513.29,1924.95 1512.01,1923.88C1511.92,1923.81 1511.84,1923.73 1511.75,1923.65C1511.17,1926.94 1509.29,1929.97 1506.2,1931.75C1502.51,1933.88 1498.1,1933.48 1494.79,1931.19C1492.95,1934.83 1489.35,1937.42 1485.07,1937.42C1480.78,1937.42 1477.18,1934.83 1475.34,1931.19C1472.03,1933.48 1467.62,1933.88 1463.92,1931.75C1460.17,1929.58 1458.15,1925.63 1458.13,1921.56C1455.61,1921.67 1453.09,1920.88 1451.08,1919.31L1451.07,1919.3C1449.2,1918.25 1447.5,1915.91 1446.47,1913.07C1446.17,1913.14 1445.87,1913.18 1445.57,1913.2C1443.92,1913.27 1442.01,1912.38 1440.36,1910.19C1438.46,1907.68 1437.4,1904.04 1437.35,1900.72C1437.13,1900.62 1436.91,1900.51 1436.69,1900.39C1434.88,1899.34 1433.09,1897.05 1432.03,1893.86C1430.99,1890.71 1430.92,1887.45 1431.57,1885.02C1431.65,1884.7 1431.75,1884.39 1431.86,1884.1C1430.04,1881.78 1428.72,1878.29 1428.62,1874.75C1428.53,1871.72 1429.31,1869.33 1430.45,1867.83C1430.69,1867.51 1430.94,1867.23 1431.21,1866.98C1430.22,1863.72 1430.13,1860.07 1431.1,1857.45C1432.12,1854.72 1433.88,1853.4 1435.84,1853.31C1435.9,1853.31 1435.96,1853.31 1436.02,1853.31C1436.09,1852.49 1436.21,1851.72 1436.4,1851.02C1436.96,1848.89 1438.04,1847.32 1439.46,1846.5C1440.91,1845.67 1442.55,1845.72 1444.15,1846.64C1444.65,1846.93 1445.14,1847.32 1445.63,1847.79C1445.66,1847.74 1445.7,1847.69 1445.74,1847.64C1447.13,1845.8 1449.09,1845.03 1451.32,1845.92C1453.44,1846.77 1455.43,1849.32 1456.58,1852.48C1456.88,1852.41 1457.18,1852.36 1457.49,1852.35C1459.14,1852.28 1461.04,1853.17 1462.7,1855.36C1462.97,1855.72 1463.23,1856.1 1463.47,1856.5C1463.62,1856.41 1463.77,1856.31 1463.92,1856.22C1467.62,1854.09 1472.03,1854.49 1475.34,1856.79C1477.18,1853.14 1480.78,1850.55 1485.07,1850.55C1489.35,1850.55 1492.95,1853.14 1494.79,1856.79C1498.1,1854.49 1502.51,1854.09 1506.2,1856.22C1507.04,1856.7 1507.78,1857.28 1508.43,1857.92C1509.45,1857.4 1510.47,1857.24 1511.39,1857.39C1511.54,1857.41 1511.68,1857.44 1511.82,1857.48C1512.97,1854.31 1514.96,1851.76 1517.08,1850.91C1519.31,1850.02 1521.27,1850.79 1522.66,1852.62C1522.7,1852.67 1522.74,1852.72 1522.77,1852.78C1523.25,1852.3 1523.75,1851.92 1524.25,1851.63C1525.85,1850.71 1527.49,1850.66 1528.94,1851.49C1530.36,1852.3 1531.44,1853.88 1532,1856C1532.19,1856.71 1532.31,1857.48 1532.38,1858.3C1532.44,1858.3 1532.5,1858.3 1532.56,1858.3C1534.52,1858.39 1536.28,1859.71 1537.3,1862.44C1538.27,1865.06 1538.18,1868.71 1537.19,1871.97C1537.46,1872.22 1537.71,1872.5 1537.95,1872.81C1539.09,1874.32 1539.87,1876.71 1539.78,1879.74C1539.68,1883.27 1538.36,1886.76 1536.54,1889.09C1536.65,1889.38 1536.75,1889.69 1536.83,1890.01C1537.47,1892.44 1537.41,1895.69 1536.37,1898.85C1535.31,1902.03 1533.52,1904.33 1531.71,1905.38C1531.49,1905.5 1531.27,1905.61 1531.05,1905.7C1531,1909.03 1529.94,1912.67 1528.04,1915.18C1526.42,1917.32 1524.56,1918.22 1522.93,1918.19C1522.59,1918.18 1522.26,1918.14 1521.93,1918.05ZM1452.24,1916.4C1454.9,1918.57 1458.73,1919 1461.87,1917.18C1459.53,1921.24 1460.92,1926.44 1464.98,1928.78C1469.03,1931.13 1474.23,1929.73 1476.57,1925.67C1476.57,1930.36 1480.38,1934.17 1485.07,1934.17C1489.75,1934.17 1493.56,1930.36 1493.56,1925.67C1495.9,1929.73 1501.1,1931.13 1505.15,1928.78C1508.23,1927.01 1509.78,1923.58 1509.32,1920.26C1509.89,1919.73 1510.43,1919.02 1510.9,1918.17C1511.26,1918.24 1511.61,1918.28 1511.96,1918.31C1512.46,1920.88 1514.01,1922.26 1515.9,1921.51C1518.21,1920.58 1520.18,1916.81 1520.39,1912.98C1520.42,1912.92 1520.44,1912.86 1520.46,1912.8C1521.58,1915.59 1524.13,1915.66 1526.21,1912.91C1528.32,1910.12 1529.15,1905.47 1528.07,1902.54C1530.07,1903.69 1532.73,1901.46 1534.02,1897.58C1535.3,1893.7 1534.73,1889.61 1532.73,1888.47C1535.1,1887.52 1537.12,1883.55 1537.23,1879.62C1537.35,1875.68 1535.51,1873.26 1533.14,1874.2C1535.25,1871.41 1536.08,1866.77 1534.99,1863.83C1533.9,1860.9 1531.3,1860.79 1529.19,1863.58C1530.48,1859.69 1529.89,1855.61 1527.89,1854.46C1525.89,1853.32 1523.23,1855.54 1521.94,1859.43C1522.06,1855.49 1520.22,1853.07 1517.84,1854.02C1515.47,1854.97 1513.45,1858.93 1513.34,1862.87C1512.34,1860.18 1510.07,1859.86 1508.07,1861.98C1507.36,1860.86 1506.38,1859.9 1505.15,1859.19C1501.1,1856.85 1495.9,1858.24 1493.56,1862.3C1493.56,1857.61 1489.75,1853.81 1485.07,1853.81C1480.38,1853.81 1476.57,1857.61 1476.57,1862.3C1474.23,1858.24 1469.03,1856.85 1464.98,1859.19C1464.05,1859.73 1463.26,1860.41 1462.62,1861.2C1462.23,1859.88 1461.63,1858.63 1460.87,1857.62C1458.75,1854.83 1456.15,1854.95 1455.06,1857.88C1454.95,1853.94 1452.93,1849.98 1450.56,1849.03C1448.18,1848.08 1446.34,1850.5 1446.46,1854.44C1445.17,1850.55 1442.5,1848.33 1440.5,1849.48C1438.5,1850.62 1437.92,1854.7 1439.21,1858.59C1437.1,1855.8 1434.5,1855.91 1433.41,1858.85C1432.32,1861.78 1433.15,1866.43 1435.26,1869.22C1432.89,1868.27 1431.05,1870.69 1431.17,1874.63C1431.28,1878.56 1433.3,1882.53 1435.67,1883.48C1433.67,1884.62 1433.1,1888.71 1434.38,1892.59C1435.67,1896.48 1438.33,1898.7 1440.33,1897.55C1439.25,1900.49 1440.08,1905.13 1442.19,1907.92C1444.3,1910.72 1446.9,1910.6 1447.99,1907.67C1448.1,1911.46 1449.98,1915.28 1452.24,1916.4Z"/>
                </g>
                <g id="Face" transform="matrix(0.9776,0,0,0.9776,-3.9305,10.267)">
                    <g id="Mouth" transform="matrix(0.658566,-1.17246e-18,-3.87825e-17,0.848272,7.14187,47.7639)">
                        <path d="M79.429,171.352L92.31,191.237L108.219,172.744L128,191.722L152.351,171.648" style="fill:none;stroke:black;stroke-width:19.53px;stroke-miterlimit:2;"/>
                        <path d="M79.429,171.352L92.31,191.237L108.219,172.744L128,191.722L152.351,171.648" style="fill:none;stroke:rgb(235,235,235);stroke-width:7.51px;"/>
                    </g>
                    <g id="Eyes" transform="matrix(0.856324,0.124954,-0.124954,0.856324,35.143,7.15355)">
                        <g id="Right-eye" serif:id="Right eye" transform="matrix(1.56791,-0.228787,0.215752,1.47858,-150.38,17.2361)">
                            <path d="M154.615,113.255C154.615,107.493 150.203,102.815 144.77,102.815C139.336,102.815 134.924,107.493 134.924,113.255L134.924,120.6C134.924,126.362 139.336,131.04 144.77,131.04C150.203,131.04 154.615,126.362 154.615,120.6L154.615,113.255Z" style="fill:rgb(235,235,235);stroke:black;stroke-width:2.57px;"/>
                        </g>
                        <g id="Right-eye1" serif:id="Right eye" transform="matrix(0.639006,-0.0932429,0.104024,0.712889,-4.68472,94.5194)">
                            <path d="M154.615,111.64C154.615,106.77 150.203,102.815 144.77,102.815C139.336,102.815 134.924,106.77 134.924,111.64L134.924,122.216C134.924,127.086 139.336,131.04 144.77,131.04C150.203,131.04 154.615,127.086 154.615,122.216L154.615,111.64Z"/>
                        </g>
                        <g id="Left-eye" serif:id="Left eye" transform="matrix(1.56791,-0.228787,0.215752,1.47858,-201.077,24.6337)">
                            <path d="M154.615,113.255C154.615,107.493 150.203,102.815 144.77,102.815C139.336,102.815 134.924,107.493 134.924,113.255L134.924,120.6C134.924,126.362 139.336,131.04 144.77,131.04C150.203,131.04 154.615,126.362 154.615,120.6L154.615,113.255Z" style="fill:rgb(235,235,235);stroke:black;stroke-width:2.57px;"/>
                        </g>
                        <g id="Right-eye2" serif:id="Right eye" transform="matrix(0.639006,-0.0932429,0.104024,0.712889,-55.3816,101.917)">
                            <path d="M154.615,111.64C154.615,106.77 150.203,102.815 144.77,102.815C139.336,102.815 134.924,106.77 134.924,111.64L134.924,122.216C134.924,127.086 139.336,131.04 144.77,131.04C150.203,131.04 154.615,127.086 154.615,122.216L154.615,111.64Z"/>
                        </g>
                    </g>
                </g>
            </g>
            <g>
                <g id="Hat" transform="matrix(1.77731,0.571545,-0.569869,1.77209,-1456.08,-3805.2)">
                    <path d="M1443.34,1726.06L1456.79,1752.78C1456.79,1756.17 1443.77,1756.14 1432.16,1756.14C1420.57,1756.14 1405.76,1756.6 1405.76,1753.22L1416.71,1722.94C1416.93,1722.43 1422.72,1711.4 1427.32,1708.86C1440.84,1701.39 1451.68,1713.74 1455.75,1719.02C1460.21,1724.82 1455.01,1725.8 1447.17,1724.22C1440.37,1722.84 1443.34,1726.06 1443.34,1726.06Z" style="fill:rgb(250,41,41);"/>
                    <path d="M1444.88,1725.56L1458.23,1752.06C1458.34,1752.28 1458.4,1752.53 1458.4,1752.78C1458.4,1753.63 1458.06,1754.41 1457.33,1755.06C1456.66,1755.66 1455.55,1756.19 1454.06,1756.56C1449.41,1757.74 1440.43,1757.75 1432.16,1757.75C1423.93,1757.75 1414.11,1757.96 1408.95,1756.92C1407.34,1756.6 1406.12,1756.12 1405.39,1755.56C1404.54,1754.9 1404.15,1754.1 1404.15,1753.22C1404.15,1753.03 1404.18,1752.85 1404.25,1752.67L1415.2,1722.39C1415.21,1722.37 1415.22,1722.34 1415.23,1722.31C1415.37,1721.99 1417.57,1717.74 1420.35,1713.83C1422.3,1711.1 1424.55,1708.56 1426.54,1707.45C1440.99,1699.47 1452.68,1712.39 1457.02,1718.03C1458.78,1720.32 1459.19,1722.12 1458.91,1723.35C1458.59,1724.76 1457.46,1725.83 1455.48,1726.26C1453.48,1726.7 1450.42,1726.52 1446.85,1725.8C1446.12,1725.65 1445.42,1725.58 1444.88,1725.56ZM1443.34,1726.06C1443.34,1726.06 1440.37,1722.84 1447.17,1724.22C1455.01,1725.8 1460.21,1724.82 1455.75,1719.02C1451.68,1713.74 1440.84,1701.39 1427.32,1708.86C1422.72,1711.4 1416.93,1722.43 1416.71,1722.94L1405.76,1753.22C1405.76,1756.6 1420.57,1756.14 1432.16,1756.14C1443.77,1756.14 1456.79,1756.17 1456.79,1752.78L1443.34,1726.06Z"/>
                </g>
                <g id="Bobble" transform="matrix(1.30505,0,0,1.30505,-1906.6,-2230.25)">
                    <path d="M1574.52,1763.79C1574.52,1762.53 1575.54,1761.51 1576.79,1761.51C1578.05,1761.51 1579.07,1762.53 1579.07,1763.79C1579.69,1762.7 1581.09,1762.33 1582.17,1762.95C1583.26,1763.58 1583.64,1764.97 1583.01,1766.06C1584.1,1765.43 1585.49,1765.81 1586.12,1766.89C1586.74,1767.98 1586.37,1769.38 1585.28,1770C1586.54,1770 1587.56,1771.02 1587.56,1772.28C1587.56,1773.53 1586.54,1774.55 1585.28,1774.55C1586.37,1775.18 1586.74,1776.57 1586.12,1777.66C1585.49,1778.75 1584.1,1779.12 1583.01,1778.5C1583.64,1779.58 1583.26,1780.98 1582.17,1781.6C1581.09,1782.23 1579.69,1781.86 1579.07,1780.77C1579.07,1782.03 1578.05,1783.05 1576.79,1783.05C1575.54,1783.05 1574.52,1782.03 1574.52,1780.77C1573.89,1781.86 1572.5,1782.23 1571.41,1781.6C1570.32,1780.98 1569.95,1779.58 1570.58,1778.5C1569.49,1779.12 1568.09,1778.75 1567.47,1777.66C1566.84,1776.57 1567.21,1775.18 1568.3,1774.55C1567.04,1774.55 1566.02,1773.53 1566.02,1772.28C1566.02,1771.02 1567.04,1770 1568.3,1770C1567.21,1769.38 1566.84,1767.98 1567.47,1766.89C1568.09,1765.81 1569.49,1765.43 1570.58,1766.06C1569.95,1764.97 1570.32,1763.58 1571.41,1762.95C1572.5,1762.33 1573.89,1762.7 1574.52,1763.79Z" style="fill:rgb(238,238,238);"/>
                    <path d="M1573.63,1760.48C1574.45,1759.69 1575.57,1759.21 1576.79,1759.21C1578.02,1759.21 1579.13,1759.69 1579.95,1760.48C1581.06,1760.21 1582.26,1760.35 1583.33,1760.96C1584.39,1761.58 1585.11,1762.55 1585.43,1763.64C1586.52,1763.96 1587.49,1764.68 1588.11,1765.75C1588.72,1766.81 1588.86,1768.01 1588.59,1769.12C1589.38,1769.94 1589.86,1771.05 1589.86,1772.28C1589.86,1773.5 1589.38,1774.62 1588.59,1775.44C1588.86,1776.54 1588.72,1777.75 1588.11,1778.81C1587.49,1779.87 1586.52,1780.6 1585.43,1780.91C1585.11,1782.01 1584.39,1782.98 1583.33,1783.59C1582.26,1784.21 1581.06,1784.35 1579.95,1784.08C1579.13,1784.86 1578.02,1785.34 1576.79,1785.34C1575.57,1785.34 1574.45,1784.86 1573.63,1784.08C1572.53,1784.35 1571.32,1784.21 1570.26,1783.59C1569.2,1782.98 1568.47,1782.01 1568.16,1780.91C1567.06,1780.6 1566.09,1779.87 1565.48,1778.81C1564.86,1777.75 1564.72,1776.54 1565,1775.44C1564.21,1774.62 1563.73,1773.5 1563.73,1772.28C1563.73,1771.05 1564.21,1769.94 1564.99,1769.12C1564.72,1768.01 1564.86,1766.81 1565.48,1765.75C1566.09,1764.68 1567.06,1763.96 1568.15,1763.64C1568.47,1762.55 1569.2,1761.58 1570.26,1760.96C1571.32,1760.35 1572.53,1760.21 1573.63,1760.48ZM1574.52,1763.79C1573.89,1762.7 1572.5,1762.33 1571.41,1762.95C1570.32,1763.58 1569.95,1764.97 1570.58,1766.06C1569.49,1765.43 1568.09,1765.81 1567.47,1766.89C1566.84,1767.98 1567.21,1769.38 1568.3,1770C1567.04,1770 1566.02,1771.02 1566.02,1772.28C1566.02,1773.53 1567.04,1774.55 1568.3,1774.55C1567.21,1775.18 1566.84,1776.57 1567.47,1777.66C1568.09,1778.75 1569.49,1779.12 1570.58,1778.5C1569.95,1779.58 1570.32,1780.98 1571.41,1781.6C1572.5,1782.23 1573.89,1781.86 1574.52,1780.77C1574.52,1782.03 1575.54,1783.05 1576.79,1783.05C1578.05,1783.05 1579.07,1782.03 1579.07,1780.77C1579.69,1781.86 1581.09,1782.23 1582.17,1781.6C1583.26,1780.98 1583.64,1779.58 1583.01,1778.5C1584.1,1779.12 1585.49,1778.75 1586.12,1777.66C1586.74,1776.57 1586.37,1775.18 1585.28,1774.55C1586.54,1774.55 1587.56,1773.53 1587.56,1772.28C1587.56,1771.02 1586.54,1770 1585.28,1770C1586.37,1769.38 1586.74,1767.98 1586.12,1766.89C1585.49,1765.81 1584.1,1765.43 1583.01,1766.06C1583.64,1764.97 1583.26,1763.58 1582.17,1762.95C1581.09,1762.33 1579.69,1762.7 1579.07,1763.79C1579.07,1762.53 1578.05,1761.51 1576.79,1761.51C1575.54,1761.51 1574.52,1762.53 1574.52,1763.79Z"/>
                </g>
                <g id="Fluff" transform="matrix(1.30505,0,0,1.30505,-2005.24,-2208.93)">
                    <path d="M1578.89,1781.64C1578.55,1782.47 1577.74,1783.05 1576.79,1783.05C1575.54,1783.05 1574.52,1782.03 1574.52,1780.77C1573.89,1781.86 1572.5,1782.23 1571.41,1781.6C1570.32,1780.98 1569.95,1779.58 1570.58,1778.5C1569.49,1779.12 1568.09,1778.75 1567.47,1777.66C1566.84,1776.57 1567.21,1775.18 1568.3,1774.55C1567.04,1774.55 1566.02,1773.53 1566.02,1772.28C1566.02,1771.02 1567.04,1770 1568.3,1770C1567.21,1769.38 1566.84,1767.98 1567.47,1766.89C1568.09,1765.81 1569.49,1765.43 1570.58,1766.06C1569.95,1764.97 1570.32,1763.58 1571.41,1762.95C1572.5,1762.33 1573.89,1762.7 1574.52,1763.79C1574.52,1762.53 1575.54,1761.51 1576.79,1761.51C1578.05,1761.51 1579.07,1762.53 1579.07,1763.79C1579.69,1762.7 1581.09,1762.33 1582.17,1762.95C1583.24,1763.57 1583.62,1764.92 1583.04,1766C1583.08,1766 1583.11,1765.99 1583.15,1765.99C1583.95,1765.6 1584.88,1765.72 1585.55,1766.24C1585.89,1765.41 1586.7,1764.83 1587.65,1764.83C1588.9,1764.83 1589.92,1765.85 1589.92,1767.11C1590.55,1766.02 1591.94,1765.65 1593.03,1766.28C1594.09,1766.88 1594.47,1768.21 1593.92,1769.28C1594,1769.27 1594.07,1769.26 1594.14,1769.25C1594.92,1768.93 1595.81,1769.08 1596.45,1769.6C1596.77,1768.73 1597.61,1768.1 1598.59,1768.1C1599.84,1768.1 1600.86,1769.12 1600.86,1770.38C1601.49,1769.29 1602.88,1768.92 1603.97,1769.55C1604.82,1770.04 1605.24,1771 1605.07,1771.92C1605.49,1771.96 1605.88,1772.11 1606.22,1772.37C1606.44,1772.4 1606.67,1772.46 1606.87,1772.55C1607.1,1771.53 1608.01,1770.77 1609.09,1770.77C1610.35,1770.77 1611.37,1771.79 1611.37,1773.05C1612,1771.96 1613.39,1771.59 1614.48,1772.21C1615.36,1772.72 1615.77,1773.73 1615.56,1774.67C1616.03,1774.66 1616.5,1774.8 1616.88,1775.06C1617.15,1775.11 1617.4,1775.21 1617.63,1775.35C1617.85,1774.31 1618.76,1773.54 1619.86,1773.54C1621.12,1773.54 1622.14,1774.55 1622.14,1775.81C1622.77,1774.72 1624.16,1774.35 1625.25,1774.98C1626.12,1775.48 1626.53,1776.49 1626.33,1777.42C1626.81,1777.41 1627.29,1777.56 1627.68,1777.83C1627.93,1777.88 1628.18,1777.98 1628.4,1778.11C1628.61,1777.07 1629.53,1776.29 1630.63,1776.29C1631.88,1776.29 1632.9,1777.31 1632.9,1778.56C1633.53,1777.47 1634.93,1777.1 1636.01,1777.73C1637.1,1778.36 1637.47,1779.75 1636.85,1780.84C1637.93,1780.21 1639.33,1780.58 1639.95,1781.67C1640.58,1782.76 1640.21,1784.15 1639.12,1784.78C1640.38,1784.78 1641.4,1785.8 1641.4,1787.05C1641.4,1788.31 1640.38,1789.33 1639.12,1789.33C1640.21,1789.96 1640.58,1791.35 1639.95,1792.44C1639.33,1793.53 1637.93,1793.9 1636.85,1793.27C1637.47,1794.36 1637.1,1795.75 1636.01,1796.38C1634.93,1797.01 1633.53,1796.63 1632.9,1795.55C1632.9,1796.8 1631.88,1797.82 1630.63,1797.82C1629.37,1797.82 1628.35,1796.8 1628.35,1795.55C1627.73,1796.63 1626.33,1797.01 1625.25,1796.38C1624.37,1795.87 1623.96,1794.87 1624.16,1793.93C1623.68,1793.94 1623.21,1793.8 1622.81,1793.53C1622.56,1793.47 1622.32,1793.38 1622.09,1793.24C1621.88,1794.29 1620.96,1795.07 1619.86,1795.07C1618.61,1795.07 1617.59,1794.05 1617.59,1792.79C1616.96,1793.88 1615.57,1794.26 1614.48,1793.63C1613.6,1793.12 1613.19,1792.11 1613.39,1791.17C1612.92,1791.18 1612.46,1791.04 1612.07,1790.78C1611.81,1790.73 1611.55,1790.63 1611.32,1790.49C1611.11,1791.53 1610.19,1792.31 1609.09,1792.31C1607.84,1792.31 1606.82,1791.29 1606.82,1790.03C1606.19,1791.12 1604.8,1791.49 1603.71,1790.86C1602.86,1790.37 1602.44,1789.41 1602.61,1788.49C1602.19,1788.45 1601.8,1788.3 1601.46,1788.04C1601.24,1788.01 1601.01,1787.95 1600.81,1787.86C1600.58,1788.88 1599.67,1789.64 1598.59,1789.64C1597.33,1789.64 1596.31,1788.62 1596.31,1787.36C1595.68,1788.45 1594.29,1788.82 1593.2,1788.2C1592.15,1787.59 1591.77,1786.26 1592.31,1785.19C1592.24,1785.21 1592.17,1785.22 1592.1,1785.22C1591.31,1785.55 1590.42,1785.4 1589.79,1784.88C1589.47,1785.75 1588.63,1786.37 1587.65,1786.37C1586.39,1786.37 1585.37,1785.35 1585.37,1784.09C1584.75,1785.18 1583.35,1785.56 1582.27,1784.93C1581.2,1784.31 1580.82,1782.96 1581.4,1781.88C1581.36,1781.88 1581.33,1781.89 1581.29,1781.89C1580.49,1782.28 1579.56,1782.16 1578.89,1781.64Z" style="fill:rgb(238,238,238);"/>
                    <path d="M1585.27,1763.2C1585.97,1762.78 1586.78,1762.54 1587.65,1762.54C1588.88,1762.54 1589.99,1763.02 1590.81,1763.81C1591.91,1763.54 1593.12,1763.67 1594.18,1764.29C1595.1,1764.81 1595.76,1765.61 1596.13,1766.52C1596.84,1766.07 1597.68,1765.81 1598.59,1765.81C1599.81,1765.81 1600.92,1766.29 1601.75,1767.07C1602.85,1766.8 1604.06,1766.94 1605.12,1767.56C1605.8,1767.95 1606.35,1768.5 1606.73,1769.13C1607.42,1768.71 1608.23,1768.47 1609.09,1768.47C1610.32,1768.47 1611.43,1768.95 1612.26,1769.74C1613.36,1769.47 1614.57,1769.61 1615.63,1770.22C1616.38,1770.66 1616.96,1771.27 1617.35,1771.99C1618.07,1771.51 1618.93,1771.24 1619.86,1771.24C1621.09,1771.24 1622.2,1771.72 1623.02,1772.51C1624.13,1772.24 1625.33,1772.37 1626.39,1772.99C1627.14,1773.42 1627.73,1774.03 1628.11,1774.74C1628.84,1774.27 1629.7,1773.99 1630.63,1773.99C1631.86,1773.99 1632.97,1774.47 1633.79,1775.26C1634.89,1774.99 1636.1,1775.12 1637.16,1775.74C1638.22,1776.35 1638.95,1777.33 1639.27,1778.42C1640.36,1778.74 1641.33,1779.46 1641.94,1780.52C1642.56,1781.58 1642.7,1782.79 1642.43,1783.89C1643.21,1784.71 1643.7,1785.83 1643.7,1787.05C1643.7,1788.28 1643.21,1789.39 1642.43,1790.21C1642.7,1791.32 1642.56,1792.53 1641.94,1793.59C1641.33,1794.65 1640.36,1795.37 1639.27,1795.69C1638.95,1796.78 1638.22,1797.76 1637.16,1798.37C1636.1,1798.98 1634.89,1799.12 1633.79,1798.85C1632.97,1799.64 1631.86,1800.12 1630.63,1800.12C1629.4,1800.12 1628.29,1799.64 1627.47,1798.85C1626.36,1799.12 1625.16,1798.98 1624.1,1798.37C1623.35,1797.94 1622.77,1797.32 1622.38,1796.61C1621.65,1797.09 1620.79,1797.37 1619.86,1797.37C1618.64,1797.37 1617.52,1796.88 1616.7,1796.1C1615.6,1796.37 1614.39,1796.23 1613.33,1795.62C1612.58,1795.18 1611.99,1794.57 1611.6,1793.85C1610.88,1794.33 1610.02,1794.6 1609.09,1794.6C1607.87,1794.6 1606.76,1794.12 1605.93,1793.34C1604.83,1793.61 1603.62,1793.47 1602.56,1792.85C1601.88,1792.46 1601.33,1791.91 1600.95,1791.28C1600.26,1791.7 1599.45,1791.94 1598.59,1791.94C1597.36,1791.94 1596.25,1791.45 1595.42,1790.67C1594.32,1790.94 1593.11,1790.8 1592.05,1790.19C1591.14,1789.66 1590.48,1788.86 1590.11,1787.95C1589.39,1788.41 1588.55,1788.67 1587.65,1788.67C1586.42,1788.67 1585.31,1788.18 1584.49,1787.4C1583.38,1787.67 1582.18,1787.53 1581.12,1786.92C1580.2,1786.39 1579.54,1785.59 1579.17,1784.68C1578.47,1785.1 1577.66,1785.34 1576.79,1785.34C1575.57,1785.34 1574.45,1784.86 1573.63,1784.08C1572.53,1784.35 1571.32,1784.21 1570.26,1783.59C1569.2,1782.98 1568.47,1782.01 1568.16,1780.91C1567.06,1780.6 1566.09,1779.87 1565.48,1778.81C1564.86,1777.75 1564.72,1776.54 1565,1775.44C1564.21,1774.62 1563.73,1773.5 1563.73,1772.28C1563.73,1771.05 1564.21,1769.94 1564.99,1769.12C1564.72,1768.01 1564.86,1766.81 1565.48,1765.75C1566.09,1764.68 1567.06,1763.96 1568.15,1763.64C1568.47,1762.55 1569.2,1761.58 1570.26,1760.96C1571.32,1760.35 1572.53,1760.21 1573.63,1760.48C1574.45,1759.69 1575.57,1759.21 1576.79,1759.21C1578.02,1759.21 1579.13,1759.69 1579.95,1760.48C1581.06,1760.21 1582.26,1760.35 1583.33,1760.96C1584.24,1761.49 1584.9,1762.29 1585.27,1763.2ZM1578.89,1781.64C1579.56,1782.16 1580.49,1782.28 1581.29,1781.89C1581.33,1781.89 1581.36,1781.88 1581.4,1781.88C1580.82,1782.96 1581.2,1784.31 1582.27,1784.93C1583.35,1785.56 1584.75,1785.18 1585.37,1784.09C1585.37,1785.35 1586.39,1786.37 1587.65,1786.37C1588.63,1786.37 1589.47,1785.75 1589.79,1784.88C1590.42,1785.4 1591.31,1785.55 1592.1,1785.22C1592.17,1785.22 1592.24,1785.21 1592.31,1785.19C1591.77,1786.26 1592.15,1787.59 1593.2,1788.2C1594.29,1788.82 1595.68,1788.45 1596.31,1787.36C1596.31,1788.62 1597.33,1789.64 1598.59,1789.64C1599.67,1789.64 1600.58,1788.88 1600.81,1787.86C1601.01,1787.95 1601.24,1788.01 1601.46,1788.04C1601.8,1788.3 1602.19,1788.45 1602.61,1788.49C1602.44,1789.41 1602.86,1790.37 1603.71,1790.86C1604.8,1791.49 1606.19,1791.12 1606.82,1790.03C1606.82,1791.29 1607.84,1792.31 1609.09,1792.31C1610.19,1792.31 1611.11,1791.53 1611.32,1790.49C1611.55,1790.63 1611.81,1790.73 1612.07,1790.78C1612.46,1791.04 1612.92,1791.18 1613.39,1791.17C1613.19,1792.11 1613.6,1793.12 1614.48,1793.63C1615.57,1794.26 1616.96,1793.88 1617.59,1792.79C1617.59,1794.05 1618.61,1795.07 1619.86,1795.07C1620.96,1795.07 1621.88,1794.29 1622.09,1793.24C1622.32,1793.38 1622.56,1793.47 1622.81,1793.53C1623.21,1793.8 1623.68,1793.94 1624.16,1793.93C1623.96,1794.87 1624.37,1795.87 1625.25,1796.38C1626.33,1797.01 1627.73,1796.63 1628.35,1795.55C1628.35,1796.8 1629.37,1797.82 1630.63,1797.82C1631.88,1797.82 1632.9,1796.8 1632.9,1795.55C1633.53,1796.63 1634.93,1797.01 1636.01,1796.38C1637.1,1795.75 1637.47,1794.36 1636.85,1793.27C1637.93,1793.9 1639.33,1793.53 1639.95,1792.44C1640.58,1791.35 1640.21,1789.96 1639.12,1789.33C1640.38,1789.33 1641.4,1788.31 1641.4,1787.05C1641.4,1785.8 1640.38,1784.78 1639.12,1784.78C1640.21,1784.15 1640.58,1782.76 1639.95,1781.67C1639.33,1780.58 1637.93,1780.21 1636.85,1780.84C1637.47,1779.75 1637.1,1778.36 1636.01,1777.73C1634.93,1777.1 1633.53,1777.47 1632.9,1778.56C1632.9,1777.31 1631.88,1776.29 1630.63,1776.29C1629.53,1776.29 1628.61,1777.07 1628.4,1778.11C1628.18,1777.98 1627.93,1777.88 1627.68,1777.83C1627.29,1777.56 1626.81,1777.41 1626.33,1777.42C1626.53,1776.49 1626.12,1775.48 1625.25,1774.98C1624.16,1774.35 1622.77,1774.72 1622.14,1775.81C1622.14,1774.55 1621.12,1773.54 1619.86,1773.54C1618.76,1773.54 1617.85,1774.31 1617.63,1775.35C1617.4,1775.21 1617.15,1775.11 1616.88,1775.06C1616.5,1774.8 1616.03,1774.66 1615.56,1774.67C1615.77,1773.73 1615.36,1772.72 1614.48,1772.21C1613.39,1771.59 1612,1771.96 1611.37,1773.05C1611.37,1771.79 1610.35,1770.77 1609.09,1770.77C1608.01,1770.77 1607.1,1771.53 1606.87,1772.55C1606.67,1772.46 1606.44,1772.4 1606.22,1772.37C1605.88,1772.11 1605.49,1771.96 1605.07,1771.92C1605.24,1771 1604.82,1770.04 1603.97,1769.55C1602.88,1768.92 1601.49,1769.29 1600.86,1770.38C1600.86,1769.12 1599.84,1768.1 1598.59,1768.1C1597.61,1768.1 1596.77,1768.73 1596.45,1769.6C1595.81,1769.08 1594.92,1768.93 1594.14,1769.25C1594.07,1769.26 1594,1769.27 1593.92,1769.28C1594.47,1768.21 1594.09,1766.88 1593.03,1766.28C1591.94,1765.65 1590.55,1766.02 1589.92,1767.11C1589.92,1765.85 1588.9,1764.83 1587.65,1764.83C1586.7,1764.83 1585.89,1765.41 1585.55,1766.24C1584.88,1765.72 1583.95,1765.6 1583.15,1765.99C1583.11,1765.99 1583.08,1766 1583.04,1766C1583.62,1764.92 1583.24,1763.57 1582.17,1762.95C1581.09,1762.33 1579.69,1762.7 1579.07,1763.79C1579.07,1762.53 1578.05,1761.51 1576.79,1761.51C1575.54,1761.51 1574.52,1762.53 1574.52,1763.79C1573.89,1762.7 1572.5,1762.33 1571.41,1762.95C1570.32,1763.58 1569.95,1764.97 1570.58,1766.06C1569.49,1765.43 1568.09,1765.81 1567.47,1766.89C1566.84,1767.98 1567.21,1769.38 1568.3,1770C1567.04,1770 1566.02,1771.02 1566.02,1772.28C1566.02,1773.53 1567.04,1774.55 1568.3,1774.55C1567.21,1775.18 1566.84,1776.57 1567.47,1777.66C1568.09,1778.75 1569.49,1779.12 1570.58,1778.5C1569.95,1779.58 1570.32,1780.98 1571.41,1781.6C1572.5,1782.23 1573.89,1781.86 1574.52,1780.77C1574.52,1782.03 1575.54,1783.05 1576.79,1783.05C1577.74,1783.05 1578.55,1782.47 1578.89,1781.64Z"/>
                </g>
            </g>
        </g>
    </g>
</svg>
