<?xml version="1.0" encoding="UTF-8" standalone="no"?>
<!DOCTYPE svg PUBLIC "-//W3C//DTD SVG 1.1//EN" "http://www.w3.org/Graphics/SVG/1.1/DTD/svg11.dtd">
<svg width="100%" height="100%" viewBox="0 0 256 256" version="1.1" xmlns="http://www.w3.org/2000/svg" xmlns:xlink="http://www.w3.org/1999/xlink" xml:space="preserve" xmlns:serif="http://www.serif.com/" style="fill-rule:evenodd;clip-rule:evenodd;stroke-linecap:round;stroke-linejoin:round;stroke-miterlimit:1.5;">
    <g transform="matrix(1,0,0,1,-1686,-843)">
        <g id="blobbee_snuggle" transform="matrix(1,0,0,1,1686,843)">
            <rect x="0" y="0" width="256" height="256" style="fill:none;"/>
            <g id="Bee-2" serif:id="Bee 2" transform="matrix(0.659212,0,0,0.659212,-3.57731,59.9218)">
                <g id="Body" transform="matrix(0.994109,-0.573949,0.761422,1.28301,-120.17,92.6047)">
                    <ellipse cx="168.926" cy="110.515" rx="107.942" ry="55.376" style="fill:rgb(104,104,104);stroke:black;stroke-width:11.33px;"/>
                </g>
                <g id="Wings-outline" serif:id="Wings outline" transform="matrix(0.959562,0.127262,-0.127262,0.959562,7.56883,-6.44254)">
                    <g transform="matrix(1.17688,-0.575088,0.651434,1.21399,-55.8934,35.953)">
                        <path d="M87.587,10.166C107.25,10.166 125.144,29.354 125.144,54.758C125.144,80.682 106.743,100.215 86.678,100.215C67.016,100.215 49.122,81.027 49.122,55.623C49.122,29.7 67.523,10.166 87.587,10.166ZM87.133,21.55C72.762,21.55 61.095,36.624 61.095,55.191C61.095,73.758 72.762,88.832 87.133,88.832C101.504,88.832 113.171,73.758 113.171,55.191C113.171,36.624 101.504,21.55 87.133,21.55Z"/>
                    </g>
                    <g transform="matrix(1.24343,0.685066,-0.776012,1.28263,74.2693,-72.8119)">
                        <path d="M86.685,11.087C106.307,11.087 124.219,30.264 124.219,55.615C124.219,80.456 106.808,99.294 87.581,99.294C67.959,99.294 50.047,80.117 50.047,54.767C50.047,29.925 67.458,11.087 86.685,11.087ZM87.133,21.55C72.762,21.55 61.095,36.624 61.095,55.191C61.095,73.758 72.762,88.832 87.133,88.832C101.504,88.832 113.171,73.758 113.171,55.191C113.171,36.624 101.504,21.55 87.133,21.55Z"/>
                    </g>
                </g>
                <g id="Stripes" transform="matrix(1,0,0,1,4.4273,10.012)">
                    <g transform="matrix(1,-7.43708e-18,-7.43708e-18,1,92.3462,-63.8411)">
                        <path d="M37.588,107.021C36.302,108.044 130.102,103.736 138.911,199.269C185.818,73.536 38.054,97.55 37.588,107.021Z" style="fill:rgb(254,194,7);stroke:black;stroke-width:4.55px;"/>
                    </g>
                    <g transform="matrix(1,-7.43708e-18,-7.43708e-18,1,73.4912,-52.6421)">
                        <path d="M157.766,189.064C152.141,96.884 58.714,94.709 59.225,91.972L24.408,104.867C24.408,104.867 137.219,103.115 141.236,211.738L154.889,190.72" style="fill:rgb(104,104,104);stroke:black;stroke-width:4.55px;"/>
                    </g>
                    <g transform="matrix(1,-7.43708e-18,-7.43708e-18,1,55.5726,-39.8214)">
                        <path d="M138.184,221.282L158.96,198.917C155.015,90.156 39.958,88.264 39.959,88.304L21.516,99.184C21.345,99.215 140.506,108.796 138.184,221.282Z" style="fill:rgb(254,194,7);stroke:black;stroke-width:4.55px;"/>
                    </g>
                    <g transform="matrix(1,-7.43708e-18,-7.43708e-18,1,25.9786,-19.0024)">
                        <path d="M52.67,78.448L32.777,93.969C32.777,93.969 147.14,105.355 145.924,216.369L167.401,201.973C175.368,91.857 51.46,79.379 49.702,80.764" style="fill:rgb(104,104,104);stroke:black;stroke-width:4.55px;"/>
                    </g>
                    <g transform="matrix(1,-7.43708e-18,-7.43708e-18,1,-0.424026,-0.546032)">
                        <path d="M54.907,77.629L39.992,93.485C39.992,93.485 145.269,94.435 147.67,208.921L172.327,197.913C176.533,83.454 58.325,78.845 54.907,77.629Z" style="fill:rgb(254,194,7);stroke:black;stroke-width:4.55px;"/>
                    </g>
                </g>
                <g id="Body-outline" serif:id="Body outline" transform="matrix(0.994109,-0.573949,0.761422,1.28301,-120.17,92.6047)">
                    <ellipse cx="168.926" cy="110.515" rx="107.942" ry="55.376" style="fill:none;stroke:black;stroke-width:11.33px;"/>
                </g>
                <g id="Wings" transform="matrix(0.959562,0.127262,-0.127262,0.959562,7.56883,-6.44254)">
                    <g id="Back-wing" serif:id="Back wing" transform="matrix(1.17688,-0.575088,0.651434,1.21399,-55.8934,35.953)">
                        <ellipse cx="87.133" cy="55.191" rx="26.038" ry="33.641" style="fill:rgb(195,195,195);stroke:black;stroke-width:3.43px;"/>
                    </g>
                    <g id="Front-wing" serif:id="Front wing" transform="matrix(0.946806,0,0,0.999012,5.86837,0.313874)">
                        <g id="Front-wing-main" serif:id="Front wing main" transform="matrix(1.31328,0.685743,-0.81961,1.2839,72.2439,-73.1981)">
                            <ellipse cx="87.133" cy="55.191" rx="26.038" ry="33.641" style="fill:rgb(195,195,195);stroke:black;stroke-width:3.29px;"/>
                        </g>
                        <path id="Front-wing-line" serif:id="Front wing line" d="M119.334,101.013C123.249,82.03 129.669,61.104 148.451,47.276" style="fill:none;stroke:black;stroke-width:4.83px;"/>
                    </g>
                </g>
                <g id="Face" transform="matrix(1,0,0,1,-3.8947,1.36785)">
                    <g id="Mouth" transform="matrix(0.658566,-1.17246e-18,-3.87825e-17,0.848272,3.90699,39.2646)">
                        <path d="M79.429,171.352L92.31,191.237L108.219,172.744L128,191.722L152.351,171.648" style="fill:none;stroke:black;stroke-width:21.97px;stroke-miterlimit:2;"/>
                        <path d="M79.429,171.352L92.31,191.237L108.219,172.744L128,191.722L152.351,171.648" style="fill:none;stroke:rgb(235,235,235);stroke-width:9.99px;"/>
                    </g>
                    <g id="Eyes" transform="matrix(0.856324,0.124954,-0.124954,0.856324,35.143,7.15355)">
                        <g id="Right-eye" serif:id="Right eye" transform="matrix(-0.797122,0.697217,-0.697217,-0.797122,287.628,114.293)">
                            <path d="M139.15,75.147C139.15,75.147 147.255,93.107 169.433,83.396" style="fill:none;stroke:black;stroke-width:18.21px;stroke-miterlimit:2;"/>
                            <path d="M139.15,75.147C139.15,75.147 147.255,93.107 169.433,83.396" style="fill:none;stroke:rgb(235,235,235);stroke-width:8.28px;"/>
                        </g>
                        <g id="Right-eye1" serif:id="Right eye" transform="matrix(-1.0564,0.0743851,-0.0743851,-1.0564,216.128,239.488)">
                            <path d="M139.15,75.147C139.15,75.147 147.255,93.107 169.433,83.396" style="fill:none;stroke:black;stroke-width:18.21px;stroke-miterlimit:2;"/>
                            <path d="M139.15,75.147C139.15,75.147 147.255,93.107 169.433,83.396" style="fill:none;stroke:rgb(235,235,235);stroke-width:8.28px;"/>
                        </g>
                    </g>
                </g>
            </g>
            <g id="Heart" transform="matrix(1.18084,0,0,1.50689,-1435.52,-1307.27)">
                <path d="M1324.07,885.041C1332.46,873.088 1349.24,873.088 1357.63,879.065C1366.02,885.041 1366.02,896.994 1357.63,908.948C1351.76,917.912 1336.66,926.877 1324.07,932.854C1311.49,926.877 1296.39,917.912 1290.52,908.948C1282.13,896.994 1282.13,885.041 1290.52,879.065C1298.91,873.088 1315.69,873.088 1324.07,885.041Z" style="fill:rgb(250,41,41);stroke:black;stroke-width:7.39px;"/>
            </g>
            <g id="Bee" transform="matrix(1.04644,0,0,1.04644,-14.2648,20.6915)">
                <g id="Bee1" serif:id="Bee" transform="matrix(0.681503,0,0,0.681503,92.3096,60.4387)">
                    <clipPath id="_clip1">
                        <path d="M211.459,180.054L211.81,292.616L-149.134,300.059L-149.079,-101.624L191.49,-98.989L191.49,45.116C226.297,46.697 254.291,135.553 211.459,180.054"/>
                    </clipPath>
                    <g clip-path="url(#_clip1)">
                        <g id="Sting" transform="matrix(0.78314,0.139967,-0.135634,0.7589,67.2303,-21.11)">
                            <path d="M189.771,56.854L238.765,34.355L235.05,81.388" style="fill:rgb(104,104,104);stroke:black;stroke-width:17.9px;"/>
                        </g>
                        <g id="Body1" serif:id="Body" transform="matrix(0.994109,-0.573949,0.761422,1.28301,-120.17,92.6047)">
                            <ellipse cx="168.926" cy="110.515" rx="107.942" ry="55.376" style="fill:rgb(104,104,104);stroke:black;stroke-width:10.47px;"/>
                        </g>
                        <g id="Wings-outline1" serif:id="Wings outline" transform="matrix(0.959562,0.127262,-0.127262,0.959562,7.56883,-6.44254)">
                            <g transform="matrix(1.17688,-0.575088,0.651434,1.21399,-55.8934,35.953)">
                                <path d="M87.553,11.027C106.815,11.027 124.238,29.905 124.238,54.791C124.238,80.156 106.346,99.354 86.713,99.354C67.451,99.354 50.027,80.476 50.027,55.59C50.027,30.225 67.92,11.027 87.553,11.027ZM87.133,21.55C72.762,21.55 61.095,36.624 61.095,55.191C61.095,73.758 72.762,88.832 87.133,88.832C101.504,88.832 113.171,73.758 113.171,55.191C113.171,36.624 101.504,21.55 87.133,21.55Z"/>
                            </g>
                            <g transform="matrix(1.24343,0.685066,-0.776012,1.28263,74.2693,-72.8119)">
                                <path d="M86.719,11.878C105.942,11.878 123.384,30.746 123.384,55.582C123.384,79.948 106.406,98.503 87.547,98.503C68.324,98.503 50.882,79.635 50.882,54.799C50.882,30.433 67.86,11.878 86.719,11.878ZM87.133,21.55C72.762,21.55 61.095,36.624 61.095,55.191C61.095,73.758 72.762,88.832 87.133,88.832C101.504,88.832 113.171,73.758 113.171,55.191C113.171,36.624 101.504,21.55 87.133,21.55Z"/>
                            </g>
                        </g>
                        <g id="Stripes1" serif:id="Stripes" transform="matrix(1,0,0,1,4.4273,10.012)">
                            <g transform="matrix(1,-7.43708e-18,-7.43708e-18,1,92.3462,-63.8411)">
                                <path d="M37.588,107.021C36.302,108.044 130.102,103.736 138.911,199.269C185.818,73.536 38.054,97.55 37.588,107.021Z" style="fill:rgb(254,194,7);stroke:black;stroke-width:4.21px;"/>
                            </g>
                            <g transform="matrix(1,-7.43708e-18,-7.43708e-18,1,73.4912,-52.6421)">
                                <path d="M157.766,189.064C152.141,96.884 58.714,94.709 59.225,91.972L24.408,104.867C24.408,104.867 137.219,103.115 141.236,211.738L154.889,190.72" style="fill:rgb(104,104,104);stroke:black;stroke-width:4.21px;"/>
                            </g>
                            <g transform="matrix(1,-7.43708e-18,-7.43708e-18,1,55.5726,-39.8214)">
                                <path d="M138.184,221.282L158.96,198.917C155.015,90.156 39.958,88.264 39.959,88.304L21.516,99.184C21.345,99.215 140.506,108.796 138.184,221.282Z" style="fill:rgb(254,194,7);stroke:black;stroke-width:4.21px;"/>
                            </g>
                            <g transform="matrix(1,-7.43708e-18,-7.43708e-18,1,25.9786,-19.0024)">
                                <path d="M52.67,78.448L32.777,93.969C32.777,93.969 147.14,105.355 145.924,216.369L167.401,201.973C175.368,91.857 51.46,79.379 49.702,80.764" style="fill:rgb(104,104,104);stroke:black;stroke-width:4.21px;"/>
                            </g>
                            <g transform="matrix(1,-7.43708e-18,-7.43708e-18,1,-0.424026,-0.546032)">
                                <path d="M54.907,77.629L39.992,93.485C39.992,93.485 145.269,94.435 147.67,208.921L172.327,197.913C176.533,83.454 58.325,78.845 54.907,77.629Z" style="fill:rgb(254,194,7);stroke:black;stroke-width:4.21px;"/>
                            </g>
                        </g>
                        <g id="Body-outline1" serif:id="Body outline" transform="matrix(0.994109,-0.573949,0.761422,1.28301,-120.17,92.6047)">
                            <ellipse cx="168.926" cy="110.515" rx="107.942" ry="55.376" style="fill:none;stroke:black;stroke-width:10.47px;"/>
                        </g>
                        <g id="Wings1" serif:id="Wings" transform="matrix(0.959562,0.127262,-0.127262,0.959562,7.56883,-6.44254)">
                            <g id="Back-wing1" serif:id="Back wing" transform="matrix(1.17688,-0.575088,0.651434,1.21399,-55.8934,35.953)">
                                <ellipse cx="87.133" cy="55.191" rx="26.038" ry="33.641" style="fill:rgb(195,195,195);stroke:black;stroke-width:3.17px;"/>
                            </g>
                            <g id="Front-wing1" serif:id="Front wing" transform="matrix(0.946806,0,0,0.999012,5.86837,0.313874)">
                                <g id="Front-wing-main1" serif:id="Front wing main" transform="matrix(1.31328,0.685743,-0.81961,1.2839,72.2439,-73.1981)">
                                    <ellipse cx="87.133" cy="55.191" rx="26.038" ry="33.641" style="fill:rgb(195,195,195);stroke:black;stroke-width:3.04px;"/>
                                </g>
                                <path id="Front-wing-line1" serif:id="Front wing line" d="M119.334,101.013C123.249,82.03 129.669,61.104 148.451,47.276" style="fill:none;stroke:black;stroke-width:4.47px;"/>
                            </g>
                        </g>
                        <g id="Face1" serif:id="Face" transform="matrix(1,0,0,1,-3.8947,1.36785)">
                            <g id="Mouth1" serif:id="Mouth" transform="matrix(0.658566,-1.17246e-18,-3.87825e-17,0.848272,3.90699,42.2986)">
                                <path d="M79.429,171.352L92.31,191.237L108.219,172.744L128,191.722L152.351,171.648" style="fill:none;stroke:black;stroke-width:20.31px;stroke-miterlimit:2;"/>
                                <path d="M79.429,171.352L92.31,191.237L108.219,172.744L128,191.722L152.351,171.648" style="fill:none;stroke:rgb(235,235,235);stroke-width:9.23px;"/>
                            </g>
                            <g id="Eyes1" serif:id="Eyes" transform="matrix(0.856324,0.124954,-0.124954,0.856324,35.143,7.15355)">
                                <g id="Right-eye2" serif:id="Right eye" transform="matrix(1.56791,-0.228787,0.215752,1.47858,-150.38,17.2361)">
                                    <path d="M154.615,113.255C154.615,107.493 150.203,102.815 144.77,102.815C139.336,102.815 134.924,107.493 134.924,113.255L134.924,120.6C134.924,126.362 139.336,131.04 144.77,131.04C150.203,131.04 154.615,126.362 154.615,120.6L154.615,113.255Z" style="fill:rgb(235,235,235);stroke:black;stroke-width:3.16px;"/>
                                </g>
                                <g id="Right-eye3" serif:id="Right eye" transform="matrix(0.639006,-0.0932429,0.104024,0.712889,-4.68472,94.5194)">
                                    <path d="M154.615,111.64C154.615,106.77 150.203,102.815 144.77,102.815C139.336,102.815 134.924,106.77 134.924,111.64L134.924,122.216C134.924,127.086 139.336,131.04 144.77,131.04C150.203,131.04 154.615,127.086 154.615,122.216L154.615,111.64Z"/>
                                </g>
                                <g id="Left-eye" serif:id="Left eye" transform="matrix(1.56791,-0.228787,0.215752,1.47858,-201.077,24.6337)">
                                    <path d="M154.615,113.255C154.615,107.493 150.203,102.815 144.77,102.815C139.336,102.815 134.924,107.493 134.924,113.255L134.924,120.6C134.924,126.362 139.336,131.04 144.77,131.04C150.203,131.04 154.615,126.362 154.615,120.6L154.615,113.255Z" style="fill:rgb(235,235,235);stroke:black;stroke-width:3.16px;"/>
                                </g>
                                <g id="Right-eye4" serif:id="Right eye" transform="matrix(0.639006,-0.0932429,0.104024,0.712889,-55.3816,101.917)">
                                    <path d="M154.615,111.64C154.615,106.77 150.203,102.815 144.77,102.815C139.336,102.815 134.924,106.77 134.924,111.64L134.924,122.216C134.924,127.086 139.336,131.04 144.77,131.04C150.203,131.04 154.615,127.086 154.615,122.216L154.615,111.64Z"/>
                                </g>
                            </g>
                        </g>
                    </g>
                </g>
                <g id="Body-stroke" serif:id="Body stroke" transform="matrix(1,0,0,1,-316.968,-1353.34)">
                    <path d="M537.043,1444.11C560.795,1446.95 580.23,1507.87 550.251,1539.35" style="fill:none;stroke:black;stroke-width:2.87px;"/>
                </g>
                <g id="Body-stroke1" serif:id="Body stroke" transform="matrix(1,0,0,1,-316.968,-1353.34)">
                    <path d="M539.2,1444.11C562.952,1446.95 580.23,1507.87 550.251,1539.35" style="fill:none;stroke:black;stroke-width:9.56px;"/>
                </g>
                <g id="Sting1" serif:id="Sting" transform="matrix(0.404212,0.0635387,-0.061572,0.3917,156.047,61.2466)">
                    <path d="M191.017,52.697L238.765,34.355L230.765,91.133" style="fill:rgb(104,104,104);stroke:black;stroke-width:23.72px;"/>
                </g>
            </g>
        </g>
    </g>
</svg>
