<?xml version="1.0" encoding="UTF-8" standalone="no"?>
<!DOCTYPE svg PUBLIC "-//W3C//DTD SVG 1.1//EN" "http://www.w3.org/Graphics/SVG/1.1/DTD/svg11.dtd">
<svg width="100%" height="100%" viewBox="0 0 256 256" version="1.1" xmlns="http://www.w3.org/2000/svg" xmlns:xlink="http://www.w3.org/1999/xlink" xml:space="preserve" xmlns:serif="http://www.serif.com/" style="fill-rule:evenodd;clip-rule:evenodd;stroke-linecap:round;stroke-linejoin:round;stroke-miterlimit:1.5;">
    <rect id="blobbee_hug_wolf" x="-0" y="0" width="256" height="256" style="fill:none;"/>
    <g id="Bee">
        <path id="Wings-outline" serif:id="Wings outline" d="M148.346,135.121C134.249,134.344 119.24,123.938 112.662,106.497C104.15,83.926 114.112,62.089 130.948,56.459C142.085,52.736 155.58,56.452 165.699,66.148C178.871,59.892 193.341,60.565 203.162,67.808C218.161,78.869 220.853,103.948 204.946,123.783C189.498,143.045 164.378,147.014 149.812,136.273C149.309,135.902 148.82,135.518 148.346,135.121ZM154.47,119.42C155.531,121.274 156.945,122.896 158.715,124.2C167.963,131.021 183.435,126.629 193.244,114.398C203.053,102.168 203.508,86.701 194.259,79.88C185.765,73.616 172.02,76.81 162.236,86.849C156.709,74.672 145.208,67.508 135.704,70.685C125.649,74.048 121.613,87.723 126.697,101.204C131.782,114.685 144.073,122.901 154.129,119.539C154.243,119.501 154.357,119.461 154.47,119.42Z"/>
        <path id="Body" d="M152.322,98.199C188.339,75.441 229.071,78.153 243.223,104.252C257.376,130.35 239.624,170.015 203.607,192.773C167.59,215.53 126.858,212.818 112.706,186.72C98.553,160.621 116.305,120.956 152.322,98.199Z" style="fill:rgb(254,194,7);"/>
        <g id="Stripes">
            <path d="M179.455,89.413C178.674,90.093 235.718,87.226 241.075,150.81C269.602,67.126 179.739,83.109 179.455,89.413Z" style="fill:rgb(85,85,85);"/>
            <path d="M241.075,151.471C237.655,90.119 180.837,88.672 181.147,86.85L159.973,95.432C159.973,95.432 228.579,94.267 231.023,166.562L239.325,152.573" style="fill:rgb(254,194,7);"/>
            <path d="M218.269,181.448L230.904,166.562C228.505,94.174 158.533,92.915 158.534,92.942L147.317,100.183C147.213,100.204 219.681,106.58 218.269,181.448Z" style="fill:rgb(85,85,85);"/>
            <path d="M148.266,100.238L136.168,110.568C136.168,110.568 205.718,118.147 204.979,192.034L218.04,182.452C222.885,109.163 147.53,100.858 146.461,101.779" style="fill:rgb(254,194,7);"/>
            <path d="M133.57,111.977L124.499,122.53C124.499,122.53 188.523,123.162 189.983,199.361L204.979,192.034C207.537,115.854 135.648,112.787 133.57,111.977Z" style="fill:rgb(85,85,85);"/>
        </g>
        <path id="Body-outline" serif:id="Body outline" d="M152.322,98.199C188.339,75.441 229.071,78.153 243.223,104.252C257.376,130.35 239.624,170.015 203.607,192.773C167.59,215.53 126.858,212.818 112.706,186.72C98.553,160.621 116.305,120.956 152.322,98.199Z" style="fill:none;stroke:black;stroke-width:15px;"/>
        <g id="Wings">
            <path id="Back-wing" serif:id="Back wing" d="M135.704,70.685C145.76,67.323 158.052,75.539 163.136,89.02C168.221,102.502 164.185,116.177 154.129,119.539C144.073,122.901 131.782,114.685 126.697,101.204C121.613,87.723 125.649,74.048 135.704,70.685Z" style="fill:rgb(167,167,167);"/>
            <path id="Front-wing" serif:id="Front wing" d="M194.259,79.88C203.508,86.701 203.053,102.168 193.244,114.398C183.435,126.629 167.963,131.021 158.715,124.2C149.466,117.38 149.921,101.913 159.73,89.682C169.538,77.452 185.01,73.06 194.259,79.88Z" style="fill:rgb(195,195,195);"/>
        </g>
        <g id="Face">
            <path id="Mouth" d="M128.439,178.362L133.715,187.232L140.824,178.377L149.631,187.207L160.122,178.388" style="fill:none;stroke:black;stroke-width:4.6px;"/>
            <g id="Eyes">
                <path id="Right-eye" serif:id="Right eye" d="M166.682,158.774L166.682,162.584C166.682,166.586 163.433,169.835 159.431,169.835C155.428,169.835 152.179,166.586 152.179,162.584L152.179,158.774C152.179,154.772 155.428,151.523 159.431,151.523C163.433,151.523 166.682,154.772 166.682,158.774Z"/>
                <path id="Left-eye" serif:id="Left eye" d="M139.663,158.774L139.663,162.584C139.663,166.586 136.414,169.835 132.412,169.835C128.41,169.835 125.161,166.586 125.161,162.584L125.161,158.774C125.161,154.772 128.41,151.523 132.412,151.523C136.414,151.523 139.663,154.772 139.663,158.774Z"/>
            </g>
        </g>
    </g>
    <g id="Wolf">
        <path id="Right-ear" serif:id="Right ear" d="M68.913,125.518C68.913,125.518 94.675,93.053 102.13,97.105C107.803,100.188 106.803,143.253 106.001,148.821" style="stroke:black;stroke-width:10px;"/>
        <path id="Body1" serif:id="Body" d="M68.913,125.518C105.684,127.569 103.982,153.117 116.786,165.547C130.625,178.981 146.92,181.666 151.857,188.836C155.726,194.457 152.022,203.135 146.406,208.568C130.844,223.624 132.099,220.939 124.417,221.522C116.736,222.104 96.795,219.929 83.745,227.426C69.179,235.794 68.756,247.7 68.756,247.7L9.122,247.33L8.624,145.208C8.624,145.208 10.286,139.389 18.028,138.562L20.544,138.01C18.147,119.574 31.11,82.397 41.741,81.704C55.423,80.812 62.307,108.44 68.913,125.518Z" style="fill:rgb(158,158,158);stroke:black;stroke-width:15px;"/>
        <g id="Left-ear" serif:id="Left ear">
            <path id="Outer" d="M70.436,141.965C70.436,141.965 53.905,151.596 49.985,156.196C46.065,160.797 42.853,163.203 39.929,165.331C37.005,167.458 33.352,168.466 30.196,168.364C28.855,166.463 22.497,155.101 22.917,136.409C23.336,117.716 27.982,109.177 29.968,104.037C31.954,98.898 35.022,84.451 44.635,84.115C54.249,83.779 65.411,122.902 70.436,141.965Z" style="fill:rgb(33,33,33);"/>
            <path id="Inner" d="M46.667,159.719C46.667,159.719 42.182,148.244 39.114,142.794C36.941,138.935 30.724,127.341 31.662,120.593C32.6,113.845 37.332,91.878 44.115,92.112C50.898,92.345 55.515,111.106 56.294,114.962C58.401,125.404 57.605,150.013 57.605,150.013L46.667,159.719Z" style="fill:rgb(207,207,207);"/>
        </g>
        <path id="Snout" d="M150.517,193.676C150.517,193.676 140.118,184.826 130.449,181.749C120.18,178.481 97.558,178.742 84.321,185.276C56.103,199.206 77.647,219.083 91.855,216.348C93.793,215.975 108.626,214.812 123.935,214.579C136.454,214.388 150.517,193.676 150.517,193.676Z" style="fill:rgb(207,207,207);"/>
        <ellipse id="Nose" cx="140.949" cy="194.655" rx="10.908" ry="8.936" style="fill:rgb(33,33,33);"/>
        <path id="Eye" d="M72.219,164.928C72.219,164.928 89.208,160.333 95.27,175.601" style="fill:none;stroke:black;stroke-width:8px;"/>
        <path id="Mouth1" serif:id="Mouth" d="M84.321,199.39L90.3,205.244L105.184,205.201L129.477,213.918" style="fill:none;stroke:black;stroke-width:8px;"/>
    </g>
    <path id="Right-arm" serif:id="Right arm" d="M193.615,213.603L150.492,224.114C143.682,225.385 137.639,223.088 136.653,217.806C135.667,212.524 140.388,208.054 147.198,206.783L180.825,198.116L178.404,184.836C177.734,181.248 180.947,177.633 185.573,176.769C190.2,175.905 194.5,178.117 195.17,181.706L199.672,205.818C200.286,209.107 197.63,212.419 193.615,213.603Z" style="fill:rgb(151,151,151);"/>
    <path d="M195.983,223.319L152.86,233.829C152.683,233.872 152.506,233.911 152.327,233.944C139.235,236.388 128.718,229.796 126.823,219.641C124.946,209.587 132.153,199.575 144.998,197.023C144.998,197.023 169.319,190.755 169.319,190.755C169.319,190.755 168.568,186.635 168.568,186.635C167.047,178.369 173.085,168.928 183.738,166.939C194.407,164.947 203.456,171.596 205.001,179.871L209.502,203.982C210.948,211.729 205.9,220.405 196.444,223.195C196.291,223.24 196.138,223.281 195.983,223.319ZM193.615,213.603C197.63,212.419 200.286,209.107 199.672,205.818L195.17,181.706C194.5,178.117 190.2,175.905 185.573,176.769C180.947,177.633 177.734,181.248 178.404,184.836L180.825,198.116L147.198,206.783C140.388,208.054 135.667,212.524 136.653,217.806C137.639,223.088 143.682,225.385 150.492,224.114L193.615,213.603Z"/>
</svg>
