<?xml version="1.0" encoding="UTF-8" standalone="no"?>
<!DOCTYPE svg PUBLIC "-//W3C//DTD SVG 1.1//EN" "http://www.w3.org/Graphics/SVG/1.1/DTD/svg11.dtd">
<svg width="100%" height="100%" viewBox="0 0 256 256" version="1.1" xmlns="http://www.w3.org/2000/svg" xmlns:xlink="http://www.w3.org/1999/xlink" xml:space="preserve" xmlns:serif="http://www.serif.com/" style="fill-rule:evenodd;clip-rule:evenodd;stroke-linecap:round;stroke-linejoin:round;stroke-miterlimit:1.5;">
    <rect id="blobbee_popcorn" x="0" y="0" width="256" height="256" style="fill:none;"/>
    <clipPath id="_clip1">
        <rect x="0" y="0" width="256" height="256"/>
    </clipPath>
    <g clip-path="url(#_clip1)">
        <path id="Wings-outline" serif:id="Wings outline" d="M156.902,59.708C129.065,62.422 97.449,41.187 84.028,5.602C68.683,-35.087 84.083,-75.347 114.432,-85.495C138.087,-93.404 166.844,-81.498 185.329,-56.266C212.177,-74.912 244.432,-77.257 265.424,-61.776C292.853,-41.548 294.933,4.366 265.843,40.638C237.208,76.342 191.253,86.226 164.254,66.316C161.555,64.325 159.104,62.114 156.902,59.708ZM163.201,43.032C165.691,47.381 169.007,51.183 173.157,54.243C194.848,70.24 231.136,59.939 254.141,31.254C277.146,2.569 278.213,-33.707 256.521,-49.704C236.599,-64.396 204.363,-56.904 181.414,-33.36C168.453,-61.92 141.479,-78.722 119.189,-71.269C95.605,-63.383 86.139,-31.311 98.063,0.309C109.988,31.928 138.817,51.196 162.402,43.311C162.67,43.221 162.936,43.128 163.201,43.032Z"/>
        <path id="Body" d="M153.948,1.873C234.775,-44.793 326.183,-39.231 357.943,14.285C389.703,67.802 349.866,149.137 269.039,195.803C188.211,242.469 96.804,236.907 65.044,183.391C33.283,129.874 73.12,48.539 153.948,1.873Z" style="fill:rgb(254,194,7);"/>
        <g id="Stripes">
            <path d="M214.839,-16.143C213.085,-14.747 341.1,-20.628 353.122,109.755C417.141,-61.844 215.475,-29.069 214.839,-16.143Z" style="fill:rgb(85,85,85);"/>
            <path d="M353.122,111.111C345.447,-14.695 217.939,-17.662 218.636,-21.398L171.119,-3.799C171.119,-3.799 325.08,-6.19 330.564,142.056L349.196,113.372" style="fill:rgb(254,194,7);"/>
            <path d="M301.943,172.58L330.298,142.056C324.914,-6.379 167.886,-8.962 167.888,-8.907L142.717,5.942C142.483,5.984 305.112,19.06 301.943,172.58Z" style="fill:rgb(85,85,85);"/>
            <path d="M144.846,6.056L117.696,27.238C117.696,27.238 273.776,42.777 272.117,194.288L301.428,174.64C312.302,24.356 143.194,7.326 140.795,9.216" style="fill:rgb(254,194,7);"/>
            <path d="M111.865,30.126L91.509,51.766C91.509,51.766 235.189,53.063 238.466,209.312L272.117,194.288C277.858,38.077 116.53,31.787 111.865,30.126Z" style="fill:rgb(85,85,85);"/>
        </g>
        <path id="Body-outline" serif:id="Body outline" d="M153.948,1.873C234.775,-44.793 326.183,-39.231 357.943,14.285C389.703,67.802 349.866,149.137 269.039,195.803C188.211,242.469 96.804,236.907 65.044,183.391C33.283,129.874 73.12,48.539 153.948,1.873Z" style="fill:none;stroke:black;stroke-width:15px;"/>
        <g id="Wings">
            <path id="Back-wing" serif:id="Back wing" d="M119.189,-71.269C142.773,-79.155 171.602,-59.886 183.527,-28.267C195.452,3.352 185.986,35.425 162.402,43.311C138.817,51.196 109.988,31.928 98.063,0.309C86.139,-31.311 95.605,-63.383 119.189,-71.269Z" style="fill:rgb(167,167,167);"/>
            <path id="Front-wing" serif:id="Front wing" d="M256.521,-49.704C278.213,-33.707 277.146,2.569 254.141,31.254C231.136,59.939 194.848,70.24 173.157,54.243C151.465,38.247 152.532,1.971 175.537,-26.714C198.542,-55.399 234.83,-65.7 256.521,-49.704Z" style="fill:rgb(195,195,195);"/>
        </g>
        <g id="Face">
            <path id="Mouth" d="M95.645,168.037L106.421,186.154L120.941,168.069L138.928,186.104L160.355,168.09" style="fill:none;stroke:black;stroke-width:10px;"/>
            <g id="Eyes">
                <path id="Right-eye" serif:id="Right eye" d="M173.106,124.059L173.106,132.005C173.106,140.353 166.329,147.129 157.982,147.129C149.635,147.129 142.858,140.353 142.858,132.005L142.858,124.059C142.858,115.712 149.635,108.935 157.982,108.935C166.329,108.935 173.106,115.712 173.106,124.059Z"/>
                <path id="Left-eye" serif:id="Left eye" d="M113.001,123.995L113.001,131.941C113.001,140.288 106.225,147.065 97.877,147.065C89.53,147.065 82.753,140.288 82.753,131.941L82.753,123.995C82.753,115.647 89.53,108.871 97.877,108.871C106.225,108.871 113.001,115.647 113.001,123.995Z"/>
            </g>
        </g>
        <g id="Popcorn">
            <path id="Outline" d="M10.147,186.111C8.547,183.135 8.307,177.608 8.307,174.712C8.307,170.575 11.666,167.216 15.803,167.216C16.985,167.216 18.104,167.49 19.099,167.979C18.9,167.207 18.794,166.399 18.794,165.565C18.794,160.243 23.115,155.922 28.437,155.922C29.549,155.922 30.617,156.111 31.611,156.458C32.014,153.728 33.308,151.286 35.188,149.438C34.582,148.581 33.699,147.226 33.229,144.233C32.342,138.571 37.903,133.357 43.613,133.85C46.937,134.137 47.11,134.468 50.445,136.232C51.597,135.667 52.892,135.35 54.261,135.35C58.053,135.35 61.28,137.784 62.466,141.173C64.051,140.227 65.903,139.683 67.882,139.683C73.722,139.683 78.464,144.424 78.464,150.265C78.464,152.577 77.721,154.717 76.46,156.458C76.587,156.453 76.714,156.451 76.841,156.451C81.807,156.451 85.839,160.482 85.839,165.448C85.839,165.962 85.795,166.467 85.712,166.958C86.274,166.851 86.854,166.795 87.447,166.795C92.558,166.795 96.706,170.944 96.706,176.054C96.706,176.557 96.474,177.659 96.092,179.102L86.661,233.031C86.661,240.476 71.357,246.52 52.507,246.52C33.657,246.52 18.353,240.476 18.353,233.031L10.147,186.111Z" style="fill:none;stroke:black;stroke-width:15px;"/>
            <path id="Kernels" d="M89.872,196.225C89.872,196.225 40.408,211.323 23.052,197.306L15.281,185.682C11.251,185.559 8.307,178.771 8.307,174.712C8.307,170.575 11.666,167.216 15.803,167.216C16.985,167.216 18.104,167.49 19.099,167.979C18.9,167.207 18.794,166.399 18.794,165.565C18.794,160.243 23.115,155.922 28.437,155.922C29.549,155.922 30.617,156.111 31.611,156.458C32.014,153.728 33.308,151.286 35.188,149.438C34.582,148.581 33.699,147.226 33.229,144.233C32.342,138.571 37.903,133.357 43.613,133.85C46.937,134.137 47.11,134.468 50.445,136.232C51.597,135.667 52.892,135.35 54.261,135.35C58.053,135.35 61.28,137.784 62.466,141.173C64.051,140.227 65.903,139.683 67.882,139.683C73.722,139.683 78.464,144.424 78.464,150.265C78.464,152.577 77.721,154.717 76.46,156.458C76.587,156.453 76.714,156.451 76.841,156.451C81.807,156.451 85.839,160.482 85.839,165.448C85.839,165.962 85.795,166.467 85.712,166.958C86.274,166.851 86.854,166.795 87.447,166.795C92.558,166.795 96.706,170.944 96.706,176.054C96.706,178.461 91.38,194.577 89.872,196.225Z" style="fill:rgb(248,226,108);"/>
            <path id="Bucket" d="M96.452,177.043L86.661,233.031C86.661,240.476 71.357,246.52 52.507,246.52C33.657,246.52 18.353,240.476 18.353,233.031L8.561,177.043C10.94,183.805 29.722,189.077 52.507,189.077C75.292,189.077 94.073,183.805 96.452,177.043Z" style="fill:white;"/>
            <g id="Stripes1" serif:id="Stripes">
                <path d="M20.677,237.929L20.677,184.944C24.229,186.069 28.414,187.007 33.058,187.703L33.058,244.118C27.516,242.598 23.166,240.447 20.677,237.929Z" style="fill:rgb(216,72,72);"/>
                <path d="M45.407,246.227L45.407,188.904C47.719,189.018 50.09,189.077 52.507,189.077C54.293,189.077 56.056,189.045 57.787,188.982L57.787,246.359C56.066,246.465 54.302,246.52 52.507,246.52C50.073,246.52 47.698,246.419 45.407,246.227Z" style="fill:rgb(216,72,72);"/>
                <path d="M70.168,244.576L70.168,187.956C74.751,187.345 78.931,186.503 82.548,185.479L82.548,239.449C79.647,241.561 75.359,243.334 70.168,244.576Z" style="fill:rgb(216,72,72);"/>
            </g>
            <g id="Shadows">
                <path d="M54.466,148.442C54.466,148.442 51.561,154.879 43.613,151.398" style="fill:none;stroke:black;stroke-width:3px;"/>
                <path d="M70.216,163.849C70.216,163.849 64.041,167.276 59.745,159.737" style="fill:none;stroke:black;stroke-width:3px;"/>
                <path d="M37.14,166.933C37.14,166.933 36.001,173.902 27.422,172.598" style="fill:none;stroke:black;stroke-width:3px;"/>
                <path d="M57.945,177.744C57.945,177.744 52.211,181.866 47.068,174.877" style="fill:none;stroke:black;stroke-width:3px;"/>
                <path d="M81.133,174.22C81.133,174.22 78.228,180.657 70.28,177.177" style="fill:none;stroke:black;stroke-width:3px;"/>
            </g>
        </g>
        <path id="Right-arm" serif:id="Right arm" d="M193.258,245.463L107.034,231.376C96.801,229.412 89.879,221.435 91.842,211.203C93.805,200.97 103.162,195.8 113.395,197.763L185.305,209.242L190.322,183.551C191.656,176.599 198.383,172.037 205.336,173.371C212.288,174.705 216.85,181.432 215.516,188.385L206.554,235.097C205.331,241.47 199.566,245.829 193.258,245.463Z" style="fill:rgb(151,151,151);"/>
        <path d="M191.645,255.332L105.422,241.245C105.331,241.23 105.24,241.214 105.15,241.197C89.191,238.135 78.959,225.277 82.021,209.318C85.067,193.444 99.256,184.943 115.112,187.91C115.112,187.91 177.342,197.844 177.342,197.844C177.342,197.844 180.507,181.636 180.507,181.636C182.895,169.28 194.858,161.178 207.22,163.55C219.593,165.924 227.711,177.896 225.337,190.269L216.375,236.981C214.196,248.337 203.919,256.099 192.678,255.446C192.332,255.426 191.987,255.388 191.645,255.332ZM193.258,245.463C199.566,245.829 205.331,241.47 206.554,235.097L215.516,188.385C216.85,181.432 212.288,174.705 205.336,173.371C198.383,172.037 191.656,176.599 190.322,183.551L185.305,209.242L113.395,197.763C103.162,195.8 93.805,200.97 91.842,211.203C89.879,221.435 96.801,229.412 107.034,231.376L193.258,245.463Z"/>
    </g>
</svg>
