<?xml version="1.0" encoding="UTF-8" standalone="no"?>
<!DOCTYPE svg PUBLIC "-//W3C//DTD SVG 1.1//EN" "http://www.w3.org/Graphics/SVG/1.1/DTD/svg11.dtd">
<svg width="100%" height="100%" viewBox="0 0 256 256" version="1.1" xmlns="http://www.w3.org/2000/svg" xmlns:xlink="http://www.w3.org/1999/xlink" xml:space="preserve" xmlns:serif="http://www.serif.com/" style="fill-rule:evenodd;clip-rule:evenodd;stroke-linecap:round;stroke-linejoin:round;stroke-miterlimit:1.5;">
    <g transform="matrix(1,0,0,1,-1405,-1124)">
        <g id="blobbee_laptop" transform="matrix(1,0,0,1,1405,1124.35)">
            <rect x="0" y="0" width="256" height="256" style="fill:none;"/>
            <g id="Laptop-outline" serif:id="Laptop outline" transform="matrix(1,0,0,1,-1404.28,-1229.96)">
                <path d="M1608.68,1437.79C1609.17,1438.98 1609.95,1441.23 1610.15,1443.8C1610.55,1448.7 1609.16,1454.35 1603.29,1458.2C1599.2,1460.88 1573.89,1478.1 1571.26,1479.89L1565.91,1481.54C1565.76,1481.69 1565.67,1481.77 1565.67,1481.77L1436.82,1481.77C1432.22,1481.77 1428.22,1478.64 1427.11,1474.19L1406.89,1392.96C1408,1397.42 1412,1400.54 1416.59,1400.54C1413.52,1400.52 1410.63,1399.08 1408.76,1396.64C1406.86,1394.17 1406.22,1390.97 1407.02,1387.97C1407.64,1385.65 1411.62,1373.87 1425.04,1373.83C1432.01,1373.8 1546,1374 1546,1374C1546.4,1374 1546.8,1374.02 1547.19,1374.07C1547.19,1374.07 1559.04,1374.84 1562.17,1388.49C1562.9,1391.67 1567.7,1410.57 1572.12,1427.9C1579.3,1427.93 1589.04,1427.96 1591.09,1427.96C1598.43,1427.96 1605.61,1433.49 1605.61,1433.49C1607.04,1434.65 1608.08,1436.14 1608.68,1437.79ZM1596.34,1450.81C1597.28,1451.1 1598.28,1451.25 1599.29,1451.25L1599.29,1451.25C1598.29,1451.25 1597.3,1451.09 1596.35,1450.8C1596.88,1450.45 1597.32,1450.16 1597.65,1449.94C1598.55,1450.7 1599.2,1451.17 1599.29,1451.24C1599.27,1451.11 1599.14,1450.22 1598.91,1448.9C1601.53,1445.98 1599.41,1441.49 1599.29,1441.25L1599.3,1441.25C1599.3,1441.25 1598.42,1440.53 1597.06,1439.77C1596.05,1435.66 1594.82,1432.2 1593.66,1432.99C1591.46,1434.5 1590.48,1436.21 1590.29,1437.96C1585.37,1437.95 1566.61,1437.88 1564.35,1437.88C1559.49,1418.85 1553.26,1394.39 1552.42,1390.73C1551.02,1384.61 1545.99,1384 1545.99,1384C1545.99,1384 1432.04,1383.8 1425.07,1383.83C1418.77,1383.85 1416.97,1389.46 1416.68,1390.54L1416.59,1390.54L1436.82,1471.77L1565.67,1471.77L1565.64,1471.62C1568.05,1469.98 1589.58,1455.33 1596.34,1450.81ZM1547.48,1398.71L1545.5,1390.73L1545.53,1390.73L1547.48,1398.71Z"/>
            </g>
            <g id="Bee" transform="matrix(0.887478,0,0,0.887478,40.7668,3.7135)">
                <clipPath id="_clip1">
                    <path d="M211.459,180.054L211.81,292.616L-149.134,300.059L-149.079,-101.624L191.49,-98.989L191.49,45.116C226.297,46.697 254.291,135.553 211.459,180.054"/>
                </clipPath>
                <g clip-path="url(#_clip1)">
                    <g id="Sting" transform="matrix(0.78314,0.139967,-0.135634,0.7589,67.2303,-21.11)">
                        <path d="M189.771,56.854L238.765,34.355L235.05,81.388" style="fill:rgb(104,104,104);stroke:black;stroke-width:14.38px;"/>
                    </g>
                    <g id="Body" transform="matrix(0.994109,-0.573949,0.761422,1.28301,-120.17,92.6047)">
                        <ellipse cx="168.926" cy="110.515" rx="107.942" ry="55.376" style="fill:rgb(104,104,104);stroke:black;stroke-width:8.42px;"/>
                    </g>
                    <g id="Wings-outline" serif:id="Wings outline" transform="matrix(0.959562,0.127262,-0.127262,0.959562,7.56883,-6.44254)">
                        <g transform="matrix(1.17688,-0.575088,0.651434,1.21399,-55.8934,35.953)">
                            <path d="M87.471,13.094C105.77,13.094 122.065,31.227 122.065,54.87C122.065,78.897 105.392,97.287 86.795,97.287C68.496,97.287 52.201,79.154 52.201,55.512C52.201,31.484 68.873,13.094 87.471,13.094ZM87.133,21.55C72.762,21.55 61.095,36.624 61.095,55.191C61.095,73.758 72.762,88.832 87.133,88.832C101.504,88.832 113.171,73.758 113.171,55.191C113.171,36.624 101.504,21.55 87.133,21.55Z"/>
                        </g>
                        <g transform="matrix(1.24343,0.685066,-0.776012,1.28263,74.2693,-72.8119)">
                            <path d="M86.8,13.778C105.069,13.778 121.378,31.903 121.378,55.505C121.378,78.73 105.442,96.603 87.465,96.603C69.197,96.603 52.888,78.478 52.888,54.876C52.888,31.651 68.824,13.778 86.8,13.778ZM87.133,21.55C72.762,21.55 61.095,36.624 61.095,55.191C61.095,73.758 72.762,88.832 87.133,88.832C101.504,88.832 113.171,73.758 113.171,55.191C113.171,36.624 101.504,21.55 87.133,21.55Z"/>
                        </g>
                    </g>
                    <g id="Stripes" transform="matrix(1,0,0,1,4.4273,10.012)">
                        <g transform="matrix(1,-7.43708e-18,-7.43708e-18,1,92.3462,-63.8411)">
                            <path d="M37.588,107.021C36.302,108.044 130.102,103.736 138.911,199.269C185.818,73.536 38.054,97.55 37.588,107.021Z" style="fill:rgb(254,194,7);stroke:black;stroke-width:3.38px;"/>
                        </g>
                        <g transform="matrix(1,-7.43708e-18,-7.43708e-18,1,73.4912,-52.6421)">
                            <path d="M157.766,189.064C152.141,96.884 58.714,94.709 59.225,91.972L24.408,104.867C24.408,104.867 137.219,103.115 141.236,211.738L154.889,190.72" style="fill:rgb(104,104,104);stroke:black;stroke-width:3.38px;"/>
                        </g>
                        <g transform="matrix(1,-7.43708e-18,-7.43708e-18,1,55.5726,-39.8214)">
                            <path d="M138.184,221.282L158.96,198.917C155.015,90.156 39.958,88.264 39.959,88.304L21.516,99.184C21.345,99.215 140.506,108.796 138.184,221.282Z" style="fill:rgb(254,194,7);stroke:black;stroke-width:3.38px;"/>
                        </g>
                        <g transform="matrix(1,-7.43708e-18,-7.43708e-18,1,25.9786,-19.0024)">
                            <path d="M52.67,78.448L32.777,93.969C32.777,93.969 147.14,105.355 145.924,216.369L167.401,201.973C175.368,91.857 51.46,79.379 49.702,80.764" style="fill:rgb(104,104,104);stroke:black;stroke-width:3.38px;"/>
                        </g>
                        <g transform="matrix(1,-7.43708e-18,-7.43708e-18,1,-0.424026,-0.546032)">
                            <path d="M54.907,77.629L39.992,93.485C39.992,93.485 145.269,94.435 147.67,208.921L172.327,197.913C176.533,83.454 58.325,78.845 54.907,77.629Z" style="fill:rgb(254,194,7);stroke:black;stroke-width:3.38px;"/>
                        </g>
                    </g>
                    <g id="Body-outline" serif:id="Body outline" transform="matrix(0.994109,-0.573949,0.761422,1.28301,-120.17,92.6047)">
                        <ellipse cx="168.926" cy="110.515" rx="107.942" ry="55.376" style="fill:none;stroke:black;stroke-width:8.42px;"/>
                    </g>
                    <g id="Wings" transform="matrix(0.959562,0.127262,-0.127262,0.959562,7.56883,-6.44254)">
                        <g id="Back-wing" serif:id="Back wing" transform="matrix(1.17688,-0.575088,0.651434,1.21399,-55.8934,35.953)">
                            <ellipse cx="87.133" cy="55.191" rx="26.038" ry="33.641" style="fill:rgb(195,195,195);stroke:black;stroke-width:2.55px;"/>
                        </g>
                        <g id="Front-wing" serif:id="Front wing" transform="matrix(0.946806,0,0,0.999012,5.86837,0.313874)">
                            <g id="Front-wing-main" serif:id="Front wing main" transform="matrix(1.31328,0.685743,-0.81961,1.2839,72.2439,-73.1981)">
                                <ellipse cx="87.133" cy="55.191" rx="26.038" ry="33.641" style="fill:rgb(195,195,195);stroke:black;stroke-width:2.44px;"/>
                            </g>
                            <path id="Front-wing-line" serif:id="Front wing line" d="M119.334,101.013C123.249,82.03 129.669,61.104 148.451,47.276" style="fill:none;stroke:black;stroke-width:3.59px;"/>
                        </g>
                    </g>
                    <g id="Face" transform="matrix(1,0,0,1,-3.8947,1.36785)">
                        <g id="Mouth" transform="matrix(0.658566,-1.17246e-18,-3.87825e-17,0.848272,3.90699,42.2986)">
                            <path d="M79.429,171.352L92.31,191.237L108.219,172.744L128,191.722L152.351,171.648" style="fill:none;stroke:black;stroke-width:16.32px;stroke-miterlimit:2;"/>
                            <path d="M79.429,171.352L92.31,191.237L108.219,172.744L128,191.722L152.351,171.648" style="fill:none;stroke:rgb(235,235,235);stroke-width:7.42px;"/>
                        </g>
                        <g id="Eyes" transform="matrix(0.934011,0.13629,-0.13629,0.934011,50.6896,-3.80844)">
                            <g id="Right-eye" serif:id="Right eye" transform="matrix(1.4375,-0.209757,0.197806,1.35559,-152.493,29.6724)">
                                <path d="M154.615,113.255C154.615,107.493 150.203,102.815 144.77,102.815C139.336,102.815 134.924,107.493 134.924,113.255L134.924,120.6C134.924,126.362 139.336,131.04 144.77,131.04C150.203,131.04 154.615,126.362 154.615,120.6L154.615,113.255Z" style="fill:rgb(235,235,235);stroke:black;stroke-width:2.54px;"/>
                            </g>
                            <g id="Right-eye1" serif:id="Right eye" transform="matrix(0.585857,-0.0854874,0.0953715,0.653594,-18.9161,100.528)">
                                <path d="M154.615,111.64C154.615,106.77 150.203,102.815 144.77,102.815C139.336,102.815 134.924,106.77 134.924,111.64L134.924,122.216C134.924,127.086 139.336,131.04 144.77,131.04C150.203,131.04 154.615,127.086 154.615,122.216L154.615,111.64Z"/>
                            </g>
                            <g id="Left-eye" serif:id="Left eye" transform="matrix(1.4375,-0.209757,0.197806,1.35559,-198.973,36.4548)">
                                <path d="M154.615,113.255C154.615,107.493 150.203,102.815 144.77,102.815C139.336,102.815 134.924,107.493 134.924,113.255L134.924,120.6C134.924,126.362 139.336,131.04 144.77,131.04C150.203,131.04 154.615,126.362 154.615,120.6L154.615,113.255Z" style="fill:rgb(235,235,235);stroke:black;stroke-width:2.54px;"/>
                            </g>
                            <g id="Right-eye2" serif:id="Right eye" transform="matrix(0.585857,-0.0854874,0.0953715,0.653594,-65.3963,107.31)">
                                <path d="M154.615,111.64C154.615,106.77 150.203,102.815 144.77,102.815C139.336,102.815 134.924,106.77 134.924,111.64L134.924,122.216C134.924,127.086 139.336,131.04 144.77,131.04C150.203,131.04 154.615,127.086 154.615,122.216L154.615,111.64Z"/>
                            </g>
                        </g>
                    </g>
                </g>
            </g>
            <g id="Body-stroke" serif:id="Body stroke" transform="matrix(1.30224,0,0,1.30224,-492.209,-1837.36)">
                <path d="M537.043,1444.11C560.795,1446.95 580.23,1507.87 550.251,1539.35" style="fill:none;stroke:black;stroke-width:2.3px;"/>
            </g>
            <g id="Body-stroke1" serif:id="Body stroke" transform="matrix(1.30224,0,0,1.30224,-492.209,-1837.36)">
                <path d="M539.2,1444.11C562.952,1446.95 580.23,1507.87 550.251,1539.35" style="fill:none;stroke:black;stroke-width:7.68px;"/>
            </g>
            <g id="Sting1" serif:id="Sting" transform="matrix(0.526379,0.0827424,-0.0801813,0.510086,123.768,4.76549)">
                <path d="M191.017,52.697L238.765,34.355L230.765,91.133" style="fill:rgb(104,104,104);stroke:black;stroke-width:19.06px;"/>
            </g>
            <g id="Laptop" transform="matrix(1,0,0,1,1.98541,-5.02427)">
                <g transform="matrix(0.84614,0,0.211927,0.851296,-35.3435,42.5291)">
                    <rect x="17.762" y="144.583" width="152.289" height="95.417" style="fill:rgb(185,185,185);"/>
                </g>
                <g transform="matrix(0.844443,0,0,0.844443,-4.5095,44.1739)">
                    <path d="M192.274,199.86L199.391,227.48L233.934,203.851C233.934,203.851 229.155,199.963 224.205,199.963C220.266,199.963 192.274,199.86 192.274,199.86Z" style="fill:rgb(185,185,185);"/>
                </g>
                <g transform="matrix(0.844443,0,0,0.844443,-4.5095,44.1739)">
                    <path d="M17.622,144.023C17.622,144.023 19.35,135.879 27.604,135.852C35.858,135.826 170.796,136.056 170.796,136.056C170.796,136.056 176.76,136.782 178.42,144.023C180.08,151.264 199.509,227.124 199.509,227.124L233.917,203.847C233.917,203.847 237.298,210.659 232.166,214.02C227.035,217.38 193.805,240 193.805,240L170.251,144.023L17.622,144.023Z" style="fill:rgb(144,144,144);"/>
                </g>
                <g transform="matrix(0.596323,0,0.160178,0.596323,-13.0419,89.6544)">
                    <path d="M107.412,176.31L127.152,187.707L127.152,210.501L107.412,221.898L87.672,210.501L87.672,187.707L107.412,176.31Z" style="fill:none;stroke:black;stroke-width:16.15px;stroke-linecap:butt;stroke-miterlimit:2;"/>
                    <path d="M107.412,176.31L127.152,187.707L127.152,210.501L107.412,221.898L87.672,210.501L87.672,187.707L107.412,176.31Z" style="fill:none;stroke:white;stroke-width:7.34px;"/>
                </g>
            </g>
            <g id="Laptop-outline1" serif:id="Laptop outline" transform="matrix(1,0,0,1,-1404.28,-1229.96)">
                <path d="M1416.59,1393.54C1415.7,1393.52 1414.85,1393.09 1414.31,1392.37C1413.74,1391.63 1413.55,1390.67 1413.79,1389.77C1414.17,1388.32 1416.63,1380.85 1425.06,1380.83C1432.03,1380.8 1545.99,1381 1545.99,1381C1546.11,1381 1546.23,1381.01 1546.35,1381.02C1546.35,1381.02 1553.43,1381.68 1555.35,1390.06C1556.15,1393.57 1561.93,1416.26 1566.68,1434.88C1572.88,1434.91 1588.43,1434.96 1591.09,1434.96C1596.22,1434.96 1601.19,1438.92 1601.19,1438.92C1601.64,1439.28 1601.96,1439.75 1602.14,1440.26C1602.42,1440.92 1603.03,1442.51 1603.17,1444.36C1603.39,1447.07 1602.69,1450.22 1599.45,1452.34C1595.35,1455.03 1569.96,1472.31 1567.32,1474.1L1565.9,1474.54C1565.76,1474.69 1565.67,1474.77 1565.67,1474.77L1436.82,1474.77C1435.44,1474.77 1434.24,1473.83 1433.9,1472.5L1413.68,1391.27C1414.02,1392.61 1415.22,1393.54 1416.59,1393.54ZM1598.61,1440.74C1598.31,1439.53 1597.95,1438.54 1597.61,1438.77C1597.22,1439.04 1596.96,1439.32 1596.8,1439.62C1595.26,1438.8 1593.19,1437.96 1591.09,1437.96C1587.95,1437.96 1566.76,1437.89 1564.35,1437.88C1559.49,1418.85 1553.26,1394.39 1552.42,1390.73C1551.02,1384.61 1545.99,1384 1545.99,1384C1545.99,1384 1432.04,1383.8 1425.07,1383.83C1418.77,1383.85 1416.97,1389.46 1416.68,1390.54L1416.59,1390.54L1436.82,1471.77L1565.67,1471.77L1565.64,1471.62C1568.27,1469.83 1593.7,1452.52 1597.81,1449.83C1602.04,1447.06 1599.42,1441.52 1599.29,1441.25L1599.3,1441.25C1599.3,1441.25 1599.05,1441.04 1598.61,1440.74ZM1546.03,1392.77C1546.02,1392.78 1546.02,1392.79 1546.01,1392.8L1545.5,1390.73L1545.53,1390.73L1546.03,1392.77ZM1546.06,1393L1546.08,1392.98L1547.48,1398.71L1546.06,1393Z"/>
            </g>
        </g>
    </g>
</svg>
