<?xml version="1.0" encoding="UTF-8" standalone="no"?>
<!DOCTYPE svg PUBLIC "-//W3C//DTD SVG 1.1//EN" "http://www.w3.org/Graphics/SVG/1.1/DTD/svg11.dtd">
<svg width="100%" height="100%" viewBox="0 0 256 256" version="1.1" xmlns="http://www.w3.org/2000/svg" xmlns:xlink="http://www.w3.org/1999/xlink" xml:space="preserve" xmlns:serif="http://www.serif.com/" style="fill-rule:evenodd;clip-rule:evenodd;stroke-linecap:round;stroke-linejoin:round;stroke-miterlimit:1.5;">
    <rect id="blobbee_cowboy" x="0" y="0" width="256" height="256" style="fill:none;"/>
    <path id="Wings-outline" serif:id="Wings outline" d="M96.279,120.487C75.708,121.185 52.927,105.728 43.145,79.789C31.425,48.715 43.942,18.224 67.12,10.474C84.104,4.796 104.741,12.186 118.9,29.051C138.547,17.134 161.284,16.542 176.32,27.631C197.153,42.994 199.558,77.859 177.463,105.409C155.825,132.389 120.92,139.136 100.518,124.09C99.006,122.975 97.593,121.771 96.279,120.487ZM102.495,104.219C104.227,107.244 106.535,109.889 109.421,112.018C124.512,123.147 149.757,115.98 165.761,96.024C181.766,76.068 182.508,50.832 167.417,39.703C153.557,29.482 131.131,34.694 115.166,51.073C106.149,31.204 87.383,19.515 71.876,24.7C55.469,30.186 48.884,52.499 57.18,74.496C65.476,96.493 85.532,109.898 101.939,104.412C102.126,104.35 102.311,104.285 102.495,104.219Z"/>
    <path id="Body" d="M96.058,75.584C152.289,43.119 215.88,46.989 237.975,84.22C260.071,121.45 232.357,178.035 176.126,210.5C119.894,242.965 56.303,239.096 34.208,201.865C12.113,164.634 39.827,108.049 96.058,75.584Z" style="fill:rgb(254,194,7);"/>
    <g id="Stripes">
        <path d="M138.419,63.051C137.199,64.022 226.258,59.931 234.622,150.637C279.159,31.257 138.862,54.058 138.419,63.051Z" style="fill:rgb(85,85,85);"/>
        <path d="M234.622,151.58C229.282,64.059 140.576,61.994 141.061,59.395L108.004,71.638C108.004,71.638 215.113,69.975 218.928,173.108L231.89,153.153" style="fill:rgb(254,194,7);"/>
        <path d="M199.017,194.344L218.743,173.108C214.997,69.843 105.755,68.047 105.756,68.085L88.245,78.415C88.082,78.445 201.222,87.541 199.017,194.344Z" style="fill:rgb(85,85,85);"/>
        <path d="M89.726,78.494L70.838,93.231C70.838,93.231 179.421,104.041 178.267,209.446L198.659,195.777C206.223,91.226 88.577,79.378 86.908,80.693" style="fill:rgb(254,194,7);"/>
        <path d="M66.781,95.24L52.62,110.295C52.62,110.295 152.576,111.197 154.856,219.898L178.267,209.446C182.261,100.771 70.026,96.395 66.781,95.24Z" style="fill:rgb(85,85,85);"/>
    </g>
    <path id="Body-outline" serif:id="Body outline" d="M96.058,75.584C152.289,43.119 215.88,46.989 237.975,84.22C260.071,121.45 232.357,178.035 176.126,210.5C119.894,242.965 56.303,239.096 34.208,201.865C12.113,164.634 39.827,108.049 96.058,75.584Z" style="fill:none;stroke:black;stroke-width:15px;"/>
    <g id="Wings">
        <path id="Back-wing" serif:id="Back wing" d="M71.876,24.7C88.284,19.214 108.34,32.619 116.636,54.616C124.932,76.613 118.347,98.926 101.939,104.412C85.532,109.898 65.476,96.493 57.18,74.496C48.884,52.499 55.469,30.186 71.876,24.7Z" style="fill:rgb(167,167,167);"/>
        <path id="Front-wing" serif:id="Front wing" d="M167.417,39.703C182.508,50.832 181.766,76.068 165.761,96.024C149.757,115.98 124.512,123.147 109.421,112.018C94.331,100.889 95.073,75.653 111.077,55.697C127.082,35.741 152.327,28.574 167.417,39.703Z" style="fill:rgb(195,195,195);"/>
    </g>
    <g id="Face">
        <path id="Mouth" d="M53.545,191.361L61.071,204.015L71.213,191.384L83.776,203.98L98.742,191.398" style="fill:none;stroke:black;stroke-width:6.56px;"/>
        <path id="Right-eye" serif:id="Right eye" d="M109.041,163.431L109.041,168.842C109.041,174.527 104.426,179.142 98.742,179.142C93.057,179.142 88.442,174.527 88.442,168.842L88.442,163.431C88.442,157.746 93.057,153.131 98.742,153.131C104.426,153.131 109.041,157.746 109.041,163.431Z"/>
        <path id="Left-eye" serif:id="Left eye" d="M63.845,163.431L63.845,168.842C63.845,174.527 59.23,179.142 53.545,179.142C47.861,179.142 43.246,174.527 43.246,168.842L43.246,163.431C43.246,157.746 47.861,153.131 53.545,153.131C59.23,153.131 63.845,157.746 63.845,163.431Z"/>
    </g>
    <g id="Hat">
        <path id="Outline" d="M53.629,94.965C54.201,90.981 55.349,85.25 57.593,80.267C61.354,71.913 63.263,63.552 71.437,63.321C77.216,63.158 78.302,64.07 81.927,67.431C85.552,70.792 85.805,74.562 89.797,74.292C93.789,74.021 95.858,71.465 96.778,69.172C97.698,66.878 100.852,65.192 104.559,65.023C108.267,64.854 111.279,67.769 113.84,70.303C116.013,72.455 120.252,84.03 121.884,95.456C136.757,93.237 150.284,89.658 161.45,85.411C163.752,84.459 166.397,84.922 168.238,86.599C170.079,88.277 170.786,90.867 170.052,93.247C162.058,118.546 129.159,137.476 89.655,137.463C50.26,137.449 17.077,118.6 8.506,93.395C7.713,91.016 8.38,88.394 10.211,86.682C12.043,84.97 14.705,84.482 17.025,85.434C27.483,89.368 39.958,92.731 53.629,94.965Z" style="fill:none;stroke:black;stroke-width:15px;"/>
        <path id="Brim" d="M17.025,85.434C14.705,84.482 12.043,84.97 10.211,86.682C8.38,88.394 7.713,91.016 8.506,93.395C17.077,118.6 50.26,137.449 89.655,137.463C129.159,137.476 162.058,118.546 170.052,93.247C170.786,90.867 170.079,88.277 168.238,86.599C166.397,84.922 163.752,84.459 161.45,85.411C142.529,92.607 116.827,97.888 89.281,97.878C61.809,97.869 36.073,92.599 17.025,85.434Z" style="fill:rgb(98,70,12);"/>
        <path id="Brim-highlight" serif:id="Brim highlight" d="M59.695,99.853C59.094,99.598 58.402,99.696 57.896,100.108C57.391,100.52 57.155,101.179 57.283,101.818C59.712,112.297 73.402,120.365 89.83,120.371C106.286,120.377 119.842,112.29 122.005,101.78C122.117,101.156 121.877,100.52 121.381,100.125C120.885,99.73 120.211,99.639 119.628,99.888C112.035,102.89 101.274,105.19 89.687,105.186C78.118,105.182 67.33,102.882 59.695,99.853Z" style="fill:rgb(126,95,27);"/>
        <path id="Top" d="M53.097,99.926C53.097,99.926 53.68,88.959 57.593,80.267C61.354,71.913 63.263,63.552 71.437,63.321C77.216,63.158 78.302,64.07 81.927,67.431C85.552,70.792 85.805,74.562 89.797,74.292C93.789,74.021 95.858,71.465 96.778,69.172C97.698,66.878 100.852,65.192 104.559,65.023C108.267,64.854 111.279,67.769 113.84,70.303C116.4,72.837 121.825,88.445 122.481,101.484C120.253,101.892 90.411,112.5 53.097,99.926Z" style="fill:rgb(98,70,12);"/>
        <path id="Top-highlight" serif:id="Top highlight" d="M59.524,96.541C59.524,96.541 59.987,88.549 62.954,82.209C65.806,76.114 67.262,70.019 73.422,69.833C77.776,69.701 78.612,72.612 81.336,75.053C84.06,77.493 87.223,80.221 90.231,80.015C93.24,79.81 96.917,77.735 97.615,76.062C98.313,74.389 100.674,70.905 103.467,70.774C106.261,70.643 108.524,72.76 110.448,74.6C112.372,76.441 116.425,87.8 116.891,97.298C115.211,97.6 87.611,105.62 59.524,96.541Z" style="fill:rgb(126,95,27);"/>
    </g>
</svg>
