<?xml version="1.0" encoding="UTF-8" standalone="no"?>
<!DOCTYPE svg PUBLIC "-//W3C//DTD SVG 1.1//EN" "http://www.w3.org/Graphics/SVG/1.1/DTD/svg11.dtd">
<svg width="100%" height="100%" viewBox="0 0 256 256" version="1.1" xmlns="http://www.w3.org/2000/svg" xmlns:xlink="http://www.w3.org/1999/xlink" xml:space="preserve" xmlns:serif="http://www.serif.com/" style="fill-rule:evenodd;clip-rule:evenodd;stroke-linecap:round;stroke-linejoin:round;stroke-miterlimit:1.5;">
    <rect id="blobbee_halo" x="0" y="0" width="256" height="256" style="fill:none;"/>
    <clipPath id="_clip1">
        <rect x="0" y="0" width="256" height="256"/>
    </clipPath>
    <g clip-path="url(#_clip1)">
        <path id="Wings-outline" serif:id="Wings outline" d="M129.457,71.439C101.62,74.152 70.004,52.917 56.583,17.332C41.238,-23.356 56.638,-63.617 86.987,-73.764C110.642,-81.673 139.399,-69.767 157.884,-44.535C184.732,-63.181 216.987,-65.526 237.979,-50.045C265.408,-29.818 267.488,16.097 238.398,52.369C209.763,88.073 163.808,97.957 136.809,78.046C134.11,76.056 131.659,73.845 129.457,71.439ZM135.756,54.763C138.246,59.112 141.562,62.914 145.712,65.974C167.403,81.971 203.691,71.669 226.696,42.984C249.701,14.299 250.768,-21.976 229.076,-37.973C209.154,-52.665 176.918,-45.173 153.969,-21.629C141.008,-50.189 114.034,-66.991 91.744,-59.538C68.16,-51.653 58.694,-19.58 70.618,12.039C82.543,43.658 111.372,62.927 134.957,55.041C135.225,54.952 135.491,54.859 135.756,54.763Z"/>
        <path id="Body" d="M127.902,1.921C208.729,-44.745 300.137,-39.183 331.897,14.333C363.657,67.85 323.82,149.185 242.993,195.851C162.165,242.517 70.758,236.955 38.998,183.439C7.237,129.922 47.074,48.587 127.902,1.921Z" style="fill:rgb(254,194,7);"/>
        <g id="Stripes">
            <path d="M188.793,-16.095C187.039,-14.699 315.054,-20.58 327.076,109.803C391.095,-61.796 189.429,-29.021 188.793,-16.095Z" style="fill:rgb(85,85,85);"/>
            <path d="M327.076,111.159C319.401,-14.647 191.893,-17.614 192.59,-21.35L145.073,-3.751C145.073,-3.751 299.034,-6.142 304.518,142.104L323.15,113.42" style="fill:rgb(254,194,7);"/>
            <path d="M275.897,172.628L304.252,142.104C298.868,-6.332 141.84,-8.914 141.842,-8.859L116.671,5.99C116.437,6.032 279.066,19.108 275.897,172.628Z" style="fill:rgb(85,85,85);"/>
            <path d="M118.8,6.104L91.65,27.286C91.65,27.286 247.73,42.825 246.071,194.336L275.383,174.688C286.256,24.404 117.148,7.374 114.749,9.264" style="fill:rgb(254,194,7);"/>
            <path d="M85.819,30.174L65.463,51.814C65.463,51.814 209.143,53.111 212.42,209.36L246.071,194.336C251.812,38.125 90.484,31.835 85.819,30.174Z" style="fill:rgb(85,85,85);"/>
        </g>
        <path id="Body-outline" serif:id="Body outline" d="M127.902,1.921C208.729,-44.745 300.137,-39.183 331.897,14.333C363.657,67.85 323.82,149.185 242.993,195.851C162.165,242.517 70.758,236.955 38.998,183.439C7.237,129.922 47.074,48.587 127.902,1.921Z" style="fill:none;stroke:black;stroke-width:15px;"/>
        <g id="Wings">
            <path id="Back-wing" serif:id="Back wing" d="M91.744,-59.538C115.328,-67.424 144.157,-48.156 156.082,-16.536C168.007,15.083 158.541,47.156 134.957,55.041C111.372,62.927 82.543,43.658 70.618,12.039C58.694,-19.58 68.16,-51.653 91.744,-59.538Z" style="fill:rgb(167,167,167);"/>
            <path id="Front-wing" serif:id="Front wing" d="M229.076,-37.973C250.768,-21.976 249.701,14.299 226.696,42.984C203.691,71.669 167.403,81.971 145.712,65.974C124.02,49.977 125.087,13.702 148.092,-14.983C171.097,-43.668 207.385,-53.97 229.076,-37.973Z" style="fill:rgb(195,195,195);"/>
        </g>
        <g id="Face">
            <path id="Mouth" d="M65.917,168.037L76.693,186.154L91.213,168.069L109.2,186.104L130.627,168.09" style="fill:none;stroke:black;stroke-width:10px;"/>
            <g id="Eyes">
                <path id="Right-eye" serif:id="Right eye" d="M109.133,124.205C108.722,133.046 114.341,142.094 123.995,142.281C133.061,142.457 141.715,135.368 141.751,123.451" style="fill:none;stroke:black;stroke-width:12px;"/>
                <path id="Left-eye" serif:id="Left eye" d="M83.335,124.175C83.746,133.016 78.127,142.065 68.473,142.252C59.407,142.427 50.753,135.339 50.717,123.422" style="fill:none;stroke:black;stroke-width:12px;"/>
            </g>
        </g>
        <path d="M101.461,14.019C146.016,14.019 182.188,29.224 182.188,47.952C182.188,66.68 146.016,81.884 101.461,81.884C56.906,81.884 20.733,66.68 20.733,47.952C20.733,29.224 56.906,14.019 101.461,14.019ZM101.461,26.654C67.074,26.654 39.156,36.197 39.156,47.952C39.156,59.707 67.074,69.25 101.461,69.25C135.848,69.25 163.765,59.707 163.765,47.952C163.765,36.197 135.848,26.654 101.461,26.654Z" style="fill:rgb(147,225,255);"/>
        <path d="M101.461,4.019C130.257,4.019 155.748,10.167 171.577,19.242C185.218,27.062 192.188,37.521 192.188,47.952C192.188,58.383 185.218,68.842 171.577,76.662C155.748,85.736 130.257,91.884 101.461,91.884C72.665,91.884 47.173,85.736 31.344,76.662C17.703,68.842 10.733,58.383 10.733,47.952C10.733,37.521 17.703,27.062 31.344,19.242C47.173,10.167 72.665,4.019 101.461,4.019ZM101.461,14.019C56.906,14.019 20.733,29.224 20.733,47.952C20.733,66.68 56.906,81.884 101.461,81.884C146.016,81.884 182.188,66.68 182.188,47.952C182.188,29.224 146.016,14.019 101.461,14.019ZM101.461,26.654C135.848,26.654 163.765,36.197 163.765,47.952C163.765,59.707 135.848,69.25 101.461,69.25C67.074,69.25 39.156,59.707 39.156,47.952C39.156,36.197 67.074,26.654 101.461,26.654ZM49.774,47.952C49.898,48.077 50.022,48.195 50.135,48.291C51.497,49.441 53.293,50.477 55.409,51.463C65.79,56.303 82.577,59.25 101.461,59.25C120.345,59.25 137.131,56.303 147.512,51.463C149.628,50.477 151.424,49.441 152.786,48.291C152.9,48.195 153.024,48.077 153.148,47.952C153.024,47.827 152.9,47.708 152.786,47.613C151.424,46.463 149.628,45.427 147.512,44.44C137.131,39.601 120.345,36.654 101.461,36.654C82.577,36.654 65.79,39.601 55.409,44.44C53.293,45.427 51.497,46.463 50.135,47.613C50.022,47.708 49.898,47.827 49.774,47.952Z"/>
    </g>
</svg>
