<?xml version="1.0" encoding="UTF-8" standalone="no"?>
<!DOCTYPE svg PUBLIC "-//W3C//DTD SVG 1.1//EN" "http://www.w3.org/Graphics/SVG/1.1/DTD/svg11.dtd">
<svg width="100%" height="100%" viewBox="0 0 256 256" version="1.1" xmlns="http://www.w3.org/2000/svg" xmlns:xlink="http://www.w3.org/1999/xlink" xml:space="preserve" xmlns:serif="http://www.serif.com/" style="fill-rule:evenodd;clip-rule:evenodd;stroke-linecap:round;stroke-linejoin:round;stroke-miterlimit:1.5;">
    <g transform="matrix(1,0,0,1,-1405,-1405)">
        <g id="blobbee_cutlery" transform="matrix(1,0,0,1,1405,1405)">
            <rect x="0" y="0" width="256" height="256" style="fill:none;"/>
            <g id="Sting" transform="matrix(0.78314,0.139967,-0.135634,0.7589,67.2303,-21.11)">
                <path d="M189.771,56.854L238.765,34.355L235.05,81.388" style="fill:rgb(104,104,104);stroke:black;stroke-width:12.77px;"/>
            </g>
            <g id="Fork" transform="matrix(1.15038,0.344594,-0.42392,1.4152,-813.146,-2764.36)">
                <path d="M1435.79,1730.4C1430.29,1728.44 1426.07,1723.66 1426.07,1717.66L1426.07,1691.17C1426.07,1685.3 1430.2,1680.49 1435.4,1678.53C1437.47,1677.75 1439.83,1677.71 1441.91,1678.37C1443.14,1677.8 1444.56,1677.47 1446.07,1677.47L1450.43,1677.47C1451.96,1677.47 1453.4,1677.81 1454.63,1678.39C1456.75,1677.72 1459.14,1677.77 1461.24,1678.57C1466.38,1680.54 1470.47,1685.33 1470.47,1691.17L1470.47,1717.66C1470.47,1723.66 1466.24,1728.44 1460.75,1730.4L1460.75,1770.99C1460.75,1776.23 1455.58,1779.83 1450.34,1779.83L1446.19,1779.83C1440.95,1779.83 1435.79,1776.23 1435.79,1770.99L1435.79,1730.4ZM1444.12,1724.6L1444.12,1770.99C1444.12,1772.13 1445.05,1773.07 1446.19,1773.07L1450.34,1773.07C1451.49,1773.07 1452.42,1772.13 1452.42,1770.99L1452.42,1724.6L1455.2,1724.6C1459.03,1724.6 1462.14,1721.49 1462.14,1717.66L1462.14,1691.17C1462.14,1688.22 1460.29,1685.69 1457.68,1684.69L1457.68,1709.79L1450.43,1709.79L1450.43,1684.24L1446.07,1684.24L1446.07,1709.79L1438.89,1709.79L1438.89,1684.68C1436.27,1685.66 1434.39,1688.2 1434.39,1691.17L1434.39,1717.66C1434.39,1721.49 1437.5,1724.6 1441.33,1724.6L1444.12,1724.6Z"/>
            </g>
            <g id="Knife" transform="matrix(1.30419,-0.285763,0.323957,1.47849,-2499.36,-1944.93)">
                <path d="M1522.87,1731.51L1522.87,1770.99C1522.87,1776 1518.32,1779.67 1513.31,1779.67L1509.16,1779.67C1504.15,1779.67 1499.59,1776 1499.59,1770.99L1499.59,1686.99C1499.59,1681.61 1504.45,1677.63 1509.84,1677.63C1519.77,1677.63 1528.34,1685.31 1528.34,1695.25L1528.34,1723.25C1528.34,1726.94 1526.05,1729.97 1522.87,1731.51ZM1515.38,1726L1518.09,1726C1519.61,1726 1520.85,1724.77 1520.85,1723.25L1520.85,1695.25C1520.85,1689.17 1515.91,1684.24 1509.84,1684.24C1508.32,1684.24 1507.08,1685.47 1507.08,1686.99L1507.08,1770.99C1507.08,1772.13 1508.01,1773.07 1509.16,1773.07L1513.31,1773.07C1514.45,1773.07 1515.38,1772.13 1515.38,1770.99L1515.38,1726Z"/>
            </g>
            <g id="Body" transform="matrix(0.994109,-0.573949,0.761422,1.28301,-120.17,92.6047)">
                <ellipse cx="168.926" cy="110.515" rx="107.942" ry="55.376" style="fill:rgb(104,104,104);stroke:black;stroke-width:7.47px;"/>
            </g>
            <g id="Wings-outline" serif:id="Wings outline" transform="matrix(0.959562,0.127262,-0.127262,0.959562,7.56883,-6.44254)">
                <g transform="matrix(1.17688,-0.575088,0.651434,1.21399,-55.8934,35.953)">
                    <path d="M87.433,14.046C105.289,14.046 121.064,31.835 121.064,54.906C121.064,78.317 104.954,96.336 86.833,96.336C68.977,96.336 53.202,78.546 53.202,55.475C53.202,32.064 69.312,14.046 87.433,14.046ZM87.133,21.55C72.762,21.55 61.095,36.624 61.095,55.191C61.095,73.758 72.762,88.832 87.133,88.832C101.504,88.832 113.171,73.758 113.171,55.191C113.171,36.624 101.504,21.55 87.133,21.55Z"/>
                </g>
                <g transform="matrix(1.24343,0.685066,-0.776012,1.28263,74.2693,-72.8119)">
                    <path d="M86.838,14.653C104.667,14.653 120.454,32.436 120.454,55.47C120.454,78.17 104.998,95.729 87.428,95.729C69.599,95.729 53.812,77.946 53.812,54.911C53.812,32.211 69.268,14.653 86.838,14.653ZM87.133,21.55C72.762,21.55 61.095,36.624 61.095,55.191C61.095,73.758 72.762,88.832 87.133,88.832C101.504,88.832 113.171,73.758 113.171,55.191C113.171,36.624 101.504,21.55 87.133,21.55Z"/>
                </g>
            </g>
            <g id="Stripes" transform="matrix(1,0,0,1,4.4273,10.012)">
                <g transform="matrix(1,-7.43708e-18,-7.43708e-18,1,92.3462,-63.8411)">
                    <path d="M37.588,107.021C36.302,108.044 130.102,103.736 138.911,199.269C185.818,73.536 38.054,97.55 37.588,107.021Z" style="fill:rgb(254,194,7);stroke:black;stroke-width:3px;"/>
                </g>
                <g transform="matrix(1,-7.43708e-18,-7.43708e-18,1,73.4912,-52.6421)">
                    <path d="M157.766,189.064C152.141,96.884 58.714,94.709 59.225,91.972L24.408,104.867C24.408,104.867 137.219,103.115 141.236,211.738L154.889,190.72" style="fill:rgb(104,104,104);stroke:black;stroke-width:3px;"/>
                </g>
                <g transform="matrix(1,-7.43708e-18,-7.43708e-18,1,55.5726,-39.8214)">
                    <path d="M138.184,221.282L158.96,198.917C155.015,90.156 39.958,88.264 39.959,88.304L21.516,99.184C21.345,99.215 140.506,108.796 138.184,221.282Z" style="fill:rgb(254,194,7);stroke:black;stroke-width:3px;"/>
                </g>
                <g transform="matrix(1,-7.43708e-18,-7.43708e-18,1,25.9786,-19.0024)">
                    <path d="M52.67,78.448L32.777,93.969C32.777,93.969 147.14,105.355 145.924,216.369L167.401,201.973C175.368,91.857 51.46,79.379 49.702,80.764" style="fill:rgb(104,104,104);stroke:black;stroke-width:3px;"/>
                </g>
                <g transform="matrix(1,-7.43708e-18,-7.43708e-18,1,-0.424026,-0.546032)">
                    <path d="M54.907,77.629L39.992,93.485C39.992,93.485 145.269,94.435 147.67,208.921L172.327,197.913C176.533,83.454 58.325,78.845 54.907,77.629Z" style="fill:rgb(254,194,7);stroke:black;stroke-width:3px;"/>
                </g>
            </g>
            <g id="Face" transform="matrix(1,0,0,1,-3.8947,1.36785)">
                <g id="Mouth" transform="matrix(0.658566,-1.17246e-18,-3.87825e-17,0.848272,3.90699,42.2986)">
                    <path d="M79.429,171.352L92.31,191.237L108.219,172.744L128,191.722L152.351,171.648" style="fill:none;stroke:black;stroke-width:14.49px;stroke-miterlimit:2;"/>
                    <path d="M79.429,171.352L92.31,191.237L108.219,172.744L128,191.722L152.351,171.648" style="fill:none;stroke:rgb(235,235,235);stroke-width:6.58px;"/>
                </g>
                <g id="Eyes" transform="matrix(0.856324,0.124954,-0.124954,0.856324,35.143,7.15355)">
                    <g id="Right-eye" serif:id="Right eye" transform="matrix(1.56791,-0.228787,0.215752,1.47858,-150.38,17.2361)">
                        <path d="M154.615,113.255C154.615,107.493 150.203,102.815 144.77,102.815C139.336,102.815 134.924,107.493 134.924,113.255L134.924,120.6C134.924,126.362 139.336,131.04 144.77,131.04C150.203,131.04 154.615,126.362 154.615,120.6L154.615,113.255Z" style="fill:rgb(235,235,235);stroke:black;stroke-width:2.25px;"/>
                    </g>
                    <g id="Right-eye1" serif:id="Right eye" transform="matrix(0.639006,-0.0932429,0.104024,0.712889,-4.68472,94.5194)">
                        <path d="M154.615,111.64C154.615,106.77 150.203,102.815 144.77,102.815C139.336,102.815 134.924,106.77 134.924,111.64L134.924,122.216C134.924,127.086 139.336,131.04 144.77,131.04C150.203,131.04 154.615,127.086 154.615,122.216L154.615,111.64Z"/>
                    </g>
                    <g id="Left-eye" serif:id="Left eye" transform="matrix(1.56791,-0.228787,0.215752,1.47858,-201.077,24.6337)">
                        <path d="M154.615,113.255C154.615,107.493 150.203,102.815 144.77,102.815C139.336,102.815 134.924,107.493 134.924,113.255L134.924,120.6C134.924,126.362 139.336,131.04 144.77,131.04C150.203,131.04 154.615,126.362 154.615,120.6L154.615,113.255Z" style="fill:rgb(235,235,235);stroke:black;stroke-width:2.25px;"/>
                    </g>
                    <g id="Right-eye2" serif:id="Right eye" transform="matrix(0.639006,-0.0932429,0.104024,0.712889,-55.3816,101.917)">
                        <path d="M154.615,111.64C154.615,106.77 150.203,102.815 144.77,102.815C139.336,102.815 134.924,106.77 134.924,111.64L134.924,122.216C134.924,127.086 139.336,131.04 144.77,131.04C150.203,131.04 154.615,127.086 154.615,122.216L154.615,111.64Z"/>
                    </g>
                </g>
            </g>
            <g id="Body-outline" serif:id="Body outline" transform="matrix(0.994109,-0.573949,0.761422,1.28301,-120.17,92.6047)">
                <ellipse cx="168.926" cy="110.515" rx="107.942" ry="55.376" style="fill:none;stroke:black;stroke-width:7.47px;"/>
            </g>
            <g id="Wings" transform="matrix(0.959562,0.127262,-0.127262,0.959562,7.56883,-6.44254)">
                <g id="Back-wing" serif:id="Back wing" transform="matrix(1.17688,-0.575088,0.651434,1.21399,-55.8934,35.953)">
                    <ellipse cx="87.133" cy="55.191" rx="26.038" ry="33.641" style="fill:rgb(195,195,195);stroke:black;stroke-width:2.26px;"/>
                </g>
                <g id="Front-wing" serif:id="Front wing" transform="matrix(0.946806,0,0,0.999012,5.86837,0.313874)">
                    <g id="Front-wing-main" serif:id="Front wing main" transform="matrix(1.31328,0.685743,-0.81961,1.2839,72.2439,-73.1981)">
                        <ellipse cx="87.133" cy="55.191" rx="26.038" ry="33.641" style="fill:rgb(195,195,195);stroke:black;stroke-width:2.17px;"/>
                    </g>
                    <path id="Front-wing-line" serif:id="Front wing line" d="M119.334,101.013C123.249,82.03 129.669,61.104 148.451,47.276" style="fill:none;stroke:black;stroke-width:3.18px;"/>
                </g>
            </g>
            <g id="Fork1" serif:id="Fork" transform="matrix(1.15038,0.344594,-0.42392,1.4152,-813.146,-2764.36)">
                <path d="M1444.12,1724.6L1441.33,1724.6C1437.5,1724.6 1434.39,1721.49 1434.39,1717.66L1434.39,1691.17C1434.39,1688.2 1436.27,1685.66 1438.89,1684.68L1438.89,1709.79L1446.07,1709.79C1446.07,1709.79 1445.42,1684.29 1448.2,1684.3C1451.24,1684.32 1450.43,1709.79 1450.43,1709.79L1457.68,1709.79L1457.68,1684.69C1460.29,1685.69 1462.14,1688.22 1462.14,1691.17L1462.14,1717.66C1462.14,1721.49 1459.03,1724.6 1455.2,1724.6L1452.42,1724.6L1452.42,1770.99C1452.42,1772.13 1451.49,1773.07 1450.34,1773.07L1446.19,1773.07C1445.05,1773.07 1444.12,1772.13 1444.12,1770.99L1444.12,1724.6Z" style="fill:rgb(185,185,185);"/>
                <path d="M1441.62,1726.63L1441.33,1726.63C1436.28,1726.63 1431.9,1722.71 1431.9,1717.66L1431.9,1691.17C1431.9,1687.33 1434.45,1684.11 1437.85,1682.84C1438.62,1682.54 1439.52,1682.59 1440.24,1682.97C1440.96,1683.34 1441.39,1683.99 1441.39,1684.68C1441.39,1684.68 1441.39,1707.76 1441.39,1707.76L1443.54,1707.76C1443.47,1703.11 1443.44,1691.82 1444.44,1686.63C1444.74,1685.08 1445.21,1683.97 1445.67,1683.42C1446.41,1682.54 1447.36,1682.27 1448.22,1682.27C1449.08,1682.27 1449.99,1682.55 1450.73,1683.37C1451.22,1683.92 1451.74,1685.05 1452.06,1686.62C1453.13,1691.82 1453.06,1703.1 1452.97,1707.76C1452.97,1707.76 1455.19,1707.76 1455.19,1707.76L1455.19,1684.69C1455.19,1684 1455.62,1683.35 1456.35,1682.98C1457.07,1682.61 1457.98,1682.56 1458.75,1682.86C1462.12,1684.15 1464.64,1687.35 1464.64,1691.17L1464.64,1717.66C1464.64,1722.71 1460.26,1726.63 1455.2,1726.63C1455.2,1726.63 1454.92,1726.63 1454.92,1726.63L1454.92,1770.99C1454.92,1773.36 1452.71,1775.1 1450.34,1775.1L1446.19,1775.1C1443.82,1775.1 1441.62,1773.36 1441.62,1770.99L1441.62,1726.63ZM1444.12,1724.6L1444.12,1770.99C1444.12,1772.13 1445.05,1773.07 1446.19,1773.07L1450.34,1773.07C1451.49,1773.07 1452.42,1772.13 1452.42,1770.99L1452.42,1724.6L1455.2,1724.6C1459.03,1724.6 1462.14,1721.49 1462.14,1717.66L1462.14,1691.17C1462.14,1688.22 1460.29,1685.69 1457.68,1684.69L1457.68,1709.79L1450.43,1709.79C1450.43,1709.79 1451.24,1684.32 1448.2,1684.3C1445.42,1684.29 1446.07,1709.79 1446.07,1709.79L1438.89,1709.79L1438.89,1684.68C1436.27,1685.66 1434.39,1688.2 1434.39,1691.17L1434.39,1717.66C1434.39,1721.49 1437.5,1724.6 1441.33,1724.6L1444.12,1724.6Z"/>
            </g>
            <g id="Knife1" serif:id="Knife" transform="matrix(1.30419,-0.285763,0.323957,1.47849,-2499.36,-1944.93)">
                <path d="M1515.06,1732.19L1515.38,1770.99C1515.38,1772.13 1514.45,1773.07 1513.31,1773.07L1509.16,1773.07C1508.01,1773.07 1507.08,1772.13 1507.08,1770.99L1507.08,1686.99C1507.08,1685.47 1508.32,1684.24 1509.84,1684.24C1515.91,1684.24 1520.85,1689.17 1520.85,1695.25L1520.52,1729.44C1520.52,1730.95 1519.29,1732.19 1517.77,1732.19L1515.06,1732.19Z" style="fill:rgb(185,185,185);"/>
                <path d="M1517.32,1734.17L1517.63,1770.98C1517.63,1770.98 1517.63,1770.99 1517.63,1770.99C1517.63,1773.29 1515.61,1775.05 1513.31,1775.05L1509.16,1775.05C1506.85,1775.05 1504.84,1773.29 1504.84,1770.99L1504.84,1686.99C1504.84,1684.31 1507.16,1682.25 1509.84,1682.25C1517.07,1682.25 1523.09,1688.01 1523.09,1695.25C1523.09,1695.25 1523.09,1695.26 1523.09,1695.26C1523.09,1695.26 1522.77,1729.45 1522.77,1729.45C1522.76,1732.12 1520.44,1734.17 1517.77,1734.17L1517.32,1734.17ZM1515.06,1732.19L1517.77,1732.19C1519.29,1732.19 1520.52,1730.95 1520.52,1729.44L1520.85,1695.25C1520.85,1689.17 1515.91,1684.24 1509.84,1684.24C1508.32,1684.24 1507.08,1685.47 1507.08,1686.99L1507.08,1770.99C1507.08,1772.13 1508.01,1773.07 1509.16,1773.07L1513.31,1773.07C1514.45,1773.07 1515.38,1772.13 1515.38,1770.99L1515.06,1732.19Z"/>
            </g>
            <g id="Arm" transform="matrix(-1.14415,-0.22984,-0.274023,1.36409,214.2,-49.3053)">
                <path d="M126.361,195.324C131.632,207.227 133.182,217.035 130.643,222.887C128.104,228.739 123.003,235.183 111.72,230.967C100.281,226.693 85.917,212.804 90.545,203.32C94.217,195.795 104.937,195.209 112.743,200.468C118.04,204.037 116.287,208.38 119.358,207.391C121.378,206.74 121.255,196.139 126.361,195.324Z" style="fill:rgb(151,151,151);stroke:black;stroke-width:3.89px;"/>
            </g>
            <g id="Arm1" serif:id="Arm" transform="matrix(1.36409,-0.274023,0.274023,1.36409,-82.0986,-42.4225)">
                <path d="M126.361,195.324C137.518,197.031 136.207,211.795 130.643,222.887C127.783,228.589 123.003,235.183 111.72,230.967C100.281,226.693 85.917,212.804 90.545,203.32C94.217,195.795 104.937,195.209 112.743,200.468C118.04,204.037 116.287,208.38 119.358,207.391C121.378,206.74 121.255,196.139 126.361,195.324Z" style="fill:rgb(151,151,151);stroke:black;stroke-width:3.59px;"/>
            </g>
        </g>
    </g>
</svg>
