<?xml version="1.0" encoding="UTF-8" standalone="no"?>
<!DOCTYPE svg PUBLIC "-//W3C//DTD SVG 1.1//EN" "http://www.w3.org/Graphics/SVG/1.1/DTD/svg11.dtd">
<svg width="100%" height="100%" viewBox="0 0 256 256" version="1.1" xmlns="http://www.w3.org/2000/svg" xmlns:xlink="http://www.w3.org/1999/xlink" xml:space="preserve" xmlns:serif="http://www.serif.com/" style="fill-rule:evenodd;clip-rule:evenodd;stroke-linecap:round;stroke-linejoin:round;stroke-miterlimit:1.5;">
    <rect id="blobbee_drake_like" x="0" y="0" width="256" height="256" style="fill:none;"/>
    <clipPath id="_clip1">
        <rect x="0" y="0" width="256" height="256"/>
    </clipPath>
    <g clip-path="url(#_clip1)">
        <path id="Wings-outline" serif:id="Wings outline" d="M99.098,59.708C96.896,62.114 94.445,64.325 91.746,66.316C64.747,86.226 18.792,76.342 -9.843,40.638C-38.933,4.366 -36.853,-41.548 -9.424,-61.776C11.568,-77.257 43.823,-74.912 70.671,-56.266C89.156,-81.498 117.913,-93.404 141.568,-85.495C171.917,-75.347 187.317,-35.087 171.972,5.602C158.551,41.187 126.935,62.422 99.098,59.708ZM92.799,43.032C93.064,43.128 93.33,43.221 93.598,43.311C117.183,51.196 146.012,31.928 157.937,0.309C169.861,-31.311 160.395,-63.383 136.811,-71.269C114.521,-78.722 87.547,-61.92 74.586,-33.36C51.637,-56.904 19.401,-64.396 -0.521,-49.704C-22.213,-33.707 -21.146,2.569 1.859,31.254C24.864,59.939 61.152,70.24 82.843,54.243C86.993,51.183 90.309,47.381 92.799,43.032Z"/>
        <path id="Body" d="M102.052,1.873C21.225,-44.793 -70.183,-39.231 -101.943,14.285C-133.703,67.802 -93.866,149.137 -13.039,195.803C67.789,242.469 159.196,236.907 190.956,183.391C222.717,129.874 182.88,48.539 102.052,1.873Z" style="fill:rgb(254,194,7);"/>
        <g id="Stripes">
            <path d="M41.161,-16.143C42.915,-14.747 -85.1,-20.628 -97.122,109.755C-161.141,-61.844 40.525,-29.069 41.161,-16.143Z" style="fill:rgb(85,85,85);"/>
            <path d="M-97.122,111.111C-89.447,-14.695 38.061,-17.662 37.364,-21.398L84.881,-3.799C84.881,-3.799 -69.08,-6.19 -74.564,142.056L-93.196,113.372" style="fill:rgb(254,194,7);"/>
            <path d="M-45.943,172.58L-74.298,142.056C-68.914,-6.379 88.114,-8.962 88.112,-8.907L113.283,5.942C113.517,5.984 -49.112,19.06 -45.943,172.58Z" style="fill:rgb(85,85,85);"/>
            <path d="M111.154,6.056L138.304,27.238C138.304,27.238 -17.776,42.777 -16.117,194.288L-45.428,174.64C-56.302,24.356 112.806,7.326 115.205,9.216" style="fill:rgb(254,194,7);"/>
            <path d="M144.135,30.126L164.491,51.766C164.491,51.766 20.811,53.063 17.534,209.312L-16.117,194.288C-21.858,38.077 139.47,31.787 144.135,30.126Z" style="fill:rgb(85,85,85);"/>
        </g>
        <path id="Body-outline" serif:id="Body outline" d="M102.052,1.873C21.225,-44.793 -70.183,-39.231 -101.943,14.285C-133.703,67.802 -93.866,149.137 -13.039,195.803C67.789,242.469 159.196,236.907 190.956,183.391C222.717,129.874 182.88,48.539 102.052,1.873Z" style="fill:none;stroke:black;stroke-width:15px;"/>
        <g id="Wings">
            <path id="Back-wing" serif:id="Back wing" d="M136.811,-71.269C113.227,-79.155 84.398,-59.886 72.473,-28.267C60.548,3.352 70.014,35.425 93.598,43.311C117.183,51.196 146.012,31.928 157.937,0.309C169.861,-31.311 160.395,-63.383 136.811,-71.269Z" style="fill:rgb(167,167,167);"/>
            <path id="Front-wing" serif:id="Front wing" d="M-0.521,-49.704C-22.213,-33.707 -21.146,2.569 1.859,31.254C24.864,59.939 61.152,70.24 82.843,54.243C104.535,38.247 103.468,1.971 80.463,-26.714C57.458,-55.399 21.17,-65.7 -0.521,-49.704Z" style="fill:rgb(195,195,195);"/>
        </g>
        <g id="Face">
            <path id="Mouth" d="M157.218,160.179L146.443,178.296L131.922,160.211L113.935,178.246L92.509,160.232" style="fill:none;stroke:black;stroke-width:10px;"/>
            <g id="Eyes">
                <path id="Right-eye" serif:id="Right eye" d="M138.126,117.456C139.694,126.461 148.312,131.161 153.781,131.21C159.931,131.266 168.598,128.199 170.744,116.702" style="fill:none;stroke:black;stroke-width:12px;"/>
                <path id="Right-eye1" serif:id="Right eye" d="M112.327,117.456C110.759,126.461 102.141,131.161 96.673,131.21C90.522,131.266 81.856,128.199 79.71,116.702" style="fill:none;stroke:black;stroke-width:12px;"/>
            </g>
        </g>
        <path id="Hand" d="M164.707,234.37L164.707,187.876C164.707,183.945 167.899,180.754 171.83,180.754C175.761,180.754 178.952,183.945 178.952,187.876L178.952,200.756L237.103,200.756C240.942,200.756 244.058,203.872 244.058,207.71C244.058,211.549 240.942,214.665 237.103,214.665L208.122,214.665L208.122,234.37C208.122,239.461 203.989,243.594 198.898,243.594L173.932,243.594C168.841,243.594 164.707,239.461 164.707,234.37Z" style="fill:rgb(151,151,151);"/>
        <path d="M154.707,234.37L154.707,187.876C154.707,178.426 162.38,170.754 171.83,170.754C181.28,170.754 188.952,178.426 188.952,187.876C188.952,187.876 188.952,190.756 188.952,190.756L237.103,190.756C246.461,190.756 254.058,198.353 254.058,207.71C254.058,217.068 246.461,224.665 237.103,224.665L218.122,224.665L218.122,234.37C218.122,244.98 209.508,253.594 198.898,253.594L173.932,253.594C163.322,253.594 154.707,244.98 154.707,234.37ZM164.707,234.37C164.707,239.461 168.841,243.594 173.932,243.594L198.898,243.594C203.989,243.594 208.122,239.461 208.122,234.37L208.122,214.665L237.103,214.665C240.942,214.665 244.058,211.549 244.058,207.71C244.058,203.872 240.942,200.756 237.103,200.756L178.952,200.756L178.952,187.876C178.952,183.945 175.761,180.754 171.83,180.754C167.899,180.754 164.707,183.945 164.707,187.876L164.707,234.37Z"/>
    </g>
</svg>
