<?xml version="1.0" encoding="UTF-8" standalone="no"?>
<!DOCTYPE svg PUBLIC "-//W3C//DTD SVG 1.1//EN" "http://www.w3.org/Graphics/SVG/1.1/DTD/svg11.dtd">
<svg width="100%" height="100%" viewBox="0 0 256 256" version="1.1" xmlns="http://www.w3.org/2000/svg" xmlns:xlink="http://www.w3.org/1999/xlink" xml:space="preserve" xmlns:serif="http://www.serif.com/" style="fill-rule:evenodd;clip-rule:evenodd;stroke-linecap:round;stroke-linejoin:round;stroke-miterlimit:1.5;">
    <rect id="blobbee_meeple" x="-0" y="0" width="256" height="256" style="fill:none;"/>
    <clipPath id="_clip1">
        <rect x="-0" y="0" width="256" height="256"/>
    </clipPath>
    <g clip-path="url(#_clip1)">
        <path id="Wings-outline" serif:id="Wings outline" d="M130.856,59.756C103.019,62.47 71.403,41.235 57.982,5.65C42.637,-35.039 58.037,-75.299 88.386,-85.447C112.041,-93.356 140.798,-81.45 159.283,-56.218C186.131,-74.864 218.386,-77.209 239.378,-61.728C266.807,-41.5 268.887,4.414 239.797,40.686C211.162,76.39 165.207,86.274 138.208,66.364C135.509,64.373 133.058,62.162 130.856,59.756ZM137.155,43.08C139.645,47.429 142.961,51.231 147.111,54.291C168.802,70.288 205.09,59.987 228.095,31.302C251.1,2.617 252.167,-33.659 230.475,-49.656C210.553,-64.348 178.317,-56.856 155.368,-33.312C142.407,-61.872 115.433,-78.674 93.143,-71.221C69.559,-63.336 60.093,-31.263 72.017,0.357C83.942,31.976 112.771,51.244 136.356,43.359C136.624,43.269 136.89,43.176 137.155,43.08Z"/>
        <path id="Body" d="M127.902,1.921C208.729,-44.745 300.137,-39.183 331.897,14.333C363.657,67.85 323.82,149.185 242.993,195.851C162.165,242.517 70.758,236.955 38.998,183.439C7.237,129.922 47.074,48.587 127.902,1.921Z" style="fill:rgb(254,194,7);"/>
        <g id="Stripes">
            <path d="M188.793,-16.095C187.039,-14.699 315.054,-20.58 327.076,109.803C391.095,-61.796 189.429,-29.021 188.793,-16.095Z" style="fill:rgb(85,85,85);"/>
            <path d="M327.076,111.159C319.401,-14.647 191.893,-17.614 192.59,-21.35L145.073,-3.751C145.073,-3.751 299.034,-6.142 304.518,142.104L323.15,113.42" style="fill:rgb(254,194,7);"/>
            <path d="M275.897,172.628L304.252,142.104C298.868,-6.332 141.84,-8.914 141.842,-8.859L116.671,5.99C116.437,6.032 279.066,19.108 275.897,172.628Z" style="fill:rgb(85,85,85);"/>
            <path d="M118.8,6.104L91.65,27.286C91.65,27.286 247.73,42.825 246.071,194.336L275.383,174.688C286.256,24.404 117.148,7.374 114.749,9.264" style="fill:rgb(254,194,7);"/>
            <path d="M85.819,30.174L65.463,51.814C65.463,51.814 209.143,53.111 212.42,209.36L246.071,194.336C251.812,38.125 90.484,31.835 85.819,30.174Z" style="fill:rgb(85,85,85);"/>
        </g>
        <path id="Body-outline" serif:id="Body outline" d="M127.902,1.921C208.729,-44.745 300.137,-39.183 331.897,14.333C363.657,67.85 323.82,149.185 242.993,195.851C162.165,242.517 70.758,236.955 38.998,183.439C7.237,129.922 47.074,48.587 127.902,1.921Z" style="fill:none;stroke:black;stroke-width:15px;"/>
        <g id="Wings">
            <path id="Back-wing" serif:id="Back wing" d="M93.143,-71.221C116.727,-79.107 145.556,-59.838 157.481,-28.219C169.406,3.4 159.94,35.473 136.356,43.359C112.771,51.244 83.942,31.976 72.017,0.357C60.093,-31.263 69.559,-63.336 93.143,-71.221Z" style="fill:rgb(167,167,167);"/>
            <path id="Front-wing" serif:id="Front wing" d="M230.475,-49.656C252.167,-33.659 251.1,2.617 228.095,31.302C205.09,59.987 168.802,70.288 147.111,54.291C125.419,38.295 126.486,2.019 149.491,-26.666C172.496,-55.351 208.784,-65.652 230.475,-49.656Z" style="fill:rgb(195,195,195);"/>
        </g>
        <g id="Eyes">
            <g id="Right-eye" serif:id="Right eye">
                <circle id="Eye-white" serif:id="Eye white" cx="127.189" cy="128" r="23.779" style="fill:white;"/>
                <circle id="Pupil" cx="124.127" cy="124.976" r="20.392"/>
                <path id="Eye-reflection-top" serif:id="Eye reflection top" d="M113.113,114.122C117.141,110.094 122.94,109.354 126.055,112.469C129.171,115.585 128.43,121.384 124.403,125.412C120.375,129.44 114.576,130.18 111.46,127.065C108.344,123.949 109.085,118.15 113.113,114.122Z" style="fill:white;"/>
                <path id="Eye-reflection-bottom" serif:id="Eye reflection bottom" d="M134.052,129.888C134.052,129.888 132.852,134.024 128.61,134.929" style="fill:none;stroke:rgb(151,151,151);stroke-width:8px;"/>
            </g>
            <g id="Left-eye" serif:id="Left eye">
                <circle id="Eye-white1" serif:id="Eye white" cx="66.602" cy="128" r="23.779" style="fill:white;"/>
                <circle id="Pupil1" serif:id="Pupil" cx="63.541" cy="124.976" r="20.392"/>
                <path id="Eye-reflection-top1" serif:id="Eye reflection top" d="M52.526,114.122C56.554,110.094 62.354,109.354 65.469,112.469C68.585,115.585 67.844,121.384 63.816,125.412C59.789,129.44 53.989,130.18 50.874,127.065C47.758,123.949 48.499,118.15 52.526,114.122Z" style="fill:white;"/>
                <path id="Eye-reflection-bottom1" serif:id="Eye reflection bottom" d="M73.465,129.888C73.465,129.888 72.266,134.024 68.024,134.929" style="fill:none;stroke:rgb(151,151,151);stroke-width:8px;"/>
            </g>
        </g>
        <g id="Meeple">
            <path id="Outline" d="M71.404,134.824C72.501,130.609 74.732,125.552 78.775,122.233C82.839,118.149 88.684,114.909 97.262,114.853C111.627,114.758 116.658,125.842 118.404,133.33C123.674,135.407 132.223,138.514 135.706,141.28C144.139,147.979 145.192,155.23 144.167,160.058C143.188,164.667 138.388,170.451 131.942,172.407C135.094,178.142 139.391,186.064 139.923,188.659C140.705,192.473 139.837,195.913 137.597,198.865C135.333,201.848 130.542,204.7 124.039,205.343C122.33,205.958 120.182,206.31 117.453,206.1C111.607,205.65 103.628,206.121 103.628,206.121C103.371,206.136 103.114,206.14 102.857,206.134C102.857,206.134 99.245,206.283 95.423,203.809C93.452,205.345 91.419,205.862 89.893,205.978C86.608,206.228 85.052,206.337 82.221,206.136C81.734,206.102 80.798,206.031 79.627,205.941C79.144,205.958 78.644,205.95 78.126,205.914C76.862,205.824 71.637,205.793 67.866,205.775C65.74,206.291 63.547,206.356 61.93,205.963C61.165,205.777 60.443,205.524 59.768,205.204L59.763,205.202C57.492,204.621 54.86,203.507 53.054,201.503C50.719,198.91 48.357,194.753 51.111,187.698C52.739,183.527 56.071,176.605 58.394,171.998C56.934,171.556 55.415,170.942 54.047,170.1C50.441,167.881 47.678,164.441 47.059,159.392C45.929,150.169 50.145,145.975 55.391,142.296C57.107,141.093 63.551,138.103 69.094,135.846C69.876,135.486 70.652,135.144 71.404,134.824ZM63.559,196.267C64.002,197.117 65.373,196.743 66.462,196.269C70.387,196.286 77.282,196.33 78.795,196.437C79.106,196.459 79.398,196.451 79.671,196.418C81.139,196.53 82.325,196.62 82.892,196.66C85.21,196.824 86.483,196.71 89.172,196.505C90.535,196.402 92.683,190.339 94.853,186.9C96.247,189.198 97.535,191.965 98.471,193.533C100.285,196.57 103.083,196.637 103.083,196.637C103.083,196.637 111.797,196.136 118.182,196.628C119.848,196.756 120.923,196.493 121.59,195.977C127.276,195.881 131.27,193.75 130.617,190.568C129.876,186.957 120.907,172.254 119.984,170.198C119.062,168.143 118.52,166.617 118.661,164.776C118.702,164.236 119.016,163.885 119.524,163.663C119.953,163.606 120.37,163.508 120.771,163.376C122.492,163.2 124.996,163.526 127.254,163.587C131.11,163.69 134.344,160.581 134.874,158.084C135.404,155.587 134.159,152.184 129.797,148.719C125.435,145.254 112.516,141.44 109.811,139.888C109.688,137.534 109.195,124.274 97.325,124.353C91.606,124.39 87.748,126.536 85.149,129.307C81.389,132.022 80.345,137.313 80.056,140.116C79.876,141.126 79.834,141.748 79.834,141.748C78.94,141.894 75.989,143.119 72.889,144.558C68.067,146.513 62.342,149.025 60.846,150.074C58.294,151.864 55.939,153.749 56.489,158.237C57.039,162.724 62.676,163.422 64.558,163.555C66.439,163.689 70.122,163.025 71.692,164.646C73.262,166.268 70.156,170.192 68.87,172.449C67.585,174.707 62.142,185.564 59.961,191.152C57.988,196.207 62.651,196.296 63.559,196.267Z"/>
            <path id="Shading" d="M79.834,141.748C79.834,141.748 80.998,124.461 97.325,124.353C109.195,124.274 109.688,137.534 109.811,139.888C112.516,141.44 125.435,145.254 129.797,148.719C134.159,152.184 135.404,155.587 134.874,158.084C134.344,160.581 131.11,163.69 127.254,163.587C123.399,163.484 118.826,162.606 118.661,164.776C118.52,166.617 119.062,168.143 119.984,170.198C120.907,172.254 129.876,186.957 130.617,190.568C131.358,194.179 126.116,196.436 119.209,195.902C112.302,195.368 110.377,195.85 110.377,195.85C110.377,195.85 105.469,196.024 102.158,195.926C98.321,195.814 100.252,184.492 97.37,184.582C94.487,184.673 91.069,196.361 89.172,196.505C86.483,196.71 85.21,196.824 82.892,196.66C80.575,196.496 67.93,195.507 67.93,195.507C67.93,195.507 61.581,199.464 63.941,193.392C66.301,187.32 72.189,175.525 73.58,173.072C74.971,170.619 78.331,166.356 76.633,164.594C74.935,162.832 70.95,163.554 68.914,163.409C66.878,163.264 60.779,162.506 60.184,157.63C59.59,152.755 62.137,150.707 64.899,148.762C67.66,146.817 78.013,142.046 79.834,141.748Z" style="fill:rgb(171,134,16);"/>
            <path id="Front" d="M79.945,141.962C79.945,141.962 79.845,127.565 90.817,127.607C101.789,127.649 102.245,139.739 102.358,141.907C104.858,143.335 116.8,146.846 120.831,150.035C124.863,153.224 126.014,156.356 125.524,158.654C125.034,160.953 122.045,163.814 118.481,163.719C114.918,163.624 111.745,163.244 110.438,164.767C109.131,166.289 110.909,167.912 111.762,169.804C112.614,171.696 120.904,185.23 121.589,188.553C122.274,191.877 124.566,197.119 118.182,196.628C111.797,196.136 103.083,196.637 103.083,196.637C103.083,196.637 100.285,196.57 98.471,193.533C96.658,190.495 93.523,182.961 90.859,183.044C88.194,183.127 84.446,192.706 83.282,194.018C82.117,195.33 80.936,196.588 78.795,196.437C76.653,196.286 63.709,196.26 63.709,196.26C63.709,196.26 57.779,196.741 59.961,191.152C62.142,185.564 67.585,174.707 68.87,172.449C70.156,170.192 73.262,166.268 71.692,164.646C70.122,163.025 66.439,163.689 64.558,163.555C62.676,163.422 57.039,162.724 56.489,158.237C55.939,153.749 58.294,151.864 60.846,150.074C63.399,148.284 78.262,142.236 79.945,141.962Z" style="fill:rgb(255,200,47);"/>
        </g>
        <g id="Left-hand" serif:id="Left hand">
            <path id="Outline1" serif:id="Outline" d="M31.899,188.359L12.007,208.251L38.689,234.932L58.58,215.04C65.943,207.677 65.943,195.722 58.58,188.359C51.217,180.996 39.262,180.996 31.899,188.359Z" style="fill:rgb(151,151,151);"/>
            <path d="M24.828,181.288C36.093,170.022 54.386,170.022 65.651,181.288C76.917,192.553 76.917,210.846 65.651,222.111L45.76,242.003C41.854,245.909 35.523,245.909 31.617,242.003L4.936,215.322C1.031,211.417 1.031,205.085 4.936,201.18L24.828,181.288ZM31.899,188.359L12.007,208.251L38.689,234.932L58.58,215.04C65.943,207.677 65.943,195.722 58.58,188.359C51.217,180.996 39.262,180.996 31.899,188.359Z"/>
            <path id="Fill" d="M31.899,188.359L4.926,215.332L31.607,242.013L58.58,215.04C65.943,207.677 65.943,195.722 58.58,188.359C51.217,180.996 39.262,180.996 31.899,188.359Z" style="fill:rgb(151,151,151);"/>
        </g>
        <path id="Right-arm" serif:id="Right arm" d="M158.906,239.434L134.294,215.013C126.926,207.645 126.926,195.682 134.294,188.314C141.662,180.947 153.625,180.947 160.993,188.314L175.221,202.543L191.221,186.543C196.227,181.537 204.355,181.537 209.361,186.543C214.367,191.549 214.367,199.677 209.361,204.683L175.728,238.316C171.14,242.904 163.922,243.277 158.906,239.434Z" style="fill:rgb(151,151,151);"/>
        <path d="M151.863,246.532L127.251,222.112C127.241,222.103 127.232,222.093 127.223,222.084C115.953,210.814 115.953,192.514 127.223,181.243C138.493,169.973 156.793,169.973 168.064,181.243C168.064,181.243 175.221,188.401 175.221,188.401L184.15,179.472C193.059,170.564 207.524,170.564 216.432,179.472C225.341,188.38 225.341,202.846 216.432,211.754L182.799,245.387C174.623,253.563 161.761,254.22 152.824,247.371C152.486,247.113 152.165,246.832 151.863,246.532ZM158.906,239.434C163.922,243.277 171.14,242.904 175.728,238.316L209.361,204.683C214.367,199.677 214.367,191.549 209.361,186.543C204.355,181.537 196.227,181.537 191.221,186.543L175.221,202.543L160.993,188.314C153.625,180.947 141.662,180.947 134.294,188.314C126.926,195.682 126.926,207.645 134.294,215.013L158.906,239.434Z"/>
    </g>
</svg>
