<?xml version="1.0" encoding="UTF-8" standalone="no"?>
<!DOCTYPE svg PUBLIC "-//W3C//DTD SVG 1.1//EN" "http://www.w3.org/Graphics/SVG/1.1/DTD/svg11.dtd">
<svg width="100%" height="100%" viewBox="0 0 256 256" version="1.1" xmlns="http://www.w3.org/2000/svg" xmlns:xlink="http://www.w3.org/1999/xlink" xml:space="preserve" xmlns:serif="http://www.serif.com/" style="fill-rule:evenodd;clip-rule:evenodd;stroke-linecap:round;stroke-linejoin:round;stroke-miterlimit:1.5;">
    <rect id="blobbee_gamer" x="-0" y="0" width="256" height="256" style="fill:none;"/>
    <clipPath id="_clip1">
        <rect x="-0" y="0" width="256" height="256"/>
    </clipPath>
    <g clip-path="url(#_clip1)">
        <path id="Wings-outline" serif:id="Wings outline" d="M130.856,59.756C103.019,62.47 71.403,41.235 57.982,5.65C42.637,-35.039 58.037,-75.299 88.386,-85.447C112.041,-93.356 140.798,-81.45 159.283,-56.218C186.131,-74.864 218.386,-77.209 239.378,-61.728C266.807,-41.5 268.887,4.414 239.797,40.686C211.162,76.39 165.207,86.274 138.208,66.364C135.509,64.373 133.058,62.162 130.856,59.756ZM137.155,43.08C139.645,47.429 142.961,51.231 147.111,54.291C168.802,70.288 205.09,59.987 228.095,31.302C251.1,2.617 252.167,-33.659 230.475,-49.656C210.553,-64.348 178.317,-56.856 155.368,-33.312C142.407,-61.872 115.433,-78.674 93.143,-71.221C69.559,-63.336 60.093,-31.263 72.017,0.357C83.942,31.976 112.771,51.244 136.356,43.359C136.624,43.269 136.89,43.176 137.155,43.08Z"/>
        <path id="Body" d="M127.902,1.921C208.729,-44.745 300.137,-39.183 331.897,14.333C363.657,67.85 323.82,149.185 242.993,195.851C162.165,242.517 70.758,236.955 38.998,183.439C7.237,129.922 47.074,48.587 127.902,1.921Z" style="fill:rgb(254,194,7);"/>
        <g id="Stripes">
            <path d="M188.793,-16.095C187.039,-14.699 315.054,-20.58 327.076,109.803C391.095,-61.796 189.429,-29.021 188.793,-16.095Z" style="fill:rgb(85,85,85);"/>
            <path d="M327.076,111.159C319.401,-14.647 191.893,-17.614 192.59,-21.35L145.073,-3.751C145.073,-3.751 299.034,-6.142 304.518,142.104L323.15,113.42" style="fill:rgb(254,194,7);"/>
            <path d="M275.897,172.628L304.252,142.104C298.868,-6.332 141.84,-8.914 141.842,-8.859L116.671,5.99C116.437,6.032 279.066,19.108 275.897,172.628Z" style="fill:rgb(85,85,85);"/>
            <path d="M118.8,6.104L91.65,27.286C91.65,27.286 247.73,42.825 246.071,194.336L275.383,174.688C286.256,24.404 117.148,7.374 114.749,9.264" style="fill:rgb(254,194,7);"/>
            <path d="M85.819,30.174L65.463,51.814C65.463,51.814 209.143,53.111 212.42,209.36L246.071,194.336C251.812,38.125 90.484,31.835 85.819,30.174Z" style="fill:rgb(85,85,85);"/>
        </g>
        <path id="Body-outline" serif:id="Body outline" d="M127.902,1.921C208.729,-44.745 300.137,-39.183 331.897,14.333C363.657,67.85 323.82,149.185 242.993,195.851C162.165,242.517 70.758,236.955 38.998,183.439C7.237,129.922 47.074,48.587 127.902,1.921Z" style="fill:none;stroke:black;stroke-width:15px;"/>
        <g id="Wings">
            <path id="Back-wing" serif:id="Back wing" d="M93.143,-71.221C116.727,-79.107 145.556,-59.838 157.481,-28.219C169.406,3.4 159.94,35.473 136.356,43.359C112.771,51.244 83.942,31.976 72.017,0.357C60.093,-31.263 69.559,-63.336 93.143,-71.221Z" style="fill:rgb(167,167,167);"/>
            <path id="Front-wing" serif:id="Front wing" d="M230.475,-49.656C252.167,-33.659 251.1,2.617 228.095,31.302C205.09,59.987 168.802,70.288 147.111,54.291C125.419,38.295 126.486,2.019 149.491,-26.666C172.496,-55.351 208.784,-65.652 230.475,-49.656Z" style="fill:rgb(195,195,195);"/>
        </g>
        <g id="Eyes">
            <path id="Right-eye" serif:id="Right eye" d="M141.013,124.059L141.013,132.005C141.013,140.353 134.237,147.129 125.889,147.129C117.542,147.129 110.765,140.353 110.765,132.005L110.765,124.059C110.765,115.712 117.542,108.935 125.889,108.935C134.237,108.935 141.013,115.712 141.013,124.059Z"/>
            <path id="Left-eye" serif:id="Left eye" d="M80.909,123.995L80.909,131.941C80.909,140.288 74.132,147.065 65.785,147.065C57.437,147.065 50.661,140.288 50.661,131.941L50.661,123.995C50.661,115.647 57.437,108.871 65.785,108.871C74.132,108.871 80.909,115.647 80.909,123.995Z"/>
        </g>
        <path id="Controller" d="M128.694,167.064C128.694,167.064 142.371,160.505 146.841,167.824C146.841,167.824 150.372,172.67 152.337,187.874C154.302,203.079 157.55,219.344 157.491,227.995C157.432,236.645 157.429,240.898 155.467,244.649C153.506,248.401 148.575,249.755 141.871,249.263C131.158,248.477 119.483,231.085 119.483,231.085C119.483,231.085 117.807,228.666 112.51,228.258C107.571,227.877 97.97,227.043 96.693,226.931C95.416,226.828 85.81,226.052 80.877,225.604C75.586,225.124 73.53,227.23 73.53,227.23C73.53,227.23 55.144,245.53 46.87,244.834C40.276,244.279 37.099,238.636 35.789,234.611C34.479,230.585 35.186,226.391 36.568,217.852C37.951,209.312 43.864,193.815 48.334,179.15C52.804,164.486 57.093,160.296 57.093,160.296C62.72,153.824 75.859,162.596 75.859,162.596L128.694,167.064Z" style="fill:rgb(156,78,151);stroke:black;stroke-width:10px;"/>
        <g id="Left-hand" serif:id="Left hand">
            <path id="Outline" d="M33.348,188.357L16.387,205.318L39.137,228.069L56.098,211.108C62.376,204.829 62.376,194.635 56.098,188.357C49.82,182.079 39.626,182.079 33.348,188.357Z" style="fill:rgb(151,151,151);"/>
            <path d="M26.277,181.286C36.457,171.106 52.988,171.106 63.169,181.286C73.35,191.467 73.35,207.998 63.169,218.179L46.208,235.14C42.303,239.045 35.971,239.045 32.066,235.14L9.316,212.389C5.41,208.484 5.41,202.152 9.316,198.247L26.277,181.286ZM33.348,188.357L16.387,205.318L39.137,228.069L56.098,211.108C62.376,204.829 62.376,194.635 56.098,188.357C49.82,182.079 39.626,182.079 33.348,188.357Z"/>
            <path id="Fill" d="M33.348,188.357L9.384,212.321L32.135,235.071L56.098,211.108C62.376,204.829 62.376,194.635 56.098,188.357C49.82,182.079 39.626,182.079 33.348,188.357Z" style="fill:rgb(151,151,151);"/>
        </g>
        <path id="Right-arm" serif:id="Right arm" d="M161.999,235.495L141.013,214.673C134.731,208.391 134.731,198.19 141.013,191.908C147.295,185.626 157.496,185.626 163.778,191.908L175.91,204.04L189.553,190.397C193.821,186.129 200.752,186.129 205.02,190.397C209.288,194.666 209.288,201.596 205.02,205.865L176.343,234.542C172.43,238.454 166.276,238.772 161.999,235.495Z" style="fill:rgb(151,151,151);"/>
        <path d="M154.956,242.594L133.97,221.771C133.961,221.762 133.951,221.753 133.942,221.744C123.757,211.559 123.757,195.022 133.942,184.837C144.127,174.652 160.664,174.652 170.849,184.837C170.849,184.837 175.91,189.898 175.91,189.898L182.482,183.326C190.653,175.155 203.92,175.155 212.091,183.326C220.262,191.497 220.262,204.765 212.091,212.936L183.414,241.613C175.914,249.113 164.115,249.715 155.917,243.433C155.579,243.174 155.258,242.894 154.956,242.594ZM161.999,235.495C166.276,238.772 172.43,238.454 176.343,234.542L205.02,205.865C209.288,201.596 209.288,194.666 205.02,190.397C200.752,186.129 193.821,186.129 189.553,190.397L175.91,204.04L163.778,191.908C157.496,185.626 147.295,185.626 141.013,191.908C134.731,198.19 134.731,208.391 141.013,214.673L161.999,235.495Z"/>
        <g id="Headset">
            <path id="Shading" d="M170.195,97.854C150.212,75.896 103.063,39.903 35.233,86.632C37.747,78.523 54.3,55.269 54.3,55.269C54.3,55.269 125.847,6.068 192.819,79.247C193.376,79.201 193.937,79.178 194.502,79.178C202.376,79.178 214.504,80.454 221.569,86.62C230.957,93.743 237.37,108.011 237.37,124.435C237.37,142.674 229.461,158.254 218.352,164.343C216.995,165.197 215.454,165.814 213.8,166.241C211.918,166.791 209.971,167.079 207.979,167.079C207.577,167.079 207.178,167.067 206.781,167.044C201.635,167.055 196.318,166.053 192.363,165.062C176.627,161.12 165.11,145.359 165.11,121.822C165.11,112.939 166.987,104.686 170.195,97.854Z" style="fill:none;stroke:black;stroke-width:10px;stroke-linecap:butt;"/>
            <path id="Shading1" serif:id="Shading" d="M194.502,79.178C204.101,79.178 220.02,81.074 225.385,91.413C229.087,98.547 223.894,112.213 223.894,121.822C223.894,132.532 226.603,153.06 222.103,160.553C216.713,169.528 201.166,167.268 192.363,165.062C176.627,161.12 165.11,145.359 165.11,121.822C165.11,98.286 178.28,79.178 194.502,79.178Z"/>
            <ellipse id="Cup" cx="207.979" cy="124.435" rx="29.392" ry="42.644" style="fill:rgb(43,43,43);"/>
            <path id="Headband" d="M180.916,111.604C180.916,111.604 127.002,23.412 35.233,86.632C37.747,78.523 54.3,55.269 54.3,55.269C54.3,55.269 129.429,3.605 197.778,84.903C192.707,88.971 180.916,111.604 180.916,111.604Z" style="fill:rgb(43,43,43);"/>
        </g>
    </g>
</svg>
