<?xml version="1.0" encoding="UTF-8" standalone="no"?>
<!DOCTYPE svg PUBLIC "-//W3C//DTD SVG 1.1//EN" "http://www.w3.org/Graphics/SVG/1.1/DTD/svg11.dtd">
<svg width="100%" height="100%" viewBox="0 0 256 256" version="1.1" xmlns="http://www.w3.org/2000/svg" xmlns:xlink="http://www.w3.org/1999/xlink" xml:space="preserve" xmlns:serif="http://www.serif.com/" style="fill-rule:evenodd;clip-rule:evenodd;stroke-linecap:round;stroke-linejoin:round;stroke-miterlimit:1.5;">
    <rect id="blobbee_pat" x="0" y="0" width="256" height="256" style="fill:none;"/>
    <clipPath id="_clip1">
        <rect x="0" y="0" width="256" height="256"/>
    </clipPath>
    <g clip-path="url(#_clip1)">
        <path id="Wings-outline" serif:id="Wings outline" d="M129.457,71.439C101.62,74.152 70.004,52.917 56.583,17.332C41.238,-23.356 56.638,-63.617 86.987,-73.764C110.642,-81.673 139.399,-69.767 157.884,-44.535C184.732,-63.181 216.987,-65.526 237.979,-50.045C265.408,-29.818 267.488,16.097 238.398,52.369C209.763,88.073 163.808,97.957 136.809,78.046C134.11,76.056 131.659,73.845 129.457,71.439ZM135.756,54.763C138.246,59.112 141.562,62.914 145.712,65.974C167.403,81.971 203.691,71.669 226.696,42.984C249.701,14.299 250.768,-21.976 229.076,-37.973C209.154,-52.665 176.918,-45.173 153.969,-21.629C141.008,-50.189 114.034,-66.991 91.744,-59.538C68.16,-51.653 58.694,-19.58 70.618,12.039C82.543,43.658 111.372,62.927 134.957,55.041C135.225,54.952 135.491,54.859 135.756,54.763Z"/>
        <path id="Body" d="M127.902,1.921C208.729,-44.745 300.137,-39.183 331.897,14.333C363.657,67.85 323.82,149.185 242.993,195.851C162.165,242.517 70.758,236.955 38.998,183.439C7.237,129.922 47.074,48.587 127.902,1.921Z" style="fill:rgb(254,194,7);"/>
        <g id="Stripes">
            <path d="M188.793,-16.095C187.039,-14.699 315.054,-20.58 327.076,109.803C391.095,-61.796 189.429,-29.021 188.793,-16.095Z" style="fill:rgb(85,85,85);"/>
            <path d="M327.076,111.159C319.401,-14.647 191.893,-17.614 192.59,-21.35L145.073,-3.751C145.073,-3.751 299.034,-6.142 304.518,142.104L323.15,113.42" style="fill:rgb(254,194,7);"/>
            <path d="M275.897,172.628L304.252,142.104C298.868,-6.332 141.84,-8.914 141.842,-8.859L116.671,5.99C116.437,6.032 279.066,19.108 275.897,172.628Z" style="fill:rgb(85,85,85);"/>
            <path d="M118.8,6.104L91.65,27.286C91.65,27.286 247.73,42.825 246.071,194.336L275.383,174.688C286.256,24.404 117.148,7.374 114.749,9.264" style="fill:rgb(254,194,7);"/>
            <path d="M85.819,30.174L65.463,51.814C65.463,51.814 209.143,53.111 212.42,209.36L246.071,194.336C251.812,38.125 90.484,31.835 85.819,30.174Z" style="fill:rgb(85,85,85);"/>
        </g>
        <path id="Body-outline" serif:id="Body outline" d="M127.902,1.921C208.729,-44.745 300.137,-39.183 331.897,14.333C363.657,67.85 323.82,149.185 242.993,195.851C162.165,242.517 70.758,236.955 38.998,183.439C7.237,129.922 47.074,48.587 127.902,1.921Z" style="fill:none;stroke:black;stroke-width:15px;"/>
        <g id="Wings">
            <path id="Back-wing" serif:id="Back wing" d="M91.744,-59.538C115.328,-67.424 144.157,-48.156 156.082,-16.536C168.007,15.083 158.541,47.156 134.957,55.041C111.372,62.927 82.543,43.658 70.618,12.039C58.694,-19.58 68.16,-51.653 91.744,-59.538Z" style="fill:rgb(167,167,167);"/>
            <path id="Front-wing" serif:id="Front wing" d="M229.076,-37.973C250.768,-21.976 249.701,14.299 226.696,42.984C203.691,71.669 167.403,81.971 145.712,65.974C124.02,49.977 125.087,13.702 148.092,-14.983C171.097,-43.668 207.385,-53.97 229.076,-37.973Z" style="fill:rgb(195,195,195);"/>
        </g>
        <g id="Face">
            <path id="Mouth" d="M65.917,168.037L76.693,186.154L91.213,168.069L109.2,186.104L130.627,168.09" style="fill:none;stroke:black;stroke-width:10px;"/>
            <g id="Eyes">
                <path id="Right-eye" serif:id="Right eye" d="M144.195,117.533L116.671,133.455L144.358,145.482" style="fill:none;stroke:black;stroke-width:13.47px;"/>
                <path id="Left-eye" serif:id="Left eye" d="M50.822,117.533L78.347,133.455L50.66,145.482" style="fill:none;stroke:black;stroke-width:13.47px;"/>
            </g>
        </g>
        <g id="Hand">
            <path id="Main" d="M55.405,94.844C55.047,94.97 54.667,95.036 54.265,95.036C46.017,95.036 38.394,88.113 37.447,87.222L37.385,87.284L13.607,63.505L37.466,39.646L61.207,63.387L107.624,63.387L107.624,63.4C107.914,63.425 108.206,63.486 108.494,63.587L162.152,82.418C164.891,83.379 166.335,86.384 165.373,89.124C163.12,95.546 156.076,98.93 149.654,96.676L117.505,85.394C117.352,90.742 112.963,95.036 107.578,95.036L57.355,95.036C56.688,95.036 56.036,94.97 55.405,94.844Z" style="fill:white;"/>
            <path d="M112.591,65.025C114.909,61.645 117.236,59.219 117.58,62.459C117.137,57.714 113.353,53.854 108.477,53.437C109.588,53.532 110.705,53.765 111.805,54.152L165.463,72.982C173.41,75.771 177.598,84.488 174.809,92.435C170.728,104.065 157.972,110.193 146.343,106.112C146.343,106.112 122.874,97.876 122.874,97.876C119.217,102.251 113.721,105.036 107.578,105.036L57.355,105.036C56.787,105.036 56.224,105.012 55.667,104.965L55.659,104.965C55.202,105.012 54.737,105.036 54.265,105.036C44.644,105.036 35.509,98.562 31.986,95.701C31.387,95.316 30.825,94.866 30.314,94.355L6.536,70.576C2.631,66.671 2.631,60.34 6.536,56.434L30.395,32.575C34.3,28.67 40.632,28.67 44.537,32.575L65.349,53.387L107.624,53.387C102.101,53.387 97.624,57.864 97.624,63.387L61.207,63.387L37.466,39.646L13.607,63.505L30.314,80.213C22.42,88.216 36.109,96.447 37.357,97.171C37.077,96.069 34.795,87.177 32.735,82.634L37.385,87.284L37.447,87.222C38.394,88.113 46.017,95.036 54.265,95.036C54.667,95.036 55.047,94.97 55.405,94.844C56.036,94.97 56.688,95.036 57.355,95.036L107.578,95.036C112.963,95.036 117.352,90.742 117.505,85.394L149.654,96.676C156.076,98.93 163.12,95.546 165.373,89.124C166.335,86.384 164.891,83.379 162.152,82.418L117.098,66.607C117.394,65.73 117.573,64.797 117.614,63.827C117.621,63.68 117.624,63.533 117.624,63.388C117.624,64.019 116.907,65.03 115.858,66.172L112.591,65.025ZM97.624,63.387C97.624,62.963 97.948,63.016 98.479,63.387L97.624,63.387ZM37.417,97.206C37.437,97.217 37.447,97.222 37.447,97.222L38.25,95.195L37.417,97.206Z"/>
            <path id="Thumb" d="M68.099,98.886L110.069,98.886C114.649,98.886 118.368,94.196 118.368,88.42C118.368,82.643 114.649,77.953 110.069,77.953L68.099,77.953" style="fill:white;stroke:black;stroke-width:7px;"/>
        </g>
    </g>
</svg>
