<?xml version="1.0" encoding="UTF-8" standalone="no"?>
<!DOCTYPE svg PUBLIC "-//W3C//DTD SVG 1.1//EN" "http://www.w3.org/Graphics/SVG/1.1/DTD/svg11.dtd">
<svg width="100%" height="100%" viewBox="0 0 256 256" version="1.1" xmlns="http://www.w3.org/2000/svg" xmlns:xlink="http://www.w3.org/1999/xlink" xml:space="preserve" xmlns:serif="http://www.serif.com/" style="fill-rule:evenodd;clip-rule:evenodd;stroke-linecap:round;stroke-linejoin:round;stroke-miterlimit:1.5;">
    <rect id="blobbee_hug_heart" x="-0" y="0" width="256" height="256" style="fill:none;"/>
    <clipPath id="_clip1">
        <rect x="-0" y="0" width="256" height="256"/>
    </clipPath>
    <g clip-path="url(#_clip1)">
        <g id="Right-bee" serif:id="Right bee">
            <path id="Wings-outline" serif:id="Wings outline" d="M148.346,135.121C134.249,134.344 119.24,123.938 112.662,106.497C104.15,83.926 114.112,62.089 130.948,56.459C142.085,52.736 155.58,56.452 165.699,66.148C178.871,59.892 193.341,60.565 203.162,67.808C218.161,78.869 220.853,103.948 204.946,123.783C189.498,143.045 164.378,147.014 149.812,136.273C149.309,135.902 148.82,135.518 148.346,135.121ZM154.47,119.42C155.531,121.274 156.945,122.896 158.715,124.2C167.963,131.021 183.435,126.629 193.244,114.398C203.053,102.168 203.508,86.701 194.259,79.88C185.765,73.616 172.02,76.81 162.236,86.849C156.709,74.672 145.208,67.508 135.704,70.685C125.649,74.048 121.613,87.723 126.697,101.204C131.782,114.685 144.073,122.901 154.129,119.539C154.243,119.501 154.357,119.461 154.47,119.42Z"/>
            <path id="Body" d="M152.322,98.199C188.339,75.441 229.071,78.153 243.223,104.252C257.376,130.35 239.624,170.015 203.607,192.773C167.59,215.53 126.858,212.818 112.706,186.72C98.553,160.621 116.305,120.956 152.322,98.199Z" style="fill:rgb(254,194,7);"/>
            <g id="Stripes">
                <path d="M179.455,89.413C178.674,90.093 235.718,87.226 241.075,150.81C269.602,67.126 179.739,83.109 179.455,89.413Z" style="fill:rgb(85,85,85);"/>
                <path d="M241.075,151.471C237.655,90.119 180.837,88.672 181.147,86.85L159.973,95.432C159.973,95.432 228.579,94.267 231.023,166.562L239.325,152.573" style="fill:rgb(254,194,7);"/>
                <path d="M218.269,181.448L230.904,166.562C228.505,94.174 158.533,92.915 158.534,92.942L147.317,100.183C147.213,100.204 219.681,106.58 218.269,181.448Z" style="fill:rgb(85,85,85);"/>
                <path d="M148.266,100.238L136.168,110.568C136.168,110.568 205.718,118.147 204.979,192.034L218.04,182.452C222.885,109.163 147.53,100.858 146.461,101.779" style="fill:rgb(254,194,7);"/>
                <path d="M133.57,111.977L124.499,122.53C124.499,122.53 188.523,123.162 189.983,199.361L204.979,192.034C207.537,115.854 135.648,112.787 133.57,111.977Z" style="fill:rgb(85,85,85);"/>
            </g>
            <path id="Body-outline" serif:id="Body outline" d="M152.322,98.199C188.339,75.441 229.071,78.153 243.223,104.252C257.376,130.35 239.624,170.015 203.607,192.773C167.59,215.53 126.858,212.818 112.706,186.72C98.553,160.621 116.305,120.956 152.322,98.199Z" style="fill:none;stroke:black;stroke-width:15px;"/>
            <g id="Wings">
                <path id="Back-wing" serif:id="Back wing" d="M135.704,70.685C145.76,67.323 158.052,75.539 163.136,89.02C168.221,102.502 164.185,116.177 154.129,119.539C144.073,122.901 131.782,114.685 126.697,101.204C121.613,87.723 125.649,74.048 135.704,70.685Z" style="fill:rgb(167,167,167);"/>
                <path id="Front-wing" serif:id="Front wing" d="M194.259,79.88C203.508,86.701 203.053,102.168 193.244,114.398C183.435,126.629 167.963,131.021 158.715,124.2C149.466,117.38 149.921,101.913 159.73,89.682C169.538,77.452 185.01,73.06 194.259,79.88Z" style="fill:rgb(195,195,195);"/>
            </g>
            <g id="Face">
                <path id="Mouth" d="M128.439,178.362L133.715,187.232L140.824,178.377L149.631,187.207L160.122,178.388" style="fill:none;stroke:black;stroke-width:4.6px;"/>
                <g id="Eyes">
                    <path id="Right-eye" serif:id="Right eye" d="M166.682,158.774L166.682,162.584C166.682,166.586 163.433,169.835 159.431,169.835C155.428,169.835 152.179,166.586 152.179,162.584L152.179,158.774C152.179,154.772 155.428,151.523 159.431,151.523C163.433,151.523 166.682,154.772 166.682,158.774Z"/>
                    <path id="Left-eye" serif:id="Left eye" d="M139.663,158.774L139.663,162.584C139.663,166.586 136.414,169.835 132.412,169.835C128.41,169.835 125.161,166.586 125.161,162.584L125.161,158.774C125.161,154.772 128.41,151.523 132.412,151.523C136.414,151.523 139.663,154.772 139.663,158.774Z"/>
                </g>
            </g>
        </g>
        <g id="Left-bee" serif:id="Left bee">
            <path id="Wings-outline1" serif:id="Wings outline" d="M112.991,168.782C112.51,169.416 112.002,170.035 111.468,170.639C98.762,184.999 71.861,186.28 51.583,169.753C30.737,152.762 27.771,126.264 40.833,111.501C49.552,101.647 64.779,97.861 80.088,101.81C88.34,89.063 101.682,81.877 114.256,83.287C132.883,85.376 147.839,105.82 144.041,131.006C141.062,150.767 127.597,165.055 112.991,168.782ZM103.679,154.614C103.809,154.632 103.939,154.648 104.071,154.663C115.595,155.956 126.859,144.353 129.209,128.77C131.558,113.187 124.109,99.486 112.585,98.194C101.692,96.972 91.033,107.269 87.912,121.558C75.148,113.063 59.717,112.795 52.067,121.441C43.738,130.854 47.767,147.292 61.059,158.125C74.352,168.959 91.905,170.112 100.234,160.699C101.827,158.898 102.968,156.841 103.679,154.614Z"/>
            <path id="Body1" serif:id="Body" d="M103.878,134.942C62.463,121.556 21.324,133.02 12.068,160.526C2.812,188.032 28.922,221.23 70.338,234.616C111.753,248.001 152.892,236.537 162.148,209.031C171.404,181.525 145.294,148.327 103.878,134.942Z" style="fill:rgb(254,194,7);"/>
            <g id="Stripes1" serif:id="Stripes">
                <path d="M74.352,132.674C75.288,133.139 16.338,142.961 23.591,203.59C-22.362,131.593 72.799,126.841 74.352,132.674Z" style="fill:rgb(85,85,85);"/>
                <path d="M23.723,204.208C14.936,146.091 72.79,132.284 72.107,130.648L95.494,134.032C95.494,134.032 25.054,147.98 37.032,216.116L25.735,204.856" style="fill:rgb(254,194,7);"/>
                <path d="M53.065,227.24L37.154,216.09C25.111,147.877 96.464,131.363 96.469,131.388L109.397,135.7C109.508,135.697 36.625,157.543 53.065,227.24Z" style="fill:rgb(85,85,85);"/>
                <path d="M108.437,135.96L122.887,142.967C122.887,142.967 53.231,165.298 68.786,234.225L53.501,228.129C33.864,160.661 109.315,136.378 110.593,137.005" style="fill:rgb(254,194,7);"/>
                <path d="M125.828,143.715L137.224,151.595C137.224,151.595 71.832,166.219 85.599,237.79L68.786,234.225C50.911,163.553 123.863,144.928 125.828,143.715Z" style="fill:rgb(85,85,85);"/>
            </g>
            <path id="Body-outline1" serif:id="Body outline" d="M103.878,134.942C62.463,121.556 21.324,133.02 12.068,160.526C2.812,188.032 28.922,221.23 70.338,234.616C111.753,248.001 152.892,236.537 162.148,209.031C171.404,181.525 145.294,148.327 103.878,134.942Z" style="fill:none;stroke:black;stroke-width:15px;"/>
            <g id="Wings1" serif:id="Wings">
                <path id="Back-wing1" serif:id="Back wing" d="M112.585,98.194C101.06,96.901 89.796,108.504 87.446,124.087C85.097,139.67 92.546,153.371 104.071,154.663C115.595,155.956 126.859,144.353 129.209,128.77C131.558,113.187 124.109,99.486 112.585,98.194Z" style="fill:rgb(167,167,167);"/>
                <path id="Front-wing1" serif:id="Front wing" d="M52.067,121.441C43.738,130.854 47.767,147.292 61.059,158.125C74.352,168.959 91.905,170.112 100.234,160.699C108.563,151.286 104.534,134.848 91.241,124.015C77.949,113.181 60.396,112.028 52.067,121.441Z" style="fill:rgb(195,195,195);"/>
            </g>
            <g id="Face1" serif:id="Face">
                <path id="Mouth1" serif:id="Mouth" d="M143.921,209.419L138.835,217.994L131.795,209.54L123.065,218.163L112.712,209.532" style="fill:none;stroke:black;stroke-width:6.5px;"/>
                <g id="Eyes1" serif:id="Eyes">
                    <path id="Right-eye1" serif:id="Right eye" d="M135.684,188.305C136.852,191.726 139.688,192.807 141.837,192.827C144.255,192.848 146.856,192.11 148.505,188.009" style="fill:none;stroke:black;stroke-width:7px;"/>
                    <path id="Left-eye1" serif:id="Left eye" d="M107.587,188.305C108.755,191.726 111.591,192.807 113.74,192.827C116.158,192.848 118.759,192.11 120.408,188.009" style="fill:none;stroke:black;stroke-width:7px;"/>
                </g>
            </g>
        </g>
        <path id="Right-arm" serif:id="Right arm" d="M193.615,213.603L150.492,224.114C143.682,225.385 137.639,223.088 136.653,217.806C135.667,212.524 140.388,208.054 147.198,206.783L180.825,198.116L178.404,184.836C177.734,181.248 180.947,177.633 185.573,176.769C190.2,175.905 194.5,178.117 195.17,181.706L199.672,205.818C200.286,209.107 197.63,212.419 193.615,213.603Z" style="fill:rgb(151,151,151);"/>
        <path d="M195.983,223.319L152.86,233.829C152.683,233.872 152.506,233.911 152.327,233.944C139.235,236.388 128.718,229.796 126.823,219.641C124.946,209.587 132.153,199.575 144.998,197.023C144.998,197.023 169.319,190.755 169.319,190.755C169.319,190.755 168.568,186.635 168.568,186.635C167.047,178.369 173.085,168.928 183.738,166.939C194.407,164.947 203.456,171.596 205.001,179.871L209.502,203.982C210.948,211.729 205.9,220.405 196.444,223.195C196.291,223.24 196.138,223.281 195.983,223.319ZM193.615,213.603C197.63,212.419 200.286,209.107 199.672,205.818L195.17,181.706C194.5,178.117 190.2,175.905 185.573,176.769C180.947,177.633 177.734,181.248 178.404,184.836L180.825,198.116L147.198,206.783C140.388,208.054 135.667,212.524 136.653,217.806C137.639,223.088 143.682,225.385 150.492,224.114L193.615,213.603Z"/>
        <path id="Heart" d="M100.241,70.661L90.15,60.571C80.47,50.89 80.47,35.171 90.15,25.491C99.831,15.81 115.55,15.81 125.231,25.491L128,28.26L130.769,25.491C140.45,15.81 156.169,15.81 165.85,25.491C175.53,35.171 175.53,50.89 165.85,60.571L155.759,70.661C155.367,71.211 154.923,71.736 154.43,72.23L136.889,89.77C134.439,92.221 131.215,93.43 128,93.4C124.785,93.43 121.561,92.221 119.111,89.77L101.57,72.23C101.077,71.736 100.633,71.211 100.241,70.661Z" style="fill:rgb(239,124,148);stroke:black;stroke-width:15px;stroke-linejoin:miter;stroke-miterlimit:5;"/>
    </g>
</svg>
