<?xml version="1.0" encoding="UTF-8" standalone="no"?>
<!DOCTYPE svg PUBLIC "-//W3C//DTD SVG 1.1//EN" "http://www.w3.org/Graphics/SVG/1.1/DTD/svg11.dtd">
<svg width="100%" height="100%" viewBox="0 0 256 256" version="1.1" xmlns="http://www.w3.org/2000/svg" xmlns:xlink="http://www.w3.org/1999/xlink" xml:space="preserve" xmlns:serif="http://www.serif.com/" style="fill-rule:evenodd;clip-rule:evenodd;stroke-linecap:round;stroke-linejoin:round;stroke-miterlimit:1.5;">
    <g transform="matrix(1,0,0,1,0,-281)">
        <g id="blobbee_mouse_hug" transform="matrix(1,0,0,1,0,281)">
            <rect x="0" y="0" width="256" height="256" style="fill:none;"/>
            <g id="Bee" transform="matrix(0.681503,0,0,0.681503,92.3096,60.4387)">
                <clipPath id="_clip1">
                    <path d="M211.459,180.054L211.81,292.616L-149.134,300.059L-149.079,-101.624L191.49,-98.989L191.49,45.116C226.297,46.697 254.291,135.553 211.459,180.054"/>
                </clipPath>
                <g clip-path="url(#_clip1)">
                    <g id="Sting" transform="matrix(0.78314,0.139967,-0.135634,0.7589,67.2303,-21.11)">
                        <path d="M189.771,56.854L238.765,34.355L235.05,81.388" style="fill:rgb(104,104,104);stroke:black;stroke-width:18.73px;"/>
                    </g>
                    <g id="Body" transform="matrix(0.994109,-0.573949,0.761422,1.28301,-120.17,92.6047)">
                        <ellipse cx="168.926" cy="110.515" rx="107.942" ry="55.376" style="fill:rgb(104,104,104);stroke:black;stroke-width:10.96px;"/>
                    </g>
                    <g id="Wings-outline" serif:id="Wings outline" transform="matrix(0.959562,0.127262,-0.127262,0.959562,7.56883,-6.44254)">
                        <g transform="matrix(1.17688,-0.575088,0.651434,1.21399,-55.8934,35.953)">
                            <path d="M87.573,10.539C107.062,10.539 124.752,29.593 124.752,54.773C124.752,80.454 106.571,99.843 86.693,99.843C67.204,99.843 49.513,80.789 49.513,55.609C49.513,29.927 67.695,10.539 87.573,10.539ZM87.133,21.55C72.762,21.55 61.095,36.624 61.095,55.191C61.095,73.758 72.762,88.832 87.133,88.832C101.504,88.832 113.171,73.758 113.171,55.191C113.171,36.624 101.504,21.55 87.133,21.55Z"/>
                        </g>
                        <g transform="matrix(1.24343,0.685066,-0.776012,1.28263,74.2693,-72.8119)">
                            <path d="M86.7,11.429C106.149,11.429 123.858,30.473 123.858,55.601C123.858,80.236 106.634,98.952 87.566,98.952C68.117,98.952 50.408,79.909 50.408,54.781C50.408,30.145 67.632,11.429 86.7,11.429ZM87.133,21.55C72.762,21.55 61.095,36.624 61.095,55.191C61.095,73.758 72.762,88.832 87.133,88.832C101.504,88.832 113.171,73.758 113.171,55.191C113.171,36.624 101.504,21.55 87.133,21.55Z"/>
                        </g>
                    </g>
                    <g id="Stripes" transform="matrix(1,0,0,1,4.4273,10.012)">
                        <g transform="matrix(1,-7.43708e-18,-7.43708e-18,1,92.3462,-63.8411)">
                            <path d="M37.588,107.021C36.302,108.044 130.102,103.736 138.911,199.269C185.818,73.536 38.054,97.55 37.588,107.021Z" style="fill:rgb(254,194,7);stroke:black;stroke-width:4.4px;"/>
                        </g>
                        <g transform="matrix(1,-7.43708e-18,-7.43708e-18,1,73.4912,-52.6421)">
                            <path d="M157.766,189.064C152.141,96.884 58.714,94.709 59.225,91.972L24.408,104.867C24.408,104.867 137.219,103.115 141.236,211.738L154.889,190.72" style="fill:rgb(104,104,104);stroke:black;stroke-width:4.4px;"/>
                        </g>
                        <g transform="matrix(1,-7.43708e-18,-7.43708e-18,1,55.5726,-39.8214)">
                            <path d="M138.184,221.282L158.96,198.917C155.015,90.156 39.958,88.264 39.959,88.304L21.516,99.184C21.345,99.215 140.506,108.796 138.184,221.282Z" style="fill:rgb(254,194,7);stroke:black;stroke-width:4.4px;"/>
                        </g>
                        <g transform="matrix(1,-7.43708e-18,-7.43708e-18,1,25.9786,-19.0024)">
                            <path d="M52.67,78.448L32.777,93.969C32.777,93.969 147.14,105.355 145.924,216.369L167.401,201.973C175.368,91.857 51.46,79.379 49.702,80.764" style="fill:rgb(104,104,104);stroke:black;stroke-width:4.4px;"/>
                        </g>
                        <g transform="matrix(1,-7.43708e-18,-7.43708e-18,1,-0.424026,-0.546032)">
                            <path d="M54.907,77.629L39.992,93.485C39.992,93.485 145.269,94.435 147.67,208.921L172.327,197.913C176.533,83.454 58.325,78.845 54.907,77.629Z" style="fill:rgb(254,194,7);stroke:black;stroke-width:4.4px;"/>
                        </g>
                    </g>
                    <g id="Body-outline" serif:id="Body outline" transform="matrix(0.994109,-0.573949,0.761422,1.28301,-120.17,92.6047)">
                        <ellipse cx="168.926" cy="110.515" rx="107.942" ry="55.376" style="fill:none;stroke:black;stroke-width:10.96px;"/>
                    </g>
                    <g id="Wings" transform="matrix(0.959562,0.127262,-0.127262,0.959562,7.56883,-6.44254)">
                        <g id="Back-wing" serif:id="Back wing" transform="matrix(1.17688,-0.575088,0.651434,1.21399,-55.8934,35.953)">
                            <ellipse cx="87.133" cy="55.191" rx="26.038" ry="33.641" style="fill:rgb(195,195,195);stroke:black;stroke-width:3.32px;"/>
                        </g>
                        <g id="Front-wing" serif:id="Front wing" transform="matrix(0.946806,0,0,0.999012,5.86837,0.313874)">
                            <g id="Front-wing-main" serif:id="Front wing main" transform="matrix(1.31328,0.685743,-0.81961,1.2839,72.2439,-73.1981)">
                                <ellipse cx="87.133" cy="55.191" rx="26.038" ry="33.641" style="fill:rgb(195,195,195);stroke:black;stroke-width:3.18px;"/>
                            </g>
                            <path id="Front-wing-line" serif:id="Front wing line" d="M119.334,101.013C123.249,82.03 129.669,61.104 148.451,47.276" style="fill:none;stroke:black;stroke-width:4.67px;"/>
                        </g>
                    </g>
                    <g id="Face" transform="matrix(1,0,0,1,-3.8947,1.36785)">
                        <g id="Mouth" transform="matrix(0.658566,-1.17246e-18,-3.87825e-17,0.848272,3.90699,42.2986)">
                            <path d="M79.429,171.352L92.31,191.237L108.219,172.744L128,191.722L152.351,171.648" style="fill:none;stroke:black;stroke-width:21.26px;stroke-miterlimit:2;"/>
                            <path d="M79.429,171.352L92.31,191.237L108.219,172.744L128,191.722L152.351,171.648" style="fill:none;stroke:rgb(235,235,235);stroke-width:9.66px;"/>
                        </g>
                        <g id="Eyes" transform="matrix(0.856324,0.124954,-0.124954,0.856324,35.143,7.15355)">
                            <g id="Right-eye" serif:id="Right eye" transform="matrix(1.56791,-0.228787,0.215752,1.47858,-150.38,17.2361)">
                                <path d="M154.615,113.255C154.615,107.493 150.203,102.815 144.77,102.815C139.336,102.815 134.924,107.493 134.924,113.255L134.924,120.6C134.924,126.362 139.336,131.04 144.77,131.04C150.203,131.04 154.615,126.362 154.615,120.6L154.615,113.255Z" style="fill:rgb(235,235,235);stroke:black;stroke-width:3.3px;"/>
                            </g>
                            <g id="Right-eye1" serif:id="Right eye" transform="matrix(0.639006,-0.0932429,0.104024,0.712889,-4.68472,94.5194)">
                                <path d="M154.615,111.64C154.615,106.77 150.203,102.815 144.77,102.815C139.336,102.815 134.924,106.77 134.924,111.64L134.924,122.216C134.924,127.086 139.336,131.04 144.77,131.04C150.203,131.04 154.615,127.086 154.615,122.216L154.615,111.64Z"/>
                            </g>
                            <g id="Left-eye" serif:id="Left eye" transform="matrix(1.56791,-0.228787,0.215752,1.47858,-201.077,24.6337)">
                                <path d="M154.615,113.255C154.615,107.493 150.203,102.815 144.77,102.815C139.336,102.815 134.924,107.493 134.924,113.255L134.924,120.6C134.924,126.362 139.336,131.04 144.77,131.04C150.203,131.04 154.615,126.362 154.615,120.6L154.615,113.255Z" style="fill:rgb(235,235,235);stroke:black;stroke-width:3.3px;"/>
                            </g>
                            <g id="Right-eye2" serif:id="Right eye" transform="matrix(0.639006,-0.0932429,0.104024,0.712889,-55.3816,101.917)">
                                <path d="M154.615,111.64C154.615,106.77 150.203,102.815 144.77,102.815C139.336,102.815 134.924,106.77 134.924,111.64L134.924,122.216C134.924,127.086 139.336,131.04 144.77,131.04C150.203,131.04 154.615,127.086 154.615,122.216L154.615,111.64Z"/>
                            </g>
                        </g>
                    </g>
                </g>
            </g>
            <g id="Heart" transform="matrix(1.18084,0,0,1.50689,-1464.48,-1306.74)">
                <path d="M1324.07,885.041C1332.46,873.088 1349.24,873.088 1357.63,879.065C1366.02,885.041 1366.02,896.994 1357.63,908.948C1351.76,917.912 1336.66,926.877 1324.07,932.854C1311.49,926.877 1296.39,917.912 1290.52,908.948C1282.13,896.994 1282.13,885.041 1290.52,879.065C1298.91,873.088 1315.69,873.088 1324.07,885.041Z" style="fill:rgb(250,41,41);stroke:black;stroke-width:7.39px;"/>
            </g>
            <g transform="matrix(-3.95042,0,0,3.95042,189.362,69.9936)">
                <g id="path24" transform="matrix(1.25,0,0,-1.25,38.75,46.25)">
                    <path d="M0,1.31L-13,1.31C-13.552,1.31 -14,1.757 -14,2.31C-14,2.863 -13.552,3.31 -13,3.31L0,3.31C2.542,3.31 4,3.776 4,5.75C4,7.287 2.357,9 0,9L-7,9C-7.553,9 -8,9.447 -8,10C-8,10.553 -7.553,11 -7,11L0,11C3.589,11 6.028,8.285 6,5.75C5.969,2.927 3.645,1.31 0,1.31" style="fill:rgb(234,89,110);fill-rule:nonzero;stroke:black;stroke-width:2.03px;stroke-linecap:butt;stroke-miterlimit:2;"/>
                </g>
                <g id="path241" serif:id="path24" transform="matrix(1.25,0,0,-1.25,38.75,46.25)">
                    <path d="M0,1.31L-13,1.31C-13.552,1.31 -14,1.757 -14,2.31C-14,2.863 -13.552,3.31 -13,3.31L0,3.31C2.542,3.31 4,3.776 4,5.75C4,7.287 2.357,9 0,9L-7,9C-7.553,9 -8,9.447 -8,10C-8,10.553 -7.553,11 -7,11L0,11C3.589,11 6.028,8.285 6,5.75C5.969,2.927 3.645,1.31 0,1.31" style="fill:rgb(245,169,184);fill-rule:nonzero;"/>
                </g>
                <g id="g26" transform="matrix(1.25,0,0,-1.25,16.25,34.646)">
                    <path d="M4.882,10.191C6.19,10.749 7.754,11.228 9.619,11.602C14.446,12.567 21,10.788 21,2.815C21,-1.96 17.688,-3.209 13,-3.28L13,-3.283L12.558,-3.283C11.893,-3.283 11.193,-3.285 10.472,-3.283L-0.575,-3.283L-0.576,-3.281C-0.661,-3.283 -0.751,-3.283 -0.847,-3.283C-3.696,-3.283 -10.137,-3.283 -10.137,-1.407C-10.137,0.067 -6.349,4.436 -2.785,6.241C-3.538,7.111 -4,8.283 -4,9.574C-4,12.257 -2.003,14.431 0.46,14.431C2.729,14.431 4.604,12.582 4.882,10.191Z" style="fill:rgb(204,214,221);stroke:black;stroke-width:2.03px;stroke-linecap:butt;stroke-miterlimit:2;"/>
                </g>
                <g id="path44" transform="matrix(1.18199,1.22108e-17,-1.22108e-17,-1.08228,19.7869,22.4612)">
                    <g id="g42">
                        <path id="path441" serif:id="path44" d="M0,0C0,-1.788 -1.141,-3.239 -2.548,-3.239C-3.956,-3.239 -5.096,-1.788 -5.096,0C-5.096,1.788 -3.956,3.238 -2.548,3.238C-1.141,3.238 0,1.788 0,0" style="fill:rgb(245,169,184);fill-rule:nonzero;stroke:black;stroke-width:0.78px;stroke-linecap:butt;stroke-miterlimit:2;"/>
                    </g>
                </g>
                <g transform="matrix(-0.200776,-0.0470294,-0.0470294,0.200776,173.69,-324.269)">
                    <path d="M350.447,1855.54C350.447,1855.54 366.696,1851.14 372.493,1865.74" style="fill:none;stroke:black;stroke-width:9.82px;"/>
                </g>
            </g>
            <g id="Arm" transform="matrix(1.63279,-0.328001,0.274023,1.36409,-87.0604,-32.736)">
                <path d="M128.697,197.227C139.854,198.934 133.797,215.823 127.214,222.098C123.277,225.851 118.51,225.897 110.264,223.828C98.536,220.884 85.763,212.694 90.545,203.32C93.174,198.167 99.766,197.924 107.573,203.183C112.87,206.752 116.499,209.057 119.358,207.391C123.597,204.921 123.591,198.041 128.697,197.227Z" style="fill:rgb(151,151,151);stroke:black;stroke-width:3.26px;"/>
            </g>
            <g id="Body-stroke" serif:id="Body stroke" transform="matrix(1,0,0,1,-316.968,-1353.34)">
                <path d="M537.043,1444.11C560.795,1446.95 580.23,1507.87 550.251,1539.35" style="fill:none;stroke:black;stroke-width:3px;"/>
            </g>
            <g id="Body-stroke1" serif:id="Body stroke" transform="matrix(1,0,0,1,-316.968,-1353.34)">
                <path d="M539.2,1444.11C562.952,1446.95 580.23,1507.87 550.251,1539.35" style="fill:none;stroke:black;stroke-width:10px;"/>
            </g>
            <g id="Sting1" serif:id="Sting" transform="matrix(0.404212,0.0635387,-0.061572,0.3917,156.047,61.2466)">
                <path d="M191.017,52.697L238.765,34.355L230.765,91.133" style="fill:rgb(104,104,104);stroke:black;stroke-width:24.82px;"/>
            </g>
        </g>
    </g>
</svg>
