<?xml version="1.0" encoding="UTF-8" standalone="no"?>
<!DOCTYPE svg PUBLIC "-//W3C//DTD SVG 1.1//EN" "http://www.w3.org/Graphics/SVG/1.1/DTD/svg11.dtd">
<svg width="100%" height="100%" viewBox="0 0 256 256" version="1.1" xmlns="http://www.w3.org/2000/svg" xmlns:xlink="http://www.w3.org/1999/xlink" xml:space="preserve" xmlns:serif="http://www.serif.com/" style="fill-rule:evenodd;clip-rule:evenodd;stroke-linecap:round;stroke-linejoin:round;stroke-miterlimit:1.5;">
    <rect id="blobbee_fingerguns" x="-0" y="0" width="256" height="256" style="fill:none;"/>
    <clipPath id="_clip1">
        <rect x="-0" y="0" width="256" height="256"/>
    </clipPath>
    <g clip-path="url(#_clip1)">
        <path id="Wings-outline" serif:id="Wings outline" d="M156.902,59.708C129.065,62.422 97.449,41.187 84.028,5.602C68.683,-35.087 84.083,-75.347 114.432,-85.495C138.087,-93.404 166.844,-81.498 185.329,-56.266C212.177,-74.912 244.432,-77.257 265.424,-61.776C292.853,-41.548 294.933,4.366 265.843,40.638C237.208,76.342 191.253,86.226 164.254,66.316C161.555,64.325 159.104,62.114 156.902,59.708ZM163.201,43.032C165.691,47.381 169.007,51.183 173.157,54.243C194.848,70.24 231.136,59.939 254.141,31.254C277.146,2.569 278.213,-33.707 256.521,-49.704C236.599,-64.396 204.363,-56.904 181.414,-33.36C168.453,-61.92 141.479,-78.722 119.189,-71.269C95.605,-63.383 86.139,-31.311 98.063,0.309C109.988,31.928 138.817,51.196 162.402,43.311C162.67,43.221 162.936,43.128 163.201,43.032Z"/>
        <path id="Body" d="M153.948,1.873C234.775,-44.793 326.183,-39.231 357.943,14.285C389.703,67.802 349.866,149.137 269.039,195.803C188.211,242.469 96.804,236.907 65.044,183.391C33.283,129.874 73.12,48.539 153.948,1.873Z" style="fill:rgb(254,194,7);"/>
        <g id="Stripes">
            <path d="M214.839,-16.143C213.085,-14.747 341.1,-20.628 353.122,109.755C417.141,-61.844 215.475,-29.069 214.839,-16.143Z" style="fill:rgb(85,85,85);"/>
            <path d="M353.122,111.111C345.447,-14.695 217.939,-17.662 218.636,-21.398L171.119,-3.799C171.119,-3.799 325.08,-6.19 330.564,142.056L349.196,113.372" style="fill:rgb(254,194,7);"/>
            <path d="M301.943,172.58L330.298,142.056C324.914,-6.379 167.886,-8.962 167.888,-8.907L142.717,5.942C142.483,5.984 305.112,19.06 301.943,172.58Z" style="fill:rgb(85,85,85);"/>
            <path d="M144.846,6.056L117.696,27.238C117.696,27.238 273.776,42.777 272.117,194.288L301.428,174.64C312.302,24.356 143.194,7.326 140.795,9.216" style="fill:rgb(254,194,7);"/>
            <path d="M111.865,30.126L91.509,51.766C91.509,51.766 235.189,53.063 238.466,209.312L272.117,194.288C277.858,38.077 116.53,31.787 111.865,30.126Z" style="fill:rgb(85,85,85);"/>
        </g>
        <path id="Body-outline" serif:id="Body outline" d="M153.948,1.873C234.775,-44.793 326.183,-39.231 357.943,14.285C389.703,67.802 349.866,149.137 269.039,195.803C188.211,242.469 96.804,236.907 65.044,183.391C33.283,129.874 73.12,48.539 153.948,1.873Z" style="fill:none;stroke:black;stroke-width:15px;"/>
        <g id="Wings">
            <path id="Back-wing" serif:id="Back wing" d="M119.189,-71.269C142.773,-79.155 171.602,-59.886 183.527,-28.267C195.452,3.352 185.986,35.425 162.402,43.311C138.817,51.196 109.988,31.928 98.063,0.309C86.139,-31.311 95.605,-63.383 119.189,-71.269Z" style="fill:rgb(167,167,167);"/>
            <path id="Front-wing" serif:id="Front wing" d="M256.521,-49.704C278.213,-33.707 277.146,2.569 254.141,31.254C231.136,59.939 194.848,70.24 173.157,54.243C151.465,38.247 152.532,1.971 175.537,-26.714C198.542,-55.399 234.83,-65.7 256.521,-49.704Z" style="fill:rgb(195,195,195);"/>
        </g>
        <g id="Face">
            <path id="Mouth" d="M92.459,165.613L103.234,183.73L117.755,165.645L135.742,183.68L157.169,165.666" style="fill:none;stroke:black;stroke-width:10px;"/>
            <g id="Eyes">
                <path id="Right-eye" serif:id="Right eye" d="M141.198,130.242C141.198,130.242 149.58,115.783 167.886,122.523" style="fill:none;stroke:black;stroke-width:12px;"/>
                <path id="Left-eye" serif:id="Left eye" d="M111.056,123.995L111.056,131.941C111.056,140.288 104.279,147.065 95.932,147.065C87.584,147.065 80.807,140.288 80.807,131.941L80.807,123.995C80.807,115.647 87.584,108.871 95.932,108.871C104.279,108.871 111.056,115.647 111.056,123.995Z"/>
            </g>
        </g>
        <path id="Right-hand" serif:id="Right hand" d="M180.244,236.18L180.244,193.256C180.244,189.627 177.298,186.68 173.669,186.68C170.04,186.68 167.094,189.627 167.094,193.256L167.094,205.146L113.407,205.146C109.863,205.146 106.986,208.023 106.986,211.567C106.986,215.111 109.863,217.988 113.407,217.988L140.163,217.988L140.163,236.18C140.163,240.88 143.979,244.696 148.679,244.696L171.728,244.696C176.428,244.696 180.244,240.88 180.244,236.18Z" style="fill:rgb(151,151,151);"/>
        <path d="M190.244,236.18C190.244,246.399 181.947,254.696 171.728,254.696L148.679,254.696C138.46,254.696 130.163,246.399 130.163,236.18L130.163,227.988L113.407,227.988C104.344,227.988 96.986,220.63 96.986,211.567C96.986,202.504 104.344,195.146 113.407,195.146L157.094,195.146L157.094,193.256C157.094,184.107 164.521,176.68 173.669,176.68C182.817,176.68 190.244,184.107 190.244,193.256L190.244,236.18ZM180.244,236.18L180.244,193.256C180.244,189.627 177.298,186.68 173.669,186.68C170.04,186.68 167.094,189.627 167.094,193.256L167.094,205.146L113.407,205.146C109.863,205.146 106.986,208.023 106.986,211.567C106.986,215.111 109.863,217.988 113.407,217.988L140.163,217.988L140.163,236.18C140.163,240.88 143.979,244.696 148.679,244.696L171.728,244.696C176.428,244.696 180.244,240.88 180.244,236.18Z"/>
        <path id="Left-hand" serif:id="Left hand" d="M87.726,236.18L87.726,193.256C87.726,189.627 84.78,186.68 81.15,186.68C77.521,186.68 74.575,189.627 74.575,193.256L74.575,205.146L20.888,205.146C17.345,205.146 14.468,208.023 14.468,211.567C14.468,215.111 17.345,217.988 20.888,217.988L47.644,217.988L47.644,236.18C47.644,240.88 51.46,244.696 56.161,244.696L79.209,244.696C83.91,244.696 87.726,240.88 87.726,236.18Z" style="fill:rgb(151,151,151);"/>
        <path d="M97.726,236.18C97.726,246.399 89.429,254.696 79.209,254.696L56.161,254.696C45.941,254.696 37.644,246.399 37.644,236.18L37.644,227.988L20.888,227.988C11.826,227.988 4.468,220.63 4.468,211.567C4.468,202.504 11.826,195.146 20.888,195.146L64.575,195.146L64.575,193.256C64.575,184.107 72.002,176.68 81.15,176.68C90.299,176.68 97.726,184.107 97.726,193.256L97.726,236.18ZM87.726,236.18L87.726,193.256C87.726,189.627 84.78,186.68 81.15,186.68C77.521,186.68 74.575,189.627 74.575,193.256L74.575,205.146L20.888,205.146C17.345,205.146 14.468,208.023 14.468,211.567C14.468,215.111 17.345,217.988 20.888,217.988L47.644,217.988L47.644,236.18C47.644,240.88 51.46,244.696 56.161,244.696L79.209,244.696C83.91,244.696 87.726,240.88 87.726,236.18Z"/>
    </g>
</svg>
