<?xml version="1.0" encoding="UTF-8" standalone="no"?>
<!DOCTYPE svg PUBLIC "-//W3C//DTD SVG 1.1//EN" "http://www.w3.org/Graphics/SVG/1.1/DTD/svg11.dtd">
<svg width="100%" height="100%" viewBox="0 0 256 256" version="1.1" xmlns="http://www.w3.org/2000/svg" xmlns:xlink="http://www.w3.org/1999/xlink" xml:space="preserve" xmlns:serif="http://www.serif.com/" style="fill-rule:evenodd;clip-rule:evenodd;stroke-linecap:round;stroke-linejoin:round;stroke-miterlimit:1.5;">
    <rect id="blobbee_lego" x="-0" y="0" width="256" height="256" style="fill:none;"/>
    <clipPath id="_clip1">
        <rect x="-0" y="0" width="256" height="256"/>
    </clipPath>
    <g clip-path="url(#_clip1)">
        <path id="Wings-outline" serif:id="Wings outline" d="M130.856,59.756C103.019,62.47 71.403,41.235 57.982,5.65C42.637,-35.039 58.037,-75.299 88.386,-85.447C112.041,-93.356 140.798,-81.45 159.283,-56.218C186.131,-74.864 218.386,-77.209 239.378,-61.728C266.807,-41.5 268.887,4.414 239.797,40.686C211.162,76.39 165.207,86.274 138.208,66.364C135.509,64.373 133.058,62.162 130.856,59.756ZM137.155,43.08C139.645,47.429 142.961,51.231 147.111,54.291C168.802,70.288 205.09,59.987 228.095,31.302C251.1,2.617 252.167,-33.659 230.475,-49.656C210.553,-64.348 178.317,-56.856 155.368,-33.312C142.407,-61.872 115.433,-78.674 93.143,-71.221C69.559,-63.336 60.093,-31.263 72.017,0.357C83.942,31.976 112.771,51.244 136.356,43.359C136.624,43.269 136.89,43.176 137.155,43.08Z"/>
        <path id="Body" d="M127.902,1.921C208.729,-44.745 300.137,-39.183 331.897,14.333C363.657,67.85 323.82,149.185 242.993,195.851C162.165,242.517 70.758,236.955 38.998,183.439C7.237,129.922 47.074,48.587 127.902,1.921Z" style="fill:rgb(254,194,7);"/>
        <g id="Stripes">
            <path d="M188.793,-16.095C187.039,-14.699 315.054,-20.58 327.076,109.803C391.095,-61.796 189.429,-29.021 188.793,-16.095Z" style="fill:rgb(85,85,85);"/>
            <path d="M327.076,111.159C319.401,-14.647 191.893,-17.614 192.59,-21.35L145.073,-3.751C145.073,-3.751 299.034,-6.142 304.518,142.104L323.15,113.42" style="fill:rgb(254,194,7);"/>
            <path d="M275.897,172.628L304.252,142.104C298.868,-6.332 141.84,-8.914 141.842,-8.859L116.671,5.99C116.437,6.032 279.066,19.108 275.897,172.628Z" style="fill:rgb(85,85,85);"/>
            <path d="M118.8,6.104L91.65,27.286C91.65,27.286 247.73,42.825 246.071,194.336L275.383,174.688C286.256,24.404 117.148,7.374 114.749,9.264" style="fill:rgb(254,194,7);"/>
            <path d="M85.819,30.174L65.463,51.814C65.463,51.814 209.143,53.111 212.42,209.36L246.071,194.336C251.812,38.125 90.484,31.835 85.819,30.174Z" style="fill:rgb(85,85,85);"/>
        </g>
        <path id="Body-outline" serif:id="Body outline" d="M127.902,1.921C208.729,-44.745 300.137,-39.183 331.897,14.333C363.657,67.85 323.82,149.185 242.993,195.851C162.165,242.517 70.758,236.955 38.998,183.439C7.237,129.922 47.074,48.587 127.902,1.921Z" style="fill:none;stroke:black;stroke-width:15px;"/>
        <g id="Wings">
            <path id="Back-wing" serif:id="Back wing" d="M93.143,-71.221C116.727,-79.107 145.556,-59.838 157.481,-28.219C169.406,3.4 159.94,35.473 136.356,43.359C112.771,51.244 83.942,31.976 72.017,0.357C60.093,-31.263 69.559,-63.336 93.143,-71.221Z" style="fill:rgb(167,167,167);"/>
            <path id="Front-wing" serif:id="Front wing" d="M230.475,-49.656C252.167,-33.659 251.1,2.617 228.095,31.302C205.09,59.987 168.802,70.288 147.111,54.291C125.419,38.295 126.486,2.019 149.491,-26.666C172.496,-55.351 208.784,-65.652 230.475,-49.656Z" style="fill:rgb(195,195,195);"/>
        </g>
        <g id="Eyes">
            <g id="Right-eye" serif:id="Right eye">
                <circle id="Eye-white" serif:id="Eye white" cx="127.189" cy="128" r="23.779" style="fill:white;"/>
                <circle id="Pupil" cx="124.127" cy="124.976" r="20.392"/>
                <path id="Eye-reflection-top" serif:id="Eye reflection top" d="M113.113,114.122C117.141,110.094 122.94,109.354 126.055,112.469C129.171,115.585 128.43,121.384 124.403,125.412C120.375,129.44 114.576,130.18 111.46,127.065C108.344,123.949 109.085,118.15 113.113,114.122Z" style="fill:white;"/>
                <path id="Eye-reflection-bottom" serif:id="Eye reflection bottom" d="M134.052,129.888C134.052,129.888 132.852,134.024 128.61,134.929" style="fill:none;stroke:rgb(151,151,151);stroke-width:8px;"/>
            </g>
            <g id="Left-eye" serif:id="Left eye">
                <circle id="Eye-white1" serif:id="Eye white" cx="66.602" cy="128" r="23.779" style="fill:white;"/>
                <circle id="Pupil1" serif:id="Pupil" cx="63.541" cy="124.976" r="20.392"/>
                <path id="Eye-reflection-top1" serif:id="Eye reflection top" d="M52.526,114.122C56.554,110.094 62.354,109.354 65.469,112.469C68.585,115.585 67.844,121.384 63.816,125.412C59.789,129.44 53.989,130.18 50.874,127.065C47.758,123.949 48.499,118.15 52.526,114.122Z" style="fill:white;"/>
                <path id="Eye-reflection-bottom1" serif:id="Eye reflection bottom" d="M73.465,129.888C73.465,129.888 72.266,134.024 68.024,134.929" style="fill:none;stroke:rgb(151,151,151);stroke-width:8px;"/>
            </g>
        </g>
        <g id="Brick">
            <path id="Brick-outline" serif:id="Brick outline" d="M146.928,151.162L166.884,158.714L166.75,158.765L166.75,215.009L95.496,242.027L24.243,215.009L24.243,158.765L24.109,158.714L44.065,151.162C43.641,150.52 43.415,149.843 43.415,149.143C43.415,145.044 51.194,141.716 60.775,141.716C63.158,141.716 65.429,141.921 67.496,142.294L78.708,138.05C78.335,137.445 78.136,136.809 78.136,136.154C78.136,132.055 85.915,128.727 95.496,128.727C105.078,128.727 112.857,132.055 112.857,136.154C112.857,136.809 112.658,137.445 112.285,138.05L123.496,142.294C125.564,141.921 127.835,141.716 130.217,141.716C139.799,141.716 147.578,145.044 147.578,149.143C147.578,149.843 147.351,150.52 146.928,151.162Z" style="fill:none;stroke:black;stroke-width:11px;"/>
            <path id="Front-left-face" serif:id="Front left face" d="M95.496,185.732L24.243,158.714L24.243,215.009L95.496,242.027L95.496,185.732Z" style="fill:rgb(101,23,129);"/>
            <path id="Front-right-face" serif:id="Front right face" d="M95.496,185.732L166.75,158.714L166.75,215.009L95.496,242.027L95.496,185.732Z" style="fill:rgb(150,35,192);"/>
            <path id="Top-face" serif:id="Top face" d="M95.496,131.697L166.884,158.714L95.496,185.732L24.109,158.714L95.496,131.697Z" style="fill:rgb(184,72,231);"/>
            <g id="Top-stud" serif:id="Top stud">
                <path id="Shading" d="M112.857,145.725C112.857,149.824 105.078,153.152 95.496,153.152C85.915,153.152 78.136,149.824 78.136,145.725L78.136,136.154L112.857,136.154L112.857,145.725Z" style="fill:rgb(101,23,129);"/>
                <ellipse id="Stud-top" serif:id="Stud top" cx="95.496" cy="136.154" rx="17.361" ry="7.427" style="fill:rgb(171,21,234);"/>
            </g>
            <g id="Left-stud" serif:id="Left stud">
                <path id="Shading1" serif:id="Shading" d="M78.136,158.714C78.136,162.813 70.357,166.141 60.775,166.141C51.194,166.141 43.415,162.813 43.415,158.714L43.415,149.143L78.136,149.143L78.136,158.714Z" style="fill:rgb(101,23,129);"/>
                <ellipse id="Stud-top1" serif:id="Stud top" cx="60.775" cy="149.143" rx="17.361" ry="7.427" style="fill:rgb(171,21,234);"/>
            </g>
            <g id="Right-stud" serif:id="Right stud">
                <path id="Shading2" serif:id="Shading" d="M147.578,158.714C147.578,162.813 139.799,166.141 130.217,166.141C120.636,166.141 112.857,162.813 112.857,158.714L112.857,149.143L147.578,149.143L147.578,158.714Z" style="fill:rgb(101,23,129);"/>
                <ellipse id="Stud-top2" serif:id="Stud top" cx="130.217" cy="149.143" rx="17.361" ry="7.427" style="fill:rgb(171,21,234);"/>
            </g>
            <g id="Bottom-stud" serif:id="Bottom stud">
                <path id="Shading3" serif:id="Shading" d="M112.857,171.403C112.857,175.502 105.078,178.83 95.496,178.83C85.915,178.83 78.136,175.502 78.136,171.403L78.136,161.832L112.857,161.832L112.857,171.403Z" style="fill:rgb(101,23,129);"/>
                <ellipse id="Stud-top3" serif:id="Stud top" cx="95.496" cy="161.507" rx="17.361" ry="7.427" style="fill:rgb(171,21,234);"/>
            </g>
        </g>
        <g id="Left-hand" serif:id="Left hand">
            <path id="Outline" d="M31.899,188.359L12.007,208.251L38.689,234.932L58.58,215.04C65.943,207.677 65.943,195.722 58.58,188.359C51.217,180.996 39.262,180.996 31.899,188.359Z" style="fill:rgb(151,151,151);"/>
            <path d="M24.828,181.288C36.093,170.022 54.386,170.022 65.651,181.288C76.917,192.553 76.917,210.846 65.651,222.111L45.76,242.003C41.854,245.909 35.523,245.909 31.617,242.003L4.936,215.322C1.031,211.417 1.031,205.085 4.936,201.18L24.828,181.288ZM31.899,188.359L12.007,208.251L38.689,234.932L58.58,215.04C65.943,207.677 65.943,195.722 58.58,188.359C51.217,180.996 39.262,180.996 31.899,188.359Z"/>
            <path id="Fill" d="M31.899,188.359L4.926,215.332L31.607,242.013L58.58,215.04C65.943,207.677 65.943,195.722 58.58,188.359C51.217,180.996 39.262,180.996 31.899,188.359Z" style="fill:rgb(151,151,151);"/>
        </g>
        <path id="Right-arm" serif:id="Right arm" d="M158.906,239.434L134.294,215.013C126.926,207.645 126.926,195.682 134.294,188.314C141.662,180.947 153.625,180.947 160.993,188.314L175.221,202.543L191.221,186.543C196.227,181.537 204.355,181.537 209.361,186.543C214.367,191.549 214.367,199.677 209.361,204.683L175.728,238.316C171.14,242.904 163.922,243.277 158.906,239.434Z" style="fill:rgb(151,151,151);"/>
        <path d="M151.863,246.532L127.251,222.112C127.241,222.103 127.232,222.093 127.223,222.084C115.953,210.814 115.953,192.514 127.223,181.243C138.493,169.973 156.793,169.973 168.064,181.243C168.064,181.243 175.221,188.401 175.221,188.401L184.15,179.472C193.059,170.564 207.524,170.564 216.432,179.472C225.341,188.38 225.341,202.846 216.432,211.754L182.799,245.387C174.623,253.563 161.761,254.22 152.824,247.371C152.486,247.113 152.165,246.832 151.863,246.532ZM158.906,239.434C163.922,243.277 171.14,242.904 175.728,238.316L209.361,204.683C214.367,199.677 214.367,191.549 209.361,186.543C204.355,181.537 196.227,181.537 191.221,186.543L175.221,202.543L160.993,188.314C153.625,180.947 141.662,180.947 134.294,188.314C126.926,195.682 126.926,207.645 134.294,215.013L158.906,239.434Z"/>
    </g>
</svg>
