<?xml version="1.0" encoding="UTF-8" standalone="no"?>
<!DOCTYPE svg PUBLIC "-//W3C//DTD SVG 1.1//EN" "http://www.w3.org/Graphics/SVG/1.1/DTD/svg11.dtd">
<svg width="100%" height="100%" viewBox="0 0 256 256" version="1.1" xmlns="http://www.w3.org/2000/svg" xmlns:xlink="http://www.w3.org/1999/xlink" xml:space="preserve" xmlns:serif="http://www.serif.com/" style="fill-rule:evenodd;clip-rule:evenodd;stroke-linejoin:round;stroke-miterlimit:2;">
    <g transform="matrix(1,0,0,1,-281,-1686)">
        <g id="blobbee_train_wagon" transform="matrix(1,0,0,1,281,1686)">
            <rect x="0" y="0" width="256" height="256" style="fill:none;"/>
            <g transform="matrix(1,0,0,1,-562,-1686)">
                <path d="M767.572,1909.67C768.232,1911.8 768.587,1914.06 768.587,1916.4C768.587,1928.95 758.4,1939.14 745.853,1939.14C733.305,1939.14 723.118,1928.95 723.118,1916.4C723.118,1914.06 723.473,1911.8 724.134,1909.67L654.79,1909.67C655.45,1911.8 655.806,1914.06 655.806,1916.4C655.806,1928.95 645.619,1939.14 633.071,1939.14C620.523,1939.14 610.336,1928.95 610.336,1916.4C610.336,1914.06 610.692,1911.8 611.352,1909.67L582.245,1909.67C577.827,1909.67 574.245,1906.09 574.245,1901.67L574.245,1823.87C574.245,1819.45 577.827,1815.87 582.245,1815.87L797.755,1815.87C802.173,1815.87 805.755,1819.45 805.755,1823.87L805.755,1901.67C805.755,1906.09 802.173,1909.67 797.755,1909.67L767.572,1909.67ZM745.853,1901.67C737.72,1901.67 731.118,1908.27 731.118,1916.4C731.118,1924.53 737.72,1931.14 745.853,1931.14C753.985,1931.14 760.587,1924.53 760.587,1916.4C760.587,1908.27 753.985,1901.67 745.853,1901.67ZM797.755,1901.67L797.755,1823.87L582.245,1823.87L582.245,1901.67L797.755,1901.67ZM633.071,1901.67C624.939,1901.67 618.336,1908.27 618.336,1916.4C618.336,1924.53 624.939,1931.14 633.071,1931.14C641.203,1931.14 647.806,1924.53 647.806,1916.4C647.806,1908.27 641.203,1901.67 633.071,1901.67Z"/>
                <path d="M770.134,1911.67C770.431,1913.2 770.587,1914.78 770.587,1916.4C770.587,1930.05 759.504,1941.14 745.853,1941.14C732.201,1941.14 721.118,1930.05 721.118,1916.4C721.118,1914.78 721.274,1913.2 721.571,1911.67L657.352,1911.67C657.65,1913.2 657.806,1914.78 657.806,1916.4C657.806,1930.05 646.723,1941.14 633.071,1941.14C619.42,1941.14 608.336,1930.05 608.336,1916.4C608.336,1914.78 608.492,1913.2 608.79,1911.67L582.245,1911.67C576.722,1911.67 572.245,1907.19 572.245,1901.67L572.245,1823.87C572.245,1818.35 576.722,1813.87 582.245,1813.87L797.755,1813.87C803.278,1813.87 807.755,1818.35 807.755,1823.87L807.755,1901.67C807.755,1907.19 803.278,1911.67 797.755,1911.67L770.134,1911.67ZM797.755,1901.67L797.755,1823.87L582.245,1823.87L582.245,1901.67L797.755,1901.67ZM633.071,1901.67C624.939,1901.67 618.336,1908.27 618.336,1916.4C618.336,1924.53 624.939,1931.14 633.071,1931.14C641.203,1931.14 647.806,1924.53 647.806,1916.4C647.806,1908.27 641.203,1901.67 633.071,1901.67ZM745.853,1901.67C737.72,1901.67 731.118,1908.27 731.118,1916.4C731.118,1924.53 737.72,1931.14 745.853,1931.14C753.985,1931.14 760.587,1924.53 760.587,1916.4C760.587,1908.27 753.985,1901.67 745.853,1901.67Z"/>
            </g>
            <g transform="matrix(1,0,0,1,14.2955,-1.48507)">
                <g transform="matrix(1.01984,0,0,1.01984,-575.219,-1720.85)">
                    <path d="M619.698,1892.45C632.002,1892.45 641.991,1902.44 641.991,1914.74C641.991,1927.04 632.002,1937.03 619.698,1937.03C607.395,1937.03 597.406,1927.04 597.406,1914.74C597.406,1902.44 607.395,1892.45 619.698,1892.45ZM619.698,1900.29C611.724,1900.29 605.25,1906.77 605.25,1914.74C605.25,1922.71 611.724,1929.19 619.698,1929.19C627.672,1929.19 634.146,1922.71 634.146,1914.74C634.146,1906.77 627.672,1900.29 619.698,1900.29Z"/>
                    <circle cx="619.698" cy="1914.74" r="14.448" style="fill:none;stroke:rgb(212,44,0);stroke-width:4.9px;"/>
                </g>
                <g transform="matrix(1,0,0,1,-562,-1686)">
                    <path d="M618.776,1903.15L618.776,1932.62" style="fill:none;stroke:rgb(212,44,0);stroke-width:5px;stroke-linecap:round;stroke-miterlimit:1.5;"/>
                </g>
                <g transform="matrix(0.5,-0.866025,0.866025,0.5,-1913.55,-191.182)">
                    <path d="M618.776,1903.15L618.776,1932.62" style="fill:none;stroke:rgb(212,44,0);stroke-width:5px;stroke-linecap:round;stroke-miterlimit:1.5;"/>
                </g>
                <g transform="matrix(-0.5,-0.866025,0.866025,-0.5,-1294.77,1726.7)">
                    <path d="M618.776,1903.15L618.776,1932.62" style="fill:none;stroke:rgb(212,44,0);stroke-width:5px;stroke-linecap:round;stroke-miterlimit:1.5;"/>
                </g>
            </g>
            <g transform="matrix(1,0,0,1,127.077,-1.48507)">
                <g transform="matrix(1.01984,0,0,1.01984,-575.219,-1720.85)">
                    <path d="M619.698,1892.45C632.002,1892.45 641.991,1902.44 641.991,1914.74C641.991,1927.04 632.002,1937.03 619.698,1937.03C607.395,1937.03 597.406,1927.04 597.406,1914.74C597.406,1902.44 607.395,1892.45 619.698,1892.45ZM619.698,1900.29C611.724,1900.29 605.25,1906.77 605.25,1914.74C605.25,1922.71 611.724,1929.19 619.698,1929.19C627.672,1929.19 634.146,1922.71 634.146,1914.74C634.146,1906.77 627.672,1900.29 619.698,1900.29Z"/>
                    <circle cx="619.698" cy="1914.74" r="14.448" style="fill:none;stroke:rgb(212,44,0);stroke-width:4.9px;"/>
                </g>
                <g transform="matrix(1,0,0,1,-562,-1686)">
                    <path d="M618.776,1903.15L618.776,1932.62" style="fill:none;stroke:rgb(212,44,0);stroke-width:5px;stroke-linecap:round;stroke-miterlimit:1.5;"/>
                </g>
                <g transform="matrix(0.5,-0.866025,0.866025,0.5,-1913.55,-191.182)">
                    <path d="M618.776,1903.15L618.776,1932.62" style="fill:none;stroke:rgb(212,44,0);stroke-width:5px;stroke-linecap:round;stroke-miterlimit:1.5;"/>
                </g>
                <g transform="matrix(-0.5,-0.866025,0.866025,-0.5,-1294.77,1726.7)">
                    <path d="M618.776,1903.15L618.776,1932.62" style="fill:none;stroke:rgb(212,44,0);stroke-width:5px;stroke-linecap:round;stroke-miterlimit:1.5;"/>
                </g>
            </g>
            <g transform="matrix(1,0,0,1,-564.007,-1677.76)">
                <path d="M582.245,1821.64C582.361,1821.65 582.476,1821.67 582.59,1821.7C582.512,1821.23 582.471,1820.76 582.471,1820.28C582.471,1815.6 586.268,1811.8 590.943,1811.8C591.064,1811.8 591.183,1811.81 591.302,1811.81C590.115,1810.17 589.416,1808.15 589.416,1805.98C589.416,1800.48 593.88,1796.01 599.38,1796.01C601.243,1796.01 602.987,1796.53 604.479,1797.42C604.634,1796.98 604.825,1796.55 605.051,1796.14C604.655,1795.08 604.438,1793.93 604.438,1792.74C604.438,1787.34 608.819,1782.96 614.215,1782.96C617.749,1782.96 620.848,1784.84 622.566,1787.65C623.189,1787.53 623.833,1787.46 624.493,1787.46C624.805,1787.46 625.114,1787.48 625.418,1787.5C625.593,1787.48 625.769,1787.46 625.946,1787.45C627.571,1784.15 630.968,1781.88 634.892,1781.88C636.755,1781.88 638.499,1782.39 639.991,1783.28C641.108,1780.09 644.147,1777.8 647.718,1777.8C649.007,1777.8 650.226,1778.1 651.311,1778.63C652.935,1775.48 656.221,1773.32 660.005,1773.32C662.021,1773.32 663.895,1773.93 665.452,1774.98L665.454,1774.98C667.317,1774.98 669.061,1775.49 670.553,1776.38C671.67,1773.19 674.709,1770.9 678.28,1770.9C679.568,1770.9 680.788,1771.2 681.873,1771.73C683.497,1768.58 686.783,1766.43 690.567,1766.43C691.548,1766.43 692.496,1766.57 693.39,1766.84C694.424,1762.55 698.29,1759.36 702.895,1759.36C706.679,1759.36 709.965,1761.52 711.589,1764.67C712.674,1764.13 713.893,1763.84 715.182,1763.84C718.753,1763.84 721.792,1766.13 722.909,1769.32C724.401,1768.43 726.145,1767.92 728.008,1767.92C732.864,1767.92 736.914,1771.4 737.794,1776C739.547,1774.34 741.912,1773.32 744.513,1773.32C748.298,1773.32 751.583,1775.48 753.207,1778.63C754.292,1778.1 755.512,1777.8 756.8,1777.8C760.371,1777.8 763.41,1780.09 764.527,1783.28C766.019,1782.39 767.763,1781.88 769.626,1781.88C775.125,1781.88 779.59,1786.34 779.59,1791.84C779.59,1794.02 778.89,1796.03 777.704,1797.67C777.822,1797.67 777.942,1797.67 778.062,1797.67C782.738,1797.67 786.534,1801.46 786.534,1806.14C786.534,1806.62 786.494,1807.1 786.415,1807.56C786.945,1807.46 787.491,1807.41 788.049,1807.41C792.861,1807.41 796.767,1811.31 796.767,1816.12C796.767,1818.39 791.752,1833.57 790.332,1835.12C790.332,1835.12 781.424,1837.84 770.033,1839.79C769.101,1842.28 768.253,1844.25 767.789,1844.75C767.789,1844.75 721.214,1858.97 704.872,1845.77L704.547,1845.48C695.312,1848.01 663.311,1855.87 647.532,1847.91C646.176,1848.2 644.742,1848.5 643.249,1848.79L641.591,1850.27C627.991,1861.26 593.453,1853.25 582.245,1850.26L582.245,1821.64Z" style="fill:rgb(31,30,30);stroke:black;stroke-width:3px;stroke-linecap:round;stroke-miterlimit:1.5;"/>
            </g>
            <g id="Bee" transform="matrix(0.434324,0.434324,-0.434324,0.434324,131.269,0.388492)">
                <g id="Body" transform="matrix(0.994109,-0.573949,0.761422,1.28301,-120.17,92.6047)">
                    <ellipse cx="168.926" cy="110.515" rx="107.942" ry="55.376" style="fill:rgb(104,104,104);stroke:black;stroke-width:12.16px;stroke-linecap:round;stroke-miterlimit:1.5;"/>
                </g>
                <g id="Wings-outline" serif:id="Wings outline" transform="matrix(0.959562,0.127262,-0.127262,0.959562,7.56883,-6.44254)">
                    <g transform="matrix(1.17688,-0.575088,0.651434,1.21399,-55.8934,35.953)">
                        <path d="M87.621,9.333C107.672,9.333 126.021,28.821 126.021,54.727C126.021,81.19 107.128,101.049 86.645,101.049C66.594,101.049 48.245,81.56 48.245,55.654C48.245,29.191 67.138,9.333 87.621,9.333ZM87.133,21.55C72.762,21.55 61.095,36.624 61.095,55.191C61.095,73.758 72.762,88.832 87.133,88.832C101.504,88.832 113.171,73.758 113.171,55.191C113.171,36.624 101.504,21.55 87.133,21.55Z"/>
                    </g>
                    <g transform="matrix(1.24343,0.685066,-0.776012,1.28263,74.2693,-72.8119)">
                        <path d="M86.653,10.321C106.659,10.321 125.028,29.797 125.028,55.646C125.028,80.948 107.197,100.06 87.613,100.06C67.607,100.06 49.237,80.584 49.237,54.736C49.237,29.434 67.069,10.321 86.653,10.321ZM87.133,21.55C72.762,21.55 61.095,36.624 61.095,55.191C61.095,73.758 72.762,88.832 87.133,88.832C101.504,88.832 113.171,73.758 113.171,55.191C113.171,36.624 101.504,21.55 87.133,21.55Z"/>
                    </g>
                </g>
                <g id="Stripes" transform="matrix(1,0,0,1,4.4273,10.012)">
                    <g transform="matrix(1,-7.43708e-18,-7.43708e-18,1,92.3462,-63.8411)">
                        <path d="M37.588,107.021C36.302,108.044 130.102,103.736 138.911,199.269C185.818,73.536 38.054,97.55 37.588,107.021Z" style="fill:rgb(254,194,7);stroke:black;stroke-width:4.88px;stroke-linecap:round;stroke-miterlimit:1.5;"/>
                    </g>
                    <g transform="matrix(1,-7.43708e-18,-7.43708e-18,1,73.4912,-52.6421)">
                        <path d="M157.766,189.064C152.141,96.884 58.714,94.709 59.225,91.972L24.408,104.867C24.408,104.867 137.219,103.115 141.236,211.738L154.889,190.72" style="fill:rgb(104,104,104);stroke:black;stroke-width:4.88px;stroke-linecap:round;stroke-miterlimit:1.5;"/>
                    </g>
                    <g transform="matrix(1,-7.43708e-18,-7.43708e-18,1,55.5726,-39.8214)">
                        <path d="M138.184,221.282L158.96,198.917C155.015,90.156 39.958,88.264 39.959,88.304L21.516,99.184C21.345,99.215 140.506,108.796 138.184,221.282Z" style="fill:rgb(254,194,7);stroke:black;stroke-width:4.88px;stroke-linecap:round;stroke-miterlimit:1.5;"/>
                    </g>
                    <g transform="matrix(1,-7.43708e-18,-7.43708e-18,1,25.9786,-19.0024)">
                        <path d="M52.67,78.448L32.777,93.969C32.777,93.969 147.14,105.355 145.924,216.369L167.401,201.973C175.368,91.857 51.46,79.379 49.702,80.764" style="fill:rgb(104,104,104);stroke:black;stroke-width:4.88px;stroke-linecap:round;stroke-miterlimit:1.5;"/>
                    </g>
                    <g transform="matrix(1,-7.43708e-18,-7.43708e-18,1,-0.424026,-0.546032)">
                        <path d="M54.907,77.629L39.992,93.485C39.992,93.485 145.269,94.435 147.67,208.921L172.327,197.913C176.533,83.454 58.325,78.845 54.907,77.629Z" style="fill:rgb(254,194,7);stroke:black;stroke-width:4.88px;stroke-linecap:round;stroke-miterlimit:1.5;"/>
                    </g>
                </g>
                <g id="Body-outline" serif:id="Body outline" transform="matrix(0.994109,-0.573949,0.761422,1.28301,-120.17,92.6047)">
                    <ellipse cx="168.926" cy="110.515" rx="107.942" ry="55.376" style="fill:none;stroke:black;stroke-width:12.16px;stroke-linecap:round;stroke-miterlimit:1.5;"/>
                </g>
                <g id="Wings" transform="matrix(0.959562,0.127262,-0.127262,0.959562,7.56883,-6.44254)">
                    <g id="Back-wing" serif:id="Back wing" transform="matrix(1.17688,-0.575088,0.651434,1.21399,-55.8934,35.953)">
                        <ellipse cx="87.133" cy="55.191" rx="26.038" ry="33.641" style="fill:rgb(195,195,195);stroke:black;stroke-width:3.68px;stroke-linecap:round;stroke-miterlimit:1.5;"/>
                    </g>
                    <g id="Front-wing" serif:id="Front wing" transform="matrix(0.946806,0,0,0.999012,5.86837,0.313874)">
                        <g id="Front-wing-main" serif:id="Front wing main" transform="matrix(1.31328,0.685743,-0.81961,1.2839,72.2439,-73.1981)">
                            <ellipse cx="87.133" cy="55.191" rx="26.038" ry="33.641" style="fill:rgb(195,195,195);stroke:black;stroke-width:3.53px;stroke-linecap:round;stroke-miterlimit:1.5;"/>
                        </g>
                        <path id="Front-wing-line" serif:id="Front wing line" d="M119.334,101.013C123.249,82.03 129.669,61.104 148.451,47.276" style="fill:none;stroke:black;stroke-width:5.18px;stroke-linecap:round;stroke-miterlimit:1.5;"/>
                    </g>
                </g>
                <g id="Face" transform="matrix(1,0,0,1,-3.8947,1.36785)">
                    <g id="Mouth" transform="matrix(0.658566,-1.17246e-18,-3.87825e-17,0.848272,3.90699,42.2986)">
                        <path d="M79.429,171.352L92.31,191.237L108.219,172.744L128,191.722L152.351,171.648" style="fill:none;stroke:black;stroke-width:23.58px;stroke-linecap:round;"/>
                        <path d="M79.429,171.352L92.31,191.237L108.219,172.744L128,191.722L152.351,171.648" style="fill:none;stroke:rgb(235,235,235);stroke-width:10.72px;stroke-linecap:round;stroke-miterlimit:1.5;"/>
                    </g>
                    <g id="Eyes" transform="matrix(0.856324,0.124954,-0.124954,0.856324,35.143,7.15355)">
                        <g id="Right-eye" serif:id="Right eye" transform="matrix(1.56791,-0.228787,0.215752,1.47858,-150.38,17.2361)">
                            <path d="M154.615,113.255C154.615,107.493 150.203,102.815 144.77,102.815C139.336,102.815 134.924,107.493 134.924,113.255L134.924,120.6C134.924,126.362 139.336,131.04 144.77,131.04C150.203,131.04 154.615,126.362 154.615,120.6L154.615,113.255Z" style="fill:rgb(235,235,235);stroke:black;stroke-width:3.66px;stroke-linecap:round;stroke-miterlimit:1.5;"/>
                        </g>
                        <g id="Right-eye1" serif:id="Right eye" transform="matrix(0.639006,-0.0932429,0.104024,0.712889,-4.68472,94.5194)">
                            <path d="M154.615,111.64C154.615,106.77 150.203,102.815 144.77,102.815C139.336,102.815 134.924,106.77 134.924,111.64L134.924,122.216C134.924,127.086 139.336,131.04 144.77,131.04C150.203,131.04 154.615,127.086 154.615,122.216L154.615,111.64Z"/>
                        </g>
                        <g id="Left-eye" serif:id="Left eye" transform="matrix(1.56791,-0.228787,0.215752,1.47858,-201.077,24.6337)">
                            <path d="M154.615,113.255C154.615,107.493 150.203,102.815 144.77,102.815C139.336,102.815 134.924,107.493 134.924,113.255L134.924,120.6C134.924,126.362 139.336,131.04 144.77,131.04C150.203,131.04 154.615,126.362 154.615,120.6L154.615,113.255Z" style="fill:rgb(235,235,235);stroke:black;stroke-width:3.66px;stroke-linecap:round;stroke-miterlimit:1.5;"/>
                        </g>
                        <g id="Right-eye2" serif:id="Right eye" transform="matrix(0.639006,-0.0932429,0.104024,0.712889,-55.3816,101.917)">
                            <path d="M154.615,111.64C154.615,106.77 150.203,102.815 144.77,102.815C139.336,102.815 134.924,106.77 134.924,111.64L134.924,122.216C134.924,127.086 139.336,131.04 144.77,131.04C150.203,131.04 154.615,127.086 154.615,122.216L154.615,111.64Z"/>
                        </g>
                    </g>
                </g>
            </g>
            <g transform="matrix(1,0,0,1.06938,0,-9.56533)">
                <g transform="matrix(1,0,0,1,-558.755,-1626.36)">
                    <rect x="579" y="1764.24" width="215.51" height="72.746" style="fill:rgb(157,30,30);"/>
                    <path d="M799.51,1764.24L799.51,1836.98C799.51,1839.57 797.271,1841.66 794.51,1841.66L579,1841.66C576.238,1841.66 574,1839.57 574,1836.98L574,1764.24C574,1761.65 576.238,1759.56 579,1759.56L794.51,1759.56C797.271,1759.56 799.51,1761.65 799.51,1764.24ZM794.51,1764.24L579,1764.24L579,1836.98L794.51,1836.98L794.51,1764.24Z"/>
                </g>
                <g>
                    <g transform="matrix(1,0,0,1,-562,-1677.42)">
                        <path d="M582.245,1826.48L797.755,1826.48" style="fill:none;stroke:rgb(93,17,17);stroke-width:2.9px;stroke-miterlimit:1.5;"/>
                    </g>
                    <g transform="matrix(1,0,0,1,-562,-1660.63)">
                        <path d="M582.245,1826.48L797.755,1826.48" style="fill:none;stroke:rgb(93,17,17);stroke-width:2.9px;stroke-miterlimit:1.5;"/>
                    </g>
                    <g transform="matrix(1,0,0,1,-562,-1643.84)">
                        <path d="M582.245,1826.48L797.755,1826.48" style="fill:none;stroke:rgb(93,17,17);stroke-width:2.9px;stroke-miterlimit:1.5;"/>
                    </g>
                    <g transform="matrix(1,0,0,1,-562,-1627.05)">
                        <path d="M582.245,1826.48L797.755,1826.48" style="fill:none;stroke:rgb(93,17,17);stroke-width:2.9px;stroke-miterlimit:1.5;"/>
                    </g>
                </g>
            </g>
            <g transform="matrix(0.909109,0,0,0.909109,29.5451,-6.76131)">
                <path d="M111.812,168.69L131.552,180.087C134.275,181.658 135.952,184.564 135.952,187.707L135.952,210.501C135.952,213.645 134.275,216.55 131.552,218.122L111.812,229.519C109.089,231.091 105.735,231.091 103.012,229.519L83.272,218.122C80.549,216.55 78.872,213.645 78.872,210.501L78.872,187.707C78.872,184.564 80.549,181.658 83.272,180.087L103.012,168.69C105.735,167.118 109.089,167.118 111.812,168.69ZM107.412,176.31L87.672,187.707L87.672,210.501L107.412,221.898L127.152,210.501L127.152,187.707L107.412,176.31Z"/>
                <path d="M107.412,176.31L127.152,187.707L127.152,210.501L107.412,221.898L87.672,210.501L87.672,187.707L107.412,176.31ZM107.412,186.472L96.472,192.788L96.472,205.421L107.412,211.737L118.352,205.421L118.352,192.788L107.412,186.472Z"/>
                <path d="M107.412,176.31L127.152,187.707L127.152,210.501L107.412,221.898L87.672,210.501L87.672,187.707L107.412,176.31Z" style="fill:none;stroke:white;stroke-width:8.8px;stroke-linecap:round;stroke-miterlimit:1.5;"/>
            </g>
            <g transform="matrix(1,0,0,1,-556.454,-1692.53)">
                <path d="M806.078,1891.94L806.078,1898.6L800.962,1898.6L800.962,1891.94L806.078,1891.94ZM809.065,1885.11L809.065,1905.43L807.43,1905.43L807.43,1885.11L809.065,1885.11Z"/>
                <path d="M804.43,1888.94L804.43,1885.11C804.43,1883.45 805.773,1882.11 807.43,1882.11L809.065,1882.11C810.722,1882.11 812.065,1883.45 812.065,1885.11L812.065,1905.43C812.065,1907.09 810.722,1908.43 809.065,1908.43L807.43,1908.43C805.773,1908.43 804.43,1907.09 804.43,1905.43L804.43,1901.6L800.962,1901.6C799.305,1901.6 797.962,1900.26 797.962,1898.6L797.962,1891.94C797.962,1890.28 799.305,1888.94 800.962,1888.94L804.43,1888.94ZM809.065,1885.11L807.43,1885.11L807.43,1905.43L809.065,1905.43L809.065,1885.11ZM806.078,1891.94L800.962,1891.94L800.962,1898.6L806.078,1898.6L806.078,1891.94Z"/>
            </g>
            <g transform="matrix(-1,0,0,1,812.483,-1692.53)">
                <path d="M806.078,1891.94L806.078,1898.6L800.962,1898.6L800.962,1891.94L806.078,1891.94ZM809.065,1885.11L809.065,1905.43L807.43,1905.43L807.43,1885.11L809.065,1885.11Z"/>
                <path d="M804.43,1888.94L800.962,1888.94C799.305,1888.94 797.962,1890.28 797.962,1891.94L797.962,1898.6C797.962,1900.26 799.305,1901.6 800.962,1901.6L804.43,1901.6L804.43,1905.43C804.43,1907.09 805.773,1908.43 807.43,1908.43L809.065,1908.43C810.722,1908.43 812.065,1907.09 812.065,1905.43L812.065,1885.11C812.065,1883.45 810.722,1882.11 809.065,1882.11L807.43,1882.11C805.773,1882.11 804.43,1883.45 804.43,1885.11L804.43,1888.94ZM809.065,1885.11L809.065,1905.43L807.43,1905.43L807.43,1885.11L809.065,1885.11ZM806.078,1891.94L806.078,1898.6L800.962,1898.6L800.962,1891.94L806.078,1891.94Z"/>
            </g>
        </g>
    </g>
</svg>
