<?xml version="1.0" encoding="UTF-8" standalone="no"?>
<!DOCTYPE svg PUBLIC "-//W3C//DTD SVG 1.1//EN" "http://www.w3.org/Graphics/SVG/1.1/DTD/svg11.dtd">
<svg width="100%" height="100%" viewBox="0 0 256 256" version="1.1" xmlns="http://www.w3.org/2000/svg" xmlns:xlink="http://www.w3.org/1999/xlink" xml:space="preserve" xmlns:serif="http://www.serif.com/" style="fill-rule:evenodd;clip-rule:evenodd;stroke-linecap:round;stroke-linejoin:round;stroke-miterlimit:1.5;">
    <rect id="blobbee_fox_ears" x="-0" y="-0" width="256" height="256" style="fill:none;"/>
    <path id="Wings-outline" serif:id="Wings outline" d="M85.911,118.96C64.22,119.951 40.081,103.608 29.74,76.187C17.462,43.633 30.423,11.638 54.705,3.519C72.712,-2.502 94.597,5.565 109.433,23.705C130.196,10.768 154.388,9.924 170.338,21.686C192.186,37.798 194.54,74.364 171.369,103.256C148.655,131.579 112.048,138.809 90.631,123.014C88.938,121.766 87.365,120.412 85.911,118.96ZM92.141,102.617C93.99,105.847 96.453,108.67 99.534,110.942C115.64,122.82 142.585,115.171 159.667,93.871C176.749,72.572 177.541,45.636 161.435,33.758C146.642,22.849 122.705,28.412 105.665,45.894C96.041,24.687 76.012,12.211 59.461,17.745C41.949,23.6 34.92,47.416 43.775,70.894C52.629,94.372 74.036,108.68 91.548,102.824C91.747,102.758 91.945,102.689 92.141,102.617Z"/>
    <path id="Left-ear-outline" serif:id="Left ear outline" d="M10.828,140.352C10.828,140.352 1.03,112.087 0.328,93.356C-0.26,77.683 6.661,67.26 15.658,64.2C23.345,61.585 34.386,63.927 45.03,71.894C59.952,83.063 76.104,104.593 76.104,104.593C79.834,109.609 80.062,116.412 76.677,121.667C73.291,126.922 67.002,129.527 60.893,128.204C56.642,127.283 53.151,127.052 50.159,128.194C45.038,130.148 41.908,135.335 38.275,142.3C35.513,147.597 29.872,150.75 23.913,150.327C17.954,149.904 12.814,145.986 10.828,140.352ZM24.975,135.365C34.5,117.098 44.994,109.414 64.067,113.543C64.067,113.543 34.412,73.664 20.488,78.401C6.564,83.137 24.975,135.365 24.975,135.365Z"/>
    <path id="Body" d="M85.271,72.055C145.288,37.404 213.16,41.534 236.743,81.272C260.326,121.009 230.747,181.404 170.729,216.054C110.712,250.705 42.84,246.576 19.257,206.838C-4.326,167.1 25.253,106.706 85.271,72.055Z" style="fill:rgb(254,194,7);"/>
    <g id="Stripes">
        <path d="M130.484,58.678C129.182,59.714 224.237,55.348 233.164,152.161C280.7,24.744 130.957,49.08 130.484,58.678Z" style="fill:rgb(85,85,85);"/>
        <path d="M233.164,153.168C227.465,59.753 132.786,57.55 133.303,54.776L98.021,67.843C98.021,67.843 212.342,66.068 216.414,176.145L230.249,154.847" style="fill:rgb(254,194,7);"/>
        <path d="M195.162,198.811L216.216,176.145C212.218,65.928 95.621,64.01 95.622,64.051L76.931,75.077C76.758,75.108 197.515,84.817 195.162,198.811Z" style="fill:rgb(85,85,85);"/>
        <path d="M78.512,75.161L58.353,90.89C58.353,90.89 174.247,102.428 173.015,214.93L194.78,200.34C202.854,88.75 77.286,76.105 75.505,77.508" style="fill:rgb(254,194,7);"/>
        <path d="M54.023,93.034L38.908,109.103C38.908,109.103 145.595,110.065 148.028,226.085L173.015,214.93C177.278,98.938 57.487,94.267 54.023,93.034Z" style="fill:rgb(85,85,85);"/>
    </g>
    <path id="Body-outline" serif:id="Body outline" d="M85.271,72.055C145.288,37.404 213.16,41.534 236.743,81.272C260.326,121.009 230.747,181.404 170.729,216.054C110.712,250.705 42.84,246.576 19.257,206.838C-4.326,167.1 25.253,106.706 85.271,72.055Z" style="fill:none;stroke:black;stroke-width:15px;"/>
    <g id="Wings">
        <path id="Back-wing" serif:id="Back wing" d="M59.461,17.745C76.973,11.89 98.38,26.197 107.234,49.675C116.089,73.154 109.06,96.969 91.548,102.824C74.036,108.68 52.629,94.372 43.775,70.894C34.92,47.416 41.949,23.6 59.461,17.745Z" style="fill:rgb(167,167,167);"/>
        <path id="Front-wing" serif:id="Front wing" d="M161.435,33.758C177.541,45.636 176.749,72.572 159.667,93.871C142.585,115.171 115.64,122.82 99.534,110.942C83.427,99.064 84.219,72.128 101.301,50.829C118.383,29.529 145.328,21.88 161.435,33.758Z" style="fill:rgb(195,195,195);"/>
    </g>
    <g id="Face">
        <path id="Mouth" d="M39.896,195.627L47.929,209.133L58.753,195.651L72.162,209.096L88.135,195.667" style="fill:none;stroke:black;stroke-width:7px;"/>
        <path id="Right-eye" serif:id="Right eye" d="M99.128,165.816L99.128,171.592C99.128,177.659 94.202,182.585 88.135,182.585C82.068,182.585 77.142,177.659 77.142,171.592L77.142,165.816C77.142,159.749 82.068,154.823 88.135,154.823C94.202,154.823 99.128,159.749 99.128,165.816Z"/>
        <path id="Left-eye" serif:id="Left eye" d="M50.889,165.816L50.889,171.592C50.889,177.659 45.963,182.585 39.896,182.585C33.828,182.585 28.903,177.659 28.903,171.592L28.903,165.816C28.903,159.749 33.828,154.823 39.896,154.823C45.963,154.823 50.889,159.749 50.889,165.816Z"/>
    </g>
    <g id="Right-ear" serif:id="Right ear">
        <path id="Inner" d="M90.137,121.538C90.137,121.538 110.022,104.69 118.572,99.551C127.331,94.286 145.924,84.401 150.92,86.29C161.504,90.291 147.11,149.724 132.732,163.762C124.513,150.606 116.276,138.825 90.137,121.538Z" style="fill:rgb(242,221,193);"/>
        <path id="Outer" d="M87.71,120.526C87.71,120.526 108.55,102.875 117.205,97.915C125.86,92.955 142.262,82.9 150.33,85.856C155.345,87.693 154.528,92.293 154.528,92.293C153.437,91.216 152.977,90.968 150.047,90.367C147.118,89.766 133.635,97.058 126.852,106.12C120.069,115.182 118.319,117.845 114.241,120.652C110.162,123.458 110.138,125.64 87.71,120.526Z" style="fill:rgb(73,73,73);"/>
        <path id="Fluff" d="M87.71,121.538C87.71,121.538 110.822,116.075 117.121,122.41C120.324,125.632 112.806,138.902 112.806,138.902C112.806,138.902 131.969,134.91 135.664,138.973C139.359,143.035 132.754,163.837 132.754,163.837C121.166,145.725 106.357,132.283 87.71,121.538Z" style="fill:rgb(247,150,91);"/>
    </g>
    <path id="Left-ear" serif:id="Left ear" d="M25.662,144.983C25.662,144.983 5.765,83.561 20.488,78.401C35.433,73.163 64.067,113.543 64.067,113.543C44.994,109.414 35.187,126.716 25.662,144.983Z" style="fill:rgb(73,73,73);"/>
    <path id="Fox-hair" serif:id="Fox hair" d="M43.02,120.076C35.834,119.629 21.659,116.44 21.659,116.44C21.659,116.44 30.87,103.115 54.844,110.453C52.691,109.037 49.461,107.283 46.989,103.47C44.517,99.656 41.84,93.454 41.84,93.454C49.853,92.702 72.368,82.41 81.169,106.773C78.182,98.082 79.159,91.151 85.648,90.884C85.648,90.884 94.903,108.131 100.628,110.187C99.039,112.345 87.71,121.538 87.71,121.538C87.71,121.538 54.291,120.776 43.02,120.076Z" style="fill:rgb(247,150,91);"/>
</svg>
