<?xml version="1.0" encoding="UTF-8" standalone="no"?>
<!DOCTYPE svg PUBLIC "-//W3C//DTD SVG 1.1//EN" "http://www.w3.org/Graphics/SVG/1.1/DTD/svg11.dtd">
<svg width="100%" height="100%" viewBox="0 0 256 256" version="1.1" xmlns="http://www.w3.org/2000/svg" xmlns:xlink="http://www.w3.org/1999/xlink" xml:space="preserve" xmlns:serif="http://www.serif.com/" style="fill-rule:evenodd;clip-rule:evenodd;stroke-linecap:round;stroke-linejoin:round;stroke-miterlimit:1.5;">
    <g transform="matrix(1,0,0,1,-843,-1405)">
        <g id="blobbee_kiss" transform="matrix(1,0,0,1,843.978,1405)">
            <rect x="0" y="0" width="256" height="256" style="fill:none;"/>
            <g id="Heart-outline" serif:id="Heart outline" transform="matrix(0.705134,-0.317846,0.405607,0.89983,-1254.82,-187.456)">
                <path d="M1324.07,869.899C1338.01,862.066 1356.13,864.307 1366.33,871.568C1378.17,880.011 1380.82,896.827 1369.06,913.686C1362.23,924.004 1345.25,934.641 1330.78,941.518C1326.66,943.475 1321.49,943.475 1317.37,941.518C1302.9,934.644 1285.94,924.014 1279.13,913.742C1267.33,896.847 1269.97,880.016 1281.82,871.568C1292.02,864.307 1310.14,862.065 1324.07,869.899ZM1324.07,885.041C1315.69,873.088 1298.91,873.088 1290.52,879.065C1282.13,885.041 1282.13,896.994 1290.52,908.948C1296.39,917.912 1311.49,926.877 1324.07,932.854C1336.66,926.877 1351.76,917.912 1357.63,908.948C1366.02,896.994 1366.02,885.041 1357.63,879.065C1349.24,873.088 1332.46,873.088 1324.07,885.041Z"/>
            </g>
            <g id="Bee" transform="matrix(0.896875,0,0,0.896875,25.0011,26.448)">
                <g id="Sting" transform="matrix(0.78314,0.139967,-0.135634,0.7589,67.2303,-21.11)">
                    <path d="M189.771,56.854L238.765,34.355L235.05,81.388" style="fill:rgb(104,104,104);stroke:black;stroke-width:14.23px;"/>
                </g>
                <g id="Body" transform="matrix(0.994109,-0.573949,0.761422,1.28301,-120.17,92.6047)">
                    <ellipse cx="168.926" cy="110.515" rx="107.942" ry="55.376" style="fill:rgb(104,104,104);stroke:black;stroke-width:8.33px;"/>
                </g>
                <g id="Wings-outline" serif:id="Wings outline" transform="matrix(0.959562,0.127262,-0.127262,0.959562,7.56883,-6.44254)">
                    <g transform="matrix(1.17688,-0.575088,0.651434,1.21399,-55.8934,35.953)">
                        <path d="M87.467,13.183C105.725,13.183 121.971,31.284 121.971,54.873C121.971,78.843 105.352,97.198 86.799,97.198C68.541,97.198 52.294,79.098 52.294,55.508C52.294,31.538 68.914,13.183 87.467,13.183ZM87.133,21.55C72.762,21.55 61.095,36.624 61.095,55.191C61.095,73.758 72.762,88.832 87.133,88.832C101.504,88.832 113.171,73.758 113.171,55.191C113.171,36.624 101.504,21.55 87.133,21.55Z"/>
                    </g>
                    <g transform="matrix(1.24343,0.685066,-0.776012,1.28263,74.2693,-72.8119)">
                        <path d="M86.804,13.859C105.031,13.86 121.292,31.953 121.292,55.502C121.292,78.678 105.4,96.522 87.462,96.522C69.235,96.522 52.974,78.428 52.974,54.879C52.974,31.703 68.866,13.86 86.804,13.859ZM87.133,21.55C72.762,21.55 61.095,36.624 61.095,55.191C61.095,73.758 72.762,88.832 87.133,88.832C101.504,88.832 113.171,73.758 113.171,55.191C113.171,36.624 101.504,21.55 87.133,21.55Z"/>
                    </g>
                </g>
                <g id="Stripes" transform="matrix(1,0,0,1,4.4273,10.012)">
                    <g transform="matrix(1,-7.43708e-18,-7.43708e-18,1,92.3462,-63.8411)">
                        <path d="M37.588,107.021C36.302,108.044 130.102,103.736 138.911,199.269C185.818,73.536 38.054,97.55 37.588,107.021Z" style="fill:rgb(254,194,7);stroke:black;stroke-width:3.34px;"/>
                    </g>
                    <g transform="matrix(1,-7.43708e-18,-7.43708e-18,1,73.4912,-52.6421)">
                        <path d="M157.766,189.064C152.141,96.884 58.714,94.709 59.225,91.972L24.408,104.867C24.408,104.867 137.219,103.115 141.236,211.738L154.889,190.72" style="fill:rgb(104,104,104);stroke:black;stroke-width:3.34px;"/>
                    </g>
                    <g transform="matrix(1,-7.43708e-18,-7.43708e-18,1,55.5726,-39.8214)">
                        <path d="M138.184,221.282L158.96,198.917C155.015,90.156 39.958,88.264 39.959,88.304L21.516,99.184C21.345,99.215 140.506,108.796 138.184,221.282Z" style="fill:rgb(254,194,7);stroke:black;stroke-width:3.34px;"/>
                    </g>
                    <g transform="matrix(1,-7.43708e-18,-7.43708e-18,1,25.9786,-19.0024)">
                        <path d="M52.67,78.448L32.777,93.969C32.777,93.969 147.14,105.355 145.924,216.369L167.401,201.973C175.368,91.857 51.46,79.379 49.702,80.764" style="fill:rgb(104,104,104);stroke:black;stroke-width:3.34px;"/>
                    </g>
                    <g transform="matrix(1,-7.43708e-18,-7.43708e-18,1,-0.424026,-0.546032)">
                        <path d="M54.907,77.629L39.992,93.485C39.992,93.485 145.269,94.435 147.67,208.921L172.327,197.913C176.533,83.454 58.325,78.845 54.907,77.629Z" style="fill:rgb(254,194,7);stroke:black;stroke-width:3.34px;"/>
                    </g>
                </g>
                <g id="Body-outline" serif:id="Body outline" transform="matrix(0.994109,-0.573949,0.761422,1.28301,-120.17,92.6047)">
                    <ellipse cx="168.926" cy="110.515" rx="107.942" ry="55.376" style="fill:none;stroke:black;stroke-width:8.33px;"/>
                </g>
                <g id="Wings" transform="matrix(0.959562,0.127262,-0.127262,0.959562,7.56883,-6.44254)">
                    <g id="Back-wing" serif:id="Back wing" transform="matrix(1.17688,-0.575088,0.651434,1.21399,-55.8934,35.953)">
                        <ellipse cx="87.133" cy="55.191" rx="26.038" ry="33.641" style="fill:rgb(195,195,195);stroke:black;stroke-width:2.52px;"/>
                    </g>
                    <g id="Front-wing" serif:id="Front wing" transform="matrix(0.946806,0,0,0.999012,5.86837,0.313874)">
                        <g id="Front-wing-main" serif:id="Front wing main" transform="matrix(1.31328,0.685743,-0.81961,1.2839,72.2439,-73.1981)">
                            <ellipse cx="87.133" cy="55.191" rx="26.038" ry="33.641" style="fill:rgb(195,195,195);stroke:black;stroke-width:2.42px;"/>
                        </g>
                        <path id="Front-wing-line" serif:id="Front wing line" d="M119.334,101.013C123.249,82.03 129.669,61.104 148.451,47.276" style="fill:none;stroke:black;stroke-width:3.55px;"/>
                    </g>
                </g>
                <g id="Face" transform="matrix(1,0,0,1,-3.8947,1.36785)">
                    <g id="Mouth" transform="matrix(3.10951e-17,0.493474,-0.635624,9.86042e-18,190.066,143.247)">
                        <path d="M80.454,170.135C77.484,177.136 81.812,188.438 94.903,188.745C105.239,188.987 109.729,180.973 109.203,171.432C111.309,183.407 115.982,188.714 126.785,188.714C137.587,188.714 142.372,178.826 138.215,170.469" style="fill:none;stroke:black;stroke-width:27.43px;stroke-miterlimit:2;"/>
                        <path d="M80.454,170.135C77.484,177.136 81.812,188.438 94.903,188.745C105.239,188.987 109.729,180.973 109.203,171.432C111.309,183.407 115.982,188.714 126.785,188.714C137.587,188.714 142.372,178.826 138.215,170.469" style="fill:none;stroke:rgb(235,235,235);stroke-width:15.68px;"/>
                    </g>
                    <g id="Eyes" transform="matrix(1.11498,0,0,1.11498,-12.1008,-23.3474)">
                        <g id="Right-eye" serif:id="Right eye" transform="matrix(-0.820337,0.174022,-0.174022,-0.820337,244.787,200.395)">
                            <path d="M139.15,75.147C139.15,75.147 147.255,93.107 169.433,83.396" style="fill:none;stroke:black;stroke-width:16.69px;stroke-miterlimit:2;"/>
                            <path d="M139.15,75.147C139.15,75.147 147.255,93.107 169.433,83.396" style="fill:none;stroke:rgb(235,235,235);stroke-width:9.54px;"/>
                        </g>
                        <g id="Left-eye" serif:id="Left eye" transform="matrix(0.820057,0.173962,0.173962,-0.820057,-79.7354,200.382)">
                            <path d="M139.15,75.147C139.15,75.147 147.255,93.107 169.433,83.396" style="fill:none;stroke:black;stroke-width:16.7px;stroke-miterlimit:2;"/>
                            <path d="M139.15,75.147C139.15,75.147 147.255,93.107 169.433,83.396" style="fill:none;stroke:rgb(235,235,235);stroke-width:9.54px;"/>
                        </g>
                    </g>
                </g>
            </g>
            <g id="Heart" transform="matrix(0.705134,-0.317846,0.405607,0.89983,-1254.82,-187.456)">
                <path d="M1324.07,885.041C1332.46,873.088 1349.24,873.088 1357.63,879.065C1366.02,885.041 1366.02,896.994 1357.63,908.948C1351.76,917.912 1336.66,926.877 1324.07,932.854C1311.49,926.877 1296.39,917.912 1290.52,908.948C1282.13,896.994 1282.13,885.041 1290.52,879.065C1298.91,873.088 1315.69,873.088 1324.07,885.041Z" style="fill:rgb(250,41,41);stroke:black;stroke-width:3.38px;"/>
            </g>
        </g>
    </g>
</svg>
