<?xml version="1.0" encoding="UTF-8" standalone="no"?>
<!DOCTYPE svg PUBLIC "-//W3C//DTD SVG 1.1//EN" "http://www.w3.org/Graphics/SVG/1.1/DTD/svg11.dtd">
<svg width="100%" height="100%" viewBox="0 0 256 256" version="1.1" xmlns="http://www.w3.org/2000/svg" xmlns:xlink="http://www.w3.org/1999/xlink" xml:space="preserve" xmlns:serif="http://www.serif.com/" style="fill-rule:evenodd;clip-rule:evenodd;stroke-linecap:round;stroke-linejoin:round;stroke-miterlimit:1.5;">
    <g transform="matrix(1,0,0,1,-281,-1405)">
        <g id="blobbee_neurodiverse" transform="matrix(1,0,0,1,281,1405)">
            <rect x="0" y="0" width="256" height="256" style="fill:none;"/>
            <g id="Sting" transform="matrix(0.78314,0.139967,-0.135634,0.7589,67.2303,-21.11)">
                <path d="M189.771,56.854L238.765,34.355L235.05,81.388" style="fill:rgb(104,104,104);stroke:black;stroke-width:12.77px;"/>
            </g>
            <g transform="matrix(0.993561,0,0,0.993561,-314.462,-1523.39)">
                <path d="M395.191,1691.36C402.703,1684.53 415.172,1676.13 431.034,1676.19C459.197,1676.29 472.862,1697.19 473.446,1716.28C474.038,1735.62 458.339,1758.73 430.68,1758.11C412.437,1757.69 402.493,1750.58 395.245,1743.13C388.245,1749.79 376.249,1758.34 358.513,1757.79C347.08,1757.43 338.44,1753.9 332.077,1748.77C322.38,1740.93 317.759,1729.07 317.501,1716.81C317.057,1695.75 334.262,1676.92 358.941,1676.31C375.353,1675.9 387.346,1684.23 395.191,1691.36ZM395.463,1705.77C390.081,1700.37 378.423,1685.89 359.191,1686.37C340.558,1686.83 327.228,1700.69 327.563,1716.6C327.889,1732.09 336.801,1747.04 358.827,1747.73C381.623,1748.44 392.847,1730.66 395.497,1728.31C402.392,1736.11 409.997,1747.57 430.908,1748.04C451.814,1748.52 463.833,1731.2 463.386,1716.59C462.941,1702.08 452.411,1686.33 430.997,1686.25C409.272,1686.17 395.463,1705.77 395.463,1705.77ZM386.131,1717.15C384.067,1719 377.466,1733.48 358.206,1733.67C351.379,1733.74 341.587,1725.46 341.916,1717.15C342.238,1709.01 348.814,1700.87 358.102,1700.49C374.15,1699.85 386.131,1717.15 386.131,1717.15ZM372.989,1717.46C371.863,1716.41 370.567,1715.33 369.127,1714.32C366.192,1712.26 362.594,1710.38 358.508,1710.55C354.678,1710.7 352.105,1714.19 351.973,1717.55C351.915,1718.99 353.182,1720.18 354.313,1721.26C355.527,1722.41 356.833,1723.62 358.103,1723.61C365.394,1723.53 370.034,1720.44 372.989,1717.46ZM404.488,1717.38C404.488,1717.38 415.253,1700.72 432.104,1700.49C441.399,1700.37 447.968,1709.01 448.29,1717.15C448.619,1725.46 438.827,1733.59 432,1733.67C416.341,1733.85 406.552,1719.23 404.488,1717.38ZM417.849,1717.02C421.066,1720.07 425.733,1723.68 431.884,1723.61C433.222,1723.59 434.637,1722.39 435.915,1721.18C437.031,1720.13 438.29,1718.97 438.233,1717.55C438.106,1714.32 435.926,1710.51 432.24,1710.56C426.119,1710.64 421.192,1713.88 417.849,1717.02Z"/>
            </g>
            <g id="Body" transform="matrix(0.994109,-0.573949,0.761422,1.28301,-120.17,92.6047)">
                <ellipse cx="168.926" cy="110.515" rx="107.942" ry="55.376" style="fill:rgb(104,104,104);stroke:black;stroke-width:7.47px;"/>
            </g>
            <g id="Wings-outline" serif:id="Wings outline" transform="matrix(0.959562,0.127262,-0.127262,0.959562,7.56883,-6.44254)">
                <g transform="matrix(1.17688,-0.575088,0.651434,1.21399,-55.8934,35.953)">
                    <path d="M87.433,14.046C105.289,14.046 121.064,31.835 121.064,54.906C121.064,78.317 104.954,96.336 86.833,96.336C68.977,96.336 53.202,78.546 53.202,55.475C53.202,32.064 69.312,14.046 87.433,14.046ZM87.133,21.55C72.762,21.55 61.095,36.624 61.095,55.191C61.095,73.758 72.762,88.832 87.133,88.832C101.504,88.832 113.171,73.758 113.171,55.191C113.171,36.624 101.504,21.55 87.133,21.55Z"/>
                </g>
                <g transform="matrix(1.24343,0.685066,-0.776012,1.28263,74.2693,-72.8119)">
                    <path d="M86.838,14.653C104.667,14.653 120.454,32.436 120.454,55.47C120.454,78.17 104.998,95.729 87.428,95.729C69.599,95.729 53.812,77.946 53.812,54.911C53.812,32.211 69.268,14.653 86.838,14.653ZM87.133,21.55C72.762,21.55 61.095,36.624 61.095,55.191C61.095,73.758 72.762,88.832 87.133,88.832C101.504,88.832 113.171,73.758 113.171,55.191C113.171,36.624 101.504,21.55 87.133,21.55Z"/>
                </g>
            </g>
            <g id="Stripes" transform="matrix(1,0,0,1,4.4273,10.012)">
                <g transform="matrix(1,-7.43708e-18,-7.43708e-18,1,92.3462,-63.8411)">
                    <path d="M37.588,107.021C36.302,108.044 130.102,103.736 138.911,199.269C185.818,73.536 38.054,97.55 37.588,107.021Z" style="fill:rgb(254,194,7);stroke:black;stroke-width:3px;"/>
                </g>
                <g transform="matrix(1,-7.43708e-18,-7.43708e-18,1,73.4912,-52.6421)">
                    <path d="M157.766,189.064C152.141,96.884 58.714,94.709 59.225,91.972L24.408,104.867C24.408,104.867 137.219,103.115 141.236,211.738L154.889,190.72" style="fill:rgb(104,104,104);stroke:black;stroke-width:3px;"/>
                </g>
                <g transform="matrix(1,-7.43708e-18,-7.43708e-18,1,55.5726,-39.8214)">
                    <path d="M138.184,221.282L158.96,198.917C155.015,90.156 39.958,88.264 39.959,88.304L21.516,99.184C21.345,99.215 140.506,108.796 138.184,221.282Z" style="fill:rgb(254,194,7);stroke:black;stroke-width:3px;"/>
                </g>
                <g transform="matrix(1,-7.43708e-18,-7.43708e-18,1,25.9786,-19.0024)">
                    <path d="M52.67,78.448L32.777,93.969C32.777,93.969 147.14,105.355 145.924,216.369L167.401,201.973C175.368,91.857 51.46,79.379 49.702,80.764" style="fill:rgb(104,104,104);stroke:black;stroke-width:3px;"/>
                </g>
                <g transform="matrix(1,-7.43708e-18,-7.43708e-18,1,-0.424026,-0.546032)">
                    <path d="M54.907,77.629L39.992,93.485C39.992,93.485 145.269,94.435 147.67,208.921L172.327,197.913C176.533,83.454 58.325,78.845 54.907,77.629Z" style="fill:rgb(254,194,7);stroke:black;stroke-width:3px;"/>
                </g>
            </g>
            <g id="Eyes" transform="matrix(0.856324,0.124954,-0.124954,0.856324,31.2483,6.45261)">
                <g id="Face">
                    <g id="Eyes1" serif:id="Eyes">
                        <g id="Right-eye" serif:id="Right eye">
                            <g id="Right-eye1" serif:id="Right eye" transform="matrix(1.14344,-0.166848,0.166848,1.14344,-157.44,-795.193)">
                                <circle cx="103.071" cy="847.784" r="16.18" style="fill:rgb(235,235,235);stroke:black;stroke-width:3px;"/>
                            </g>
                            <g id="Right-pupil" serif:id="Right pupil" transform="matrix(1.67877,-0.244964,0.244964,1.67877,-282.572,-1240.44)">
                                <circle cx="103.071" cy="847.784" r="8.799"/>
                            </g>
                            <g id="Right-eye2" serif:id="Right eye" transform="matrix(0.495712,-0.0723336,0.0723336,0.495712,-19.155,-258.894)">
                                <circle cx="103.071" cy="847.784" r="16.18" style="fill:rgb(235,235,235);"/>
                            </g>
                        </g>
                        <g id="Left-eye" serif:id="Left eye" transform="matrix(1,7.37496e-18,-2.21882e-17,1,-50.731,7.40259)">
                            <g id="Right-eye3" serif:id="Right eye" transform="matrix(1.14344,-0.166848,0.166848,1.14344,-157.44,-795.193)">
                                <circle cx="103.071" cy="847.784" r="16.18" style="fill:rgb(235,235,235);stroke:black;stroke-width:3px;"/>
                            </g>
                            <g id="Right-pupil1" serif:id="Right pupil" transform="matrix(1.67877,-0.244964,0.244964,1.67877,-282.572,-1240.44)">
                                <circle cx="103.071" cy="847.784" r="8.799"/>
                            </g>
                            <g id="Right-eye4" serif:id="Right eye" transform="matrix(0.495712,-0.0723336,0.0723336,0.495712,-19.155,-258.894)">
                                <circle cx="103.071" cy="847.784" r="16.18" style="fill:rgb(235,235,235);"/>
                            </g>
                        </g>
                    </g>
                </g>
            </g>
            <g id="Body-outline" serif:id="Body outline" transform="matrix(0.994109,-0.573949,0.761422,1.28301,-120.17,92.6047)">
                <ellipse cx="168.926" cy="110.515" rx="107.942" ry="55.376" style="fill:none;stroke:black;stroke-width:7.47px;"/>
            </g>
            <g id="Wings" transform="matrix(0.959562,0.127262,-0.127262,0.959562,7.56883,-6.44254)">
                <g id="Back-wing" serif:id="Back wing" transform="matrix(1.17688,-0.575088,0.651434,1.21399,-55.8934,35.953)">
                    <ellipse cx="87.133" cy="55.191" rx="26.038" ry="33.641" style="fill:rgb(195,195,195);stroke:black;stroke-width:2.26px;"/>
                </g>
                <g id="Front-wing" serif:id="Front wing" transform="matrix(0.946806,0,0,0.999012,5.86837,0.313874)">
                    <g id="Front-wing-main" serif:id="Front wing main" transform="matrix(1.31328,0.685743,-0.81961,1.2839,72.2439,-73.1981)">
                        <ellipse cx="87.133" cy="55.191" rx="26.038" ry="33.641" style="fill:rgb(195,195,195);stroke:black;stroke-width:2.17px;"/>
                    </g>
                    <path id="Front-wing-line" serif:id="Front wing line" d="M119.334,101.013C123.249,82.03 129.669,61.104 148.451,47.276" style="fill:none;stroke:black;stroke-width:3.18px;"/>
                </g>
            </g>
            <g transform="matrix(0.993561,0,0,0.993561,-314.462,-1523.39)">
                <path d="M395.463,1705.77C395.463,1705.77 409.272,1686.17 430.997,1686.25C452.411,1686.33 462.941,1702.08 463.386,1716.59C463.833,1731.2 451.814,1748.52 430.908,1748.04C409.997,1747.57 402.392,1736.11 395.497,1728.31C392.847,1730.66 381.623,1748.44 358.827,1747.73C336.801,1747.04 327.889,1732.09 327.563,1716.6C327.228,1700.69 340.558,1686.83 359.191,1686.37C378.423,1685.89 390.081,1700.37 395.463,1705.77ZM386.131,1717.15C386.131,1717.15 374.15,1699.85 358.102,1700.49C348.814,1700.87 342.238,1709.01 341.916,1717.15C341.587,1725.46 351.379,1733.74 358.206,1733.67C377.466,1733.48 384.067,1719 386.131,1717.15ZM404.488,1717.38C406.552,1719.23 416.341,1733.85 432,1733.67C438.827,1733.59 448.619,1725.46 448.29,1717.15C447.968,1709.01 441.399,1700.37 432.104,1700.49C415.253,1700.72 404.488,1717.38 404.488,1717.38Z" style="fill:url(#_Linear1);"/>
                <path d="M395.264,1701.23C400.244,1695.54 413.128,1683.17 431.008,1683.23C454.447,1683.32 465.917,1700.61 466.404,1716.5C466.895,1732.53 453.771,1751.58 430.839,1751.06C410.871,1750.61 402.285,1740.83 395.435,1732.85C390.557,1738.47 378.888,1751.38 358.733,1750.75C349.136,1750.45 341.845,1747.6 336.504,1743.29C328.446,1736.78 324.759,1726.85 324.544,1716.66C324.177,1699.21 338.67,1683.86 359.116,1683.35C377.021,1682.9 388.814,1694.54 395.264,1701.23ZM395.463,1705.77C390.081,1700.37 378.423,1685.89 359.191,1686.37C340.558,1686.83 327.228,1700.69 327.563,1716.6C327.889,1732.09 336.801,1747.04 358.827,1747.73C381.623,1748.44 392.847,1730.66 395.497,1728.31C402.392,1736.11 409.997,1747.57 430.908,1748.04C451.814,1748.52 463.833,1731.2 463.386,1716.59C462.941,1702.08 452.411,1686.33 430.997,1686.25C409.272,1686.17 395.463,1705.77 395.463,1705.77ZM386.131,1717.15C384.067,1719 377.466,1733.48 358.206,1733.67C351.379,1733.74 341.587,1725.46 341.916,1717.15C342.238,1709.01 348.814,1700.87 358.102,1700.49C374.15,1699.85 386.131,1717.15 386.131,1717.15ZM382.312,1717.13C380.626,1715.07 377.424,1711.53 373.169,1708.55C369.061,1705.67 363.943,1703.28 358.224,1703.51C350.573,1703.82 345.198,1710.57 344.933,1717.27C344.801,1720.61 346.838,1723.87 349.458,1726.37C352.102,1728.88 355.407,1730.68 358.175,1730.65C372.169,1730.51 378.781,1722.02 381.835,1717.79C382.001,1717.56 382.16,1717.34 382.312,1717.13ZM404.488,1717.38C404.488,1717.38 415.253,1700.72 432.104,1700.49C441.399,1700.37 447.968,1709.01 448.29,1717.15C448.619,1725.46 438.827,1733.59 432,1733.67C416.341,1733.85 406.552,1719.23 404.488,1717.38ZM408.339,1717.2C409.854,1718.96 412.117,1721.52 415.073,1723.96C419.256,1727.43 424.94,1730.73 431.965,1730.65C434.754,1730.62 438.09,1728.82 440.754,1726.3C443.369,1723.83 445.405,1720.6 445.273,1717.27C445.01,1710.61 439.755,1703.41 432.144,1703.51C420.086,1703.67 411.484,1713.13 408.339,1717.2Z"/>
            </g>
            <g id="Arm" transform="matrix(-1.18438,-0.237922,-0.274023,1.36409,219.559,-43.3407)">
                <path d="M126.361,195.324C131.632,207.227 133.182,217.035 130.643,222.887C128.104,228.739 123.003,235.183 111.72,230.967C100.281,226.693 85.917,212.804 90.545,203.32C94.217,195.795 104.937,195.209 112.743,200.468C118.04,204.037 116.287,208.38 119.358,207.391C121.378,206.74 121.255,196.139 126.361,195.324Z" style="fill:rgb(151,151,151);stroke:black;stroke-width:3.84px;"/>
            </g>
            <g id="Arm1" serif:id="Arm" transform="matrix(1.36409,-0.274023,0.274023,1.36409,-87.4597,-38.5624)">
                <path d="M126.361,195.324C137.518,197.031 136.207,211.795 130.643,222.887C127.783,228.589 123.003,235.183 111.72,230.967C100.281,226.693 85.917,212.804 90.545,203.32C94.217,195.795 104.937,195.209 112.743,200.468C118.04,204.037 116.287,208.38 119.358,207.391C121.378,206.74 121.255,196.139 126.361,195.324Z" style="fill:rgb(151,151,151);stroke:black;stroke-width:3.59px;"/>
            </g>
            <g transform="matrix(0.993561,0,0,0.993561,-314.462,-1523.39)">
                <clipPath id="_clip2">
                    <rect x="448.026" y="1686.25" width="15.372" height="60.844"/>
                </clipPath>
                <g clip-path="url(#_clip2)">
                    <path d="M395.463,1705.77C395.463,1705.77 409.272,1686.17 430.997,1686.25C452.411,1686.33 462.941,1702.08 463.386,1716.59C463.833,1731.2 451.814,1748.52 430.908,1748.04C409.997,1747.57 402.392,1736.11 395.497,1728.31C392.847,1730.66 381.623,1748.44 358.827,1747.73C336.801,1747.04 327.889,1732.09 327.563,1716.6C327.228,1700.69 340.558,1686.83 359.191,1686.37C378.423,1685.89 390.081,1700.37 395.463,1705.77ZM386.131,1717.15C386.131,1717.15 374.15,1699.85 358.102,1700.49C348.814,1700.87 342.238,1709.01 341.916,1717.15C341.587,1725.46 351.379,1733.74 358.206,1733.67C377.466,1733.48 384.067,1719 386.131,1717.15ZM404.488,1717.38C406.552,1719.23 416.341,1733.85 432,1733.67C438.827,1733.59 448.619,1725.46 448.29,1717.15C447.968,1709.01 441.399,1700.37 432.104,1700.49C415.253,1700.72 404.488,1717.38 404.488,1717.38Z" style="fill:url(#_Linear3);"/>
                    <path d="M395.264,1701.23C400.244,1695.54 413.128,1683.17 431.008,1683.23C454.447,1683.32 465.917,1700.61 466.404,1716.5C466.895,1732.53 453.771,1751.58 430.839,1751.06C410.871,1750.61 402.285,1740.83 395.435,1732.85C390.557,1738.47 378.888,1751.38 358.733,1750.75C349.136,1750.45 341.845,1747.6 336.504,1743.29C328.446,1736.78 324.759,1726.85 324.544,1716.66C324.177,1699.21 338.67,1683.86 359.116,1683.35C377.021,1682.9 388.814,1694.54 395.264,1701.23ZM395.463,1705.77C390.081,1700.37 378.423,1685.89 359.191,1686.37C340.558,1686.83 327.228,1700.69 327.563,1716.6C327.889,1732.09 336.801,1747.04 358.827,1747.73C381.623,1748.44 392.847,1730.66 395.497,1728.31C402.392,1736.11 409.997,1747.57 430.908,1748.04C451.814,1748.52 463.833,1731.2 463.386,1716.59C462.941,1702.08 452.411,1686.33 430.997,1686.25C409.272,1686.17 395.463,1705.77 395.463,1705.77ZM404.488,1717.38C404.488,1717.38 415.253,1700.72 432.104,1700.49C441.399,1700.37 447.968,1709.01 448.29,1717.15C448.619,1725.46 438.827,1733.59 432,1733.67C416.341,1733.85 406.552,1719.23 404.488,1717.38ZM408.339,1717.2C409.854,1718.96 412.117,1721.52 415.073,1723.96C419.256,1727.43 424.94,1730.73 431.965,1730.65C434.754,1730.62 438.09,1728.82 440.754,1726.3C443.369,1723.83 445.405,1720.6 445.273,1717.27C445.01,1710.61 439.755,1703.41 432.144,1703.51C420.086,1703.67 411.484,1713.13 408.339,1717.2ZM386.131,1717.15C384.067,1719 377.466,1733.48 358.206,1733.67C351.379,1733.74 341.587,1725.46 341.916,1717.15C342.238,1709.01 348.814,1700.87 358.102,1700.49C374.15,1699.85 386.131,1717.15 386.131,1717.15ZM382.312,1717.13C380.626,1715.07 377.424,1711.53 373.169,1708.55C369.061,1705.67 363.943,1703.28 358.224,1703.51C350.573,1703.82 345.198,1710.57 344.933,1717.27C344.801,1720.61 346.838,1723.87 349.458,1726.37C352.102,1728.88 355.407,1730.68 358.175,1730.65C372.169,1730.51 378.781,1722.02 381.835,1717.79C382.001,1717.56 382.16,1717.34 382.312,1717.13Z"/>
                </g>
            </g>
            <g transform="matrix(0.993561,0,0,0.993561,-314.462,-1523.39)">
                <clipPath id="_clip4">
                    <rect x="327.557" y="1686.25" width="12.043" height="60.367"/>
                </clipPath>
                <g clip-path="url(#_clip4)">
                    <path d="M395.463,1705.77C395.463,1705.77 409.272,1686.17 430.997,1686.25C452.411,1686.33 462.941,1702.08 463.386,1716.59C463.833,1731.2 451.814,1748.52 430.908,1748.04C409.997,1747.57 402.392,1736.11 395.497,1728.31C392.847,1730.66 381.623,1748.44 358.827,1747.73C336.801,1747.04 327.889,1732.09 327.563,1716.6C327.228,1700.69 340.558,1686.83 359.191,1686.37C378.423,1685.89 390.081,1700.37 395.463,1705.77ZM386.131,1717.15C386.131,1717.15 374.15,1699.85 358.102,1700.49C348.814,1700.87 342.238,1709.01 341.916,1717.15C341.587,1725.46 351.379,1733.74 358.206,1733.67C377.466,1733.48 384.067,1719 386.131,1717.15ZM404.488,1717.38C406.552,1719.23 416.341,1733.85 432,1733.67C438.827,1733.59 448.619,1725.46 448.29,1717.15C447.968,1709.01 441.399,1700.37 432.104,1700.49C415.253,1700.72 404.488,1717.38 404.488,1717.38Z" style="fill:url(#_Linear5);"/>
                    <path d="M395.264,1701.23C400.244,1695.54 413.128,1683.17 431.008,1683.23C454.447,1683.32 465.917,1700.61 466.404,1716.5C466.895,1732.53 453.771,1751.58 430.839,1751.06C410.871,1750.61 402.285,1740.83 395.435,1732.85C390.557,1738.47 378.888,1751.38 358.733,1750.75C349.136,1750.45 341.845,1747.6 336.504,1743.29C328.446,1736.78 324.759,1726.85 324.544,1716.66C324.177,1699.21 338.67,1683.86 359.116,1683.35C377.021,1682.9 388.814,1694.54 395.264,1701.23ZM395.463,1705.77C390.081,1700.37 378.423,1685.89 359.191,1686.37C340.558,1686.83 327.228,1700.69 327.563,1716.6C327.889,1732.09 336.801,1747.04 358.827,1747.73C381.623,1748.44 392.847,1730.66 395.497,1728.31C402.392,1736.11 409.997,1747.57 430.908,1748.04C451.814,1748.52 463.833,1731.2 463.386,1716.59C462.941,1702.08 452.411,1686.33 430.997,1686.25C409.272,1686.17 395.463,1705.77 395.463,1705.77ZM386.131,1717.15C384.067,1719 377.466,1733.48 358.206,1733.67C351.379,1733.74 341.587,1725.46 341.916,1717.15C342.238,1709.01 348.814,1700.87 358.102,1700.49C374.15,1699.85 386.131,1717.15 386.131,1717.15ZM382.312,1717.13C380.626,1715.07 377.424,1711.53 373.169,1708.55C369.061,1705.67 363.943,1703.28 358.224,1703.51C350.573,1703.82 345.198,1710.57 344.933,1717.27C344.801,1720.61 346.838,1723.87 349.458,1726.37C352.102,1728.88 355.407,1730.68 358.175,1730.65C372.169,1730.51 378.781,1722.02 381.835,1717.79C382.001,1717.56 382.16,1717.34 382.312,1717.13ZM404.488,1717.38C404.488,1717.38 415.253,1700.72 432.104,1700.49C441.399,1700.37 447.968,1709.01 448.29,1717.15C448.619,1725.46 438.827,1733.59 432,1733.67C416.341,1733.85 406.552,1719.23 404.488,1717.38ZM408.339,1717.2C409.854,1718.96 412.117,1721.52 415.073,1723.96C419.256,1727.43 424.94,1730.73 431.965,1730.65C434.754,1730.62 438.09,1728.82 440.754,1726.3C443.369,1723.83 445.405,1720.6 445.273,1717.27C445.01,1710.61 439.755,1703.41 432.144,1703.51C420.086,1703.67 411.484,1713.13 408.339,1717.2Z"/>
                </g>
            </g>
        </g>
    </g>
    <defs>
        <linearGradient id="_Linear1" x1="0" y1="0" x2="1" y2="0" gradientUnits="userSpaceOnUse" gradientTransform="matrix(135.841,0,0,135.841,327.557,1717.15)"><stop offset="0" style="stop-color:rgb(255,68,109);stop-opacity:1"/><stop offset="0.2" style="stop-color:rgb(255,155,50);stop-opacity:1"/><stop offset="0.4" style="stop-color:rgb(255,213,63);stop-opacity:1"/><stop offset="0.6" style="stop-color:rgb(161,222,28);stop-opacity:1"/><stop offset="0.8" style="stop-color:rgb(35,193,234);stop-opacity:1"/><stop offset="1" style="stop-color:rgb(157,139,236);stop-opacity:1"/></linearGradient>
        <linearGradient id="_Linear3" x1="0" y1="0" x2="1" y2="0" gradientUnits="userSpaceOnUse" gradientTransform="matrix(135.841,0,0,135.841,327.557,1717.15)"><stop offset="0" style="stop-color:rgb(255,68,109);stop-opacity:1"/><stop offset="0.2" style="stop-color:rgb(255,155,50);stop-opacity:1"/><stop offset="0.4" style="stop-color:rgb(255,213,63);stop-opacity:1"/><stop offset="0.6" style="stop-color:rgb(161,222,28);stop-opacity:1"/><stop offset="0.8" style="stop-color:rgb(35,193,234);stop-opacity:1"/><stop offset="1" style="stop-color:rgb(157,139,236);stop-opacity:1"/></linearGradient>
        <linearGradient id="_Linear5" x1="0" y1="0" x2="1" y2="0" gradientUnits="userSpaceOnUse" gradientTransform="matrix(135.841,0,0,135.841,327.557,1717.15)"><stop offset="0" style="stop-color:rgb(255,68,109);stop-opacity:1"/><stop offset="0.2" style="stop-color:rgb(255,155,50);stop-opacity:1"/><stop offset="0.4" style="stop-color:rgb(255,213,63);stop-opacity:1"/><stop offset="0.6" style="stop-color:rgb(161,222,28);stop-opacity:1"/><stop offset="0.8" style="stop-color:rgb(35,193,234);stop-opacity:1"/><stop offset="1" style="stop-color:rgb(157,139,236);stop-opacity:1"/></linearGradient>
    </defs>
</svg>
