<?xml version="1.0" encoding="UTF-8" standalone="no"?>
<!DOCTYPE svg PUBLIC "-//W3C//DTD SVG 1.1//EN" "http://www.w3.org/Graphics/SVG/1.1/DTD/svg11.dtd">
<svg width="100%" height="100%" viewBox="0 0 256 256" version="1.1" xmlns="http://www.w3.org/2000/svg" xmlns:xlink="http://www.w3.org/1999/xlink" xml:space="preserve" xmlns:serif="http://www.serif.com/" style="fill-rule:evenodd;clip-rule:evenodd;stroke-linecap:round;stroke-linejoin:round;stroke-miterlimit:1.5;">
    <rect id="blobbee_boop" x="0" y="0" width="256" height="256" style="fill:none;"/>
    <clipPath id="_clip1">
        <rect x="0" y="0" width="256" height="256"/>
    </clipPath>
    <g clip-path="url(#_clip1)">
        <path id="Wings-outline" serif:id="Wings outline" d="M129.457,71.439C101.62,74.152 70.004,52.917 56.583,17.332C41.238,-23.356 56.638,-63.617 86.987,-73.764C110.642,-81.673 139.399,-69.767 157.884,-44.535C184.732,-63.181 216.987,-65.526 237.979,-50.045C265.408,-29.818 267.488,16.097 238.398,52.369C209.763,88.073 163.808,97.957 136.809,78.046C134.11,76.056 131.659,73.845 129.457,71.439ZM135.756,54.763C138.246,59.112 141.562,62.914 145.712,65.974C167.403,81.971 203.691,71.669 226.696,42.984C249.701,14.299 250.768,-21.976 229.076,-37.973C209.154,-52.665 176.918,-45.173 153.969,-21.629C141.008,-50.189 114.034,-66.991 91.744,-59.538C68.16,-51.653 58.694,-19.58 70.618,12.039C82.543,43.658 111.372,62.927 134.957,55.041C135.225,54.952 135.491,54.859 135.756,54.763Z"/>
        <path id="Body" d="M127.902,1.921C208.729,-44.745 300.137,-39.183 331.897,14.333C363.657,67.85 323.82,149.185 242.993,195.851C162.165,242.517 70.758,236.955 38.998,183.439C7.237,129.922 47.074,48.587 127.902,1.921Z" style="fill:rgb(254,194,7);"/>
        <g id="Stripes">
            <path d="M188.793,-16.095C187.039,-14.699 315.054,-20.58 327.076,109.803C391.095,-61.796 189.429,-29.021 188.793,-16.095Z" style="fill:rgb(85,85,85);"/>
            <path d="M327.076,111.159C319.401,-14.647 191.893,-17.614 192.59,-21.35L145.073,-3.751C145.073,-3.751 299.034,-6.142 304.518,142.104L323.15,113.42" style="fill:rgb(254,194,7);"/>
            <path d="M275.897,172.628L304.252,142.104C298.868,-6.332 141.84,-8.914 141.842,-8.859L116.671,5.99C116.437,6.032 279.066,19.108 275.897,172.628Z" style="fill:rgb(85,85,85);"/>
            <path d="M118.8,6.104L91.65,27.286C91.65,27.286 247.73,42.825 246.071,194.336L275.383,174.688C286.256,24.404 117.148,7.374 114.749,9.264" style="fill:rgb(254,194,7);"/>
            <path d="M85.819,30.174L65.463,51.814C65.463,51.814 209.143,53.111 212.42,209.36L246.071,194.336C251.812,38.125 90.484,31.835 85.819,30.174Z" style="fill:rgb(85,85,85);"/>
        </g>
        <path id="Body-outline" serif:id="Body outline" d="M127.902,1.921C208.729,-44.745 300.137,-39.183 331.897,14.333C363.657,67.85 323.82,149.185 242.993,195.851C162.165,242.517 70.758,236.955 38.998,183.439C7.237,129.922 47.074,48.587 127.902,1.921Z" style="fill:none;stroke:black;stroke-width:15px;"/>
        <g id="Wings">
            <path id="Back-wing" serif:id="Back wing" d="M91.744,-59.538C115.328,-67.424 144.157,-48.156 156.082,-16.536C168.007,15.083 158.541,47.156 134.957,55.041C111.372,62.927 82.543,43.658 70.618,12.039C58.694,-19.58 68.16,-51.653 91.744,-59.538Z" style="fill:rgb(167,167,167);"/>
            <path id="Front-wing" serif:id="Front wing" d="M229.076,-37.973C250.768,-21.976 249.701,14.299 226.696,42.984C203.691,71.669 167.403,81.971 145.712,65.974C124.02,49.977 125.087,13.702 148.092,-14.983C171.097,-43.668 207.385,-53.97 229.076,-37.973Z" style="fill:rgb(195,195,195);"/>
        </g>
        <g id="Face">
            <path id="Mouth" d="M65.917,168.037L76.693,186.154L91.213,168.069L109.2,186.104L130.627,168.09" style="fill:none;stroke:black;stroke-width:10px;"/>
            <g id="Eyes">
                <path id="Right-eye" serif:id="Right eye" d="M145.789,124.17L145.789,131.793C145.789,141.612 137.818,149.583 128,149.583C118.182,149.583 110.211,141.612 110.211,131.793L110.211,124.17C110.211,114.352 118.182,106.381 128,106.381C137.818,106.381 145.789,114.352 145.789,124.17Z"/>
                <path id="Left-eye" serif:id="Left eye" d="M86.147,124.038L86.147,131.926C86.147,142.086 77.898,150.334 67.738,150.334C57.579,150.334 49.33,142.086 49.33,131.926L49.33,124.038C49.33,113.878 57.579,105.63 67.738,105.63C77.898,105.63 86.147,113.878 86.147,124.038Z"/>
            </g>
        </g>
        <g id="Hand">
            <path id="Main" d="M52.565,160.935L59.886,164.953C62.655,166.472 63.799,170.199 62.441,173.27C61.083,176.341 57.732,177.601 54.964,176.082L26.684,160.564C25.656,160 24.853,159.132 24.317,158.106L20.138,152.207L10.493,141.811L26.559,123.407L36.327,133.937L36.301,133.966L63.392,134.681C63.973,134.636 64.57,134.678 65.169,134.814L86.147,139.574C89.725,140.386 91.913,144.884 91.328,147.354C90.397,151.283 87.692,153.652 84.114,152.84L63.943,148.263L63.125,148.276C63.168,148.581 63.192,148.892 63.197,149.209L63.27,154.053C63.326,157.761 60.662,160.813 57.325,160.863L52.565,160.935Z" style="fill:white;"/>
            <path d="M40.825,124.082C48.363,124.281 63.265,124.674 63.257,124.674C64.613,124.624 65.995,124.747 67.382,125.062L88.359,129.821C92.807,130.831 96.583,133.881 98.873,137.696C101.294,141.73 101.827,146.415 101.059,149.66C98.684,159.681 91.028,164.663 81.901,162.592L72.131,160.375C71.816,161.193 71.441,161.976 71.012,162.72C73.298,167.076 73.72,172.49 71.586,177.315C67.723,186.049 58.026,189.169 50.153,184.849L21.873,169.33C19.346,167.944 17.291,165.903 15.856,163.462L12.359,158.526L3.162,148.612C-0.318,144.861 -0.405,139.089 2.96,135.235L19.025,116.831C20.89,114.695 23.573,113.451 26.407,113.408C29.242,113.366 31.962,114.528 33.89,116.606L40.825,124.082ZM52.565,160.935L57.325,160.863C60.662,160.813 63.326,157.761 63.27,154.053L63.197,149.209C63.192,148.892 63.168,148.581 63.125,148.276L63.943,148.263L84.114,152.84C87.692,153.652 90.397,151.283 91.328,147.354C91.913,144.884 89.725,140.386 86.147,139.574L65.169,134.814C64.57,134.678 63.973,134.636 63.392,134.681L36.301,133.966L36.327,133.937L26.559,123.407L10.493,141.811L20.138,152.207L24.317,158.106C24.853,159.132 25.656,160 26.684,160.564L54.964,176.082C57.732,177.601 61.083,176.341 62.441,173.27C63.799,170.199 62.655,166.472 59.886,164.953L52.565,160.935Z"/>
            <path id="Shading" d="M52.565,160.935L45.528,157.074C44.913,156.192 44.54,155.091 44.522,153.892C44.477,150.948 46.592,148.526 49.242,148.486C49.396,148.483 49.549,148.489 49.7,148.503L49.71,148.478L63.125,148.276C63.168,148.581 63.192,148.892 63.197,149.209L63.27,154.053C63.326,157.761 60.662,160.813 57.325,160.863L52.565,160.935Z" style="fill:rgb(185,185,185);"/>
        </g>
    </g>
</svg>
