<?xml version="1.0" encoding="UTF-8" standalone="no"?>
<!DOCTYPE svg PUBLIC "-//W3C//DTD SVG 1.1//EN" "http://www.w3.org/Graphics/SVG/1.1/DTD/svg11.dtd">
<svg width="100%" height="100%" viewBox="0 0 256 256" version="1.1" xmlns="http://www.w3.org/2000/svg" xmlns:xlink="http://www.w3.org/1999/xlink" xml:space="preserve" xmlns:serif="http://www.serif.com/" style="fill-rule:evenodd;clip-rule:evenodd;stroke-linecap:round;stroke-linejoin:round;stroke-miterlimit:1.5;">
    <rect id="blobbee_sob_loud" x="-0" y="0" width="256" height="256" style="fill:none;"/>
    <clipPath id="_clip1">
        <rect x="-0" y="0" width="256" height="256"/>
    </clipPath>
    <g clip-path="url(#_clip1)">
        <path id="Wings-outline" serif:id="Wings outline" d="M130.856,59.756C103.019,62.47 71.403,41.235 57.982,5.65C42.637,-35.039 58.037,-75.299 88.386,-85.447C112.041,-93.356 140.798,-81.45 159.283,-56.218C186.131,-74.864 218.386,-77.209 239.378,-61.728C266.807,-41.5 268.887,4.414 239.797,40.686C211.162,76.39 165.207,86.274 138.208,66.364C135.509,64.373 133.058,62.162 130.856,59.756ZM137.155,43.08C139.645,47.429 142.961,51.231 147.111,54.291C168.802,70.288 205.09,59.987 228.095,31.302C251.1,2.617 252.167,-33.659 230.475,-49.656C210.553,-64.348 178.317,-56.856 155.368,-33.312C142.407,-61.872 115.433,-78.674 93.143,-71.221C69.559,-63.336 60.093,-31.263 72.017,0.357C83.942,31.976 112.771,51.244 136.356,43.359C136.624,43.269 136.89,43.176 137.155,43.08Z"/>
        <path id="Body" d="M127.902,1.921C208.729,-44.745 300.137,-39.183 331.897,14.333C363.657,67.85 323.82,149.185 242.993,195.851C162.165,242.517 70.758,236.955 38.998,183.439C7.237,129.922 47.074,48.587 127.902,1.921Z" style="fill:rgb(254,194,7);"/>
        <g id="Stripes">
            <path d="M188.793,-16.095C187.039,-14.699 315.054,-20.58 327.076,109.803C391.095,-61.796 189.429,-29.021 188.793,-16.095Z" style="fill:rgb(85,85,85);"/>
            <path d="M327.076,111.159C319.401,-14.647 191.893,-17.614 192.59,-21.35L145.073,-3.751C145.073,-3.751 299.034,-6.142 304.518,142.104L323.15,113.42" style="fill:rgb(254,194,7);"/>
            <path d="M275.897,172.628L304.252,142.104C298.868,-6.332 141.84,-8.914 141.842,-8.859L116.671,5.99C116.437,6.032 279.066,19.108 275.897,172.628Z" style="fill:rgb(85,85,85);"/>
            <path d="M118.8,6.104L91.65,27.286C91.65,27.286 247.73,42.825 246.071,194.336L275.383,174.688C286.256,24.404 117.148,7.374 114.749,9.264" style="fill:rgb(254,194,7);"/>
            <path d="M85.819,30.174L65.463,51.814C65.463,51.814 209.143,53.111 212.42,209.36L246.071,194.336C251.812,38.125 90.484,31.835 85.819,30.174Z" style="fill:rgb(85,85,85);"/>
        </g>
        <path id="Body-outline" serif:id="Body outline" d="M127.902,1.921C208.729,-44.745 300.137,-39.183 331.897,14.333C363.657,67.85 323.82,149.185 242.993,195.851C162.165,242.517 70.758,236.955 38.998,183.439C7.237,129.922 47.074,48.587 127.902,1.921Z" style="fill:none;stroke:black;stroke-width:15px;"/>
        <g id="Wings">
            <path id="Back-wing" serif:id="Back wing" d="M93.143,-71.221C116.727,-79.107 145.556,-59.838 157.481,-28.219C169.406,3.4 159.94,35.473 136.356,43.359C112.771,51.244 83.942,31.976 72.017,0.357C60.093,-31.263 69.559,-63.336 93.143,-71.221Z" style="fill:rgb(167,167,167);"/>
            <path id="Front-wing" serif:id="Front wing" d="M230.475,-49.656C252.167,-33.659 251.1,2.617 228.095,31.302C205.09,59.987 168.802,70.288 147.111,54.291C125.419,38.295 126.486,2.019 149.491,-26.666C172.496,-55.351 208.784,-65.652 230.475,-49.656Z" style="fill:rgb(195,195,195);"/>
        </g>
        <g id="Face">
            <g id="Mouth">
                <path id="Mouth-backgorund" serif:id="Mouth backgorund" d="M124.317,187.828C124.317,176.761 115.332,167.776 104.265,167.776L88.313,167.776C77.106,167.776 68.007,176.875 68.007,188.082C68.007,194.494 73.213,199.7 79.625,199.7L112.446,199.7C118.998,199.7 124.317,194.38 124.317,187.828Z" style="fill:rgb(160,25,25);"/>
                <path id="Tongue" d="M93.579,199.7C92.946,198.517 92.604,197.253 92.604,195.941C92.604,189.277 101.441,183.866 112.325,183.866C116.81,183.866 120.947,184.785 124.262,186.331C124.299,186.825 124.317,187.325 124.317,187.828C124.317,194.38 118.998,199.7 112.446,199.7L93.579,199.7Z" style="fill:rgb(216,72,72);"/>
            </g>
            <g id="Tears" opacity="0.9">
                <path id="Right-tears" serif:id="Right tears" d="M151.054,145.482L110.126,133.272L110.126,192.154C110.126,202.996 119.296,211.799 130.59,211.799C141.885,211.799 151.054,202.996 151.054,192.154L151.054,145.482Z" style="fill:rgb(112,193,255);fill-opacity:0.9;"/>
                <path id="Left-tears" serif:id="Left tears" d="M84.928,133.272L43.876,145.482L43.876,192.154C43.876,202.996 53.073,211.799 64.402,211.799C75.731,211.799 84.928,202.996 84.928,192.154L84.928,133.272Z" style="fill:rgb(112,193,255);fill-opacity:0.9;"/>
            </g>
            <path id="Right-eye" serif:id="Right eye" d="M144.195,117.533L116.671,133.455L144.358,145.482" style="fill:none;stroke:black;stroke-width:13.47px;"/>
            <path id="Left-eye" serif:id="Left eye" d="M50.822,117.533L78.347,133.455L50.66,145.482" style="fill:none;stroke:black;stroke-width:13.47px;"/>
        </g>
    </g>
</svg>
