<?xml version="1.0" encoding="UTF-8" standalone="no"?>
<!DOCTYPE svg PUBLIC "-//W3C//DTD SVG 1.1//EN" "http://www.w3.org/Graphics/SVG/1.1/DTD/svg11.dtd">
<svg width="100%" height="100%" viewBox="0 0 256 256" version="1.1" xmlns="http://www.w3.org/2000/svg" xmlns:xlink="http://www.w3.org/1999/xlink" xml:space="preserve" xmlns:serif="http://www.serif.com/" style="fill-rule:evenodd;clip-rule:evenodd;stroke-linecap:round;stroke-linejoin:round;stroke-miterlimit:1.5;">
    <rect id="blobbee_think" x="0" y="0" width="256" height="256" style="fill:none;"/>
    <clipPath id="_clip1">
        <rect x="0" y="0" width="256" height="256"/>
    </clipPath>
    <g clip-path="url(#_clip1)">
        <path id="Wings-outline" serif:id="Wings outline" d="M130.856,59.756C103.019,62.47 71.403,41.235 57.982,5.65C42.637,-35.039 58.037,-75.299 88.386,-85.447C112.041,-93.356 140.798,-81.45 159.283,-56.218C186.131,-74.864 218.386,-77.209 239.378,-61.728C266.807,-41.5 268.887,4.414 239.797,40.686C211.162,76.39 165.207,86.274 138.208,66.364C135.509,64.373 133.058,62.162 130.856,59.756ZM137.155,43.08C139.645,47.429 142.961,51.231 147.111,54.291C168.802,70.288 205.09,59.987 228.095,31.302C251.1,2.617 252.167,-33.659 230.475,-49.656C210.553,-64.348 178.317,-56.856 155.368,-33.312C142.407,-61.872 115.433,-78.674 93.143,-71.221C69.559,-63.336 60.093,-31.263 72.017,0.357C83.942,31.976 112.771,51.244 136.356,43.359C136.624,43.269 136.89,43.176 137.155,43.08Z"/>
        <path id="Hand-outline" serif:id="Hand outline" d="M62.919,173.1L112.159,173.1C124.677,173.1 134.84,183.263 134.84,195.781C134.84,208.299 124.677,218.462 112.159,218.462L95.15,218.462L95.15,225.226C95.15,239.128 83.863,250.414 69.961,250.414L42.388,250.414C28.486,250.414 17.199,239.128 17.199,225.226L17.199,173.875C17.199,161.254 27.445,151.008 40.065,151.008C52.426,151.008 62.51,160.838 62.919,173.1ZM32.199,225.226C32.199,230.849 36.764,235.414 42.388,235.414L69.961,235.414C75.584,235.414 80.15,230.849 80.15,225.226L80.15,203.462L112.159,203.462C116.398,203.462 119.84,200.02 119.84,195.781C119.84,191.542 116.398,188.1 112.159,188.1L47.932,188.1L47.932,173.875C47.932,169.533 44.407,166.008 40.065,166.008C35.724,166.008 32.199,169.533 32.199,173.875L32.199,225.226Z"/>
        <path id="Body" d="M127.902,1.921C208.729,-44.745 300.137,-39.183 331.897,14.333C363.657,67.85 323.82,149.185 242.993,195.851C162.165,242.517 70.758,236.955 38.998,183.439C7.237,129.922 47.074,48.587 127.902,1.921Z" style="fill:rgb(254,194,7);"/>
        <g id="Stripes">
            <path d="M188.793,-16.095C187.039,-14.699 315.054,-20.58 327.076,109.803C391.095,-61.796 189.429,-29.021 188.793,-16.095Z" style="fill:rgb(85,85,85);"/>
            <path d="M327.076,111.159C319.401,-14.647 191.893,-17.614 192.59,-21.35L145.073,-3.751C145.073,-3.751 299.034,-6.142 304.518,142.104L323.15,113.42" style="fill:rgb(254,194,7);"/>
            <path d="M275.897,172.628L304.252,142.104C298.868,-6.332 141.84,-8.914 141.842,-8.859L116.671,5.99C116.437,6.032 279.066,19.108 275.897,172.628Z" style="fill:rgb(85,85,85);"/>
            <path d="M118.8,6.104L91.65,27.286C91.65,27.286 247.73,42.825 246.071,194.336L275.383,174.688C286.256,24.404 117.148,7.374 114.749,9.264" style="fill:rgb(254,194,7);"/>
            <path d="M85.819,30.174L65.463,51.814C65.463,51.814 209.143,53.111 212.42,209.36L246.071,194.336C251.812,38.125 90.484,31.835 85.819,30.174Z" style="fill:rgb(85,85,85);"/>
        </g>
        <path id="Body-outline" serif:id="Body outline" d="M127.902,1.921C208.729,-44.745 300.137,-39.183 331.897,14.333C363.657,67.85 323.82,149.185 242.993,195.851C162.165,242.517 70.758,236.955 38.998,183.439C7.237,129.922 47.074,48.587 127.902,1.921Z" style="fill:none;stroke:black;stroke-width:15px;"/>
        <g id="Wings">
            <path id="Back-wing" serif:id="Back wing" d="M93.143,-71.221C116.727,-79.107 145.556,-59.838 157.481,-28.219C169.406,3.4 159.94,35.473 136.356,43.359C112.771,51.244 83.942,31.976 72.017,0.357C60.093,-31.263 69.559,-63.336 93.143,-71.221Z" style="fill:rgb(167,167,167);"/>
            <path id="Front-wing" serif:id="Front wing" d="M230.475,-49.656C252.167,-33.659 251.1,2.617 228.095,31.302C205.09,59.987 168.802,70.288 147.111,54.291C125.419,38.295 126.486,2.019 149.491,-26.666C172.496,-55.351 208.784,-65.652 230.475,-49.656Z" style="fill:rgb(195,195,195);"/>
        </g>
        <g id="Face">
            <path id="Mouth" d="M76.286,168.486L92.202,153.001L111.936,168.896" style="fill:none;stroke:black;stroke-width:10px;"/>
            <path id="Right-eye" serif:id="Right eye" d="M147.88,111.955L147.88,119.901C147.88,128.248 141.104,135.025 132.756,135.025C124.409,135.025 117.632,128.248 117.632,119.901L117.632,111.955C117.632,103.607 124.409,96.831 132.756,96.831C141.104,96.831 147.88,103.607 147.88,111.955Z"/>
            <path id="Left-eye" serif:id="Left eye" d="M81.514,111.955L81.514,119.901C81.514,128.248 74.737,135.025 66.39,135.025C58.043,135.025 51.266,128.248 51.266,119.901L51.266,111.955C51.266,103.607 58.043,96.831 66.39,96.831C74.737,96.831 81.514,103.607 81.514,111.955Z"/>
        </g>
        <path id="Hand" d="M32.199,225.226L32.199,173.875C32.199,169.533 35.724,166.008 40.065,166.008C44.407,166.008 47.932,169.533 47.932,173.875L47.932,188.1L112.159,188.1C116.398,188.1 119.84,191.542 119.84,195.781C119.84,200.02 116.398,203.462 112.159,203.462L80.15,203.462L80.15,225.226C80.15,230.849 75.584,235.414 69.961,235.414L42.388,235.414C36.764,235.414 32.199,230.849 32.199,225.226Z" style="fill:rgb(151,151,151);"/>
        <path d="M22.199,225.226L22.199,173.875C22.199,164.014 30.205,156.008 40.065,156.008C49.926,156.008 57.932,164.014 57.932,173.875C57.932,173.875 57.932,178.1 57.932,178.1L112.159,178.1C121.917,178.1 129.84,186.022 129.84,195.781C129.84,205.54 121.917,213.462 112.159,213.462C112.159,213.462 90.15,213.462 90.15,213.462L90.15,225.226C90.15,236.368 81.104,245.414 69.961,245.414L42.388,245.414C31.245,245.414 22.199,236.368 22.199,225.226ZM32.199,225.226C32.199,230.849 36.764,235.414 42.388,235.414L69.961,235.414C75.584,235.414 80.15,230.849 80.15,225.226L80.15,203.462L112.159,203.462C116.398,203.462 119.84,200.02 119.84,195.781C119.84,191.542 116.398,188.1 112.159,188.1L47.932,188.1L47.932,173.875C47.932,169.533 44.407,166.008 40.065,166.008C35.724,166.008 32.199,169.533 32.199,173.875L32.199,225.226Z"/>
    </g>
</svg>
