<?xml version="1.0" encoding="UTF-8" standalone="no"?>
<!DOCTYPE svg PUBLIC "-//W3C//DTD SVG 1.1//EN" "http://www.w3.org/Graphics/SVG/1.1/DTD/svg11.dtd">
<svg width="100%" height="100%" viewBox="0 0 256 256" version="1.1" xmlns="http://www.w3.org/2000/svg" xmlns:xlink="http://www.w3.org/1999/xlink" xml:space="preserve" xmlns:serif="http://www.serif.com/" style="fill-rule:evenodd;clip-rule:evenodd;stroke-linecap:round;stroke-linejoin:round;stroke-miterlimit:1.5;">
    <rect id="blobbee_cutlery_eyes" x="-0" y="0" width="256" height="256" style="fill:none;"/>
    <clipPath id="_clip1">
        <rect x="-0" y="0" width="256" height="256"/>
    </clipPath>
    <g clip-path="url(#_clip1)">
        <path id="Wings-outline" serif:id="Wings outline" d="M130.856,59.756C103.019,62.47 71.403,41.235 57.982,5.65C42.637,-35.039 58.037,-75.299 88.386,-85.447C112.041,-93.356 140.798,-81.45 159.283,-56.218C186.131,-74.864 218.386,-77.209 239.378,-61.728C266.807,-41.5 268.887,4.414 239.797,40.686C211.162,76.39 165.207,86.274 138.208,66.364C135.509,64.373 133.058,62.162 130.856,59.756ZM137.155,43.08C139.645,47.429 142.961,51.231 147.111,54.291C168.802,70.288 205.09,59.987 228.095,31.302C251.1,2.617 252.167,-33.659 230.475,-49.656C210.553,-64.348 178.317,-56.856 155.368,-33.312C142.407,-61.872 115.433,-78.674 93.143,-71.221C69.559,-63.336 60.093,-31.263 72.017,0.357C83.942,31.976 112.771,51.244 136.356,43.359C136.624,43.269 136.89,43.176 137.155,43.08Z"/>
        <path id="Body" d="M127.902,1.921C208.729,-44.745 300.137,-39.183 331.897,14.333C363.657,67.85 323.82,149.185 242.993,195.851C162.165,242.517 70.758,236.955 38.998,183.439C7.237,129.922 47.074,48.587 127.902,1.921Z" style="fill:rgb(254,194,7);"/>
        <g id="Stripes">
            <path d="M188.793,-16.095C187.039,-14.699 315.054,-20.58 327.076,109.803C391.095,-61.796 189.429,-29.021 188.793,-16.095Z" style="fill:rgb(85,85,85);"/>
            <path d="M327.076,111.159C319.401,-14.647 191.893,-17.614 192.59,-21.35L145.073,-3.751C145.073,-3.751 299.034,-6.142 304.518,142.104L323.15,113.42" style="fill:rgb(254,194,7);"/>
            <path d="M275.897,172.628L304.252,142.104C298.868,-6.332 141.84,-8.914 141.842,-8.859L116.671,5.99C116.437,6.032 279.066,19.108 275.897,172.628Z" style="fill:rgb(85,85,85);"/>
            <path d="M118.8,6.104L91.65,27.286C91.65,27.286 247.73,42.825 246.071,194.336L275.383,174.688C286.256,24.404 117.148,7.374 114.749,9.264" style="fill:rgb(254,194,7);"/>
            <path d="M85.819,30.174L65.463,51.814C65.463,51.814 209.143,53.111 212.42,209.36L246.071,194.336C251.812,38.125 90.484,31.835 85.819,30.174Z" style="fill:rgb(85,85,85);"/>
        </g>
        <path id="Body-outline" serif:id="Body outline" d="M127.902,1.921C208.729,-44.745 300.137,-39.183 331.897,14.333C363.657,67.85 323.82,149.185 242.993,195.851C162.165,242.517 70.758,236.955 38.998,183.439C7.237,129.922 47.074,48.587 127.902,1.921Z" style="fill:none;stroke:black;stroke-width:15px;"/>
        <g id="Wings">
            <path id="Back-wing" serif:id="Back wing" d="M93.143,-71.221C116.727,-79.107 145.556,-59.838 157.481,-28.219C169.406,3.4 159.94,35.473 136.356,43.359C112.771,51.244 83.942,31.976 72.017,0.357C60.093,-31.263 69.559,-63.336 93.143,-71.221Z" style="fill:rgb(167,167,167);"/>
            <path id="Front-wing" serif:id="Front wing" d="M230.475,-49.656C252.167,-33.659 251.1,2.617 228.095,31.302C205.09,59.987 168.802,70.288 147.111,54.291C125.419,38.295 126.486,2.019 149.491,-26.666C172.496,-55.351 208.784,-65.652 230.475,-49.656Z" style="fill:rgb(195,195,195);"/>
        </g>
        <g id="Eyes">
            <g id="Right-eye" serif:id="Right eye">
                <ellipse cx="129.061" cy="134.756" rx="23.964" ry="39.356" style="fill:white;"/>
                <circle cx="120.885" cy="134.756" r="12.664"/>
            </g>
            <g id="Left-eye" serif:id="Left eye">
                <ellipse cx="77.479" cy="134.789" rx="23.984" ry="39.389" style="fill:white;"/>
                <circle cx="69.37" cy="134.789" r="12.675"/>
            </g>
        </g>
        <path id="Fork" d="M156.582,144.807L152.188,143.491C146.15,141.682 143.105,134.015 145.392,126.381L161.212,73.567C162.987,67.643 167.454,63.467 172.187,62.739L157.184,112.825L168.5,116.214C168.5,116.214 182.708,65.037 187.09,66.383C191.868,67.849 175.372,118.273 175.372,118.273L186.817,121.701L201.811,71.647C205.324,74.869 206.736,80.782 204.971,86.675L189.15,139.488C186.863,147.123 180.105,151.853 174.067,150.044L169.673,148.728L141.959,241.245C141.275,243.529 139.253,244.944 137.447,244.403L130.902,242.442C129.096,241.901 128.185,239.608 128.869,237.324L156.582,144.807Z" style="fill:rgb(185,185,185);"/>
        <path d="M144.955,150.517C137.233,145.583 132.947,134.818 136.291,123.655L152.112,70.841C155.053,61.021 162.897,54.557 170.743,53.35C173.964,52.854 177.214,54.044 179.353,56.502C179.982,57.225 180.49,58.028 180.869,58.881C181.328,58.517 181.747,58.242 182.106,58.054C184.88,56.599 187.509,56.574 189.878,57.301C192.156,58 194.214,59.407 195.709,61.898C195.987,62.361 196.268,62.985 196.518,63.758C197.356,63.196 198.288,62.763 199.289,62.488C202.443,61.619 205.822,62.434 208.233,64.646C214.051,69.983 216.995,79.64 214.071,89.401L198.251,142.214C194.907,153.378 185.409,160.014 176.246,159.89L151.06,243.971C148.71,251.815 140.925,255.362 134.721,253.503L128.176,251.543C121.972,249.684 117.419,242.442 119.769,234.598L144.955,150.517ZM156.582,144.807L128.869,237.324C128.185,239.608 129.096,241.901 130.902,242.442L137.447,244.403C139.253,244.944 141.275,243.529 141.959,241.245L169.673,148.728L174.067,150.044C180.105,151.853 186.863,147.123 189.15,139.488L204.971,86.675C206.736,80.782 205.324,74.869 201.811,71.647L186.817,121.701L175.372,118.273C175.372,118.273 191.868,67.849 187.09,66.383C182.708,65.037 168.5,116.214 168.5,116.214L157.184,112.825L172.187,62.739C167.454,63.467 162.987,67.643 161.212,73.567L145.392,126.381C143.105,134.015 146.15,141.682 152.188,143.491L156.582,144.807Z"/>
        <path id="Knife" d="M46.573,157.941L64.833,238.504C65.354,240.886 64.116,243.184 62.068,243.633L54.648,245.259C52.6,245.707 50.514,244.138 49.992,241.756L11.716,67.07C11.024,63.91 12.667,60.862 15.383,60.267C26.248,57.886 37.318,66.214 40.087,78.851L55.086,150.077C55.778,153.236 54.135,156.284 51.419,156.88L46.573,157.941Z" style="fill:rgb(185,185,185);"/>
        <path d="M58.34,164.617L74.585,236.294C74.591,236.317 74.596,236.341 74.601,236.364C76.388,244.522 71.222,251.864 64.208,253.401L56.788,255.027C49.774,256.564 42.012,252.055 40.224,243.896L1.948,69.21C-0.01,60.275 5.561,52.182 13.243,50.499C29.069,47.031 45.821,58.303 49.855,76.711C49.861,76.738 49.866,76.764 49.872,76.791C49.872,76.791 64.865,147.985 64.864,147.983C66.361,154.9 63.347,161.307 58.34,164.617ZM46.573,157.941L51.419,156.88C54.135,156.284 55.778,153.236 55.086,150.077L40.087,78.851C37.318,66.214 26.248,57.886 15.383,60.267C12.667,60.862 11.024,63.91 11.716,67.07L49.992,241.756C50.514,244.138 52.6,245.707 54.648,245.259L62.068,243.633C64.116,243.184 65.354,240.886 64.833,238.504L46.573,157.941Z"/>
        <g id="Left-hand" serif:id="Left hand">
            <path id="Outline" d="M31.899,188.359L12.007,208.251L38.689,234.932L58.58,215.04C65.943,207.677 65.943,195.722 58.58,188.359C51.217,180.996 39.262,180.996 31.899,188.359Z" style="fill:rgb(151,151,151);"/>
            <path d="M24.828,181.288C36.093,170.022 54.386,170.022 65.651,181.288C76.917,192.553 76.917,210.846 65.651,222.111L45.76,242.003C41.854,245.909 35.523,245.909 31.617,242.003L4.936,215.322C1.031,211.417 1.031,205.085 4.936,201.18L24.828,181.288ZM31.899,188.359L12.007,208.251L38.689,234.932L58.58,215.04C65.943,207.677 65.943,195.722 58.58,188.359C51.217,180.996 39.262,180.996 31.899,188.359Z"/>
            <path id="Fill" d="M31.899,188.359L4.926,215.332L31.607,242.013L58.58,215.04C65.943,207.677 65.943,195.722 58.58,188.359C51.217,180.996 39.262,180.996 31.899,188.359Z" style="fill:rgb(151,151,151);"/>
        </g>
        <path id="Right-arm" serif:id="Right arm" d="M158.906,239.434L134.294,215.013C126.926,207.645 126.926,195.682 134.294,188.314C141.662,180.947 153.625,180.947 160.993,188.314L175.221,202.543L191.221,186.543C196.227,181.537 204.355,181.537 209.361,186.543C214.367,191.549 214.367,199.677 209.361,204.683L175.728,238.316C171.14,242.904 163.922,243.277 158.906,239.434Z" style="fill:rgb(151,151,151);"/>
        <path d="M151.863,246.532L127.251,222.112C127.241,222.103 127.232,222.093 127.223,222.084C115.953,210.814 115.953,192.514 127.223,181.243C138.493,169.973 156.793,169.973 168.064,181.243C168.064,181.243 175.221,188.401 175.221,188.401L184.15,179.472C193.059,170.564 207.524,170.564 216.432,179.472C225.341,188.38 225.341,202.846 216.432,211.754L182.799,245.387C174.623,253.563 161.761,254.22 152.824,247.371C152.486,247.113 152.165,246.832 151.863,246.532ZM158.906,239.434C163.922,243.277 171.14,242.904 175.728,238.316L209.361,204.683C214.367,199.677 214.367,191.549 209.361,186.543C204.355,181.537 196.227,181.537 191.221,186.543L175.221,202.543L160.993,188.314C153.625,180.947 141.662,180.947 134.294,188.314C126.926,195.682 126.926,207.645 134.294,215.013L158.906,239.434Z"/>
    </g>
</svg>
