<?xml version="1.0" encoding="UTF-8" standalone="no"?>
<!DOCTYPE svg PUBLIC "-//W3C//DTD SVG 1.1//EN" "http://www.w3.org/Graphics/SVG/1.1/DTD/svg11.dtd">
<svg width="100%" height="100%" viewBox="0 0 256 256" version="1.1" xmlns="http://www.w3.org/2000/svg" xmlns:xlink="http://www.w3.org/1999/xlink" xml:space="preserve" xmlns:serif="http://www.serif.com/" style="fill-rule:evenodd;clip-rule:evenodd;stroke-linecap:round;stroke-linejoin:round;stroke-miterlimit:1.5;">
    <rect id="blobbee_hug_potato" x="-0" y="0" width="256" height="256" style="fill:none;"/>
    <g id="Bee">
        <path id="Wings-outline" serif:id="Wings outline" d="M148.346,135.121C134.249,134.344 119.24,123.938 112.662,106.497C104.15,83.926 114.112,62.089 130.948,56.459C142.085,52.736 155.58,56.452 165.699,66.148C178.871,59.892 193.341,60.565 203.162,67.808C218.161,78.869 220.853,103.948 204.946,123.783C189.498,143.045 164.378,147.014 149.812,136.273C149.309,135.902 148.82,135.518 148.346,135.121ZM154.47,119.42C155.531,121.274 156.945,122.896 158.715,124.2C167.963,131.021 183.435,126.629 193.244,114.398C203.053,102.168 203.508,86.701 194.259,79.88C185.765,73.616 172.02,76.81 162.236,86.849C156.709,74.672 145.208,67.508 135.704,70.685C125.649,74.048 121.613,87.723 126.697,101.204C131.782,114.685 144.073,122.901 154.129,119.539C154.243,119.501 154.357,119.461 154.47,119.42Z"/>
        <path id="Body" d="M152.322,98.199C188.339,75.441 229.071,78.153 243.223,104.252C257.376,130.35 239.624,170.015 203.607,192.773C167.59,215.53 126.858,212.818 112.706,186.72C98.553,160.621 116.305,120.956 152.322,98.199Z" style="fill:rgb(254,194,7);"/>
        <g id="Stripes">
            <path d="M179.455,89.413C178.674,90.093 235.718,87.226 241.075,150.81C269.602,67.126 179.739,83.109 179.455,89.413Z" style="fill:rgb(85,85,85);"/>
            <path d="M241.075,151.471C237.655,90.119 180.837,88.672 181.147,86.85L159.973,95.432C159.973,95.432 228.579,94.267 231.023,166.562L239.325,152.573" style="fill:rgb(254,194,7);"/>
            <path d="M218.269,181.448L230.904,166.562C228.505,94.174 158.533,92.915 158.534,92.942L147.317,100.183C147.213,100.204 219.681,106.58 218.269,181.448Z" style="fill:rgb(85,85,85);"/>
            <path d="M148.266,100.238L136.168,110.568C136.168,110.568 205.718,118.147 204.979,192.034L218.04,182.452C222.885,109.163 147.53,100.858 146.461,101.779" style="fill:rgb(254,194,7);"/>
            <path d="M133.57,111.977L124.499,122.53C124.499,122.53 188.523,123.162 189.983,199.361L204.979,192.034C207.537,115.854 135.648,112.787 133.57,111.977Z" style="fill:rgb(85,85,85);"/>
        </g>
        <path id="Body-outline" serif:id="Body outline" d="M152.322,98.199C188.339,75.441 229.071,78.153 243.223,104.252C257.376,130.35 239.624,170.015 203.607,192.773C167.59,215.53 126.858,212.818 112.706,186.72C98.553,160.621 116.305,120.956 152.322,98.199Z" style="fill:none;stroke:black;stroke-width:15px;"/>
        <g id="Wings">
            <path id="Back-wing" serif:id="Back wing" d="M135.704,70.685C145.76,67.323 158.052,75.539 163.136,89.02C168.221,102.502 164.185,116.177 154.129,119.539C144.073,122.901 131.782,114.685 126.697,101.204C121.613,87.723 125.649,74.048 135.704,70.685Z" style="fill:rgb(167,167,167);"/>
            <path id="Front-wing" serif:id="Front wing" d="M194.259,79.88C203.508,86.701 203.053,102.168 193.244,114.398C183.435,126.629 167.963,131.021 158.715,124.2C149.466,117.38 149.921,101.913 159.73,89.682C169.538,77.452 185.01,73.06 194.259,79.88Z" style="fill:rgb(195,195,195);"/>
        </g>
        <g id="Face">
            <path id="Mouth" d="M128.439,178.362L133.715,187.232L140.824,178.377L149.631,187.207L160.122,178.388" style="fill:none;stroke:black;stroke-width:4.6px;"/>
            <path id="Eye" d="M166.682,158.774L166.682,162.584C166.682,166.586 163.433,169.835 159.431,169.835C155.428,169.835 152.179,166.586 152.179,162.584L152.179,158.774C152.179,154.772 155.428,151.523 159.431,151.523C163.433,151.523 166.682,154.772 166.682,158.774Z"/>
            <path id="Left-eye" serif:id="Left eye" d="M139.663,158.774L139.663,162.584C139.663,166.586 136.414,169.835 132.412,169.835C128.41,169.835 125.161,166.586 125.161,162.584L125.161,158.774C125.161,154.772 128.41,151.523 132.412,151.523C136.414,151.523 139.663,154.772 139.663,158.774Z"/>
        </g>
    </g>
    <g id="Potato">
        <path id="Body1" serif:id="Body" d="M35.389,180.834C35.389,180.834 29.559,157.5 30.286,148.459C31.001,139.559 30.921,136.968 34.397,129.186C37.872,121.404 46.433,111.09 55.201,107.562C63.968,104.033 74.652,101.129 85.202,103.955C95.752,106.782 108.378,113.413 112.939,123.543C117.5,133.673 113.964,142.312 115.231,148.752C116.038,152.853 117.188,163.461 127.482,171.68C133.026,176.107 142.032,186.17 139.084,201.206C136.137,216.243 130.925,223.851 123.505,228.901C116.235,233.848 98.336,240.271 86.092,237.201C73.847,234.132 64.624,230.005 58.932,224.403C53.241,218.801 44.737,212.637 35.389,180.834Z" style="fill:rgb(184,136,90);"/>
        <path d="M20.837,184.471C20.837,184.471 14.5,157.635 15.334,147.257C16.233,136.068 16.331,132.853 20.701,123.069C25.478,112.373 37.55,98.496 49.6,93.646C61.12,89.01 75.222,85.752 89.084,89.467C103.617,93.361 120.334,103.43 126.617,117.385C129.995,124.889 130.54,131.813 130.31,138.082C130.202,141.016 129.51,143.623 129.949,145.856C130.436,148.332 130.626,154.995 136.841,159.958C145.104,166.555 158.197,181.681 153.804,204.091C149.801,224.513 142.022,234.443 131.944,241.302C122.347,247.833 98.608,255.803 82.444,251.751C66.991,247.877 55.593,242.163 48.41,235.093C41.854,228.64 31.766,221.698 20.998,185.065C20.94,184.868 20.886,184.67 20.837,184.471ZM35.389,180.834C44.737,212.637 53.241,218.801 58.932,224.403C64.624,230.005 73.847,234.132 86.092,237.201C98.336,240.271 116.235,233.848 123.505,228.901C130.925,223.851 136.137,216.243 139.084,201.206C142.032,186.17 133.026,176.107 127.482,171.68C117.188,163.461 116.038,152.853 115.231,148.752C113.964,142.312 117.5,133.673 112.939,123.543C108.378,113.413 95.752,106.782 85.202,103.955C74.652,101.129 63.968,104.033 55.201,107.562C46.433,111.09 37.872,121.404 34.397,129.186C30.921,136.968 31.001,139.559 30.286,148.459C29.559,157.5 35.389,180.834 35.389,180.834Z"/>
        <g id="Eyes">
            <path d="M96.165,120.017C98.818,122.669 99.797,125.997 98.351,127.442C96.906,128.888 93.578,127.909 90.926,125.256C88.274,122.604 87.294,119.277 88.74,117.831C90.186,116.385 93.513,117.365 96.165,120.017Z" style="fill:rgb(135,91,82);"/>
            <path d="M52.167,139.814C50.396,141.585 48.173,142.24 47.207,141.274C46.242,140.308 46.896,138.086 48.668,136.314C50.439,134.542 52.662,133.888 53.628,134.854C54.593,135.819 53.939,138.042 52.167,139.814Z" style="fill:rgb(135,91,82);"/>
            <path d="M43.038,176.185C40.351,173.498 39.359,170.127 40.824,168.662C42.288,167.197 45.659,168.19 48.346,170.877C51.033,173.564 52.026,176.935 50.561,178.4C49.096,179.864 45.725,178.872 43.038,176.185Z" style="fill:rgb(135,91,82);"/>
            <path d="M87.507,222.194C92.839,223.682 96.51,227.249 95.699,230.156C94.888,233.062 89.9,234.214 84.568,232.726C79.236,231.238 75.566,227.67 76.377,224.764C77.188,221.857 82.175,220.706 87.507,222.194Z" style="fill:rgb(135,91,82);"/>
            <path d="M57.87,204.894C55.994,203.811 52.241,201.644 51.175,199.156C50.11,196.669 51.731,193.86 55.229,192.135C57.759,190.786 62.353,190.63 65.978,190.85C67.982,193.88 70.143,197.936 70.241,200.801C70.495,204.693 68.874,207.502 66.187,207.823C63.499,208.144 59.747,205.977 57.87,204.894Z" style="fill:rgb(135,91,82);"/>
            <path d="M105.935,149.124C107.218,150.091 109.786,152.023 110.346,153.95C110.907,155.877 109.461,157.798 106.731,158.753C104.748,159.518 101.352,159.22 98.704,158.732C97.501,156.322 96.275,153.142 96.461,151.024C96.624,148.137 98.07,146.215 100.077,146.221C102.084,146.226 104.651,148.158 105.935,149.124Z" style="fill:rgb(135,91,82);"/>
            <path d="M115.263,208.05C110.889,215.143 104.549,219.181 101.113,217.062C97.676,214.943 98.437,207.465 102.811,200.372C107.184,193.28 113.524,189.242 116.96,191.361C120.397,193.48 119.636,200.958 115.263,208.05Z" style="fill:rgb(135,91,82);"/>
        </g>
        <g id="Face1" serif:id="Face">
            <path id="Mouth1" serif:id="Mouth" d="M96.213,168.793L90.168,178.987L81.799,168.938L71.421,179.188L59.114,168.928" style="fill:none;stroke:black;stroke-width:6.5px;"/>
            <g id="Eyes1" serif:id="Eyes">
                <path id="Right-eye" serif:id="Right eye" d="M86.422,143.695C87.811,147.762 91.181,149.047 93.736,149.07C96.61,149.096 99.702,148.218 101.662,143.343" style="fill:none;stroke:black;stroke-width:7px;"/>
                <path id="Left-eye1" serif:id="Left eye" d="M53.022,143.695C54.411,147.762 57.781,149.047 60.336,149.07C63.21,149.096 66.302,148.218 68.262,143.343" style="fill:none;stroke:black;stroke-width:7px;"/>
            </g>
        </g>
    </g>
    <path id="Right-arm" serif:id="Right arm" d="M191.277,214.433L148.154,224.944C141.344,226.215 135.301,223.918 134.315,218.636C133.329,213.354 138.05,208.884 144.86,207.613L178.487,198.946L176.066,185.666C175.396,182.077 178.609,178.463 183.236,177.599C187.862,176.735 192.162,178.947 192.832,182.536L197.334,206.648C197.948,209.937 195.292,213.249 191.277,214.433Z" style="fill:rgb(151,151,151);"/>
    <path d="M193.645,224.149L150.522,234.659C150.345,234.702 150.168,234.741 149.989,234.774C136.897,237.218 126.38,230.626 124.485,220.471C122.608,210.417 129.815,200.405 142.66,197.853C142.66,197.853 166.981,191.585 166.981,191.585C166.981,191.585 166.23,187.465 166.23,187.465C164.709,179.199 170.747,169.758 181.4,167.769C192.069,165.777 201.118,172.426 202.663,180.701L207.164,204.812C208.61,212.559 203.562,221.235 194.106,224.024C193.953,224.07 193.8,224.111 193.645,224.149ZM191.277,214.433C195.292,213.249 197.948,209.937 197.334,206.648L192.832,182.536C192.162,178.947 187.862,176.735 183.236,177.599C178.609,178.463 175.396,182.077 176.066,185.666L178.487,198.946L144.86,207.613C138.05,208.884 133.329,213.354 134.315,218.636C135.301,223.918 141.344,226.215 148.154,224.944L191.277,214.433Z"/>
</svg>
