<?xml version="1.0" encoding="UTF-8" standalone="no"?>
<!DOCTYPE svg PUBLIC "-//W3C//DTD SVG 1.1//EN" "http://www.w3.org/Graphics/SVG/1.1/DTD/svg11.dtd">
<svg width="100%" height="100%" viewBox="0 0 256 256" version="1.1" xmlns="http://www.w3.org/2000/svg" xmlns:xlink="http://www.w3.org/1999/xlink" xml:space="preserve" xmlns:serif="http://www.serif.com/" style="fill-rule:evenodd;clip-rule:evenodd;stroke-linecap:round;stroke-linejoin:round;stroke-miterlimit:1.5;">
    <g transform="matrix(1,0,0,1,0,-843)">
        <g id="blobbee_headpat" transform="matrix(1,0,0,1,0,843.752)">
            <rect x="0" y="0" width="256" height="256" style="fill:none;"/>
            <g id="Hand-outline" serif:id="Hand outline" transform="matrix(0.700919,0,0,0.700919,-11.002,70.2048)">
                <path d="M130.566,41.856C131.548,42.022 132.528,42.273 133.498,42.613L188.381,61.874C198.613,65.465 204.005,76.687 200.414,86.919C195.502,100.918 180.148,108.294 166.15,103.382L134.143,92.149C132.253,93.073 130.129,93.592 127.884,93.592C127.884,93.592 88.565,93.592 88.565,93.591C84.513,99.499 78.771,102.509 73.307,102.509C62.683,102.509 52.548,95.644 48.286,92.287C47.451,91.746 46.668,91.116 45.954,90.401L21.632,66.08C16.061,60.508 16.061,51.475 21.632,45.903L46.036,21.5C51.608,15.928 60.641,15.928 66.213,21.5L86.317,41.604L127.884,41.604C128.801,41.604 129.698,41.69 130.566,41.856ZM45.954,70.225C34.556,81.734 54.484,93.582 56.013,94.464C55.668,93.109 52.34,80.146 49.355,73.625L56.042,80.313L56.105,80.25C57.074,81.162 64.871,88.242 73.307,88.242C76.421,88.242 78.217,84.38 79.233,79.325L127.884,79.325L127.884,74.833L170.874,89.92C177.443,92.225 184.647,88.763 186.952,82.195C187.936,79.393 186.459,76.319 183.657,75.336L141.386,60.502C141.818,59.238 142.078,57.893 142.138,56.493C142.078,57.89 141.817,59.236 141.383,60.5L128.774,56.075C128.48,55.972 128.181,55.909 127.884,55.884L127.884,55.871L114.837,55.871C114.079,55.341 113.617,55.265 113.617,55.871L80.407,55.871L56.124,31.588L31.721,55.992L45.954,70.225ZM56.075,94.5C56.095,94.511 56.105,94.517 56.105,94.517L56.927,92.443L56.075,94.5Z"/>
            </g>
            <g id="Bee" transform="matrix(0.967991,0,0,0.967991,4.60324,8.03848)">
                <g id="Sting" transform="matrix(0.78314,0.139967,-0.135634,0.7589,67.2303,-21.11)">
                    <path d="M189.771,56.854L238.765,34.355L235.05,81.388" style="fill:rgb(104,104,104);stroke:black;stroke-width:13.19px;"/>
                </g>
                <g id="Body" transform="matrix(0.994109,-0.573949,0.761422,1.28301,-120.17,92.6047)">
                    <ellipse cx="168.926" cy="110.515" rx="107.942" ry="55.376" style="fill:rgb(104,104,104);stroke:black;stroke-width:7.72px;"/>
                </g>
                <g id="Wings-outline" serif:id="Wings outline" transform="matrix(0.959562,0.127262,-0.127262,0.959562,7.56883,-6.44254)">
                    <g transform="matrix(1.17688,-0.575088,0.651434,1.21399,-55.8934,35.953)">
                        <path d="M87.442,13.797C105.415,13.797 121.325,31.677 121.325,54.896C121.325,78.468 105.068,96.584 86.823,96.584C68.851,96.584 52.941,78.705 52.941,55.485C52.941,31.913 69.198,13.797 87.442,13.797ZM87.133,21.55C72.762,21.55 61.095,36.624 61.095,55.191C61.095,73.758 72.762,88.832 87.133,88.832C101.504,88.832 113.171,73.758 113.171,55.191C113.171,36.624 101.504,21.55 87.133,21.55Z"/>
                    </g>
                    <g transform="matrix(1.24343,0.685066,-0.776012,1.28263,74.2693,-72.8119)">
                        <path d="M86.828,14.424C104.771,14.424 120.695,32.297 120.695,55.479C120.695,78.316 105.114,95.957 87.438,95.957C69.494,95.957 53.571,78.084 53.571,54.902C53.571,32.065 69.152,14.424 86.828,14.424ZM87.133,21.55C72.762,21.55 61.095,36.624 61.095,55.191C61.095,73.758 72.762,88.832 87.133,88.832C101.504,88.832 113.171,73.758 113.171,55.191C113.171,36.624 101.504,21.55 87.133,21.55Z"/>
                    </g>
                </g>
                <g id="Stripes" transform="matrix(1,0,0,1,4.4273,10.012)">
                    <g transform="matrix(1,-7.43708e-18,-7.43708e-18,1,92.3462,-63.8411)">
                        <path d="M37.588,107.021C36.302,108.044 130.102,103.736 138.911,199.269C185.818,73.536 38.054,97.55 37.588,107.021Z" style="fill:rgb(254,194,7);stroke:black;stroke-width:3.1px;"/>
                    </g>
                    <g transform="matrix(1,-7.43708e-18,-7.43708e-18,1,73.4912,-52.6421)">
                        <path d="M157.766,189.064C152.141,96.884 58.714,94.709 59.225,91.972L24.408,104.867C24.408,104.867 137.219,103.115 141.236,211.738L154.889,190.72" style="fill:rgb(104,104,104);stroke:black;stroke-width:3.1px;"/>
                    </g>
                    <g transform="matrix(1,-7.43708e-18,-7.43708e-18,1,55.5726,-39.8214)">
                        <path d="M138.184,221.282L158.96,198.917C155.015,90.156 39.958,88.264 39.959,88.304L21.516,99.184C21.345,99.215 140.506,108.796 138.184,221.282Z" style="fill:rgb(254,194,7);stroke:black;stroke-width:3.1px;"/>
                    </g>
                    <g transform="matrix(1,-7.43708e-18,-7.43708e-18,1,25.9786,-19.0024)">
                        <path d="M52.67,78.448L32.777,93.969C32.777,93.969 147.14,105.355 145.924,216.369L167.401,201.973C175.368,91.857 51.46,79.379 49.702,80.764" style="fill:rgb(104,104,104);stroke:black;stroke-width:3.1px;"/>
                    </g>
                    <g transform="matrix(1,-7.43708e-18,-7.43708e-18,1,-0.424026,-0.546032)">
                        <path d="M54.907,77.629L39.992,93.485C39.992,93.485 145.269,94.435 147.67,208.921L172.327,197.913C176.533,83.454 58.325,78.845 54.907,77.629Z" style="fill:rgb(254,194,7);stroke:black;stroke-width:3.1px;"/>
                    </g>
                </g>
                <g id="Body-outline" serif:id="Body outline" transform="matrix(0.994109,-0.573949,0.761422,1.28301,-120.17,92.6047)">
                    <ellipse cx="168.926" cy="110.515" rx="107.942" ry="55.376" style="fill:none;stroke:black;stroke-width:7.72px;"/>
                </g>
                <g id="Wings" transform="matrix(0.959562,0.127262,-0.127262,0.959562,7.56883,-6.44254)">
                    <g id="Back-wing" serif:id="Back wing" transform="matrix(1.17688,-0.575088,0.651434,1.21399,-55.8934,35.953)">
                        <ellipse cx="87.133" cy="55.191" rx="26.038" ry="33.641" style="fill:rgb(195,195,195);stroke:black;stroke-width:2.34px;"/>
                    </g>
                    <g id="Front-wing" serif:id="Front wing" transform="matrix(0.946806,0,0,0.999012,5.86837,0.313874)">
                        <g id="Front-wing-main" serif:id="Front wing main" transform="matrix(1.31328,0.685743,-0.81961,1.2839,72.2439,-73.1981)">
                            <ellipse cx="87.133" cy="55.191" rx="26.038" ry="33.641" style="fill:rgb(195,195,195);stroke:black;stroke-width:2.24px;"/>
                        </g>
                        <path id="Front-wing-line" serif:id="Front wing line" d="M119.334,101.013C123.249,82.03 129.669,61.104 148.451,47.276" style="fill:none;stroke:black;stroke-width:3.29px;"/>
                    </g>
                </g>
                <g id="Face" transform="matrix(1,0,0,1,-3.8947,1.36785)">
                    <g id="Mouth" transform="matrix(0.658566,-1.17246e-18,-3.87825e-17,0.848272,3.90699,42.2986)">
                        <path d="M79.429,171.352L92.31,191.237L108.219,172.744L128,191.722L152.351,171.648" style="fill:none;stroke:black;stroke-width:14.96px;stroke-miterlimit:2;"/>
                        <path d="M79.429,171.352L92.31,191.237L108.219,172.744L128,191.722L152.351,171.648" style="fill:none;stroke:rgb(235,235,235);stroke-width:6.8px;"/>
                    </g>
                    <g id="Eyes" transform="matrix(0.856324,0.124954,-0.124954,0.856324,35.143,7.15355)">
                        <g id="Right-eye" serif:id="Right eye" transform="matrix(1.56791,-0.228787,0.215752,1.47858,-150.38,17.2361)">
                            <path d="M154.615,113.255C154.615,107.493 150.203,102.815 144.77,102.815C139.336,102.815 134.924,107.493 134.924,113.255L134.924,120.6C134.924,126.362 139.336,131.04 144.77,131.04C150.203,131.04 154.615,126.362 154.615,120.6L154.615,113.255Z" style="fill:rgb(235,235,235);stroke:black;stroke-width:2.33px;"/>
                        </g>
                        <g id="Right-eye1" serif:id="Right eye" transform="matrix(0.639006,-0.0932429,0.104024,0.712889,-4.68472,94.5194)">
                            <path d="M154.615,111.64C154.615,106.77 150.203,102.815 144.77,102.815C139.336,102.815 134.924,106.77 134.924,111.64L134.924,122.216C134.924,127.086 139.336,131.04 144.77,131.04C150.203,131.04 154.615,127.086 154.615,122.216L154.615,111.64Z"/>
                        </g>
                        <g id="Left-eye" serif:id="Left eye" transform="matrix(1.56791,-0.228787,0.215752,1.47858,-201.077,24.6337)">
                            <path d="M154.615,113.255C154.615,107.493 150.203,102.815 144.77,102.815C139.336,102.815 134.924,107.493 134.924,113.255L134.924,120.6C134.924,126.362 139.336,131.04 144.77,131.04C150.203,131.04 154.615,126.362 154.615,120.6L154.615,113.255Z" style="fill:rgb(235,235,235);stroke:black;stroke-width:2.33px;"/>
                        </g>
                        <g id="Right-eye2" serif:id="Right eye" transform="matrix(0.639006,-0.0932429,0.104024,0.712889,-55.3816,101.917)">
                            <path d="M154.615,111.64C154.615,106.77 150.203,102.815 144.77,102.815C139.336,102.815 134.924,106.77 134.924,111.64L134.924,122.216C134.924,127.086 139.336,131.04 144.77,131.04C150.203,131.04 154.615,127.086 154.615,122.216L154.615,111.64Z"/>
                        </g>
                    </g>
                </g>
            </g>
            <g id="Hand" transform="matrix(1.12866,0,0,1.12866,-24.2188,-23.9275)">
                <g transform="matrix(0.621018,0,0,0.621018,11.7101,83.4017)">
                    <path d="M80.407,55.871L127.884,55.871L127.884,55.884C128.181,55.909 128.48,55.972 128.774,56.075L183.657,75.336C186.459,76.319 187.936,79.393 186.952,82.195C184.647,88.763 177.443,92.225 170.874,89.92L127.884,74.833L127.884,79.325L79.233,79.325C78.217,84.38 76.421,88.242 73.307,88.242C64.871,88.242 57.074,81.162 56.105,80.25L56.042,80.313L31.721,55.992L56.124,31.588L80.407,55.871Z" style="fill:rgb(238,238,238);stroke:black;stroke-width:4.28px;"/>
                </g>
                <g transform="matrix(0.869034,0,0,0.779913,-5.90723,70.027)">
                    <clipPath id="_clip1">
                        <path d="M92.636,74.333L92.636,68.518L122.721,68.518L122.721,90.131L72.785,90.131L72.785,74.333L92.636,74.333Z"/>
                    </clipPath>
                    <g clip-path="url(#_clip1)">
                        <path d="M118.885,79.325C118.885,74.861 115.632,71.236 111.626,71.236L74.917,71.236C70.911,71.236 67.658,74.861 67.658,79.325C67.658,83.789 70.911,87.413 74.917,87.413L111.626,87.413C115.632,87.413 118.885,83.789 118.885,79.325Z" style="fill:rgb(238,238,238);stroke:black;stroke-width:3.22px;"/>
                    </g>
                </g>
            </g>
        </g>
    </g>
</svg>
