<?xml version="1.0" encoding="UTF-8" standalone="no"?>
<!DOCTYPE svg PUBLIC "-//W3C//DTD SVG 1.1//EN" "http://www.w3.org/Graphics/SVG/1.1/DTD/svg11.dtd">
<svg width="100%" height="100%" viewBox="0 0 256 256" version="1.1" xmlns="http://www.w3.org/2000/svg" xmlns:xlink="http://www.w3.org/1999/xlink" xml:space="preserve" xmlns:serif="http://www.serif.com/" style="fill-rule:evenodd;clip-rule:evenodd;stroke-linecap:round;stroke-linejoin:round;stroke-miterlimit:1.5;">
    <g transform="matrix(1,0,0,1,-562,-1405)">
        <g id="blobbee_hmph" transform="matrix(1,0,0,1,562,1405)">
            <rect x="0" y="0" width="256" height="256" style="fill:none;"/>
            <g id="Sting" transform="matrix(0.78314,0.139967,-0.135634,0.7589,67.2303,-21.11)">
                <path d="M189.771,56.854L238.765,34.355L235.05,81.388" style="fill:rgb(104,104,104);stroke:black;stroke-width:12.77px;"/>
            </g>
            <g id="Left-puff-outline" serif:id="Left puff outline" transform="matrix(1.07538,0,0,1.07538,-605.573,-1664.5)">
                <path d="M617.24,1706.88C619.456,1702.47 624.018,1699.44 629.283,1699.44C636.719,1699.44 642.755,1705.48 642.755,1712.91C642.755,1713.92 642.643,1714.91 642.431,1715.85L633.495,1723.02C633.47,1723.1 633.456,1723.15 633.456,1723.15L642.48,1716.1L635.024,1746.03C637.352,1749.92 638.69,1754.47 638.69,1759.32C638.69,1773.63 627.073,1785.25 612.765,1785.25C607.849,1785.25 603.25,1783.88 599.332,1781.5C595.914,1783.73 591.832,1785.02 587.451,1785.02C575.421,1785.02 565.653,1775.26 565.653,1763.23C565.653,1756.03 569.143,1749.65 574.519,1745.68C576.798,1736.06 585.449,1728.9 595.759,1728.9C598.176,1728.9 600.503,1729.29 602.677,1730.02L617.24,1706.88C615.437,1709.74 615.333,1713.36 616.97,1716.33C617.744,1717.73 618.849,1718.88 620.158,1719.7L605.55,1742.91C603.253,1740.04 599.72,1738.2 595.759,1738.2C588.845,1738.2 583.231,1743.81 583.231,1750.73C583.231,1750.97 583.238,1751.21 583.252,1751.45C578.417,1753.18 574.952,1757.8 574.952,1763.23C574.952,1770.12 580.553,1775.72 587.451,1775.72C592.506,1775.72 596.864,1772.72 598.832,1768.39C601.801,1772.94 606.934,1775.95 612.765,1775.95C621.941,1775.95 629.391,1768.5 629.391,1759.32C629.391,1754.96 627.704,1750.98 624.947,1748.01L633.456,1713.85L633.356,1713.83C633.422,1713.53 633.456,1713.23 633.456,1712.91C633.456,1710.61 631.586,1708.74 629.283,1708.74C627.343,1708.74 625.711,1710.07 625.244,1711.86L625.11,1711.83L620.181,1719.66C619.314,1719.1 618.536,1718.39 617.888,1717.55C616.127,1715.27 615.52,1712.31 616.245,1709.52C616.485,1708.6 616.82,1707.71 617.24,1706.88Z"/>
            </g>
            <g id="Right-puff-outline" serif:id="Right puff outline" transform="matrix(-1.07538,0,0,1.07538,760.066,-1664.5)">
                <path d="M617.24,1706.88C617.24,1706.88 602.677,1730.02 602.677,1730.02C600.503,1729.29 598.176,1728.9 595.759,1728.9C585.449,1728.9 576.798,1736.06 574.519,1745.68C569.143,1749.65 565.653,1756.03 565.653,1763.23C565.653,1775.26 575.421,1785.02 587.451,1785.02C591.832,1785.02 595.914,1783.73 599.332,1781.5C603.25,1783.88 607.849,1785.25 612.765,1785.25C627.073,1785.25 638.69,1773.63 638.69,1759.32C638.69,1754.47 637.352,1749.92 635.024,1746.03L642.48,1716.1C641.447,1720.24 637.726,1723.15 633.456,1723.15L633.455,1723.13C637.768,1723.08 641.489,1720.07 642.431,1715.85C642.643,1714.91 642.755,1713.92 642.755,1712.91C642.755,1705.48 636.719,1699.44 629.283,1699.44C624.018,1699.44 619.456,1702.47 617.24,1706.88ZM633.429,1712.44C633.63,1708.23 634.186,1704.46 635.547,1704.79C646.52,1707.45 634.641,1721.63 633.45,1723.02C633.423,1722.39 633.314,1719.64 633.33,1716.46C633.725,1715.76 634.035,1715.01 634.244,1714.2C634.066,1714.88 633.753,1715.51 633.333,1716.05C633.338,1715.45 633.348,1714.84 633.364,1714.22L624.947,1748.01C627.704,1750.98 629.391,1754.96 629.391,1759.32C629.391,1768.5 621.941,1775.95 612.765,1775.95C606.934,1775.95 601.801,1772.94 598.832,1768.39C596.864,1772.72 592.506,1775.72 587.451,1775.72C580.553,1775.72 574.952,1770.12 574.952,1763.23C574.952,1757.8 578.417,1753.18 583.252,1751.45C583.238,1751.21 583.231,1750.97 583.231,1750.73C583.231,1743.81 588.845,1738.2 595.759,1738.2C599.72,1738.2 603.253,1740.04 605.55,1742.91L625.11,1711.83L625.147,1711.84C625.281,1707.11 625.791,1702.43 627.302,1702.79C631.5,1703.81 632.353,1706.51 631.74,1709.54C632.659,1710.21 633.293,1711.25 633.429,1712.44ZM633.375,1713.83C633.376,1713.79 633.377,1713.76 633.379,1713.72C633.372,1713.76 633.364,1713.79 633.356,1713.83L633.375,1713.83Z"/>
            </g>
            <g id="Body" transform="matrix(0.994109,-0.573949,0.761422,1.28301,-120.17,92.6047)">
                <ellipse cx="168.926" cy="110.515" rx="107.942" ry="55.376" style="fill:rgb(104,104,104);stroke:black;stroke-width:7.47px;"/>
            </g>
            <g id="Wings-outline" serif:id="Wings outline" transform="matrix(0.959562,0.127262,-0.127262,0.959562,7.56883,-6.44254)">
                <g transform="matrix(1.17688,-0.575088,0.651434,1.21399,-55.8934,35.953)">
                    <path d="M87.433,14.046C105.289,14.046 121.064,31.835 121.064,54.906C121.064,78.317 104.954,96.336 86.833,96.336C68.977,96.336 53.202,78.546 53.202,55.475C53.202,32.064 69.312,14.046 87.433,14.046ZM87.133,21.55C72.762,21.55 61.095,36.624 61.095,55.191C61.095,73.758 72.762,88.832 87.133,88.832C101.504,88.832 113.171,73.758 113.171,55.191C113.171,36.624 101.504,21.55 87.133,21.55Z"/>
                </g>
                <g transform="matrix(1.24343,0.685066,-0.776012,1.28263,74.2693,-72.8119)">
                    <path d="M86.838,14.653C104.667,14.653 120.454,32.436 120.454,55.47C120.454,78.17 104.998,95.729 87.428,95.729C69.599,95.729 53.812,77.946 53.812,54.911C53.812,32.211 69.268,14.653 86.838,14.653ZM87.133,21.55C72.762,21.55 61.095,36.624 61.095,55.191C61.095,73.758 72.762,88.832 87.133,88.832C101.504,88.832 113.171,73.758 113.171,55.191C113.171,36.624 101.504,21.55 87.133,21.55Z"/>
                </g>
            </g>
            <g id="Stripes" transform="matrix(1,0,0,1,4.4273,10.012)">
                <g transform="matrix(1,-7.43708e-18,-7.43708e-18,1,92.3462,-63.8411)">
                    <path d="M37.588,107.021C36.302,108.044 130.102,103.736 138.911,199.269C185.818,73.536 38.054,97.55 37.588,107.021Z" style="fill:rgb(254,194,7);stroke:black;stroke-width:3px;"/>
                </g>
                <g transform="matrix(1,-7.43708e-18,-7.43708e-18,1,73.4912,-52.6421)">
                    <path d="M157.766,189.064C152.141,96.884 58.714,94.709 59.225,91.972L24.408,104.867C24.408,104.867 137.219,103.115 141.236,211.738L154.889,190.72" style="fill:rgb(104,104,104);stroke:black;stroke-width:3px;"/>
                </g>
                <g transform="matrix(1,-7.43708e-18,-7.43708e-18,1,55.5726,-39.8214)">
                    <path d="M138.184,221.282L158.96,198.917C155.015,90.156 39.958,88.264 39.959,88.304L21.516,99.184C21.345,99.215 140.506,108.796 138.184,221.282Z" style="fill:rgb(254,194,7);stroke:black;stroke-width:3px;"/>
                </g>
                <g transform="matrix(1,-7.43708e-18,-7.43708e-18,1,25.9786,-19.0024)">
                    <path d="M52.67,78.448L32.777,93.969C32.777,93.969 147.14,105.355 145.924,216.369L167.401,201.973C175.368,91.857 51.46,79.379 49.702,80.764" style="fill:rgb(104,104,104);stroke:black;stroke-width:3px;"/>
                </g>
                <g transform="matrix(1,-7.43708e-18,-7.43708e-18,1,-0.424026,-0.546032)">
                    <path d="M54.907,77.629L39.992,93.485C39.992,93.485 145.269,94.435 147.67,208.921L172.327,197.913C176.533,83.454 58.325,78.845 54.907,77.629Z" style="fill:rgb(254,194,7);stroke:black;stroke-width:3px;"/>
                </g>
            </g>
            <g id="Body-outline" serif:id="Body outline" transform="matrix(0.994109,-0.573949,0.761422,1.28301,-120.17,92.6047)">
                <ellipse cx="168.926" cy="110.515" rx="107.942" ry="55.376" style="fill:none;stroke:black;stroke-width:7.47px;"/>
            </g>
            <g id="Wings" transform="matrix(0.959562,0.127262,-0.127262,0.959562,7.56883,-6.44254)">
                <g id="Back-wing" serif:id="Back wing" transform="matrix(1.17688,-0.575088,0.651434,1.21399,-55.8934,35.953)">
                    <ellipse cx="87.133" cy="55.191" rx="26.038" ry="33.641" style="fill:rgb(195,195,195);stroke:black;stroke-width:2.26px;"/>
                </g>
                <g id="Front-wing" serif:id="Front wing" transform="matrix(0.946806,0,0,0.999012,5.86837,0.313874)">
                    <g id="Front-wing-main" serif:id="Front wing main" transform="matrix(1.31328,0.685743,-0.81961,1.2839,72.2439,-73.1981)">
                        <ellipse cx="87.133" cy="55.191" rx="26.038" ry="33.641" style="fill:rgb(195,195,195);stroke:black;stroke-width:2.17px;"/>
                    </g>
                    <path id="Front-wing-line" serif:id="Front wing line" d="M119.334,101.013C123.249,82.03 129.669,61.104 148.451,47.276" style="fill:none;stroke:black;stroke-width:3.18px;"/>
                </g>
            </g>
            <g id="Face" transform="matrix(1,0,0,1,-3.8947,1.36785)">
                <g id="Mouth" transform="matrix(1.84057,0,0,1.84057,-647.785,-1439.27)">
                    <path d="M383.199,891.402C383.199,891.402 384.509,883.338 395.974,883.338C407.439,883.338 408.8,891.53 408.8,891.53" style="fill:none;stroke:black;stroke-width:6.52px;stroke-miterlimit:2;"/>
                    <path d="M383.199,891.402C383.199,891.402 384.509,883.338 395.974,883.338C407.439,883.338 408.8,891.53 408.8,891.53" style="fill:none;stroke:rgb(235,235,235);stroke-width:2.72px;"/>
                </g>
                <g id="Eyes" transform="matrix(1,0,0,1,0,-4.50037)">
                    <g id="Right-eye" serif:id="Right eye" transform="matrix(-0.820337,-0.174022,-0.174022,0.820337,244.572,121.344)">
                        <path d="M139.15,75.147C139.15,75.147 147.255,93.107 169.433,83.396" style="fill:none;stroke:black;stroke-width:13.12px;stroke-miterlimit:2;"/>
                        <path d="M139.15,75.147C139.15,75.147 147.255,93.107 169.433,83.396" style="fill:none;stroke:rgb(235,235,235);stroke-width:5.96px;"/>
                    </g>
                    <g id="Left-eye" serif:id="Left eye" transform="matrix(0.820057,-0.173962,0.173962,0.820057,-80.9507,121.357)">
                        <path d="M139.15,75.147C139.15,75.147 147.255,93.107 169.433,83.396" style="fill:none;stroke:black;stroke-width:13.12px;stroke-miterlimit:2;"/>
                        <path d="M139.15,75.147C139.15,75.147 147.255,93.107 169.433,83.396" style="fill:none;stroke:rgb(235,235,235);stroke-width:5.96px;"/>
                    </g>
                </g>
                <g id="Right-eye1" serif:id="Right eye" transform="matrix(-0.804184,-0.303061,-0.352645,0.935757,436.439,-679.053)">
                    <path d="M64.993,891.53L94.272,891.53" style="fill:none;stroke:black;stroke-width:11.8px;stroke-miterlimit:2;"/>
                    <path d="M64.993,891.53L94.272,891.53" style="fill:none;stroke:rgb(235,235,235);stroke-width:5.36px;"/>
                </g>
                <g id="Right-eye2" serif:id="Right eye" transform="matrix(0.804184,-0.303061,0.352645,0.935757,-277.072,-679.053)">
                    <path d="M64.993,891.53L94.272,891.53" style="fill:none;stroke:black;stroke-width:11.8px;stroke-miterlimit:2;"/>
                    <path d="M64.993,891.53L94.272,891.53" style="fill:none;stroke:rgb(235,235,235);stroke-width:5.36px;"/>
                </g>
            </g>
            <g transform="matrix(1,0,0,1,-562.231,-1530.62)">
                <g id="Left-puff" serif:id="Left puff">
                    <path d="M626.057,1743.56C630.561,1746.81 633.495,1752.1 633.495,1758.07C633.495,1767.94 625.483,1775.95 615.615,1775.95C609.345,1775.95 603.825,1772.72 600.632,1767.83C598.516,1772.47 593.829,1775.71 588.393,1775.71C580.975,1775.71 574.952,1769.68 574.952,1762.27C574.952,1756.43 578.678,1751.46 583.878,1749.6C583.863,1749.35 583.855,1749.09 583.855,1748.82C583.855,1741.39 589.892,1735.35 597.327,1735.35C601.351,1735.35 604.964,1737.12 607.434,1739.92L625.11,1711.83L625.244,1711.86C625.711,1710.07 627.343,1708.74 629.283,1708.74C631.586,1708.74 633.456,1710.61 633.456,1712.91C633.456,1713.23 633.422,1713.53 633.356,1713.83L633.456,1713.85L626.057,1743.56Z" style="fill:rgb(245,248,250);"/>
                    <path d="M623.537,1714.33C623.287,1714.16 623.062,1713.94 622.871,1713.7C622.303,1712.96 622.107,1712.01 622.341,1711.11C623.143,1708.02 625.949,1705.74 629.283,1705.74C633.242,1705.74 636.456,1708.96 636.456,1712.91C636.456,1713.45 636.397,1713.98 636.284,1714.48L633.492,1716.72C633.469,1716.8 633.456,1716.85 633.456,1716.85L636.367,1714.58L629.432,1742.42C633.763,1746.25 636.495,1751.84 636.495,1758.07C636.495,1769.6 627.139,1778.95 615.615,1778.95C609.89,1778.95 604.699,1776.64 600.925,1772.9C597.909,1776.45 593.412,1778.71 588.393,1778.71C579.319,1778.71 571.952,1771.34 571.952,1762.27C571.952,1755.89 575.588,1750.36 580.898,1747.63C581.51,1739.1 588.637,1732.35 597.327,1732.35C600.841,1732.35 604.1,1733.45 606.776,1735.33L622.571,1710.23C621.989,1711.16 621.956,1712.33 622.484,1713.28C622.734,1713.73 623.09,1714.1 623.512,1714.37L607.434,1739.92C604.964,1737.12 601.351,1735.35 597.327,1735.35C589.892,1735.35 583.855,1741.39 583.855,1748.82C583.855,1749.09 583.863,1749.35 583.878,1749.6C578.678,1751.46 574.952,1756.43 574.952,1762.27C574.952,1769.68 580.975,1775.71 588.393,1775.71C593.829,1775.71 598.516,1772.47 600.632,1767.83C603.825,1772.72 609.345,1775.95 615.615,1775.95C625.483,1775.95 633.495,1767.94 633.495,1758.07C633.495,1752.1 630.561,1746.81 626.057,1743.56L633.456,1713.85L633.356,1713.83C633.422,1713.53 633.456,1713.23 633.456,1712.91C633.456,1710.61 631.586,1708.74 629.283,1708.74C627.343,1708.74 625.711,1710.07 625.244,1711.86L625.11,1711.83L623.537,1714.33Z"/>
                </g>
            </g>
            <g id="right-puff" serif:id="right puff" transform="matrix(-1.19659,0,0,1.19659,239.783,-11.753)">
                <g transform="matrix(1,0,0,1,-562.231,-1530.62)">
                    <path d="M692.948,1693.55L693.032,1693.57L685.175,1725.11L669.27,1718.56L686.057,1691.88L686.169,1691.91C686.559,1690.41 687.923,1689.3 689.544,1689.3C691.469,1689.3 693.032,1690.86 693.032,1692.79C693.032,1693.05 693.003,1693.3 692.948,1693.55Z" style="fill:rgb(245,248,250);"/>
                    <path d="M683.964,1690.6L683.935,1690.55L667.148,1717.22C666.754,1717.85 666.657,1718.61 666.882,1719.32C667.107,1720.02 667.631,1720.59 668.315,1720.87L684.22,1727.43C684.894,1727.71 685.655,1727.68 686.306,1727.35C686.956,1727.02 687.432,1726.42 687.608,1725.72L695.465,1694.17C695.186,1695.29 694.183,1696.08 693.032,1696.08L693.034,1696.05C694.172,1696.02 695.145,1695.21 695.395,1694.1C695.489,1693.67 695.539,1693.24 695.539,1692.79C695.539,1689.48 692.853,1686.79 689.544,1686.79C687.009,1686.79 684.839,1688.37 683.964,1690.6ZM692.948,1693.55L693.032,1693.57L685.175,1725.11L669.27,1718.56L686.057,1691.88L686.169,1691.91C686.559,1690.41 687.923,1689.3 689.544,1689.3C691.469,1689.3 693.032,1690.86 693.032,1692.79C693.032,1693.05 693.003,1693.3 692.948,1693.55Z"/>
                </g>
                <g transform="matrix(1.07538,0,0,1.07538,-610.789,-1662.2)">
                    <path d="M664.096,1739.15C662.451,1742.76 658.809,1745.28 654.585,1745.28C648.82,1745.28 644.14,1740.6 644.14,1734.83C644.14,1730.3 647.035,1726.43 651.076,1724.99C651.064,1724.79 651.059,1724.59 651.059,1724.38C651.059,1718.61 655.75,1713.92 661.528,1713.92C665.236,1713.92 668.496,1715.85 670.357,1718.76C672.013,1718.06 673.832,1717.68 675.74,1717.68C683.409,1717.68 689.635,1723.9 689.635,1731.57C689.635,1739.24 683.409,1745.47 675.74,1745.47C670.867,1745.47 666.577,1742.95 664.096,1739.15Z" style="fill:rgb(225,232,237);"/>
                    <path d="M648.76,1723.46C644.634,1725.58 641.808,1729.88 641.808,1734.83C641.808,1741.88 647.533,1747.61 654.585,1747.61C658.485,1747.61 661.98,1745.86 664.324,1743.1C667.256,1746 671.29,1747.8 675.74,1747.8C684.695,1747.8 691.966,1740.53 691.966,1731.57C691.966,1722.62 684.695,1715.35 675.74,1715.35C674.161,1715.35 672.634,1715.57 671.191,1715.99C668.844,1713.29 665.384,1711.58 661.528,1711.58C654.775,1711.58 649.236,1716.83 648.76,1723.46ZM664.096,1739.15C662.451,1742.76 658.809,1745.28 654.585,1745.28C648.82,1745.28 644.14,1740.6 644.14,1734.83C644.14,1730.3 647.035,1726.43 651.076,1724.99C651.064,1724.79 651.059,1724.59 651.059,1724.38C651.059,1718.61 655.75,1713.92 661.528,1713.92C665.236,1713.92 668.496,1715.85 670.357,1718.76C672.013,1718.06 673.832,1717.68 675.74,1717.68C683.409,1717.68 689.635,1723.9 689.635,1731.57C689.635,1739.24 683.409,1745.47 675.74,1745.47C670.867,1745.47 666.577,1742.95 664.096,1739.15Z"/>
                </g>
            </g>
            <g transform="matrix(1,0,0,1,-562.231,-1530.62)">
                <g id="right-puff1" serif:id="right puff">
                    <path d="M652.897,1743.56L645.498,1713.85L645.598,1713.83C645.532,1713.53 645.498,1713.23 645.498,1712.91C645.498,1710.61 647.368,1708.74 649.671,1708.74C651.611,1708.74 653.243,1710.07 653.71,1711.86L653.844,1711.83L671.52,1739.92C673.99,1737.12 677.603,1735.35 681.627,1735.35C689.062,1735.35 695.099,1741.39 695.099,1748.82C695.099,1749.09 695.091,1749.35 695.076,1749.6C700.276,1751.46 704.002,1756.43 704.002,1762.27C704.002,1769.68 697.979,1775.71 690.561,1775.71C685.125,1775.71 680.438,1772.47 678.322,1767.83C675.13,1772.72 669.609,1775.95 663.339,1775.95C653.471,1775.95 645.459,1767.94 645.459,1758.07C645.459,1752.1 648.393,1746.81 652.897,1743.56Z" style="fill:rgb(245,248,250);"/>
                    <path d="M645.498,1716.85L645.495,1716.83C644.134,1716.78 642.969,1715.82 642.67,1714.48C642.558,1713.98 642.498,1713.45 642.498,1712.91C642.498,1708.96 645.712,1705.74 649.671,1705.74C652.705,1705.74 655.301,1707.63 656.349,1710.3L656.383,1710.23C656.383,1710.23 672.178,1735.33 672.178,1735.33C674.854,1733.45 678.113,1732.35 681.627,1732.35C690.317,1732.35 697.444,1739.1 698.056,1747.63C703.366,1750.36 707.002,1755.89 707.002,1762.27C707.002,1771.34 699.635,1778.71 690.561,1778.71C685.542,1778.71 681.045,1776.45 678.029,1772.9C674.255,1776.64 669.064,1778.95 663.339,1778.95C651.815,1778.95 642.459,1769.6 642.459,1758.07C642.459,1751.84 645.191,1746.25 649.522,1742.42L642.587,1714.58C642.92,1715.91 644.12,1716.85 645.498,1716.85ZM652.897,1743.56C648.393,1746.81 645.459,1752.1 645.459,1758.07C645.459,1767.94 653.471,1775.95 663.339,1775.95C669.609,1775.95 675.13,1772.72 678.322,1767.83C680.438,1772.47 685.125,1775.71 690.561,1775.71C697.979,1775.71 704.002,1769.68 704.002,1762.27C704.002,1756.43 700.276,1751.46 695.076,1749.6C695.091,1749.35 695.099,1749.09 695.099,1748.82C695.099,1741.39 689.062,1735.35 681.627,1735.35C677.603,1735.35 673.99,1737.12 671.52,1739.92L653.844,1711.83L653.71,1711.86C653.243,1710.07 651.611,1708.74 649.671,1708.74C647.368,1708.74 645.498,1710.61 645.498,1712.91C645.498,1713.23 645.532,1713.53 645.598,1713.83L645.498,1713.85L652.897,1743.56Z"/>
                </g>
            </g>
        </g>
    </g>
</svg>
