<?xml version="1.0" encoding="UTF-8" standalone="no"?>
<!DOCTYPE svg PUBLIC "-//W3C//DTD SVG 1.1//EN" "http://www.w3.org/Graphics/SVG/1.1/DTD/svg11.dtd">
<svg width="100%" height="100%" viewBox="0 0 256 256" version="1.1" xmlns="http://www.w3.org/2000/svg" xmlns:xlink="http://www.w3.org/1999/xlink" xml:space="preserve" xmlns:serif="http://www.serif.com/" style="fill-rule:evenodd;clip-rule:evenodd;stroke-linecap:round;stroke-linejoin:round;stroke-miterlimit:1.5;">
    <rect id="blobbee_flag_bi" x="-0" y="0" width="256" height="256" style="fill:none;"/>
    <path id="Wings-outline" serif:id="Wings outline" d="M85.911,118.96C64.22,119.951 40.081,103.608 29.74,76.187C17.462,43.633 30.423,11.638 54.705,3.519C72.712,-2.502 94.597,5.565 109.433,23.705C130.196,10.768 154.388,9.924 170.338,21.686C192.186,37.798 194.54,74.364 171.369,103.256C148.655,131.579 112.048,138.809 90.631,123.014C88.938,121.766 87.365,120.412 85.911,118.96ZM92.141,102.617C93.99,105.847 96.453,108.67 99.534,110.942C115.64,122.82 142.585,115.171 159.667,93.871C176.749,72.572 177.541,45.636 161.435,33.758C146.642,22.849 122.705,28.412 105.665,45.894C96.041,24.687 76.012,12.211 59.461,17.745C41.949,23.6 34.92,47.416 43.775,70.894C52.629,94.372 74.036,108.68 91.548,102.824C91.747,102.758 91.945,102.689 92.141,102.617Z"/>
    <path id="Body" d="M85.271,72.055C145.288,37.404 213.16,41.534 236.743,81.272C260.326,121.009 230.747,181.404 170.729,216.054C110.712,250.705 42.84,246.576 19.257,206.838C-4.326,167.1 25.253,106.706 85.271,72.055Z" style="fill:rgb(254,194,7);"/>
    <g id="Stripes">
        <path d="M133.743,56.022C133.757,56.012 133.782,56 133.817,55.987L136.564,54.684C136.528,54.877 136.965,55.054 137.81,55.247C160.437,51.81 268.598,42.728 235.792,148.903L221.87,171.756C217.852,63.134 116.315,64.29 116.315,64.29L133.743,56.022Z" style="fill:rgb(117,112,255);"/>
        <path d="M91.396,69.531C91.409,69.518 91.444,69.507 91.499,69.498L116.315,61.404C116.314,61.364 217.925,62.995 221.87,171.756L205.074,189.432C205.065,189.742 205.054,190.053 205.043,190.364L185.883,205.054L185.836,205.054C188.545,95.255 72.517,80.689 72.517,80.689L91.396,69.531Z" style="fill:rgb(174,124,255);"/>
        <path d="M55.076,94.338C55.529,94.499 57.917,94.756 61.711,95.347C57.529,94.582 55.076,94.338 55.076,94.338L72.517,80.689C74.275,79.304 195.215,94.098 187.248,204.214L168.224,216.739L147.839,225.63C145.438,111.144 40.161,110.194 40.161,110.194L55.076,94.338Z" style="fill:rgb(236,143,230);"/>
    </g>
    <path id="Body-outline" serif:id="Body outline" d="M85.271,72.055C145.288,37.404 213.16,41.534 236.743,81.272C260.326,121.009 230.747,181.404 170.729,216.054C110.712,250.705 42.84,246.576 19.257,206.838C-4.326,167.1 25.253,106.706 85.271,72.055Z" style="fill:none;stroke:black;stroke-width:15px;"/>
    <g id="Wings">
        <path id="Back-wing" serif:id="Back wing" d="M59.461,17.745C76.973,11.89 98.38,26.197 107.234,49.675C116.089,73.154 109.06,96.969 91.548,102.824C74.036,108.68 52.629,94.372 43.775,70.894C34.92,47.416 41.949,23.6 59.461,17.745Z" style="fill:rgb(167,167,167);"/>
        <path id="Front-wing" serif:id="Front wing" d="M161.435,33.758C177.541,45.636 176.749,72.572 159.667,93.871C142.585,115.171 115.64,122.82 99.534,110.942C83.427,99.064 84.219,72.128 101.301,50.829C118.383,29.529 145.328,21.88 161.435,33.758Z" style="fill:rgb(195,195,195);"/>
    </g>
    <g id="Face">
        <path id="Mouth" d="M39.896,195.627L47.929,209.133L58.753,195.651L72.162,209.096L88.135,195.667" style="fill:none;stroke:black;stroke-width:7px;"/>
        <path id="Right-eye" serif:id="Right eye" d="M99.128,165.816L99.128,171.592C99.128,177.659 94.202,182.585 88.135,182.585C82.068,182.585 77.142,177.659 77.142,171.592L77.142,165.816C77.142,159.749 82.068,154.823 88.135,154.823C94.202,154.823 99.128,159.749 99.128,165.816Z"/>
        <path id="Left-eye" serif:id="Left eye" d="M50.889,165.816L50.889,171.592C50.889,177.659 45.963,182.585 39.896,182.585C33.828,182.585 28.903,177.659 28.903,171.592L28.903,165.816C28.903,159.749 33.828,154.823 39.896,154.823C45.963,154.823 50.889,159.749 50.889,165.816Z"/>
    </g>
</svg>
