<?xml version="1.0" encoding="UTF-8" standalone="no"?>
<!DOCTYPE svg PUBLIC "-//W3C//DTD SVG 1.1//EN" "http://www.w3.org/Graphics/SVG/1.1/DTD/svg11.dtd">
<svg width="100%" height="100%" viewBox="0 0 256 256" version="1.1" xmlns="http://www.w3.org/2000/svg" xmlns:xlink="http://www.w3.org/1999/xlink" xml:space="preserve" xmlns:serif="http://www.serif.com/" style="fill-rule:evenodd;clip-rule:evenodd;stroke-linecap:round;stroke-linejoin:round;stroke-miterlimit:1.5;">
    <rect id="blobbee_bottom" x="0" y="0" width="256" height="256" style="fill:none;"/>
    <clipPath id="_clip1">
        <rect x="0" y="0" width="256" height="256"/>
    </clipPath>
    <g clip-path="url(#_clip1)">
        <path id="Wings-outline" serif:id="Wings outline" d="M130.856,59.756C103.019,62.47 71.403,41.235 57.982,5.65C42.637,-35.039 58.037,-75.299 88.386,-85.447C112.041,-93.356 140.798,-81.45 159.283,-56.218C186.131,-74.864 218.386,-77.209 239.378,-61.728C266.807,-41.5 268.887,4.414 239.797,40.686C211.162,76.39 165.207,86.274 138.208,66.364C135.509,64.373 133.058,62.162 130.856,59.756ZM137.155,43.08C139.645,47.429 142.961,51.231 147.111,54.291C168.802,70.288 205.09,59.987 228.095,31.302C251.1,2.617 252.167,-33.659 230.475,-49.656C210.553,-64.348 178.317,-56.856 155.368,-33.312C142.407,-61.872 115.433,-78.674 93.143,-71.221C69.559,-63.336 60.093,-31.263 72.017,0.357C83.942,31.976 112.771,51.244 136.356,43.359C136.624,43.269 136.89,43.176 137.155,43.08Z"/>
        <path id="Right-hand-outline" serif:id="Right hand outline" d="M153.86,184.349C155.369,173.913 164.36,165.883 175.212,165.883C187.12,165.883 196.788,175.551 196.788,187.459L196.788,230.383C196.788,243.362 186.25,253.899 173.271,253.899L150.222,253.899C137.243,253.899 126.706,243.362 126.706,230.383L126.706,227.191L114.95,227.191C103.128,227.191 93.529,217.592 93.529,205.77C93.529,193.948 103.128,184.349 114.95,184.349L153.86,184.349ZM181.788,230.383L181.788,187.459C181.788,183.83 178.841,180.883 175.212,180.883C171.583,180.883 168.637,183.83 168.637,187.459L168.637,199.349L114.95,199.349C111.406,199.349 108.529,202.226 108.529,205.77C108.529,209.314 111.406,212.191 114.95,212.191L141.706,212.191L141.706,230.383C141.706,235.083 145.522,238.899 150.222,238.899L173.271,238.899C177.971,238.899 181.788,235.083 181.788,230.383Z"/>
        <path id="Left-hand-outline" serif:id="Left hand outline" d="M45.573,184.349L84.482,184.349C96.305,184.349 105.903,193.948 105.903,205.77C105.903,217.592 96.305,227.191 84.482,227.191C84.482,227.191 72.726,227.191 72.726,227.191L72.726,230.383C72.726,243.362 62.189,253.899 49.21,253.899L26.161,253.899C13.182,253.899 2.645,243.362 2.645,230.383L2.645,187.459C2.645,175.551 12.312,165.883 24.22,165.883C35.072,165.883 44.064,173.913 45.573,184.349ZM17.645,230.383C17.645,235.083 21.461,238.899 26.161,238.899L49.21,238.899C53.91,238.899 57.726,235.083 57.726,230.383L57.726,212.191L84.482,212.191C88.026,212.191 90.903,209.314 90.903,205.77C90.903,202.226 88.026,199.349 84.482,199.349L30.796,199.349L30.796,187.459C30.796,183.83 27.849,180.883 24.22,180.883C20.591,180.883 17.645,183.83 17.645,187.459L17.645,230.383Z"/>
        <path id="Body" d="M127.902,1.921C208.729,-44.745 300.137,-39.183 331.897,14.333C363.657,67.85 323.82,149.185 242.993,195.851C162.165,242.517 70.758,236.955 38.998,183.439C7.237,129.922 47.074,48.587 127.902,1.921Z" style="fill:rgb(254,194,7);"/>
        <g id="Stripes">
            <path d="M188.793,-16.095C187.039,-14.699 315.054,-20.58 327.076,109.803C391.095,-61.796 189.429,-29.021 188.793,-16.095Z" style="fill:rgb(85,85,85);"/>
            <path d="M327.076,111.159C319.401,-14.647 191.893,-17.614 192.59,-21.35L145.073,-3.751C145.073,-3.751 299.034,-6.142 304.518,142.104L323.15,113.42" style="fill:rgb(254,194,7);"/>
            <path d="M275.897,172.628L304.252,142.104C298.868,-6.332 141.84,-8.914 141.842,-8.859L116.671,5.99C116.437,6.032 279.066,19.108 275.897,172.628Z" style="fill:rgb(85,85,85);"/>
            <path d="M118.8,6.104L91.65,27.286C91.65,27.286 247.73,42.825 246.071,194.336L275.383,174.688C286.256,24.404 117.148,7.374 114.749,9.264" style="fill:rgb(254,194,7);"/>
            <path d="M85.819,30.174L65.463,51.814C65.463,51.814 209.143,53.111 212.42,209.36L246.071,194.336C251.812,38.125 90.484,31.835 85.819,30.174Z" style="fill:rgb(85,85,85);"/>
        </g>
        <path id="Body-outline" serif:id="Body outline" d="M127.902,1.921C208.729,-44.745 300.137,-39.183 331.897,14.333C363.657,67.85 323.82,149.185 242.993,195.851C162.165,242.517 70.758,236.955 38.998,183.439C7.237,129.922 47.074,48.587 127.902,1.921Z" style="fill:none;stroke:black;stroke-width:15px;"/>
        <g id="Wings">
            <path id="Back-wing" serif:id="Back wing" d="M93.143,-71.221C116.727,-79.107 145.556,-59.838 157.481,-28.219C169.406,3.4 159.94,35.473 136.356,43.359C112.771,51.244 83.942,31.976 72.017,0.357C60.093,-31.263 69.559,-63.336 93.143,-71.221Z" style="fill:rgb(167,167,167);"/>
            <path id="Front-wing" serif:id="Front wing" d="M230.475,-49.656C252.167,-33.659 251.1,2.617 228.095,31.302C205.09,59.987 168.802,70.288 147.111,54.291C125.419,38.295 126.486,2.019 149.491,-26.666C172.496,-55.351 208.784,-65.652 230.475,-49.656Z" style="fill:rgb(195,195,195);"/>
        </g>
        <g id="Face">
            <path id="Mouth" d="M81.944,183.947L97.86,168.462L117.594,184.357" style="fill:none;stroke:black;stroke-width:10px;"/>
            <g id="Eyes">
                <g id="Right-eye" serif:id="Right eye">
                    <circle id="Eye-white" serif:id="Eye white" cx="130.511" cy="138.02" r="23.779" style="fill:white;"/>
                    <circle id="Pupil" cx="127.449" cy="134.995" r="20.392"/>
                    <path id="Eye-reflection-top" serif:id="Eye reflection top" d="M116.435,124.142C120.462,120.114 126.262,119.374 129.377,122.489C132.493,125.605 131.752,131.404 127.724,135.432C123.697,139.46 117.897,140.2 114.782,137.085C111.666,133.969 112.407,128.17 116.435,124.142Z" style="fill:white;"/>
                    <path id="Eye-reflection-bottom" serif:id="Eye reflection bottom" d="M137.373,139.908C137.373,139.908 136.174,144.044 131.932,144.949" style="fill:none;stroke:rgb(151,151,151);stroke-width:8px;"/>
                </g>
                <g id="Left-eye" serif:id="Left eye">
                    <circle id="Eye-white1" serif:id="Eye white" cx="69.924" cy="138.02" r="23.779" style="fill:white;"/>
                    <circle id="Pupil1" serif:id="Pupil" cx="66.863" cy="134.995" r="20.392"/>
                    <path id="Eye-reflection-top1" serif:id="Eye reflection top" d="M55.848,124.142C59.876,120.114 65.675,119.374 68.791,122.489C71.906,125.605 71.166,131.404 67.138,135.432C63.11,139.46 57.311,140.2 54.195,137.085C51.08,133.969 51.82,128.17 55.848,124.142Z" style="fill:white;"/>
                    <path id="Eye-reflection-bottom1" serif:id="Eye reflection bottom" d="M76.787,139.908C76.787,139.908 75.588,144.044 71.346,144.949" style="fill:none;stroke:rgb(151,151,151);stroke-width:8px;"/>
                </g>
            </g>
            <g id="Eyebrows">
                <path id="Right-eyebrow" serif:id="Right eyebrow" d="M119.24,93.778C119.24,93.778 123.395,106.434 143.404,100.768" style="fill:none;stroke:black;stroke-width:10px;"/>
                <path id="Left-eyebrow" serif:id="Left eyebrow" d="M80.867,93.778C80.867,93.778 76.712,106.434 56.702,100.768" style="fill:none;stroke:black;stroke-width:10px;"/>
            </g>
        </g>
        <path id="Right-hand" serif:id="Right hand" d="M181.788,230.383L181.788,187.459C181.788,183.83 178.841,180.883 175.212,180.883C171.583,180.883 168.637,183.83 168.637,187.459L168.637,199.349L114.95,199.349C111.406,199.349 108.529,202.226 108.529,205.77C108.529,209.314 111.406,212.191 114.95,212.191L141.706,212.191L141.706,230.383C141.706,235.083 145.522,238.899 150.222,238.899L173.271,238.899C177.971,238.899 181.788,235.083 181.788,230.383Z" style="fill:rgb(151,151,151);"/>
        <path d="M191.788,230.383C191.788,240.602 183.491,248.899 173.271,248.899L150.222,248.899C140.003,248.899 131.706,240.602 131.706,230.383L131.706,222.191L114.95,222.191C105.887,222.191 98.529,214.833 98.529,205.77C98.529,196.707 105.887,189.349 114.95,189.349L158.637,189.349L158.637,187.459C158.637,178.31 166.064,170.883 175.212,170.883C184.36,170.883 191.788,178.31 191.788,187.459L191.788,230.383ZM181.788,230.383L181.788,187.459C181.788,183.83 178.841,180.883 175.212,180.883C171.583,180.883 168.637,183.83 168.637,187.459L168.637,199.349L114.95,199.349C111.406,199.349 108.529,202.226 108.529,205.77C108.529,209.314 111.406,212.191 114.95,212.191L141.706,212.191L141.706,230.383C141.706,235.083 145.522,238.899 150.222,238.899L173.271,238.899C177.971,238.899 181.788,235.083 181.788,230.383Z"/>
        <path id="Left-hand" serif:id="Left hand" d="M17.645,230.383L17.645,187.459C17.645,183.83 20.591,180.883 24.22,180.883C27.849,180.883 30.796,183.83 30.796,187.459L30.796,199.349L84.482,199.349C88.026,199.349 90.903,202.226 90.903,205.77C90.903,209.314 88.026,212.191 84.482,212.191L57.726,212.191L57.726,230.383C57.726,235.083 53.91,238.899 49.21,238.899L26.161,238.899C21.461,238.899 17.645,235.083 17.645,230.383Z" style="fill:rgb(151,151,151);"/>
        <path d="M7.645,230.383L7.645,187.459C7.645,178.31 15.072,170.883 24.22,170.883C33.368,170.883 40.796,178.31 40.796,187.459L40.796,189.349L84.482,189.349C93.545,189.349 100.903,196.707 100.903,205.77C100.903,214.833 93.545,222.191 84.482,222.191L67.726,222.191L67.726,230.383C67.726,240.602 59.429,248.899 49.21,248.899L26.161,248.899C15.942,248.899 7.645,240.602 7.645,230.383ZM17.645,230.383C17.645,235.083 21.461,238.899 26.161,238.899L49.21,238.899C53.91,238.899 57.726,235.083 57.726,230.383L57.726,212.191L84.482,212.191C88.026,212.191 90.903,209.314 90.903,205.77C90.903,202.226 88.026,199.349 84.482,199.349L30.796,199.349L30.796,187.459C30.796,183.83 27.849,180.883 24.22,180.883C20.591,180.883 17.645,183.83 17.645,187.459L17.645,230.383Z"/>
    </g>
</svg>
