<?xml version="1.0" encoding="UTF-8" standalone="no"?>
<!DOCTYPE svg PUBLIC "-//W3C//DTD SVG 1.1//EN" "http://www.w3.org/Graphics/SVG/1.1/DTD/svg11.dtd">
<svg width="100%" height="100%" viewBox="0 0 256 257" version="1.1" xmlns="http://www.w3.org/2000/svg" xmlns:xlink="http://www.w3.org/1999/xlink" xml:space="preserve" xmlns:serif="http://www.serif.com/" style="fill-rule:evenodd;clip-rule:evenodd;stroke-linecap:round;stroke-linejoin:round;stroke-miterlimit:1.5;">
    <g transform="matrix(1,0,0,1,-1124,-563)">
        <g id="blobbee_sweat_smile" transform="matrix(1,0,0,1,1124,563.267)">
            <rect x="0" y="0" width="256" height="256" style="fill:none;"/>
            <g id="Sting" transform="matrix(0.78314,0.139967,-0.135634,0.7589,67.2303,-21.11)">
                <path d="M189.771,56.854L238.765,34.355L235.05,81.388" style="fill:rgb(104,104,104);stroke:black;stroke-width:12.77px;"/>
            </g>
            <g id="Body" transform="matrix(0.994109,-0.573949,0.761422,1.28301,-120.17,92.6047)">
                <ellipse cx="168.926" cy="110.515" rx="107.942" ry="55.376" style="fill:rgb(104,104,104);stroke:black;stroke-width:7.47px;"/>
            </g>
            <g id="Wings-outline" serif:id="Wings outline" transform="matrix(0.959562,0.127262,-0.127262,0.959562,7.56883,-6.44254)">
                <g transform="matrix(1.17688,-0.575088,0.651434,1.21399,-55.8934,35.953)">
                    <path d="M87.433,14.046C105.289,14.046 121.064,31.835 121.064,54.906C121.064,78.317 104.954,96.336 86.833,96.336C68.977,96.336 53.202,78.546 53.202,55.475C53.202,32.064 69.312,14.046 87.433,14.046ZM87.133,21.55C72.762,21.55 61.095,36.624 61.095,55.191C61.095,73.758 72.762,88.832 87.133,88.832C101.504,88.832 113.171,73.758 113.171,55.191C113.171,36.624 101.504,21.55 87.133,21.55Z"/>
                </g>
                <g transform="matrix(1.24343,0.685066,-0.776012,1.28263,74.2693,-72.8119)">
                    <path d="M86.838,14.653C104.667,14.653 120.454,32.436 120.454,55.47C120.454,78.17 104.998,95.729 87.428,95.729C69.599,95.729 53.812,77.946 53.812,54.911C53.812,32.211 69.268,14.653 86.838,14.653ZM87.133,21.55C72.762,21.55 61.095,36.624 61.095,55.191C61.095,73.758 72.762,88.832 87.133,88.832C101.504,88.832 113.171,73.758 113.171,55.191C113.171,36.624 101.504,21.55 87.133,21.55Z"/>
                </g>
            </g>
            <g id="Stripes" transform="matrix(1,0,0,1,4.4273,10.012)">
                <g transform="matrix(1,-7.43708e-18,-7.43708e-18,1,92.3462,-63.8411)">
                    <path d="M37.588,107.021C36.302,108.044 130.102,103.736 138.911,199.269C185.818,73.536 38.054,97.55 37.588,107.021Z" style="fill:rgb(254,194,7);stroke:black;stroke-width:3px;"/>
                </g>
                <g transform="matrix(1,-7.43708e-18,-7.43708e-18,1,73.4912,-52.6421)">
                    <path d="M157.766,189.064C152.141,96.884 58.714,94.709 59.225,91.972L24.408,104.867C24.408,104.867 137.219,103.115 141.236,211.738L154.889,190.72" style="fill:rgb(104,104,104);stroke:black;stroke-width:3px;"/>
                </g>
                <g transform="matrix(1,-7.43708e-18,-7.43708e-18,1,55.5726,-39.8214)">
                    <path d="M138.184,221.282L158.96,198.917C155.015,90.156 39.958,88.264 39.959,88.304L21.516,99.184C21.345,99.215 140.506,108.796 138.184,221.282Z" style="fill:rgb(254,194,7);stroke:black;stroke-width:3px;"/>
                </g>
                <g transform="matrix(1,-7.43708e-18,-7.43708e-18,1,25.9786,-19.0024)">
                    <path d="M52.67,78.448L32.777,93.969C32.777,93.969 147.14,105.355 145.924,216.369L167.401,201.973C175.368,91.857 51.46,79.379 49.702,80.764" style="fill:rgb(104,104,104);stroke:black;stroke-width:3px;"/>
                </g>
                <g transform="matrix(1,-7.43708e-18,-7.43708e-18,1,-0.424026,-0.546032)">
                    <path d="M54.907,77.629L39.992,93.485C39.992,93.485 145.269,94.435 147.67,208.921L172.327,197.913C176.533,83.454 58.325,78.845 54.907,77.629Z" style="fill:rgb(254,194,7);stroke:black;stroke-width:3px;"/>
                </g>
            </g>
            <g id="Body-outline" serif:id="Body outline" transform="matrix(0.994109,-0.573949,0.761422,1.28301,-120.17,92.6047)">
                <ellipse cx="168.926" cy="110.515" rx="107.942" ry="55.376" style="fill:none;stroke:black;stroke-width:7.47px;"/>
            </g>
            <g id="Wings" transform="matrix(0.959562,0.127262,-0.127262,0.959562,7.56883,-6.44254)">
                <g id="Back-wing" serif:id="Back wing" transform="matrix(1.17688,-0.575088,0.651434,1.21399,-55.8934,35.953)">
                    <ellipse cx="87.133" cy="55.191" rx="26.038" ry="33.641" style="fill:rgb(195,195,195);stroke:black;stroke-width:2.26px;"/>
                </g>
                <g id="Front-wing" serif:id="Front wing" transform="matrix(0.946806,0,0,0.999012,5.86837,0.313874)">
                    <g id="Front-wing-main" serif:id="Front wing main" transform="matrix(1.31328,0.685743,-0.81961,1.2839,72.2439,-73.1981)">
                        <ellipse cx="87.133" cy="55.191" rx="26.038" ry="33.641" style="fill:rgb(195,195,195);stroke:black;stroke-width:2.17px;"/>
                    </g>
                    <path id="Front-wing-line" serif:id="Front wing line" d="M119.334,101.013C123.249,82.03 129.669,61.104 148.451,47.276" style="fill:none;stroke:black;stroke-width:3.18px;"/>
                </g>
            </g>
            <g id="Face" transform="matrix(1,0,0,1,-10.5189,1.36785)">
                <g id="Mouth" transform="matrix(0.576206,0,0,0.576206,24.8306,94.6873)">
                    <g transform="matrix(1.10126,0,0,1.25296,-1249.14,-759.985)">
                        <path d="M1181.5,741.242C1181.5,735.385 1186.9,730.637 1193.56,730.637C1207.54,730.637 1235.63,730.637 1249.61,730.637C1256.27,730.637 1261.67,735.384 1261.67,741.242C1261.67,741.244 1261.67,741.245 1261.67,741.247C1261.67,747.739 1257.64,753.838 1250.76,758.396C1245.33,761.988 1238.73,763.931 1231.93,763.931C1225.97,763.931 1217.2,763.931 1211.24,763.931C1204.44,763.931 1197.84,761.988 1192.41,758.395C1185.53,753.838 1181.5,747.739 1181.5,741.247C1181.5,741.245 1181.5,741.244 1181.5,741.242Z" style="fill:rgb(160,25,25);"/>
                        <path d="M1266.4,741.247C1266.4,748.964 1261.79,756.298 1253.6,761.715C1247.36,765.85 1239.75,768.086 1231.93,768.086C1225.97,768.086 1217.2,768.086 1211.24,768.086C1203.42,768.086 1195.81,765.85 1189.57,761.714C1181.38,756.298 1176.77,748.964 1176.77,741.247L1176.77,741.241C1176.77,733.089 1184.29,726.482 1193.56,726.482C1207.54,726.482 1235.63,726.482 1249.61,726.482C1258.88,726.481 1266.4,733.089 1266.4,741.241C1266.4,741.243 1266.4,741.245 1266.4,741.247C1266.4,741.827 1266.26,742.4 1265.99,742.93C1266.28,742.363 1266.4,741.814 1266.4,741.247ZM1181.5,741.242L1181.5,741.247C1181.5,747.739 1185.53,753.838 1192.41,758.395C1197.84,761.988 1204.44,763.931 1211.24,763.931C1217.2,763.931 1225.97,763.931 1231.93,763.931C1238.73,763.931 1245.33,761.988 1250.76,758.396C1257.64,753.838 1261.67,747.739 1261.67,741.247C1261.67,741.245 1261.67,741.244 1261.67,741.242C1261.67,735.384 1256.27,730.637 1249.61,730.637C1235.63,730.637 1207.54,730.637 1193.56,730.637C1186.9,730.637 1181.5,735.385 1181.5,741.242Z"/>
                    </g>
                    <g transform="matrix(1,0,0,1,-1123.26,-558.272)">
                        <path d="M1219.12,755.462C1217.62,753.524 1216.78,751.368 1216.78,749.096C1216.78,740.677 1228.29,733.841 1242.46,733.841C1249.54,733.841 1255.95,735.548 1260.6,738.306C1259.27,740.759 1257.51,743.079 1255.37,745.212C1248.76,751.773 1239.82,755.455 1230.51,755.455C1227.2,755.459 1223.15,755.461 1219.12,755.462Z" style="fill:rgb(245,169,184);"/>
                        <path d="M1215,758.65C1212.76,755.749 1211.58,752.496 1211.58,749.096C1211.58,744.262 1213.99,739.668 1218.46,736.044C1223.88,731.649 1232.59,728.635 1242.46,728.635C1250.58,728.635 1257.92,730.664 1263.26,733.829C1265.66,735.258 1266.51,738.333 1265.17,740.792C1263.61,743.67 1261.55,746.397 1259.04,748.899L1259.03,748.907C1251.45,756.436 1241.19,760.661 1230.51,760.661C1227.2,760.665 1223.15,760.667 1219.12,760.668C1217.51,760.668 1215.99,759.923 1215,758.65ZM1219.12,755.462C1223.15,755.461 1227.2,755.459 1230.51,755.455C1239.82,755.455 1248.76,751.773 1255.37,745.212C1257.51,743.079 1259.27,740.759 1260.6,738.306C1255.95,735.548 1249.54,733.841 1242.46,733.841C1228.29,733.841 1216.78,740.677 1216.78,749.096C1216.78,751.368 1217.62,753.524 1219.12,755.462Z"/>
                    </g>
                </g>
                <g id="Eyes" transform="matrix(0.856324,-0.124954,-0.124954,-0.856324,35.143,308.068)">
                    <g id="Left-eye" serif:id="Left eye" transform="matrix(-1.36616,0.199348,-0.166848,-1.14344,1116.14,973.228)">
                        <path d="M668.569,829.535C668.569,809.841 688.864,811.224 688.864,829.535" style="fill:none;stroke:black;stroke-width:12.71px;stroke-miterlimit:2;"/>
                        <path d="M668.569,829.535C668.569,809.841 688.864,811.224 688.864,829.535" style="fill:none;stroke:rgb(235,235,235);stroke-width:7.26px;"/>
                    </g>
                    <g id="Right-eye" serif:id="Right eye" transform="matrix(-1.36616,0.199348,-0.166848,-1.14344,1166.82,965.833)">
                        <path d="M668.569,829.535C668.569,809.841 688.864,811.224 688.864,829.535" style="fill:none;stroke:black;stroke-width:12.71px;stroke-miterlimit:2;"/>
                        <path d="M668.569,829.535C668.569,809.841 688.864,811.224 688.864,829.535" style="fill:none;stroke:rgb(235,235,235);stroke-width:7.26px;"/>
                    </g>
                </g>
            </g>
            <g transform="matrix(1.08101,0,0,1.08101,-1243.69,-641.396)">
                <path d="M1265.42,729.374C1265.42,729.374 1278.85,757.563 1278.85,769.643C1278.85,777.052 1272.83,783.067 1265.42,783.067C1258.02,783.067 1252,777.052 1252,769.643C1252,757.563 1265.42,729.374 1265.42,729.374Z" style="fill:rgb(91,206,250);"/>
                <path d="M1267.93,728.181C1267.93,728.181 1281.62,757.216 1281.62,769.643C1281.62,778.583 1274.36,785.842 1265.42,785.842C1256.48,785.842 1249.23,778.583 1249.23,769.643C1249.23,757.216 1262.92,728.181 1262.92,728.181C1263.38,727.215 1264.35,726.599 1265.42,726.599C1266.49,726.599 1267.47,727.215 1267.93,728.181ZM1265.42,729.374C1265.42,729.374 1252,757.563 1252,769.643C1252,777.052 1258.02,783.067 1265.42,783.067C1272.83,783.067 1278.85,777.052 1278.85,769.643C1278.85,757.563 1265.42,729.374 1265.42,729.374Z"/>
            </g>
        </g>
    </g>
</svg>
