<?xml version="1.0" encoding="UTF-8" standalone="no"?>
<!DOCTYPE svg PUBLIC "-//W3C//DTD SVG 1.1//EN" "http://www.w3.org/Graphics/SVG/1.1/DTD/svg11.dtd">
<svg width="100%" height="100%" viewBox="0 0 256 256" version="1.1" xmlns="http://www.w3.org/2000/svg" xmlns:xlink="http://www.w3.org/1999/xlink" xml:space="preserve" xmlns:serif="http://www.serif.com/" style="fill-rule:evenodd;clip-rule:evenodd;stroke-linecap:round;stroke-linejoin:round;stroke-miterlimit:1.5;">
    <rect id="blobbee_grimace" x="-0" y="0" width="256" height="256" style="fill:none;"/>
    <clipPath id="_clip1">
        <rect x="-0" y="0" width="256" height="256"/>
    </clipPath>
    <g clip-path="url(#_clip1)">
        <path id="Wings-outline" serif:id="Wings outline" d="M129.457,71.439C101.62,74.152 70.004,52.917 56.583,17.332C41.238,-23.356 56.638,-63.617 86.987,-73.764C110.642,-81.673 139.399,-69.767 157.884,-44.535C184.732,-63.181 216.987,-65.526 237.979,-50.045C265.408,-29.818 267.488,16.097 238.398,52.369C209.763,88.073 163.808,97.957 136.809,78.046C134.11,76.056 131.659,73.845 129.457,71.439ZM135.756,54.763C138.246,59.112 141.562,62.914 145.712,65.974C167.403,81.971 203.691,71.669 226.696,42.984C249.701,14.299 250.768,-21.976 229.076,-37.973C209.154,-52.665 176.918,-45.173 153.969,-21.629C141.008,-50.189 114.034,-66.991 91.744,-59.538C68.16,-51.653 58.694,-19.58 70.618,12.039C82.543,43.658 111.372,62.927 134.957,55.041C135.225,54.952 135.491,54.859 135.756,54.763Z"/>
        <path id="Body" d="M127.902,1.921C208.729,-44.745 300.137,-39.183 331.897,14.333C363.657,67.85 323.82,149.185 242.993,195.851C162.165,242.517 70.758,236.955 38.998,183.439C7.237,129.922 47.074,48.587 127.902,1.921Z" style="fill:rgb(254,194,7);"/>
        <g id="Stripes">
            <path d="M188.793,-16.095C187.039,-14.699 315.054,-20.58 327.076,109.803C391.095,-61.796 189.429,-29.021 188.793,-16.095Z" style="fill:rgb(85,85,85);"/>
            <path d="M327.076,111.159C319.401,-14.647 191.893,-17.614 192.59,-21.35L145.073,-3.751C145.073,-3.751 299.034,-6.142 304.518,142.104L323.15,113.42" style="fill:rgb(254,194,7);"/>
            <path d="M275.897,172.628L304.252,142.104C298.868,-6.332 141.84,-8.914 141.842,-8.859L116.671,5.99C116.437,6.032 279.066,19.108 275.897,172.628Z" style="fill:rgb(85,85,85);"/>
            <path d="M118.8,6.104L91.65,27.286C91.65,27.286 247.73,42.825 246.071,194.336L275.383,174.688C286.256,24.404 117.148,7.374 114.749,9.264" style="fill:rgb(254,194,7);"/>
            <path d="M85.819,30.174L65.463,51.814C65.463,51.814 209.143,53.111 212.42,209.36L246.071,194.336C251.812,38.125 90.484,31.835 85.819,30.174Z" style="fill:rgb(85,85,85);"/>
        </g>
        <path id="Body-outline" serif:id="Body outline" d="M127.902,1.921C208.729,-44.745 300.137,-39.183 331.897,14.333C363.657,67.85 323.82,149.185 242.993,195.851C162.165,242.517 70.758,236.955 38.998,183.439C7.237,129.922 47.074,48.587 127.902,1.921Z" style="fill:none;stroke:black;stroke-width:15px;"/>
        <g id="Wings">
            <path id="Back-wing" serif:id="Back wing" d="M91.744,-59.538C115.328,-67.424 144.157,-48.156 156.082,-16.536C168.007,15.083 158.541,47.156 134.957,55.041C111.372,62.927 82.543,43.658 70.618,12.039C58.694,-19.58 68.16,-51.653 91.744,-59.538Z" style="fill:rgb(167,167,167);"/>
            <path id="Front-wing" serif:id="Front wing" d="M229.076,-37.973C250.768,-21.976 249.701,14.299 226.696,42.984C203.691,71.669 167.403,81.971 145.712,65.974C124.02,49.977 125.087,13.702 148.092,-14.983C171.097,-43.668 207.385,-53.97 229.076,-37.973Z" style="fill:rgb(195,195,195);"/>
        </g>
        <g id="Face">
            <g id="Eyes">
                <path id="Right-eye" serif:id="Right eye" d="M141.384,124.059L141.384,132.005C141.384,140.353 134.608,147.129 126.26,147.129C117.913,147.129 111.136,140.353 111.136,132.005L111.136,124.059C111.136,115.712 117.913,108.935 126.26,108.935C134.608,108.935 141.384,115.712 141.384,124.059Z"/>
                <path id="Left-eye" serif:id="Left eye" d="M81.28,123.995L81.28,131.941C81.28,140.288 74.503,147.065 66.156,147.065C57.808,147.065 51.032,140.288 51.032,131.941L51.032,123.995C51.032,115.647 57.808,108.871 66.156,108.871C74.503,108.871 81.28,115.647 81.28,123.995Z"/>
            </g>
            <g id="Mouth">
                <path id="Mouth1" serif:id="Mouth" d="M133.658,178.362C133.658,185.709 127.693,191.675 120.346,191.675L71.326,191.675C63.979,191.675 58.014,185.709 58.014,178.362C58.014,171.014 63.979,165.049 71.326,165.049L120.346,165.049C127.693,165.049 133.658,171.014 133.658,178.362Z" style="fill:rgb(235,235,235);"/>
                <path d="M136.658,178.362C136.658,187.365 129.349,194.675 120.346,194.675L71.326,194.675C62.323,194.675 55.014,187.365 55.014,178.362C55.014,169.359 62.323,162.049 71.326,162.049L120.346,162.049C129.349,162.049 136.658,169.359 136.658,178.362ZM133.658,178.362C133.658,171.014 127.693,165.049 120.346,165.049L71.326,165.049C63.979,165.049 58.014,171.014 58.014,178.362C58.014,185.709 63.979,191.675 71.326,191.675L120.346,191.675C127.693,191.675 133.658,185.709 133.658,178.362Z"/>
                <g id="Mouth-lines" serif:id="Mouth lines">
                    <path d="M58.014,178.362L133.658,178.362" style="fill:none;stroke:black;stroke-width:2px;stroke-linecap:butt;"/>
                    <path d="M96.008,165.049L96.008,191.675" style="fill:none;stroke:black;stroke-width:2px;stroke-linecap:butt;"/>
                    <path d="M82.796,165.049L82.796,191.675" style="fill:none;stroke:black;stroke-width:2px;stroke-linecap:butt;"/>
                    <path d="M122.432,165.049L122.432,191.675" style="fill:none;stroke:black;stroke-width:2px;stroke-linecap:butt;"/>
                    <path d="M69.584,165.049L69.584,191.675" style="fill:none;stroke:black;stroke-width:2px;stroke-linecap:butt;"/>
                    <path d="M109.22,165.049L109.22,191.675" style="fill:none;stroke:black;stroke-width:2px;stroke-linecap:butt;"/>
                </g>
            </g>
        </g>
    </g>
</svg>
