<?xml version="1.0" encoding="UTF-8" standalone="no"?>
<!DOCTYPE svg PUBLIC "-//W3C//DTD SVG 1.1//EN" "http://www.w3.org/Graphics/SVG/1.1/DTD/svg11.dtd">
<svg width="100%" height="100%" viewBox="0 0 256 256" version="1.1" xmlns="http://www.w3.org/2000/svg" xmlns:xlink="http://www.w3.org/1999/xlink" xml:space="preserve" xmlns:serif="http://www.serif.com/" style="fill-rule:evenodd;clip-rule:evenodd;stroke-linecap:round;stroke-linejoin:round;stroke-miterlimit:1.5;">
    <rect id="blobbee_wave" x="0" y="0" width="256" height="256" style="fill:none;"/>
    <clipPath id="_clip1">
        <rect x="0" y="0" width="256" height="256"/>
    </clipPath>
    <g clip-path="url(#_clip1)">
        <path id="Wings-outline" serif:id="Wings outline" d="M115.859,71.503C88.022,74.217 56.406,52.982 42.985,17.397C27.64,-23.291 43.04,-63.552 73.389,-73.7C97.044,-81.609 125.801,-69.703 144.286,-44.471C171.134,-63.116 203.389,-65.461 224.381,-49.98C251.81,-29.753 253.89,16.161 224.8,52.434C196.165,88.138 150.21,98.022 123.211,78.111C120.512,76.121 118.061,73.91 115.859,71.503ZM122.158,54.828C124.647,59.177 127.964,62.979 132.113,66.039C153.805,82.035 190.093,71.734 213.098,43.049C236.103,14.364 237.17,-21.912 215.478,-37.908C195.556,-52.6 163.32,-45.109 140.371,-21.565C127.41,-50.124 100.436,-66.927 78.146,-59.474C54.561,-51.588 45.095,-19.515 57.02,12.104C68.945,43.723 97.774,62.992 121.359,55.106C121.627,55.016 121.893,54.924 122.158,54.828Z"/>
        <path id="Body" d="M114.304,1.986C195.131,-44.68 286.538,-39.119 318.299,14.398C350.059,67.914 310.222,149.25 229.395,195.916C148.567,242.581 57.16,237.02 25.4,183.503C-6.361,129.987 33.476,48.652 114.304,1.986Z" style="fill:rgb(254,194,7);"/>
        <g id="Stripes">
            <path d="M175.195,-16.03C173.441,-14.635 301.456,-20.515 313.478,109.868C377.497,-61.731 175.831,-28.956 175.195,-16.03Z" style="fill:rgb(85,85,85);"/>
            <path d="M316.712,106.418C309.036,-19.388 181.529,-22.355 182.225,-26.091L131.475,-3.687C131.475,-3.687 285.436,-6.077 290.92,142.168L309.552,113.485" style="fill:rgb(254,194,7);"/>
            <path d="M262.299,172.693L290.653,142.168C285.269,-6.267 128.242,-8.849 128.244,-8.794L103.073,6.054C102.839,6.097 265.468,19.173 262.299,172.693Z" style="fill:rgb(85,85,85);"/>
            <path d="M105.202,6.168L78.052,27.351C78.052,27.351 234.132,42.89 232.473,194.401L261.784,174.753C272.658,24.469 103.55,7.439 101.151,9.328" style="fill:rgb(254,194,7);"/>
            <path d="M72.221,30.239L51.865,51.879C51.865,51.879 195.544,53.175 198.821,209.425L232.473,194.401C238.214,38.19 76.885,31.899 72.221,30.239Z" style="fill:rgb(85,85,85);"/>
        </g>
        <path id="Body-outline" serif:id="Body outline" d="M114.304,1.986C195.131,-44.68 286.538,-39.119 318.299,14.398C350.059,67.914 310.222,149.25 229.395,195.916C148.567,242.581 57.16,237.02 25.4,183.503C-6.361,129.987 33.476,48.652 114.304,1.986Z" style="fill:none;stroke:black;stroke-width:15px;"/>
        <g id="Wings">
            <path id="Back-wing" serif:id="Back wing" d="M78.146,-59.474C101.73,-67.359 130.559,-48.091 142.484,-16.472C154.409,15.147 144.943,47.22 121.359,55.106C97.774,62.992 68.945,43.723 57.02,12.104C45.095,-19.515 54.561,-51.588 78.146,-59.474Z" style="fill:rgb(167,167,167);"/>
            <path id="Front-wing" serif:id="Front wing" d="M215.478,-37.908C237.17,-21.912 236.103,14.364 213.098,43.049C190.093,71.734 153.805,82.035 132.113,66.039C110.422,50.042 111.489,13.766 134.494,-14.918C157.499,-43.603 193.787,-53.905 215.478,-37.908Z" style="fill:rgb(195,195,195);"/>
        </g>
        <g id="Face">
            <path id="Mouth" d="M52.319,168.102L63.094,186.219L77.615,168.134L95.602,186.168L117.029,168.155" style="fill:none;stroke:black;stroke-width:10px;"/>
            <g id="Eyes">
                <path id="Right-eye" serif:id="Right eye" d="M70.256,141.487C70.708,131.758 64.524,121.8 53.9,121.594C43.923,121.4 34.399,129.201 34.359,142.317" style="fill:none;stroke:black;stroke-width:12px;"/>
                <path id="Left-eye" serif:id="Left eye" d="M99.092,141.519C98.64,131.79 104.823,121.832 115.447,121.626C125.424,121.433 134.948,129.234 134.989,142.349" style="fill:none;stroke:black;stroke-width:12px;"/>
            </g>
        </g>
        <path id="Right-arm" serif:id="Right arm" d="M222.798,185.593L241.097,100.164C242.997,89.919 238.091,80.566 227.847,78.665C217.602,76.765 209.378,83.595 207.477,93.84L191.965,164.988L173.223,161.6C166.262,160.308 159.563,164.911 158.272,171.872C156.981,178.833 161.584,185.532 168.544,186.823L208.3,194.197C214.68,195.381 220.84,191.6 222.798,185.593Z" style="fill:rgb(151,151,151);"/>
        <path d="M232.306,188.691C228.818,199.396 217.845,206.138 206.476,204.03L166.72,196.655C154.333,194.358 146.142,182.435 148.44,170.048C150.735,157.672 162.638,149.485 175.013,151.761C175.013,151.761 184.25,153.431 184.25,153.431C184.25,153.431 197.677,91.849 197.673,91.865C200.686,76.005 213.775,65.884 229.67,68.833C245.648,71.797 253.893,86.01 250.929,101.987C250.913,102.078 250.895,102.168 250.875,102.258L232.576,187.687C232.504,188.026 232.413,188.361 232.306,188.691ZM222.798,185.593L241.097,100.164C242.997,89.919 238.091,80.566 227.847,78.665C217.602,76.765 209.378,83.595 207.477,93.84L191.965,164.988L173.223,161.6C166.262,160.308 159.563,164.911 158.272,171.872C156.981,178.833 161.584,185.532 168.544,186.823L208.3,194.197C214.68,195.381 220.84,191.6 222.798,185.593Z"/>
    </g>
</svg>
