<?xml version="1.0" encoding="UTF-8" standalone="no"?>
<!DOCTYPE svg PUBLIC "-//W3C//DTD SVG 1.1//EN" "http://www.w3.org/Graphics/SVG/1.1/DTD/svg11.dtd">
<svg width="100%" height="100%" viewBox="0 0 256 256" version="1.1" xmlns="http://www.w3.org/2000/svg" xmlns:xlink="http://www.w3.org/1999/xlink" xml:space="preserve" xmlns:serif="http://www.serif.com/" style="fill-rule:evenodd;clip-rule:evenodd;stroke-linecap:round;stroke-linejoin:round;stroke-miterlimit:10;">
    <rect id="blobbee_box" x="0" y="0" width="256" height="256" style="fill:none;"/>
    <path id="Box-outline" serif:id="Box outline" d="M36.534,178.675L11.471,178.675L36.534,120.558L220.726,120.558L244.529,178.675L219.668,178.675L219.668,244.705L36.534,244.705L36.534,178.675Z" style="fill:none;stroke:black;stroke-width:15px;"/>
    <g id="Bee">
        <path id="Wings-outline" serif:id="Wings outline" d="M109.619,83.749C98.803,74.88 92.863,57.808 97.763,40.015C104.119,16.937 124.882,5.261 141.675,10.579C152.75,14.087 161.396,24.893 163.883,38.522C178.041,41.23 189.194,50.211 192.83,61.722C198.4,79.352 185.935,101.052 161.595,107.669C137.963,114.094 115.515,102.588 110.108,85.471C109.927,84.898 109.764,84.324 109.619,83.749ZM123.802,74.672C123.571,76.768 123.758,78.883 124.411,80.952C127.828,91.769 142.727,97.254 157.66,93.195C172.594,89.135 181.944,77.057 178.527,66.24C175.389,56.306 162.565,50.868 148.925,53.193C151.59,40.265 146.576,27.866 137.146,24.879C127.168,21.719 116.001,30.286 112.225,43.998C108.448,57.71 113.483,71.408 123.461,74.568C123.574,74.604 123.688,74.639 123.802,74.672Z"/>
        <path id="Body" d="M130.851,58.376C169.912,62.524 199.633,87.062 197.18,113.138C194.727,139.215 161.023,157.018 121.962,152.87C82.901,148.722 53.179,124.183 55.632,98.107C58.085,72.031 91.789,54.228 130.851,58.376Z" style="fill:rgb(254,194,7);"/>
        <g id="Stripes">
            <path d="M156.031,67.332C155.088,67.372 200.1,97.087 171.888,144.425C236.182,101.903 159.45,63.092 156.031,67.332Z" style="fill:rgb(85,85,85);"/>
            <path d="M171.552,144.887C200.109,100.183 157.462,67.583 158.625,66.485L138.098,60.7C138.098,60.7 191.072,98.03 156.21,149.826L169.656,144.683" style="fill:rgb(254,194,7);"/>
            <path d="M138.91,153.121L156.12,149.76C191.063,97.925 138.277,58.143 138.264,58.162L126.022,56.977C125.931,56.934 178.023,101.674 138.91,153.121Z" style="fill:rgb(85,85,85);"/>
            <path d="M126.718,57.544L112.233,58.024C112.233,58.024 161.486,101.98 123.385,153.117L138.225,153.694C179.157,105.257 125.841,57.567 124.557,57.615" style="fill:rgb(254,194,7);"/>
            <path d="M109.533,57.562L97.246,59.881C97.246,59.881 145.809,95.919 108.213,149.891L123.385,153.117C164.039,101.392 110.709,59.283 109.533,57.562Z" style="fill:rgb(85,85,85);"/>
        </g>
        <path id="Body-outline" serif:id="Body outline" d="M130.851,58.376C169.912,62.524 199.633,87.062 197.18,113.138C194.727,139.215 161.023,157.018 121.962,152.87C82.901,148.722 53.179,124.183 55.632,98.107C58.085,72.031 91.789,54.228 130.851,58.376Z" style="fill:none;stroke:black;stroke-width:15px;stroke-miterlimit:1.5;"/>
        <g id="Wings">
            <path id="Back-wing" serif:id="Back wing" d="M137.146,24.879C147.123,28.039 152.158,41.737 148.382,55.449C144.605,69.162 133.439,77.728 123.461,74.568C113.483,71.408 108.448,57.71 112.225,43.998C116.001,30.286 127.168,21.719 137.146,24.879Z" style="fill:rgb(167,167,167);"/>
            <path id="Front-wing" serif:id="Front wing" d="M178.527,66.24C181.944,77.057 172.594,89.135 157.66,93.195C142.727,97.254 127.828,91.769 124.411,80.952C120.994,70.136 130.345,58.058 145.278,53.998C160.212,49.938 175.11,55.424 178.527,66.24Z" style="fill:rgb(195,195,195);"/>
        </g>
        <g id="Face">
            <path id="Right-eye" serif:id="Right eye" d="M106.95,101.865L105.022,104.512C102.998,107.292 99.097,107.905 96.317,105.881C93.537,103.857 92.924,99.956 94.948,97.176L96.875,94.529C98.9,91.749 102.8,91.136 105.58,93.16C108.36,95.185 108.974,99.085 106.95,101.865Z"/>
            <path id="Left-eye" serif:id="Left eye" d="M87.583,89.473L85.656,92.12C83.631,94.9 79.731,95.513 76.951,93.489C74.171,91.465 73.557,87.564 75.582,84.784L77.509,82.137C79.533,79.357 83.434,78.744 86.214,80.768C88.994,82.793 89.607,86.693 87.583,89.473Z"/>
        </g>
    </g>
    <g id="Box">
        <path id="Left-flap" serif:id="Left flap" d="M112.26,120.558L87.803,178.675L12.077,178.675L36.534,120.558L112.26,120.558Z" style="fill:rgb(154,117,79);"/>
        <rect id="Right-face" serif:id="Right face" x="144.524" y="120.558" width="75.144" height="124.146" style="fill:rgb(140,105,71);"/>
        <rect id="Label" x="177.66" y="220.173" width="33.374" height="16.599" style="fill:rgb(231,220,201);"/>
        <g id="Lines">
            <rect x="152.856" y="146.133" width="46.863" height="8.474" style="fill:rgb(55,41,28);"/>
            <rect x="152.856" y="162.661" width="46.863" height="8.474" style="fill:rgb(55,41,28);"/>
        </g>
        <rect id="Left-face" serif:id="Left face" x="36.534" y="120.558" width="107.99" height="124.146" style="fill:rgb(234,203,153);"/>
        <g id="This-way-up-mark" serif:id="This way up mark">
            <rect id="Line" x="44.72" y="228.437" width="49.88" height="8.334" style="fill:rgb(140,105,71);"/>
            <path id="Right-arrow" serif:id="Right arrow" d="M78.099,195.146L71.775,195.146L82.166,178.675L92.558,195.146L86.234,195.146L86.234,220.173L78.099,220.173L78.099,195.146Z" style="fill:rgb(140,105,71);"/>
            <path id="Left-arrow" serif:id="Left arrow" d="M52.818,195.146L46.494,195.146L56.885,178.675L67.276,195.146L60.952,195.146L60.952,220.173L52.818,220.173L52.818,195.146Z" style="fill:rgb(140,105,71);"/>
        </g>
        <path id="Right-flap" serif:id="Right flap" d="M220.712,120.558L244.529,178.675L168.197,178.675L144.381,120.558L220.712,120.558Z" style="fill:rgb(234,203,153);"/>
    </g>
    <g id="Hands">
        <g id="Right-hand" serif:id="Right hand">
            <path id="Outline" d="M124.339,127.619L124.339,119.292L105.336,119.292L105.336,127.619C105.336,132.214 109.436,135.945 114.485,135.945L115.19,135.945C120.24,135.945 124.339,132.214 124.339,127.619Z" style="fill:rgb(151,151,151);"/>
            <path d="M134.339,127.619C134.339,137.465 126.009,145.945 115.19,145.945L114.485,145.945C103.666,145.945 95.336,137.465 95.336,127.619L95.336,119.292C95.336,113.769 99.813,109.292 105.336,109.292L124.339,109.292C129.862,109.292 134.339,113.769 134.339,119.292L134.339,127.619ZM124.339,127.619L124.339,119.292L105.336,119.292L105.336,127.619C105.336,132.214 109.436,135.945 114.485,135.945L115.19,135.945C120.24,135.945 124.339,132.214 124.339,127.619Z"/>
            <path id="Fill" d="M124.339,128.089L124.339,109.302L105.336,109.302L105.336,128.089C105.336,133.333 109.593,137.591 114.838,137.591C120.082,137.591 124.339,133.333 124.339,128.089Z" style="fill:rgb(151,151,151);"/>
        </g>
        <g id="Left-hand" serif:id="Left hand">
            <path id="Outline1" serif:id="Outline" d="M83.304,127.619L83.304,119.292L64.3,119.292L64.3,127.619C64.3,132.214 68.4,135.945 73.45,135.945L74.154,135.945C79.204,135.945 83.304,132.214 83.304,127.619Z" style="fill:rgb(151,151,151);"/>
            <path d="M93.304,127.619C93.304,137.465 84.974,145.945 74.154,145.945L73.45,145.945C62.63,145.945 54.3,137.465 54.3,127.619L54.3,119.292C54.3,113.769 58.777,109.292 64.3,109.292L83.304,109.292C88.827,109.292 93.304,113.769 93.304,119.292L93.304,127.619ZM83.304,127.619L83.304,119.292L64.3,119.292L64.3,127.619C64.3,132.214 68.4,135.945 73.45,135.945L74.154,135.945C79.204,135.945 83.304,132.214 83.304,127.619Z"/>
            <path id="Fill1" serif:id="Fill" d="M83.304,128.089L83.304,109.302L64.3,109.302L64.3,128.089C64.3,133.333 68.558,137.591 73.802,137.591C79.046,137.591 83.304,133.333 83.304,128.089Z" style="fill:rgb(151,151,151);"/>
        </g>
    </g>
</svg>
