<?xml version="1.0" encoding="UTF-8" standalone="no"?>
<!DOCTYPE svg PUBLIC "-//W3C//DTD SVG 1.1//EN" "http://www.w3.org/Graphics/SVG/1.1/DTD/svg11.dtd">
<svg width="100%" height="100%" viewBox="0 0 256 256" version="1.1" xmlns="http://www.w3.org/2000/svg" xmlns:xlink="http://www.w3.org/1999/xlink" xml:space="preserve" xmlns:serif="http://www.serif.com/" style="fill-rule:evenodd;clip-rule:evenodd;stroke-linecap:round;stroke-linejoin:round;stroke-miterlimit:1.5;">
    <rect id="blobbee_shrug" x="-0" y="0" width="256" height="256" style="fill:none;"/>
    <clipPath id="_clip1">
        <rect x="-0" y="0" width="256" height="256"/>
    </clipPath>
    <g clip-path="url(#_clip1)">
        <path id="Left-arm" serif:id="Left arm" d="M36.04,188.114L12.039,104.108C9.454,94.014 13.72,84.353 23.814,81.768C33.908,79.183 42.572,85.445 45.157,95.538L65.418,165.483L90.797,159.073C97.655,157.317 104.649,161.459 106.405,168.317C108.161,175.175 104.019,182.169 97.161,183.925L51.084,195.724C44.797,197.334 38.397,193.976 36.04,188.114Z" style="fill:rgb(151,151,151);"/>
        <path d="M26.425,190.861L2.423,106.855C2.398,106.767 2.374,106.678 2.351,106.589C-1.68,90.847 5.591,76.111 21.333,72.08C36.992,68.071 50.729,77.284 54.802,92.893C54.802,92.893 72.335,153.422 72.335,153.422C72.335,153.422 88.347,149.378 88.347,149.378C100.542,146.273 112.97,153.642 116.092,165.837C119.218,178.041 111.846,190.487 99.642,193.613L53.564,205.412C42.363,208.28 30.961,202.29 26.762,191.844C26.632,191.522 26.52,191.194 26.425,190.861ZM36.04,188.114C38.397,193.976 44.797,197.334 51.084,195.724L97.161,183.925C104.019,182.169 108.161,175.175 106.405,168.317C104.649,161.459 97.655,157.317 90.797,159.073L65.418,165.483L45.157,95.538C42.572,85.445 33.908,79.183 23.814,81.768C13.72,84.353 9.454,94.014 12.039,104.108L36.04,188.114Z"/>
        <path id="Wings-outline" serif:id="Wings outline" d="M147.05,59.937C119.214,62.651 87.597,41.416 74.177,5.831C58.831,-34.857 74.232,-75.118 104.581,-85.266C128.235,-93.175 156.992,-81.269 175.477,-56.037C202.326,-74.682 234.581,-77.027 255.572,-61.546C283.001,-41.319 285.081,4.595 255.991,40.868C227.357,76.572 181.401,86.456 154.402,66.545C151.703,64.555 149.253,62.344 147.05,59.937ZM153.349,43.262C155.839,47.611 159.156,51.413 163.305,54.473C184.996,70.469 221.284,60.168 244.289,31.483C267.294,2.798 268.361,-33.478 246.67,-49.474C226.747,-64.166 194.511,-56.675 171.563,-33.131C158.602,-61.69 131.627,-78.492 109.337,-71.04C85.753,-63.154 76.287,-31.081 88.212,0.538C100.137,32.157 128.966,51.426 152.55,43.54C152.818,43.45 153.085,43.358 153.349,43.262Z"/>
        <path id="Body" d="M144.096,2.102C224.924,-44.564 316.331,-39.002 348.091,14.515C379.851,68.031 340.015,149.366 259.187,196.032C178.359,242.698 86.952,237.136 55.192,183.62C23.432,130.104 63.268,48.768 144.096,2.102Z" style="fill:rgb(254,194,7);"/>
        <g id="Stripes">
            <path d="M204.987,-15.914C203.233,-14.518 331.249,-20.398 343.271,109.984C407.29,-61.614 205.624,-28.84 204.987,-15.914Z" style="fill:rgb(85,85,85);"/>
            <path d="M343.271,111.34C335.595,-14.465 208.087,-17.433 208.784,-21.168L161.267,-3.57C161.267,-3.57 315.229,-5.96 320.712,142.285L339.344,113.601" style="fill:rgb(254,194,7);"/>
            <path d="M292.091,172.809L320.446,142.285C315.062,-6.15 158.035,-8.732 158.036,-8.677L132.865,6.171C132.631,6.214 295.261,19.289 292.091,172.809Z" style="fill:rgb(85,85,85);"/>
            <path d="M134.994,6.285L107.844,27.467C107.844,27.467 263.925,43.007 262.266,194.517L291.577,174.87C302.45,24.586 133.343,7.556 130.944,9.445" style="fill:rgb(254,194,7);"/>
            <path d="M102.013,30.356L81.657,51.996C81.657,51.996 225.337,53.292 228.614,209.541L262.266,194.517C268.007,38.306 106.678,32.016 102.013,30.356Z" style="fill:rgb(85,85,85);"/>
        </g>
        <path id="Body-outline" serif:id="Body outline" d="M144.096,2.102C224.924,-44.564 316.331,-39.002 348.091,14.515C379.851,68.031 340.015,149.366 259.187,196.032C178.359,242.698 86.952,237.136 55.192,183.62C23.432,130.104 63.268,48.768 144.096,2.102Z" style="fill:none;stroke:black;stroke-width:15px;"/>
        <g id="Wings">
            <path id="Back-wing" serif:id="Back wing" d="M109.337,-71.04C132.922,-78.925 161.751,-59.657 173.676,-28.038C185.601,3.581 176.134,35.654 152.55,43.54C128.966,51.426 100.137,32.157 88.212,0.538C76.287,-31.081 85.753,-63.154 109.337,-71.04Z" style="fill:rgb(167,167,167);"/>
            <path id="Front-wing" serif:id="Front wing" d="M246.67,-49.474C268.361,-33.478 267.294,2.798 244.289,31.483C221.284,60.168 184.996,70.469 163.305,54.473C141.614,38.476 142.68,2.201 165.685,-26.484C188.69,-55.169 224.978,-65.471 246.67,-49.474Z" style="fill:rgb(195,195,195);"/>
        </g>
        <g id="Face">
            <path id="Mouth" d="M100.108,183.425L115.688,168.267L135.006,183.826" style="fill:none;stroke:black;stroke-width:10px;"/>
            <g id="Eyes">
                <path id="Right-eye" serif:id="Right eye" d="M165.255,124.289L165.255,132.235C165.255,140.582 158.478,147.359 150.13,147.359C141.783,147.359 135.006,140.582 135.006,132.235L135.006,124.289C135.006,115.942 141.783,109.165 150.13,109.165C158.478,109.165 165.255,115.942 165.255,124.289Z"/>
                <path id="Left-eye" serif:id="Left eye" d="M105.15,124.224L105.15,132.17C105.15,140.517 98.373,147.294 90.026,147.294C81.679,147.294 74.902,140.517 74.902,132.17L74.902,124.224C74.902,115.877 81.679,109.1 90.026,109.1C98.373,109.1 105.15,115.877 105.15,124.224Z"/>
            </g>
        </g>
        <path id="Right-arm" serif:id="Right arm" d="M236.795,186.508L244.808,99.509C245.477,89.111 239.494,80.408 229.096,79.739C218.698,79.07 211.344,86.829 210.675,97.227L203.731,169.716L177.604,168.122C170.539,167.667 164.435,173.034 163.98,180.099C163.526,187.163 168.892,193.268 175.957,193.722L223.423,196.776C229.899,197.192 235.566,192.706 236.795,186.508Z" style="fill:rgb(151,151,151);"/>
        <path d="M246.604,188.454C244.414,199.498 234.32,207.497 222.781,206.755L175.315,203.702C162.743,202.893 153.192,192.029 154.001,179.457C154.809,166.895 165.655,157.35 178.214,158.14L194.698,159.146C194.698,159.146 200.707,96.416 200.706,96.432C201.811,80.327 213.604,68.722 229.738,69.76C245.954,70.803 255.831,83.935 254.788,100.151C254.782,100.243 254.774,100.335 254.766,100.427L246.753,187.425C246.721,187.77 246.672,188.114 246.604,188.454ZM236.795,186.508L244.808,99.509C245.477,89.111 239.494,80.408 229.096,79.739C218.698,79.07 211.344,86.829 210.675,97.227L203.731,169.716L177.604,168.122C170.539,167.667 164.435,173.034 163.98,180.099C163.526,187.163 168.892,193.268 175.957,193.722L223.423,196.776C229.899,197.192 235.566,192.706 236.795,186.508Z"/>
    </g>
</svg>
