<?xml version="1.0" encoding="UTF-8" standalone="no"?>
<!DOCTYPE svg PUBLIC "-//W3C//DTD SVG 1.1//EN" "http://www.w3.org/Graphics/SVG/1.1/DTD/svg11.dtd">
<svg width="100%" height="100%" viewBox="0 0 256 256" version="1.1" xmlns="http://www.w3.org/2000/svg" xmlns:xlink="http://www.w3.org/1999/xlink" xml:space="preserve" xmlns:serif="http://www.serif.com/" style="fill-rule:evenodd;clip-rule:evenodd;stroke-linejoin:round;stroke-miterlimit:2;">
    <rect id="neocat_train_wagon" x="-0" y="-0" width="256" height="256" style="fill:none;"/>
    <path id="Wagon-outline" serif:id="Wagon outline" d="M205.572,223.666C206.232,225.795 206.587,228.057 206.587,230.401C206.587,242.949 196.4,253.136 183.853,253.136C171.305,253.136 161.118,242.949 161.118,230.401C161.118,228.057 161.473,225.795 162.134,223.666L92.79,223.666C93.45,225.795 93.806,228.057 93.806,230.401C93.806,242.949 83.619,253.136 71.071,253.136C58.523,253.136 48.336,242.949 48.336,230.401C48.336,228.057 48.692,225.795 49.352,223.666L20.245,223.666C15.827,223.666 12.245,220.085 12.245,215.666L12.245,137.873C12.245,133.455 15.827,129.873 20.245,129.873L235.755,129.873C240.173,129.873 243.755,133.455 243.755,137.873L243.755,215.666C243.755,220.085 240.173,223.666 235.755,223.666L205.572,223.666ZM71.071,215.666C62.939,215.666 56.336,222.269 56.336,230.401C56.336,238.533 62.939,245.136 71.071,245.136C79.203,245.136 85.806,238.533 85.806,230.401C85.806,222.269 79.203,215.666 71.071,215.666ZM183.853,215.666C175.72,215.666 169.118,222.269 169.118,230.401C169.118,238.533 175.72,245.136 183.853,245.136C191.985,245.136 198.587,238.533 198.587,230.401C198.587,222.269 191.985,215.666 183.853,215.666ZM235.755,215.666L235.755,137.873L20.245,137.873L20.245,215.666L235.755,215.666Z"/>
    <path d="M208.134,225.666C208.431,227.199 208.587,228.782 208.587,230.401C208.587,244.053 197.504,255.136 183.853,255.136C170.201,255.136 159.118,244.053 159.118,230.401C159.118,228.782 159.274,227.199 159.571,225.666L95.352,225.666C95.65,227.199 95.806,228.782 95.806,230.401C95.806,244.053 84.723,255.136 71.071,255.136C57.42,255.136 46.336,244.053 46.336,230.401C46.336,228.782 46.492,227.199 46.79,225.666L20.245,225.666C14.722,225.666 10.245,221.189 10.245,215.666L10.245,137.873C10.245,132.35 14.722,127.873 20.245,127.873L235.755,127.873C241.278,127.873 245.755,132.35 245.755,137.873L245.755,215.666C245.755,221.189 241.278,225.666 235.755,225.666L208.134,225.666ZM183.853,215.666C175.72,215.666 169.118,222.269 169.118,230.401C169.118,238.533 175.72,245.136 183.853,245.136C191.985,245.136 198.587,238.533 198.587,230.401C198.587,222.269 191.985,215.666 183.853,215.666ZM235.755,215.666L235.755,137.873L20.245,137.873L20.245,215.666L235.755,215.666ZM71.071,215.666C62.939,215.666 56.336,222.269 56.336,230.401C56.336,238.533 62.939,245.136 71.071,245.136C79.203,245.136 85.806,238.533 85.806,230.401C85.806,222.269 79.203,215.666 71.071,215.666Z"/>
    <g id="Right-wheel" serif:id="Right wheel">
        <path d="M183.853,207.666C196.4,207.666 206.587,217.853 206.587,230.401C206.587,242.949 196.4,253.136 183.853,253.136C171.305,253.136 161.118,242.949 161.118,230.401C161.118,217.853 171.305,207.666 183.853,207.666ZM183.853,215.666C175.72,215.666 169.118,222.269 169.118,230.401C169.118,238.533 175.72,245.136 183.853,245.136C191.985,245.136 198.587,238.533 198.587,230.401C198.587,222.269 191.985,215.666 183.853,215.666Z"/>
        <circle cx="183.853" cy="230.401" r="14.735" style="fill:none;stroke:rgb(212,44,0);stroke-width:5px;"/>
        <path d="M183.853,215.666L183.853,245.136" style="fill:none;stroke:rgb(212,44,0);stroke-width:5px;stroke-linecap:round;stroke-miterlimit:1.5;"/>
        <path d="M171.092,223.034L196.613,237.768" style="fill:none;stroke:rgb(212,44,0);stroke-width:5px;stroke-linecap:round;stroke-miterlimit:1.5;"/>
        <path d="M171.092,237.768L196.613,223.034" style="fill:none;stroke:rgb(212,44,0);stroke-width:5px;stroke-linecap:round;stroke-miterlimit:1.5;"/>
    </g>
    <g id="Left-wheel" serif:id="Left wheel">
        <path d="M71.071,207.666C83.619,207.666 93.806,217.853 93.806,230.401C93.806,242.949 83.619,253.136 71.071,253.136C58.523,253.136 48.336,242.949 48.336,230.401C48.336,217.853 58.523,207.666 71.071,207.666ZM71.071,215.666C62.939,215.666 56.336,222.269 56.336,230.401C56.336,238.533 62.939,245.136 71.071,245.136C79.203,245.136 85.806,238.533 85.806,230.401C85.806,222.269 79.203,215.666 71.071,215.666Z"/>
        <circle cx="71.071" cy="230.401" r="14.735" style="fill:none;stroke:rgb(212,44,0);stroke-width:5px;"/>
        <path d="M71.071,215.666L71.071,245.136" style="fill:none;stroke:rgb(212,44,0);stroke-width:5px;stroke-linecap:round;stroke-miterlimit:1.5;"/>
        <path d="M58.31,223.034L83.832,237.768" style="fill:none;stroke:rgb(212,44,0);stroke-width:5px;stroke-linecap:round;stroke-miterlimit:1.5;"/>
        <path d="M58.31,237.768L83.832,223.034" style="fill:none;stroke:rgb(212,44,0);stroke-width:5px;stroke-linecap:round;stroke-miterlimit:1.5;"/>
    </g>
    <path id="Coal" d="M18.238,143.878C18.354,143.895 18.469,143.914 18.583,143.936C18.505,143.474 18.464,142.999 18.464,142.514C18.464,137.839 22.261,134.042 26.936,134.042C27.057,134.042 27.176,134.045 27.295,134.05C26.108,132.41 25.409,130.395 25.409,128.218C25.409,122.718 29.873,118.254 35.373,118.254C37.235,118.254 38.98,118.766 40.472,119.657C40.626,119.215 40.818,118.79 41.043,118.385C40.648,117.323 40.431,116.174 40.431,114.975C40.431,109.579 44.812,105.198 50.208,105.198C53.742,105.198 56.841,107.078 58.558,109.891C59.182,109.766 59.826,109.7 60.486,109.7C60.798,109.7 61.107,109.715 61.411,109.744C61.586,109.721 61.762,109.703 61.939,109.691C63.563,106.39 66.961,104.117 70.885,104.117C72.748,104.117 74.492,104.629 75.984,105.52C77.101,102.329 80.14,100.037 83.711,100.037C85,100.037 86.219,100.336 87.304,100.867C88.928,97.718 92.214,95.563 95.998,95.563C98.014,95.563 99.888,96.174 101.444,97.221L101.447,97.221C103.31,97.221 105.054,97.734 106.546,98.625C107.663,95.434 110.702,93.142 114.273,93.142C115.561,93.142 116.781,93.441 117.866,93.972C119.49,90.823 122.775,88.668 126.56,88.668C127.541,88.668 128.489,88.813 129.383,89.082C130.417,84.793 134.283,81.603 138.888,81.603C142.672,81.603 145.957,83.758 147.582,86.907C148.667,86.375 149.886,86.077 151.175,86.077C154.745,86.077 157.785,88.368 158.902,91.56C160.394,90.668 162.138,90.156 164.001,90.156C168.857,90.156 172.907,93.638 173.787,98.24C175.54,96.581 177.905,95.563 180.506,95.563C184.291,95.563 187.576,97.718 189.2,100.867C190.285,100.336 191.505,100.037 192.793,100.037C196.364,100.037 199.403,102.329 200.52,105.52C202.012,104.629 203.756,104.117 205.619,104.117C211.118,104.117 215.583,108.581 215.583,114.081C215.583,116.258 214.883,118.273 213.696,119.913C213.815,119.908 213.935,119.905 214.055,119.905C218.731,119.905 222.527,123.702 222.527,128.377C222.527,128.862 222.486,129.337 222.408,129.799C222.937,129.699 223.484,129.646 224.042,129.646C228.854,129.646 232.76,133.552 232.76,138.364C232.76,140.631 227.745,155.806 226.325,157.357C226.325,157.357 217.417,160.076 206.026,162.032C205.094,164.523 204.246,166.485 203.782,166.992C203.782,166.992 157.207,181.208 140.865,168.01L140.54,167.719C131.305,170.251 99.304,178.106 83.524,170.15C82.169,170.444 80.735,170.739 79.242,171.026L77.584,172.512C63.984,183.496 29.446,175.493 18.238,172.498L18.238,143.878Z" style="fill:rgb(31,30,30);stroke:black;stroke-width:3px;stroke-linecap:round;stroke-miterlimit:1.5;"/>
    <g id="Cat">
        <path d="M152.658,37.037C152.658,37.037 141.272,31.868 129.345,32.126C117.417,32.384 106.406,36.238 106.406,36.238C103.302,35.143 79.229,25.056 79.229,25.056C79.229,25.056 69.947,22.954 69.791,32.288C69.635,41.622 69.841,69.998 69.841,69.998C69.841,69.998 61.224,85.91 62.049,101.581C62.874,117.252 72.431,130.445 77.162,134.817C81.892,139.188 95.82,145.338 103.941,145.227C112.062,145.116 159.762,145.53 159.762,145.53C159.762,145.53 174.115,145.147 183.237,133.445C192.36,121.743 190.587,116.541 190.587,112.991C190.587,109.441 190.651,88.928 190.651,88.928C190.651,88.928 189.533,78.286 187.963,74.926C186.394,71.565 184.599,67.742 184.599,67.742L189.82,35.098C189.82,35.098 191.745,29.617 188.441,26.749C185.137,23.881 179.732,25.653 179.732,25.653L152.658,37.037Z" style="fill:rgb(255,201,92);"/>
        <path d="M152.272,20.928L173.917,11.826C174.292,11.668 174.674,11.526 175.06,11.399C175.06,11.399 179.491,9.893 184.669,10.142C189.292,10.364 194.237,11.918 198.274,15.421C202.889,19.427 204.943,24.724 205.315,29.842C205.557,33.18 204.985,36.305 204.517,38.19C204.517,38.19 200.14,65.554 200.139,65.553C200.595,66.527 201.085,67.573 201.554,68.578C203.668,73.105 205.569,87.361 205.569,87.361C205.625,87.897 205.652,88.436 205.651,88.974C205.651,88.974 205.587,109.448 205.587,112.991C205.587,118.134 208.282,125.716 195.068,142.667C181.521,160.044 160.163,160.525 160.163,160.525C159.986,160.529 159.809,160.531 159.632,160.529C159.632,160.529 112.219,160.115 104.147,160.225C92.882,160.38 73.544,151.897 66.982,145.833C60.787,140.109 48.15,122.889 47.07,102.369C46.313,87.988 51.832,73.424 54.819,66.699C54.771,58.823 54.669,39.463 54.793,32.038C54.931,23.804 58.185,18.874 61.692,15.618C69.67,8.21 82.542,10.427 82.542,10.427C83.392,10.619 84.223,10.885 85.026,11.222C85.026,11.222 99.491,17.296 107.122,20.402C112.314,19.039 120.471,17.314 129.02,17.129C137.923,16.937 146.593,19.095 152.272,20.928ZM152.658,37.037C152.658,37.037 141.272,31.868 129.345,32.126C117.417,32.384 106.406,36.238 106.406,36.238C103.302,35.143 79.229,25.056 79.229,25.056C79.229,25.056 69.947,22.954 69.791,32.288C69.635,41.622 69.841,69.998 69.841,69.998C69.841,69.998 61.224,85.91 62.049,101.581C62.874,117.252 72.431,130.445 77.162,134.817C81.892,139.188 95.82,145.338 103.941,145.227C112.062,145.116 159.762,145.53 159.762,145.53C159.762,145.53 174.115,145.147 183.237,133.445C192.36,121.743 190.587,116.541 190.587,112.991C190.587,109.441 190.651,88.928 190.651,88.928C190.651,88.928 189.533,78.286 187.963,74.926C186.394,71.565 184.599,67.742 184.599,67.742L189.82,35.098C189.82,35.098 191.745,29.617 188.441,26.749C185.137,23.881 179.732,25.653 179.732,25.653L152.658,37.037Z"/>
        <g id="Face">
            <g id="Whiskers">
                <path d="M161.869,105.013C162.996,107.194 165.681,108.05 167.862,106.923L182.14,99.547C184.321,98.42 185.177,95.735 184.05,93.554C182.924,91.373 180.238,90.517 178.057,91.643L163.779,99.02C161.598,100.146 160.742,102.832 161.869,105.013Z" style="fill:rgb(142,94,49);"/>
                <path d="M84.45,106.925C83.323,109.107 80.638,109.962 78.457,108.836L66.526,102.672C64.345,101.546 63.489,98.86 64.616,96.679C65.742,94.498 68.428,93.642 70.609,94.769L82.54,100.932C84.721,102.059 85.577,104.744 84.45,106.925Z" style="fill:rgb(142,94,49);"/>
                <path d="M161.812,114.711C160.621,116.858 161.397,119.568 163.543,120.759L177.596,128.556C179.743,129.747 182.452,128.971 183.643,126.825C184.834,124.678 184.059,121.968 181.912,120.777L167.859,112.98C165.713,111.789 163.003,112.565 161.812,114.711Z" style="fill:rgb(142,94,49);"/>
                <path d="M84.507,116.624C85.698,118.771 84.922,121.48 82.776,122.672L76.105,126.373C73.958,127.564 71.249,126.788 70.058,124.641C68.867,122.495 69.642,119.785 71.789,118.594L78.46,114.893C80.606,113.702 83.316,114.478 84.507,116.624Z" style="fill:rgb(142,94,49);"/>
            </g>
            <path id="Mouth" d="M97.431,104.167L105.946,118.482L117.42,104.192L131.633,118.443L148.564,104.209" style="fill:none;stroke:black;stroke-width:7.9px;stroke-linecap:round;stroke-miterlimit:1.5;"/>
            <g id="Eyes">
                <path id="Right-eye" serif:id="Right eye" d="M158.64,69.416L158.64,75.695C158.64,82.291 153.285,87.646 146.689,87.646C140.093,87.646 134.738,82.291 134.738,75.695L134.738,69.416C134.738,62.82 140.093,57.465 146.689,57.465C153.285,57.465 158.64,62.82 158.64,69.416Z"/>
                <path id="Left-eye" serif:id="Left eye" d="M111.146,69.365L111.146,75.644C111.146,82.24 105.791,87.595 99.195,87.595C92.599,87.595 87.244,82.24 87.244,75.644L87.244,69.365C87.244,62.769 92.599,57.414 99.195,57.414C105.791,57.414 111.146,62.769 111.146,69.365Z"/>
            </g>
        </g>
    </g>
    <rect id="Front-panel" serif:id="Front panel" x="18.889" y="138.728" width="218.694" height="74.379" style="fill:rgb(157,30,30);"/>
    <path d="M242.584,138.728L242.584,213.107C242.584,215.868 240.345,218.107 237.584,218.107L18.889,218.107C16.128,218.107 13.889,215.868 13.889,213.107L13.889,138.728C13.889,135.967 16.128,133.728 18.889,133.728L237.584,133.728C240.345,133.728 242.584,135.967 242.584,138.728ZM237.584,138.728L18.889,138.728L18.889,213.107L237.584,213.107L237.584,138.728Z"/>
    <g id="Panel-shadows" serif:id="Panel shadows">
        <path d="M19.177,149.839L237.723,149.839" style="fill:none;stroke:rgb(93,17,17);stroke-width:3px;stroke-miterlimit:1.5;"/>
        <path d="M19.177,167.793L237.723,167.793" style="fill:none;stroke:rgb(93,17,17);stroke-width:3px;stroke-miterlimit:1.5;"/>
        <path d="M19.177,185.747L237.723,185.747" style="fill:none;stroke:rgb(93,17,17);stroke-width:3px;stroke-miterlimit:1.5;"/>
        <path d="M19.177,203.7L237.723,203.7" style="fill:none;stroke:rgb(93,17,17);stroke-width:3px;stroke-miterlimit:1.5;"/>
    </g>
    <path id="Right-buffer" serif:id="Right buffer" d="M249.624,199.404L249.624,206.067L244.508,206.067L244.508,199.404L249.624,199.404ZM252.611,192.573L252.611,212.897L250.976,212.897L250.976,192.573L252.611,192.573Z"/>
    <path d="M247.976,196.404L247.976,192.573C247.976,190.916 249.319,189.573 250.976,189.573L252.611,189.573C254.268,189.573 255.611,190.916 255.611,192.573L255.611,212.897C255.611,214.554 254.268,215.897 252.611,215.897L250.976,215.897C249.319,215.897 247.976,214.554 247.976,212.897L247.976,209.067L244.508,209.067C242.852,209.067 241.508,207.723 241.508,206.067L241.508,199.404C241.508,197.747 242.852,196.404 244.508,196.404L247.976,196.404ZM249.624,199.404L244.508,199.404L244.508,206.067L249.624,206.067L249.624,199.404ZM252.611,192.573L250.976,192.573L250.976,212.897L252.611,212.897L252.611,192.573Z"/>
    <path id="Left-buffer" serif:id="Left buffer" d="M6.405,199.404L6.405,206.067L11.521,206.067L11.521,199.404L6.405,199.404ZM3.419,192.573L3.419,212.897L5.054,212.897L5.054,192.573L3.419,192.573Z"/>
    <path d="M8.054,196.404L11.521,196.404C13.178,196.404 14.521,197.747 14.521,199.404L14.521,206.067C14.521,207.723 13.178,209.067 11.521,209.067L8.054,209.067L8.054,212.897C8.054,214.554 6.71,215.897 5.054,215.897L3.419,215.897C1.762,215.897 0.419,214.554 0.419,212.897L0.419,192.573C0.419,190.916 1.762,189.573 3.419,189.573L5.054,189.573C6.71,189.573 8.054,190.916 8.054,192.573L8.054,196.404ZM6.405,199.404L6.405,206.067L11.521,206.067L11.521,199.404L6.405,199.404ZM3.419,192.573L3.419,212.897L5.054,212.897L5.054,192.573L3.419,192.573Z"/>
</svg>
