<?xml version="1.0" encoding="UTF-8" standalone="no"?>
<!DOCTYPE svg PUBLIC "-//W3C//DTD SVG 1.1//EN" "http://www.w3.org/Graphics/SVG/1.1/DTD/svg11.dtd">
<svg width="100%" height="100%" viewBox="0 0 256 256" version="1.1" xmlns="http://www.w3.org/2000/svg" xmlns:xlink="http://www.w3.org/1999/xlink" xml:space="preserve" xmlns:serif="http://www.serif.com/" style="fill-rule:evenodd;clip-rule:evenodd;stroke-linecap:round;stroke-linejoin:round;stroke-miterlimit:1.5;">
    <rect id="neocat_hug_bee_heart" x="0" y="0" width="256" height="256" style="fill:none;"/>
    <clipPath id="_clip1">
        <rect x="0" y="0" width="256" height="256"/>
    </clipPath>
    <g clip-path="url(#_clip1)">
        <g id="Cat">
            <path d="M195.23,110.069C195.23,110.069 182.085,104.101 168.315,104.399C154.546,104.697 141.833,109.146 141.833,109.146C138.25,107.882 110.458,96.237 110.458,96.237C110.458,96.237 99.742,93.811 99.562,104.586C99.383,115.362 99.62,148.121 99.62,148.121C99.62,148.121 89.672,166.491 90.624,184.582C91.576,202.674 102.61,217.906 108.071,222.953C113.533,228 129.612,235.099 138.988,234.971C148.363,234.842 203.432,235.321 203.432,235.321C203.432,235.321 220.002,234.879 230.533,221.369C241.064,207.86 239.018,201.854 239.018,197.756C239.018,193.657 239.091,169.975 239.091,169.975C239.091,169.975 237.801,157.69 235.989,153.81C234.177,149.931 232.105,145.517 232.105,145.517L238.133,107.83C238.133,107.83 240.355,101.502 236.54,98.191C232.726,94.881 226.486,96.926 226.486,96.926L195.23,110.069Z" style="fill:rgb(255,201,92);"/>
            <path d="M194.893,93.939L220.671,83.099C221.046,82.941 221.428,82.799 221.814,82.672C221.814,82.672 226.546,81.067 232.074,81.333C236.931,81.567 242.132,83.183 246.373,86.864C251.193,91.047 253.322,96.585 253.709,101.93C253.974,105.573 253.326,108.978 252.822,110.965C252.822,110.965 247.646,143.328 247.645,143.327C248.253,144.624 248.933,146.077 249.58,147.462C251.936,152.508 254.009,168.408 254.009,168.408C254.066,168.944 254.093,169.483 254.091,170.022C254.091,170.022 254.018,193.664 254.018,197.756C254.018,203.447 256.987,211.832 242.363,230.591C227.408,249.776 203.832,250.316 203.832,250.316C203.655,250.32 203.478,250.322 203.301,250.32C203.301,250.32 148.52,249.842 139.193,249.969C126.673,250.141 105.184,240.708 97.891,233.969C90.966,227.57 76.852,208.311 75.645,185.371C74.775,168.838 81.299,152.092 84.598,144.784C84.543,136.038 84.419,113.053 84.565,104.336C84.709,95.67 88.098,90.466 91.789,87.039C100.196,79.232 113.771,81.608 113.771,81.608C114.621,81.8 115.452,82.066 116.255,82.403C116.255,82.403 133.856,89.791 142.506,93.3C148.308,91.736 157.908,89.621 167.991,89.402C178.421,89.177 188.564,91.832 194.893,93.939ZM195.23,110.069C195.23,110.069 182.085,104.101 168.315,104.399C154.546,104.697 141.833,109.146 141.833,109.146C138.25,107.882 110.458,96.237 110.458,96.237C110.458,96.237 99.742,93.811 99.562,104.586C99.383,115.362 99.62,148.121 99.62,148.121C99.62,148.121 89.672,166.491 90.624,184.582C91.576,202.674 102.61,217.906 108.071,222.953C113.533,228 129.612,235.099 138.988,234.971C148.363,234.842 203.432,235.321 203.432,235.321C203.432,235.321 220.002,234.879 230.533,221.369C241.064,207.86 239.018,201.854 239.018,197.756C239.018,193.657 239.091,169.975 239.091,169.975C239.091,169.975 237.801,157.69 235.989,153.81C234.177,149.931 232.105,145.517 232.105,145.517L238.133,107.83C238.133,107.83 240.355,101.502 236.54,98.191C232.726,94.881 226.486,96.926 226.486,96.926L195.23,110.069Z"/>
            <g id="Face">
                <g id="Whiskers">
                    <path d="M205.864,188.545C207.164,191.063 210.265,192.051 212.783,190.75L229.266,182.235C231.784,180.934 232.772,177.834 231.472,175.316C230.171,172.798 227.071,171.809 224.553,173.11L208.069,181.626C205.551,182.926 204.563,186.027 205.864,188.545Z" style="fill:rgb(142,94,49);"/>
                    <path d="M116.486,190.753C115.185,193.271 112.085,194.259 109.567,192.958L95.793,185.843C93.275,184.542 92.287,181.442 93.587,178.924C94.888,176.406 97.989,175.417 100.506,176.718L114.28,183.834C116.798,185.135 117.787,188.235 116.486,190.753Z" style="fill:rgb(142,94,49);"/>
                    <path d="M205.798,199.742C204.423,202.22 205.318,205.348 207.797,206.723L224.02,215.725C226.498,217.1 229.627,216.204 231.002,213.726C232.377,211.248 231.481,208.119 229.003,206.744L212.779,197.743C210.301,196.368 207.173,197.263 205.798,199.742Z" style="fill:rgb(142,94,49);"/>
                    <path d="M116.551,201.95C117.926,204.428 117.031,207.556 114.553,208.931L106.852,213.204C104.373,214.579 101.245,213.684 99.87,211.205C98.495,208.727 99.391,205.599 101.869,204.224L109.57,199.951C112.048,198.576 115.176,199.472 116.551,201.95Z" style="fill:rgb(142,94,49);"/>
                </g>
                <path id="Eye" d="M200.503,148.844L200.503,155.403C200.503,162.293 194.909,167.886 188.019,167.886C181.129,167.886 175.535,162.293 175.535,155.403L175.535,148.844C175.535,141.954 181.129,136.36 188.019,136.36C194.909,136.36 200.503,141.954 200.503,148.844Z"/>
            </g>
        </g>
        <g id="Bee">
            <path id="Wings-outline" serif:id="Wings outline" d="M117.671,163.06C117.191,163.682 116.685,164.289 116.152,164.881C103.374,179.095 76.549,180.17 56.466,163.537C35.819,146.436 33.081,119.995 46.218,105.381C54.979,95.636 70.166,91.975 85.38,96.01C93.709,83.393 107.056,76.354 119.567,77.857C138.121,80.086 152.879,100.58 148.895,125.661C145.772,145.322 132.25,159.448 117.671,163.06ZM108.473,148.825C108.602,148.844 108.732,148.861 108.862,148.877C120.32,150.253 131.621,138.796 134.081,123.307C136.541,107.819 129.236,94.127 117.778,92.75C106.948,91.449 96.26,101.612 93.043,115.807C80.407,107.253 65.054,106.866 57.374,115.409C49.011,124.711 52.892,141.1 66.034,151.984C79.176,162.869 96.635,164.155 104.997,154.853C106.597,153.073 107.748,151.035 108.473,148.825Z"/>
            <path id="Body" d="M106.103,125.73C62.71,109.377 19.883,121.211 10.526,152.141C1.169,183.071 28.802,221.459 72.195,237.812C115.589,254.165 158.415,242.331 167.773,211.401C177.13,180.471 149.497,142.083 106.103,125.73Z" style="fill:rgb(254,194,7);"/>
            <g id="Stripes">
                <path d="M75.248,122.321C76.231,122.875 14.788,132.343 23.038,201.303C-25.748,118.355 73.562,115.663 75.248,122.321Z" style="fill:rgb(85,85,85);"/>
                <path d="M23.183,202.008C13.359,135.853 73.613,121.835 72.882,119.961L97.339,124.461C97.339,124.461 23.945,138.281 37.213,215.889L25.291,202.8" style="fill:rgb(254,194,7);"/>
                <path d="M54.078,228.958L37.34,215.863C24.003,138.167 98.322,121.461 98.327,121.49L111.874,126.746C111.99,126.746 36.134,149.455 54.078,228.958Z" style="fill:rgb(85,85,85);"/>
                <path d="M110.875,127.014L126.04,135.37C126.04,135.37 53.559,158.72 70.571,237.326L54.543,229.979C33.286,152.912 111.795,127.513 113.137,128.26" style="fill:rgb(254,194,7);"/>
                <path d="M129.12,136.301L141.107,145.56C141.107,145.56 72.991,160.291 88.165,241.844L70.571,237.326C51.117,156.675 127.081,137.621 129.12,136.301Z" style="fill:rgb(85,85,85);"/>
            </g>
            <path id="Body-outline" serif:id="Body outline" d="M106.103,125.73C62.71,109.377 19.883,121.211 10.526,152.141C1.169,183.071 28.802,221.459 72.195,237.812C115.589,254.165 158.415,242.331 167.773,211.401C177.13,180.471 149.497,142.083 106.103,125.73Z" style="fill:none;stroke:black;stroke-width:15px;"/>
            <g id="Wings">
                <path id="Back-wing" serif:id="Back wing" d="M117.778,92.75C106.319,91.374 95.019,102.831 92.559,118.319C90.099,133.808 97.404,147.5 108.862,148.877C120.32,150.253 131.621,138.796 134.081,123.307C136.541,107.819 129.236,94.127 117.778,92.75Z" style="fill:rgb(167,167,167);"/>
                <path id="Front-wing" serif:id="Front wing" d="M57.374,115.409C49.011,124.711 52.892,141.1 66.034,151.984C79.176,162.869 96.635,164.155 104.997,154.853C113.359,145.551 109.478,129.162 96.336,118.277C83.194,107.393 65.736,106.107 57.374,115.409Z" style="fill:rgb(195,195,195);"/>
            </g>
            <g id="Face1" serif:id="Face">
                <path id="Mouth" d="M149.164,205.945L145.488,216.559L135.965,208.681L128.515,220.028L115.395,212.929" style="fill:none;stroke:black;stroke-width:5px;"/>
                <path id="Right-eye" serif:id="Right eye" d="M134.508,186.305C137.16,189.993 140.963,190.26 143.555,189.499C146.47,188.644 149.329,186.808 149.818,181.275" style="fill:none;stroke:black;stroke-width:7px;"/>
                <path id="Left-eye" serif:id="Left eye" d="M104.008,195.121C106.661,198.809 110.464,199.076 113.056,198.316C115.971,197.46 118.83,195.625 119.319,190.092" style="fill:none;stroke:black;stroke-width:7px;"/>
            </g>
        </g>
        <path id="Cat-arm" serif:id="Cat arm" d="M195.275,227.468L161.081,227.468C152.981,227.468 146.406,220.892 146.406,212.793C146.406,204.694 152.981,198.119 161.081,198.119L195.275,198.119" style="fill:rgb(255,201,92);stroke:black;stroke-width:10px;"/>
        <path id="Heart" d="M100.241,70.661L90.15,60.571C80.47,50.89 80.47,35.171 90.15,25.491C99.831,15.81 115.55,15.81 125.231,25.491L128,28.26L130.769,25.491C140.45,15.81 156.169,15.81 165.85,25.491C175.53,35.171 175.53,50.89 165.85,60.571L155.759,70.661C155.367,71.211 154.923,71.736 154.43,72.23L136.889,89.77C134.439,92.221 131.215,93.43 128,93.4C124.785,93.43 121.561,92.221 119.111,89.77L101.57,72.23C101.077,71.736 100.633,71.211 100.241,70.661Z" style="fill:rgb(239,124,148);stroke:black;stroke-width:15px;stroke-linejoin:miter;stroke-miterlimit:5;"/>
    </g>
</svg>
