<?xml version="1.0" encoding="UTF-8" standalone="no"?>
<!DOCTYPE svg PUBLIC "-//W3C//DTD SVG 1.1//EN" "http://www.w3.org/Graphics/SVG/1.1/DTD/svg11.dtd">
<svg width="100%" height="100%" viewBox="0 0 256 256" version="1.1" xmlns="http://www.w3.org/2000/svg" xmlns:xlink="http://www.w3.org/1999/xlink" xml:space="preserve" xmlns:serif="http://www.serif.com/" style="fill-rule:evenodd;clip-rule:evenodd;stroke-linecap:round;stroke-linejoin:round;stroke-miterlimit:5;">
    <rect id="neofox_hug_bee_heart" x="0" y="0" width="256" height="256" style="fill:none;"/>
    <clipPath id="_clip1">
        <rect x="0" y="0" width="256" height="256"/>
    </clipPath>
    <g clip-path="url(#_clip1)">
        <g id="Fox">
            <path id="Outline" d="M93.969,153.273C91.852,144.762 89.834,125.409 89.099,114.24C88.401,103.629 89.039,95.69 89.702,92.277C90.403,88.666 91.69,86.44 92.427,85.349C92.222,85.653 91.854,86.29 91.854,86.29C91.854,86.29 94.351,82.108 96.623,80.261C98.902,78.408 102.297,76.18 108.98,76.129C116.446,76.073 118.408,77.699 124.29,81.476C126.136,82.662 129.474,85.897 132.987,89.55C133.747,89.272 134.531,89.054 135.333,88.901C135.333,88.901 147.166,86.773 151.348,86.773C153.976,86.773 162.698,88.144 172.256,92.419C173.756,91.061 175.544,89.994 177.547,89.322C183.654,87.272 190.388,89.35 194.277,94.485L196.809,97.256C200.57,94.094 203.518,91.892 205.212,90.539C208.721,87.735 217.713,80.939 222.816,78.239C226.611,76.231 229.901,75.613 231.84,75.539C239.196,75.26 244.091,77.915 249.076,84.558C250.555,86.53 253.37,93.45 254.533,101.731C255.063,104.822 255.406,108.758 255.365,113.52C255.29,122.324 254.196,135.65 252.008,144.342C251.29,147.195 250.253,150.482 249.194,153.587C251.015,160.058 253.909,172.784 253.61,187.499C253.126,211.387 251.389,224.338 238.755,235.76C225.876,247.404 216.463,247.947 204.151,249.315C189.726,250.917 144.893,248.841 144.893,248.841C144.766,248.835 144.639,248.828 144.512,248.818C144.512,248.818 117.339,246.005 105.194,229.624C94.357,215.008 88.616,206.008 87.986,188.384C87.543,176.001 89.938,163.723 93.969,153.273ZM150.951,121.703C149.129,121.028 145.152,119.793 139.429,119.319C135.461,114.66 131.728,110.312 130.037,108.433C125.606,103.512 118.973,95.889 116.185,94.098C113.396,92.307 112.633,91.102 109.093,91.129C105.554,91.156 105.572,92.687 104.854,93.75C104.135,94.813 103.347,102.315 104.067,113.255C104.787,124.195 106.67,143.74 108.751,150.483C109.151,151.779 109.596,152.882 110.053,153.817C105.463,163.405 102.537,175.565 102.976,187.848C103.481,201.97 108.56,208.978 117.243,220.69C125.927,232.402 145.619,233.859 145.619,233.859C145.619,233.859 188.65,235.944 202.496,234.406C211.76,233.377 219.005,233.394 228.695,224.633C238.386,215.872 238.242,205.516 238.614,187.195C238.985,168.873 233.666,154.13 233.666,154.13L231.069,159.38C231.61,158.032 235.656,147.853 237.462,140.68C239.398,132.986 240.299,121.184 240.366,113.391C240.398,109.598 240.146,106.483 239.714,104.065C239.038,99.079 237.962,94.738 237.078,93.56C235.651,91.66 234.514,90.448 232.409,90.528C229.575,90.636 218.388,99.211 214.574,102.258C211.652,104.592 204.71,109.612 196.39,118.025C196.44,117.969 196.483,117.922 196.517,117.885C191.185,115.245 182.32,103.542 182.32,103.542C182.32,103.542 182.313,114.852 182.414,118.456C172.68,105.262 154.8,101.773 151.348,101.773C147.897,101.773 138.146,103.635 138.146,103.635C136.664,105.253 146.531,118.996 150.951,121.703C151.692,121.977 152.076,122.159 152.076,122.159C151.764,122.127 151.384,121.968 150.951,121.703ZM230.981,159.526L230.996,159.528L230.989,159.543L230.981,159.526ZM186.17,129.485C186.172,129.492 186.174,129.501 186.177,129.509L186.149,129.508L186.17,129.485Z"/>
            <g id="Left-ear" serif:id="Left ear">
                <path id="Outer" d="M231.009,159.529C231.009,159.529 235.525,148.374 237.462,140.68C239.398,132.986 240.299,121.184 240.366,113.391C240.433,105.598 238.504,95.461 237.078,93.56C235.651,91.66 234.514,90.448 232.409,90.528C229.575,90.636 218.388,99.211 214.574,102.258C210.511,105.503 198.673,113.943 186.168,129.477C187.256,133.671 215.016,157.899 231.009,159.529Z" style="fill:rgb(42,42,42);"/>
                <path id="Inner" d="M231.009,159.529C231.009,159.529 235.525,148.374 237.462,140.68C239.398,132.986 240.299,121.184 240.366,113.391C240.433,105.598 239.296,100.666 237.87,98.765C236.444,96.864 235.419,96.907 233.314,96.811C231.209,96.714 223.309,102.401 220.645,106.492C217.982,110.583 213.224,121.097 209.995,123.947C206.767,126.796 200.82,130.065 196.378,129.767C197.466,133.961 215.016,157.899 231.009,159.529Z" style="fill:rgb(235,220,204);"/>
            </g>
            <path id="Right-ear" serif:id="Right ear" d="M152.904,135.224C152.904,135.224 134.467,113.355 130.037,108.433C125.606,103.512 118.973,95.889 116.185,94.098C113.396,92.307 112.633,91.102 109.093,91.129C105.554,91.156 105.572,92.687 104.854,93.75C104.135,94.813 103.347,102.315 104.067,113.255C104.787,124.195 106.67,143.74 108.751,150.483C110.832,157.225 114.119,158.727 114.119,158.727L152.904,135.224Z" style="fill:rgb(42,42,42);"/>
            <path id="Body" d="M202.496,234.406C188.65,235.944 145.619,233.859 145.619,233.859C145.619,233.859 125.927,232.402 117.243,220.69C108.56,208.978 103.481,201.97 102.976,187.848C102.472,173.725 106.415,159.765 112.222,149.691C118.029,139.617 129.121,129.446 136.497,129.78C132.242,128.289 120.929,125.287 115.431,125.819C116.894,124.842 124.899,119.007 135.417,119.131C145.934,119.256 152.076,122.159 152.076,122.159C148.57,121.8 136.519,105.412 138.146,103.635C138.146,103.635 147.897,101.773 151.348,101.773C154.8,101.773 172.68,105.262 182.414,118.456C182.313,114.852 182.32,103.542 182.32,103.542C182.32,103.542 191.185,115.245 196.517,117.885C195.471,119.027 186.149,129.508 186.149,129.508L208.477,129.932L208.511,144.618L223.5,144.673L230.989,159.543L233.666,154.13C233.666,154.13 238.985,168.873 238.614,187.195C238.242,205.516 238.386,215.872 228.695,224.633C219.005,233.394 211.76,233.377 202.496,234.406Z" style="fill:rgb(247,150,91);"/>
            <g id="Face">
                <path id="Mouth" d="M186.349,197.002L171.363,212.346L156.092,197.071L144.926,212.347L137.058,197.136" style="fill:none;stroke:black;stroke-width:8px;"/>
                <path id="Nose" d="M148.449,180.256C148.449,183.389 150.992,185.933 154.125,185.933L158.282,185.933C161.415,185.933 163.958,183.389 163.958,180.256C163.958,177.124 161.415,174.58 158.282,174.58L154.125,174.58C150.992,174.58 148.449,177.124 148.449,180.256Z" style="fill:rgb(50,18,11);"/>
                <path id="Eye" d="M196.736,151.118L196.736,157.677C196.736,164.567 191.142,170.161 184.252,170.161C177.362,170.161 171.768,164.567 171.768,157.677L171.768,151.118C171.768,144.228 177.362,138.635 184.252,138.635C191.142,138.635 196.736,144.228 196.736,151.118Z"/>
            </g>
        </g>
        <g id="Bee">
            <path id="Wings-outline" serif:id="Wings outline" d="M117.671,163.06C117.191,163.682 116.685,164.289 116.152,164.881C103.374,179.095 76.549,180.17 56.466,163.537C35.819,146.436 33.081,119.995 46.218,105.381C54.979,95.636 70.166,91.975 85.38,96.01C93.709,83.393 107.056,76.354 119.567,77.857C138.121,80.086 152.879,100.58 148.895,125.661C145.772,145.322 132.25,159.448 117.671,163.06ZM108.473,148.825C108.602,148.844 108.732,148.861 108.862,148.877C120.32,150.253 131.621,138.796 134.081,123.307C136.541,107.819 129.236,94.127 117.778,92.75C106.948,91.449 96.26,101.612 93.043,115.807C80.407,107.253 65.054,106.866 57.374,115.409C49.011,124.711 52.892,141.1 66.034,151.984C79.176,162.869 96.635,164.155 104.997,154.853C106.597,153.073 107.748,151.035 108.473,148.825Z"/>
            <path id="Body1" serif:id="Body" d="M106.103,125.73C62.71,109.377 19.883,121.211 10.526,152.141C1.169,183.071 28.802,221.459 72.195,237.812C115.589,254.165 158.415,242.331 167.773,211.401C177.13,180.471 149.497,142.083 106.103,125.73Z" style="fill:rgb(254,194,7);"/>
            <g id="Stripes">
                <path d="M75.248,122.321C76.231,122.875 14.788,132.343 23.038,201.303C-25.748,118.355 73.562,115.663 75.248,122.321Z" style="fill:rgb(85,85,85);"/>
                <path d="M23.183,202.008C13.359,135.853 73.613,121.835 72.882,119.961L97.339,124.461C97.339,124.461 23.945,138.281 37.213,215.889L25.291,202.8" style="fill:rgb(254,194,7);"/>
                <path d="M54.078,228.958L37.34,215.863C24.003,138.167 98.322,121.461 98.327,121.49L111.874,126.746C111.99,126.746 36.134,149.455 54.078,228.958Z" style="fill:rgb(85,85,85);"/>
                <path d="M110.875,127.014L126.04,135.37C126.04,135.37 53.559,158.72 70.571,237.326L54.543,229.979C33.286,152.912 111.795,127.513 113.137,128.26" style="fill:rgb(254,194,7);"/>
                <path d="M129.12,136.301L141.107,145.56C141.107,145.56 72.991,160.291 88.165,241.844L70.571,237.326C51.117,156.675 127.081,137.621 129.12,136.301Z" style="fill:rgb(85,85,85);"/>
            </g>
            <path id="Body-outline" serif:id="Body outline" d="M106.103,125.73C62.71,109.377 19.883,121.211 10.526,152.141C1.169,183.071 28.802,221.459 72.195,237.812C115.589,254.165 158.415,242.331 167.773,211.401C177.13,180.471 149.497,142.083 106.103,125.73Z" style="fill:none;stroke:black;stroke-width:15px;stroke-miterlimit:1.5;"/>
            <g id="Wings">
                <path id="Back-wing" serif:id="Back wing" d="M117.778,92.75C106.319,91.374 95.019,102.831 92.559,118.319C90.099,133.808 97.404,147.5 108.862,148.877C120.32,150.253 131.621,138.796 134.081,123.307C136.541,107.819 129.236,94.127 117.778,92.75Z" style="fill:rgb(167,167,167);"/>
                <path id="Front-wing" serif:id="Front wing" d="M57.374,115.409C49.011,124.711 52.892,141.1 66.034,151.984C79.176,162.869 96.635,164.155 104.997,154.853C113.359,145.551 109.478,129.162 96.336,118.277C83.194,107.393 65.736,106.107 57.374,115.409Z" style="fill:rgb(195,195,195);"/>
            </g>
            <g id="Face1" serif:id="Face">
                <path id="Mouth1" serif:id="Mouth" d="M149.164,205.945L145.488,216.559L135.965,208.681L128.515,220.028L115.395,212.929" style="fill:none;stroke:black;stroke-width:5px;stroke-miterlimit:1.5;"/>
                <path id="Right-eye" serif:id="Right eye" d="M134.508,186.305C137.16,189.993 140.963,190.26 143.555,189.499C146.47,188.644 149.329,186.808 149.818,181.275" style="fill:none;stroke:black;stroke-width:7px;stroke-miterlimit:1.5;"/>
                <path id="Left-eye" serif:id="Left eye" d="M104.008,195.121C106.661,198.809 110.464,199.076 113.056,198.316C115.971,197.46 118.83,195.625 119.319,190.092" style="fill:none;stroke:black;stroke-width:7px;stroke-miterlimit:1.5;"/>
            </g>
        </g>
        <path id="Fox-arm" serif:id="Fox arm" d="M195.275,227.468L161.081,227.468C152.981,227.468 146.406,220.892 146.406,212.793C146.406,204.694 152.981,198.119 161.081,198.119L195.275,198.119" style="fill:rgb(247,150,91);stroke:black;stroke-width:10px;stroke-miterlimit:1.5;"/>
        <path id="Heart" d="M100.241,70.661L90.15,60.571C80.47,50.89 80.47,35.171 90.15,25.491C99.831,15.81 115.55,15.81 125.231,25.491L128,28.26L130.769,25.491C140.45,15.81 156.169,15.81 165.85,25.491C175.53,35.171 175.53,50.89 165.85,60.571L155.759,70.661C155.367,71.211 154.923,71.736 154.43,72.23L136.889,89.77C134.439,92.221 131.215,93.43 128,93.4C124.785,93.43 121.561,92.221 119.111,89.77L101.57,72.23C101.077,71.736 100.633,71.211 100.241,70.661Z" style="fill:rgb(239,124,148);stroke:black;stroke-width:15px;stroke-linejoin:miter;"/>
    </g>
</svg>
