<?xml version="1.0" encoding="UTF-8" standalone="no"?>
<!DOCTYPE svg PUBLIC "-//W3C//DTD SVG 1.1//EN" "http://www.w3.org/Graphics/SVG/1.1/DTD/svg11.dtd">
<svg width="100%" height="100%" viewBox="0 0 256 256" version="1.1" xmlns="http://www.w3.org/2000/svg" xmlns:xlink="http://www.w3.org/1999/xlink" xml:space="preserve" xmlns:serif="http://www.serif.com/" style="fill-rule:evenodd;clip-rule:evenodd;stroke-linejoin:round;stroke-miterlimit:2;">
    <rect id="neofox_train_wagon" x="-0" y="-0" width="256" height="256" style="fill:none;"/>
    <path id="Wagon-outline" serif:id="Wagon outline" d="M205.572,223.666C206.232,225.795 206.587,228.057 206.587,230.401C206.587,242.949 196.4,253.136 183.853,253.136C171.305,253.136 161.118,242.949 161.118,230.401C161.118,228.057 161.473,225.795 162.134,223.666L92.79,223.666C93.45,225.795 93.806,228.057 93.806,230.401C93.806,242.949 83.619,253.136 71.071,253.136C58.523,253.136 48.336,242.949 48.336,230.401C48.336,228.057 48.692,225.795 49.352,223.666L20.245,223.666C15.827,223.666 12.245,220.085 12.245,215.666L12.245,137.873C12.245,133.455 15.827,129.873 20.245,129.873L235.755,129.873C240.173,129.873 243.755,133.455 243.755,137.873L243.755,215.666C243.755,220.085 240.173,223.666 235.755,223.666L205.572,223.666ZM183.853,215.666C175.72,215.666 169.118,222.269 169.118,230.401C169.118,238.533 175.72,245.136 183.853,245.136C191.985,245.136 198.587,238.533 198.587,230.401C198.587,222.269 191.985,215.666 183.853,215.666ZM235.755,215.666L235.755,137.873L20.245,137.873L20.245,215.666L235.755,215.666ZM71.071,215.666C62.939,215.666 56.336,222.269 56.336,230.401C56.336,238.533 62.939,245.136 71.071,245.136C79.203,245.136 85.806,238.533 85.806,230.401C85.806,222.269 79.203,215.666 71.071,215.666Z"/>
    <path d="M208.134,225.666C208.431,227.199 208.587,228.782 208.587,230.401C208.587,244.053 197.504,255.136 183.853,255.136C170.201,255.136 159.118,244.053 159.118,230.401C159.118,228.782 159.274,227.199 159.571,225.666L95.352,225.666C95.65,227.199 95.806,228.782 95.806,230.401C95.806,244.053 84.723,255.136 71.071,255.136C57.42,255.136 46.336,244.053 46.336,230.401C46.336,228.782 46.492,227.199 46.79,225.666L20.245,225.666C14.722,225.666 10.245,221.189 10.245,215.666L10.245,137.873C10.245,132.35 14.722,127.873 20.245,127.873L235.755,127.873C241.278,127.873 245.755,132.35 245.755,137.873L245.755,215.666C245.755,221.189 241.278,225.666 235.755,225.666L208.134,225.666ZM183.853,215.666C175.72,215.666 169.118,222.269 169.118,230.401C169.118,238.533 175.72,245.136 183.853,245.136C191.985,245.136 198.587,238.533 198.587,230.401C198.587,222.269 191.985,215.666 183.853,215.666ZM235.755,215.666L235.755,137.873L20.245,137.873L20.245,215.666L235.755,215.666ZM71.071,215.666C62.939,215.666 56.336,222.269 56.336,230.401C56.336,238.533 62.939,245.136 71.071,245.136C79.203,245.136 85.806,238.533 85.806,230.401C85.806,222.269 79.203,215.666 71.071,215.666Z"/>
    <g id="Right-wheel" serif:id="Right wheel">
        <path d="M183.853,207.666C196.4,207.666 206.587,217.853 206.587,230.401C206.587,242.949 196.4,253.136 183.853,253.136C171.305,253.136 161.118,242.949 161.118,230.401C161.118,217.853 171.305,207.666 183.853,207.666ZM183.853,215.666C175.72,215.666 169.118,222.269 169.118,230.401C169.118,238.533 175.72,245.136 183.853,245.136C191.985,245.136 198.587,238.533 198.587,230.401C198.587,222.269 191.985,215.666 183.853,215.666Z"/>
        <circle cx="183.853" cy="230.401" r="14.735" style="fill:none;stroke:rgb(212,44,0);stroke-width:5px;"/>
        <path d="M183.853,215.666L183.853,245.136" style="fill:none;stroke:rgb(212,44,0);stroke-width:5px;stroke-linecap:round;stroke-miterlimit:1.5;"/>
        <path d="M171.092,223.034L196.613,237.768" style="fill:none;stroke:rgb(212,44,0);stroke-width:5px;stroke-linecap:round;stroke-miterlimit:1.5;"/>
        <path d="M171.092,237.768L196.613,223.034" style="fill:none;stroke:rgb(212,44,0);stroke-width:5px;stroke-linecap:round;stroke-miterlimit:1.5;"/>
    </g>
    <g id="Left-wheel" serif:id="Left wheel">
        <path d="M71.071,207.666C83.619,207.666 93.806,217.853 93.806,230.401C93.806,242.949 83.619,253.136 71.071,253.136C58.523,253.136 48.336,242.949 48.336,230.401C48.336,217.853 58.523,207.666 71.071,207.666ZM71.071,215.666C62.939,215.666 56.336,222.269 56.336,230.401C56.336,238.533 62.939,245.136 71.071,245.136C79.203,245.136 85.806,238.533 85.806,230.401C85.806,222.269 79.203,215.666 71.071,215.666Z"/>
        <circle cx="71.071" cy="230.401" r="14.735" style="fill:none;stroke:rgb(212,44,0);stroke-width:5px;"/>
        <path d="M71.071,215.666L71.071,245.136" style="fill:none;stroke:rgb(212,44,0);stroke-width:5px;stroke-linecap:round;stroke-miterlimit:1.5;"/>
        <path d="M58.31,223.034L83.832,237.768" style="fill:none;stroke:rgb(212,44,0);stroke-width:5px;stroke-linecap:round;stroke-miterlimit:1.5;"/>
        <path d="M58.31,237.768L83.832,223.034" style="fill:none;stroke:rgb(212,44,0);stroke-width:5px;stroke-linecap:round;stroke-miterlimit:1.5;"/>
    </g>
    <path id="Coal" d="M18.238,143.878C18.354,143.895 18.469,143.914 18.583,143.936C18.505,143.474 18.464,142.999 18.464,142.514C18.464,137.839 22.261,134.042 26.936,134.042C27.057,134.042 27.176,134.045 27.295,134.05C26.108,132.41 25.409,130.395 25.409,128.218C25.409,122.718 29.873,118.254 35.373,118.254C37.235,118.254 38.98,118.766 40.472,119.657C40.626,119.215 40.818,118.79 41.043,118.385C40.648,117.323 40.431,116.174 40.431,114.975C40.431,109.579 44.812,105.198 50.208,105.198C53.742,105.198 56.841,107.078 58.558,109.891C59.182,109.766 59.826,109.7 60.486,109.7C60.798,109.7 61.107,109.715 61.411,109.744C61.586,109.721 61.762,109.703 61.939,109.691C63.563,106.39 66.961,104.117 70.885,104.117C72.748,104.117 74.492,104.629 75.984,105.52C77.101,102.329 80.14,100.037 83.711,100.037C85,100.037 86.219,100.336 87.304,100.867C88.928,97.718 92.214,95.563 95.998,95.563C98.014,95.563 99.888,96.174 101.444,97.221L101.447,97.221C103.31,97.221 105.054,97.734 106.546,98.625C107.663,95.434 110.702,93.142 114.273,93.142C115.561,93.142 116.781,93.441 117.866,93.972C119.49,90.823 122.775,88.668 126.56,88.668C127.541,88.668 128.489,88.813 129.383,89.082C130.417,84.793 134.283,81.603 138.888,81.603C142.672,81.603 145.957,83.758 147.582,86.907C148.667,86.375 149.886,86.077 151.175,86.077C154.745,86.077 157.785,88.368 158.902,91.56C160.394,90.668 162.138,90.156 164.001,90.156C168.857,90.156 172.907,93.638 173.787,98.24C175.54,96.581 177.905,95.563 180.506,95.563C184.291,95.563 187.576,97.718 189.2,100.867C190.285,100.336 191.505,100.037 192.793,100.037C196.364,100.037 199.403,102.329 200.52,105.52C202.012,104.629 203.756,104.117 205.619,104.117C211.118,104.117 215.583,108.581 215.583,114.081C215.583,116.258 214.883,118.273 213.696,119.913C213.815,119.908 213.935,119.905 214.055,119.905C218.731,119.905 222.527,123.702 222.527,128.377C222.527,128.862 222.486,129.337 222.408,129.799C222.937,129.699 223.484,129.646 224.042,129.646C228.854,129.646 232.76,133.552 232.76,138.364C232.76,140.631 227.745,155.806 226.325,157.357C226.325,157.357 217.417,160.076 206.026,162.032C205.094,164.523 204.246,166.485 203.782,166.992C203.782,166.992 157.207,181.208 140.865,168.01L140.54,167.719C131.305,170.251 99.304,178.106 83.524,170.15C82.169,170.444 80.735,170.739 79.242,171.026L77.584,172.512C63.984,183.496 29.446,175.493 18.238,172.498L18.238,143.878Z" style="fill:rgb(31,30,30);stroke:black;stroke-width:3px;stroke-linecap:round;stroke-miterlimit:1.5;"/>
    <g id="Fox">
        <path id="Outline" d="M56.135,72.744C54.254,64.758 52.47,47.709 51.816,37.776C51.175,28.032 51.775,20.742 52.383,17.608C53.071,14.066 54.343,11.887 55.066,10.817C54.851,11.135 54.462,11.808 54.462,11.808C54.462,11.808 57.484,6.911 60.49,4.919C62.623,3.506 65.731,1.898 71.199,1.857C78.315,1.803 80.2,3.31 85.806,6.91C87.404,7.936 90.224,10.627 93.249,13.736C93.717,13.598 94.192,13.482 94.675,13.39C94.675,13.39 105.543,11.447 109.383,11.447C111.745,11.447 119.41,12.633 127.948,16.302C129.288,15.236 130.825,14.387 132.515,13.82C138.622,11.771 145.355,13.849 149.245,18.983L150.474,20.334C153.355,17.955 155.619,16.255 156.985,15.164C160.193,12.602 168.415,6.398 173.079,3.93C176.765,1.98 179.964,1.398 181.847,1.326C188.997,1.055 193.777,3.59 198.621,10.045C200.013,11.9 202.72,18.391 203.818,26.183C204.306,29.034 204.623,32.66 204.585,37.043C204.516,45.075 203.511,57.232 201.515,65.163C200.893,67.636 200.008,70.466 199.093,73.172C200.765,79.228 203.27,90.608 203.004,103.714C202.556,125.789 200.806,137.712 189.13,148.268C177.21,159.044 168.516,159.589 157.121,160.854C144.067,162.304 103.495,160.435 103.495,160.435C103.368,160.429 103.241,160.421 103.114,160.412C103.114,160.412 77.891,157.743 66.606,142.522C56.629,129.065 51.391,120.76 50.811,104.534C50.411,93.341 52.536,82.24 56.135,72.744ZM109.025,44.403C107.384,43.795 103.8,42.682 98.644,42.255C95.069,38.058 91.706,34.14 90.182,32.447C86.19,28.013 80.214,21.145 77.701,19.532C75.189,17.918 74.501,16.832 71.312,16.857C68.124,16.881 68.14,18.261 67.493,19.218C66.845,20.176 66.135,26.935 66.784,36.791C67.432,46.648 69.129,64.258 71.004,70.333C71.364,71.501 71.765,72.494 72.177,73.337C68.042,81.975 65.406,92.931 65.801,103.998C66.256,116.722 70.832,123.036 78.655,133.588C86.479,144.14 104.221,145.453 104.221,145.453C104.221,145.453 142.991,147.331 155.466,145.946C163.812,145.019 170.34,145.034 179.071,137.141C187.802,129.247 187.672,119.917 188.007,103.41C188.342,86.902 183.55,73.619 183.55,73.619L181.21,78.349C181.697,77.135 185.342,67.963 186.969,61.501C188.714,54.569 189.525,43.935 189.586,36.914C189.615,33.497 189.388,30.69 188.998,28.512C188.39,24.02 187.419,20.109 186.623,19.047C185.338,17.335 184.314,16.243 182.417,16.315C179.863,16.412 169.784,24.138 166.348,26.884C163.716,28.986 157.46,33.509 149.964,41.089C150.01,41.039 150.048,40.996 150.079,40.963C145.275,38.584 137.288,28.041 137.288,28.041C137.288,28.041 137.281,38.231 137.373,41.478C128.602,29.59 112.493,26.447 109.383,26.447C106.273,26.447 97.488,28.124 97.488,28.124C96.153,29.582 105.042,41.964 109.025,44.403C109.693,44.65 110.039,44.814 110.039,44.814C109.758,44.785 109.415,44.642 109.025,44.403ZM140.757,51.414C140.758,51.421 140.76,51.428 140.763,51.436L140.738,51.435L140.757,51.414ZM181.13,78.481L181.144,78.482L181.137,78.496L181.13,78.481Z"/>
        <g id="Left-ear" serif:id="Left ear">
            <path id="Outer" d="M181.156,78.484C181.156,78.484 185.224,68.433 186.969,61.501C188.714,54.569 189.525,43.935 189.586,36.914C189.646,29.893 187.908,20.76 186.623,19.047C185.338,17.335 184.314,16.243 182.417,16.315C179.863,16.412 169.784,24.138 166.348,26.884C162.688,29.808 152.021,37.411 140.755,51.407C141.735,55.186 166.746,77.015 181.156,78.484Z" style="fill:rgb(42,42,42);"/>
            <path id="Inner" d="M181.156,78.484C181.156,78.484 185.224,68.433 186.969,61.501C188.714,54.569 189.525,43.935 189.586,36.914C189.646,29.893 188.622,25.449 187.337,23.737C186.052,22.024 185.128,22.063 183.232,21.976C181.336,21.889 174.218,27.012 171.818,30.698C169.418,34.384 165.131,43.857 162.222,46.425C159.314,48.992 153.956,51.937 149.954,51.668C150.934,55.447 166.746,77.015 181.156,78.484Z" style="fill:rgb(235,220,204);"/>
        </g>
        <path id="Right-ear" serif:id="Right ear" d="M110.785,56.585C110.785,56.585 94.174,36.882 90.182,32.447C86.19,28.013 80.214,21.145 77.701,19.532C75.189,17.918 74.501,16.832 71.312,16.857C68.124,16.881 68.14,18.261 67.493,19.218C66.845,20.176 66.135,26.935 66.784,36.791C67.432,46.648 69.129,64.258 71.004,70.333C72.879,76.407 75.84,77.761 75.84,77.761L110.785,56.585Z" style="fill:rgb(42,42,42);"/>
        <path id="Body" d="M155.466,145.946C142.991,147.331 104.221,145.453 104.221,145.453C104.221,145.453 86.479,144.14 78.655,133.588C70.832,123.036 66.256,116.722 65.801,103.998C65.346,91.274 68.899,78.696 74.131,69.619C79.363,60.543 89.357,51.379 96.002,51.68C92.169,50.337 81.976,47.632 77.022,48.112C78.341,47.231 85.553,41.974 95.029,42.086C104.505,42.198 110.039,44.814 110.039,44.814C106.879,44.491 96.022,29.725 97.488,28.124C97.488,28.124 106.273,26.447 109.383,26.447C112.493,26.447 128.602,29.59 137.373,41.478C137.281,38.231 137.288,28.041 137.288,28.041C137.288,28.041 145.275,38.584 150.079,40.963C149.136,41.992 140.738,51.435 140.738,51.435L160.855,51.817L160.885,65.049L174.39,65.098L181.137,78.496L183.55,73.619C183.55,73.619 188.342,86.902 188.007,103.41C187.672,119.917 187.802,129.247 179.071,137.141C170.34,145.034 163.812,145.019 155.466,145.946Z" style="fill:rgb(247,150,91);"/>
        <g id="Face">
            <path id="Mouth" d="M95.745,108.16L104.26,122.475L115.734,108.185L129.947,122.436L146.878,108.201" style="fill:none;stroke:black;stroke-width:7.9px;stroke-linecap:round;stroke-miterlimit:1.5;"/>
            <g id="Eyes">
                <path id="Right-eye" serif:id="Right eye" d="M156.954,73.409L156.954,79.688C156.954,86.284 151.599,91.639 145.003,91.639C138.407,91.639 133.052,86.284 133.052,79.688L133.052,73.409C133.052,66.813 138.407,61.458 145.003,61.458C151.599,61.458 156.954,66.813 156.954,73.409Z"/>
                <path id="Left-eye" serif:id="Left eye" d="M109.46,73.358L109.46,79.637C109.46,86.233 104.105,91.588 97.509,91.588C90.913,91.588 85.558,86.233 85.558,79.637L85.558,73.358C85.558,66.762 90.913,61.407 97.509,61.407C104.105,61.407 109.46,66.762 109.46,73.358Z"/>
            </g>
        </g>
    </g>
    <path id="Nose" d="M123.388,95.04C123.388,97.842 121.113,100.117 118.311,100.117L114.593,100.117C111.791,100.117 109.516,97.842 109.516,95.04C109.516,92.238 111.791,89.963 114.593,89.963L118.311,89.963C121.113,89.963 123.388,92.238 123.388,95.04Z" style="fill:rgb(50,18,11);"/>
    <rect id="Front-panel" serif:id="Front panel" x="18.889" y="138.728" width="218.694" height="74.379" style="fill:rgb(157,30,30);"/>
    <path d="M242.584,138.728L242.584,213.107C242.584,215.868 240.345,218.107 237.584,218.107L18.889,218.107C16.128,218.107 13.889,215.868 13.889,213.107L13.889,138.728C13.889,135.967 16.128,133.728 18.889,133.728L237.584,133.728C240.345,133.728 242.584,135.967 242.584,138.728ZM237.584,138.728L18.889,138.728L18.889,213.107L237.584,213.107L237.584,138.728Z"/>
    <g id="Panel-shadows" serif:id="Panel shadows">
        <path d="M19.177,149.839L237.723,149.839" style="fill:none;stroke:rgb(93,17,17);stroke-width:3px;stroke-miterlimit:1.5;"/>
        <path d="M19.177,167.793L237.723,167.793" style="fill:none;stroke:rgb(93,17,17);stroke-width:3px;stroke-miterlimit:1.5;"/>
        <path d="M19.177,185.747L237.723,185.747" style="fill:none;stroke:rgb(93,17,17);stroke-width:3px;stroke-miterlimit:1.5;"/>
        <path d="M19.177,203.7L237.723,203.7" style="fill:none;stroke:rgb(93,17,17);stroke-width:3px;stroke-miterlimit:1.5;"/>
    </g>
    <path id="Right-buffer" serif:id="Right buffer" d="M249.624,199.404L249.624,206.067L244.508,206.067L244.508,199.404L249.624,199.404ZM252.611,192.573L252.611,212.897L250.976,212.897L250.976,192.573L252.611,192.573Z"/>
    <path d="M247.976,196.404L247.976,192.573C247.976,190.916 249.319,189.573 250.976,189.573L252.611,189.573C254.268,189.573 255.611,190.916 255.611,192.573L255.611,212.897C255.611,214.554 254.268,215.897 252.611,215.897L250.976,215.897C249.319,215.897 247.976,214.554 247.976,212.897L247.976,209.067L244.508,209.067C242.852,209.067 241.508,207.723 241.508,206.067L241.508,199.404C241.508,197.747 242.852,196.404 244.508,196.404L247.976,196.404ZM252.611,192.573L250.976,192.573L250.976,212.897L252.611,212.897L252.611,192.573ZM249.624,199.404L244.508,199.404L244.508,206.067L249.624,206.067L249.624,199.404Z"/>
    <path id="Left-buffer" serif:id="Left buffer" d="M6.405,199.404L6.405,206.067L11.521,206.067L11.521,199.404L6.405,199.404ZM3.419,192.573L3.419,212.897L5.054,212.897L5.054,192.573L3.419,192.573Z"/>
    <path d="M8.054,196.404L11.521,196.404C13.178,196.404 14.521,197.747 14.521,199.404L14.521,206.067C14.521,207.723 13.178,209.067 11.521,209.067L8.054,209.067L8.054,212.897C8.054,214.554 6.71,215.897 5.054,215.897L3.419,215.897C1.762,215.897 0.419,214.554 0.419,212.897L0.419,192.573C0.419,190.916 1.762,189.573 3.419,189.573L5.054,189.573C6.71,189.573 8.054,190.916 8.054,192.573L8.054,196.404ZM3.419,192.573L3.419,212.897L5.054,212.897L5.054,192.573L3.419,192.573ZM6.405,199.404L6.405,206.067L11.521,206.067L11.521,199.404L6.405,199.404Z"/>
</svg>
