<?xml version="1.0" encoding="UTF-8" standalone="no"?>
<!DOCTYPE svg PUBLIC "-//W3C//DTD SVG 1.1//EN" "http://www.w3.org/Graphics/SVG/1.1/DTD/svg11.dtd">
<svg width="100%" height="100%" viewBox="0 0 257 256" version="1.1" xmlns="http://www.w3.org/2000/svg" xmlns:xlink="http://www.w3.org/1999/xlink" xml:space="preserve" xmlns:serif="http://www.serif.com/" style="fill-rule:evenodd;clip-rule:evenodd;stroke-linecap:round;stroke-linejoin:round;stroke-miterlimit:1.5;">
    <g transform="matrix(1,0,0,1,-1123,0)">
        <g id="blobbee_wolf_hug" transform="matrix(1,0,0,1,1123.91,0)">
            <rect x="0" y="0" width="256" height="256" style="fill:none;"/>
            <g id="Bee" transform="matrix(0.681503,0,0,0.681503,92.3096,60.4387)">
                <clipPath id="_clip1">
                    <path d="M211.459,180.054L211.81,292.616L-149.134,300.059L-149.079,-101.624L191.49,-98.989L191.49,45.116C226.297,46.697 254.291,135.553 211.459,180.054"/>
                </clipPath>
                <g clip-path="url(#_clip1)">
                    <g id="Sting" transform="matrix(0.78314,0.139967,-0.135634,0.7589,67.2303,-21.11)">
                        <path d="M189.771,56.854L238.765,34.355L235.05,81.388" style="fill:rgb(104,104,104);stroke:black;stroke-width:18.73px;"/>
                    </g>
                    <g id="Body" transform="matrix(0.994109,-0.573949,0.761422,1.28301,-120.17,92.6047)">
                        <ellipse cx="168.926" cy="110.515" rx="107.942" ry="55.376" style="fill:rgb(104,104,104);stroke:black;stroke-width:10.96px;"/>
                    </g>
                    <g id="Wings-outline" serif:id="Wings outline" transform="matrix(0.959562,0.127262,-0.127262,0.959562,7.56883,-6.44254)">
                        <g transform="matrix(1.17688,-0.575088,0.651434,1.21399,-55.8934,35.953)">
                            <path d="M87.573,10.539C107.062,10.539 124.752,29.593 124.752,54.773C124.752,80.454 106.571,99.843 86.693,99.843C67.204,99.843 49.513,80.789 49.513,55.609C49.513,29.927 67.695,10.539 87.573,10.539ZM87.133,21.55C72.762,21.55 61.095,36.624 61.095,55.191C61.095,73.758 72.762,88.832 87.133,88.832C101.504,88.832 113.171,73.758 113.171,55.191C113.171,36.624 101.504,21.55 87.133,21.55Z"/>
                        </g>
                        <g transform="matrix(1.24343,0.685066,-0.776012,1.28263,74.2693,-72.8119)">
                            <path d="M86.7,11.429C106.149,11.429 123.858,30.473 123.858,55.601C123.858,80.236 106.634,98.952 87.566,98.952C68.117,98.952 50.408,79.909 50.408,54.781C50.408,30.145 67.632,11.429 86.7,11.429ZM87.133,21.55C72.762,21.55 61.095,36.624 61.095,55.191C61.095,73.758 72.762,88.832 87.133,88.832C101.504,88.832 113.171,73.758 113.171,55.191C113.171,36.624 101.504,21.55 87.133,21.55Z"/>
                        </g>
                    </g>
                    <g id="Stripes" transform="matrix(1,0,0,1,4.4273,10.012)">
                        <g transform="matrix(1,-7.43708e-18,-7.43708e-18,1,92.3462,-63.8411)">
                            <path d="M37.588,107.021C36.302,108.044 130.102,103.736 138.911,199.269C185.818,73.536 38.054,97.55 37.588,107.021Z" style="fill:rgb(254,194,7);stroke:black;stroke-width:4.4px;"/>
                        </g>
                        <g transform="matrix(1,-7.43708e-18,-7.43708e-18,1,73.4912,-52.6421)">
                            <path d="M157.766,189.064C152.141,96.884 58.714,94.709 59.225,91.972L24.408,104.867C24.408,104.867 137.219,103.115 141.236,211.738L154.889,190.72" style="fill:rgb(104,104,104);stroke:black;stroke-width:4.4px;"/>
                        </g>
                        <g transform="matrix(1,-7.43708e-18,-7.43708e-18,1,55.5726,-39.8214)">
                            <path d="M138.184,221.282L158.96,198.917C155.015,90.156 39.958,88.264 39.959,88.304L21.516,99.184C21.345,99.215 140.506,108.796 138.184,221.282Z" style="fill:rgb(254,194,7);stroke:black;stroke-width:4.4px;"/>
                        </g>
                        <g transform="matrix(1,-7.43708e-18,-7.43708e-18,1,25.9786,-19.0024)">
                            <path d="M52.67,78.448L32.777,93.969C32.777,93.969 147.14,105.355 145.924,216.369L167.401,201.973C175.368,91.857 51.46,79.379 49.702,80.764" style="fill:rgb(104,104,104);stroke:black;stroke-width:4.4px;"/>
                        </g>
                        <g transform="matrix(1,-7.43708e-18,-7.43708e-18,1,-0.424026,-0.546032)">
                            <path d="M54.907,77.629L39.992,93.485C39.992,93.485 145.269,94.435 147.67,208.921L172.327,197.913C176.533,83.454 58.325,78.845 54.907,77.629Z" style="fill:rgb(254,194,7);stroke:black;stroke-width:4.4px;"/>
                        </g>
                    </g>
                    <g id="Body-outline" serif:id="Body outline" transform="matrix(0.994109,-0.573949,0.761422,1.28301,-120.17,92.6047)">
                        <ellipse cx="168.926" cy="110.515" rx="107.942" ry="55.376" style="fill:none;stroke:black;stroke-width:10.96px;"/>
                    </g>
                    <g id="Wings" transform="matrix(0.959562,0.127262,-0.127262,0.959562,7.56883,-6.44254)">
                        <g id="Back-wing" serif:id="Back wing" transform="matrix(1.17688,-0.575088,0.651434,1.21399,-55.8934,35.953)">
                            <ellipse cx="87.133" cy="55.191" rx="26.038" ry="33.641" style="fill:rgb(195,195,195);stroke:black;stroke-width:3.32px;"/>
                        </g>
                        <g id="Front-wing" serif:id="Front wing" transform="matrix(0.946806,0,0,0.999012,5.86837,0.313874)">
                            <g id="Front-wing-main" serif:id="Front wing main" transform="matrix(1.31328,0.685743,-0.81961,1.2839,72.2439,-73.1981)">
                                <ellipse cx="87.133" cy="55.191" rx="26.038" ry="33.641" style="fill:rgb(195,195,195);stroke:black;stroke-width:3.18px;"/>
                            </g>
                            <path id="Front-wing-line" serif:id="Front wing line" d="M119.334,101.013C123.249,82.03 129.669,61.104 148.451,47.276" style="fill:none;stroke:black;stroke-width:4.67px;"/>
                        </g>
                    </g>
                    <g id="Face" transform="matrix(1,0,0,1,-3.8947,1.36785)">
                        <g id="Mouth" transform="matrix(0.658566,-1.17246e-18,-3.87825e-17,0.848272,3.90699,42.2986)">
                            <path d="M79.429,171.352L92.31,191.237L108.219,172.744L128,191.722L152.351,171.648" style="fill:none;stroke:black;stroke-width:21.26px;stroke-miterlimit:2;"/>
                            <path d="M79.429,171.352L92.31,191.237L108.219,172.744L128,191.722L152.351,171.648" style="fill:none;stroke:rgb(235,235,235);stroke-width:9.66px;"/>
                        </g>
                        <g id="Eyes" transform="matrix(0.856324,0.124954,-0.124954,0.856324,35.143,7.15355)">
                            <g id="Right-eye" serif:id="Right eye" transform="matrix(1.56791,-0.228787,0.215752,1.47858,-150.38,17.2361)">
                                <path d="M154.615,113.255C154.615,107.493 150.203,102.815 144.77,102.815C139.336,102.815 134.924,107.493 134.924,113.255L134.924,120.6C134.924,126.362 139.336,131.04 144.77,131.04C150.203,131.04 154.615,126.362 154.615,120.6L154.615,113.255Z" style="fill:rgb(235,235,235);stroke:black;stroke-width:3.3px;"/>
                            </g>
                            <g id="Right-eye1" serif:id="Right eye" transform="matrix(0.639006,-0.0932429,0.104024,0.712889,-4.68472,94.5194)">
                                <path d="M154.615,111.64C154.615,106.77 150.203,102.815 144.77,102.815C139.336,102.815 134.924,106.77 134.924,111.64L134.924,122.216C134.924,127.086 139.336,131.04 144.77,131.04C150.203,131.04 154.615,127.086 154.615,122.216L154.615,111.64Z"/>
                            </g>
                            <g id="Left-eye" serif:id="Left eye" transform="matrix(1.56791,-0.228787,0.215752,1.47858,-201.077,24.6337)">
                                <path d="M154.615,113.255C154.615,107.493 150.203,102.815 144.77,102.815C139.336,102.815 134.924,107.493 134.924,113.255L134.924,120.6C134.924,126.362 139.336,131.04 144.77,131.04C150.203,131.04 154.615,126.362 154.615,120.6L154.615,113.255Z" style="fill:rgb(235,235,235);stroke:black;stroke-width:3.3px;"/>
                            </g>
                            <g id="Right-eye2" serif:id="Right eye" transform="matrix(0.639006,-0.0932429,0.104024,0.712889,-55.3816,101.917)">
                                <path d="M154.615,111.64C154.615,106.77 150.203,102.815 144.77,102.815C139.336,102.815 134.924,106.77 134.924,111.64L134.924,122.216C134.924,127.086 139.336,131.04 144.77,131.04C150.203,131.04 154.615,127.086 154.615,122.216L154.615,111.64Z"/>
                            </g>
                        </g>
                    </g>
                </g>
            </g>
            <g id="Wolf">
                <g transform="matrix(1,0,0,1,-281,-1686)">
                    <path d="M347.285,1816.84C347.285,1816.84 375.947,1788.02 383.077,1791.89C388.503,1794.84 383.523,1833.81 382.757,1839.13" style="stroke:black;stroke-width:10px;"/>
                </g>
                <g transform="matrix(1,0,0,1,-281,-1686)">
                    <path d="M347.285,1816.84C382.453,1818.81 380.825,1843.24 393.071,1855.13C406.306,1867.98 421.891,1870.55 426.613,1877.4C430.314,1882.78 426.771,1891.08 421.4,1896.27C406.517,1910.67 407.716,1908.11 400.37,1908.66C393.023,1909.22 373.951,1907.14 361.47,1914.31C347.539,1922.31 347.135,1933.7 347.135,1933.7L290.1,1933.35L289.624,1835.68C289.624,1835.68 291.214,1830.11 298.618,1829.32L301.024,1828.79C298.732,1811.16 311.13,1775.6 321.297,1774.94C334.383,1774.09 340.967,1800.51 347.285,1816.84Z" style="fill:rgb(158,158,158);stroke:black;stroke-width:10px;"/>
                </g>
                <g transform="matrix(1,0,0,1,-281,-1686)">
                    <path d="M348.742,1832.57C348.742,1832.57 332.931,1841.79 329.182,1846.18C325.433,1850.59 322.361,1852.89 319.564,1854.92C316.768,1856.96 313.274,1857.92 310.256,1857.82C308.973,1856 302.893,1845.14 303.294,1827.26C303.695,1809.38 308.138,1801.22 310.037,1796.3C311.937,1791.38 314.871,1777.57 324.065,1777.25C333.26,1776.92 343.935,1814.34 348.742,1832.57Z" style="fill:rgb(33,33,33);"/>
                </g>
                <g transform="matrix(1,0,0,1,-281,-1686)">
                    <path d="M326.008,1849.55C326.008,1849.55 321.719,1838.58 318.785,1833.37C316.706,1829.68 310.761,1818.59 311.658,1812.13C312.555,1805.68 317.081,1784.67 323.568,1784.89C330.055,1785.12 334.471,1803.06 335.216,1806.75C337.232,1816.74 336.469,1840.27 336.469,1840.27L326.008,1849.55Z" style="fill:rgb(207,207,207);"/>
                </g>
                <g transform="matrix(1,0,0,1,-281,-1686)">
                    <path d="M425.331,1882.81C425.331,1882.81 415.386,1873.85 406.139,1870.74C396.317,1867.43 374.681,1867.69 362.021,1874.31C335.033,1888.4 355.639,1908.52 369.227,1905.75C371.08,1905.37 385.267,1904.2 399.909,1903.96C411.881,1903.77 425.331,1882.81 425.331,1882.81Z" style="fill:rgb(207,207,207);"/>
                </g>
                <g transform="matrix(1.02412,0,0,1.14738,-298.463,-1960.52)">
                    <ellipse cx="423.43" cy="1880.36" rx="10.187" ry="7.448" style="fill:rgb(33,33,33);"/>
                </g>
                <g transform="matrix(1,0,0,1,-281,-1687)">
                    <path d="M350.447,1855.54C350.447,1855.54 366.696,1851.14 372.493,1865.74" style="fill:none;stroke:black;stroke-width:8px;"/>
                </g>
                <g transform="matrix(1,0,0,1,-281,-1686)">
                    <path d="M362.021,1887.5L367.74,1893.1L381.975,1893.05L405.209,1901.39" style="fill:none;stroke:black;stroke-width:8px;"/>
                </g>
            </g>
            <g id="Arm" transform="matrix(1.63279,-0.328001,0.274023,1.36409,-87.0604,-32.736)">
                <path d="M128.697,197.227C139.854,198.934 133.797,215.823 127.214,222.098C123.277,225.851 118.51,225.897 110.264,223.828C98.536,220.884 85.763,212.694 90.545,203.32C93.174,198.167 99.766,197.924 107.573,203.183C112.87,206.752 116.499,209.057 119.358,207.391C123.597,204.921 123.591,198.041 128.697,197.227Z" style="fill:rgb(151,151,151);stroke:black;stroke-width:3.26px;"/>
            </g>
            <g id="Body-stroke" serif:id="Body stroke" transform="matrix(1,0,0,1,-316.968,-1353.34)">
                <path d="M537.043,1444.11C560.795,1446.95 580.23,1507.87 550.251,1539.35" style="fill:none;stroke:black;stroke-width:3px;"/>
            </g>
            <g id="Body-stroke1" serif:id="Body stroke" transform="matrix(1,0,0,1,-316.968,-1353.34)">
                <path d="M539.2,1444.11C562.952,1446.95 580.23,1507.87 550.251,1539.35" style="fill:none;stroke:black;stroke-width:10px;"/>
            </g>
            <g id="Sting1" serif:id="Sting" transform="matrix(0.404212,0.0635387,-0.061572,0.3917,156.047,61.2466)">
                <path d="M191.017,52.697L238.765,34.355L230.765,91.133" style="fill:rgb(104,104,104);stroke:black;stroke-width:24.82px;"/>
            </g>
            <g id="Heart" transform="matrix(1.18084,0,0,1.50689,-1464.48,-1306.74)">
                <path d="M1324.07,885.041C1332.46,873.088 1349.24,873.088 1357.63,879.065C1366.02,885.041 1366.02,896.994 1357.63,908.948C1351.76,917.912 1336.66,926.877 1324.07,932.854C1311.49,926.877 1296.39,917.912 1290.52,908.948C1282.13,896.994 1282.13,885.041 1290.52,879.065C1298.91,873.088 1315.69,873.088 1324.07,885.041Z" style="fill:rgb(250,41,41);stroke:black;stroke-width:7.39px;"/>
            </g>
        </g>
    </g>
</svg>
