<?xml version="1.0" encoding="UTF-8" standalone="no"?>
<!DOCTYPE svg PUBLIC "-//W3C//DTD SVG 1.1//EN" "http://www.w3.org/Graphics/SVG/1.1/DTD/svg11.dtd">
<svg width="100%" height="100%" viewBox="0 0 256 256" version="1.1" xmlns="http://www.w3.org/2000/svg" xmlns:xlink="http://www.w3.org/1999/xlink" xml:space="preserve" xmlns:serif="http://www.serif.com/" style="fill-rule:evenodd;clip-rule:evenodd;stroke-linejoin:round;stroke-miterlimit:1.5;">
    <g transform="matrix(1,0,0,1,-1686,-1686)">
        <g id="blobbee_filament" transform="matrix(1,0,0,1,1686,1686)">
            <rect x="0" y="0" width="256" height="256" style="fill:none;"/>
            <g id="Spool-outline" serif:id="Spool outline" transform="matrix(0.920097,0,0,0.920097,-1565.32,-1533.5)">
                <path d="M1774.6,1838.36C1802.04,1838.36 1824.33,1860.64 1824.33,1888.08C1824.33,1915.53 1802.04,1937.81 1774.6,1937.81C1747.15,1937.81 1724.87,1915.53 1724.87,1888.08C1724.87,1860.64 1747.15,1838.36 1774.6,1838.36ZM1774.6,1871.59C1765.5,1871.59 1758.11,1878.98 1758.11,1888.08C1758.11,1897.18 1765.5,1904.57 1774.6,1904.57C1783.7,1904.57 1791.09,1897.18 1791.09,1888.08C1791.09,1878.98 1783.7,1871.59 1774.6,1871.59ZM1733.6,1882.75L1750.91,1882.75C1752.01,1877.87 1754.57,1873.55 1758.12,1870.27L1749.46,1855.27C1740.94,1861.81 1735.04,1871.58 1733.6,1882.75ZM1758.75,1849.9L1767.4,1864.89C1769.68,1864.19 1772.09,1863.81 1774.6,1863.81C1777.1,1863.81 1779.52,1864.19 1781.79,1864.89L1790.45,1849.9C1785.57,1847.87 1780.21,1846.75 1774.6,1846.75C1768.98,1846.75 1763.63,1847.87 1758.75,1849.9ZM1799.73,1855.27L1791.08,1870.27C1794.62,1873.55 1797.19,1877.87 1798.28,1882.75L1815.59,1882.75C1814.15,1871.58 1808.25,1861.81 1799.73,1855.27ZM1815.59,1893.42L1798.28,1893.42C1797.19,1898.29 1794.62,1902.62 1791.08,1905.9L1799.73,1920.89C1808.25,1914.36 1814.15,1904.58 1815.59,1893.42ZM1790.45,1926.27L1781.79,1911.27C1779.52,1911.98 1777.1,1912.36 1774.6,1912.36C1772.09,1912.36 1769.68,1911.98 1767.4,1911.27L1758.75,1926.27C1763.63,1928.3 1768.98,1929.42 1774.6,1929.42C1780.21,1929.42 1785.57,1928.3 1790.45,1926.27ZM1749.46,1920.89L1758.12,1905.9C1754.57,1902.62 1752.01,1898.29 1750.91,1893.42L1733.6,1893.42C1735.04,1904.58 1740.94,1914.36 1749.46,1920.89Z" style="fill:none;stroke:black;stroke-width:10.87px;"/>
            </g>
            <g id="Sting" transform="matrix(0.78314,0.139967,-0.135634,0.7589,67.2303,-21.11)">
                <path d="M189.771,56.854L238.765,34.355L235.05,81.388" style="fill:rgb(104,104,104);stroke:black;stroke-width:12.77px;stroke-linecap:round;"/>
            </g>
            <g id="Body" transform="matrix(0.994109,-0.573949,0.761422,1.28301,-120.17,92.6047)">
                <ellipse cx="168.926" cy="110.515" rx="107.942" ry="55.376" style="fill:rgb(104,104,104);stroke:black;stroke-width:7.47px;stroke-linecap:round;"/>
            </g>
            <g id="Wings-outline" serif:id="Wings outline" transform="matrix(0.959562,0.127262,-0.127262,0.959562,7.56883,-6.44254)">
                <g transform="matrix(1.17688,-0.575088,0.651434,1.21399,-55.8934,35.953)">
                    <path d="M87.433,14.046C105.289,14.046 121.064,31.835 121.064,54.906C121.064,78.317 104.954,96.336 86.833,96.336C68.977,96.336 53.202,78.546 53.202,55.475C53.202,32.064 69.312,14.046 87.433,14.046ZM87.133,21.55C72.762,21.55 61.095,36.624 61.095,55.191C61.095,73.758 72.762,88.832 87.133,88.832C101.504,88.832 113.171,73.758 113.171,55.191C113.171,36.624 101.504,21.55 87.133,21.55Z"/>
                </g>
                <g transform="matrix(1.24343,0.685066,-0.776012,1.28263,74.2693,-72.8119)">
                    <path d="M86.838,14.653C104.667,14.653 120.454,32.436 120.454,55.47C120.454,78.17 104.998,95.729 87.428,95.729C69.599,95.729 53.812,77.946 53.812,54.911C53.812,32.211 69.268,14.653 86.838,14.653ZM87.133,21.55C72.762,21.55 61.095,36.624 61.095,55.191C61.095,73.758 72.762,88.832 87.133,88.832C101.504,88.832 113.171,73.758 113.171,55.191C113.171,36.624 101.504,21.55 87.133,21.55Z"/>
                </g>
            </g>
            <g id="Stripes" transform="matrix(1,0,0,1,4.4273,10.012)">
                <g transform="matrix(1,-7.43708e-18,-7.43708e-18,1,92.3462,-63.8411)">
                    <path d="M37.588,107.021C36.302,108.044 130.102,103.736 138.911,199.269C185.818,73.536 38.054,97.55 37.588,107.021Z" style="fill:rgb(254,194,7);stroke:black;stroke-width:3px;stroke-linecap:round;"/>
                </g>
                <g transform="matrix(1,-7.43708e-18,-7.43708e-18,1,73.4912,-52.6421)">
                    <path d="M157.766,189.064C152.141,96.884 58.714,94.709 59.225,91.972L24.408,104.867C24.408,104.867 137.219,103.115 141.236,211.738L154.889,190.72" style="fill:rgb(104,104,104);stroke:black;stroke-width:3px;stroke-linecap:round;"/>
                </g>
                <g transform="matrix(1,-7.43708e-18,-7.43708e-18,1,55.5726,-39.8214)">
                    <path d="M138.184,221.282L158.96,198.917C155.015,90.156 39.958,88.264 39.959,88.304L21.516,99.184C21.345,99.215 140.506,108.796 138.184,221.282Z" style="fill:rgb(254,194,7);stroke:black;stroke-width:3px;stroke-linecap:round;"/>
                </g>
                <g transform="matrix(1,-7.43708e-18,-7.43708e-18,1,25.9786,-19.0024)">
                    <path d="M52.67,78.448L32.777,93.969C32.777,93.969 147.14,105.355 145.924,216.369L167.401,201.973C175.368,91.857 51.46,79.379 49.702,80.764" style="fill:rgb(104,104,104);stroke:black;stroke-width:3px;stroke-linecap:round;"/>
                </g>
                <g transform="matrix(1,-7.43708e-18,-7.43708e-18,1,-0.424026,-0.546032)">
                    <path d="M54.907,77.629L39.992,93.485C39.992,93.485 145.269,94.435 147.67,208.921L172.327,197.913C176.533,83.454 58.325,78.845 54.907,77.629Z" style="fill:rgb(254,194,7);stroke:black;stroke-width:3px;stroke-linecap:round;"/>
                </g>
            </g>
            <g id="Eyes" transform="matrix(0.856324,0.124954,-0.124954,0.856324,31.2483,6.45261)">
                <g id="Face">
                    <g id="Eyes1" serif:id="Eyes">
                        <g id="Right-eye" serif:id="Right eye">
                            <g id="Right-eye1" serif:id="Right eye" transform="matrix(1.14344,-0.166848,0.166848,1.14344,-157.44,-795.193)">
                                <circle cx="103.071" cy="847.784" r="16.18" style="fill:rgb(235,235,235);stroke:black;stroke-width:3px;stroke-linecap:round;"/>
                            </g>
                            <g id="Right-pupil" serif:id="Right pupil" transform="matrix(1.67877,-0.244964,0.244964,1.67877,-282.572,-1240.44)">
                                <circle cx="103.071" cy="847.784" r="8.799"/>
                            </g>
                            <g id="Right-eye2" serif:id="Right eye" transform="matrix(0.495712,-0.0723336,0.0723336,0.495712,-19.155,-258.894)">
                                <circle cx="103.071" cy="847.784" r="16.18" style="fill:rgb(235,235,235);"/>
                            </g>
                        </g>
                        <g id="Left-eye" serif:id="Left eye" transform="matrix(1,7.37496e-18,-2.21882e-17,1,-50.731,7.40259)">
                            <g id="Right-eye3" serif:id="Right eye" transform="matrix(1.14344,-0.166848,0.166848,1.14344,-157.44,-795.193)">
                                <circle cx="103.071" cy="847.784" r="16.18" style="fill:rgb(235,235,235);stroke:black;stroke-width:3px;stroke-linecap:round;"/>
                            </g>
                            <g id="Right-pupil1" serif:id="Right pupil" transform="matrix(1.67877,-0.244964,0.244964,1.67877,-282.572,-1240.44)">
                                <circle cx="103.071" cy="847.784" r="8.799"/>
                            </g>
                            <g id="Right-eye4" serif:id="Right eye" transform="matrix(0.495712,-0.0723336,0.0723336,0.495712,-19.155,-258.894)">
                                <circle cx="103.071" cy="847.784" r="16.18" style="fill:rgb(235,235,235);"/>
                            </g>
                        </g>
                    </g>
                </g>
            </g>
            <g id="Body-outline" serif:id="Body outline" transform="matrix(0.994109,-0.573949,0.761422,1.28301,-120.17,92.6047)">
                <ellipse cx="168.926" cy="110.515" rx="107.942" ry="55.376" style="fill:none;stroke:black;stroke-width:7.47px;stroke-linecap:round;"/>
            </g>
            <g id="Wings" transform="matrix(0.959562,0.127262,-0.127262,0.959562,7.56883,-6.44254)">
                <g id="Back-wing" serif:id="Back wing" transform="matrix(1.17688,-0.575088,0.651434,1.21399,-55.8934,35.953)">
                    <ellipse cx="87.133" cy="55.191" rx="26.038" ry="33.641" style="fill:rgb(195,195,195);stroke:black;stroke-width:2.26px;stroke-linecap:round;"/>
                </g>
                <g id="Front-wing" serif:id="Front wing" transform="matrix(0.946806,0,0,0.999012,5.86837,0.313874)">
                    <g id="Front-wing-main" serif:id="Front wing main" transform="matrix(1.31328,0.685743,-0.81961,1.2839,72.2439,-73.1981)">
                        <ellipse cx="87.133" cy="55.191" rx="26.038" ry="33.641" style="fill:rgb(195,195,195);stroke:black;stroke-width:2.17px;stroke-linecap:round;"/>
                    </g>
                    <path id="Front-wing-line" serif:id="Front wing line" d="M119.334,101.013C123.249,82.03 129.669,61.104 148.451,47.276" style="fill:none;stroke:black;stroke-width:3.18px;stroke-linecap:round;"/>
                </g>
            </g>
            <g id="Arm" transform="matrix(-1.18438,-0.237922,-0.274023,1.36409,219.559,-43.3407)">
                <path d="M126.361,195.324C131.632,207.227 133.182,217.035 130.643,222.887C128.104,228.739 123.003,235.183 111.72,230.967C100.281,226.693 85.917,212.804 90.545,203.32C94.217,195.795 104.937,195.209 112.743,200.468C118.04,204.037 116.287,208.38 119.358,207.391C121.378,206.74 121.255,196.139 126.361,195.324Z" style="fill:rgb(151,151,151);stroke:black;stroke-width:3.84px;stroke-linecap:round;"/>
            </g>
            <g id="Spool-back" serif:id="Spool back" transform="matrix(0.920097,0,0,0.920097,-1557.62,-1541.2)">
                <path d="M1774.6,1838.36C1802.04,1838.36 1824.33,1860.64 1824.33,1888.08C1824.33,1915.53 1802.04,1937.81 1774.6,1937.81C1747.15,1937.81 1724.87,1915.53 1724.87,1888.08C1724.87,1860.64 1747.15,1838.36 1774.6,1838.36ZM1774.6,1871.59C1765.5,1871.59 1758.11,1878.98 1758.11,1888.08C1758.11,1897.18 1765.5,1904.57 1774.6,1904.57C1783.7,1904.57 1791.09,1897.18 1791.09,1888.08C1791.09,1878.98 1783.7,1871.59 1774.6,1871.59ZM1733.6,1882.75L1750.91,1882.75C1752.01,1877.87 1754.57,1873.55 1758.12,1870.27L1749.46,1855.27C1740.94,1861.81 1735.04,1871.58 1733.6,1882.75ZM1758.75,1849.9L1767.4,1864.89C1769.68,1864.19 1772.09,1863.81 1774.6,1863.81C1777.1,1863.81 1779.52,1864.19 1781.79,1864.89L1790.45,1849.9C1785.57,1847.87 1780.21,1846.75 1774.6,1846.75C1768.98,1846.75 1763.63,1847.87 1758.75,1849.9ZM1799.73,1855.27L1791.08,1870.27C1794.62,1873.55 1797.19,1877.87 1798.28,1882.75L1815.59,1882.75C1814.15,1871.58 1808.25,1861.81 1799.73,1855.27ZM1815.59,1893.42L1798.28,1893.42C1797.19,1898.29 1794.62,1902.62 1791.08,1905.9L1799.73,1920.89C1808.25,1914.36 1814.15,1904.58 1815.59,1893.42ZM1790.45,1926.27L1781.79,1911.27C1779.52,1911.98 1777.1,1912.36 1774.6,1912.36C1772.09,1912.36 1769.68,1911.98 1767.4,1911.27L1758.75,1926.27C1763.63,1928.3 1768.98,1929.42 1774.6,1929.42C1780.21,1929.42 1785.57,1928.3 1790.45,1926.27ZM1749.46,1920.89L1758.12,1905.9C1754.57,1902.62 1752.01,1898.29 1750.91,1893.42L1733.6,1893.42C1735.04,1904.58 1740.94,1914.36 1749.46,1920.89Z" style="fill:rgb(31,30,30);"/>
                <path d="M1774.6,1835.09C1803.84,1835.09 1827.59,1858.84 1827.59,1888.08C1827.59,1917.33 1803.84,1941.07 1774.6,1941.07C1745.35,1941.07 1721.61,1917.33 1721.61,1888.08C1721.61,1858.84 1745.35,1835.09 1774.6,1835.09ZM1774.6,1838.36C1747.15,1838.36 1724.87,1860.64 1724.87,1888.08C1724.87,1915.53 1747.15,1937.81 1774.6,1937.81C1802.04,1937.81 1824.33,1915.53 1824.33,1888.08C1824.33,1860.64 1802.04,1838.36 1774.6,1838.36ZM1815.59,1893.42C1814.15,1904.58 1808.25,1914.36 1799.73,1920.89L1791.08,1905.9C1794.62,1902.62 1797.19,1898.29 1798.28,1893.42L1815.59,1893.42ZM1811.7,1896.68C1811.7,1896.68 1800.76,1896.68 1800.76,1896.68C1799.57,1900.32 1797.63,1903.62 1795.14,1906.41C1795.14,1906.41 1800.61,1915.88 1800.61,1915.88C1806.03,1910.8 1809.97,1904.16 1811.7,1896.68ZM1758.75,1849.9C1763.63,1847.87 1768.98,1846.75 1774.6,1846.75C1780.21,1846.75 1785.57,1847.87 1790.45,1849.9L1781.79,1864.89C1779.52,1864.19 1777.1,1863.81 1774.6,1863.81C1772.09,1863.81 1769.68,1864.19 1767.4,1864.89L1758.75,1849.9ZM1763.52,1851.64C1763.52,1851.64 1768.99,1861.12 1768.99,1861.12C1770.8,1860.75 1772.68,1860.55 1774.6,1860.55C1776.52,1860.55 1778.39,1860.75 1780.2,1861.12C1780.2,1861.12 1785.67,1851.64 1785.67,1851.64C1782.17,1850.58 1778.45,1850.01 1774.6,1850.01C1770.75,1850.01 1767.03,1850.58 1763.52,1851.64ZM1749.46,1920.89C1740.94,1914.36 1735.04,1904.58 1733.6,1893.42L1750.91,1893.42C1752.01,1898.29 1754.57,1902.62 1758.12,1905.9L1749.46,1920.89ZM1748.59,1915.88C1748.59,1915.88 1754.06,1906.41 1754.06,1906.41C1751.56,1903.62 1749.63,1900.32 1748.43,1896.68C1748.43,1896.68 1737.5,1896.68 1737.5,1896.68C1739.23,1904.16 1743.16,1910.8 1748.59,1915.88ZM1774.6,1871.59C1783.7,1871.59 1791.09,1878.98 1791.09,1888.08C1791.09,1897.18 1783.7,1904.57 1774.6,1904.57C1765.5,1904.57 1758.11,1897.18 1758.11,1888.08C1758.11,1878.98 1765.5,1871.59 1774.6,1871.59ZM1774.6,1874.85C1767.3,1874.85 1761.37,1880.78 1761.37,1888.08C1761.37,1895.38 1767.3,1901.31 1774.6,1901.31C1781.9,1901.31 1787.83,1895.38 1787.83,1888.08C1787.83,1880.78 1781.9,1874.85 1774.6,1874.85ZM1799.73,1855.27C1808.25,1861.81 1814.15,1871.58 1815.59,1882.75L1798.28,1882.75C1797.19,1877.87 1794.62,1873.55 1791.08,1870.27L1799.73,1855.27ZM1800.61,1860.28C1800.61,1860.28 1795.14,1869.75 1795.14,1869.75C1797.63,1872.55 1799.57,1875.85 1800.76,1879.49C1800.76,1879.49 1811.7,1879.49 1811.7,1879.49C1809.97,1872 1806.03,1865.36 1800.61,1860.28ZM1790.45,1926.27C1785.57,1928.3 1780.21,1929.42 1774.6,1929.42C1768.98,1929.42 1763.63,1928.3 1758.75,1926.27L1767.4,1911.27C1769.68,1911.98 1772.09,1912.36 1774.6,1912.36C1777.1,1912.36 1779.52,1911.98 1781.79,1911.27L1790.45,1926.27ZM1785.67,1924.52C1785.67,1924.52 1780.2,1915.04 1780.2,1915.04C1778.39,1915.42 1776.52,1915.62 1774.6,1915.62C1772.68,1915.62 1770.8,1915.42 1768.99,1915.04C1768.99,1915.04 1763.52,1924.52 1763.52,1924.52C1767.03,1925.59 1770.75,1926.16 1774.6,1926.16C1778.45,1926.16 1782.17,1925.59 1785.67,1924.52ZM1733.6,1882.75C1735.04,1871.58 1740.94,1861.81 1749.46,1855.27L1758.12,1870.27C1754.57,1873.55 1752.01,1877.87 1750.91,1882.75L1733.6,1882.75ZM1737.5,1879.49C1737.5,1879.49 1748.43,1879.49 1748.43,1879.49C1749.63,1875.85 1751.56,1872.55 1754.06,1869.75C1754.06,1869.75 1748.59,1860.28 1748.59,1860.28C1743.16,1865.36 1739.23,1872 1737.5,1879.49Z"/>
            </g>
            <g id="Arm1" serif:id="Arm" transform="matrix(1.36409,-0.274023,0.274023,1.36409,-87.4597,-38.5624)">
                <path d="M126.361,195.324C137.518,197.031 136.207,211.795 130.643,222.887C127.783,228.589 123.003,235.183 111.72,230.967C100.281,226.693 85.917,212.804 90.545,203.32C94.217,195.795 104.937,195.209 112.743,200.468C118.04,204.037 116.287,208.38 119.358,207.391C121.378,206.74 121.255,196.139 126.361,195.324Z" style="fill:rgb(151,151,151);stroke:black;stroke-width:3.59px;stroke-linecap:round;"/>
            </g>
            <g id="Spool" transform="matrix(1.08006,0,0,1.08006,-6.33792,-16.864)">
                <g id="Filament-fill" serif:id="Filament fill" transform="matrix(1.16194,0,0,1.16194,-1977.04,-1994.53)">
                    <path d="M1735.14,1886.86C1736.09,1879.48 1739.99,1873.02 1745.62,1868.71L1751.34,1878.61C1749,1880.78 1747.3,1883.63 1746.58,1886.86L1735.14,1886.86ZM1751.75,1865.15C1754.98,1863.81 1758.52,1863.07 1762.23,1863.07C1765.93,1863.07 1769.47,1863.81 1772.7,1865.15L1766.98,1875.06C1765.48,1874.6 1763.88,1874.35 1762.23,1874.35C1760.57,1874.35 1758.98,1874.6 1757.47,1875.06L1751.75,1865.15ZM1778.83,1868.71C1784.46,1873.02 1788.36,1879.48 1789.31,1886.86L1777.87,1886.86C1777.15,1883.63 1775.45,1880.78 1773.11,1878.61L1778.83,1868.71ZM1789.31,1893.9C1788.36,1901.28 1784.46,1907.74 1778.83,1912.06L1773.11,1902.15C1775.45,1899.98 1777.15,1897.13 1777.87,1893.9L1789.31,1893.9ZM1772.7,1915.61C1769.47,1916.95 1765.93,1917.69 1762.23,1917.69C1758.52,1917.69 1754.98,1916.95 1751.75,1915.61L1757.47,1905.7C1758.98,1906.17 1760.57,1906.42 1762.23,1906.42C1763.88,1906.42 1765.48,1906.17 1766.98,1905.7L1772.7,1915.61ZM1745.62,1912.06C1739.99,1907.74 1736.09,1901.28 1735.14,1893.9L1746.58,1893.9C1747.3,1897.13 1749,1899.98 1751.34,1902.15L1745.62,1912.06Z" style="fill:rgb(154,88,207);"/>
                    <path d="M1732.77,1886.55C1733.81,1878.53 1738.05,1871.51 1744.16,1866.81C1744.71,1866.39 1745.41,1866.23 1746.08,1866.36C1746.76,1866.5 1747.34,1866.91 1747.69,1867.51L1753.41,1877.42C1753.97,1878.38 1753.78,1879.61 1752.96,1880.37C1750.97,1882.21 1749.53,1884.64 1748.91,1887.38C1748.66,1888.47 1747.7,1889.25 1746.58,1889.25L1735.14,1889.25C1734.45,1889.25 1733.8,1888.95 1733.35,1888.43C1732.89,1887.92 1732.68,1887.23 1732.77,1886.55ZM1735.14,1886.86L1746.58,1886.86C1747.3,1883.63 1749,1880.78 1751.34,1878.61L1745.62,1868.71C1739.99,1873.02 1736.09,1879.48 1735.14,1886.86ZM1750.84,1862.95C1754.34,1861.49 1758.19,1860.68 1762.23,1860.68C1766.26,1860.68 1770.11,1861.49 1773.62,1862.95C1774.25,1863.21 1774.74,1863.74 1774.96,1864.39C1775.18,1865.04 1775.11,1865.75 1774.77,1866.35L1769.05,1876.26C1768.49,1877.22 1767.34,1877.68 1766.27,1877.35C1764.99,1876.95 1763.63,1876.74 1762.23,1876.74C1760.82,1876.74 1759.46,1876.95 1758.18,1877.35C1757.12,1877.68 1755.96,1877.22 1755.4,1876.26L1749.68,1866.35C1749.34,1865.75 1749.27,1865.04 1749.49,1864.39C1749.71,1863.74 1750.2,1863.21 1750.84,1862.95ZM1751.75,1865.15L1757.47,1875.06C1758.98,1874.6 1760.57,1874.35 1762.23,1874.35C1763.88,1874.35 1765.48,1874.6 1766.98,1875.06L1772.7,1865.15C1769.47,1863.81 1765.93,1863.07 1762.23,1863.07C1758.52,1863.07 1754.98,1863.81 1751.75,1865.15ZM1780.29,1866.81C1786.4,1871.51 1790.64,1878.53 1791.68,1886.55C1791.77,1887.23 1791.56,1887.92 1791.1,1888.43C1790.65,1888.95 1790,1889.25 1789.31,1889.25L1777.87,1889.25C1776.75,1889.25 1775.79,1888.47 1775.54,1887.38C1774.92,1884.64 1773.48,1882.21 1771.49,1880.37C1770.67,1879.61 1770.48,1878.38 1771.04,1877.42L1776.76,1867.51C1777.11,1866.91 1777.69,1866.5 1778.37,1866.36C1779.04,1866.23 1779.74,1866.39 1780.29,1866.81ZM1778.83,1868.71L1773.11,1878.61C1775.45,1880.78 1777.15,1883.63 1777.87,1886.86L1789.31,1886.86C1788.36,1879.48 1784.46,1873.02 1778.83,1868.71ZM1791.68,1894.21C1790.64,1902.23 1786.4,1909.26 1780.29,1913.95C1779.74,1914.37 1779.04,1914.54 1778.37,1914.4C1777.69,1914.27 1777.11,1913.85 1776.76,1913.25L1771.04,1903.35C1770.48,1902.38 1770.67,1901.15 1771.49,1900.4C1773.48,1898.55 1774.92,1896.12 1775.54,1893.38C1775.79,1892.29 1776.75,1891.52 1777.87,1891.52L1789.31,1891.52C1790,1891.52 1790.65,1891.81 1791.1,1892.33C1791.56,1892.84 1791.77,1893.53 1791.68,1894.21ZM1789.31,1893.9L1777.87,1893.9C1777.15,1897.13 1775.45,1899.98 1773.11,1902.15L1778.83,1912.06C1784.46,1907.74 1788.36,1901.28 1789.31,1893.9ZM1773.62,1917.81C1770.11,1919.27 1766.26,1920.08 1762.23,1920.08C1758.19,1920.08 1754.34,1919.27 1750.84,1917.81C1750.2,1917.55 1749.71,1917.03 1749.49,1916.37C1749.27,1915.72 1749.34,1915.01 1749.68,1914.41L1755.4,1904.51C1755.96,1903.54 1757.12,1903.09 1758.18,1903.42C1759.46,1903.81 1760.82,1904.03 1762.23,1904.03C1763.63,1904.03 1764.99,1903.81 1766.27,1903.42C1767.34,1903.09 1768.49,1903.54 1769.05,1904.51L1774.77,1914.41C1775.11,1915.01 1775.18,1915.72 1774.96,1916.37C1774.74,1917.03 1774.25,1917.55 1773.62,1917.81ZM1772.7,1915.61L1766.98,1905.7C1765.48,1906.17 1763.88,1906.42 1762.23,1906.42C1760.57,1906.42 1758.98,1906.17 1757.47,1905.7L1751.75,1915.61C1754.98,1916.95 1758.52,1917.69 1762.23,1917.69C1765.93,1917.69 1769.47,1916.95 1772.7,1915.61ZM1744.16,1913.95C1738.05,1909.26 1733.81,1902.23 1732.77,1894.21C1732.68,1893.53 1732.89,1892.84 1733.35,1892.33C1733.8,1891.81 1734.45,1891.52 1735.14,1891.52L1746.58,1891.52C1747.7,1891.52 1748.66,1892.29 1748.91,1893.38C1749.53,1896.12 1750.97,1898.55 1752.96,1900.4C1753.78,1901.15 1753.97,1902.38 1753.41,1903.35L1747.69,1913.25C1747.34,1913.85 1746.76,1914.27 1746.08,1914.4C1745.41,1914.54 1744.71,1914.37 1744.16,1913.95ZM1745.62,1912.06L1751.34,1902.15C1749,1899.98 1747.3,1897.13 1746.58,1893.9L1735.14,1893.9C1736.09,1901.28 1739.99,1907.74 1745.62,1912.06Z"/>
                </g>
                <g id="Filament" transform="matrix(1,0,0,1,-1693.72,-1687.89)">
                    <path d="M1756.57,1852.54C1756.57,1852.54 1819.61,1844.73 1821.72,1917.69" style="fill:none;stroke:rgb(154,88,207);stroke-width:2.78px;"/>
                </g>
                <g id="Spool-front" serif:id="Spool front" transform="matrix(0.851894,0,0,0.851894,-1443.42,-1404.21)">
                    <path d="M1774.6,1838.36C1802.04,1838.36 1824.33,1860.64 1824.33,1888.08C1824.33,1915.53 1802.04,1937.81 1774.6,1937.81C1747.15,1937.81 1724.87,1915.53 1724.87,1888.08C1724.87,1860.64 1747.15,1838.36 1774.6,1838.36ZM1774.6,1871.59C1765.5,1871.59 1758.11,1878.98 1758.11,1888.08C1758.11,1897.18 1765.5,1904.57 1774.6,1904.57C1783.7,1904.57 1791.09,1897.18 1791.09,1888.08C1791.09,1878.98 1783.7,1871.59 1774.6,1871.59ZM1733.6,1882.75L1750.91,1882.75C1752.01,1877.87 1754.57,1873.55 1758.12,1870.27L1749.46,1855.27C1740.94,1861.81 1735.04,1871.58 1733.6,1882.75ZM1758.75,1849.9L1767.4,1864.89C1769.68,1864.19 1772.09,1863.81 1774.6,1863.81C1777.1,1863.81 1779.52,1864.19 1781.79,1864.89L1790.45,1849.9C1785.57,1847.87 1780.21,1846.75 1774.6,1846.75C1768.98,1846.75 1763.63,1847.87 1758.75,1849.9ZM1799.73,1855.27L1791.08,1870.27C1794.62,1873.55 1797.19,1877.87 1798.28,1882.75L1815.59,1882.75C1814.15,1871.58 1808.25,1861.81 1799.73,1855.27ZM1815.59,1893.42L1798.28,1893.42C1797.19,1898.29 1794.62,1902.62 1791.08,1905.9L1799.73,1920.89C1808.25,1914.36 1814.15,1904.58 1815.59,1893.42ZM1790.45,1926.27L1781.79,1911.27C1779.52,1911.98 1777.1,1912.36 1774.6,1912.36C1772.09,1912.36 1769.68,1911.98 1767.4,1911.27L1758.75,1926.27C1763.63,1928.3 1768.98,1929.42 1774.6,1929.42C1780.21,1929.42 1785.57,1928.3 1790.45,1926.27ZM1749.46,1920.89L1758.12,1905.9C1754.57,1902.62 1752.01,1898.29 1750.91,1893.42L1733.6,1893.42C1735.04,1904.58 1740.94,1914.36 1749.46,1920.89Z" style="fill:rgb(31,30,30);"/>
                    <path d="M1774.6,1835.09C1803.84,1835.09 1827.59,1858.84 1827.59,1888.08C1827.59,1917.33 1803.84,1941.07 1774.6,1941.07C1745.35,1941.07 1721.61,1917.33 1721.61,1888.08C1721.61,1858.84 1745.35,1835.09 1774.6,1835.09ZM1774.6,1838.36C1747.15,1838.36 1724.87,1860.64 1724.87,1888.08C1724.87,1915.53 1747.15,1937.81 1774.6,1937.81C1802.04,1937.81 1824.33,1915.53 1824.33,1888.08C1824.33,1860.64 1802.04,1838.36 1774.6,1838.36ZM1733.6,1882.75C1735.04,1871.58 1740.94,1861.81 1749.46,1855.27L1758.12,1870.27C1754.57,1873.55 1752.01,1877.87 1750.91,1882.75L1733.6,1882.75ZM1737.5,1879.49C1737.5,1879.49 1748.43,1879.49 1748.43,1879.49C1749.63,1875.85 1751.56,1872.55 1754.06,1869.75C1754.06,1869.75 1748.59,1860.28 1748.59,1860.28C1743.16,1865.36 1739.23,1872 1737.5,1879.49ZM1749.46,1920.89C1740.94,1914.36 1735.04,1904.58 1733.6,1893.42L1750.91,1893.42C1752.01,1898.29 1754.57,1902.62 1758.12,1905.9L1749.46,1920.89ZM1748.59,1915.88C1748.59,1915.88 1754.06,1906.41 1754.06,1906.41C1751.56,1903.62 1749.63,1900.32 1748.43,1896.68C1748.43,1896.68 1737.5,1896.68 1737.5,1896.68C1739.23,1904.16 1743.16,1910.8 1748.59,1915.88ZM1758.75,1849.9C1763.63,1847.87 1768.98,1846.75 1774.6,1846.75C1780.21,1846.75 1785.57,1847.87 1790.45,1849.9L1781.79,1864.89C1779.52,1864.19 1777.1,1863.81 1774.6,1863.81C1772.09,1863.81 1769.68,1864.19 1767.4,1864.89L1758.75,1849.9ZM1763.52,1851.64C1763.52,1851.64 1768.99,1861.12 1768.99,1861.12C1770.8,1860.75 1772.68,1860.55 1774.6,1860.55C1776.52,1860.55 1778.39,1860.75 1780.2,1861.12C1780.2,1861.12 1785.67,1851.64 1785.67,1851.64C1782.17,1850.58 1778.45,1850.01 1774.6,1850.01C1770.75,1850.01 1767.03,1850.58 1763.52,1851.64ZM1774.6,1871.59C1783.7,1871.59 1791.09,1878.98 1791.09,1888.08C1791.09,1897.18 1783.7,1904.57 1774.6,1904.57C1765.5,1904.57 1758.11,1897.18 1758.11,1888.08C1758.11,1878.98 1765.5,1871.59 1774.6,1871.59ZM1774.6,1874.85C1767.3,1874.85 1761.37,1880.78 1761.37,1888.08C1761.37,1895.38 1767.3,1901.31 1774.6,1901.31C1781.9,1901.31 1787.83,1895.38 1787.83,1888.08C1787.83,1880.78 1781.9,1874.85 1774.6,1874.85ZM1790.45,1926.27C1785.57,1928.3 1780.21,1929.42 1774.6,1929.42C1768.98,1929.42 1763.63,1928.3 1758.75,1926.27L1767.4,1911.27C1769.68,1911.98 1772.09,1912.36 1774.6,1912.36C1777.1,1912.36 1779.52,1911.98 1781.79,1911.27L1790.45,1926.27ZM1785.67,1924.52C1785.67,1924.52 1780.2,1915.04 1780.2,1915.04C1778.39,1915.42 1776.52,1915.62 1774.6,1915.62C1772.68,1915.62 1770.8,1915.42 1768.99,1915.04C1768.99,1915.04 1763.52,1924.52 1763.52,1924.52C1767.03,1925.59 1770.75,1926.16 1774.6,1926.16C1778.45,1926.16 1782.17,1925.59 1785.67,1924.52ZM1799.73,1855.27C1808.25,1861.81 1814.15,1871.58 1815.59,1882.75L1798.28,1882.75C1797.19,1877.87 1794.62,1873.55 1791.08,1870.27L1799.73,1855.27ZM1800.61,1860.28C1800.61,1860.28 1795.14,1869.75 1795.14,1869.75C1797.63,1872.55 1799.57,1875.85 1800.76,1879.49C1800.76,1879.49 1811.7,1879.49 1811.7,1879.49C1809.97,1872 1806.03,1865.36 1800.61,1860.28ZM1815.59,1893.42C1814.15,1904.58 1808.25,1914.36 1799.73,1920.89L1791.08,1905.9C1794.62,1902.62 1797.19,1898.29 1798.28,1893.42L1815.59,1893.42ZM1811.7,1896.68C1811.7,1896.68 1800.76,1896.68 1800.76,1896.68C1799.57,1900.32 1797.63,1903.62 1795.14,1906.41C1795.14,1906.41 1800.61,1915.88 1800.61,1915.88C1806.03,1910.8 1809.97,1904.16 1811.7,1896.68Z"/>
                </g>
            </g>
        </g>
    </g>
</svg>
