<?xml version="1.0" encoding="UTF-8" standalone="no"?>
<!DOCTYPE svg PUBLIC "-//W3C//DTD SVG 1.1//EN" "http://www.w3.org/Graphics/SVG/1.1/DTD/svg11.dtd">
<svg width="100%" height="100%" viewBox="0 0 256 257" version="1.1" xmlns="http://www.w3.org/2000/svg" xmlns:xlink="http://www.w3.org/1999/xlink" xml:space="preserve" xmlns:serif="http://www.serif.com/" style="fill-rule:evenodd;clip-rule:evenodd;stroke-linecap:round;stroke-linejoin:round;stroke-miterlimit:1.5;">
    <g transform="matrix(1,0,0,1,-1405,-563)">
        <g id="blobbee_laugh" transform="matrix(1,0,0,1,1405,563.267)">
            <rect x="0" y="0" width="256" height="256" style="fill:none;"/>
            <g id="Left-tear-outline" serif:id="Left tear outline" transform="matrix(0.936822,0.540874,-0.540874,0.936822,-743.592,-1196.5)">
                <path d="M1273.77,725.4C1273.77,725.4 1288.09,756.408 1288.09,769.643C1288.09,782.154 1277.93,792.311 1265.42,792.311C1252.91,792.311 1242.76,782.154 1242.76,769.643C1242.76,756.408 1257.08,725.4 1257.08,725.4C1258.61,722.18 1261.86,720.13 1265.42,720.13C1268.99,720.13 1272.24,722.18 1273.77,725.4ZM1265.42,729.374C1265.42,729.374 1252,757.563 1252,769.643C1252,777.052 1258.02,783.067 1265.42,783.067C1272.83,783.067 1278.85,777.052 1278.85,769.643C1278.85,757.563 1265.42,729.374 1265.42,729.374Z"/>
            </g>
            <g id="Right-tear-outline" serif:id="Right tear outline" transform="matrix(0.936822,-0.540874,0.540874,0.936822,-1447.93,172.243)">
                <path d="M1273.77,725.4C1273.77,725.4 1288.09,756.408 1288.09,769.643C1288.09,782.154 1277.93,792.311 1265.42,792.311C1252.91,792.311 1242.76,782.154 1242.76,769.643C1242.76,756.408 1257.08,725.4 1257.08,725.4C1258.61,722.18 1261.86,720.13 1265.42,720.13C1268.99,720.13 1272.24,722.18 1273.77,725.4ZM1265.42,729.374C1265.42,729.374 1252,757.563 1252,769.643C1252,777.052 1258.02,783.067 1265.42,783.067C1272.83,783.067 1278.85,777.052 1278.85,769.643C1278.85,757.563 1265.42,729.374 1265.42,729.374Z"/>
            </g>
            <g id="Sting" transform="matrix(0.725132,0.129599,-0.125588,0.702687,80.0952,-4.13759)">
                <path d="M189.771,56.854L238.765,34.355L235.05,81.388" style="fill:rgb(104,104,104);stroke:black;stroke-width:13.79px;"/>
            </g>
            <g id="Body" transform="matrix(0.920474,-0.531436,0.705022,1.18797,-93.4239,101.154)">
                <ellipse cx="168.926" cy="110.515" rx="107.942" ry="55.376" style="fill:rgb(104,104,104);stroke:black;stroke-width:8.07px;"/>
            </g>
            <g id="Wings-outline" serif:id="Wings outline" transform="matrix(0.888486,0.117836,-0.117836,0.888486,24.8529,9.44342)">
                <g transform="matrix(1.17688,-0.575088,0.651434,1.21399,-55.8934,35.953)">
                    <path d="M87.457,13.445C105.593,13.445 121.695,31.452 121.695,54.883C121.695,78.683 105.231,96.936 86.809,96.936C68.673,96.936 52.571,78.93 52.571,55.498C52.571,31.698 69.035,13.445 87.457,13.445ZM87.133,21.55C72.762,21.55 61.095,36.624 61.095,55.191C61.095,73.758 72.762,88.832 87.133,88.832C101.504,88.832 113.171,73.758 113.171,55.191C113.171,36.624 101.504,21.55 87.133,21.55Z"/>
                </g>
                <g transform="matrix(1.24343,0.685066,-0.776012,1.28263,74.2693,-72.8119)">
                    <path d="M86.814,14.101C104.92,14.101 121.037,32.1 121.037,55.492C121.037,78.524 105.278,96.28 87.452,96.28C69.346,96.28 53.229,78.281 53.229,54.889C53.229,31.858 68.988,14.101 86.814,14.101ZM87.133,21.55C72.762,21.55 61.095,36.624 61.095,55.191C61.095,73.758 72.762,88.832 87.133,88.832C101.504,88.832 113.171,73.758 113.171,55.191C113.171,36.624 101.504,21.55 87.133,21.55Z"/>
                </g>
            </g>
            <g id="Stripes" transform="matrix(0.925929,0,0,0.925929,21.9441,24.6791)">
                <g transform="matrix(1,-7.43708e-18,-7.43708e-18,1,92.3462,-63.8411)">
                    <path d="M37.588,107.021C36.302,108.044 130.102,103.736 138.911,199.269C185.818,73.536 38.054,97.55 37.588,107.021Z" style="fill:rgb(254,194,7);stroke:black;stroke-width:3.24px;"/>
                </g>
                <g transform="matrix(1,-7.43708e-18,-7.43708e-18,1,73.4912,-52.6421)">
                    <path d="M157.766,189.064C152.141,96.884 58.714,94.709 59.225,91.972L24.408,104.867C24.408,104.867 137.219,103.115 141.236,211.738L154.889,190.72" style="fill:rgb(104,104,104);stroke:black;stroke-width:3.24px;"/>
                </g>
                <g transform="matrix(1,-7.43708e-18,-7.43708e-18,1,55.5726,-39.8214)">
                    <path d="M138.184,221.282L158.96,198.917C155.015,90.156 39.958,88.264 39.959,88.304L21.516,99.184C21.345,99.215 140.506,108.796 138.184,221.282Z" style="fill:rgb(254,194,7);stroke:black;stroke-width:3.24px;"/>
                </g>
                <g transform="matrix(1,-7.43708e-18,-7.43708e-18,1,25.9786,-19.0024)">
                    <path d="M52.67,78.448L32.777,93.969C32.777,93.969 147.14,105.355 145.924,216.369L167.401,201.973C175.368,91.857 51.46,79.379 49.702,80.764" style="fill:rgb(104,104,104);stroke:black;stroke-width:3.24px;"/>
                </g>
                <g transform="matrix(1,-7.43708e-18,-7.43708e-18,1,-0.424026,-0.546032)">
                    <path d="M54.907,77.629L39.992,93.485C39.992,93.485 145.269,94.435 147.67,208.921L172.327,197.913C176.533,83.454 58.325,78.845 54.907,77.629Z" style="fill:rgb(254,194,7);stroke:black;stroke-width:3.24px;"/>
                </g>
            </g>
            <g id="Body-outline" serif:id="Body outline" transform="matrix(0.920474,-0.531436,0.705022,1.18797,-93.4239,101.154)">
                <ellipse cx="168.926" cy="110.515" rx="107.942" ry="55.376" style="fill:none;stroke:black;stroke-width:8.07px;"/>
            </g>
            <g id="Wings" transform="matrix(0.888486,0.117836,-0.117836,0.888486,24.8529,9.44342)">
                <g id="Back-wing" serif:id="Back wing" transform="matrix(1.17688,-0.575088,0.651434,1.21399,-55.8934,35.953)">
                    <ellipse cx="87.133" cy="55.191" rx="26.038" ry="33.641" style="fill:rgb(195,195,195);stroke:black;stroke-width:2.44px;"/>
                </g>
                <g id="Front-wing" serif:id="Front wing" transform="matrix(0.946806,0,0,0.999012,5.86837,0.313874)">
                    <g id="Front-wing-main" serif:id="Front wing main" transform="matrix(1.31328,0.685743,-0.81961,1.2839,72.2439,-73.1981)">
                        <ellipse cx="87.133" cy="55.191" rx="26.038" ry="33.641" style="fill:rgb(195,195,195);stroke:black;stroke-width:2.34px;"/>
                    </g>
                    <path id="Front-wing-line" serif:id="Front wing line" d="M119.334,101.013C123.249,82.03 129.669,61.104 148.451,47.276" style="fill:none;stroke:black;stroke-width:3.44px;"/>
                </g>
            </g>
            <g id="Face" transform="matrix(0.925929,0,0,0.925929,14.2385,16.6753)">
                <g id="Mouth" transform="matrix(0.576206,0,0,0.576206,24.8306,94.6873)">
                    <g transform="matrix(1.10126,0,0,1.25296,-1249.14,-759.985)">
                        <path d="M1181.5,741.245C1181.5,735.386 1186.9,730.637 1193.57,730.637C1207.54,730.637 1235.63,730.637 1249.6,730.637C1256.27,730.637 1261.67,735.386 1261.67,741.245C1261.67,741.246 1261.67,741.246 1261.67,741.247C1261.67,747.739 1257.64,753.837 1250.76,758.395C1245.33,761.988 1238.73,763.931 1231.93,763.931C1225.97,763.931 1217.2,763.931 1211.24,763.931C1204.44,763.931 1197.84,761.987 1192.41,758.395C1185.52,753.837 1181.5,747.739 1181.5,741.247C1181.5,741.246 1181.5,741.246 1181.5,741.245Z" style="fill:rgb(160,25,25);"/>
                        <path d="M1266.78,741.246C1266.78,749.06 1262.12,756.494 1253.83,761.98C1247.52,766.159 1239.83,768.419 1231.93,768.419L1211.24,768.419C1203.34,768.418 1195.65,766.158 1189.34,761.979C1181.05,756.494 1176.39,749.06 1176.39,741.246C1176.39,732.909 1184.08,726.149 1193.57,726.149L1249.6,726.149C1259.09,726.149 1266.78,732.908 1266.78,741.246C1266.78,742.652 1266.03,743.975 1264.76,744.823C1266.59,743.605 1266.78,742.465 1266.78,741.246ZM1181.5,741.246C1181.5,747.738 1185.52,753.837 1192.41,758.395C1197.84,761.987 1204.44,763.931 1211.24,763.931L1231.93,763.931C1238.73,763.931 1245.33,761.988 1250.76,758.395C1257.64,753.837 1261.67,747.738 1261.67,741.246C1261.67,735.387 1256.27,730.637 1249.6,730.637L1193.57,730.637C1186.9,730.637 1181.5,735.387 1181.5,741.246Z"/>
                    </g>
                    <g transform="matrix(1,0,0,1,-1123.26,-558.272)">
                        <path d="M1219.12,755.462C1217.62,753.524 1216.78,751.368 1216.78,749.096C1216.78,740.677 1228.29,733.841 1242.46,733.841C1249.54,733.841 1255.95,735.548 1260.6,738.306C1259.27,740.759 1257.51,743.079 1255.37,745.212C1248.76,751.773 1239.82,755.455 1230.51,755.455C1227.2,755.459 1223.15,755.461 1219.12,755.462Z" style="fill:rgb(245,169,184);"/>
                        <path d="M1214.67,758.905C1212.37,755.928 1211.16,752.587 1211.16,749.096C1211.16,744.145 1213.62,739.433 1218.2,735.721C1223.68,731.277 1232.48,728.218 1242.46,728.218C1250.66,728.218 1258.08,730.274 1263.47,733.471C1266.07,735.014 1266.98,738.335 1265.54,740.991C1263.96,743.903 1261.88,746.663 1259.34,749.194L1259.33,749.203C1251.66,756.809 1241.3,761.077 1230.51,761.077C1227.2,761.082 1223.15,761.084 1219.12,761.084C1217.38,761.085 1215.74,760.28 1214.67,758.905ZM1219.12,755.462C1223.15,755.461 1227.2,755.459 1230.51,755.455C1239.82,755.455 1248.76,751.773 1255.37,745.212C1257.51,743.079 1259.27,740.759 1260.6,738.306C1255.95,735.548 1249.54,733.841 1242.46,733.841C1228.29,733.841 1216.78,740.677 1216.78,749.096C1216.78,751.368 1217.62,753.524 1219.12,755.462Z"/>
                    </g>
                </g>
                <g id="Eyes" transform="matrix(1,0,0,1,-0.722699,-2.15855)">
                    <g id="Right-eye" serif:id="Right eye" transform="matrix(-0.820337,0.174022,-0.174022,-0.820337,244.787,200.395)">
                        <path d="M139.15,75.147C139.15,75.147 147.255,93.107 169.433,83.396" style="fill:none;stroke:black;stroke-width:18.03px;stroke-miterlimit:2;"/>
                        <path d="M139.15,75.147C139.15,75.147 147.255,93.107 169.433,83.396" style="fill:none;stroke:rgb(235,235,235);stroke-width:10.3px;"/>
                    </g>
                    <g id="Left-eye" serif:id="Left eye" transform="matrix(0.820057,0.173962,0.173962,-0.820057,-79.7354,200.382)">
                        <path d="M139.15,75.147C139.15,75.147 147.255,93.107 169.433,83.396" style="fill:none;stroke:black;stroke-width:18.04px;stroke-miterlimit:2;"/>
                        <path d="M139.15,75.147C139.15,75.147 147.255,93.107 169.433,83.396" style="fill:none;stroke:rgb(235,235,235);stroke-width:10.31px;"/>
                    </g>
                </g>
            </g>
            <g id="Right-tear" serif:id="Right tear" transform="matrix(0.936822,-0.540874,0.540874,0.936822,-1447.93,172.243)">
                <path d="M1265.42,729.374C1265.42,729.374 1278.85,757.563 1278.85,769.643C1278.85,777.052 1272.83,783.067 1265.42,783.067C1258.02,783.067 1252,777.052 1252,769.643C1252,757.563 1265.42,729.374 1265.42,729.374Z" style="fill:rgb(91,206,250);"/>
                <path d="M1267.93,728.182C1267.93,728.182 1281.62,757.216 1281.62,769.643C1281.62,778.582 1274.36,785.84 1265.42,785.84C1256.48,785.84 1249.23,778.582 1249.23,769.643C1249.23,757.216 1262.92,728.182 1262.92,728.182C1263.38,727.216 1264.35,726.601 1265.42,726.601C1266.49,726.601 1267.47,727.216 1267.93,728.182ZM1265.42,729.374C1265.42,729.374 1252,757.563 1252,769.643C1252,777.052 1258.02,783.067 1265.42,783.067C1272.83,783.067 1278.85,777.052 1278.85,769.643C1278.85,757.563 1265.42,729.374 1265.42,729.374Z"/>
            </g>
            <g id="Left-tear" serif:id="Left tear" transform="matrix(0.936822,0.540874,-0.540874,0.936822,-743.592,-1196.5)">
                <path d="M1265.42,729.374C1265.42,729.374 1278.85,757.563 1278.85,769.643C1278.85,777.052 1272.83,783.067 1265.42,783.067C1258.02,783.067 1252,777.052 1252,769.643C1252,757.563 1265.42,729.374 1265.42,729.374Z" style="fill:rgb(91,206,250);"/>
                <path d="M1267.93,728.182C1267.93,728.182 1281.62,757.216 1281.62,769.643C1281.62,778.582 1274.36,785.84 1265.42,785.84C1256.48,785.84 1249.23,778.582 1249.23,769.643C1249.23,757.216 1262.92,728.182 1262.92,728.182C1263.38,727.216 1264.35,726.601 1265.42,726.601C1266.49,726.601 1267.47,727.216 1267.93,728.182ZM1265.42,729.374C1265.42,729.374 1252,757.563 1252,769.643C1252,777.052 1258.02,783.067 1265.42,783.067C1272.83,783.067 1278.85,777.052 1278.85,769.643C1278.85,757.563 1265.42,729.374 1265.42,729.374Z"/>
            </g>
        </g>
    </g>
</svg>
