<?xml version="1.0" encoding="UTF-8" standalone="no"?>
<!DOCTYPE svg PUBLIC "-//W3C//DTD SVG 1.1//EN" "http://www.w3.org/Graphics/SVG/1.1/DTD/svg11.dtd">
<svg width="100%" height="100%" viewBox="0 0 256 256" version="1.1" xmlns="http://www.w3.org/2000/svg" xmlns:xlink="http://www.w3.org/1999/xlink" xml:space="preserve" xmlns:serif="http://www.serif.com/" style="fill-rule:evenodd;clip-rule:evenodd;stroke-linecap:round;stroke-linejoin:round;stroke-miterlimit:1.5;">
    <g transform="matrix(1,0,0,1,-1967,-1124)">
        <g id="blobbee_meeple" transform="matrix(1,0,0,1,1967,1124.7)">
            <rect x="0" y="0" width="256" height="256" style="fill:none;"/>
            <g id="Sting" transform="matrix(0.78314,0.139967,-0.135634,0.7589,67.2303,-21.11)">
                <path d="M189.771,56.854L238.765,34.355L235.05,81.388" style="fill:rgb(104,104,104);stroke:black;stroke-width:12.77px;"/>
            </g>
            <g id="Body" transform="matrix(0.994109,-0.573949,0.761422,1.28301,-120.17,92.6047)">
                <ellipse cx="168.926" cy="110.515" rx="107.942" ry="55.376" style="fill:rgb(104,104,104);stroke:black;stroke-width:7.47px;"/>
            </g>
            <g id="Wings-outline" serif:id="Wings outline" transform="matrix(0.959562,0.127262,-0.127262,0.959562,7.56883,-6.44254)">
                <g transform="matrix(1.17688,-0.575088,0.651434,1.21399,-55.8934,35.953)">
                    <path d="M87.433,14.046C105.289,14.046 121.064,31.835 121.064,54.906C121.064,78.317 104.954,96.336 86.833,96.336C68.977,96.336 53.202,78.546 53.202,55.475C53.202,32.064 69.312,14.046 87.433,14.046ZM87.133,21.55C72.762,21.55 61.095,36.624 61.095,55.191C61.095,73.758 72.762,88.832 87.133,88.832C101.504,88.832 113.171,73.758 113.171,55.191C113.171,36.624 101.504,21.55 87.133,21.55Z"/>
                </g>
                <g transform="matrix(1.24343,0.685066,-0.776012,1.28263,74.2693,-72.8119)">
                    <path d="M86.838,14.653C104.667,14.653 120.454,32.436 120.454,55.47C120.454,78.17 104.998,95.729 87.428,95.729C69.599,95.729 53.812,77.946 53.812,54.911C53.812,32.211 69.268,14.653 86.838,14.653ZM87.133,21.55C72.762,21.55 61.095,36.624 61.095,55.191C61.095,73.758 72.762,88.832 87.133,88.832C101.504,88.832 113.171,73.758 113.171,55.191C113.171,36.624 101.504,21.55 87.133,21.55Z"/>
                </g>
            </g>
            <g id="Stripes" transform="matrix(1,0,0,1,4.4273,10.012)">
                <g transform="matrix(1,-7.43708e-18,-7.43708e-18,1,92.3462,-63.8411)">
                    <path d="M37.588,107.021C36.302,108.044 130.102,103.736 138.911,199.269C185.818,73.536 38.054,97.55 37.588,107.021Z" style="fill:rgb(254,194,7);stroke:black;stroke-width:3px;"/>
                </g>
                <g transform="matrix(1,-7.43708e-18,-7.43708e-18,1,73.4912,-52.6421)">
                    <path d="M157.766,189.064C152.141,96.884 58.714,94.709 59.225,91.972L24.408,104.867C24.408,104.867 137.219,103.115 141.236,211.738L154.889,190.72" style="fill:rgb(104,104,104);stroke:black;stroke-width:3px;"/>
                </g>
                <g transform="matrix(1,-7.43708e-18,-7.43708e-18,1,55.5726,-39.8214)">
                    <path d="M138.184,221.282L158.96,198.917C155.015,90.156 39.958,88.264 39.959,88.304L21.516,99.184C21.345,99.215 140.506,108.796 138.184,221.282Z" style="fill:rgb(254,194,7);stroke:black;stroke-width:3px;"/>
                </g>
                <g transform="matrix(1,-7.43708e-18,-7.43708e-18,1,25.9786,-19.0024)">
                    <path d="M52.67,78.448L32.777,93.969C32.777,93.969 147.14,105.355 145.924,216.369L167.401,201.973C175.368,91.857 51.46,79.379 49.702,80.764" style="fill:rgb(104,104,104);stroke:black;stroke-width:3px;"/>
                </g>
                <g transform="matrix(1,-7.43708e-18,-7.43708e-18,1,-0.424026,-0.546032)">
                    <path d="M54.907,77.629L39.992,93.485C39.992,93.485 145.269,94.435 147.67,208.921L172.327,197.913C176.533,83.454 58.325,78.845 54.907,77.629Z" style="fill:rgb(254,194,7);stroke:black;stroke-width:3px;"/>
                </g>
            </g>
            <g id="Eyes" transform="matrix(0.856324,0.124954,-0.124954,0.856324,31.2483,6.45261)">
                <g id="Face">
                    <g id="Eyes1" serif:id="Eyes">
                        <g id="Right-eye" serif:id="Right eye">
                            <g id="Right-eye1" serif:id="Right eye" transform="matrix(1.14344,-0.166848,0.166848,1.14344,-157.44,-795.193)">
                                <circle cx="103.071" cy="847.784" r="16.18" style="fill:rgb(235,235,235);stroke:black;stroke-width:3px;"/>
                            </g>
                            <g id="Right-pupil" serif:id="Right pupil" transform="matrix(1.67877,-0.244964,0.244964,1.67877,-282.572,-1240.44)">
                                <circle cx="103.071" cy="847.784" r="8.799"/>
                            </g>
                            <g id="Right-eye2" serif:id="Right eye" transform="matrix(0.495712,-0.0723336,0.0723336,0.495712,-19.155,-258.894)">
                                <circle cx="103.071" cy="847.784" r="16.18" style="fill:rgb(235,235,235);"/>
                            </g>
                        </g>
                        <g id="Left-eye" serif:id="Left eye" transform="matrix(1,7.37496e-18,-2.21882e-17,1,-50.731,7.40259)">
                            <g id="Right-eye3" serif:id="Right eye" transform="matrix(1.14344,-0.166848,0.166848,1.14344,-157.44,-795.193)">
                                <circle cx="103.071" cy="847.784" r="16.18" style="fill:rgb(235,235,235);stroke:black;stroke-width:3px;"/>
                            </g>
                            <g id="Right-pupil1" serif:id="Right pupil" transform="matrix(1.67877,-0.244964,0.244964,1.67877,-282.572,-1240.44)">
                                <circle cx="103.071" cy="847.784" r="8.799"/>
                            </g>
                            <g id="Right-eye4" serif:id="Right eye" transform="matrix(0.495712,-0.0723336,0.0723336,0.495712,-19.155,-258.894)">
                                <circle cx="103.071" cy="847.784" r="16.18" style="fill:rgb(235,235,235);"/>
                            </g>
                        </g>
                    </g>
                </g>
            </g>
            <g id="Body-outline" serif:id="Body outline" transform="matrix(0.994109,-0.573949,0.761422,1.28301,-120.17,92.6047)">
                <ellipse cx="168.926" cy="110.515" rx="107.942" ry="55.376" style="fill:none;stroke:black;stroke-width:7.47px;"/>
            </g>
            <g id="Wings" transform="matrix(0.959562,0.127262,-0.127262,0.959562,7.56883,-6.44254)">
                <g id="Back-wing" serif:id="Back wing" transform="matrix(1.17688,-0.575088,0.651434,1.21399,-55.8934,35.953)">
                    <ellipse cx="87.133" cy="55.191" rx="26.038" ry="33.641" style="fill:rgb(195,195,195);stroke:black;stroke-width:2.26px;"/>
                </g>
                <g id="Front-wing" serif:id="Front wing" transform="matrix(0.946806,0,0,0.999012,5.86837,0.313874)">
                    <g id="Front-wing-main" serif:id="Front wing main" transform="matrix(1.31328,0.685743,-0.81961,1.2839,72.2439,-73.1981)">
                        <ellipse cx="87.133" cy="55.191" rx="26.038" ry="33.641" style="fill:rgb(195,195,195);stroke:black;stroke-width:2.17px;"/>
                    </g>
                    <path id="Front-wing-line" serif:id="Front wing line" d="M119.334,101.013C123.249,82.03 129.669,61.104 148.451,47.276" style="fill:none;stroke:black;stroke-width:3.18px;"/>
                </g>
            </g>
            <g transform="matrix(0.722147,0,0,0.725188,-1409.58,-844.242)">
                <path d="M2050.2,1401.63C2050.2,1401.63 2050.1,1385.66 2062.27,1385.71C2074.44,1385.75 2074.95,1399.17 2075.07,1401.57C2077.85,1403.16 2091.1,1407.05 2095.57,1410.59C2100.04,1414.13 2101.32,1417.6 2100.78,1420.15C2100.23,1422.7 2096.92,1425.88 2092.96,1425.77C2089.01,1425.67 2085.49,1425.25 2084.04,1426.94C2082.59,1428.62 2084.56,1430.43 2085.51,1432.53C2086.45,1434.62 2095.65,1449.64 2096.41,1453.33C2097.17,1457.02 2099.71,1462.83 2092.63,1462.29C2085.55,1461.74 2075.88,1462.3 2075.88,1462.3C2075.88,1462.3 2072.77,1462.22 2070.76,1458.85C2068.75,1455.48 2065.27,1447.12 2062.32,1447.21C2059.36,1447.31 2055.2,1457.93 2053.91,1459.39C2052.62,1460.85 2051.3,1462.24 2048.93,1462.07C2046.55,1461.91 2032.19,1461.88 2032.19,1461.88C2032.19,1461.88 2025.61,1462.41 2028.03,1456.21C2030.45,1450.01 2036.49,1437.96 2037.92,1435.46C2039.34,1432.95 2042.79,1428.6 2041.05,1426.8C2039.31,1425 2035.22,1425.74 2033.13,1425.59C2031.05,1425.44 2024.79,1424.67 2024.18,1419.69C2023.57,1414.71 2026.18,1412.62 2029.02,1410.63C2031.85,1408.65 2048.34,1401.94 2050.2,1401.63Z" style="fill:rgb(171,134,16);"/>
                <path d="M2088.77,1429.79C2088.97,1430.16 2089.16,1430.53 2089.3,1430.83C2089.95,1432.28 2094.6,1439.97 2097.59,1445.7C2099.12,1448.64 2100.21,1451.19 2100.48,1452.5C2100.92,1454.63 2101.75,1457.38 2101.62,1459.54C2101.5,1461.34 2100.89,1462.89 2099.76,1464.1C2098.46,1465.5 2096.25,1466.71 2092.31,1466.41C2085.46,1465.88 2076.12,1466.43 2076.12,1466.43C2076.04,1466.43 2075.96,1466.43 2075.88,1466.43C2075.84,1466.43 2075.81,1466.43 2075.78,1466.43C2075.78,1466.43 2070.51,1466.53 2067.19,1460.97C2066.01,1458.99 2064.33,1455.26 2062.54,1452.61C2062.52,1452.59 2062.51,1452.56 2062.49,1452.54C2062.31,1452.78 2062.14,1453.04 2062,1453.27C2059.89,1456.74 2057.86,1461.19 2057.02,1462.13C2054.89,1464.53 2052.55,1466.48 2048.64,1466.2C2046.41,1466.04 2033.48,1466.02 2032.3,1466.01C2031.73,1466.04 2030.2,1466.04 2028.66,1465.58C2026.91,1465.06 2025.23,1463.96 2024.24,1462.19C2023.34,1460.59 2022.79,1458.22 2024.16,1454.71C2026.64,1448.35 2032.84,1435.99 2034.3,1433.42C2034.78,1432.58 2035.71,1430.95 2036.41,1429.7C2036.39,1429.7 2036.36,1429.7 2036.34,1429.7C2035.02,1429.71 2033.75,1429.78 2032.84,1429.72C2031.19,1429.6 2027.61,1429.12 2024.81,1427.39C2022.38,1425.9 2020.47,1423.6 2020.06,1420.19C2019.19,1413.15 2022.62,1410.06 2026.62,1407.25C2029.01,1405.58 2040.42,1400.8 2046.26,1398.63C2046.47,1396.87 2046.91,1394.54 2047.78,1392.21C2049.81,1386.79 2054.02,1381.54 2062.28,1381.57C2075.23,1381.62 2078.25,1393.18 2078.99,1398.82C2081.36,1399.76 2085.18,1401.06 2088.78,1402.51C2092.57,1404.04 2096.14,1405.76 2098.15,1407.35C2104.4,1412.29 2105.6,1417.45 2104.84,1421.01C2104,1424.97 2098.98,1430.07 2092.85,1429.91C2091.4,1429.87 2090.01,1429.79 2088.77,1429.79ZM2050.2,1401.63C2048.34,1401.94 2031.85,1408.65 2029.02,1410.63C2026.18,1412.62 2023.57,1414.71 2024.18,1419.69C2024.79,1424.67 2031.05,1425.44 2033.13,1425.59C2035.22,1425.74 2039.31,1425 2041.05,1426.8C2042.79,1428.6 2039.34,1432.95 2037.92,1435.46C2036.49,1437.96 2030.45,1450.01 2028.03,1456.21C2025.61,1462.41 2032.19,1461.88 2032.19,1461.88C2032.19,1461.88 2046.55,1461.91 2048.93,1462.07C2051.3,1462.24 2052.62,1460.85 2053.91,1459.39C2055.2,1457.93 2059.36,1447.31 2062.32,1447.21C2065.27,1447.12 2068.75,1455.48 2070.76,1458.85C2072.77,1462.22 2075.88,1462.3 2075.88,1462.3C2075.88,1462.3 2085.55,1461.74 2092.63,1462.29C2099.71,1462.83 2097.17,1457.02 2096.41,1453.33C2095.65,1449.64 2086.45,1434.62 2085.51,1432.53C2084.56,1430.43 2082.59,1428.62 2084.04,1426.94C2085.49,1425.25 2089.01,1425.67 2092.96,1425.77C2096.92,1425.88 2100.23,1422.7 2100.78,1420.15C2101.32,1417.6 2100.04,1414.13 2095.57,1410.59C2091.1,1407.05 2077.85,1403.16 2075.07,1401.57C2074.95,1399.17 2074.44,1385.75 2062.27,1385.71C2050.1,1385.66 2050.2,1401.63 2050.2,1401.63Z"/>
            </g>
            <g transform="matrix(0.667476,0,0,0.667476,-1304,-761.477)">
                <path d="M2050.2,1401.63C2050.2,1401.63 2050.1,1385.66 2062.27,1385.71C2074.44,1385.75 2074.95,1399.17 2075.07,1401.57C2077.85,1403.16 2091.1,1407.05 2095.57,1410.59C2100.04,1414.13 2101.32,1417.6 2100.78,1420.15C2100.23,1422.7 2096.92,1425.88 2092.96,1425.77C2089.01,1425.67 2085.49,1425.25 2084.04,1426.94C2082.59,1428.62 2084.56,1430.43 2085.51,1432.53C2086.45,1434.62 2095.65,1449.64 2096.41,1453.33C2097.17,1457.02 2099.71,1462.83 2092.63,1462.29C2085.55,1461.74 2075.88,1462.3 2075.88,1462.3C2075.88,1462.3 2072.77,1462.22 2070.76,1458.85C2068.75,1455.48 2065.27,1447.12 2062.32,1447.21C2059.36,1447.31 2055.2,1457.93 2053.91,1459.39C2052.62,1460.85 2051.3,1462.24 2048.93,1462.07C2046.55,1461.91 2032.19,1461.88 2032.19,1461.88C2032.19,1461.88 2025.61,1462.41 2028.03,1456.21C2030.45,1450.01 2036.49,1437.96 2037.92,1435.46C2039.34,1432.95 2042.79,1428.6 2041.05,1426.8C2039.31,1425 2035.22,1425.74 2033.13,1425.59C2031.05,1425.44 2024.79,1424.67 2024.18,1419.69C2023.57,1414.71 2026.18,1412.62 2029.02,1410.63C2031.85,1408.65 2048.34,1401.94 2050.2,1401.63Z" style="fill:rgb(254,194,7);"/>
                <path d="M2089.35,1430.15C2089.44,1430.34 2089.53,1430.52 2089.6,1430.68C2090.26,1432.13 2094.91,1439.8 2097.89,1445.53C2099.44,1448.51 2100.54,1451.1 2100.81,1452.42C2101.26,1454.58 2102.09,1457.37 2101.95,1459.56C2101.84,1461.45 2101.19,1463.08 2100,1464.35C2098.66,1465.8 2096.37,1467.08 2092.28,1466.77C2085.46,1466.24 2076.14,1466.78 2076.14,1466.78C2076.05,1466.79 2075.96,1466.79 2075.88,1466.79C2075.84,1466.79 2075.81,1466.79 2075.77,1466.79C2075.77,1466.79 2070.33,1466.9 2066.9,1461.16C2065.94,1459.55 2063.7,1455.76 2062.32,1453.41C2061.86,1454.15 2061.41,1454.96 2060.99,1455.76C2059.4,1458.75 2057.94,1461.61 2057.27,1462.37C2055.07,1464.85 2052.65,1466.84 2048.61,1466.56C2046.39,1466.4 2033.49,1466.38 2032.29,1466.37C2031.69,1466.39 2030.13,1466.39 2028.57,1465.93C2026.73,1465.38 2024.99,1464.23 2023.94,1462.37C2023.01,1460.71 2022.42,1458.23 2023.85,1454.58C2026.34,1448.2 2032.55,1435.81 2034.01,1433.24C2034.42,1432.51 2035.17,1431.2 2035.82,1430.06C2034.69,1430.08 2033.62,1430.13 2032.81,1430.08C2031.14,1429.96 2027.49,1429.46 2024.64,1427.7C2022.12,1426.15 2020.15,1423.77 2019.72,1420.24C2018.84,1413.02 2022.33,1409.83 2026.43,1406.95C2028.81,1405.29 2040.01,1400.59 2045.95,1398.37C2046.17,1396.61 2046.61,1394.34 2047.46,1392.08C2049.54,1386.54 2053.84,1381.18 2062.29,1381.21C2075.33,1381.26 2078.49,1392.76 2079.3,1398.56C2081.67,1399.49 2085.39,1400.76 2088.9,1402.18C2092.73,1403.72 2096.32,1405.46 2098.36,1407.07C2104.76,1412.13 2105.95,1417.44 2105.17,1421.09C2104.3,1425.16 2099.16,1430.43 2092.84,1430.27C2091.62,1430.23 2090.43,1430.17 2089.35,1430.15ZM2050.2,1401.63C2048.34,1401.94 2031.85,1408.65 2029.02,1410.63C2026.18,1412.62 2023.57,1414.71 2024.18,1419.69C2024.79,1424.67 2031.05,1425.44 2033.13,1425.59C2035.22,1425.74 2039.31,1425 2041.05,1426.8C2042.79,1428.6 2039.34,1432.95 2037.92,1435.46C2036.49,1437.96 2030.45,1450.01 2028.03,1456.21C2025.61,1462.41 2032.19,1461.88 2032.19,1461.88C2032.19,1461.88 2046.55,1461.91 2048.93,1462.07C2051.3,1462.24 2052.62,1460.85 2053.91,1459.39C2055.2,1457.93 2059.36,1447.31 2062.32,1447.21C2065.27,1447.12 2068.75,1455.48 2070.76,1458.85C2072.77,1462.22 2075.88,1462.3 2075.88,1462.3C2075.88,1462.3 2085.55,1461.74 2092.63,1462.29C2099.71,1462.83 2097.17,1457.02 2096.41,1453.33C2095.65,1449.64 2086.45,1434.62 2085.51,1432.53C2084.56,1430.43 2082.59,1428.62 2084.04,1426.94C2085.49,1425.25 2089.01,1425.67 2092.96,1425.77C2096.92,1425.88 2100.23,1422.7 2100.78,1420.15C2101.32,1417.6 2100.04,1414.13 2095.57,1410.59C2091.1,1407.05 2077.85,1403.16 2075.07,1401.57C2074.95,1399.17 2074.44,1385.75 2062.27,1385.71C2050.1,1385.66 2050.2,1401.63 2050.2,1401.63Z"/>
            </g>
            <g id="Arm" transform="matrix(-1.14415,-0.22984,-0.274023,1.36409,214.2,-49.3053)">
                <path d="M126.361,195.324C131.632,207.227 133.182,217.035 130.643,222.887C128.104,228.739 123.003,235.183 111.72,230.967C100.281,226.693 85.917,212.804 90.545,203.32C94.217,195.795 104.937,195.209 112.743,200.468C118.04,204.037 116.287,208.38 119.358,207.391C121.378,206.74 121.255,196.139 126.361,195.324Z" style="fill:rgb(151,151,151);stroke:black;stroke-width:3.89px;"/>
            </g>
            <g id="Arm1" serif:id="Arm" transform="matrix(1.36409,-0.274023,0.274023,1.36409,-87.018,-42.4225)">
                <path d="M126.361,195.324C137.518,197.031 136.207,211.795 130.643,222.887C127.783,228.589 123.003,235.183 111.72,230.967C100.281,226.693 85.917,212.804 90.545,203.32C94.217,195.795 104.937,195.209 112.743,200.468C118.04,204.037 116.287,208.38 119.358,207.391C121.378,206.74 121.255,196.139 126.361,195.324Z" style="fill:rgb(151,151,151);stroke:black;stroke-width:3.59px;"/>
            </g>
        </g>
    </g>
</svg>
