<?xml version="1.0" encoding="UTF-8" standalone="no"?>
<!DOCTYPE svg PUBLIC "-//W3C//DTD SVG 1.1//EN" "http://www.w3.org/Graphics/SVG/1.1/DTD/svg11.dtd">
<svg width="100%" height="100%" viewBox="0 0 256 256" version="1.1" xmlns="http://www.w3.org/2000/svg" xmlns:xlink="http://www.w3.org/1999/xlink" xml:space="preserve" xmlns:serif="http://www.serif.com/" style="fill-rule:evenodd;clip-rule:evenodd;stroke-linecap:round;stroke-linejoin:round;stroke-miterlimit:1.5;">
    <g transform="matrix(1,0,0,1,0,-1124)">
        <g id="blobbee_mug" transform="matrix(1,0,0,1,0,1124.35)">
            <rect x="0" y="0" width="256" height="256" style="fill:none;"/>
            <g id="Mug-outline" serif:id="Mug outline" transform="matrix(1.04721,0,0,1.04721,-7.11329,-1290.26)">
                <path d="M84.329,1407.54C92.288,1411.93 98.342,1421.63 98.342,1433.63C98.342,1446.17 91.724,1456.2 83.23,1460.28C82.128,1462.86 80.154,1465.34 77.106,1467.48C71.353,1471.51 59.874,1474.76 46.525,1474.76C33.175,1474.76 21.697,1471.51 15.943,1467.48C10.802,1463.88 8.717,1459.28 8.717,1454.94L8.717,1407.85C8.717,1403.51 10.802,1398.91 15.943,1395.31C21.697,1391.28 33.175,1388.03 46.525,1388.03C59.874,1388.03 71.353,1391.28 77.106,1395.31C82.125,1398.83 84.231,1403.29 84.329,1407.54ZM18.266,1407.85L18.266,1454.94C18.266,1460.61 30.929,1465.21 46.525,1465.21C62.121,1465.21 74.783,1460.61 74.783,1454.94L74.783,1452.72C82.515,1452.72 88.793,1444.16 88.793,1433.63C88.793,1423.09 82.515,1414.53 74.783,1414.53L74.783,1407.85C74.783,1402.18 62.121,1397.58 46.525,1397.58C30.929,1397.58 18.266,1402.18 18.266,1407.85ZM74.783,1445.66L74.783,1421.59C79.658,1421.59 83.615,1426.98 83.615,1433.63C83.615,1440.27 79.658,1445.66 74.783,1445.66Z"/>
            </g>
            <g id="Bee" transform="matrix(0.887478,0,0,0.887478,40.7668,14.7556)">
                <clipPath id="_clip1">
                    <path d="M211.459,180.054L211.81,292.616L-149.134,300.059L-149.079,-101.624L191.49,-98.989L191.49,45.116C226.297,46.697 254.291,135.553 211.459,180.054"/>
                </clipPath>
                <g clip-path="url(#_clip1)">
                    <g id="Sting" transform="matrix(0.78314,0.139967,-0.135634,0.7589,67.2303,-21.11)">
                        <path d="M189.771,56.854L238.765,34.355L235.05,81.388" style="fill:rgb(104,104,104);stroke:black;stroke-width:14.38px;"/>
                    </g>
                    <g id="Body" transform="matrix(0.994109,-0.573949,0.761422,1.28301,-120.17,92.6047)">
                        <ellipse cx="168.926" cy="110.515" rx="107.942" ry="55.376" style="fill:rgb(104,104,104);stroke:black;stroke-width:8.42px;"/>
                    </g>
                    <g id="Wings-outline" serif:id="Wings outline" transform="matrix(0.959562,0.127262,-0.127262,0.959562,7.56883,-6.44254)">
                        <g transform="matrix(1.17688,-0.575088,0.651434,1.21399,-55.8934,35.953)">
                            <path d="M87.471,13.094C105.77,13.094 122.065,31.227 122.065,54.87C122.065,78.897 105.392,97.287 86.795,97.287C68.496,97.287 52.201,79.154 52.201,55.512C52.201,31.484 68.873,13.094 87.471,13.094ZM87.133,21.55C72.762,21.55 61.095,36.624 61.095,55.191C61.095,73.758 72.762,88.832 87.133,88.832C101.504,88.832 113.171,73.758 113.171,55.191C113.171,36.624 101.504,21.55 87.133,21.55Z"/>
                        </g>
                        <g transform="matrix(1.24343,0.685066,-0.776012,1.28263,74.2693,-72.8119)">
                            <path d="M86.8,13.778C105.069,13.778 121.378,31.903 121.378,55.505C121.378,78.73 105.442,96.603 87.465,96.603C69.197,96.603 52.888,78.478 52.888,54.876C52.888,31.651 68.824,13.778 86.8,13.778ZM87.133,21.55C72.762,21.55 61.095,36.624 61.095,55.191C61.095,73.758 72.762,88.832 87.133,88.832C101.504,88.832 113.171,73.758 113.171,55.191C113.171,36.624 101.504,21.55 87.133,21.55Z"/>
                        </g>
                    </g>
                    <g id="Stripes" transform="matrix(1,0,0,1,4.4273,10.012)">
                        <g transform="matrix(1,-7.43708e-18,-7.43708e-18,1,92.3462,-63.8411)">
                            <path d="M37.588,107.021C36.302,108.044 130.102,103.736 138.911,199.269C185.818,73.536 38.054,97.55 37.588,107.021Z" style="fill:rgb(254,194,7);stroke:black;stroke-width:3.38px;"/>
                        </g>
                        <g transform="matrix(1,-7.43708e-18,-7.43708e-18,1,73.4912,-52.6421)">
                            <path d="M157.766,189.064C152.141,96.884 58.714,94.709 59.225,91.972L24.408,104.867C24.408,104.867 137.219,103.115 141.236,211.738L154.889,190.72" style="fill:rgb(104,104,104);stroke:black;stroke-width:3.38px;"/>
                        </g>
                        <g transform="matrix(1,-7.43708e-18,-7.43708e-18,1,55.5726,-39.8214)">
                            <path d="M138.184,221.282L158.96,198.917C155.015,90.156 39.958,88.264 39.959,88.304L21.516,99.184C21.345,99.215 140.506,108.796 138.184,221.282Z" style="fill:rgb(254,194,7);stroke:black;stroke-width:3.38px;"/>
                        </g>
                        <g transform="matrix(1,-7.43708e-18,-7.43708e-18,1,25.9786,-19.0024)">
                            <path d="M52.67,78.448L32.777,93.969C32.777,93.969 147.14,105.355 145.924,216.369L167.401,201.973C175.368,91.857 51.46,79.379 49.702,80.764" style="fill:rgb(104,104,104);stroke:black;stroke-width:3.38px;"/>
                        </g>
                        <g transform="matrix(1,-7.43708e-18,-7.43708e-18,1,-0.424026,-0.546032)">
                            <path d="M54.907,77.629L39.992,93.485C39.992,93.485 145.269,94.435 147.67,208.921L172.327,197.913C176.533,83.454 58.325,78.845 54.907,77.629Z" style="fill:rgb(254,194,7);stroke:black;stroke-width:3.38px;"/>
                        </g>
                    </g>
                    <g id="Body-outline" serif:id="Body outline" transform="matrix(0.994109,-0.573949,0.761422,1.28301,-120.17,92.6047)">
                        <ellipse cx="168.926" cy="110.515" rx="107.942" ry="55.376" style="fill:none;stroke:black;stroke-width:8.42px;"/>
                    </g>
                    <g id="Wings" transform="matrix(0.959562,0.127262,-0.127262,0.959562,7.56883,-6.44254)">
                        <g id="Back-wing" serif:id="Back wing" transform="matrix(1.17688,-0.575088,0.651434,1.21399,-55.8934,35.953)">
                            <ellipse cx="87.133" cy="55.191" rx="26.038" ry="33.641" style="fill:rgb(195,195,195);stroke:black;stroke-width:2.55px;"/>
                        </g>
                        <g id="Front-wing" serif:id="Front wing" transform="matrix(0.946806,0,0,0.999012,5.86837,0.313874)">
                            <g id="Front-wing-main" serif:id="Front wing main" transform="matrix(1.31328,0.685743,-0.81961,1.2839,72.2439,-73.1981)">
                                <ellipse cx="87.133" cy="55.191" rx="26.038" ry="33.641" style="fill:rgb(195,195,195);stroke:black;stroke-width:2.44px;"/>
                            </g>
                            <path id="Front-wing-line" serif:id="Front wing line" d="M119.334,101.013C123.249,82.03 129.669,61.104 148.451,47.276" style="fill:none;stroke:black;stroke-width:3.59px;"/>
                        </g>
                    </g>
                    <g id="Face" transform="matrix(1,0,0,1,-3.8947,1.36785)">
                        <g id="Mouth" transform="matrix(0.658566,-1.17246e-18,-3.87825e-17,0.848272,3.90699,42.2986)">
                            <path d="M79.429,171.352L92.31,191.237L108.219,172.744L128,191.722L152.351,171.648" style="fill:none;stroke:black;stroke-width:16.32px;stroke-miterlimit:2;"/>
                            <path d="M79.429,171.352L92.31,191.237L108.219,172.744L128,191.722L152.351,171.648" style="fill:none;stroke:rgb(235,235,235);stroke-width:7.42px;"/>
                        </g>
                        <g id="Eyes" transform="matrix(0.934011,0.13629,-0.13629,0.934011,50.6896,-3.80844)">
                            <g id="Right-eye" serif:id="Right eye" transform="matrix(1.4375,-0.209757,0.197806,1.35559,-152.493,29.6724)">
                                <path d="M154.615,113.255C154.615,107.493 150.203,102.815 144.77,102.815C139.336,102.815 134.924,107.493 134.924,113.255L134.924,120.6C134.924,126.362 139.336,131.04 144.77,131.04C150.203,131.04 154.615,126.362 154.615,120.6L154.615,113.255Z" style="fill:rgb(235,235,235);stroke:black;stroke-width:2.54px;"/>
                            </g>
                            <g id="Right-eye1" serif:id="Right eye" transform="matrix(0.585857,-0.0854874,0.0953715,0.653594,-18.9161,100.528)">
                                <path d="M154.615,111.64C154.615,106.77 150.203,102.815 144.77,102.815C139.336,102.815 134.924,106.77 134.924,111.64L134.924,122.216C134.924,127.086 139.336,131.04 144.77,131.04C150.203,131.04 154.615,127.086 154.615,122.216L154.615,111.64Z"/>
                            </g>
                            <g id="Left-eye" serif:id="Left eye" transform="matrix(1.4375,-0.209757,0.197806,1.35559,-198.973,36.4548)">
                                <path d="M154.615,113.255C154.615,107.493 150.203,102.815 144.77,102.815C139.336,102.815 134.924,107.493 134.924,113.255L134.924,120.6C134.924,126.362 139.336,131.04 144.77,131.04C150.203,131.04 154.615,126.362 154.615,120.6L154.615,113.255Z" style="fill:rgb(235,235,235);stroke:black;stroke-width:2.54px;"/>
                            </g>
                            <g id="Right-eye2" serif:id="Right eye" transform="matrix(0.585857,-0.0854874,0.0953715,0.653594,-65.3963,107.31)">
                                <path d="M154.615,111.64C154.615,106.77 150.203,102.815 144.77,102.815C139.336,102.815 134.924,106.77 134.924,111.64L134.924,122.216C134.924,127.086 139.336,131.04 144.77,131.04C150.203,131.04 154.615,127.086 154.615,122.216L154.615,111.64Z"/>
                            </g>
                        </g>
                    </g>
                </g>
            </g>
            <g id="Body-stroke" serif:id="Body stroke" transform="matrix(1.30224,0,0,1.30224,-492.209,-1826.32)">
                <path d="M537.043,1444.11C560.795,1446.95 580.23,1507.87 550.251,1539.35" style="fill:none;stroke:black;stroke-width:2.3px;"/>
            </g>
            <g id="Body-stroke1" serif:id="Body stroke" transform="matrix(1.30224,0,0,1.30224,-492.209,-1826.32)">
                <path d="M539.2,1444.11C562.952,1446.95 580.23,1507.87 550.251,1539.35" style="fill:none;stroke:black;stroke-width:7.68px;"/>
            </g>
            <g id="Sting1" serif:id="Sting" transform="matrix(0.526379,0.0827424,-0.0801813,0.510086,123.768,15.8076)">
                <path d="M191.017,52.697L238.765,34.355L230.765,91.133" style="fill:rgb(104,104,104);stroke:black;stroke-width:19.06px;"/>
            </g>
            <g id="Mug" transform="matrix(1.04721,0,0,1.04721,-0.25485,18.6235)">
                <g id="Outer-mug" serif:id="Outer mug" transform="matrix(1,0,0,1,0,-1224.93)">
                    <path d="M68.234,1389.59C75.966,1389.59 82.244,1398.15 82.244,1408.69C82.244,1419.22 75.966,1427.78 68.234,1427.78L68.234,1430C68.234,1435.67 55.572,1440.27 39.976,1440.27C24.379,1440.27 11.717,1435.67 11.717,1430L11.717,1382.91L68.234,1382.91L68.234,1389.59ZM68.234,1420.72C73.109,1420.72 77.066,1415.33 77.066,1408.69C77.066,1402.04 73.109,1396.65 68.234,1396.65L68.234,1420.72Z" style="fill:rgb(219,219,219);"/>
                    <path d="M71.091,1430.32C70.974,1432.7 69.548,1435.08 66.722,1437.06C61.702,1440.58 51.622,1443.13 39.976,1443.13C28.329,1443.13 18.249,1440.58 13.23,1437.06C10.277,1435 8.852,1432.49 8.852,1430L8.852,1382.91C8.852,1381.33 10.135,1380.04 11.717,1380.04L68.234,1380.04C69.816,1380.04 71.099,1381.33 71.099,1382.91L71.099,1387.05C78.869,1388.83 85.108,1397.69 85.108,1408.69C85.108,1419.69 78.865,1428.55 71.091,1430.32ZM68.234,1389.59L68.234,1382.91L11.717,1382.91L11.717,1430C11.717,1435.67 24.379,1440.27 39.976,1440.27C55.572,1440.27 68.234,1435.67 68.234,1430L68.234,1427.78C75.966,1427.78 82.244,1419.22 82.244,1408.69C82.244,1398.15 75.966,1389.59 68.234,1389.59ZM68.234,1420.72L68.234,1396.65C73.109,1396.65 77.066,1402.04 77.066,1408.69C77.066,1415.33 73.109,1420.72 68.234,1420.72ZM71.099,1416.68C71.486,1416.34 71.844,1415.94 72.168,1415.5C73.447,1413.76 74.201,1411.34 74.201,1408.69C74.201,1406.03 73.447,1403.61 72.168,1401.87C71.844,1401.43 71.486,1401.03 71.099,1400.69L71.099,1416.68Z"/>
                </g>
                <g id="Rim" transform="matrix(0.901487,0,0,0.901487,-2.05534,-1094.59)">
                    <ellipse cx="46.624" cy="1389.44" rx="31.431" ry="11.421" style="fill:rgb(238,238,238);"/>
                </g>
                <g id="Inner-mug" serif:id="Inner mug" transform="matrix(0.816118,0,0,0.816118,1.92495,-975.973)">
                    <ellipse cx="46.624" cy="1389.44" rx="31.431" ry="11.421" style="fill:rgb(153,153,153);"/>
                </g>
                <g id="Coffee" transform="matrix(1.04678,0,0,1.04678,-1.87015,-1289.63)">
                    <path d="M16.898,1385.91C20.29,1382.47 29.347,1380 39.976,1380C50.604,1380 59.661,1382.47 63.053,1385.91C59.661,1389.35 50.604,1391.81 39.976,1391.81C29.347,1391.81 20.29,1389.35 16.898,1385.91Z" style="fill:rgb(129,58,6);"/>
                </g>
                <g id="Mug-outline-thin" serif:id="Mug outline thin" transform="matrix(0.954915,0,0,0.954915,0.24336,-1187.49)">
                    <path d="M74.193,1458.64C74.07,1461.14 72.576,1463.63 69.617,1465.7C64.361,1469.39 53.805,1472.06 41.608,1472.06C29.412,1472.06 18.856,1469.39 13.599,1465.7C10.508,1463.54 9.016,1460.91 9.016,1458.31L9.016,1410.05L9.016,1410.05C8.962,1409.7 8.935,1409.35 8.935,1408.99C8.935,1406.38 10.431,1403.75 13.528,1401.58C18.798,1397.89 29.381,1395.21 41.608,1395.21C53.836,1395.21 64.418,1397.89 69.688,1401.58C72.786,1403.75 74.281,1406.38 74.281,1408.99C74.281,1409.35 74.254,1409.7 74.201,1410.05C74.201,1410.05 74.201,1413.33 74.201,1413.33C82.338,1415.19 88.872,1424.47 88.872,1435.99C88.872,1447.51 82.333,1456.79 74.193,1458.64ZM12.016,1409.79L12.016,1458.31C12.016,1464.24 25.276,1469.06 41.608,1469.06C57.941,1469.06 71.201,1464.24 71.201,1458.31L71.201,1455.98C79.298,1455.98 85.872,1447.02 85.872,1435.99C85.872,1424.95 79.298,1415.99 71.201,1415.99L71.201,1409.79C71.254,1409.53 71.281,1409.26 71.281,1408.99C71.281,1403.04 57.985,1398.21 41.608,1398.21C25.231,1398.21 11.935,1403.04 11.935,1408.99C11.935,1409.26 11.962,1409.53 12.016,1409.79ZM71.201,1448.59L71.201,1423.38C76.306,1423.38 80.45,1429.03 80.45,1435.99C80.45,1442.94 76.306,1448.59 71.201,1448.59ZM74.201,1444.36C74.606,1444 74.981,1443.59 75.321,1443.12C76.659,1441.3 77.45,1438.77 77.45,1435.99C77.45,1433.2 76.659,1430.67 75.321,1428.85C74.981,1428.38 74.606,1427.97 74.201,1427.61L74.201,1444.36Z"/>
                </g>
            </g>
            <g id="Arm" transform="matrix(2.12628,-0.427135,0.356842,1.77636,-192.815,-106.58)">
                <path d="M128.697,197.227C139.854,198.934 133.797,215.823 127.214,222.098C123.277,225.851 118.51,225.897 110.264,223.828C98.536,220.884 85.763,212.694 90.545,203.32C93.174,198.167 99.766,197.924 107.573,203.183C112.87,206.752 116.499,209.057 119.358,207.391C123.597,204.921 123.591,198.041 128.697,197.227Z" style="fill:rgb(151,151,151);stroke:black;stroke-width:2.5px;"/>
            </g>
        </g>
    </g>
</svg>
