<?xml version="1.0" encoding="UTF-8" standalone="no"?>
<!DOCTYPE svg PUBLIC "-//W3C//DTD SVG 1.1//EN" "http://www.w3.org/Graphics/SVG/1.1/DTD/svg11.dtd">
<svg width="100%" height="100%" viewBox="0 0 256 256" version="1.1" xmlns="http://www.w3.org/2000/svg" xmlns:xlink="http://www.w3.org/1999/xlink" xml:space="preserve" xmlns:serif="http://www.serif.com/" style="fill-rule:evenodd;clip-rule:evenodd;stroke-linecap:round;stroke-linejoin:round;stroke-miterlimit:1.5;">
    <g transform="matrix(1,0,0,1,-281,-1124)">
        <g id="blobbee_fingerguns" transform="matrix(1,0,0,1,281,1124.35)">
            <rect x="0" y="0" width="256" height="256" style="fill:none;"/>
            <g id="Sting" transform="matrix(0.78314,0.139967,-0.135634,0.7589,67.2303,-21.11)">
                <path d="M189.771,56.854L238.765,34.355L235.05,81.388" style="fill:rgb(104,104,104);stroke:black;stroke-width:12.77px;"/>
            </g>
            <g id="Body" transform="matrix(0.994109,-0.573949,0.761422,1.28301,-120.17,92.6047)">
                <ellipse cx="168.926" cy="110.515" rx="107.942" ry="55.376" style="fill:rgb(104,104,104);stroke:black;stroke-width:7.47px;"/>
            </g>
            <g id="Wings-outline" serif:id="Wings outline" transform="matrix(0.959562,0.127262,-0.127262,0.959562,7.56883,-6.44254)">
                <g transform="matrix(1.17688,-0.575088,0.651434,1.21399,-55.8934,35.953)">
                    <path d="M87.433,14.046C105.289,14.046 121.064,31.835 121.064,54.906C121.064,78.317 104.954,96.336 86.833,96.336C68.977,96.336 53.202,78.546 53.202,55.475C53.202,32.064 69.312,14.046 87.433,14.046ZM87.133,21.55C72.762,21.55 61.095,36.624 61.095,55.191C61.095,73.758 72.762,88.832 87.133,88.832C101.504,88.832 113.171,73.758 113.171,55.191C113.171,36.624 101.504,21.55 87.133,21.55Z"/>
                </g>
                <g transform="matrix(1.24343,0.685066,-0.776012,1.28263,74.2693,-72.8119)">
                    <path d="M86.838,14.653C104.667,14.653 120.454,32.436 120.454,55.47C120.454,78.17 104.998,95.729 87.428,95.729C69.599,95.729 53.812,77.946 53.812,54.911C53.812,32.211 69.268,14.653 86.838,14.653ZM87.133,21.55C72.762,21.55 61.095,36.624 61.095,55.191C61.095,73.758 72.762,88.832 87.133,88.832C101.504,88.832 113.171,73.758 113.171,55.191C113.171,36.624 101.504,21.55 87.133,21.55Z"/>
                </g>
            </g>
            <g id="Stripes" transform="matrix(1,0,0,1,4.4273,10.012)">
                <g transform="matrix(1,-7.43708e-18,-7.43708e-18,1,92.3462,-63.8411)">
                    <path d="M37.588,107.021C36.302,108.044 130.102,103.736 138.911,199.269C185.818,73.536 38.054,97.55 37.588,107.021Z" style="fill:rgb(254,194,7);stroke:black;stroke-width:3px;"/>
                </g>
                <g transform="matrix(1,-7.43708e-18,-7.43708e-18,1,73.4912,-52.6421)">
                    <path d="M157.766,189.064C152.141,96.884 58.714,94.709 59.225,91.972L24.408,104.867C24.408,104.867 137.219,103.115 141.236,211.738L154.889,190.72" style="fill:rgb(104,104,104);stroke:black;stroke-width:3px;"/>
                </g>
                <g transform="matrix(1,-7.43708e-18,-7.43708e-18,1,55.5726,-39.8214)">
                    <path d="M138.184,221.282L158.96,198.917C155.015,90.156 39.958,88.264 39.959,88.304L21.516,99.184C21.345,99.215 140.506,108.796 138.184,221.282Z" style="fill:rgb(254,194,7);stroke:black;stroke-width:3px;"/>
                </g>
                <g transform="matrix(1,-7.43708e-18,-7.43708e-18,1,25.9786,-19.0024)">
                    <path d="M52.67,78.448L32.777,93.969C32.777,93.969 147.14,105.355 145.924,216.369L167.401,201.973C175.368,91.857 51.46,79.379 49.702,80.764" style="fill:rgb(104,104,104);stroke:black;stroke-width:3px;"/>
                </g>
                <g transform="matrix(1,-7.43708e-18,-7.43708e-18,1,-0.424026,-0.546032)">
                    <path d="M54.907,77.629L39.992,93.485C39.992,93.485 145.269,94.435 147.67,208.921L172.327,197.913C176.533,83.454 58.325,78.845 54.907,77.629Z" style="fill:rgb(254,194,7);stroke:black;stroke-width:3px;"/>
                </g>
            </g>
            <g id="Body-outline" serif:id="Body outline" transform="matrix(0.994109,-0.573949,0.761422,1.28301,-120.17,92.6047)">
                <ellipse cx="168.926" cy="110.515" rx="107.942" ry="55.376" style="fill:none;stroke:black;stroke-width:7.47px;"/>
            </g>
            <g id="Wings" transform="matrix(0.959562,0.127262,-0.127262,0.959562,7.56883,-6.44254)">
                <g id="Back-wing" serif:id="Back wing" transform="matrix(1.17688,-0.575088,0.651434,1.21399,-55.8934,35.953)">
                    <ellipse cx="87.133" cy="55.191" rx="26.038" ry="33.641" style="fill:rgb(195,195,195);stroke:black;stroke-width:2.26px;"/>
                </g>
                <g id="Front-wing" serif:id="Front wing" transform="matrix(0.946806,0,0,0.999012,5.86837,0.313874)">
                    <g id="Front-wing-main" serif:id="Front wing main" transform="matrix(1.31328,0.685743,-0.81961,1.2839,72.2439,-73.1981)">
                        <ellipse cx="87.133" cy="55.191" rx="26.038" ry="33.641" style="fill:rgb(195,195,195);stroke:black;stroke-width:2.17px;"/>
                    </g>
                    <path id="Front-wing-line" serif:id="Front wing line" d="M119.334,101.013C123.249,82.03 129.669,61.104 148.451,47.276" style="fill:none;stroke:black;stroke-width:3.18px;"/>
                </g>
            </g>
            <g id="Mouth" transform="matrix(0.658566,-1.17246e-18,-3.87825e-17,0.848272,0.0122846,43.6664)">
                <g id="Face">
                    <path id="Mouth1" serif:id="Mouth" d="M79.429,171.352L92.31,191.237L108.219,172.744L128,191.722L152.351,171.648" style="fill:none;stroke:black;stroke-width:14.49px;stroke-miterlimit:2;"/>
                    <path id="Mouth2" serif:id="Mouth" d="M79.429,171.352L92.31,191.237L108.219,172.744L128,191.722L152.351,171.648" style="fill:none;stroke:rgb(235,235,235);stroke-width:6.58px;"/>
                </g>
            </g>
            <g id="Right-hand" serif:id="Right hand" transform="matrix(-1.06647,-0.140799,-0.148987,1.12849,627.77,-761.862)">
                <path d="M329.258,911.249L340.156,892.373C342.017,889.148 346.147,888.042 349.371,889.903C352.596,891.765 353.702,895.894 351.841,899.119L350.109,902.118C350.107,902.15 350.107,902.183 350.107,902.215C350.107,903.398 351.067,904.359 352.25,904.359L385.436,904.359C389.169,904.359 392.2,907.39 392.2,911.123C392.2,914.856 389.169,917.887 385.436,917.887L373.818,917.887C371.864,917.887 370.278,919.473 370.278,921.427L370.278,926.942C370.278,933.027 365.338,937.966 359.253,937.966L342.822,937.966C333.548,937.966 326.019,930.437 326.019,921.163C326.019,917.456 327.222,914.029 329.258,911.249Z" style="fill:rgb(151,151,151);"/>
                <path d="M329.258,911.249C327.222,914.029 326.019,917.456 326.019,921.163C326.019,930.437 333.548,937.966 342.822,937.966L359.253,937.966C365.338,937.966 370.278,933.027 370.278,926.942L370.278,921.427C370.278,919.473 371.864,917.887 373.818,917.887L385.436,917.887C389.169,917.887 392.2,914.856 392.2,911.123C392.2,907.39 389.169,904.359 385.436,904.359L352.25,904.359C351.067,904.359 350.107,903.398 350.107,902.215C350.107,902.183 350.107,902.15 350.109,902.118L351.841,899.119C353.702,895.894 352.596,891.765 349.371,889.903C346.147,888.042 342.017,889.148 340.156,892.373L329.258,911.249ZM333.338,913.352L344.236,894.476C344.79,893.517 345.989,893.098 346.948,893.652C348.118,894.327 348.436,895.845 347.76,897.015L346.029,900.014C345.688,900.604 345.495,901.261 345.465,901.932C345.461,902.026 345.459,902.12 345.459,902.215C345.459,905.89 348.576,908.751 352.25,908.751L385.436,908.751C386.68,908.751 387.552,909.878 387.552,911.123C387.552,912.367 386.68,913.494 385.436,913.494L373.818,913.494C369.373,913.494 365.63,916.982 365.63,921.427L365.63,926.942C365.63,930.536 362.848,933.574 359.253,933.574L342.822,933.574C336.039,933.574 330.667,927.947 330.667,921.163C330.667,918.392 331.557,915.827 333.08,913.749C333.173,913.621 333.259,913.489 333.338,913.352Z"/>
            </g>
            <g id="Right-hand1" serif:id="Right hand" transform="matrix(-1.0663,-0.142072,-0.150334,1.12831,556.947,-771.312)">
                <path d="M329.258,911.249L340.156,892.373C342.017,889.148 346.147,888.042 349.371,889.903C352.596,891.765 353.702,895.894 351.841,899.119L350.109,902.118C350.107,902.15 350.107,902.183 350.107,902.215C350.107,903.398 351.067,904.359 352.25,904.359L385.436,904.359C389.169,904.359 392.2,907.39 392.2,911.123C392.2,914.856 389.169,917.887 385.436,917.887L373.818,917.887C371.864,917.887 370.278,919.473 370.278,921.427L370.278,926.942C370.278,933.027 365.338,937.966 359.253,937.966L342.822,937.966C333.548,937.966 326.019,930.437 326.019,921.163C326.019,917.456 327.222,914.029 329.258,911.249Z" style="fill:rgb(151,151,151);"/>
                <path d="M329.258,911.249C327.222,914.029 326.019,917.456 326.019,921.163C326.019,930.437 333.548,937.966 342.822,937.966L359.253,937.966C365.338,937.966 370.278,933.027 370.278,926.942L370.278,921.427C370.278,919.473 371.864,917.887 373.818,917.887L385.436,917.887C389.169,917.887 392.2,914.856 392.2,911.123C392.2,907.39 389.169,904.359 385.436,904.359L352.25,904.359C351.067,904.359 350.107,903.398 350.107,902.215C350.107,902.183 350.107,902.15 350.109,902.118L351.841,899.119C353.702,895.894 352.596,891.765 349.371,889.903C346.147,888.042 342.017,889.148 340.156,892.373L329.258,911.249ZM333.338,913.352L344.236,894.476C344.79,893.517 345.989,893.098 346.948,893.652C348.118,894.327 348.436,895.845 347.76,897.015L346.029,900.014C345.688,900.604 345.495,901.261 345.465,901.932C345.461,902.026 345.459,902.12 345.459,902.215C345.459,905.89 348.576,908.751 352.25,908.751L385.436,908.751C386.68,908.751 387.552,909.878 387.552,911.123C387.552,912.367 386.68,913.494 385.436,913.494L373.818,913.494C369.373,913.494 365.63,916.982 365.63,921.427L365.63,926.942C365.63,930.536 362.848,933.574 359.253,933.574L342.822,933.574C336.039,933.574 330.667,927.947 330.667,921.163C330.667,918.392 331.557,915.827 333.08,913.749C333.173,913.621 333.259,913.489 333.338,913.352Z"/>
            </g>
            <g transform="matrix(0.725379,0.00229937,0,0.725379,-43.7633,98.3233)">
                <path d="M88.64,55.815L240.485,55.815L240.485,67.108L234.033,67.108C234.044,67.323 234.05,67.54 234.05,67.758L234.05,76.768C234.05,91.569 222.034,103.586 207.233,103.586L197.551,103.586C182.894,103.586 170.994,91.686 170.994,77.029L170.994,67.758C170.994,67.54 171,67.323 171.011,67.108L158.113,67.108C158.125,67.323 158.131,67.54 158.131,67.758L158.131,76.768C158.131,91.569 146.114,103.586 131.313,103.586L121.632,103.586C106.974,103.586 95.075,91.686 95.075,77.029L95.075,67.758C95.075,67.54 95.08,67.323 95.092,67.108L88.64,67.108L88.64,55.815Z" style="fill:rgb(31,30,30);stroke:black;stroke-width:4.13px;"/>
            </g>
        </g>
    </g>
</svg>
