<?xml version="1.0" encoding="UTF-8" standalone="no"?>
<!DOCTYPE svg PUBLIC "-//W3C//DTD SVG 1.1//EN" "http://www.w3.org/Graphics/SVG/1.1/DTD/svg11.dtd">
<svg width="100%" height="100%" viewBox="0 0 256 256" version="1.1" xmlns="http://www.w3.org/2000/svg" xmlns:xlink="http://www.w3.org/1999/xlink" xml:space="preserve" xmlns:serif="http://www.serif.com/" style="fill-rule:evenodd;clip-rule:evenodd;stroke-linecap:round;stroke-linejoin:round;stroke-miterlimit:1.5;">
    <g transform="matrix(1,0,0,1,-844,-563)">
        <g id="blobbee_fox_ears" transform="matrix(1,0,0,1,843.995,563.267)">
            <rect x="0" y="0" width="256" height="256" style="fill:none;"/>
            <g id="Sting" transform="matrix(0.78314,0.139967,-0.135634,0.7589,67.2303,-21.11)">
                <path d="M189.771,56.854L238.765,34.355L235.05,81.388" style="fill:rgb(104,104,104);stroke:black;stroke-width:12.77px;"/>
            </g>
            <g id="Ear-outline" serif:id="Ear outline" transform="matrix(0.804205,-6.64644e-19,1.81667e-19,0.804205,-12.9401,49.1147)">
                <path d="M42.604,107.138C42.604,107.138 28.746,70.414 27.202,46.07C26.677,37.791 27.641,30.64 29.886,25.623C32.485,19.816 36.646,15.967 42.147,14.095C50.686,11.19 62.761,14.485 74.583,23.334C93.97,37.844 114.915,65.853 114.915,65.853C118.008,70.012 118.197,75.651 115.39,80.008C112.584,84.364 107.37,86.523 102.306,85.426C94.984,83.841 89.2,83.697 84.322,85.664C76.332,88.885 71.237,96.975 65.249,108.459C62.986,112.799 58.386,115.408 53.499,115.123C48.613,114.838 44.348,111.712 42.604,107.138ZM54.223,102.709C67.072,78.068 79.208,67.702 104.937,73.273C104.937,73.273 64.934,19.478 46.152,25.867C27.369,32.257 54.223,102.709 54.223,102.709Z"/>
            </g>
            <g id="Body" transform="matrix(0.994109,-0.573949,0.761422,1.28301,-120.17,92.6047)">
                <ellipse cx="168.926" cy="110.515" rx="107.942" ry="55.376" style="fill:rgb(104,104,104);stroke:black;stroke-width:7.47px;"/>
            </g>
            <g id="Wings-outline" serif:id="Wings outline" transform="matrix(0.959562,0.127262,-0.127262,0.959562,7.56883,-6.44254)">
                <g transform="matrix(1.17688,-0.575088,0.651434,1.21399,-55.8934,35.953)">
                    <path d="M87.433,14.046C105.289,14.046 121.064,31.835 121.064,54.906C121.064,78.317 104.954,96.336 86.833,96.336C68.977,96.336 53.202,78.546 53.202,55.475C53.202,32.064 69.312,14.046 87.433,14.046ZM87.133,21.55C72.762,21.55 61.095,36.624 61.095,55.191C61.095,73.758 72.762,88.832 87.133,88.832C101.504,88.832 113.171,73.758 113.171,55.191C113.171,36.624 101.504,21.55 87.133,21.55Z"/>
                </g>
                <g transform="matrix(1.24343,0.685066,-0.776012,1.28263,74.2693,-72.8119)">
                    <path d="M86.838,14.653C104.667,14.653 120.454,32.436 120.454,55.47C120.454,78.17 104.998,95.729 87.428,95.729C69.599,95.729 53.812,77.946 53.812,54.911C53.812,32.211 69.268,14.653 86.838,14.653ZM87.133,21.55C72.762,21.55 61.095,36.624 61.095,55.191C61.095,73.758 72.762,88.832 87.133,88.832C101.504,88.832 113.171,73.758 113.171,55.191C113.171,36.624 101.504,21.55 87.133,21.55Z"/>
                </g>
            </g>
            <g id="Stripes" transform="matrix(1,0,0,1,4.4273,10.012)">
                <g transform="matrix(1,-7.43708e-18,-7.43708e-18,1,92.3462,-63.8411)">
                    <path d="M37.588,107.021C36.302,108.044 130.102,103.736 138.911,199.269C185.818,73.536 38.054,97.55 37.588,107.021Z" style="fill:rgb(254,194,7);stroke:black;stroke-width:3px;"/>
                </g>
                <g transform="matrix(1,-7.43708e-18,-7.43708e-18,1,73.4912,-52.6421)">
                    <path d="M157.766,189.064C152.141,96.884 58.714,94.709 59.225,91.972L24.408,104.867C24.408,104.867 137.219,103.115 141.236,211.738L154.889,190.72" style="fill:rgb(104,104,104);stroke:black;stroke-width:3px;"/>
                </g>
                <g transform="matrix(1,-7.43708e-18,-7.43708e-18,1,55.5726,-39.8214)">
                    <path d="M138.184,221.282L158.96,198.917C155.015,90.156 39.958,88.264 39.959,88.304L21.516,99.184C21.345,99.215 140.506,108.796 138.184,221.282Z" style="fill:rgb(254,194,7);stroke:black;stroke-width:3px;"/>
                </g>
                <g transform="matrix(1,-7.43708e-18,-7.43708e-18,1,25.9786,-19.0024)">
                    <path d="M52.67,78.448L32.777,93.969C32.777,93.969 147.14,105.355 145.924,216.369L167.401,201.973C175.368,91.857 51.46,79.379 49.702,80.764" style="fill:rgb(104,104,104);stroke:black;stroke-width:3px;"/>
                </g>
                <g transform="matrix(1,-7.43708e-18,-7.43708e-18,1,-0.424026,-0.546032)">
                    <path d="M54.907,77.629L39.992,93.485C39.992,93.485 145.269,94.435 147.67,208.921L172.327,197.913C176.533,83.454 58.325,78.845 54.907,77.629Z" style="fill:rgb(254,194,7);stroke:black;stroke-width:3px;"/>
                </g>
            </g>
            <g id="Body-outline" serif:id="Body outline" transform="matrix(0.994109,-0.573949,0.761422,1.28301,-120.17,92.6047)">
                <ellipse cx="168.926" cy="110.515" rx="107.942" ry="55.376" style="fill:none;stroke:black;stroke-width:7.47px;"/>
            </g>
            <g id="Wings" transform="matrix(0.959562,0.127262,-0.127262,0.959562,7.56883,-6.44254)">
                <g id="Back-wing" serif:id="Back wing" transform="matrix(1.17688,-0.575088,0.651434,1.21399,-55.8934,35.953)">
                    <ellipse cx="87.133" cy="55.191" rx="26.038" ry="33.641" style="fill:rgb(195,195,195);stroke:black;stroke-width:2.26px;"/>
                </g>
                <g id="Front-wing" serif:id="Front wing" transform="matrix(0.946806,0,0,0.999012,5.86837,0.313874)">
                    <g id="Front-wing-main" serif:id="Front wing main" transform="matrix(1.31328,0.685743,-0.81961,1.2839,72.2439,-73.1981)">
                        <ellipse cx="87.133" cy="55.191" rx="26.038" ry="33.641" style="fill:rgb(195,195,195);stroke:black;stroke-width:2.17px;"/>
                    </g>
                    <path id="Front-wing-line" serif:id="Front wing line" d="M119.334,101.013C123.249,82.03 129.669,61.104 148.451,47.276" style="fill:none;stroke:black;stroke-width:3.18px;"/>
                </g>
            </g>
            <g id="Face" transform="matrix(1,0,0,1,-3.8947,1.36785)">
                <g id="Mouth" transform="matrix(0.658566,-1.17246e-18,-3.87825e-17,0.848272,3.90699,42.2986)">
                    <path d="M79.429,171.352L92.31,191.237L108.219,172.744L128,191.722L152.351,171.648" style="fill:none;stroke:black;stroke-width:14.49px;stroke-miterlimit:2;"/>
                    <path d="M79.429,171.352L92.31,191.237L108.219,172.744L128,191.722L152.351,171.648" style="fill:none;stroke:rgb(235,235,235);stroke-width:6.58px;"/>
                </g>
                <g id="Eyes" transform="matrix(0.856324,0.124954,-0.124954,0.856324,35.143,7.15355)">
                    <g id="Right-eye" serif:id="Right eye" transform="matrix(1.56791,-0.228787,0.215752,1.47858,-150.38,17.2361)">
                        <path d="M154.615,113.255C154.615,107.493 150.203,102.815 144.77,102.815C139.336,102.815 134.924,107.493 134.924,113.255L134.924,120.6C134.924,126.362 139.336,131.04 144.77,131.04C150.203,131.04 154.615,126.362 154.615,120.6L154.615,113.255Z" style="fill:rgb(235,235,235);stroke:black;stroke-width:2.25px;"/>
                    </g>
                    <g id="Right-eye1" serif:id="Right eye" transform="matrix(0.639006,-0.0932429,0.104024,0.712889,-4.68472,94.5194)">
                        <path d="M154.615,111.64C154.615,106.77 150.203,102.815 144.77,102.815C139.336,102.815 134.924,106.77 134.924,111.64L134.924,122.216C134.924,127.086 139.336,131.04 144.77,131.04C150.203,131.04 154.615,127.086 154.615,122.216L154.615,111.64Z"/>
                    </g>
                    <g id="Left-eye" serif:id="Left eye" transform="matrix(1.56791,-0.228787,0.215752,1.47858,-201.077,24.6337)">
                        <path d="M154.615,113.255C154.615,107.493 150.203,102.815 144.77,102.815C139.336,102.815 134.924,107.493 134.924,113.255L134.924,120.6C134.924,126.362 139.336,131.04 144.77,131.04C150.203,131.04 154.615,126.362 154.615,120.6L154.615,113.255Z" style="fill:rgb(235,235,235);stroke:black;stroke-width:2.25px;"/>
                    </g>
                    <g id="Right-eye2" serif:id="Right eye" transform="matrix(0.639006,-0.0932429,0.104024,0.712889,-55.3816,101.917)">
                        <path d="M154.615,111.64C154.615,106.77 150.203,102.815 144.77,102.815C139.336,102.815 134.924,106.77 134.924,111.64L134.924,122.216C134.924,127.086 139.336,131.04 144.77,131.04C150.203,131.04 154.615,127.086 154.615,122.216L154.615,111.64Z"/>
                    </g>
                </g>
            </g>
            <g id="Right-ear" serif:id="Right ear" transform="matrix(0.816851,0.142205,-0.142205,0.816851,-21.9634,37.5067)">
                <g id="Inner" transform="matrix(0.999548,0.0300699,-0.0300699,0.999548,4.86494,-5.6735)">
                    <path d="M152.81,71.009C152.81,71.009 175.371,47.082 184.226,38.937C193.297,30.593 212.868,14.405 219.227,15.425C232.702,17.587 229.821,91.61 216.239,111.681C203.672,97.553 188.437,84.135 152.81,71.009Z" style="fill:rgb(242,221,193);stroke:black;stroke-width:3.62px;"/>
                </g>
                <g id="Outer" transform="matrix(0.999548,0.0300699,-0.0300699,0.999548,4.86494,-5.6735)">
                    <path d="M152.85,71.201C152.85,71.201 175.203,46.895 184.226,38.937C193.248,30.978 212.038,14.228 218.426,15.056C224.814,15.884 224.946,21.643 224.946,21.643C223.395,20.635 222.792,20.454 219.185,20.454C215.578,20.454 201.418,32.339 195.601,44.69C189.785,57.042 188.364,60.612 184.226,64.916C180.088,69.221 180.588,71.805 152.85,71.201Z" style="fill:rgb(73,73,73);stroke:black;stroke-width:3.62px;"/>
                </g>
                <g id="Fluff" transform="matrix(0.999548,0.0300699,-0.0300699,0.999548,4.86494,-5.6735)">
                    <path d="M152.85,71.201C152.85,71.201 177.426,60.842 186.404,66.8C190.97,69.83 185.306,87.33 185.306,87.33C185.306,87.33 206.977,77.967 212.328,81.871C217.679,85.775 214.92,111.952 214.92,111.952C196.838,93.364 177.487,79.374 152.85,71.201Z" style="fill:rgb(247,150,91);stroke:black;stroke-width:3.62px;"/>
                </g>
            </g>
            <g id="Left-ear" serif:id="Left ear" transform="matrix(0.804205,0,0,0.804205,-12.9401,49.1147)">
                <path d="M52.204,102.709C52.204,102.709 27.369,32.257 46.152,25.867C64.934,19.478 104.937,73.273 104.937,73.273C79.208,67.702 65.053,78.068 52.204,102.709Z" style="fill:rgb(73,73,73);stroke:black;stroke-width:4.35px;"/>
            </g>
            <g id="Fox-hair" serif:id="Fox hair" transform="matrix(0.70861,0,0,0.824083,-11.1658,57.493)">
                <path d="M86.888,71.512C76.747,70.97 56.743,67.101 56.743,67.101C56.743,67.101 69.742,50.931 103.574,59.835C100.535,58.117 95.978,55.989 92.489,51.361C89,46.733 85.223,39.207 85.223,39.207C96.531,38.295 131.429,30.079 143.847,59.642C139.633,49.096 138.513,39.809 147.67,39.484C147.67,39.484 161.125,58.164 169.205,60.659C166.962,63.276 152.18,72.197 152.18,72.197C152.18,72.197 102.794,72.361 86.888,71.512Z" style="fill:rgb(247,150,91);stroke:black;stroke-width:3.9px;"/>
            </g>
        </g>
    </g>
</svg>
