<?xml version="1.0" encoding="UTF-8" standalone="no"?>
<!DOCTYPE svg PUBLIC "-//W3C//DTD SVG 1.1//EN" "http://www.w3.org/Graphics/SVG/1.1/DTD/svg11.dtd">
<svg width="100%" height="100%" viewBox="0 0 256 256" version="1.1" xmlns="http://www.w3.org/2000/svg" xmlns:xlink="http://www.w3.org/1999/xlink" xml:space="preserve" xmlns:serif="http://www.serif.com/" style="fill-rule:evenodd;clip-rule:evenodd;stroke-linecap:round;stroke-linejoin:round;stroke-miterlimit:1.5;">
    <g transform="matrix(1,0,0,1,-1686,-563)">
        <g id="blobbee_woozy" transform="matrix(1,0,0,1,1686.25,563.622)">
            <rect x="0" y="0" width="256" height="256" style="fill:none;"/>
            <g id="Sting" transform="matrix(0.78314,0.139967,-0.135634,0.7589,67.2303,-21.11)">
                <path d="M189.771,56.854L238.765,34.355L235.05,81.388" style="fill:rgb(104,104,104);stroke:black;stroke-width:12.77px;"/>
            </g>
            <g id="Body" transform="matrix(0.994109,-0.573949,0.761422,1.28301,-120.17,92.6047)">
                <ellipse cx="168.926" cy="110.515" rx="107.942" ry="55.376" style="fill:rgb(104,104,104);stroke:black;stroke-width:7.47px;"/>
            </g>
            <g id="Wings-outline" serif:id="Wings outline" transform="matrix(0.959562,0.127262,-0.127262,0.959562,7.56883,-6.44254)">
                <g transform="matrix(1.17688,-0.575088,0.651434,1.21399,-55.8934,35.953)">
                    <path d="M87.433,14.046C105.289,14.046 121.064,31.835 121.064,54.906C121.064,78.317 104.954,96.336 86.833,96.336C68.977,96.336 53.202,78.546 53.202,55.475C53.202,32.064 69.312,14.046 87.433,14.046ZM87.133,21.55C72.762,21.55 61.095,36.624 61.095,55.191C61.095,73.758 72.762,88.832 87.133,88.832C101.504,88.832 113.171,73.758 113.171,55.191C113.171,36.624 101.504,21.55 87.133,21.55Z"/>
                </g>
                <g transform="matrix(1.24343,0.685066,-0.776012,1.28263,74.2693,-72.8119)">
                    <path d="M86.838,14.653C104.667,14.653 120.454,32.436 120.454,55.47C120.454,78.17 104.998,95.729 87.428,95.729C69.599,95.729 53.812,77.946 53.812,54.911C53.812,32.211 69.268,14.653 86.838,14.653ZM87.133,21.55C72.762,21.55 61.095,36.624 61.095,55.191C61.095,73.758 72.762,88.832 87.133,88.832C101.504,88.832 113.171,73.758 113.171,55.191C113.171,36.624 101.504,21.55 87.133,21.55Z"/>
                </g>
            </g>
            <g id="Stripes" transform="matrix(1,0,0,1,4.4273,10.012)">
                <g transform="matrix(1,-7.43708e-18,-7.43708e-18,1,92.3462,-63.8411)">
                    <path d="M37.588,107.021C36.302,108.044 130.102,103.736 138.911,199.269C185.818,73.536 38.054,97.55 37.588,107.021Z" style="fill:rgb(254,194,7);stroke:black;stroke-width:3px;"/>
                </g>
                <g transform="matrix(1,-7.43708e-18,-7.43708e-18,1,73.4912,-52.6421)">
                    <path d="M157.766,189.064C152.141,96.884 58.714,94.709 59.225,91.972L24.408,104.867C24.408,104.867 137.219,103.115 141.236,211.738L154.889,190.72" style="fill:rgb(104,104,104);stroke:black;stroke-width:3px;"/>
                </g>
                <g transform="matrix(1,-7.43708e-18,-7.43708e-18,1,55.5726,-39.8214)">
                    <path d="M138.184,221.282L158.96,198.917C155.015,90.156 39.958,88.264 39.959,88.304L21.516,99.184C21.345,99.215 140.506,108.796 138.184,221.282Z" style="fill:rgb(254,194,7);stroke:black;stroke-width:3px;"/>
                </g>
                <g transform="matrix(1,-7.43708e-18,-7.43708e-18,1,25.9786,-19.0024)">
                    <path d="M52.67,78.448L32.777,93.969C32.777,93.969 147.14,105.355 145.924,216.369L167.401,201.973C175.368,91.857 51.46,79.379 49.702,80.764" style="fill:rgb(104,104,104);stroke:black;stroke-width:3px;"/>
                </g>
                <g transform="matrix(1,-7.43708e-18,-7.43708e-18,1,-0.424026,-0.546032)">
                    <path d="M54.907,77.629L39.992,93.485C39.992,93.485 145.269,94.435 147.67,208.921L172.327,197.913C176.533,83.454 58.325,78.845 54.907,77.629Z" style="fill:rgb(254,194,7);stroke:black;stroke-width:3px;"/>
                </g>
            </g>
            <g id="Body-outline" serif:id="Body outline" transform="matrix(0.994109,-0.573949,0.761422,1.28301,-120.17,92.6047)">
                <ellipse cx="168.926" cy="110.515" rx="107.942" ry="55.376" style="fill:none;stroke:black;stroke-width:7.47px;"/>
            </g>
            <g id="Wings" transform="matrix(0.959562,0.127262,-0.127262,0.959562,7.56883,-6.44254)">
                <g id="Back-wing" serif:id="Back wing" transform="matrix(1.17688,-0.575088,0.651434,1.21399,-55.8934,35.953)">
                    <ellipse cx="87.133" cy="55.191" rx="26.038" ry="33.641" style="fill:rgb(195,195,195);stroke:black;stroke-width:2.26px;"/>
                </g>
                <g id="Front-wing" serif:id="Front wing" transform="matrix(0.946806,0,0,0.999012,5.86837,0.313874)">
                    <g id="Front-wing-main" serif:id="Front wing main" transform="matrix(1.31328,0.685743,-0.81961,1.2839,72.2439,-73.1981)">
                        <ellipse cx="87.133" cy="55.191" rx="26.038" ry="33.641" style="fill:rgb(195,195,195);stroke:black;stroke-width:2.17px;"/>
                    </g>
                    <path id="Front-wing-line" serif:id="Front wing line" d="M119.334,101.013C123.249,82.03 129.669,61.104 148.451,47.276" style="fill:none;stroke:black;stroke-width:3.18px;"/>
                </g>
            </g>
            <g id="Face" transform="matrix(1,0,0,1,-3.8947,1.36785)">
                <g id="Mouth" transform="matrix(0.720443,0,0,0.720443,-2.02419,65.6799)">
                    <path d="M76.054,170.799C76.054,170.799 76.031,187.649 88.077,187.572C100.122,187.495 98.541,176.092 108.126,176.065C117.711,176.037 118.433,192.334 133.23,191.774C148.027,191.214 152.203,173.417 152.285,171.376" style="fill:none;stroke:black;stroke-width:19.43px;stroke-miterlimit:2;"/>
                    <path d="M76.054,170.799C76.054,170.799 76.031,187.649 88.077,187.572C100.122,187.495 98.541,176.092 108.126,176.065C117.711,176.037 118.433,192.334 133.23,191.774C148.027,191.214 152.203,173.417 152.285,171.376" style="fill:none;stroke:rgb(235,235,235);stroke-width:11.1px;"/>
                </g>
                <g id="Eyes" transform="matrix(0.856324,0.124954,-0.124954,0.856324,35.143,7.15355)">
                    <g>
                        <g id="Right-eye" serif:id="Right eye" transform="matrix(1.14344,-0.166848,0.166848,1.14344,-1379.72,-167.03)">
                            <path d="M1214.7,458.982L1241.51,469.646C1240.41,476.005 1234.87,480.85 1228.2,480.85C1220.75,480.85 1214.7,474.801 1214.7,467.35L1214.7,458.982Z" style="fill:rgb(235,235,235);stroke:black;stroke-width:3px;"/>
                        </g>
                        <g id="Right-eye1" serif:id="Right eye" transform="matrix(1.14344,-0.166848,0.166848,1.14344,-1376.92,-167.076)">
                            <path d="M1221.6,461.725L1231.2,465.546L1231.2,471.983C1231.2,475.02 1228.74,477.485 1225.7,477.485C1222.66,477.485 1220.2,475.02 1220.2,471.983L1220.2,465.39C1220.2,463.983 1220.73,462.698 1221.6,461.725Z"/>
                        </g>
                    </g>
                    <g id="Left-eye" serif:id="Left eye" transform="matrix(1.14344,-0.166848,0.166848,1.14344,-1379.72,-167.03)">
                        <path d="M1170.36,465.385L1197.26,456.14C1197.33,456.701 1197.36,457.272 1197.36,457.852L1197.36,467.35C1197.36,474.801 1191.31,480.85 1183.86,480.85C1176.41,480.85 1170.36,474.801 1170.36,467.35L1170.36,465.385Z" style="fill:rgb(235,235,235);stroke:black;stroke-width:3px;"/>
                    </g>
                    <g id="Right-eye2" serif:id="Right eye" transform="matrix(1.14344,-0.166848,0.166848,1.14344,-1377.14,-169.351)">
                        <path d="M1176.25,463.363L1184.15,460.646C1185.77,461.603 1186.86,463.37 1186.86,465.39L1186.86,471.983C1186.86,475.02 1184.4,477.485 1181.36,477.485C1178.32,477.485 1175.86,475.02 1175.86,471.983L1175.86,465.39C1175.86,464.674 1176,463.991 1176.25,463.363Z"/>
                    </g>
                </g>
                <g id="Right-eyebrow" serif:id="Right eyebrow" transform="matrix(0.768752,0.118645,-0.113174,0.733303,-3.65898,59.1967)">
                    <path d="M139.15,75.147C139.15,75.147 147.255,93.107 169.433,83.396" style="fill:none;stroke:black;stroke-width:18.42px;stroke-miterlimit:2;"/>
                    <path d="M139.15,75.147C139.15,75.147 147.255,93.107 169.433,83.396" style="fill:none;stroke:rgb(235,235,235);stroke-width:10.52px;"/>
                </g>
                <g id="Left-eyebrow" serif:id="Left eyebrow" transform="matrix(-0.594771,0.501301,-0.478185,-0.567345,184.506,98.9907)">
                    <path d="M139.15,75.147C139.15,75.147 147.255,93.107 169.433,83.396" style="fill:none;stroke:black;stroke-width:18.42px;stroke-miterlimit:2;"/>
                    <path d="M139.15,75.147C139.15,75.147 147.255,93.107 169.433,83.396" style="fill:none;stroke:rgb(235,235,235);stroke-width:10.52px;"/>
                </g>
            </g>
        </g>
    </g>
</svg>
