<?xml version="1.0" encoding="UTF-8" standalone="no"?>
<!DOCTYPE svg PUBLIC "-//W3C//DTD SVG 1.1//EN" "http://www.w3.org/Graphics/SVG/1.1/DTD/svg11.dtd">
<svg width="100%" height="100%" viewBox="0 0 256 256" version="1.1" xmlns="http://www.w3.org/2000/svg" xmlns:xlink="http://www.w3.org/1999/xlink" xml:space="preserve" xmlns:serif="http://www.serif.com/" style="fill-rule:evenodd;clip-rule:evenodd;stroke-linecap:round;stroke-linejoin:round;stroke-miterlimit:1.5;">
    <g transform="matrix(1,0,0,1,0,-1686)">
        <g id="blobbee_collar" transform="matrix(1,0,0,1,0,1686)">
            <rect x="0" y="0" width="256" height="256" style="fill:none;"/>
            <g transform="matrix(1.31076,0,0,1.31076,-33.8294,-2296.31)">
                <circle cx="111.106" cy="1926.85" r="11.504" style="fill:rgb(185,185,185);"/>
                <path d="M111.106,1907.71C121.666,1907.71 130.239,1916.29 130.239,1926.85C130.239,1937.4 121.666,1945.98 111.106,1945.98C100.546,1945.98 91.972,1937.4 91.972,1926.85C91.972,1916.29 100.546,1907.71 111.106,1907.71ZM111.106,1915.34C104.756,1915.34 99.601,1920.5 99.601,1926.85C99.601,1933.19 104.756,1938.35 111.106,1938.35C117.455,1938.35 122.61,1933.19 122.61,1926.85C122.61,1920.5 117.455,1915.34 111.106,1915.34Z"/>
            </g>
            <g transform="matrix(1.06236,0,0,1.06236,-6.78095,-1807.46)">
                <path d="M100.988,1917.52L105.063,1913.71L108.068,1918.57L113.348,1913.75L116.145,1918.34L119.811,1914.01L122.257,1918.62" style="fill:none;stroke:rgb(97,97,97);stroke-width:2.82px;"/>
            </g>
            <g transform="matrix(1.06236,0,0,1.06236,-4.44873,-1798.74)">
                <path d="M100.988,1917.52L105.063,1913.71L108.068,1918.57L113.348,1913.75L116.204,1918.88" style="fill:none;stroke:rgb(97,97,97);stroke-width:2.82px;"/>
            </g>
            <g id="Bee" transform="matrix(0.95711,0,0,0.95711,0.630474,0.493523)">
                <g id="Sting" transform="matrix(0.78314,0.139967,-0.135634,0.7589,67.2303,-21.11)">
                    <path d="M189.771,56.854L238.765,34.355L235.05,81.388" style="fill:rgb(104,104,104);stroke:black;stroke-width:13.34px;"/>
                </g>
                <g id="Body" transform="matrix(0.994109,-0.573949,0.761422,1.28301,-120.17,92.6047)">
                    <ellipse cx="168.926" cy="110.515" rx="107.942" ry="55.376" style="fill:rgb(104,104,104);stroke:black;stroke-width:7.8px;"/>
                </g>
                <g id="Wings-outline" serif:id="Wings outline" transform="matrix(0.959562,0.127262,-0.127262,0.959562,7.56883,-6.44254)">
                    <g transform="matrix(1.17688,-0.575088,0.651434,1.21399,-55.8934,35.953)">
                        <path d="M87.446,13.709C105.459,13.709 121.418,31.62 121.418,54.893C121.418,78.522 105.109,96.672 86.82,96.672C68.807,96.672 52.848,78.761 52.848,55.488C52.848,31.859 69.157,13.709 87.446,13.709ZM87.133,21.55C72.762,21.55 61.095,36.624 61.095,55.191C61.095,73.758 72.762,88.832 87.133,88.832C101.504,88.832 113.171,73.758 113.171,55.191C113.171,36.624 101.504,21.55 87.133,21.55Z"/>
                    </g>
                    <g transform="matrix(1.24343,0.685066,-0.776012,1.28263,74.2693,-72.8119)">
                        <path d="M86.825,14.343C104.809,14.343 120.781,32.248 120.781,55.483C120.781,78.368 105.155,96.038 87.441,96.038C69.457,96.038 53.485,78.134 53.485,54.899C53.485,32.013 69.111,14.343 86.825,14.343ZM87.133,21.55C72.762,21.55 61.095,36.624 61.095,55.191C61.095,73.758 72.762,88.832 87.133,88.832C101.504,88.832 113.171,73.758 113.171,55.191C113.171,36.624 101.504,21.55 87.133,21.55Z"/>
                    </g>
                </g>
                <g id="Stripes" transform="matrix(1,0,0,1,4.4273,10.012)">
                    <g transform="matrix(1,-7.43708e-18,-7.43708e-18,1,92.3462,-63.8411)">
                        <path d="M37.588,107.021C36.302,108.044 130.102,103.736 138.911,199.269C185.818,73.536 38.054,97.55 37.588,107.021Z" style="fill:rgb(254,194,7);stroke:black;stroke-width:3.13px;"/>
                    </g>
                    <g transform="matrix(1,-7.43708e-18,-7.43708e-18,1,73.4912,-52.6421)">
                        <path d="M157.766,189.064C152.141,96.884 58.714,94.709 59.225,91.972L24.408,104.867C24.408,104.867 137.219,103.115 141.236,211.738L154.889,190.72" style="fill:rgb(104,104,104);stroke:black;stroke-width:3.13px;"/>
                    </g>
                    <g transform="matrix(1,-7.43708e-18,-7.43708e-18,1,55.5726,-39.8214)">
                        <path d="M138.184,221.282L158.96,198.917C155.015,90.156 39.958,88.264 39.959,88.304L21.516,99.184C21.345,99.215 140.506,108.796 138.184,221.282Z" style="fill:rgb(254,194,7);stroke:black;stroke-width:3.13px;"/>
                    </g>
                    <g transform="matrix(1,-7.43708e-18,-7.43708e-18,1,25.9786,-19.0024)">
                        <path d="M52.67,78.448L32.777,93.969C32.777,93.969 147.14,105.355 145.924,216.369L167.401,201.973C175.368,91.857 51.46,79.379 49.702,80.764" style="fill:rgb(104,104,104);stroke:black;stroke-width:3.13px;"/>
                    </g>
                    <g transform="matrix(1,-7.43708e-18,-7.43708e-18,1,-0.424026,-0.546032)">
                        <path d="M54.907,77.629L39.992,93.485C39.992,93.485 145.269,94.435 147.67,208.921L172.327,197.913C176.533,83.454 58.325,78.845 54.907,77.629Z" style="fill:rgb(254,194,7);stroke:black;stroke-width:3.13px;"/>
                    </g>
                </g>
                <g id="Body-outline" serif:id="Body outline" transform="matrix(0.994109,-0.573949,0.761422,1.28301,-120.17,92.6047)">
                    <ellipse cx="168.926" cy="110.515" rx="107.942" ry="55.376" style="fill:none;stroke:black;stroke-width:7.8px;"/>
                </g>
                <g id="Wings" transform="matrix(0.959562,0.127262,-0.127262,0.959562,7.56883,-6.44254)">
                    <g id="Back-wing" serif:id="Back wing" transform="matrix(1.17688,-0.575088,0.651434,1.21399,-55.8934,35.953)">
                        <ellipse cx="87.133" cy="55.191" rx="26.038" ry="33.641" style="fill:rgb(195,195,195);stroke:black;stroke-width:2.36px;"/>
                    </g>
                    <g id="Front-wing" serif:id="Front wing" transform="matrix(0.946806,0,0,0.999012,5.86837,0.313874)">
                        <g id="Front-wing-main" serif:id="Front wing main" transform="matrix(1.31328,0.685743,-0.81961,1.2839,72.2439,-73.1981)">
                            <ellipse cx="87.133" cy="55.191" rx="26.038" ry="33.641" style="fill:rgb(195,195,195);stroke:black;stroke-width:2.26px;"/>
                        </g>
                        <path id="Front-wing-line" serif:id="Front wing line" d="M119.334,101.013C123.249,82.03 129.669,61.104 148.451,47.276" style="fill:none;stroke:black;stroke-width:3.33px;"/>
                    </g>
                </g>
                <g id="Face" transform="matrix(0.964163,0,0,0.964163,-5.96407,17.4286)">
                    <g id="Mouth" transform="matrix(0.999746,0.0225504,-0.0225504,0.999746,-296.837,-704.236)">
                        <path d="M383.199,888.879C383.199,888.879 387.929,881.338 396.218,881.423C404.587,881.508 408.8,889.008 408.8,889.008" style="fill:none;stroke:black;stroke-width:13px;stroke-miterlimit:2;"/>
                        <path d="M383.199,888.879C383.199,888.879 387.929,881.338 396.218,881.423C404.587,881.508 408.8,889.008 408.8,889.008" style="fill:none;stroke:rgb(235,235,235);stroke-width:5.42px;"/>
                    </g>
                    <g id="Eyes" transform="matrix(0.856324,0.124954,-0.124954,0.856324,35.143,11.3864)">
                        <g id="Right-eye" serif:id="Right eye">
                            <g id="Right-eye1" serif:id="Right eye" transform="matrix(1.14344,-0.166848,0.166848,1.14344,-157.44,-795.193)">
                                <circle cx="103.071" cy="847.784" r="16.18" style="fill:rgb(235,235,235);stroke:black;stroke-width:3.25px;"/>
                            </g>
                            <g id="Right-pupil" serif:id="Right pupil" transform="matrix(1.67877,-0.244964,0.244964,1.67877,-281.66,-1243.09)">
                                <circle cx="103.071" cy="847.784" r="8.799"/>
                            </g>
                            <g id="Right-eye2" serif:id="Right eye" transform="matrix(0.495712,-0.0723336,0.0723336,0.495712,-18.2433,-261.539)">
                                <circle cx="103.071" cy="847.784" r="16.18" style="fill:rgb(235,235,235);"/>
                            </g>
                        </g>
                        <g id="Left-eye" serif:id="Left eye" transform="matrix(1,7.37496e-18,-2.21882e-17,1,-50.731,7.40259)">
                            <g id="Right-eye3" serif:id="Right eye" transform="matrix(1.14344,-0.166848,0.166848,1.14344,-157.44,-795.193)">
                                <circle cx="103.071" cy="847.784" r="16.18" style="fill:rgb(235,235,235);stroke:black;stroke-width:3.25px;"/>
                            </g>
                            <g id="Right-pupil1" serif:id="Right pupil" transform="matrix(1.67877,-0.244964,0.244964,1.67877,-281.66,-1243.09)">
                                <circle cx="103.071" cy="847.784" r="8.799"/>
                            </g>
                            <g id="Right-eye4" serif:id="Right eye" transform="matrix(0.495712,-0.0723336,0.0723336,0.495712,-18.2433,-261.539)">
                                <circle cx="103.071" cy="847.784" r="16.18" style="fill:rgb(235,235,235);"/>
                            </g>
                        </g>
                    </g>
                    <g id="Left-eyebrow" serif:id="Left eyebrow" transform="matrix(-0.642659,0,0,0.642659,161.517,78.3384)">
                        <path d="M139.15,75.147C139.15,75.147 147.255,93.107 169.433,83.396" style="fill:none;stroke:black;stroke-width:18.55px;stroke-miterlimit:2;"/>
                        <path d="M139.15,75.147C139.15,75.147 147.255,93.107 169.433,83.396" style="fill:none;stroke:rgb(235,235,235);stroke-width:8.43px;"/>
                    </g>
                    <g id="Right-eyebrow" serif:id="Right eyebrow" transform="matrix(0.642659,0,0,0.642659,-0.108931,78.3384)">
                        <path d="M139.15,75.147C139.15,75.147 147.255,93.107 169.433,83.396" style="fill:none;stroke:black;stroke-width:18.55px;stroke-miterlimit:2;"/>
                        <path d="M139.15,75.147C139.15,75.147 147.255,93.107 169.433,83.396" style="fill:none;stroke:rgb(235,235,235);stroke-width:8.43px;"/>
                    </g>
                </g>
            </g>
            <g id="Collar" transform="matrix(0.95711,0,0,0.95711,2.4978,-1.13568)">
                <g transform="matrix(1,-7.43708e-18,-7.43708e-18,1,-0.00657267,13.5124)">
                    <path d="M45.462,80.413L34.017,92.66C34.017,92.66 147.047,98.83 149.448,213.317L167.735,205.024C162.172,92.119 48.879,81.63 45.462,80.413Z" style="fill:rgb(142,108,173);stroke:black;stroke-width:3.13px;"/>
                </g>
                <g transform="matrix(0.926976,-0.37512,0.37512,0.926976,-713.459,-1535.06)">
                    <path d="M145.623,1882.43C145.623,1882.43 143.403,1865.11 149.469,1864.07C155.99,1862.96 162.446,1877.5 162.446,1877.5" style="fill:none;stroke:black;stroke-width:3.13px;"/>
                </g>
                <g transform="matrix(0.968486,-0.398766,0.380732,0.924686,-700.89,-1489.81)">
                    <rect x="135.832" y="1853.51" width="18.387" height="3.716" style="fill:rgb(142,108,173);"/>
                    <path d="M157.212,1853.51L157.212,1857.23C157.212,1858.96 155.872,1860.36 154.219,1860.36L135.832,1860.36C134.18,1860.36 132.84,1858.96 132.84,1857.23L132.84,1853.51C132.84,1851.78 134.18,1850.38 135.832,1850.38L154.219,1850.38C155.872,1850.38 157.212,1851.78 157.212,1853.51ZM154.219,1853.51L135.832,1853.51L135.832,1857.23L154.219,1857.23L154.219,1853.51Z"/>
                </g>
                <g transform="matrix(1,0,0,1,0.660938,-1687.23)">
                    <circle cx="151.315" cy="1870.56" r="2.785" style="fill:rgb(142,108,173);"/>
                    <path d="M151.315,1864.64C154.582,1864.64 157.234,1867.29 157.234,1870.56C157.234,1873.82 154.582,1876.47 151.315,1876.47C148.048,1876.47 145.396,1873.82 145.396,1870.56C145.396,1867.29 148.048,1864.64 151.315,1864.64ZM151.315,1867.77C149.778,1867.77 148.53,1869.02 148.53,1870.56C148.53,1872.09 149.778,1873.34 151.315,1873.34C152.852,1873.34 154.099,1872.09 154.099,1870.56C154.099,1869.02 152.852,1867.77 151.315,1867.77Z"/>
                </g>
                <g transform="matrix(1,0,0,1,4.70103,-1673.24)">
                    <circle cx="151.315" cy="1870.56" r="2.785" style="fill:rgb(142,108,173);"/>
                    <path d="M151.315,1864.64C154.582,1864.64 157.234,1867.29 157.234,1870.56C157.234,1873.82 154.582,1876.47 151.315,1876.47C148.048,1876.47 145.396,1873.82 145.396,1870.56C145.396,1867.29 148.048,1864.64 151.315,1864.64ZM151.315,1867.77C149.778,1867.77 148.53,1869.02 148.53,1870.56C148.53,1872.09 149.778,1873.34 151.315,1873.34C152.852,1873.34 154.099,1872.09 154.099,1870.56C154.099,1869.02 152.852,1867.77 151.315,1867.77Z"/>
                </g>
                <g transform="matrix(1,0,0,1,6.49086,-1658.22)">
                    <circle cx="151.315" cy="1870.56" r="2.785" style="fill:rgb(142,108,173);"/>
                    <path d="M151.315,1864.64C154.582,1864.64 157.234,1867.29 157.234,1870.56C157.234,1873.82 154.582,1876.47 151.315,1876.47C148.048,1876.47 145.396,1873.82 145.396,1870.56C145.396,1867.29 148.048,1864.64 151.315,1864.64ZM151.315,1867.77C149.778,1867.77 148.53,1869.02 148.53,1870.56C148.53,1872.09 149.778,1873.34 151.315,1873.34C152.852,1873.34 154.099,1872.09 154.099,1870.56C154.099,1869.02 152.852,1867.77 151.315,1867.77Z"/>
                </g>
            </g>
        </g>
    </g>
</svg>
