<?xml version="1.0" encoding="UTF-8" standalone="no"?>
<!DOCTYPE svg PUBLIC "-//W3C//DTD SVG 1.1//EN" "http://www.w3.org/Graphics/SVG/1.1/DTD/svg11.dtd">
<svg width="100%" height="100%" viewBox="0 0 256 256" version="1.1" xmlns="http://www.w3.org/2000/svg" xmlns:xlink="http://www.w3.org/1999/xlink" xml:space="preserve" xmlns:serif="http://www.serif.com/" style="fill-rule:evenodd;clip-rule:evenodd;stroke-linecap:round;stroke-linejoin:round;stroke-miterlimit:1.5;">
    <g transform="matrix(1,0,0,1,-282,-563)">
        <g id="blobbee_heart" transform="matrix(1,0,0,1,282.493,563.267)">
            <rect x="0" y="0" width="256" height="256" style="fill:none;"/>
            <g id="Sting" transform="matrix(0.78314,0.139967,-0.135634,0.7589,67.2303,-21.11)">
                <path d="M189.771,56.854L238.765,34.355L235.05,81.388" style="fill:rgb(104,104,104);stroke:black;stroke-width:12.77px;"/>
            </g>
            <g id="Heart-outline" serif:id="Heart outline" transform="matrix(1.18084,0,0,1.50689,-1488.32,-1156.83)">
                <path d="M1324.07,885.041C1332.46,873.088 1349.24,873.088 1357.63,879.065C1366.02,885.041 1366.02,896.994 1357.63,908.948C1351.76,917.912 1336.66,926.877 1324.07,932.854C1311.49,926.877 1296.39,917.912 1290.52,908.948C1282.13,896.994 1282.13,885.041 1290.52,879.065C1298.91,873.088 1315.69,873.088 1324.07,885.041Z" style="fill:none;stroke:black;stroke-width:7.39px;"/>
            </g>
            <g id="Body" transform="matrix(0.994109,-0.573949,0.761422,1.28301,-120.17,92.6047)">
                <ellipse cx="168.926" cy="110.515" rx="107.942" ry="55.376" style="fill:rgb(104,104,104);stroke:black;stroke-width:7.47px;"/>
            </g>
            <g id="Wings-outline" serif:id="Wings outline" transform="matrix(0.959562,0.127262,-0.127262,0.959562,7.56883,-6.44254)">
                <g transform="matrix(1.17688,-0.575088,0.651434,1.21399,-55.8934,35.953)">
                    <path d="M87.433,14.046C105.289,14.046 121.064,31.835 121.064,54.906C121.064,78.317 104.954,96.336 86.833,96.336C68.977,96.336 53.202,78.546 53.202,55.475C53.202,32.064 69.312,14.046 87.433,14.046ZM87.133,21.55C72.762,21.55 61.095,36.624 61.095,55.191C61.095,73.758 72.762,88.832 87.133,88.832C101.504,88.832 113.171,73.758 113.171,55.191C113.171,36.624 101.504,21.55 87.133,21.55Z"/>
                </g>
                <g transform="matrix(1.24343,0.685066,-0.776012,1.28263,74.2693,-72.8119)">
                    <path d="M86.838,14.653C104.667,14.653 120.454,32.436 120.454,55.47C120.454,78.17 104.998,95.729 87.428,95.729C69.599,95.729 53.812,77.946 53.812,54.911C53.812,32.211 69.268,14.653 86.838,14.653ZM87.133,21.55C72.762,21.55 61.095,36.624 61.095,55.191C61.095,73.758 72.762,88.832 87.133,88.832C101.504,88.832 113.171,73.758 113.171,55.191C113.171,36.624 101.504,21.55 87.133,21.55Z"/>
                </g>
            </g>
            <g id="Stripes" transform="matrix(1,0,0,1,4.4273,10.012)">
                <g transform="matrix(1,-7.43708e-18,-7.43708e-18,1,92.3462,-63.8411)">
                    <path d="M37.588,107.021C36.302,108.044 130.102,103.736 138.911,199.269C185.818,73.536 38.054,97.55 37.588,107.021Z" style="fill:rgb(254,194,7);stroke:black;stroke-width:3px;"/>
                </g>
                <g transform="matrix(1,-7.43708e-18,-7.43708e-18,1,73.4912,-52.6421)">
                    <path d="M157.766,189.064C152.141,96.884 58.714,94.709 59.225,91.972L24.408,104.867C24.408,104.867 137.219,103.115 141.236,211.738L154.889,190.72" style="fill:rgb(104,104,104);stroke:black;stroke-width:3px;"/>
                </g>
                <g transform="matrix(1,-7.43708e-18,-7.43708e-18,1,55.5726,-39.8214)">
                    <path d="M138.184,221.282L158.96,198.917C155.015,90.156 39.958,88.264 39.959,88.304L21.516,99.184C21.345,99.215 140.506,108.796 138.184,221.282Z" style="fill:rgb(254,194,7);stroke:black;stroke-width:3px;"/>
                </g>
                <g transform="matrix(1,-7.43708e-18,-7.43708e-18,1,25.9786,-19.0024)">
                    <path d="M52.67,78.448L32.777,93.969C32.777,93.969 147.14,105.355 145.924,216.369L167.401,201.973C175.368,91.857 51.46,79.379 49.702,80.764" style="fill:rgb(104,104,104);stroke:black;stroke-width:3px;"/>
                </g>
                <g transform="matrix(1,-7.43708e-18,-7.43708e-18,1,-0.424026,-0.546032)">
                    <path d="M54.907,77.629L39.992,93.485C39.992,93.485 145.269,94.435 147.67,208.921L172.327,197.913C176.533,83.454 58.325,78.845 54.907,77.629Z" style="fill:rgb(254,194,7);stroke:black;stroke-width:3px;"/>
                </g>
            </g>
            <g id="Face" transform="matrix(1,0,0,1,-3.8947,1.36785)">
                <g id="Mouth" transform="matrix(1,0,0,1,-316.9,-695.531)">
                    <path d="M383.199,891.402C383.199,891.402 384.753,881.489 396.218,881.423C407.683,881.356 408.8,891.53 408.8,891.53" style="fill:none;stroke:rgb(235,235,235);stroke-width:8px;"/>
                </g>
                <g id="Eyes" transform="matrix(0.856324,0.124954,-0.124954,0.856324,35.143,5.08476)">
                    <g id="Right-eye" serif:id="Right eye">
                        <g id="Right-eye1" serif:id="Right eye" transform="matrix(1.14344,-0.166848,0.166848,1.14344,-157.44,-795.193)">
                            <circle cx="103.071" cy="847.784" r="16.18" style="fill:rgb(235,235,235);stroke:black;stroke-width:3px;"/>
                        </g>
                        <g id="Right-pupil" serif:id="Right pupil" transform="matrix(1.67877,-0.244964,0.244964,1.67877,-282.572,-1240.44)">
                            <circle cx="103.071" cy="847.784" r="8.799"/>
                        </g>
                        <g id="Right-eye2" serif:id="Right eye" transform="matrix(0.495712,-0.0723336,0.0723336,0.495712,-19.155,-258.894)">
                            <circle cx="103.071" cy="847.784" r="16.18" style="fill:rgb(235,235,235);"/>
                        </g>
                    </g>
                    <g id="Left-eye" serif:id="Left eye" transform="matrix(1,7.37496e-18,-2.21882e-17,1,-50.731,7.40259)">
                        <g id="Right-eye3" serif:id="Right eye" transform="matrix(1.14344,-0.166848,0.166848,1.14344,-157.44,-795.193)">
                            <circle cx="103.071" cy="847.784" r="16.18" style="fill:rgb(235,235,235);stroke:black;stroke-width:3px;"/>
                        </g>
                        <g id="Right-pupil1" serif:id="Right pupil" transform="matrix(1.67877,-0.244964,0.244964,1.67877,-282.572,-1240.44)">
                            <circle cx="103.071" cy="847.784" r="8.799"/>
                        </g>
                        <g id="Right-eye4" serif:id="Right eye" transform="matrix(0.495712,-0.0723336,0.0723336,0.495712,-19.155,-258.894)">
                            <circle cx="103.071" cy="847.784" r="16.18" style="fill:rgb(235,235,235);"/>
                        </g>
                    </g>
                </g>
            </g>
            <g id="Body-outline" serif:id="Body outline" transform="matrix(0.994109,-0.573949,0.761422,1.28301,-120.17,92.6047)">
                <ellipse cx="168.926" cy="110.515" rx="107.942" ry="55.376" style="fill:none;stroke:black;stroke-width:7.47px;"/>
            </g>
            <g id="Wings" transform="matrix(0.959562,0.127262,-0.127262,0.959562,7.56883,-6.44254)">
                <g id="Back-wing" serif:id="Back wing" transform="matrix(1.17688,-0.575088,0.651434,1.21399,-55.8934,35.953)">
                    <ellipse cx="87.133" cy="55.191" rx="26.038" ry="33.641" style="fill:rgb(195,195,195);stroke:black;stroke-width:2.26px;"/>
                </g>
                <g id="Front-wing" serif:id="Front wing" transform="matrix(0.946806,0,0,0.999012,5.86837,0.313874)">
                    <g id="Front-wing-main" serif:id="Front wing main" transform="matrix(1.31328,0.685743,-0.81961,1.2839,72.2439,-73.1981)">
                        <ellipse cx="87.133" cy="55.191" rx="26.038" ry="33.641" style="fill:rgb(195,195,195);stroke:black;stroke-width:2.17px;"/>
                    </g>
                    <path id="Front-wing-line" serif:id="Front wing line" d="M119.334,101.013C123.249,82.03 129.669,61.104 148.451,47.276" style="fill:none;stroke:black;stroke-width:3.18px;"/>
                </g>
            </g>
            <g id="Heart" transform="matrix(1.18084,0,0,1.50689,-1488.32,-1156.83)">
                <path d="M1324.07,885.041C1332.46,873.088 1349.24,873.088 1357.63,879.065C1366.02,885.041 1366.02,896.994 1357.63,908.948C1351.76,917.912 1336.66,926.877 1324.07,932.854C1311.49,926.877 1296.39,917.912 1290.52,908.948C1282.13,896.994 1282.13,885.041 1290.52,879.065C1298.91,873.088 1315.69,873.088 1324.07,885.041Z" style="fill:rgb(250,41,41);stroke:black;stroke-width:3.69px;"/>
            </g>
            <g id="Arm" transform="matrix(-1.36409,-0.274023,-0.274023,1.36409,243.196,-43.4804)">
                <path d="M126.361,195.324C131.632,207.227 133.182,217.035 130.643,222.887C128.104,228.739 123.003,235.183 111.72,230.967C100.281,226.693 85.917,212.804 90.545,203.32C94.217,195.795 104.937,195.209 112.743,200.468C118.04,204.037 116.287,208.38 119.358,207.391C121.378,206.74 121.255,196.139 126.361,195.324Z" style="fill:rgb(151,151,151);stroke:black;stroke-width:3.59px;"/>
            </g>
            <g id="Arm1" serif:id="Arm" transform="matrix(1.36409,-0.274023,0.274023,1.36409,-94.2446,-42.1116)">
                <path d="M126.361,195.324C137.518,197.031 136.207,211.795 130.643,222.887C127.783,228.589 123.003,235.183 111.72,230.967C100.281,226.693 85.917,212.804 90.545,203.32C94.217,195.795 104.937,195.209 112.743,200.468C118.04,204.037 116.287,208.38 119.358,207.391C121.378,206.74 121.255,196.139 126.361,195.324Z" style="fill:rgb(151,151,151);stroke:black;stroke-width:3.59px;"/>
            </g>
        </g>
    </g>
</svg>
