<?xml version="1.0" encoding="UTF-8" standalone="no"?>
<!DOCTYPE svg PUBLIC "-//W3C//DTD SVG 1.1//EN" "http://www.w3.org/Graphics/SVG/1.1/DTD/svg11.dtd">
<svg width="100%" height="100%" viewBox="0 0 256 256" version="1.1" xmlns="http://www.w3.org/2000/svg" xmlns:xlink="http://www.w3.org/1999/xlink" xml:space="preserve" xmlns:serif="http://www.serif.com/" style="fill-rule:evenodd;clip-rule:evenodd;stroke-linecap:round;stroke-linejoin:round;stroke-miterlimit:1.5;">
    <g transform="matrix(1,0,0,1,-843,-281)">
        <g id="blobbee_plead" transform="matrix(1,0,0,1,843,281)">
            <rect x="0" y="0" width="256" height="256" style="fill:none;"/>
            <g id="Sting" transform="matrix(0.78314,0.139967,-0.135634,0.7589,67.2303,-21.11)">
                <path d="M189.771,56.854L238.765,34.355L235.05,81.388" style="fill:rgb(104,104,104);stroke:black;stroke-width:12.77px;"/>
            </g>
            <g id="Hands-outline" serif:id="Hands outline" transform="matrix(1.06694,0,0,1.12899,-343.717,-811.834)">
                <path d="M395.948,907.292C395.948,911.055 392.892,914.111 389.128,914.111L377.415,914.111C375.445,914.111 373.845,915.711 373.845,917.681L373.845,923.241C373.845,929.376 368.865,934.356 362.73,934.356L346.164,934.356C336.813,934.356 329.222,926.765 329.222,917.414C329.222,913.677 330.435,910.221 332.487,907.418L346.058,883.913C347.935,880.662 352.099,879.546 355.35,881.423C358.601,883.3 359.716,887.464 357.839,890.715L353.51,898.213C353.509,898.245 353.508,898.278 353.508,898.311C353.508,899.503 354.477,900.472 355.669,900.472L389.128,900.472C392.892,900.472 395.948,903.528 395.948,907.292ZM395.948,907.292C395.948,903.528 399.004,900.472 402.768,900.472L436.227,900.472C437.419,900.472 438.388,899.503 438.388,898.311C438.388,898.278 438.387,898.245 438.386,898.213L434.057,890.715C432.18,887.464 433.295,883.3 436.546,881.423C439.797,879.546 443.961,880.662 445.838,883.913L459.409,907.418C461.461,910.221 462.674,913.677 462.674,917.414C462.674,926.765 455.083,934.356 445.732,934.356L429.166,934.356C423.031,934.356 418.051,929.376 418.051,923.241L418.051,917.681C418.051,915.711 416.451,914.111 414.481,914.111L402.768,914.111C399.004,914.111 395.948,911.055 395.948,907.292Z" style="fill:none;stroke:black;stroke-width:9.1px;"/>
            </g>
            <g id="Body" transform="matrix(0.994109,-0.573949,0.761422,1.28301,-120.17,92.6047)">
                <ellipse cx="168.926" cy="110.515" rx="107.942" ry="55.376" style="fill:rgb(104,104,104);stroke:black;stroke-width:7.47px;"/>
            </g>
            <g id="Wings-outline" serif:id="Wings outline" transform="matrix(0.959562,0.127262,-0.127262,0.959562,7.56883,-6.44254)">
                <g transform="matrix(1.17688,-0.575088,0.651434,1.21399,-55.8934,35.953)">
                    <path d="M87.433,14.046C105.289,14.046 121.064,31.835 121.064,54.906C121.064,78.317 104.954,96.336 86.833,96.336C68.977,96.336 53.202,78.546 53.202,55.475C53.202,32.064 69.312,14.046 87.433,14.046ZM87.133,21.55C72.762,21.55 61.095,36.624 61.095,55.191C61.095,73.758 72.762,88.832 87.133,88.832C101.504,88.832 113.171,73.758 113.171,55.191C113.171,36.624 101.504,21.55 87.133,21.55Z"/>
                </g>
                <g transform="matrix(1.24343,0.685066,-0.776012,1.28263,74.2693,-72.8119)">
                    <path d="M86.838,14.653C104.667,14.653 120.454,32.436 120.454,55.47C120.454,78.17 104.998,95.729 87.428,95.729C69.599,95.729 53.812,77.946 53.812,54.911C53.812,32.211 69.268,14.653 86.838,14.653ZM87.133,21.55C72.762,21.55 61.095,36.624 61.095,55.191C61.095,73.758 72.762,88.832 87.133,88.832C101.504,88.832 113.171,73.758 113.171,55.191C113.171,36.624 101.504,21.55 87.133,21.55Z"/>
                </g>
            </g>
            <g id="Stripes" transform="matrix(1,0,0,1,4.4273,10.012)">
                <g transform="matrix(1,-7.43708e-18,-7.43708e-18,1,92.3462,-63.8411)">
                    <path d="M37.588,107.021C36.302,108.044 130.102,103.736 138.911,199.269C185.818,73.536 38.054,97.55 37.588,107.021Z" style="fill:rgb(254,194,7);stroke:black;stroke-width:3px;"/>
                </g>
                <g transform="matrix(1,-7.43708e-18,-7.43708e-18,1,73.4912,-52.6421)">
                    <path d="M157.766,189.064C152.141,96.884 58.714,94.709 59.225,91.972L24.408,104.867C24.408,104.867 137.219,103.115 141.236,211.738L154.889,190.72" style="fill:rgb(104,104,104);stroke:black;stroke-width:3px;"/>
                </g>
                <g transform="matrix(1,-7.43708e-18,-7.43708e-18,1,55.5726,-39.8214)">
                    <path d="M138.184,221.282L158.96,198.917C155.015,90.156 39.958,88.264 39.959,88.304L21.516,99.184C21.345,99.215 140.506,108.796 138.184,221.282Z" style="fill:rgb(254,194,7);stroke:black;stroke-width:3px;"/>
                </g>
                <g transform="matrix(1,-7.43708e-18,-7.43708e-18,1,25.9786,-19.0024)">
                    <path d="M52.67,78.448L32.777,93.969C32.777,93.969 147.14,105.355 145.924,216.369L167.401,201.973C175.368,91.857 51.46,79.379 49.702,80.764" style="fill:rgb(104,104,104);stroke:black;stroke-width:3px;"/>
                </g>
                <g transform="matrix(1,-7.43708e-18,-7.43708e-18,1,-0.424026,-0.546032)">
                    <path d="M54.907,77.629L39.992,93.485C39.992,93.485 145.269,94.435 147.67,208.921L172.327,197.913C176.533,83.454 58.325,78.845 54.907,77.629Z" style="fill:rgb(254,194,7);stroke:black;stroke-width:3px;"/>
                </g>
            </g>
            <g id="Face" transform="matrix(1,0,0,1,-3.8947,1.36785)">
                <g id="Mouth" transform="matrix(1,0,0,1,-316.9,-695.531)">
                    <path d="M383.199,891.402C383.199,891.402 384.753,881.489 396.218,881.423C407.683,881.356 408.8,891.53 408.8,891.53" style="fill:none;stroke:black;stroke-width:12px;stroke-miterlimit:2;"/>
                    <path d="M383.199,891.402C383.199,891.402 384.753,881.489 396.218,881.423C407.683,881.356 408.8,891.53 408.8,891.53" style="fill:none;stroke:rgb(235,235,235);stroke-width:5px;"/>
                </g>
                <g id="Eyes" transform="matrix(0.856324,0.124954,-0.124954,0.856324,35.143,11.3864)">
                    <g id="Right-eye" serif:id="Right eye">
                        <g id="Right-eye1" serif:id="Right eye" transform="matrix(1.14344,-0.166848,0.166848,1.14344,-157.44,-795.193)">
                            <circle cx="103.071" cy="847.784" r="16.18" style="fill:rgb(235,235,235);stroke:black;stroke-width:3px;"/>
                        </g>
                        <g id="Right-pupil" serif:id="Right pupil" transform="matrix(1.67877,-0.244964,0.244964,1.67877,-281.66,-1243.09)">
                            <circle cx="103.071" cy="847.784" r="8.799"/>
                        </g>
                        <g id="Right-eye2" serif:id="Right eye" transform="matrix(0.495712,-0.0723336,0.0723336,0.495712,-18.2433,-261.539)">
                            <circle cx="103.071" cy="847.784" r="16.18" style="fill:rgb(235,235,235);"/>
                        </g>
                    </g>
                    <g id="Left-eye" serif:id="Left eye" transform="matrix(1,7.37496e-18,-2.21882e-17,1,-50.731,7.40259)">
                        <g id="Right-eye3" serif:id="Right eye" transform="matrix(1.14344,-0.166848,0.166848,1.14344,-157.44,-795.193)">
                            <circle cx="103.071" cy="847.784" r="16.18" style="fill:rgb(235,235,235);stroke:black;stroke-width:3px;"/>
                        </g>
                        <g id="Right-pupil1" serif:id="Right pupil" transform="matrix(1.67877,-0.244964,0.244964,1.67877,-281.66,-1243.09)">
                            <circle cx="103.071" cy="847.784" r="8.799"/>
                        </g>
                        <g id="Right-eye4" serif:id="Right eye" transform="matrix(0.495712,-0.0723336,0.0723336,0.495712,-18.2433,-261.539)">
                            <circle cx="103.071" cy="847.784" r="16.18" style="fill:rgb(235,235,235);"/>
                        </g>
                    </g>
                </g>
                <g id="Left-eyebrow" serif:id="Left eyebrow" transform="matrix(-0.642659,0,0,0.642659,161.517,78.3384)">
                    <path d="M139.15,75.147C139.15,75.147 147.255,93.107 169.433,83.396" style="fill:none;stroke:black;stroke-width:17.12px;stroke-miterlimit:2;"/>
                    <path d="M139.15,75.147C139.15,75.147 147.255,93.107 169.433,83.396" style="fill:none;stroke:rgb(235,235,235);stroke-width:7.78px;"/>
                </g>
                <g id="Right-eyebrow" serif:id="Right eyebrow" transform="matrix(0.642659,0,0,0.642659,-0.108931,78.3384)">
                    <path d="M139.15,75.147C139.15,75.147 147.255,93.107 169.433,83.396" style="fill:none;stroke:black;stroke-width:17.12px;stroke-miterlimit:2;"/>
                    <path d="M139.15,75.147C139.15,75.147 147.255,93.107 169.433,83.396" style="fill:none;stroke:rgb(235,235,235);stroke-width:7.78px;"/>
                </g>
            </g>
            <g id="Body-outline" serif:id="Body outline" transform="matrix(0.994109,-0.573949,0.761422,1.28301,-120.17,92.6047)">
                <ellipse cx="168.926" cy="110.515" rx="107.942" ry="55.376" style="fill:none;stroke:black;stroke-width:7.47px;"/>
            </g>
            <g id="Hands" transform="matrix(1.03384,0,0,1.03384,-0.573974,-6.29011)">
                <g id="Left-hand" serif:id="Left hand" transform="matrix(1.04051,0,0,1.10102,-331.375,-791.55)">
                    <path d="M329.258,911.249L339.752,892.985C341.614,889.761 345.743,888.654 348.967,890.516C352.192,892.378 353.298,896.507 351.437,899.731L350.109,902.118C350.107,902.15 350.107,902.183 350.107,902.215C350.107,903.398 351.067,904.359 352.25,904.359L385.436,904.359C389.169,904.359 392.2,907.39 392.2,911.123C392.2,914.856 389.169,917.887 385.436,917.887L373.818,917.887C371.864,917.887 370.278,919.473 370.278,921.427L370.278,926.942C370.278,933.027 365.338,937.966 359.253,937.966L342.822,937.966C333.548,937.966 326.019,930.437 326.019,921.163C326.019,917.456 327.222,914.029 329.258,911.249Z" style="fill:rgb(151,151,151);"/>
                    <path d="M329.258,911.249L339.752,892.985C341.614,889.761 345.743,888.654 348.967,890.516C352.192,892.378 353.298,896.507 351.437,899.731L350.109,902.118C350.107,902.15 350.107,902.183 350.107,902.215C350.107,903.398 351.067,904.359 352.25,904.359L385.436,904.359C389.169,904.359 392.2,907.39 392.2,911.123C392.2,914.856 389.169,917.887 385.436,917.887L373.818,917.887C371.864,917.887 370.278,919.473 370.278,921.427L370.278,926.942C370.278,933.027 365.338,937.966 359.253,937.966L342.822,937.966C333.548,937.966 326.019,930.437 326.019,921.163C326.019,917.456 327.222,914.029 329.258,911.249ZM333.08,913.749C331.557,915.827 330.667,918.392 330.667,921.163C330.667,927.947 336.039,933.574 342.822,933.574L359.253,933.574C362.848,933.574 365.63,930.536 365.63,926.942L365.63,921.427C365.63,916.982 369.373,913.494 373.818,913.494L385.436,913.494C386.68,913.494 387.552,912.367 387.552,911.123C387.552,909.878 386.68,908.751 385.436,908.751L352.25,908.751C348.576,908.751 345.459,905.89 345.459,902.215C345.459,902.12 345.461,902.026 345.465,901.932C345.494,901.284 345.675,900.649 345.995,900.074L347.323,897.687C347.334,897.667 347.345,897.647 347.356,897.627C348.032,896.457 347.714,894.94 346.544,894.264C345.585,893.711 344.387,894.13 343.833,895.088L333.342,913.345C333.262,913.484 333.175,913.618 333.08,913.749Z"/>
                </g>
                <g id="Right-hand" serif:id="Right hand" transform="matrix(-1.04051,0,0,1.10102,484.804,-791.55)">
                    <path d="M329.258,911.249L340.156,892.373C342.017,889.148 346.147,888.042 349.371,889.903C352.596,891.765 353.702,895.894 351.841,899.119L350.109,902.118C350.107,902.15 350.107,902.183 350.107,902.215C350.107,903.398 351.067,904.359 352.25,904.359L385.436,904.359C389.169,904.359 392.2,907.39 392.2,911.123C392.2,914.856 389.169,917.887 385.436,917.887L373.818,917.887C371.864,917.887 370.278,919.473 370.278,921.427L370.278,926.942C370.278,933.027 365.338,937.966 359.253,937.966L342.822,937.966C333.548,937.966 326.019,930.437 326.019,921.163C326.019,917.456 327.222,914.029 329.258,911.249Z" style="fill:rgb(151,151,151);"/>
                    <path d="M329.258,911.249C327.222,914.029 326.019,917.456 326.019,921.163C326.019,930.437 333.548,937.966 342.822,937.966L359.253,937.966C365.338,937.966 370.278,933.027 370.278,926.942L370.278,921.427C370.278,919.473 371.864,917.887 373.818,917.887L385.436,917.887C389.169,917.887 392.2,914.856 392.2,911.123C392.2,907.39 389.169,904.359 385.436,904.359L352.25,904.359C351.067,904.359 350.107,903.398 350.107,902.215C350.107,902.183 350.107,902.15 350.109,902.118L351.841,899.119C353.702,895.894 352.596,891.765 349.371,889.903C346.147,888.042 342.017,889.148 340.156,892.373L329.258,911.249ZM333.338,913.352L344.236,894.476C344.79,893.517 345.989,893.098 346.948,893.652C348.118,894.327 348.436,895.845 347.76,897.015L346.029,900.014C345.688,900.604 345.495,901.261 345.465,901.932C345.461,902.026 345.459,902.12 345.459,902.215C345.459,905.89 348.576,908.751 352.25,908.751L385.436,908.751C386.68,908.751 387.552,909.878 387.552,911.123C387.552,912.367 386.68,913.494 385.436,913.494L373.818,913.494C369.373,913.494 365.63,916.982 365.63,921.427L365.63,926.942C365.63,930.536 362.848,933.574 359.253,933.574L342.822,933.574C336.039,933.574 330.667,927.947 330.667,921.163C330.667,918.392 331.557,915.827 333.08,913.749C333.173,913.621 333.259,913.489 333.338,913.352Z"/>
                </g>
            </g>
            <g id="Wings" transform="matrix(0.959562,0.127262,-0.127262,0.959562,7.56883,-6.44254)">
                <g id="Back-wing" serif:id="Back wing" transform="matrix(1.17688,-0.575088,0.651434,1.21399,-55.8934,35.953)">
                    <ellipse cx="87.133" cy="55.191" rx="26.038" ry="33.641" style="fill:rgb(195,195,195);stroke:black;stroke-width:2.26px;"/>
                </g>
                <g id="Front-wing" serif:id="Front wing" transform="matrix(0.946806,0,0,0.999012,5.86837,0.313874)">
                    <g id="Front-wing-main" serif:id="Front wing main" transform="matrix(1.31328,0.685743,-0.81961,1.2839,72.2439,-73.1981)">
                        <ellipse cx="87.133" cy="55.191" rx="26.038" ry="33.641" style="fill:rgb(195,195,195);stroke:black;stroke-width:2.17px;"/>
                    </g>
                    <path id="Front-wing-line" serif:id="Front wing line" d="M119.334,101.013C123.249,82.03 129.669,61.104 148.451,47.276" style="fill:none;stroke:black;stroke-width:3.18px;"/>
                </g>
            </g>
        </g>
    </g>
</svg>
