<?xml version="1.0" encoding="UTF-8" standalone="no"?>
<!DOCTYPE svg PUBLIC "-//W3C//DTD SVG 1.1//EN" "http://www.w3.org/Graphics/SVG/1.1/DTD/svg11.dtd">
<svg width="100%" height="100%" viewBox="0 0 256 256" version="1.1" xmlns="http://www.w3.org/2000/svg" xmlns:xlink="http://www.w3.org/1999/xlink" xml:space="preserve" xmlns:serif="http://www.serif.com/" style="fill-rule:evenodd;clip-rule:evenodd;stroke-linejoin:round;stroke-miterlimit:1.5;">
    <g transform="matrix(1,0,0,1,-281,-1967)">
        <g id="blobbee_cross_stitch" transform="matrix(1,0,0,1,281,1967)">
            <rect x="0" y="0" width="256" height="256" style="fill:none;"/>
            <g transform="matrix(0.838943,-0.221164,0.229507,0.870591,-777.981,-1561.41)">
                <rect x="412.91" y="2104.44" width="84.007" height="80.946" style="fill:none;stroke:black;stroke-width:11.31px;"/>
            </g>
            <g transform="matrix(1.12286,-0.278032,0.250957,1.01352,-881.028,-1864.94)">
                <path d="M337.875,2170.72L337.875,2157.29C349.729,2128.72 344.498,2096.13 346.016,2065.05C348.199,2098.24 345.291,2146.48 354.156,2157.46L354.156,2170.72C354.156,2175.21 350.509,2178.86 346.016,2178.86C341.523,2178.86 337.875,2175.21 337.875,2170.72Z" style="fill:none;stroke:black;stroke-width:9.08px;"/>
            </g>
            <g id="Sting" transform="matrix(0.78314,0.139967,-0.135634,0.7589,67.2303,-21.11)">
                <path d="M189.771,56.854L238.765,34.355L235.05,81.388" style="fill:rgb(104,104,104);stroke:black;stroke-width:12.77px;stroke-linecap:round;"/>
            </g>
            <g id="Body" transform="matrix(0.994109,-0.573949,0.761422,1.28301,-120.17,92.6047)">
                <ellipse cx="168.926" cy="110.515" rx="107.942" ry="55.376" style="fill:rgb(104,104,104);stroke:black;stroke-width:7.47px;stroke-linecap:round;"/>
            </g>
            <g id="Wings-outline" serif:id="Wings outline" transform="matrix(0.959562,0.127262,-0.127262,0.959562,7.56883,-6.44254)">
                <g transform="matrix(1.17688,-0.575088,0.651434,1.21399,-55.8934,35.953)">
                    <path d="M87.433,14.046C105.289,14.046 121.064,31.835 121.064,54.906C121.064,78.317 104.954,96.336 86.833,96.336C68.977,96.336 53.202,78.546 53.202,55.475C53.202,32.064 69.312,14.046 87.433,14.046ZM87.133,21.55C72.762,21.55 61.095,36.624 61.095,55.191C61.095,73.758 72.762,88.832 87.133,88.832C101.504,88.832 113.171,73.758 113.171,55.191C113.171,36.624 101.504,21.55 87.133,21.55Z"/>
                </g>
                <g transform="matrix(1.24343,0.685066,-0.776012,1.28263,74.2693,-72.8119)">
                    <path d="M86.838,14.653C104.667,14.653 120.454,32.436 120.454,55.47C120.454,78.17 104.998,95.729 87.428,95.729C69.599,95.729 53.812,77.946 53.812,54.911C53.812,32.211 69.268,14.653 86.838,14.653ZM87.133,21.55C72.762,21.55 61.095,36.624 61.095,55.191C61.095,73.758 72.762,88.832 87.133,88.832C101.504,88.832 113.171,73.758 113.171,55.191C113.171,36.624 101.504,21.55 87.133,21.55Z"/>
                </g>
            </g>
            <g id="Stripes" transform="matrix(1,0,0,1,4.4273,10.012)">
                <g transform="matrix(1,-7.43708e-18,-7.43708e-18,1,92.3462,-63.8411)">
                    <path d="M37.588,107.021C36.302,108.044 130.102,103.736 138.911,199.269C185.818,73.536 38.054,97.55 37.588,107.021Z" style="fill:rgb(254,194,7);stroke:black;stroke-width:3px;stroke-linecap:round;"/>
                </g>
                <g transform="matrix(1,-7.43708e-18,-7.43708e-18,1,73.4912,-52.6421)">
                    <path d="M157.766,189.064C152.141,96.884 58.714,94.709 59.225,91.972L24.408,104.867C24.408,104.867 137.219,103.115 141.236,211.738L154.889,190.72" style="fill:rgb(104,104,104);stroke:black;stroke-width:3px;stroke-linecap:round;"/>
                </g>
                <g transform="matrix(1,-7.43708e-18,-7.43708e-18,1,55.5726,-39.8214)">
                    <path d="M138.184,221.282L158.96,198.917C155.015,90.156 39.958,88.264 39.959,88.304L21.516,99.184C21.345,99.215 140.506,108.796 138.184,221.282Z" style="fill:rgb(254,194,7);stroke:black;stroke-width:3px;stroke-linecap:round;"/>
                </g>
                <g transform="matrix(1,-7.43708e-18,-7.43708e-18,1,25.9786,-19.0024)">
                    <path d="M52.67,78.448L32.777,93.969C32.777,93.969 147.14,105.355 145.924,216.369L167.401,201.973C175.368,91.857 51.46,79.379 49.702,80.764" style="fill:rgb(104,104,104);stroke:black;stroke-width:3px;stroke-linecap:round;"/>
                </g>
                <g transform="matrix(1,-7.43708e-18,-7.43708e-18,1,-0.424026,-0.546032)">
                    <path d="M54.907,77.629L39.992,93.485C39.992,93.485 145.269,94.435 147.67,208.921L172.327,197.913C176.533,83.454 58.325,78.845 54.907,77.629Z" style="fill:rgb(254,194,7);stroke:black;stroke-width:3px;stroke-linecap:round;"/>
                </g>
            </g>
            <g id="Eyes" transform="matrix(0.856324,0.124954,-0.124954,0.856324,31.2483,6.45261)">
                <g id="Face">
                    <g id="Eyes1" serif:id="Eyes">
                        <g id="Right-eye" serif:id="Right eye">
                            <g id="Right-eye1" serif:id="Right eye" transform="matrix(1.14344,-0.166848,0.166848,1.14344,-157.44,-795.193)">
                                <circle cx="103.071" cy="847.784" r="16.18" style="fill:rgb(235,235,235);stroke:black;stroke-width:3px;stroke-linecap:round;"/>
                            </g>
                            <g id="Right-pupil" serif:id="Right pupil" transform="matrix(1.67877,-0.244964,0.244964,1.67877,-282.572,-1240.44)">
                                <circle cx="103.071" cy="847.784" r="8.799"/>
                            </g>
                            <g id="Right-eye2" serif:id="Right eye" transform="matrix(0.495712,-0.0723336,0.0723336,0.495712,-19.155,-258.894)">
                                <circle cx="103.071" cy="847.784" r="16.18" style="fill:rgb(235,235,235);"/>
                            </g>
                        </g>
                        <g id="Left-eye" serif:id="Left eye" transform="matrix(1,7.37496e-18,-2.21882e-17,1,-50.731,7.40259)">
                            <g id="Right-eye3" serif:id="Right eye" transform="matrix(1.14344,-0.166848,0.166848,1.14344,-157.44,-795.193)">
                                <circle cx="103.071" cy="847.784" r="16.18" style="fill:rgb(235,235,235);stroke:black;stroke-width:3px;stroke-linecap:round;"/>
                            </g>
                            <g id="Right-pupil1" serif:id="Right pupil" transform="matrix(1.67877,-0.244964,0.244964,1.67877,-282.572,-1240.44)">
                                <circle cx="103.071" cy="847.784" r="8.799"/>
                            </g>
                            <g id="Right-eye4" serif:id="Right eye" transform="matrix(0.495712,-0.0723336,0.0723336,0.495712,-19.155,-258.894)">
                                <circle cx="103.071" cy="847.784" r="16.18" style="fill:rgb(235,235,235);"/>
                            </g>
                        </g>
                    </g>
                </g>
            </g>
            <g id="Body-outline" serif:id="Body outline" transform="matrix(0.994109,-0.573949,0.761422,1.28301,-120.17,92.6047)">
                <ellipse cx="168.926" cy="110.515" rx="107.942" ry="55.376" style="fill:none;stroke:black;stroke-width:7.47px;stroke-linecap:round;"/>
            </g>
            <g id="Wings" transform="matrix(0.959562,0.127262,-0.127262,0.959562,7.56883,-6.44254)">
                <g id="Back-wing" serif:id="Back wing" transform="matrix(1.17688,-0.575088,0.651434,1.21399,-55.8934,35.953)">
                    <ellipse cx="87.133" cy="55.191" rx="26.038" ry="33.641" style="fill:rgb(195,195,195);stroke:black;stroke-width:2.26px;stroke-linecap:round;"/>
                </g>
                <g id="Front-wing" serif:id="Front wing" transform="matrix(0.946806,0,0,0.999012,5.86837,0.313874)">
                    <g id="Front-wing-main" serif:id="Front wing main" transform="matrix(1.31328,0.685743,-0.81961,1.2839,72.2439,-73.1981)">
                        <ellipse cx="87.133" cy="55.191" rx="26.038" ry="33.641" style="fill:rgb(195,195,195);stroke:black;stroke-width:2.17px;stroke-linecap:round;"/>
                    </g>
                    <path id="Front-wing-line" serif:id="Front wing line" d="M119.334,101.013C123.249,82.03 129.669,61.104 148.451,47.276" style="fill:none;stroke:black;stroke-width:3.18px;stroke-linecap:round;"/>
                </g>
            </g>
            <g transform="matrix(1.12286,-0.278032,0.33127,1.33787,-1056.02,-2571.66)">
                <path d="M337.875,2170.72L337.875,2157.29C349.729,2128.72 344.498,2096.13 346.016,2065.05C348.199,2098.24 345.291,2146.48 354.156,2157.46L354.156,2170.72C354.156,2175.21 350.509,2178.86 346.016,2178.86C341.523,2178.86 337.875,2175.21 337.875,2170.72ZM350.184,2161.63C350.184,2159.33 348.316,2157.46 346.016,2157.46C343.715,2157.46 341.847,2159.33 341.847,2161.63L341.847,2167.79C341.847,2170.09 343.715,2171.95 346.016,2171.95C348.316,2171.95 350.184,2170.09 350.184,2167.79L350.184,2161.63Z" style="fill:rgb(185,185,185);stroke:black;stroke-width:2.36px;"/>
            </g>
            <g transform="matrix(0.838943,-0.221164,0.221164,0.838943,-89.6514,93.2411)">
                <g transform="matrix(1,0,0,1.03772,-281,-2046.39)">
                    <rect x="412.91" y="2104.44" width="84.007" height="80.946" style="fill:rgb(238,238,238);stroke:black;stroke-width:3.39px;"/>
                </g>
                <g>
                    <g transform="matrix(0.876488,0.876488,-0.758773,0.758773,1310.86,-1870.26)">
                        <path d="M482.145,2102.07L477.446,2102.07C476.423,2102.07 475.593,2101.11 475.593,2099.93C475.593,2098.75 476.423,2097.79 477.446,2097.79L482.145,2097.79L482.145,2092.36C482.145,2091.18 482.976,2090.22 483.999,2090.22C485.022,2090.22 485.852,2091.18 485.852,2092.36L485.852,2097.79L490.551,2097.79C491.574,2097.79 492.405,2098.75 492.405,2099.93C492.405,2101.11 491.574,2102.07 490.551,2102.07L485.852,2102.07L485.852,2107.5C485.852,2108.68 485.022,2109.64 483.999,2109.64C482.976,2109.64 482.145,2108.68 482.145,2107.5L482.145,2102.07Z" style="fill:rgb(245,169,184);"/>
                    </g>
                    <g transform="matrix(0.876488,0.876488,-0.758773,0.758773,1326.95,-1870.26)">
                        <path d="M482.145,2102.07L477.446,2102.07C476.423,2102.07 475.593,2101.11 475.593,2099.93C475.593,2098.75 476.423,2097.79 477.446,2097.79L482.145,2097.79L482.145,2092.36C482.145,2091.18 482.976,2090.22 483.999,2090.22C485.022,2090.22 485.852,2091.18 485.852,2092.36L485.852,2097.79L490.551,2097.79C491.574,2097.79 492.405,2098.75 492.405,2099.93C492.405,2101.11 491.574,2102.07 490.551,2102.07L485.852,2102.07L485.852,2107.5C485.852,2108.68 485.022,2109.64 483.999,2109.64C482.976,2109.64 482.145,2108.68 482.145,2107.5L482.145,2102.07Z" style="fill:rgb(91,206,250);"/>
                    </g>
                    <g transform="matrix(0.876488,0.876488,-0.758773,0.758773,1343.04,-1870.26)">
                        <path d="M482.145,2102.07L477.446,2102.07C476.423,2102.07 475.593,2101.11 475.593,2099.93C475.593,2098.75 476.423,2097.79 477.446,2097.79L482.145,2097.79L482.145,2092.36C482.145,2091.18 482.976,2090.22 483.999,2090.22C485.022,2090.22 485.852,2091.18 485.852,2092.36L485.852,2097.79L490.551,2097.79C491.574,2097.79 492.405,2098.75 492.405,2099.93C492.405,2101.11 491.574,2102.07 490.551,2102.07L485.852,2102.07L485.852,2107.5C485.852,2108.68 485.022,2109.64 483.999,2109.64C482.976,2109.64 482.145,2108.68 482.145,2107.5L482.145,2102.07Z" style="fill:rgb(245,169,184);"/>
                    </g>
                    <g transform="matrix(0.876488,0.876488,-0.758773,0.758773,1359.13,-1870.26)">
                        <path d="M482.145,2102.07L477.446,2102.07C476.423,2102.07 475.593,2101.11 475.593,2099.93C475.593,2098.75 476.423,2097.79 477.446,2097.79L482.145,2097.79L482.145,2092.36C482.145,2091.18 482.976,2090.22 483.999,2090.22C485.022,2090.22 485.852,2091.18 485.852,2092.36L485.852,2097.79L490.551,2097.79C491.574,2097.79 492.405,2098.75 492.405,2099.93C492.405,2101.11 491.574,2102.07 490.551,2102.07L485.852,2102.07L485.852,2107.5C485.852,2108.68 485.022,2109.64 483.999,2109.64C482.976,2109.64 482.145,2108.68 482.145,2107.5L482.145,2102.07Z" style="fill:rgb(91,206,250);"/>
                    </g>
                    <g transform="matrix(0.876488,0.876488,-0.758773,0.758773,1375.22,-1870.16)">
                        <path d="M482.145,2102.07L477.446,2102.07C476.423,2102.07 475.593,2101.11 475.593,2099.93C475.593,2098.75 476.423,2097.79 477.446,2097.79L482.145,2097.79L482.145,2092.36C482.145,2091.18 482.976,2090.22 483.999,2090.22C485.022,2090.22 485.852,2091.18 485.852,2092.36L485.852,2097.79L490.551,2097.79C491.574,2097.79 492.405,2098.75 492.405,2099.93C492.405,2101.11 491.574,2102.07 490.551,2102.07L485.852,2102.07L485.852,2107.5C485.852,2108.68 485.022,2109.64 483.999,2109.64C482.976,2109.64 482.145,2108.68 482.145,2107.5L482.145,2102.07Z" style="fill:rgb(245,169,184);"/>
                    </g>
                </g>
                <g transform="matrix(1,0,0,1,0,16.0498)">
                    <g transform="matrix(0.876488,0.876488,-0.758773,0.758773,1310.86,-1870.26)">
                        <path d="M482.145,2102.07L477.446,2102.07C476.423,2102.07 475.593,2101.11 475.593,2099.93C475.593,2098.75 476.423,2097.79 477.446,2097.79L482.145,2097.79L482.145,2092.36C482.145,2091.18 482.976,2090.22 483.999,2090.22C485.022,2090.22 485.852,2091.18 485.852,2092.36L485.852,2097.79L490.551,2097.79C491.574,2097.79 492.405,2098.75 492.405,2099.93C492.405,2101.11 491.574,2102.07 490.551,2102.07L485.852,2102.07L485.852,2107.5C485.852,2108.68 485.022,2109.64 483.999,2109.64C482.976,2109.64 482.145,2108.68 482.145,2107.5L482.145,2102.07Z" style="fill:rgb(91,206,250);"/>
                    </g>
                    <g transform="matrix(0.876488,0.876488,-0.758773,0.758773,1326.95,-1870.26)">
                        <path d="M482.145,2102.07L477.446,2102.07C476.423,2102.07 475.593,2101.11 475.593,2099.93C475.593,2098.75 476.423,2097.79 477.446,2097.79L482.145,2097.79L482.145,2092.36C482.145,2091.18 482.976,2090.22 483.999,2090.22C485.022,2090.22 485.852,2091.18 485.852,2092.36L485.852,2097.79L490.551,2097.79C491.574,2097.79 492.405,2098.75 492.405,2099.93C492.405,2101.11 491.574,2102.07 490.551,2102.07L485.852,2102.07L485.852,2107.5C485.852,2108.68 485.022,2109.64 483.999,2109.64C482.976,2109.64 482.145,2108.68 482.145,2107.5L482.145,2102.07Z" style="fill:rgb(245,169,184);"/>
                    </g>
                    <g transform="matrix(0.876488,0.876488,-0.758773,0.758773,1343.04,-1870.26)">
                        <path d="M482.145,2102.07L477.446,2102.07C476.423,2102.07 475.593,2101.11 475.593,2099.93C475.593,2098.75 476.423,2097.79 477.446,2097.79L482.145,2097.79L482.145,2092.36C482.145,2091.18 482.976,2090.22 483.999,2090.22C485.022,2090.22 485.852,2091.18 485.852,2092.36L485.852,2097.79L490.551,2097.79C491.574,2097.79 492.405,2098.75 492.405,2099.93C492.405,2101.11 491.574,2102.07 490.551,2102.07L485.852,2102.07L485.852,2107.5C485.852,2108.68 485.022,2109.64 483.999,2109.64C482.976,2109.64 482.145,2108.68 482.145,2107.5L482.145,2102.07Z" style="fill:rgb(91,206,250);"/>
                    </g>
                    <g transform="matrix(0.876488,0.876488,-0.758773,0.758773,1359.13,-1870.26)">
                        <path d="M482.145,2102.07L477.446,2102.07C476.423,2102.07 475.593,2101.11 475.593,2099.93C475.593,2098.75 476.423,2097.79 477.446,2097.79L482.145,2097.79L482.145,2092.36C482.145,2091.18 482.976,2090.22 483.999,2090.22C485.022,2090.22 485.852,2091.18 485.852,2092.36L485.852,2097.79L490.551,2097.79C491.574,2097.79 492.405,2098.75 492.405,2099.93C492.405,2101.11 491.574,2102.07 490.551,2102.07L485.852,2102.07L485.852,2107.5C485.852,2108.68 485.022,2109.64 483.999,2109.64C482.976,2109.64 482.145,2108.68 482.145,2107.5L482.145,2102.07Z" style="fill:rgb(245,169,184);"/>
                    </g>
                    <g transform="matrix(0.876488,0.876488,-0.758773,0.758773,1375.22,-1870.16)">
                        <path d="M482.145,2102.07L477.446,2102.07C476.423,2102.07 475.593,2101.11 475.593,2099.93C475.593,2098.75 476.423,2097.79 477.446,2097.79L482.145,2097.79L482.145,2092.36C482.145,2091.18 482.976,2090.22 483.999,2090.22C485.022,2090.22 485.852,2091.18 485.852,2092.36L485.852,2097.79L490.551,2097.79C491.574,2097.79 492.405,2098.75 492.405,2099.93C492.405,2101.11 491.574,2102.07 490.551,2102.07L485.852,2102.07L485.852,2107.5C485.852,2108.68 485.022,2109.64 483.999,2109.64C482.976,2109.64 482.145,2108.68 482.145,2107.5L482.145,2102.07Z" style="fill:rgb(91,206,250);"/>
                    </g>
                </g>
                <g transform="matrix(1,0,0,1,0,32.0997)">
                    <g transform="matrix(0.876488,0.876488,-0.758773,0.758773,1310.86,-1870.26)">
                        <path d="M482.145,2102.07L477.446,2102.07C476.423,2102.07 475.593,2101.11 475.593,2099.93C475.593,2098.75 476.423,2097.79 477.446,2097.79L482.145,2097.79L482.145,2092.36C482.145,2091.18 482.976,2090.22 483.999,2090.22C485.022,2090.22 485.852,2091.18 485.852,2092.36L485.852,2097.79L490.551,2097.79C491.574,2097.79 492.405,2098.75 492.405,2099.93C492.405,2101.11 491.574,2102.07 490.551,2102.07L485.852,2102.07L485.852,2107.5C485.852,2108.68 485.022,2109.64 483.999,2109.64C482.976,2109.64 482.145,2108.68 482.145,2107.5L482.145,2102.07Z" style="fill:rgb(245,169,184);"/>
                    </g>
                    <g transform="matrix(0.876488,0.876488,-0.758773,0.758773,1326.95,-1870.26)">
                        <path d="M482.145,2102.07L477.446,2102.07C476.423,2102.07 475.593,2101.11 475.593,2099.93C475.593,2098.75 476.423,2097.79 477.446,2097.79L482.145,2097.79L482.145,2092.36C482.145,2091.18 482.976,2090.22 483.999,2090.22C485.022,2090.22 485.852,2091.18 485.852,2092.36L485.852,2097.79L490.551,2097.79C491.574,2097.79 492.405,2098.75 492.405,2099.93C492.405,2101.11 491.574,2102.07 490.551,2102.07L485.852,2102.07L485.852,2107.5C485.852,2108.68 485.022,2109.64 483.999,2109.64C482.976,2109.64 482.145,2108.68 482.145,2107.5L482.145,2102.07Z" style="fill:rgb(91,206,250);"/>
                    </g>
                    <g transform="matrix(0.876488,0.876488,-0.758773,0.758773,1343.04,-1870.26)">
                        <path d="M482.145,2102.07L477.446,2102.07C476.423,2102.07 475.593,2101.11 475.593,2099.93C475.593,2098.75 476.423,2097.79 477.446,2097.79L482.145,2097.79L482.145,2092.36C482.145,2091.18 482.976,2090.22 483.999,2090.22C485.022,2090.22 485.852,2091.18 485.852,2092.36L485.852,2097.79L490.551,2097.79C491.574,2097.79 492.405,2098.75 492.405,2099.93C492.405,2101.11 491.574,2102.07 490.551,2102.07L485.852,2102.07L485.852,2107.5C485.852,2108.68 485.022,2109.64 483.999,2109.64C482.976,2109.64 482.145,2108.68 482.145,2107.5L482.145,2102.07Z" style="fill:rgb(245,169,184);"/>
                    </g>
                    <g transform="matrix(0.876488,0.876488,-0.758773,0.758773,1359.13,-1870.26)">
                        <path d="M482.145,2102.07L477.446,2102.07C476.423,2102.07 475.593,2101.11 475.593,2099.93C475.593,2098.75 476.423,2097.79 477.446,2097.79L482.145,2097.79L482.145,2092.36C482.145,2091.18 482.976,2090.22 483.999,2090.22C485.022,2090.22 485.852,2091.18 485.852,2092.36L485.852,2097.79L490.551,2097.79C491.574,2097.79 492.405,2098.75 492.405,2099.93C492.405,2101.11 491.574,2102.07 490.551,2102.07L485.852,2102.07L485.852,2107.5C485.852,2108.68 485.022,2109.64 483.999,2109.64C482.976,2109.64 482.145,2108.68 482.145,2107.5L482.145,2102.07Z" style="fill:rgb(91,206,250);"/>
                    </g>
                    <g transform="matrix(0.876488,0.876488,-0.758773,0.758773,1375.22,-1870.16)">
                        <path d="M482.145,2102.07L477.446,2102.07C476.423,2102.07 475.593,2101.11 475.593,2099.93C475.593,2098.75 476.423,2097.79 477.446,2097.79L482.145,2097.79L482.145,2092.36C482.145,2091.18 482.976,2090.22 483.999,2090.22C485.022,2090.22 485.852,2091.18 485.852,2092.36L485.852,2097.79L490.551,2097.79C491.574,2097.79 492.405,2098.75 492.405,2099.93C492.405,2101.11 491.574,2102.07 490.551,2102.07L485.852,2102.07L485.852,2107.5C485.852,2108.68 485.022,2109.64 483.999,2109.64C482.976,2109.64 482.145,2108.68 482.145,2107.5L482.145,2102.07Z" style="fill:rgb(245,169,184);"/>
                    </g>
                </g>
                <g transform="matrix(1,0,0,1,0,48.1495)">
                    <g transform="matrix(0.876488,0.876488,-0.758773,0.758773,1310.86,-1870.26)">
                        <path d="M482.145,2102.07L477.446,2102.07C476.423,2102.07 475.593,2101.11 475.593,2099.93C475.593,2098.75 476.423,2097.79 477.446,2097.79L482.145,2097.79L482.145,2092.36C482.145,2091.18 482.976,2090.22 483.999,2090.22C485.022,2090.22 485.852,2091.18 485.852,2092.36L485.852,2097.79L490.551,2097.79C491.574,2097.79 492.405,2098.75 492.405,2099.93C492.405,2101.11 491.574,2102.07 490.551,2102.07L485.852,2102.07L485.852,2107.5C485.852,2108.68 485.022,2109.64 483.999,2109.64C482.976,2109.64 482.145,2108.68 482.145,2107.5L482.145,2102.07Z" style="fill:rgb(91,206,250);"/>
                    </g>
                    <g transform="matrix(0.876488,0.876488,-0.758773,0.758773,1326.95,-1870.26)">
                        <path d="M482.145,2102.07L477.446,2102.07C476.423,2102.07 475.593,2101.11 475.593,2099.93C475.593,2098.75 476.423,2097.79 477.446,2097.79L482.145,2097.79L482.145,2092.36C482.145,2091.18 482.976,2090.22 483.999,2090.22C485.022,2090.22 485.852,2091.18 485.852,2092.36L485.852,2097.79L490.551,2097.79C491.574,2097.79 492.405,2098.75 492.405,2099.93C492.405,2101.11 491.574,2102.07 490.551,2102.07L485.852,2102.07L485.852,2107.5C485.852,2108.68 485.022,2109.64 483.999,2109.64C482.976,2109.64 482.145,2108.68 482.145,2107.5L482.145,2102.07Z" style="fill:rgb(245,169,184);"/>
                    </g>
                    <g transform="matrix(0.876488,0.876488,-0.758773,0.758773,1343.04,-1870.26)">
                        <path d="M482.145,2102.07L477.446,2102.07C476.423,2102.07 475.593,2101.11 475.593,2099.93C475.593,2098.75 476.423,2097.79 477.446,2097.79L482.145,2097.79L482.145,2092.36C482.145,2091.18 482.976,2090.22 483.999,2090.22C485.022,2090.22 485.852,2091.18 485.852,2092.36L485.852,2097.79L490.551,2097.79C491.574,2097.79 492.405,2098.75 492.405,2099.93C492.405,2101.11 491.574,2102.07 490.551,2102.07L485.852,2102.07L485.852,2107.5C485.852,2108.68 485.022,2109.64 483.999,2109.64C482.976,2109.64 482.145,2108.68 482.145,2107.5L482.145,2102.07Z" style="fill:rgb(154,88,207);"/>
                    </g>
                    <g transform="matrix(0.876488,0.876488,-0.758773,0.758773,1359.13,-1870.26)">
                        <path d="M482.145,2102.07L477.446,2102.07C476.423,2102.07 475.593,2101.11 475.593,2099.93C475.593,2098.75 476.423,2097.79 477.446,2097.79L482.145,2097.79L482.145,2092.36C482.145,2091.18 482.976,2090.22 483.999,2090.22C485.022,2090.22 485.852,2091.18 485.852,2092.36L485.852,2097.79L490.551,2097.79C491.574,2097.79 492.405,2098.75 492.405,2099.93C492.405,2101.11 491.574,2102.07 490.551,2102.07L485.852,2102.07L485.852,2107.5C485.852,2108.68 485.022,2109.64 483.999,2109.64C482.976,2109.64 482.145,2108.68 482.145,2107.5L482.145,2102.07Z" style="fill:rgb(154,88,207);"/>
                    </g>
                    <g transform="matrix(0.876488,0.876488,-0.758773,0.758773,1375.22,-1870.16)">
                        <path d="M482.145,2102.07L477.446,2102.07C476.423,2102.07 475.593,2101.11 475.593,2099.93C475.593,2098.75 476.423,2097.79 477.446,2097.79L482.145,2097.79L482.145,2092.36C482.145,2091.18 482.976,2090.22 483.999,2090.22C485.022,2090.22 485.852,2091.18 485.852,2092.36L485.852,2097.79L490.551,2097.79C491.574,2097.79 492.405,2098.75 492.405,2099.93C492.405,2101.11 491.574,2102.07 490.551,2102.07L485.852,2102.07L485.852,2107.5C485.852,2108.68 485.022,2109.64 483.999,2109.64C482.976,2109.64 482.145,2108.68 482.145,2107.5L482.145,2102.07Z" style="fill:rgb(91,206,250);"/>
                    </g>
                </g>
                <g transform="matrix(1,0,0,1,0,64.1993)">
                    <g transform="matrix(0.876488,0.876488,-0.758773,0.758773,1310.86,-1870.26)">
                        <path d="M482.145,2102.07L477.446,2102.07C476.423,2102.07 475.593,2101.11 475.593,2099.93C475.593,2098.75 476.423,2097.79 477.446,2097.79L482.145,2097.79L482.145,2092.36C482.145,2091.18 482.976,2090.22 483.999,2090.22C485.022,2090.22 485.852,2091.18 485.852,2092.36L485.852,2097.79L490.551,2097.79C491.574,2097.79 492.405,2098.75 492.405,2099.93C492.405,2101.11 491.574,2102.07 490.551,2102.07L485.852,2102.07L485.852,2107.5C485.852,2108.68 485.022,2109.64 483.999,2109.64C482.976,2109.64 482.145,2108.68 482.145,2107.5L482.145,2102.07Z" style="fill:rgb(245,169,184);"/>
                    </g>
                    <g transform="matrix(0.876488,0.876488,-0.758773,0.758773,1326.95,-1870.26)">
                        <path d="M482.145,2102.07L477.446,2102.07C476.423,2102.07 475.593,2101.11 475.593,2099.93C475.593,2098.75 476.423,2097.79 477.446,2097.79L482.145,2097.79L482.145,2092.36C482.145,2091.18 482.976,2090.22 483.999,2090.22C485.022,2090.22 485.852,2091.18 485.852,2092.36L485.852,2097.79L490.551,2097.79C491.574,2097.79 492.405,2098.75 492.405,2099.93C492.405,2101.11 491.574,2102.07 490.551,2102.07L485.852,2102.07L485.852,2107.5C485.852,2108.68 485.022,2109.64 483.999,2109.64C482.976,2109.64 482.145,2108.68 482.145,2107.5L482.145,2102.07Z" style="fill:rgb(91,206,250);"/>
                    </g>
                    <g transform="matrix(0.876488,0.876488,-0.758773,0.758773,1343.04,-1870.26)">
                        <path d="M482.145,2102.07L477.446,2102.07C476.423,2102.07 475.593,2101.11 475.593,2099.93C475.593,2098.75 476.423,2097.79 477.446,2097.79L482.145,2097.79L482.145,2092.36C482.145,2091.18 482.976,2090.22 483.999,2090.22C485.022,2090.22 485.852,2091.18 485.852,2092.36L485.852,2097.79L490.551,2097.79C491.574,2097.79 492.405,2098.75 492.405,2099.93C492.405,2101.11 491.574,2102.07 490.551,2102.07L485.852,2102.07L485.852,2107.5C485.852,2108.68 485.022,2109.64 483.999,2109.64C482.976,2109.64 482.145,2108.68 482.145,2107.5L482.145,2102.07Z" style="fill:rgb(245,169,184);"/>
                    </g>
                    <g transform="matrix(0.876488,0.876488,-0.758773,0.758773,1359.13,-1870.26)">
                        <path d="M482.145,2102.07L477.446,2102.07C476.423,2102.07 475.593,2101.11 475.593,2099.93C475.593,2098.75 476.423,2097.79 477.446,2097.79L482.145,2097.79L482.145,2092.36C482.145,2091.18 482.976,2090.22 483.999,2090.22C485.022,2090.22 485.852,2091.18 485.852,2092.36L485.852,2097.79L490.551,2097.79C491.574,2097.79 492.405,2098.75 492.405,2099.93C492.405,2101.11 491.574,2102.07 490.551,2102.07L485.852,2102.07L485.852,2107.5C485.852,2108.68 485.022,2109.64 483.999,2109.64C482.976,2109.64 482.145,2108.68 482.145,2107.5L482.145,2102.07Z" style="fill:rgb(154,88,207);"/>
                    </g>
                    <g transform="matrix(0.876488,0.876488,-0.758773,0.758773,1375.22,-1870.16)">
                        <path d="M482.145,2102.07L477.446,2102.07C476.423,2102.07 475.593,2101.11 475.593,2099.93C475.593,2098.75 476.423,2097.79 477.446,2097.79L482.145,2097.79L482.145,2092.36C482.145,2091.18 482.976,2090.22 483.999,2090.22C485.022,2090.22 485.852,2091.18 485.852,2092.36L485.852,2097.79L490.551,2097.79C491.574,2097.79 492.405,2098.75 492.405,2099.93C492.405,2101.11 491.574,2102.07 490.551,2102.07L485.852,2102.07L485.852,2107.5C485.852,2108.68 485.022,2109.64 483.999,2109.64C482.976,2109.64 482.145,2108.68 482.145,2107.5L482.145,2102.07Z" style="fill:rgb(154,88,207);"/>
                    </g>
                </g>
            </g>
            <g id="Arm" transform="matrix(-1.18438,-0.237922,-0.274023,1.36409,220.048,-44.7415)">
                <path d="M126.361,195.324C131.632,207.227 133.182,217.035 130.643,222.887C128.104,228.739 123.003,235.183 111.72,230.967C100.281,226.693 85.917,212.804 90.545,203.32C94.217,195.795 104.937,195.209 112.743,200.468C118.04,204.037 116.287,208.38 119.358,207.391C121.378,206.74 121.255,196.139 126.361,195.324Z" style="fill:rgb(151,151,151);stroke:black;stroke-width:3.84px;stroke-linecap:round;"/>
            </g>
            <g id="Arm1" serif:id="Arm" transform="matrix(1.36409,-0.274023,0.274023,1.36409,-87.4597,-38.5624)">
                <path d="M126.361,195.324C137.518,197.031 136.207,211.795 130.643,222.887C127.783,228.589 123.003,235.183 111.72,230.967C100.281,226.693 85.917,212.804 90.545,203.32C94.217,195.795 104.937,195.209 112.743,200.468C118.04,204.037 116.287,208.38 119.358,207.391C121.378,206.74 121.255,196.139 126.361,195.324Z" style="fill:rgb(151,151,151);stroke:black;stroke-width:3.59px;stroke-linecap:round;"/>
            </g>
        </g>
    </g>
</svg>
