<?xml version="1.0" encoding="UTF-8" standalone="no"?>
<!DOCTYPE svg PUBLIC "-//W3C//DTD SVG 1.1//EN" "http://www.w3.org/Graphics/SVG/1.1/DTD/svg11.dtd">
<svg width="100%" height="100%" viewBox="0 0 256 257" version="1.1" xmlns="http://www.w3.org/2000/svg" xmlns:xlink="http://www.w3.org/1999/xlink" xml:space="preserve" xmlns:serif="http://www.serif.com/" style="fill-rule:evenodd;clip-rule:evenodd;stroke-linecap:round;stroke-linejoin:round;stroke-miterlimit:1.5;">
    <g transform="matrix(1,0,0,1,-1405,-1968)">
        <g id="blobbee_hat_tip" transform="matrix(1,0,0,1,1405,1968.95)">
            <rect x="0" y="0" width="256" height="256" style="fill:none;"/>
            <g transform="matrix(0.775015,-1.45068,1.78476,0.976067,-149.128,119.578)">
                <path d="M92.633,60.411C93.212,59.285 92.931,57.984 91.911,57.072C90.892,56.16 89.318,55.802 87.872,56.153C71.333,60.254 58.9,77.63 58.9,98.416C58.9,119.254 71.395,136.665 87.994,140.717C89.44,141.063 90.996,140.71 91.995,139.808C92.994,138.907 93.259,137.617 92.678,136.491C87.942,126.55 84.445,112.963 84.445,98.416C84.445,83.905 87.925,70.348 92.633,60.411Z" style="fill:none;stroke:black;stroke-width:5.43px;"/>
            </g>
            <g id="Bee" transform="matrix(1.00584,0,0,1.00584,-5.85498,5.69118)">
                <g id="Sting" transform="matrix(0.78314,0.139967,-0.135634,0.7589,67.2303,-21.11)">
                    <path d="M189.771,56.854L238.765,34.355L235.05,81.388" style="fill:rgb(104,104,104);stroke:black;stroke-width:12.69px;"/>
                </g>
                <g id="Body" transform="matrix(0.994109,-0.573949,0.761422,1.28301,-120.17,92.6047)">
                    <ellipse cx="168.926" cy="110.515" rx="107.942" ry="55.376" style="fill:rgb(104,104,104);stroke:black;stroke-width:7.43px;"/>
                </g>
                <g id="Wings-outline" serif:id="Wings outline" transform="matrix(0.959562,0.127262,-0.127262,0.959562,7.56883,-6.44254)">
                    <g transform="matrix(1.17688,-0.575088,0.651434,1.21399,-55.8934,35.953)">
                        <path d="M87.431,14.089C105.267,14.089 121.018,31.863 121.018,54.907C121.018,78.291 104.934,96.292 86.835,96.292C68.999,96.292 53.248,78.518 53.248,55.474C53.248,32.09 69.332,14.089 87.431,14.089ZM87.133,21.55C72.762,21.55 61.095,36.624 61.095,55.191C61.095,73.758 72.762,88.832 87.133,88.832C101.504,88.832 113.171,73.758 113.171,55.191C113.171,36.624 101.504,21.55 87.133,21.55Z"/>
                    </g>
                    <g transform="matrix(1.24343,0.685066,-0.776012,1.28263,74.2693,-72.8119)">
                        <path d="M86.84,14.693C104.648,14.693 120.412,32.46 120.412,55.468C120.412,78.144 104.978,95.689 87.426,95.689C69.618,95.689 53.854,77.921 53.854,54.913C53.854,32.237 69.288,14.693 86.84,14.693ZM87.133,21.55C72.762,21.55 61.095,36.624 61.095,55.191C61.095,73.758 72.762,88.832 87.133,88.832C101.504,88.832 113.171,73.758 113.171,55.191C113.171,36.624 101.504,21.55 87.133,21.55Z"/>
                    </g>
                </g>
                <g id="Stripes" transform="matrix(1,0,0,1,4.4273,10.012)">
                    <g transform="matrix(1,-7.43708e-18,-7.43708e-18,1,92.3462,-63.8411)">
                        <path d="M37.588,107.021C36.302,108.044 130.102,103.736 138.911,199.269C185.818,73.536 38.054,97.55 37.588,107.021Z" style="fill:rgb(254,194,7);stroke:black;stroke-width:2.98px;"/>
                    </g>
                    <g transform="matrix(1,-7.43708e-18,-7.43708e-18,1,73.4912,-52.6421)">
                        <path d="M157.766,189.064C152.141,96.884 58.714,94.709 59.225,91.972L24.408,104.867C24.408,104.867 137.219,103.115 141.236,211.738L154.889,190.72" style="fill:rgb(104,104,104);stroke:black;stroke-width:2.98px;"/>
                    </g>
                    <g transform="matrix(1,-7.43708e-18,-7.43708e-18,1,55.5726,-39.8214)">
                        <path d="M138.184,221.282L158.96,198.917C155.015,90.156 39.958,88.264 39.959,88.304L21.516,99.184C21.345,99.215 140.506,108.796 138.184,221.282Z" style="fill:rgb(254,194,7);stroke:black;stroke-width:2.98px;"/>
                    </g>
                    <g transform="matrix(1,-7.43708e-18,-7.43708e-18,1,25.9786,-19.0024)">
                        <path d="M52.67,78.448L32.777,93.969C32.777,93.969 147.14,105.355 145.924,216.369L167.401,201.973C175.368,91.857 51.46,79.379 49.702,80.764" style="fill:rgb(104,104,104);stroke:black;stroke-width:2.98px;"/>
                    </g>
                    <g transform="matrix(1,-7.43708e-18,-7.43708e-18,1,-0.424026,-0.546032)">
                        <path d="M54.907,77.629L39.992,93.485C39.992,93.485 145.269,94.435 147.67,208.921L172.327,197.913C176.533,83.454 58.325,78.845 54.907,77.629Z" style="fill:rgb(254,194,7);stroke:black;stroke-width:2.98px;"/>
                    </g>
                </g>
                <g id="Body-outline" serif:id="Body outline" transform="matrix(0.994109,-0.573949,0.761422,1.28301,-120.17,92.6047)">
                    <ellipse cx="168.926" cy="110.515" rx="107.942" ry="55.376" style="fill:none;stroke:black;stroke-width:7.43px;"/>
                </g>
                <g id="Wings" transform="matrix(0.959562,0.127262,-0.127262,0.959562,7.56883,-6.44254)">
                    <g id="Back-wing" serif:id="Back wing" transform="matrix(1.17688,-0.575088,0.651434,1.21399,-55.8934,35.953)">
                        <ellipse cx="87.133" cy="55.191" rx="26.038" ry="33.641" style="fill:rgb(195,195,195);stroke:black;stroke-width:2.25px;"/>
                    </g>
                    <g id="Front-wing" serif:id="Front wing" transform="matrix(0.946806,0,0,0.999012,5.86837,0.313874)">
                        <g id="Front-wing-main" serif:id="Front wing main" transform="matrix(1.31328,0.685743,-0.81961,1.2839,72.2439,-73.1981)">
                            <ellipse cx="87.133" cy="55.191" rx="26.038" ry="33.641" style="fill:rgb(195,195,195);stroke:black;stroke-width:2.15px;"/>
                        </g>
                        <path id="Front-wing-line" serif:id="Front wing line" d="M119.334,101.013C123.249,82.03 129.669,61.104 148.451,47.276" style="fill:none;stroke:black;stroke-width:3.17px;"/>
                    </g>
                </g>
                <g id="Face" transform="matrix(1,0,0,1,-3.8947,1.36785)">
                    <g id="Mouth" transform="matrix(0.658566,-1.17246e-18,-3.87825e-17,0.848272,3.90699,42.2986)">
                        <path d="M79.429,171.352L92.31,191.237L108.219,172.744L128,191.722L152.351,171.648" style="fill:none;stroke:black;stroke-width:14.4px;stroke-miterlimit:2;"/>
                        <path d="M79.429,171.352L92.31,191.237L108.219,172.744L128,191.722L152.351,171.648" style="fill:none;stroke:rgb(235,235,235);stroke-width:6.55px;"/>
                    </g>
                    <g id="Eyes" transform="matrix(0.856324,0.124954,-0.124954,0.856324,35.143,7.15355)">
                        <g id="Left-eye" serif:id="Left eye" transform="matrix(1.56791,-0.228787,0.215752,1.47858,-201.077,24.6337)">
                            <path d="M154.615,113.255C154.615,107.493 150.203,102.815 144.77,102.815C139.336,102.815 134.924,107.493 134.924,113.255L134.924,120.6C134.924,126.362 139.336,131.04 144.77,131.04C150.203,131.04 154.615,126.362 154.615,120.6L154.615,113.255Z" style="fill:rgb(235,235,235);stroke:black;stroke-width:2.24px;"/>
                        </g>
                        <g id="Right-eye" serif:id="Right eye" transform="matrix(0.639006,-0.0932429,0.104024,0.712889,-55.3816,101.917)">
                            <path d="M154.615,111.64C154.615,106.77 150.203,102.815 144.77,102.815C139.336,102.815 134.924,106.77 134.924,111.64L134.924,122.216C134.924,127.086 139.336,131.04 144.77,131.04C150.203,131.04 154.615,127.086 154.615,122.216L154.615,111.64Z"/>
                        </g>
                        <g id="Right-eye1" serif:id="Right eye" transform="matrix(0.776548,-0.286927,0.286927,0.776548,-43.4918,140.284)">
                            <path d="M139.15,75.147C139.15,75.147 147.255,93.107 169.433,83.396" style="fill:none;stroke:black;stroke-width:19.43px;stroke-miterlimit:2;"/>
                            <path d="M139.15,75.147C139.15,75.147 147.255,93.107 169.433,83.396" style="fill:none;stroke:rgb(235,235,235);stroke-width:11.1px;"/>
                        </g>
                    </g>
                </g>
            </g>
            <g id="Hat" transform="matrix(1.43102,0.628042,-0.666894,1.51954,-20.664,-147.804)">
                <g transform="matrix(0.0810613,-0.988185,1.29677,0.106375,-6.51352,178.654)">
                    <path d="M92.633,60.411C93.212,59.285 92.931,57.984 91.911,57.072C90.892,56.16 89.318,55.802 87.872,56.153C71.333,60.254 58.9,77.63 58.9,98.416C58.9,119.254 71.395,136.665 87.994,140.717C89.44,141.063 90.996,140.71 91.995,139.808C92.994,138.907 93.259,137.617 92.678,136.491C87.942,126.55 84.445,112.963 84.445,98.416C84.445,83.905 87.925,70.348 92.633,60.411Z" style="fill:rgb(98,70,12);stroke:black;stroke-width:1.63px;"/>
                </g>
                <g transform="matrix(0.0310958,-0.379075,0.511931,0.041994,74.7918,138.233)">
                    <path d="M93.515,58.617C93.919,57.877 93.77,57.019 93.126,56.384C92.483,55.749 91.45,55.44 90.439,55.581C72.642,58.479 58.9,76.563 58.9,98.416C58.9,120.304 72.686,138.411 90.533,141.227C91.521,141.362 92.519,141.063 93.136,140.448C93.752,139.833 93.89,139 93.494,138.274C88.378,128.192 84.445,113.843 84.445,98.416C84.445,83.012 88.366,68.683 93.515,58.617Z" style="fill:rgb(126,95,27);"/>
                </g>
                <path d="M103.352,104.98C103.352,104.98 104.39,98.024 107.548,92.703C110.583,87.587 112.366,82.366 117.91,82.67C121.829,82.886 122.511,83.527 124.766,85.869C127.021,88.211 126.971,90.627 129.688,90.675C132.405,90.724 133.955,89.209 134.712,87.799C135.469,86.389 137.702,85.488 140.22,85.586C142.738,85.683 144.606,87.707 146.189,89.463C147.773,91.219 150.527,101.464 150.205,109.808C148.674,109.945 127.861,115.055 103.352,104.98Z" style="fill:rgb(98,70,12);stroke:black;stroke-width:1.86px;"/>
                <g transform="matrix(0.753644,0,0,0.728345,30.0085,26.7164)">
                    <path d="M103.352,104.98C103.352,104.98 104.39,98.024 107.548,92.703C110.583,87.587 112.366,82.366 117.91,82.67C121.829,82.886 122.353,85.496 124.608,87.838C126.863,90.179 129.491,92.806 132.208,92.855C134.925,92.903 138.387,91.367 139.144,89.956C139.901,88.546 142.292,85.677 144.81,85.774C147.328,85.872 149.196,87.895 150.779,89.652C152.363,91.408 155.117,101.653 154.795,109.997C153.264,110.134 127.861,115.055 103.352,104.98Z" style="fill:rgb(126,95,27);"/>
                </g>
            </g>
            <g id="Arm" transform="matrix(-0.0482209,2.51353,2.01044,0.0385694,-254.524,-114.192)">
                <path d="M128.697,197.227C139.854,198.934 133.797,215.823 127.214,222.098C123.277,225.851 118.51,225.897 110.264,223.828C98.536,220.884 85.763,212.694 90.545,203.32C93.174,198.167 99.766,197.924 107.573,203.183C112.87,206.752 116.499,209.057 119.358,207.391C123.597,204.921 123.591,198.041 128.697,197.227Z" style="fill:rgb(151,151,151);stroke:black;stroke-width:2.2px;"/>
            </g>
        </g>
    </g>
</svg>
