<?xml version="1.0" encoding="UTF-8" standalone="no"?>
<!DOCTYPE svg PUBLIC "-//W3C//DTD SVG 1.1//EN" "http://www.w3.org/Graphics/SVG/1.1/DTD/svg11.dtd">
<svg width="100%" height="100%" viewBox="0 0 256 256" version="1.1" xmlns="http://www.w3.org/2000/svg" xmlns:xlink="http://www.w3.org/1999/xlink" xml:space="preserve" xmlns:serif="http://www.serif.com/" style="fill-rule:evenodd;clip-rule:evenodd;stroke-linecap:round;stroke-linejoin:round;stroke-miterlimit:1.5;">
    <g transform="matrix(1,0,0,1,-1967,-562)">
        <g id="blobbee_boop" transform="matrix(1,0,0,1,1967,562)">
            <rect x="0" y="0" width="256" height="256" style="fill:none;"/>
            <g transform="matrix(0.812462,-0.0649692,0.0649692,0.812462,-10.7408,69.1059)">
                <path d="M53.014,123.364C62.611,123.364 82.273,123.364 82.26,123.364C83.943,123.305 85.661,123.451 87.382,123.827L113.575,129.552C124.659,131.975 131.691,142.94 129.268,154.024C126.845,165.108 115.88,172.139 104.796,169.717L89.592,166.394C93.401,172.027 94.11,179.51 90.796,185.986C85.951,195.454 74.331,199.208 64.863,194.363L29.724,176.382C26.548,174.757 24.017,172.369 22.239,169.565L18.011,164.019L6.706,152.715C1.915,147.923 1.915,140.155 6.706,135.364L27.184,114.886C31.976,110.094 39.744,110.094 44.535,114.886L53.014,123.364ZM64.147,164.486C64.149,164.486 64.151,164.485 64.153,164.485L64.146,164.485L63.197,164C62.613,162.624 60.854,158.536 58.966,154.669C60.062,153.187 61.822,152.226 63.805,152.226C63.999,152.226 64.191,152.235 64.379,152.253L64.392,152.226L82.23,152.226L107.416,157.731C111.884,158.707 116.305,155.872 117.282,151.404C118.259,146.936 115.424,142.515 110.955,141.538L84.762,135.813C84.014,135.65 83.267,135.593 82.537,135.633L47.867,135.633L47.899,135.601L41.645,129.346C40.762,127.343 39.911,126.24 39.224,126.925L35.86,123.561L15.382,144.039L27.269,155.926L32.394,162.649C33.045,163.815 34.036,164.807 35.313,165.46L70.452,183.441C73.892,185.201 78.114,183.837 79.874,180.397C81.634,176.957 80.27,172.736 76.83,170.975L64.147,164.486Z"/>
            </g>
            <g id="Bee" transform="matrix(0.896875,0,0,0.896875,25.0011,26.448)">
                <g id="Sting" transform="matrix(0.78314,0.139967,-0.135634,0.7589,67.2303,-21.11)">
                    <path d="M189.771,56.854L238.765,34.355L235.05,81.388" style="fill:rgb(104,104,104);stroke:black;stroke-width:14.23px;"/>
                </g>
                <g id="Body" transform="matrix(0.994109,-0.573949,0.761422,1.28301,-120.17,92.6047)">
                    <ellipse cx="168.926" cy="110.515" rx="107.942" ry="55.376" style="fill:rgb(104,104,104);stroke:black;stroke-width:8.33px;"/>
                </g>
                <g id="Wings-outline" serif:id="Wings outline" transform="matrix(0.959562,0.127262,-0.127262,0.959562,7.56883,-6.44254)">
                    <g transform="matrix(1.17688,-0.575088,0.651434,1.21399,-55.8934,35.953)">
                        <path d="M87.467,13.183C105.725,13.183 121.971,31.284 121.971,54.873C121.971,78.843 105.352,97.198 86.799,97.198C68.541,97.198 52.294,79.098 52.294,55.508C52.294,31.538 68.914,13.183 87.467,13.183ZM87.133,21.55C72.762,21.55 61.095,36.624 61.095,55.191C61.095,73.758 72.762,88.832 87.133,88.832C101.504,88.832 113.171,73.758 113.171,55.191C113.171,36.624 101.504,21.55 87.133,21.55Z"/>
                    </g>
                    <g transform="matrix(1.24343,0.685066,-0.776012,1.28263,74.2693,-72.8119)">
                        <path d="M86.804,13.859C105.031,13.859 121.292,31.953 121.292,55.502C121.292,78.678 105.4,96.522 87.462,96.522C69.235,96.522 52.974,78.428 52.974,54.879C52.974,31.703 68.866,13.859 86.804,13.859ZM87.133,21.55C72.762,21.55 61.095,36.624 61.095,55.191C61.095,73.758 72.762,88.832 87.133,88.832C101.504,88.832 113.171,73.758 113.171,55.191C113.171,36.624 101.504,21.55 87.133,21.55Z"/>
                    </g>
                </g>
                <g id="Stripes" transform="matrix(1,0,0,1,4.4273,10.012)">
                    <g transform="matrix(1,-7.43708e-18,-7.43708e-18,1,92.3462,-63.8411)">
                        <path d="M37.588,107.021C36.302,108.044 130.102,103.736 138.911,199.269C185.818,73.536 38.054,97.55 37.588,107.021Z" style="fill:rgb(254,194,7);stroke:black;stroke-width:3.34px;"/>
                    </g>
                    <g transform="matrix(1,-7.43708e-18,-7.43708e-18,1,73.4912,-52.6421)">
                        <path d="M157.766,189.064C152.141,96.884 58.714,94.709 59.225,91.972L24.408,104.867C24.408,104.867 137.219,103.115 141.236,211.738L154.889,190.72" style="fill:rgb(104,104,104);stroke:black;stroke-width:3.34px;"/>
                    </g>
                    <g transform="matrix(1,-7.43708e-18,-7.43708e-18,1,55.5726,-39.8214)">
                        <path d="M138.184,221.282L158.96,198.917C155.015,90.156 39.958,88.264 39.959,88.304L21.516,99.184C21.345,99.215 140.506,108.796 138.184,221.282Z" style="fill:rgb(254,194,7);stroke:black;stroke-width:3.34px;"/>
                    </g>
                    <g transform="matrix(1,-7.43708e-18,-7.43708e-18,1,25.9786,-19.0024)">
                        <path d="M52.67,78.448L32.777,93.969C32.777,93.969 147.14,105.355 145.924,216.369L167.401,201.973C175.368,91.857 51.46,79.379 49.702,80.764" style="fill:rgb(104,104,104);stroke:black;stroke-width:3.34px;"/>
                    </g>
                    <g transform="matrix(1,-7.43708e-18,-7.43708e-18,1,-0.424026,-0.546032)">
                        <path d="M54.907,77.629L39.992,93.485C39.992,93.485 145.269,94.435 147.67,208.921L172.327,197.913C176.533,83.454 58.325,78.845 54.907,77.629Z" style="fill:rgb(254,194,7);stroke:black;stroke-width:3.34px;"/>
                    </g>
                </g>
                <g id="Body-outline" serif:id="Body outline" transform="matrix(0.994109,-0.573949,0.761422,1.28301,-120.17,92.6047)">
                    <ellipse cx="168.926" cy="110.515" rx="107.942" ry="55.376" style="fill:none;stroke:black;stroke-width:8.33px;"/>
                </g>
                <g id="Wings" transform="matrix(0.959562,0.127262,-0.127262,0.959562,7.56883,-6.44254)">
                    <g id="Back-wing" serif:id="Back wing" transform="matrix(1.17688,-0.575088,0.651434,1.21399,-55.8934,35.953)">
                        <ellipse cx="87.133" cy="55.191" rx="26.038" ry="33.641" style="fill:rgb(195,195,195);stroke:black;stroke-width:2.52px;"/>
                    </g>
                    <g id="Front-wing" serif:id="Front wing" transform="matrix(0.946806,0,0,0.999012,5.86837,0.313874)">
                        <g id="Front-wing-main" serif:id="Front wing main" transform="matrix(1.31328,0.685743,-0.81961,1.2839,72.2439,-73.1981)">
                            <ellipse cx="87.133" cy="55.191" rx="26.038" ry="33.641" style="fill:rgb(195,195,195);stroke:black;stroke-width:2.42px;"/>
                        </g>
                        <path id="Front-wing-line" serif:id="Front wing line" d="M119.334,101.013C123.249,82.03 129.669,61.104 148.451,47.276" style="fill:none;stroke:black;stroke-width:3.55px;"/>
                    </g>
                </g>
                <g id="Face" transform="matrix(1,0,0,1,-3.8947,1.36785)">
                    <g id="Mouth" transform="matrix(0.658566,-1.17246e-18,-3.87825e-17,0.848272,3.90699,42.2986)">
                        <path d="M79.429,171.352L92.31,191.237L108.219,172.744L128,191.722L152.351,171.648" style="fill:none;stroke:black;stroke-width:16.15px;stroke-miterlimit:2;"/>
                        <path d="M79.429,171.352L92.31,191.237L108.219,172.744L128,191.722L152.351,171.648" style="fill:none;stroke:rgb(235,235,235);stroke-width:7.34px;"/>
                    </g>
                    <g id="Eyes" transform="matrix(0.856324,0.124954,-0.124954,0.856324,35.143,7.15355)">
                        <g id="Right-eye" serif:id="Right eye" transform="matrix(1.56791,-0.228787,0.215752,1.47858,-150.38,17.2361)">
                            <path d="M154.615,113.255C154.615,107.493 150.203,102.815 144.77,102.815C139.336,102.815 134.924,107.493 134.924,113.255L134.924,120.6C134.924,126.362 139.336,131.04 144.77,131.04C150.203,131.04 154.615,126.362 154.615,120.6L154.615,113.255Z" style="fill:rgb(235,235,235);stroke:black;stroke-width:2.51px;"/>
                        </g>
                        <g id="Right-eye1" serif:id="Right eye" transform="matrix(0.639006,-0.0932429,0.104024,0.712889,-4.68472,94.5194)">
                            <path d="M154.615,111.64C154.615,106.77 150.203,102.815 144.77,102.815C139.336,102.815 134.924,106.77 134.924,111.64L134.924,122.216C134.924,127.086 139.336,131.04 144.77,131.04C150.203,131.04 154.615,127.086 154.615,122.216L154.615,111.64Z"/>
                        </g>
                        <g id="Left-eye" serif:id="Left eye" transform="matrix(1.56791,-0.228787,0.215752,1.47858,-201.077,24.6337)">
                            <path d="M154.615,113.255C154.615,107.493 150.203,102.815 144.77,102.815C139.336,102.815 134.924,107.493 134.924,113.255L134.924,120.6C134.924,126.362 139.336,131.04 144.77,131.04C150.203,131.04 154.615,126.362 154.615,120.6L154.615,113.255Z" style="fill:rgb(235,235,235);stroke:black;stroke-width:2.51px;"/>
                        </g>
                        <g id="Right-eye2" serif:id="Right eye" transform="matrix(0.639006,-0.0932429,0.104024,0.712889,-55.3816,101.917)">
                            <path d="M154.615,111.64C154.615,106.77 150.203,102.815 144.77,102.815C139.336,102.815 134.924,106.77 134.924,111.64L134.924,122.216C134.924,127.086 139.336,131.04 144.77,131.04C150.203,131.04 154.615,127.086 154.615,122.216L154.615,111.64Z"/>
                        </g>
                    </g>
                </g>
            </g>
            <g id="Hand" transform="matrix(0.812462,-0.0649692,0.0649692,0.812462,-62.9446,45.8573)">
                <g transform="matrix(0.898622,0,0,1.13715,67.4169,8.66151)">
                    <path d="M83.942,156.67C83.942,152.992 80.163,150.006 75.509,150.006L64.411,150.006C59.758,150.006 55.979,152.992 55.979,156.67L55.979,161.474C55.979,165.152 59.758,168.138 64.411,168.138L75.509,168.138C80.163,168.138 83.942,165.152 83.942,161.474L83.942,156.67Z" style="fill:rgb(185,185,185);stroke:black;stroke-width:3.59px;"/>
                </g>
                <g transform="matrix(1,0,0,1,61.5718,33.5387)">
                    <path d="M82.23,152.226L64.392,152.226L64.379,152.253C64.191,152.235 63.999,152.226 63.805,152.226C60.485,152.226 57.789,154.922 57.789,158.242C57.789,159.594 58.236,160.842 58.99,161.847L76.83,170.975C80.27,172.736 81.634,176.957 79.874,180.397C78.114,183.837 73.892,185.201 70.452,183.441L35.313,165.46C34.036,164.807 33.045,163.815 32.394,162.649L27.269,155.926L15.382,144.039L35.86,123.561L47.899,135.601L47.867,135.633L82.537,135.633C83.267,135.593 84.014,135.65 84.762,135.813L110.955,141.538C115.424,142.515 118.259,146.936 117.282,151.404C116.305,155.872 111.884,158.707 107.416,157.731L82.23,152.226Z" style="fill:rgb(238,238,238);stroke:black;stroke-width:3.68px;"/>
                </g>
            </g>
        </g>
    </g>
</svg>
