<?xml version="1.0" encoding="UTF-8" standalone="no"?>
<!DOCTYPE svg PUBLIC "-//W3C//DTD SVG 1.1//EN" "http://www.w3.org/Graphics/SVG/1.1/DTD/svg11.dtd">
<svg width="100%" height="100%" viewBox="0 0 256 256" version="1.1" xmlns="http://www.w3.org/2000/svg" xmlns:xlink="http://www.w3.org/1999/xlink" xml:space="preserve" xmlns:serif="http://www.serif.com/" style="fill-rule:evenodd;clip-rule:evenodd;stroke-linecap:round;stroke-linejoin:round;stroke-miterlimit:1.5;">
    <g transform="matrix(1,0,0,1,-1967,-843)">
        <g id="blobbee_knife" transform="matrix(1,0,0,1,1967,843)">
            <rect x="0" y="0" width="256" height="256" style="fill:none;"/>
            <g id="Knife-outline" serif:id="Knife outline" transform="matrix(-0.554407,-0.93633,-0.93633,0.554407,309.913,273.787)">
                <path d="M192.455,137.825C187.803,138.53 184.387,142.676 184.666,147.447C184.847,150.531 190.291,184.141 190.291,184.141C190.483,185.316 190.902,186.443 191.523,187.458C191.523,187.458 193.367,190.909 197.99,192.865C201.105,194.183 206.052,195.276 213.129,191.753C216.26,190.195 260.406,173.013 291.616,153.931C306.512,144.824 318.458,134.974 323.322,126.268C325.027,123.216 324.852,119.461 322.871,116.58C320.891,113.699 317.447,112.191 313.986,112.691L204.385,128.508C201.954,128.859 199.764,130.169 198.305,132.146L192.455,137.825ZM315.299,121.786C300.875,147.604 213.467,181.32 209.035,183.526C202.026,187.014 199.361,182.66 199.361,182.66C199.361,182.66 194.016,149.916 193.841,146.91C199.132,146.497 205.698,137.604 205.698,137.604L315.299,121.786Z"/>
            </g>
            <g id="Bee" transform="matrix(0.887478,0,0,0.887478,40.7668,14.7556)">
                <clipPath id="_clip1">
                    <path d="M211.459,180.054L211.81,292.616L-149.134,300.059L-149.079,-101.624L191.49,-98.989L191.49,45.116C226.297,46.697 254.291,135.553 211.459,180.054"/>
                </clipPath>
                <g clip-path="url(#_clip1)">
                    <g id="Sting" transform="matrix(0.78314,0.139967,-0.135634,0.7589,67.2303,-21.11)">
                        <path d="M189.771,56.854L238.765,34.355L235.05,81.388" style="fill:rgb(104,104,104);stroke:black;stroke-width:14.38px;"/>
                    </g>
                    <g id="Body" transform="matrix(0.994109,-0.573949,0.761422,1.28301,-120.17,92.6047)">
                        <ellipse cx="168.926" cy="110.515" rx="107.942" ry="55.376" style="fill:rgb(104,104,104);stroke:black;stroke-width:8.42px;"/>
                    </g>
                    <g id="Wings-outline" serif:id="Wings outline" transform="matrix(0.959562,0.127262,-0.127262,0.959562,7.56883,-6.44254)">
                        <g transform="matrix(1.17688,-0.575088,0.651434,1.21399,-55.8934,35.953)">
                            <path d="M87.471,13.094C105.77,13.094 122.065,31.227 122.065,54.87C122.065,78.897 105.392,97.287 86.795,97.287C68.496,97.287 52.201,79.154 52.201,55.512C52.201,31.484 68.873,13.094 87.471,13.094ZM87.133,21.55C72.762,21.55 61.095,36.624 61.095,55.191C61.095,73.758 72.762,88.832 87.133,88.832C101.504,88.832 113.171,73.758 113.171,55.191C113.171,36.624 101.504,21.55 87.133,21.55Z"/>
                        </g>
                        <g transform="matrix(1.24343,0.685066,-0.776012,1.28263,74.2693,-72.8119)">
                            <path d="M86.8,13.778C105.069,13.778 121.378,31.903 121.378,55.505C121.378,78.73 105.442,96.603 87.465,96.603C69.197,96.603 52.888,78.478 52.888,54.876C52.888,31.651 68.824,13.778 86.8,13.778ZM87.133,21.55C72.762,21.55 61.095,36.624 61.095,55.191C61.095,73.758 72.762,88.832 87.133,88.832C101.504,88.832 113.171,73.758 113.171,55.191C113.171,36.624 101.504,21.55 87.133,21.55Z"/>
                        </g>
                    </g>
                    <g id="Stripes" transform="matrix(1,0,0,1,4.4273,10.012)">
                        <g transform="matrix(1,-7.43708e-18,-7.43708e-18,1,92.3462,-63.8411)">
                            <path d="M37.588,107.021C36.302,108.044 130.102,103.736 138.911,199.269C185.818,73.536 38.054,97.55 37.588,107.021Z" style="fill:rgb(254,194,7);stroke:black;stroke-width:3.38px;"/>
                        </g>
                        <g transform="matrix(1,-7.43708e-18,-7.43708e-18,1,73.4912,-52.6421)">
                            <path d="M157.766,189.064C152.141,96.884 58.714,94.709 59.225,91.972L24.408,104.867C24.408,104.867 137.219,103.115 141.236,211.738L154.889,190.72" style="fill:rgb(104,104,104);stroke:black;stroke-width:3.38px;"/>
                        </g>
                        <g transform="matrix(1,-7.43708e-18,-7.43708e-18,1,55.5726,-39.8214)">
                            <path d="M138.184,221.282L158.96,198.917C155.015,90.156 39.958,88.264 39.959,88.304L21.516,99.184C21.345,99.215 140.506,108.796 138.184,221.282Z" style="fill:rgb(254,194,7);stroke:black;stroke-width:3.38px;"/>
                        </g>
                        <g transform="matrix(1,-7.43708e-18,-7.43708e-18,1,25.9786,-19.0024)">
                            <path d="M52.67,78.448L32.777,93.969C32.777,93.969 147.14,105.355 145.924,216.369L167.401,201.973C175.368,91.857 51.46,79.379 49.702,80.764" style="fill:rgb(104,104,104);stroke:black;stroke-width:3.38px;"/>
                        </g>
                        <g transform="matrix(1,-7.43708e-18,-7.43708e-18,1,-0.424026,-0.546032)">
                            <path d="M54.907,77.629L39.992,93.485C39.992,93.485 145.269,94.435 147.67,208.921L172.327,197.913C176.533,83.454 58.325,78.845 54.907,77.629Z" style="fill:rgb(254,194,7);stroke:black;stroke-width:3.38px;"/>
                        </g>
                    </g>
                    <g id="Body-outline" serif:id="Body outline" transform="matrix(0.994109,-0.573949,0.761422,1.28301,-120.17,92.6047)">
                        <ellipse cx="168.926" cy="110.515" rx="107.942" ry="55.376" style="fill:none;stroke:black;stroke-width:8.42px;"/>
                    </g>
                    <g id="Wings" transform="matrix(0.959562,0.127262,-0.127262,0.959562,7.56883,-6.44254)">
                        <g id="Back-wing" serif:id="Back wing" transform="matrix(1.17688,-0.575088,0.651434,1.21399,-55.8934,35.953)">
                            <ellipse cx="87.133" cy="55.191" rx="26.038" ry="33.641" style="fill:rgb(195,195,195);stroke:black;stroke-width:2.55px;"/>
                        </g>
                        <g id="Front-wing" serif:id="Front wing" transform="matrix(0.946806,0,0,0.999012,5.86837,0.313874)">
                            <g id="Front-wing-main" serif:id="Front wing main" transform="matrix(1.31328,0.685743,-0.81961,1.2839,72.2439,-73.1981)">
                                <ellipse cx="87.133" cy="55.191" rx="26.038" ry="33.641" style="fill:rgb(195,195,195);stroke:black;stroke-width:2.44px;"/>
                            </g>
                            <path id="Front-wing-line" serif:id="Front wing line" d="M119.334,101.013C123.249,82.03 129.669,61.104 148.451,47.276" style="fill:none;stroke:black;stroke-width:3.59px;"/>
                        </g>
                    </g>
                    <g id="Face" transform="matrix(1,0,0,1,-3.8947,1.36785)">
                        <g id="Mouth" transform="matrix(0.658566,-1.17246e-18,-3.87825e-17,0.848272,3.90699,42.2986)">
                            <path d="M79.429,171.352L92.31,191.237L108.219,172.744L128,191.722L152.351,171.648" style="fill:none;stroke:black;stroke-width:16.32px;stroke-miterlimit:2;"/>
                            <path d="M79.429,171.352L92.31,191.237L108.219,172.744L128,191.722L152.351,171.648" style="fill:none;stroke:rgb(235,235,235);stroke-width:7.42px;"/>
                        </g>
                        <g id="Eyes" transform="matrix(0.856324,0.124954,-0.124954,0.856324,35.143,7.15355)">
                            <g id="Right-eye" serif:id="Right eye" transform="matrix(1.28841,-0.188003,0.188003,1.28841,-684.786,-1541.6)">
                                <path d="M397.461,1379.19L420.461,1369.19C421.08,1370.63 421.423,1372.23 421.423,1373.9L421.423,1382.33C421.423,1388.94 416.055,1394.31 409.442,1394.31C402.83,1394.31 397.461,1388.94 397.461,1382.33L397.461,1379.19Z" style="fill:rgb(235,235,235);stroke:black;stroke-width:3px;"/>
                            </g>
                            <g id="Right-eye1" serif:id="Right eye" transform="matrix(0.639006,-0.0932429,0.104024,0.712889,-4.68472,94.5194)">
                                <path d="M154.615,111.64C154.615,106.77 150.203,102.815 144.77,102.815C139.336,102.815 134.924,106.77 134.924,111.64L134.924,122.216C134.924,127.086 139.336,131.04 144.77,131.04C150.203,131.04 154.615,127.086 154.615,122.216L154.615,111.64Z"/>
                            </g>
                            <g id="Left-eye" serif:id="Left eye" transform="matrix(1.28841,-0.188003,0.188003,1.28841,-684.786,-1541.6)">
                                <path d="M359.087,1369.16L382.075,1379.16L382.075,1382.33C382.075,1388.94 376.706,1394.31 370.094,1394.31C363.482,1394.31 358.113,1388.94 358.113,1382.33L358.113,1373.9C358.113,1372.22 358.46,1370.61 359.087,1369.16Z" style="fill:rgb(235,235,235);stroke:black;stroke-width:3px;"/>
                            </g>
                            <g id="Left-eye1" serif:id="Left eye" transform="matrix(0.639006,-0.0932429,0.104024,0.712889,-55.3816,101.917)">
                                <path d="M154.615,111.64C154.615,106.77 150.203,102.815 144.77,102.815C139.336,102.815 134.924,106.77 134.924,111.64L134.924,122.216C134.924,127.086 139.336,131.04 144.77,131.04C150.203,131.04 154.615,127.086 154.615,122.216L154.615,111.64Z"/>
                            </g>
                        </g>
                    </g>
                </g>
            </g>
            <g id="Body-stroke" serif:id="Body stroke" transform="matrix(1.30224,0,0,1.30224,-492.209,-1826.32)">
                <path d="M537.043,1444.11C560.795,1446.95 580.23,1507.87 550.251,1539.35" style="fill:none;stroke:black;stroke-width:2.3px;"/>
            </g>
            <g id="Body-stroke1" serif:id="Body stroke" transform="matrix(1.30224,0,0,1.30224,-492.209,-1826.32)">
                <path d="M539.2,1444.11C562.952,1446.95 580.23,1507.87 550.251,1539.35" style="fill:none;stroke:black;stroke-width:7.68px;"/>
            </g>
            <g id="Sting1" serif:id="Sting" transform="matrix(0.526379,0.0827424,-0.0801813,0.510086,123.768,15.8076)">
                <path d="M191.017,52.697L238.765,34.355L230.765,91.133" style="fill:rgb(104,104,104);stroke:black;stroke-width:19.06px;"/>
            </g>
            <g id="Knife" transform="matrix(1.26149,0.323192,-0.323192,1.26149,17.1799,-78.175)">
                <g id="Knife-blade" serif:id="Knife blade" transform="matrix(-0.590862,-0.590862,-0.590862,0.590862,284.837,206.03)">
                    <path d="M315.299,121.786L205.698,137.604C205.698,137.604 199.132,146.497 193.841,146.91C194.016,149.916 199.361,182.66 199.361,182.66C199.361,182.66 202.026,187.014 209.035,183.526C213.467,181.32 300.875,147.604 315.299,121.786Z" style="fill:rgb(185,185,185);"/>
                    <path d="M196.198,184.533C196.207,184.549 196.217,184.564 196.226,184.579C196.226,184.579 197.364,186.613 200.138,187.787C202.309,188.705 205.74,189.272 210.672,186.817C213.786,185.267 257.701,168.204 288.74,149.227C302.65,140.723 313.966,131.708 318.508,123.579C319.19,122.358 319.12,120.856 318.328,119.704C317.536,118.551 316.158,117.948 314.774,118.148L205.173,133.966C204.2,134.106 203.324,134.63 202.741,135.42C202.741,135.42 200.613,138.302 197.882,140.688C196.494,141.9 195.007,143.132 193.555,143.245C191.558,143.401 190.054,145.126 190.171,147.125C190.349,150.162 195.733,183.252 195.733,183.252C195.807,183.705 195.965,184.139 196.198,184.533ZM315.299,121.786C300.875,147.604 213.467,181.32 209.035,183.526C202.026,187.014 199.361,182.66 199.361,182.66C199.361,182.66 194.016,149.916 193.841,146.91C199.132,146.497 205.698,137.604 205.698,137.604L315.299,121.786Z"/>
                </g>
                <g id="Knife-handle" serif:id="Knife handle" transform="matrix(-0.656163,-0.754619,-0.754619,0.656163,317.333,211.494)">
                    <path d="M187.708,146.437C187.708,146.437 189.448,144.973 174.876,148.244C169.427,149.467 165.223,145.184 162.919,143.133C161.07,143.002 128.606,147.656 128.606,147.656C128.606,147.656 119.147,151.31 122.958,158.206C126.768,165.102 129.722,169.641 136.138,169.672C139.548,169.688 144.131,168.197 146.675,166.304C149.22,164.411 158.111,163.064 162.871,163.132C167.632,163.201 176.966,165.635 181.337,165.372C188.167,164.962 188.032,162.534 188.032,162.534L187.708,146.437Z" style="fill:rgb(31,30,30);stroke:black;stroke-width:3.07px;"/>
                </g>
                <g transform="matrix(-0.711943,-0.818769,-0.789761,0.68672,330.488,215.044)">
                    <circle cx="137.898" cy="158.284" r="4.849" style="fill:rgb(81,83,85);"/>
                </g>
                <g transform="matrix(-0.711943,-0.818769,-0.789761,0.68672,318.619,196.621)">
                    <circle cx="137.898" cy="158.284" r="4.849" style="fill:rgb(81,83,85);"/>
                </g>
            </g>
            <g id="Arm" transform="matrix(2.12628,-0.427135,0.356842,1.77636,-192.815,-106.58)">
                <path d="M128.697,197.227C139.854,198.934 133.797,215.823 127.214,222.098C123.277,225.851 118.51,225.897 110.264,223.828C98.536,220.884 85.763,212.694 90.545,203.32C93.174,198.167 99.766,197.924 107.573,203.183C112.87,206.752 116.499,209.057 119.358,207.391C123.597,204.921 123.591,198.041 128.697,197.227Z" style="fill:rgb(151,151,151);stroke:black;stroke-width:2.5px;"/>
            </g>
        </g>
    </g>
</svg>
