<?xml version="1.0" encoding="UTF-8" standalone="no"?>
<!DOCTYPE svg PUBLIC "-//W3C//DTD SVG 1.1//EN" "http://www.w3.org/Graphics/SVG/1.1/DTD/svg11.dtd">
<svg width="100%" height="100%" viewBox="0 0 256 256" version="1.1" xmlns="http://www.w3.org/2000/svg" xmlns:xlink="http://www.w3.org/1999/xlink" xml:space="preserve" xmlns:serif="http://www.serif.com/" style="fill-rule:evenodd;clip-rule:evenodd;stroke-linecap:round;stroke-linejoin:round;stroke-miterlimit:1.5;">
    <g transform="matrix(1,0,0,1,-1,-281)">
        <g id="blobbee_pan" transform="matrix(1,0,0,1,0,281)">
            <rect x="0" y="0" width="256" height="256" style="fill:none;"/>
            <g id="Sting" transform="matrix(0.78314,0.139967,-0.135634,0.7589,67.2303,-21.11)">
                <path d="M189.771,56.854L238.765,34.355L235.05,81.388" style="fill:rgb(104,104,104);stroke:black;stroke-width:12.77px;"/>
            </g>
            <g id="Body" transform="matrix(0.994109,-0.573949,0.761422,1.28301,-120.17,92.6047)">
                <ellipse cx="168.926" cy="110.515" rx="107.942" ry="55.376" style="fill:rgb(104,104,104);stroke:black;stroke-width:7.47px;"/>
            </g>
            <g id="Face" transform="matrix(1,0,0,1,-3.8947,1.36785)">
                <g id="Mouth" transform="matrix(0.658566,-1.17246e-18,-3.87825e-17,0.848272,3.90699,42.2986)">
                    <path d="M79.429,171.352L92.31,191.237L108.219,172.744L128,191.722L152.351,171.648" style="fill:none;stroke:black;stroke-width:14.49px;stroke-miterlimit:2;"/>
                    <path d="M79.429,171.352L92.31,191.237L108.219,172.744L128,191.722L152.351,171.648" style="fill:none;stroke:rgb(235,235,235);stroke-width:6.58px;"/>
                </g>
                <g id="Eyes" transform="matrix(0.856324,0.124954,-0.124954,0.856324,35.143,7.15355)">
                    <g id="Right-eye" serif:id="Right eye" transform="matrix(1.56791,-0.228787,0.215752,1.47858,-150.38,17.2361)">
                        <path d="M154.615,113.255C154.615,107.493 150.203,102.815 144.77,102.815C139.336,102.815 134.924,107.493 134.924,113.255L134.924,120.6C134.924,126.362 139.336,131.04 144.77,131.04C150.203,131.04 154.615,126.362 154.615,120.6L154.615,113.255Z" style="fill:rgb(235,235,235);stroke:black;stroke-width:2.25px;"/>
                    </g>
                    <g id="Right-eye1" serif:id="Right eye" transform="matrix(0.639006,-0.0932429,0.104024,0.712889,-4.68472,94.5194)">
                        <path d="M154.615,111.64C154.615,106.77 150.203,102.815 144.77,102.815C139.336,102.815 134.924,106.77 134.924,111.64L134.924,122.216C134.924,127.086 139.336,131.04 144.77,131.04C150.203,131.04 154.615,127.086 154.615,122.216L154.615,111.64Z"/>
                    </g>
                    <g id="Left-eye" serif:id="Left eye" transform="matrix(1.56791,-0.228787,0.215752,1.47858,-201.077,24.6337)">
                        <path d="M154.615,113.255C154.615,107.493 150.203,102.815 144.77,102.815C139.336,102.815 134.924,107.493 134.924,113.255L134.924,120.6C134.924,126.362 139.336,131.04 144.77,131.04C150.203,131.04 154.615,126.362 154.615,120.6L154.615,113.255Z" style="fill:rgb(235,235,235);stroke:black;stroke-width:2.25px;"/>
                    </g>
                    <g id="Right-eye2" serif:id="Right eye" transform="matrix(0.639006,-0.0932429,0.104024,0.712889,-55.3816,101.917)">
                        <path d="M154.615,111.64C154.615,106.77 150.203,102.815 144.77,102.815C139.336,102.815 134.924,106.77 134.924,111.64L134.924,122.216C134.924,127.086 139.336,131.04 144.77,131.04C150.203,131.04 154.615,127.086 154.615,122.216L154.615,111.64Z"/>
                    </g>
                </g>
            </g>
            <g id="Wings-outline" serif:id="Wings outline" transform="matrix(0.959562,0.127262,-0.127262,0.959562,7.56883,-6.44254)">
                <g transform="matrix(1.17688,-0.575088,0.651434,1.21399,-55.8934,35.953)">
                    <path d="M87.433,14.046C105.289,14.046 121.064,31.835 121.064,54.906C121.064,78.317 104.954,96.336 86.833,96.336C68.977,96.336 53.202,78.546 53.202,55.475C53.202,32.064 69.312,14.046 87.433,14.046ZM87.133,21.55C72.762,21.55 61.095,36.624 61.095,55.191C61.095,73.758 72.762,88.832 87.133,88.832C101.504,88.832 113.171,73.758 113.171,55.191C113.171,36.624 101.504,21.55 87.133,21.55Z"/>
                </g>
                <g transform="matrix(1.24343,0.685066,-0.776012,1.28263,74.2693,-72.8119)">
                    <path d="M86.838,14.653C104.667,14.653 120.454,32.436 120.454,55.47C120.454,78.17 104.998,95.729 87.428,95.729C69.599,95.729 53.812,77.946 53.812,54.911C53.812,32.211 69.268,14.653 86.838,14.653ZM87.133,21.55C72.762,21.55 61.095,36.624 61.095,55.191C61.095,73.758 72.762,88.832 87.133,88.832C101.504,88.832 113.171,73.758 113.171,55.191C113.171,36.624 101.504,21.55 87.133,21.55Z"/>
                </g>
            </g>
            <g id="Stripes" transform="matrix(1,0,0,1,4.4273,10.012)">
                <g transform="matrix(1,0,0,1,-1990,-10.012)">
                    <path d="M2123.15,48.779C2123.16,48.769 2123.19,48.757 2123.23,48.744L2125.97,47.441C2125.94,47.634 2126.37,47.81 2127.22,48.004C2149.85,44.567 2258.01,35.485 2225.2,141.66L2211.28,164.513C2207.26,55.89 2105.72,57.047 2105.72,57.047L2123.15,48.779Z" style="fill:rgb(27,178,255);stroke:black;stroke-width:3px;"/>
                </g>
                <g transform="matrix(1,0,0,1,-1990,-10.012)">
                    <path d="M2080.8,62.288C2080.82,62.275 2080.85,62.264 2080.91,62.254L2105.72,54.161C2105.72,54.12 2207.33,55.752 2211.28,164.513L2194.48,182.189C2194.47,182.499 2194.46,182.81 2194.45,183.121L2175.29,197.811L2175.24,197.811C2177.95,88.012 2061.93,73.445 2061.93,73.445L2080.8,62.288Z" style="fill:rgb(255,217,0);stroke:black;stroke-width:3px;"/>
                </g>
                <g transform="matrix(1,0,0,1,-1990,-10.012)">
                    <path d="M2044.49,87.095C2044.94,87.256 2047.33,87.513 2051.12,88.104C2046.94,87.339 2044.49,87.095 2044.49,87.095L2061.93,73.445C2063.68,72.061 2184.62,86.855 2176.66,196.97L2157.63,209.495L2137.25,218.387C2134.85,103.901 2029.57,102.951 2029.57,102.951L2044.49,87.095Z" style="fill:rgb(255,27,141);stroke:black;stroke-width:3px;"/>
                </g>
            </g>
            <g id="Body-outline" serif:id="Body outline" transform="matrix(0.994109,-0.573949,0.761422,1.28301,-120.17,92.6047)">
                <ellipse cx="168.926" cy="110.515" rx="107.942" ry="55.376" style="fill:none;stroke:black;stroke-width:7.47px;"/>
            </g>
            <g id="Wings" transform="matrix(0.959562,0.127262,-0.127262,0.959562,7.56883,-6.44254)">
                <g id="Back-wing" serif:id="Back wing" transform="matrix(1.17688,-0.575088,0.651434,1.21399,-55.8934,35.953)">
                    <ellipse cx="87.133" cy="55.191" rx="26.038" ry="33.641" style="fill:rgb(195,195,195);stroke:black;stroke-width:2.26px;"/>
                </g>
                <g id="Front-wing" serif:id="Front wing" transform="matrix(0.946806,0,0,0.999012,5.86837,0.313874)">
                    <g id="Front-wing-main" serif:id="Front wing main" transform="matrix(1.31328,0.685743,-0.81961,1.2839,72.2439,-73.1981)">
                        <ellipse cx="87.133" cy="55.191" rx="26.038" ry="33.641" style="fill:rgb(195,195,195);stroke:black;stroke-width:2.17px;"/>
                    </g>
                    <path id="Front-wing-line" serif:id="Front wing line" d="M119.334,101.013C123.249,82.03 129.669,61.104 148.451,47.276" style="fill:none;stroke:black;stroke-width:3.18px;"/>
                </g>
            </g>
        </g>
    </g>
</svg>
